<svg viewBox="0 0 466 462" fill="none" xmlns="http://www.w3.org/2000/svg">
<path fill-rule="evenodd" clip-rule="evenodd" d="M34.6 0H0.599998L22.2 142H52L59.4 91.6L60.8 77.8L62.4 91.6L70.2 142H99.8L121.2 0H87L79.6 74.8L69.6 0H52.4L42.8 74.8L34.6 0ZM227.59 90H220.816V142H187.616V0H227.416C242.349 0 252.282 2.8 257.216 8.4C262.149 13.8667 264.616 21.6667 264.616 31.8V58.6C264.616 67.0234 261.238 73.8877 254.482 79.193C256.137 80.862 257.381 82.531 258.216 84.2C259.682 87 260.749 91.8 261.416 98.6L266.616 142H234.016L229.416 98.2C229.149 95.1333 228.749 92.8 228.216 91.2C228.098 90.7314 227.89 90.3314 227.59 90ZM224.816 63H220.616V29.6H224.816C228.416 29.6 230.416 30.0667 230.816 31C231.349 31.9333 231.616 34.0667 231.616 37.4V55.4C231.616 58.8667 231.349 61 230.816 61.8C230.282 62.6 228.282 63 224.816 63ZM425.356 153H455.356V295H426.756L400.756 223L402.756 243V295H372.756V153H387.956H403.156L427.156 224.6L425.356 203.8V153ZM82.4 307.6H49.6V414.4C49.6 417.467 49.2 419.4 48.4 420.2C47.7333 420.867 46.1333 421.2 43.6 421.2C41.0667 421.2 39.4667 420.867 38.8 420.2C38.1333 419.4 37.8 417.467 37.8 414.4V307.6H4.8V419.6C4.8 430.933 8.06666 439.067 14.6 444C21.1333 448.8 30.7333 451.2 43.4 451.2C56.2 451.2 65.8667 448.8 72.4 444C79.0667 439.2 82.4 431.067 82.4 419.6V307.6ZM100.905 307.6H134.105L146.305 367.8L148.305 380.2L150.705 367.8L163.705 307.6H197.705V449.6H166.705V403.4L167.705 384.6L154.905 449.6H141.705L128.705 385L129.505 404V449.6H100.905V307.6ZM225.308 420L216.308 310V307.6H254.508V310L245.508 420H225.308ZM221.708 425.4V449.6H249.108V425.4H221.708ZM292.686 153V295H354.486V263.4H325.686V239.2H354.486V207.4H325.686V184.6H354.486V153H292.686ZM241.381 153H274.181V265C274.181 276.467 270.848 284.6 264.181 289.4C257.648 294.2 247.981 296.6 235.181 296.6C222.515 296.6 212.915 294.2 206.381 289.4C199.848 284.467 196.581 276.333 196.581 265V153H229.581V259.8C229.581 262.867 229.915 264.8 230.581 265.6C231.248 266.267 232.848 266.6 235.381 266.6C237.915 266.6 239.515 266.267 240.181 265.6C240.981 264.8 241.381 262.867 241.381 259.8V153ZM138.853 200.488L134.163 246H142.927L138.853 200.488ZM145.183 271.2L147.314 295H182.714L161.314 153H117.114L95.9141 295H129.114L131.566 271.2H145.183ZM72.8 220.8C76.5333 222.8 79.1333 225.533 80.6 229C82.2 232.467 83 237.933 83 245.4V265C83 274.067 80.7333 281.333 76.2 286.8C71.6667 292.267 63.4 295 51.4 295H5.6V153H51.4C59.9333 153 67.2667 155.4 73.4 160.2C79.5333 165 82.6 172.4 82.6 182.4V198.4C82.6 204.533 81.6667 209.267 79.8 212.6C77.9333 215.8 75.6 218.533 72.8 220.8ZM38.6 265.8H44.4C46.6667 265.8 48.2 265.267 49 264.2C49.8 263 50.2 260.667 50.2 257.2V243.2C50.2 240.4 49.8 238.4 49 237.2C48.3333 235.867 46.5333 235.2 43.6 235.2H38.6V265.8ZM43.4 210.2C45.6667 210.2 47.2667 209.933 48.2 209.4C49.1333 208.733 49.6 206.867 49.6 203.8V189.4C49.6 186.6 49.2 184.8 48.4 184C47.6 183.067 46 182.6 43.6 182.6H38.6V210.2H43.4ZM168.475 0V142H135.475V0H168.475Z"/>
</svg>
