<?xml version="1.0" encoding="UTF-8"?>
<svg xmlns="http://www.w3.org/2000/svg" xmlns:xlink="http://www.w3.org/1999/xlink" version="1.2" >
<font id="Greve Expanded 900">
<font-face  font-family="Greve" units-per-em="1000" ascent="850" descent="-150" font-style="normal" font-weight="400" font-stretch="expanded" cap-height="710" x-height="580" underline-position="-122" underline-thickness="100" />
<missing-glyph  horiz-adv-x="500" d="M50 720 L450 720 L450 -135 L50 -135 L50 720 Z M400 -85 L400 670 L100 670 L100 -85 L400 -85 Z " />
<glyph glyph-name="null" d="" />
<glyph glyph-name="uni000D" unicode="&#xd;" horiz-adv-x="250" d="" />
<glyph glyph-name="space" unicode="&#x20;" horiz-adv-x="156" d="" />
<glyph glyph-name="A" unicode="A" horiz-adv-x="444" d="M5 0 L111 710 L332 710 L439 0 L262 0 L251 119 L183 119 L171 0 L5 0 Z M196 246 L240 246 L220 476 L196 246 Z " />
<glyph glyph-name="AE" unicode="&#xc6;" horiz-adv-x="532" d="M242 0 L242 101 L159 100 L141 0 L-5 0 L132 710 L519 710 L519 559 L396 559 L396 438 L519 438 L519 287 L396 287 L396 151 L519 151 L519 0 L242 0 Z M231 512 L179 216 L242 216 L242 512 L231 512 Z " />
<glyph glyph-name="AEacute" unicode="&#x1fc;" horiz-adv-x="460" d="M242 0 L242 101 L159 100 L141 0 L-5 0 L132 710 L519 710 L519 559 L396 559 L396 438 L519 438 L519 287 L396 287 L396 151 L519 151 L519 0 L242 0 Z M231 512 L179 216 L242 216 L242 512 L231 512 Z M386 819 L311 748 L175 748 L221 819 L386 819 Z " />
<glyph glyph-name="Aacute" unicode="&#xc1;" horiz-adv-x="382" d="M5 0 L111 710 L332 710 L439 0 L262 0 L251 119 L183 119 L171 0 L5 0 Z M196 246 L240 246 L220 476 L196 246 Z M338 812 L263 741 L127 741 L173 812 L338 812 Z " />
<glyph glyph-name="Abreve" unicode="&#x102;" horiz-adv-x="382" d="M5 0 L111 710 L332 710 L439 0 L262 0 L251 119 L183 119 L171 0 L5 0 Z M196 246 L240 246 L220 476 L196 246 Z M346 829 Q346 769 322 748 Q298 727 242 727 L183 727 Q130 727 102 748.5 Q74 770 74 829 L160 829 Q161 811 168 804 Q175 797 206 797 L217 797 Q248 797 254 805 Q260 813 261 829 L346 829 Z " />
<glyph glyph-name="Acircumflex" unicode="&#xc2;" horiz-adv-x="382" d="M5 0 L111 710 L332 710 L439 0 L262 0 L251 119 L183 119 L171 0 L5 0 Z M196 246 L240 246 L220 476 L196 246 Z M75 729 L159 808 L264 808 L344 728 L242 728 L210 759 L179 729 L75 729 Z " />
<glyph glyph-name="Adieresis" unicode="&#xc4;" horiz-adv-x="382" d="M5 0 L111 710 L332 710 L439 0 L262 0 L251 119 L183 119 L171 0 L5 0 Z M196 246 L240 246 L220 476 L196 246 Z M194 801 L194 730 L71 730 L71 801 L194 801 Z M353 801 L353 730 L232 730 L232 801 L353 801 Z " />
<glyph glyph-name="Agrave" unicode="&#xc0;" horiz-adv-x="382" d="M5 0 L111 710 L332 710 L439 0 L262 0 L251 119 L183 119 L171 0 L5 0 Z M196 246 L240 246 L220 476 L196 246 Z M262 801 L309 730 L172 730 L97 801 L262 801 Z " />
<glyph glyph-name="Amacron" unicode="&#x100;" horiz-adv-x="382" d="M5 0 L111 710 L332 710 L439 0 L262 0 L251 119 L183 119 L171 0 L5 0 Z M196 246 L240 246 L220 476 L196 246 Z M367 812 L367 737 L79 737 L79 812 L367 812 Z " />
<glyph glyph-name="Aogonek" unicode="&#x104;" horiz-adv-x="446" d="M453 -136 L390 -136 Q314 -136 279 -111.5 Q244 -87 244 -50 Q244 -18 262 5 L251 119 L183 119 L171 0 L5 0 L111 710 L332 710 L439 0 L416 0 Q375 -1 363 -6 Q348 -12 348 -24 Q348 -37 364.5 -40.5 Q381 -44 403 -44 L437 -44 L453 -136 Z M196 246 L240 246 L220 476 L196 246 Z " />
<glyph glyph-name="Aring" unicode="&#xc5;" horiz-adv-x="382" d="M5 0 L111 710 L332 710 L439 0 L262 0 L251 119 L183 119 L171 0 L5 0 Z M196 246 L240 246 L220 476 L196 246 Z M189 728 Q141 728 116.5 745.5 Q92 763 92 803 Q92 845 116.5 863 Q141 881 190 881 L226 881 Q276 881 300 863 Q324 845 324 803 Q324 763 300.5 745.5 Q277 728 226 728 L189 728 Z M197 824 Q171 824 165.5 820 Q160 816 160 803 Q160 792 166.5 788.5 Q173 785 197 785 L221 785 Q245 785 250.5 788 Q256 791 256 803 Q256 816 250.5 820 Q245 824 221 824 L197 824 Z " />
<glyph glyph-name="Aringacute" unicode="&#x1fa;" horiz-adv-x="382" d="M5 0 L111 710 L332 710 L439 0 L262 0 L251 119 L183 119 L171 0 L5 0 Z M196 246 L240 246 L220 476 L196 246 Z M189 728 Q141 728 116.5 745.5 Q92 763 92 803 Q92 845 116.5 863 Q141 881 190 881 L226 881 Q276 881 300 863 Q324 845 324 803 Q324 763 300.5 745.5 Q277 728 226 728 L189 728 Z M197 824 Q171 824 165.5 820 Q160 816 160 803 Q160 792 166.5 788.5 Q173 785 197 785 L221 785 Q245 785 250.5 788 Q256 791 256 803 Q256 816 250.5 820 Q245 824 221 824 L197 824 Z M335 967 L260 896 L124 896 L170 967 L335 967 Z " />
<glyph glyph-name="Atilde" unicode="&#xc3;" horiz-adv-x="382" d="M5 0 L111 710 L332 710 L439 0 L262 0 L251 119 L183 119 L171 0 L5 0 Z M196 246 L240 246 L220 476 L196 246 Z M275 840 Q311 840 334.5 819 Q358 798 359 736 L284 736 Q283 749 279.5 754.5 Q276 760 266 760 Q250 760 220.5 745.5 Q191 731 157 731 Q119 731 95.5 753 Q72 775 72 833 L144 833 Q144 819 149.5 813.5 Q155 808 166 808 Q187 808 216 824 Q245 840 275 840 Z " />
<glyph glyph-name="B" unicode="B" horiz-adv-x="435" d="M364 371 Q392 357 403.5 331 Q415 305 415 248 L415 150 Q415 82 381 41 Q347 0 257 0 L28 0 L28 710 L257 710 Q321 710 367 674 Q413 638 413 563 L413 483 Q413 437 399 412.5 Q385 388 364 371 Z M217 424 Q234 424 241 428.5 Q248 433 248 456 L248 528 Q248 549 242 556 Q236 563 218 563 L193 563 L193 424 L217 424 Z M193 146 L222 146 Q239 146 245 154.5 Q251 163 251 189 L251 259 Q251 280 245.5 289.5 Q240 299 218 299 L193 299 L193 146 Z " />
<glyph glyph-name="C" unicode="C" horiz-adv-x="432" d="M220 718 Q319 718 364.5 684.5 Q410 651 410 570 L410 422 L245 422 L245 542 Q245 558 240.5 564.5 Q236 571 217 571 Q201 571 195.5 565 Q190 559 190 543 L190 163 Q190 148 195.5 143 Q201 138 217 138 Q233 138 239 143 Q245 148 245 163 L245 307 L410 307 L410 143 Q410 58 365.5 25 Q321 -8 218 -8 Q120 -8 72.5 24 Q25 56 25 145 L25 569 Q26 650 74 684 Q122 718 220 718 Z " />
<glyph glyph-name="Cacute" unicode="&#x106;" horiz-adv-x="376" d="M220 718 Q319 718 364.5 684.5 Q410 651 410 570 L410 422 L245 422 L245 542 Q245 558 240.5 564.5 Q236 571 217 571 Q201 571 195.5 565 Q190 559 190 543 L190 163 Q190 148 195.5 143 Q201 138 217 138 Q233 138 239 143 Q245 148 245 163 L245 307 L410 307 L410 143 Q410 58 365.5 25 Q321 -8 218 -8 Q120 -8 72.5 24 Q25 56 25 145 L25 569 Q26 650 74 684 Q122 718 220 718 Z M343 815 L268 744 L132 744 L178 815 L343 815 Z " />
<glyph glyph-name="Ccaron" unicode="&#x10c;" horiz-adv-x="376" d="M220 718 Q319 718 364.5 684.5 Q410 651 410 570 L410 422 L245 422 L245 542 Q245 558 240.5 564.5 Q236 571 217 571 Q201 571 195.5 565 Q190 559 190 543 L190 163 Q190 148 195.5 143 Q201 138 217 138 Q233 138 239 143 Q245 148 245 163 L245 307 L410 307 L410 143 Q410 58 365.5 25 Q321 -8 218 -8 Q120 -8 72.5 24 Q25 56 25 145 L25 569 Q26 650 74 684 Q122 718 220 718 Z M346 816 L263 737 L157 737 L77 817 L180 817 L211 787 L242 816 L346 816 Z " />
<glyph glyph-name="Ccedilla" unicode="&#xc7;" horiz-adv-x="376" d="M220 718 Q319 718 364.5 684.5 Q410 651 410 570 L410 422 L245 422 L245 542 Q245 558 240.5 564.5 Q236 571 217 571 Q201 571 195.5 565 Q190 559 190 543 L190 163 Q190 148 195.5 143 Q201 138 217 138 Q233 138 239 143 Q245 148 245 163 L245 307 L410 307 L410 143 Q410 58 365.5 25 Q321 -8 218 -8 Q120 -8 72.5 24 Q25 56 25 145 L25 569 Q26 650 74 684 Q122 718 220 718 Z M225 -87 L134 -87 L180 2 L242 2 L225 -87 Z " />
<glyph glyph-name="Cdotaccent" unicode="&#x10a;" horiz-adv-x="376" d="M220 718 Q319 718 364.5 684.5 Q410 651 410 570 L410 422 L245 422 L245 542 Q245 558 240.5 564.5 Q236 571 217 571 Q201 571 195.5 565 Q190 559 190 543 L190 163 Q190 148 195.5 143 Q201 138 217 138 Q233 138 239 143 Q245 148 245 163 L245 307 L410 307 L410 143 Q410 58 365.5 25 Q321 -8 218 -8 Q120 -8 72.5 24 Q25 56 25 145 L25 569 Q26 650 74 684 Q122 718 220 718 Z M149 840 L246 840 L246 750 L149 750 L149 840 Z " />
<glyph glyph-name="D" unicode="D" horiz-adv-x="436" d="M216 710 Q325 710 368.5 667 Q412 624 412 515 L412 196 Q412 83 374 41.5 Q336 0 216 0 L28 0 L28 710 L216 710 Z M193 148 L212 148 Q232 148 241 154.5 Q250 161 250 198 L250 512 Q250 546 241.5 553.5 Q233 561 212 561 L193 561 L193 148 Z " />
<glyph glyph-name="Dcaron" unicode="&#x10e;" horiz-adv-x="436" d="M216 710 Q325 710 368.5 667 Q412 624 412 515 L412 196 Q412 83 374 41.5 Q336 0 216 0 L28 0 L28 710 L216 710 Z M193 148 L212 148 Q232 148 241 154.5 Q250 161 250 198 L250 512 Q250 546 241.5 553.5 Q233 561 212 561 L193 561 L193 148 Z M353 815 L270 736 L164 736 L84 816 L187 816 L218 786 L249 815 L353 815 Z " />
<glyph glyph-name="Dcroat" unicode="&#x110;" horiz-adv-x="443" d="M6 387 L35 387 L35 710 L223 710 Q331 710 375 667 Q419 624 419 515 L419 196 Q419 83 381 41.5 Q343 0 223 0 L35 0 L35 311 L6 311 L6 387 Z M199 148 L219 148 Q239 148 248 154.5 Q257 161 257 198 L257 512 Q257 546 248.5 553.5 Q240 561 219 561 L199 561 L199 387 L241 387 L241 311 L199 311 L199 148 Z " />
<glyph glyph-name="E" unicode="E" horiz-adv-x="360" d="M28 0 L28 710 L337 710 L337 552 L193 552 L193 438 L337 438 L337 279 L193 279 L193 158 L337 158 L337 0 L28 0 Z " />
<glyph glyph-name="Eacute" unicode="&#xc9;" horiz-adv-x="306" d="M28 0 L28 710 L337 710 L337 552 L193 552 L193 438 L337 438 L337 279 L193 279 L193 158 L337 158 L337 0 L28 0 Z M302 811 L227 740 L91 740 L137 811 L302 811 Z " />
<glyph glyph-name="Ebreve" unicode="&#x114;" horiz-adv-x="358" d="M319 831 Q319 771 295 750 Q271 729 215 729 L156 729 Q103 729 75 750.5 Q47 772 47 831 L133 831 Q134 813 141 806 Q148 799 179 799 L190 799 Q221 799 227 807 Q233 815 234 831 L319 831 Z M28 0 L28 710 L337 710 L337 552 L193 552 L193 438 L337 438 L337 279 L193 279 L193 158 L337 158 L337 0 L28 0 Z " />
<glyph glyph-name="Ecaron" unicode="&#x11a;" horiz-adv-x="306" d="M28 0 L28 710 L337 710 L337 552 L193 552 L193 438 L337 438 L337 279 L193 279 L193 158 L337 158 L337 0 L28 0 Z M311 816 L228 737 L122 737 L42 817 L145 817 L176 787 L207 816 L311 816 Z " />
<glyph glyph-name="Ecircumflex" unicode="&#xca;" horiz-adv-x="306" d="M28 0 L28 710 L337 710 L337 552 L193 552 L193 438 L337 438 L337 279 L193 279 L193 158 L337 158 L337 0 L28 0 Z M45 733 L129 812 L234 812 L314 732 L212 732 L180 763 L149 733 L45 733 Z " />
<glyph glyph-name="Edieresis" unicode="&#xcb;" horiz-adv-x="306" d="M28 0 L28 710 L337 710 L337 552 L193 552 L193 438 L337 438 L337 279 L193 279 L193 158 L337 158 L337 0 L28 0 Z M162 800 L162 729 L39 729 L39 800 L162 800 Z M321 800 L321 729 L200 729 L200 800 L321 800 Z " />
<glyph glyph-name="Edotaccent" unicode="&#x116;" horiz-adv-x="358" d="M28 0 L28 710 L337 710 L337 552 L193 552 L193 438 L337 438 L337 279 L193 279 L193 158 L337 158 L337 0 L28 0 Z M134 832 L231 832 L231 742 L134 742 L134 832 Z " />
<glyph glyph-name="Egrave" unicode="&#xc8;" horiz-adv-x="306" d="M28 0 L28 710 L337 710 L337 552 L193 552 L193 438 L337 438 L337 279 L193 279 L193 158 L337 158 L337 0 L28 0 Z M228 803 L275 732 L138 732 L63 803 L228 803 Z " />
<glyph glyph-name="Emacron" unicode="&#x112;" horiz-adv-x="306" d="M28 0 L28 710 L337 710 L337 552 L193 552 L193 438 L337 438 L337 279 L193 279 L193 158 L337 158 L337 0 L28 0 Z M335 810 L335 735 L47 735 L47 810 L335 810 Z " />
<glyph glyph-name="Eogonek" unicode="&#x118;" horiz-adv-x="306" d="M28 0 L28 710 L337 710 L337 552 L193 552 L193 438 L337 438 L337 279 L193 279 L193 158 L337 158 L337 0 L28 0 Z M329 -140 L258 -140 Q203 -140 168.5 -113 Q134 -86 134 -49 Q134 -14 154.5 10 Q175 34 217 35 L329 1 Q321 1 314 1 Q273 1 257.5 -4 Q242 -9 242 -26 Q242 -41 259.5 -45 Q277 -49 300 -49 L329 -49 L329 -140 Z " />
<glyph glyph-name="Eth" unicode="&#xd0;" horiz-adv-x="459" d="M6 387 L36 387 L36 710 L224 710 Q332 710 376 667 Q420 624 420 515 L420 196 Q420 83 382 41.5 Q344 0 224 0 L36 0 L36 311 L6 311 L6 387 Z M200 148 L220 148 Q240 148 249 154.5 Q258 161 258 198 L258 512 Q258 546 249.5 553.5 Q241 561 220 561 L200 561 L200 387 L241 387 L241 311 L200 311 L200 148 Z " />
<glyph glyph-name="Euro" unicode="&#x20ac;" horiz-adv-x="463" d="M8 455 L53 455 L53 583 Q53 653 101 685.5 Q149 718 247 718 Q347 718 392 687 Q437 656 437 584 L437 503 L284 503 L284 565 Q284 570 275.5 573.5 Q267 577 245 577 Q223 577 215 574 Q207 571 207 566 L207 455 L336 455 L336 373 L207 373 L207 336 L336 336 L336 254 L207 254 L207 140 Q207 136 215 132.5 Q223 129 245 129 Q266 129 275 132.5 Q284 136 284 140 L284 206 L437 206 L437 120 Q437 55 393 23.5 Q349 -8 247 -8 Q147 -8 100 22.5 Q53 53 53 123 L53 254 L8 254 L8 336 L53 336 L53 373 L8 373 L8 455 Z " />
<glyph glyph-name="F" unicode="F" horiz-adv-x="345" d="M28 0 L28 710 L326 710 L326 552 L193 552 L193 438 L326 438 L326 279 L193 279 L193 0 L28 0 Z " />
<glyph glyph-name="G" unicode="G" horiz-adv-x="435" d="M218 717 Q326 717 368.5 682 Q411 647 411 571 L411 456 L247 456 L247 535 Q247 555 241.5 560.5 Q236 566 218 566 Q199 566 193.5 560.5 Q188 555 188 535 L188 182 Q188 159 192 150.5 Q196 142 223 142 Q249 142 253 150.5 Q257 159 257 182 L257 260 L218 260 L218 412 L411 412 L411 141 Q411 56 364 23.5 Q317 -9 223 -9 Q123 -9 73.5 23.5 Q24 56 24 141 L24 571 Q24 647 69.5 682 Q115 717 218 717 Z " />
<glyph glyph-name="Gbreve" unicode="&#x11e;" horiz-adv-x="376" d="M218 717 Q326 717 368.5 682 Q411 647 411 571 L411 456 L247 456 L247 535 Q247 555 241.5 560.5 Q236 566 218 566 Q199 566 193.5 560.5 Q188 555 188 535 L188 182 Q188 159 192 150.5 Q196 142 223 142 Q249 142 253 150.5 Q257 159 257 182 L257 260 L218 260 L218 412 L411 412 L411 141 Q411 56 364 23.5 Q317 -9 223 -9 Q123 -9 73.5 23.5 Q24 56 24 141 L24 571 Q24 647 69.5 682 Q115 717 218 717 Z M351 838 Q351 778 327 757 Q303 736 247 736 L188 736 Q135 736 107 757.5 Q79 779 79 838 L165 838 Q166 820 173 813 Q180 806 211 806 L222 806 Q253 806 259 814 Q265 822 266 838 L351 838 Z " />
<glyph glyph-name="Gdotaccent" unicode="&#x120;" horiz-adv-x="434" d="M218 718 Q326 718 368.5 683 Q411 648 411 572 L411 457 L247 457 L247 536 Q247 556 241.5 561.5 Q236 567 218 567 Q199 567 193.5 561.5 Q188 556 188 536 L188 183 Q188 160 192 151.5 Q196 143 223 143 Q249 143 253 151.5 Q257 160 257 183 L257 261 L218 261 L218 413 L411 413 L411 142 Q411 57 364 24.5 Q317 -8 223 -8 Q123 -8 73.5 24.5 Q24 57 24 142 L24 572 Q24 648 69.5 683 Q115 718 218 718 Z M168 839 L265 839 L265 749 L168 749 L168 839 Z " />
<glyph glyph-name="H" unicode="H" horiz-adv-x="440" d="M248 710 L412 710 L412 0 L248 0 L248 281 L193 281 L193 0 L28 0 L28 710 L193 710 L193 437 L248 437 L248 710 Z " />
<glyph glyph-name="Hbar" unicode="&#x126;" horiz-adv-x="440" d="M-4 531 L-4 582 L28 582 L28 710 L193 710 L193 582 L248 582 L248 710 L412 710 L412 582 L444 582 L444 531 L412 531 L412 0 L248 0 L248 281 L193 281 L193 0 L28 0 L28 531 L-4 531 Z M193 437 L248 437 L248 531 L193 531 L193 437 Z " />
<glyph glyph-name="I" unicode="I" horiz-adv-x="221" d="M193 710 L193 0 L28 0 L28 710 L193 710 Z " />
<glyph glyph-name="Iacute" unicode="&#xcd;" horiz-adv-x="211" d="M193 710 L193 0 L28 0 L28 710 L193 710 Z M243 812 L168 741 L32 741 L78 812 L243 812 Z " />
<glyph glyph-name="Ibreve" unicode="&#x12c;" horiz-adv-x="211" d="M193 710 L193 0 L28 0 L28 710 L193 710 Z M241 837 Q241 777 217 756 Q193 735 137 735 L78 735 Q25 735 -3 756.5 Q-31 778 -31 837 L55 837 Q56 819 63 812 Q70 805 101 805 L112 805 Q143 805 149 813 Q155 821 156 837 L241 837 Z " />
<glyph glyph-name="Icircumflex" unicode="&#xce;" horiz-adv-x="211" d="M193 710 L193 0 L28 0 L28 710 L193 710 Z M-30 729 L54 808 L159 808 L239 728 L137 728 L105 759 L74 729 L-30 729 Z " />
<glyph glyph-name="Idieresis" unicode="&#xcf;" horiz-adv-x="211" d="M86 784 L86 734 L-7 734 L-7 784 L86 784 Z M217 784 L217 734 L125 734 L125 784 L217 784 Z M193 710 L193 0 L28 0 L28 710 L193 710 Z " />
<glyph glyph-name="Idot" unicode="&#x130;" horiz-adv-x="211" d="M193 710 L193 0 L28 0 L28 710 L193 710 Z M60 833 L157 833 L157 743 L60 743 L60 833 Z " />
<glyph glyph-name="Igrave" unicode="&#xcc;" horiz-adv-x="211" d="M193 710 L193 0 L28 0 L28 710 L193 710 Z M130 802 L177 731 L40 731 L-35 802 L130 802 Z " />
<glyph glyph-name="Imacron" unicode="&#x12a;" horiz-adv-x="211" d="M-7 790 L217 790 L217 735 L-7 735 L-7 790 Z M193 710 L193 0 L28 0 L28 710 L193 710 Z " />
<glyph glyph-name="Iogonek" unicode="&#x12e;" horiz-adv-x="214" d="M196 710 L196 0 L31 0 L31 710 L196 710 Z M186 -141 L115 -141 Q60 -141 25.5 -114 Q-9 -87 -9 -50 Q-9 -15 11.5 9 Q32 33 74 34 L186 0 Q178 0 171 0 Q130 0 114.5 -5 Q99 -10 99 -27 Q99 -42 116.5 -46 Q134 -50 157 -50 L186 -50 L186 -141 Z " />
<glyph glyph-name="J" unicode="J" horiz-adv-x="303" d="M113 710 L277 710 L277 178 Q277 53 223.5 24.5 Q170 -4 87 -4 Q52 -4 11 0 L11 156 Q38 153 57 153 Q82 153 97.5 159.5 Q113 166 113 225 L113 710 Z " />
<glyph glyph-name="K" unicode="K" horiz-adv-x="461" d="M323 354 L458 0 L282 0 L193 257 L193 0 L28 0 L28 710 L193 710 L193 443 L276 710 L451 710 L323 354 Z " />
<glyph glyph-name="L" unicode="L" horiz-adv-x="342" d="M28 0 L28 710 L193 710 L193 154 L333 154 L333 0 L28 0 Z " />
<glyph glyph-name="Lacute" unicode="&#x139;" horiz-adv-x="348" d="M28 0 L28 710 L193 710 L193 154 L333 154 L333 0 L28 0 Z M248 811 L173 740 L37 740 L83 811 L248 811 Z " />
<glyph glyph-name="Lcaron" unicode="&#x13d;" horiz-adv-x="365" d="M28 0 L28 710 L193 710 L193 154 L333 154 L333 0 L28 0 Z M354 710 L314 509 L236 509 L239 710 L354 710 Z " />
<glyph glyph-name="Ldot" unicode="&#x13f;" horiz-adv-x="398" d="M28 0 L28 710 L193 710 L193 154 L333 154 L333 0 L28 0 Z M389 444 L389 299 L256 299 L256 444 L389 444 Z " />
<glyph glyph-name="Lslash" unicode="&#x141;" horiz-adv-x="365" d="M8 363 L45 372 L45 710 L209 710 L209 416 L299 439 L299 359 L209 337 L209 154 L349 154 L349 0 L45 0 L45 296 L8 287 L8 363 Z " />
<glyph glyph-name="M" unicode="M" horiz-adv-x="541" d="M28 710 L194 710 L255 409 L265 347 L277 409 L342 710 L512 710 L512 0 L357 0 L357 231 L362 325 L298 0 L232 0 L167 323 L171 228 L171 0 L28 0 L28 710 Z " />
<glyph glyph-name="N" unicode="N" horiz-adv-x="469" d="M291 710 L441 710 L441 0 L298 0 L168 360 L178 260 L178 0 L28 0 L28 710 L180 710 L300 352 L291 456 L291 710 Z " />
<glyph glyph-name="Nacute" unicode="&#x143;" horiz-adv-x="469" d="M291 710 L441 710 L441 0 L298 0 L168 360 L178 260 L178 0 L28 0 L28 710 L180 710 L300 352 L291 456 L291 710 Z M369 819 L294 748 L158 748 L204 819 L369 819 Z " />
<glyph glyph-name="Ncaron" unicode="&#x147;" horiz-adv-x="469" d="M291 710 L441 710 L441 0 L298 0 L168 360 L178 260 L178 0 L28 0 L28 710 L180 710 L300 352 L291 456 L291 710 Z M365 820 L282 741 L176 741 L96 821 L199 821 L230 791 L261 820 L365 820 Z " />
<glyph glyph-name="Ntilde" unicode="&#xd1;" horiz-adv-x="412" d="M291 710 L441 710 L441 0 L298 0 L168 360 L178 260 L178 0 L28 0 L28 710 L180 710 L300 352 L291 456 L291 710 Z M290 845 Q326 845 349.5 824 Q373 803 374 741 L299 741 Q298 754 294.5 759.5 Q291 765 281 765 Q265 765 235.5 750.5 Q206 736 172 736 Q134 736 110.5 758 Q87 780 87 838 L159 838 Q159 824 164.5 818.5 Q170 813 181 813 Q202 813 231 829 Q260 845 290 845 Z " />
<glyph glyph-name="O" unicode="O" horiz-adv-x="429" d="M214 720 Q316 720 362 680 Q408 640 408 565 L408 144 Q408 69 362 29.5 Q316 -10 215 -10 Q112 -10 66.5 29.5 Q21 69 21 144 L21 565 Q21 641 66.5 680.5 Q112 720 214 720 Z M185 179 Q185 152 190.5 146.5 Q196 141 215 141 Q234 141 239 146.5 Q244 152 244 179 L244 532 Q244 559 238 564.5 Q232 570 215 570 Q198 570 191.5 565 Q185 560 185 532 L185 179 Z " />
<glyph glyph-name="OE" unicode="&#x152;" horiz-adv-x="552" d="M142 714 Q213 714 238 681 Q238 680 239 679 L239 710 L548 710 L548 552 L403 552 L403 438 L548 438 L548 279 L403 279 L403 158 L548 158 L548 0 L239 0 L239 21 Q238 20 238 19 Q213 -7 142 -7 Q73 -7 40.5 32.5 Q8 72 8 147 L8 559 Q8 635 40.5 674.5 Q73 714 142 714 Z M162 158 Q162 137 170.5 133 Q179 129 203 129 Q227 129 234 132 Q237 133 239 137 L239 569 Q237 574 234 576 Q226 579 203 579 Q180 579 171 575 Q162 571 162 548 L162 158 Z " />
<glyph glyph-name="Oacute" unicode="&#xd3;" horiz-adv-x="429" d="M214 720 Q316 720 362 680 Q408 640 408 565 L408 144 Q408 69 362 29.5 Q316 -10 215 -10 Q112 -10 66.5 29.5 Q21 69 21 144 L21 565 Q21 641 66.5 680.5 Q112 720 214 720 Z M185 179 Q185 152 190.5 146.5 Q196 141 215 141 Q234 141 239 146.5 Q244 152 244 179 L244 532 Q244 559 238 564.5 Q232 570 215 570 Q198 570 191.5 565 Q185 560 185 532 L185 179 Z M357 817 L282 746 L146 746 L192 817 L357 817 Z " />
<glyph glyph-name="Obreve" unicode="&#x14e;" horiz-adv-x="429" d="M214 720 Q316 720 362 680 Q408 640 408 565 L408 144 Q408 69 362 29.5 Q316 -10 215 -10 Q112 -10 66.5 29.5 Q21 69 21 144 L21 565 Q21 641 66.5 680.5 Q112 720 214 720 Z M185 179 Q185 152 190.5 146.5 Q196 141 215 141 Q234 141 239 146.5 Q244 152 244 179 L244 532 Q244 559 238 564.5 Q232 570 215 570 Q198 570 191.5 565 Q185 560 185 532 L185 179 Z M350 844 Q350 784 326 763 Q302 742 246 742 L187 742 Q134 742 106 763.5 Q78 785 78 844 L164 844 Q165 826 172 819 Q179 812 210 812 L221 812 Q252 812 258 820 Q264 828 265 844 L350 844 Z " />
<glyph glyph-name="Ocircumflex" unicode="&#xd4;" horiz-adv-x="429" d="M214 720 Q316 720 362 680 Q408 640 408 565 L408 144 Q408 69 362 29.5 Q316 -10 215 -10 Q112 -10 66.5 29.5 Q21 69 21 144 L21 565 Q21 641 66.5 680.5 Q112 720 214 720 Z M185 179 Q185 152 190.5 146.5 Q196 141 215 141 Q234 141 239 146.5 Q244 152 244 179 L244 532 Q244 559 238 564.5 Q232 570 215 570 Q198 570 191.5 565 Q185 560 185 532 L185 179 Z M83 738 L167 817 L272 817 L352 737 L250 737 L218 768 L187 738 L83 738 Z " />
<glyph glyph-name="Odieresis" unicode="&#xd6;" horiz-adv-x="429" d="M214 720 Q316 720 362 680 Q408 640 408 565 L408 144 Q408 69 362 29.5 Q316 -10 215 -10 Q112 -10 66.5 29.5 Q21 69 21 144 L21 565 Q21 641 66.5 680.5 Q112 720 214 720 Z M185 179 Q185 152 190.5 146.5 Q196 141 215 141 Q234 141 239 146.5 Q244 152 244 179 L244 532 Q244 559 238 564.5 Q232 570 215 570 Q198 570 191.5 565 Q185 560 185 532 L185 179 Z M198 812 L198 741 L75 741 L75 812 L198 812 Z M357 812 L357 741 L236 741 L236 812 L357 812 Z " />
<glyph glyph-name="Ograve" unicode="&#xd2;" horiz-adv-x="429" d="M214 720 Q316 720 362 680 Q408 640 408 565 L408 144 Q408 69 362 29.5 Q316 -10 215 -10 Q112 -10 66.5 29.5 Q21 69 21 144 L21 565 Q21 641 66.5 680.5 Q112 720 214 720 Z M185 179 Q185 152 190.5 146.5 Q196 141 215 141 Q234 141 239 146.5 Q244 152 244 179 L244 532 Q244 559 238 564.5 Q232 570 215 570 Q198 570 191.5 565 Q185 560 185 532 L185 179 Z M246 813 L293 742 L156 742 L81 813 L246 813 Z " />
<glyph glyph-name="Ohungarumlaut" unicode="&#x150;" horiz-adv-x="429" d="M214 720 Q316 720 362 680 Q408 640 408 565 L408 144 Q408 69 362 29.5 Q316 -10 215 -10 Q112 -10 66.5 29.5 Q21 69 21 144 L21 565 Q21 641 66.5 680.5 Q112 720 214 720 Z M185 179 Q185 152 190.5 146.5 Q196 141 215 141 Q234 141 239 146.5 Q244 152 244 179 L244 532 Q244 559 238 564.5 Q232 570 215 570 Q198 570 191.5 565 Q185 560 185 532 L185 179 Z M241 819 L181 742 L84 742 L141 819 L241 819 Z M376 819 L315 742 L218 742 L278 819 L376 819 Z " />
<glyph glyph-name="Omacron" unicode="&#x14c;" horiz-adv-x="429" d="M214 720 Q316 720 362 680 Q408 640 408 565 L408 144 Q408 69 362 29.5 Q316 -10 215 -10 Q112 -10 66.5 29.5 Q21 69 21 144 L21 565 Q21 641 66.5 680.5 Q112 720 214 720 Z M185 179 Q185 152 190.5 146.5 Q196 141 215 141 Q234 141 239 146.5 Q244 152 244 179 L244 532 Q244 559 238 564.5 Q232 570 215 570 Q198 570 191.5 565 Q185 560 185 532 L185 179 Z M359 825 L359 750 L71 750 L71 825 L359 825 Z " />
<glyph glyph-name="Oslash" unicode="&#xd8;" horiz-adv-x="443" d="M375 710 L428 710 L393 640 Q408 608 408 565 L408 144 Q408 69 362 29.5 Q316 -10 215 -10 Q128 -10 82 18 L73 0 L15 0 L44 56 Q21 91 21 144 L21 565 Q21 641 66.5 680.5 Q112 720 214 720 Q314 720 360 681 L375 710 Z M185 335 L244 451 L244 532 Q244 559 238 564.5 Q232 570 215 570 Q198 570 191.5 565 Q185 560 185 532 L185 335 Z M185 179 Q185 152 190.5 146.5 Q196 141 215 141 Q234 141 239 146.5 Q244 152 244 179 L244 342 L185 224 L185 179 Z " />
<glyph glyph-name="Oslashacute" unicode="&#x1fe;" horiz-adv-x="382" d="M375 710 L428 710 L393 640 Q408 608 408 565 L408 144 Q408 69 362 29.5 Q316 -10 215 -10 Q128 -10 82 18 L73 0 L15 0 L44 56 Q21 91 21 144 L21 565 Q21 641 66.5 680.5 Q112 720 214 720 Q314 720 360 681 L375 710 Z M185 335 L244 451 L244 532 Q244 559 238 564.5 Q232 570 215 570 Q198 570 191.5 565 Q185 560 185 532 L185 335 Z M185 179 Q185 152 190.5 146.5 Q196 141 215 141 Q234 141 239 146.5 Q244 152 244 179 L244 342 L185 224 L185 179 Z M331 822 L256 751 L120 751 L166 822 L331 822 Z " />
<glyph glyph-name="Otilde" unicode="&#xd5;" horiz-adv-x="429" d="M214 720 Q316 720 362 680 Q408 640 408 565 L408 144 Q408 69 362 29.5 Q316 -10 215 -10 Q112 -10 66.5 29.5 Q21 69 21 144 L21 565 Q21 641 66.5 680.5 Q112 720 214 720 Z M185 179 Q185 152 190.5 146.5 Q196 141 215 141 Q234 141 239 146.5 Q244 152 244 179 L244 532 Q244 559 238 564.5 Q232 570 215 570 Q198 570 191.5 565 Q185 560 185 532 L185 179 Z M272 849 Q308 849 331.5 828 Q355 807 356 745 L281 745 Q280 758 276.5 763.5 Q273 769 263 769 Q247 769 217.5 754.5 Q188 740 154 740 Q116 740 92.5 762 Q69 784 69 842 L141 842 Q141 828 146.5 822.5 Q152 817 163 817 Q184 817 213 833 Q242 849 272 849 Z " />
<glyph glyph-name="P" unicode="P" horiz-adv-x="423" d="M216 710 Q334 710 373 667.5 Q412 625 412 551 L412 401 Q412 316 373.5 271 Q335 226 216 226 L193 226 L193 0 L28 0 L28 710 L216 710 Z M193 373 L213 373 Q235 373 241 379 Q247 385 247 406 L247 527 Q247 548 241.5 555 Q236 562 213 562 L193 562 L193 373 Z " />
<glyph glyph-name="Q" unicode="Q" horiz-adv-x="438" d="M214 720 Q316 720 362 680 Q408 640 408 565 L408 144 Q408 95 389 61 L425 13 L308 -75 L257 -8 Q237 -10 214 -10 Q112 -10 66.5 29.5 Q21 69 21 144 L21 565 Q21 641 66.5 680.5 Q112 720 214 720 Z M185 179 Q185 152 190.5 146.5 Q196 141 215 141 Q234 141 239 146.5 Q244 152 244 179 L244 532 Q244 559 238 564.5 Q232 570 215 570 Q198 570 191.5 565 Q185 560 185 532 L185 179 Z " />
<glyph glyph-name="R" unicode="R" horiz-adv-x="439" d="M227 710 Q339 710 376 668.5 Q413 627 413 551 L413 418 Q413 354 362 315 Q374 302 381 290 Q392 269 397 218 L423 0 L260 0 L237 219 Q235 242 231 254 Q230 257 228 260 L194 260 L194 0 L28 0 L28 710 L227 710 Z M193 395 L214 395 Q240 395 244 401 Q248 407 248 433 L248 523 Q248 548 244.5 555 Q241 562 214 562 L193 562 L193 395 Z " />
<glyph glyph-name="Racute" unicode="&#x154;" horiz-adv-x="436" d="M227 710 Q339 710 376 668.5 Q413 627 413 551 L413 418 Q413 354 362 315 Q374 302 381 290 Q392 269 397 218 L423 0 L260 0 L237 219 Q235 242 231 254 Q230 257 228 260 L194 260 L194 0 L28 0 L28 710 L227 710 Z M193 395 L214 395 Q240 395 244 401 Q248 407 248 433 L248 523 Q248 548 244.5 555 Q241 562 214 562 L193 562 L193 395 Z M339 812 L264 741 L128 741 L174 812 L339 812 Z " />
<glyph glyph-name="Rcaron" unicode="&#x158;" horiz-adv-x="377" d="M227 710 Q339 710 376 668.5 Q413 627 413 551 L413 418 Q413 354 362 315 Q374 302 381 290 Q392 269 397 218 L423 0 L260 0 L237 219 Q235 242 231 254 Q230 257 228 260 L194 260 L194 0 L28 0 L28 710 L227 710 Z M193 395 L214 395 Q240 395 244 401 Q248 407 248 433 L248 523 Q248 548 244.5 555 Q241 562 214 562 L193 562 L193 395 Z M334 814 L251 735 L145 735 L65 815 L168 815 L199 785 L230 814 L334 814 Z " />
<glyph glyph-name="S" unicode="S" horiz-adv-x="425" d="M211 720 Q320 720 362 679.5 Q404 639 404 575 L404 473 L239 473 L239 547 Q239 562 235.5 566.5 Q232 571 213 571 Q194 571 189.5 566.5 Q185 562 185 547 L185 504 Q185 488 190.5 478.5 Q196 469 213 460 L335 385 Q372 363 388 323.5 Q404 284 404 238 L404 135 Q404 59 355.5 25.5 Q307 -8 212 -8 Q119 -8 70 24 Q21 56 21 135 L21 252 L185 252 L185 167 Q185 150 189.5 145.5 Q194 141 213 141 Q232 141 235.5 145.5 Q239 150 239 167 L239 213 Q239 243 230 254 Q221 265 194 279 L104 335 Q66 357 43.5 394.5 Q21 432 21 484 L21 567 Q21 638 61.5 679 Q102 720 211 720 Z " />
<glyph glyph-name="Sacute" unicode="&#x15a;" horiz-adv-x="425" d="M211 720 Q320 720 362 679.5 Q404 639 404 575 L404 473 L239 473 L239 547 Q239 562 235.5 566.5 Q232 571 213 571 Q194 571 189.5 566.5 Q185 562 185 547 L185 504 Q185 488 190.5 478.5 Q196 469 213 460 L335 385 Q372 363 388 323.5 Q404 284 404 238 L404 135 Q404 59 355.5 25.5 Q307 -8 212 -8 Q119 -8 70 24 Q21 56 21 135 L21 252 L185 252 L185 167 Q185 150 189.5 145.5 Q194 141 213 141 Q232 141 235.5 145.5 Q239 150 239 167 L239 213 Q239 243 230 254 Q221 265 194 279 L104 335 Q66 357 43.5 394.5 Q21 432 21 484 L21 567 Q21 638 61.5 679 Q102 720 211 720 Z M327 827 L252 756 L116 756 L162 827 L327 827 Z " />
<glyph glyph-name="Scaron" unicode="&#x160;" horiz-adv-x="425" d="M211 720 Q320 720 362 679.5 Q404 639 404 575 L404 473 L239 473 L239 547 Q239 562 235.5 566.5 Q232 571 213 571 Q194 571 189.5 566.5 Q185 562 185 547 L185 504 Q185 488 190.5 478.5 Q196 469 213 460 L335 385 Q372 363 388 323.5 Q404 284 404 238 L404 135 Q404 59 355.5 25.5 Q307 -8 212 -8 Q119 -8 70 24 Q21 56 21 135 L21 252 L185 252 L185 167 Q185 150 189.5 145.5 Q194 141 213 141 Q232 141 235.5 145.5 Q239 150 239 167 L239 213 Q239 243 230 254 Q221 265 194 279 L104 335 Q66 357 43.5 394.5 Q21 432 21 484 L21 567 Q21 638 61.5 679 Q102 720 211 720 Z M341 820 L258 741 L152 741 L72 821 L175 821 L206 791 L237 820 L341 820 Z " />
<glyph glyph-name="Scedilla" unicode="&#x15e;" horiz-adv-x="369" d="M211 720 Q320 720 362 679.5 Q404 639 404 575 L404 473 L239 473 L239 547 Q239 562 235.5 566.5 Q232 571 213 571 Q194 571 189.5 566.5 Q185 562 185 547 L185 504 Q185 488 190.5 478.5 Q196 469 213 460 L335 385 Q372 363 388 323.5 Q404 284 404 238 L404 135 Q404 59 355.5 25.5 Q307 -8 212 -8 Q119 -8 70 24 Q21 56 21 135 L21 252 L185 252 L185 167 Q185 150 189.5 145.5 Q194 141 213 141 Q232 141 235.5 145.5 Q239 150 239 167 L239 213 Q239 243 230 254 Q221 265 194 279 L104 335 Q66 357 43.5 394.5 Q21 432 21 484 L21 567 Q21 638 61.5 679 Q102 720 211 720 Z M213 -126 L122 -126 L168 -37 L230 -37 L213 -126 Z " />
<glyph glyph-name="T" unicode="T" horiz-adv-x="385" d="M11 710 L374 710 L374 554 L275 554 L275 0 L110 0 L110 554 L11 554 L11 710 Z " />
<glyph glyph-name="Tcaron" unicode="&#x164;" horiz-adv-x="385" d="M11 710 L374 710 L374 554 L275 554 L275 0 L110 0 L110 554 L11 554 L11 710 Z M325 812 L242 733 L136 733 L56 813 L159 813 L190 783 L221 812 L325 812 Z " />
<glyph glyph-name="Thorn" unicode="&#xde;" horiz-adv-x="433" d="M175 0 L21 0 L21 710 L175 710 L175 646 Q178 649 181 652 Q221 687 282 687 Q343 687 376 655 Q409 623 409 568 L409 153 Q409 77 376.5 52 Q344 27 287 27 Q235 27 181 68 L175 73 L175 0 Z M175 174 Q183 170 190 167 Q205 161 224 161 Q243 161 249 164 Q255 167 255 185 L255 527 Q255 545 248.5 548.5 Q242 552 224 552 Q208 552 196 547 Q187 543 175 532 L175 174 Z " />
<glyph glyph-name="U" unicode="U" horiz-adv-x="437" d="M248 710 L412 710 L412 150 Q412 64 362.5 28 Q313 -8 217 -8 Q122 -8 73 28.5 Q24 65 24 150 L24 710 L189 710 L189 176 Q189 153 194 147.5 Q199 142 218 142 Q237 142 242.5 147.5 Q248 153 248 176 L248 710 Z " />
<glyph glyph-name="Uacute" unicode="&#xda;" horiz-adv-x="377" d="M248 710 L412 710 L412 150 Q412 64 362.5 28 Q313 -8 217 -8 Q122 -8 73 28.5 Q24 65 24 150 L24 710 L189 710 L189 176 Q189 153 194 147.5 Q199 142 218 142 Q237 142 242.5 147.5 Q248 153 248 176 L248 710 Z M344 821 L269 750 L133 750 L179 821 L344 821 Z " />
<glyph glyph-name="Ubreve" unicode="&#x16c;" horiz-adv-x="377" d="M248 710 L412 710 L412 150 Q412 64 362.5 28 Q313 -8 217 -8 Q122 -8 73 28.5 Q24 65 24 150 L24 710 L189 710 L189 176 Q189 153 194 147.5 Q199 142 218 142 Q237 142 242.5 147.5 Q248 153 248 176 L248 710 Z M346 833 Q346 773 322 752 Q298 731 242 731 L183 731 Q130 731 102 752.5 Q74 774 74 833 L160 833 Q161 815 168 808 Q175 801 206 801 L217 801 Q248 801 254 809 Q260 817 261 833 L346 833 Z " />
<glyph glyph-name="Ucircumflex" unicode="&#xdb;" horiz-adv-x="377" d="M248 710 L412 710 L412 150 Q412 64 362.5 28 Q313 -8 217 -8 Q122 -8 73 28.5 Q24 65 24 150 L24 710 L189 710 L189 176 Q189 153 194 147.5 Q199 142 218 142 Q237 142 242.5 147.5 Q248 153 248 176 L248 710 Z M76 738 L160 817 L265 817 L345 737 L243 737 L211 768 L180 738 L76 738 Z " />
<glyph glyph-name="Udieresis" unicode="&#xdc;" horiz-adv-x="377" d="M248 710 L412 710 L412 150 Q412 64 362.5 28 Q313 -8 217 -8 Q122 -8 73 28.5 Q24 65 24 150 L24 710 L189 710 L189 176 Q189 153 194 147.5 Q199 142 218 142 Q237 142 242.5 147.5 Q248 153 248 176 L248 710 Z M195 806 L195 735 L72 735 L72 806 L195 806 Z M354 806 L354 735 L233 735 L233 806 L354 806 Z " />
<glyph glyph-name="Ugrave" unicode="&#xd9;" horiz-adv-x="377" d="M248 710 L412 710 L412 150 Q412 64 362.5 28 Q313 -8 217 -8 Q122 -8 73 28.5 Q24 65 24 150 L24 710 L189 710 L189 176 Q189 153 194 147.5 Q199 142 218 142 Q237 142 242.5 147.5 Q248 153 248 176 L248 710 Z M257 805 L304 734 L167 734 L92 805 L257 805 Z " />
<glyph glyph-name="Uhungarumlaut" unicode="&#x170;" horiz-adv-x="377" d="M248 710 L412 710 L412 150 Q412 64 362.5 28 Q313 -8 217 -8 Q122 -8 73 28.5 Q24 65 24 150 L24 710 L189 710 L189 176 Q189 153 194 147.5 Q199 142 218 142 Q237 142 242.5 147.5 Q248 153 248 176 L248 710 Z M239 814 L179 737 L82 737 L139 814 L239 814 Z M374 814 L313 737 L216 737 L276 814 L374 814 Z " />
<glyph glyph-name="Umacron" unicode="&#x16a;" horiz-adv-x="377" d="M248 710 L412 710 L412 150 Q412 64 362.5 28 Q313 -8 217 -8 Q122 -8 73 28.5 Q24 65 24 150 L24 710 L189 710 L189 176 Q189 153 194 147.5 Q199 142 218 142 Q237 142 242.5 147.5 Q248 153 248 176 L248 710 Z M371 815 L371 740 L83 740 L83 815 L371 815 Z " />
<glyph glyph-name="Uogonek" unicode="&#x172;" horiz-adv-x="437" d="M397 -100 Q379 -113 353.5 -121 Q328 -129 291 -129 Q251 -129 225.5 -111 Q200 -93 200 -60 Q200 -31 215 -8 Q121 -8 73 29 Q24 65 24 150 L24 710 L189 710 L189 176 Q189 153 194 147.5 Q199 142 218 142 Q237 142 242.5 147.5 Q248 153 248 176 L248 710 L412 710 L412 150 Q412 80 379 43 Q377 41 376 40 Q370 33 362 28 Q355 23 347 18 Q337 12 329 8 Q311 -2 311 -13 Q311 -18 314 -21.5 Q317 -25 329 -25 Q344 -25 359.5 -17.5 Q375 -10 397 10 L397 -100 Z " />
<glyph glyph-name="Uring" unicode="&#x16e;" horiz-adv-x="377" d="M248 710 L412 710 L412 150 Q412 64 362.5 28 Q313 -8 217 -8 Q122 -8 73 28.5 Q24 65 24 150 L24 710 L189 710 L189 176 Q189 153 194 147.5 Q199 142 218 142 Q237 142 242.5 147.5 Q248 153 248 176 L248 710 Z M190 727 Q142 727 117.5 744.5 Q93 762 93 802 Q93 844 117.5 862 Q142 880 191 880 L227 880 Q277 880 301 862 Q325 844 325 802 Q325 762 301.5 744.5 Q278 727 227 727 L190 727 Z M198 823 Q172 823 166.5 819 Q161 815 161 802 Q161 791 167.5 787.5 Q174 784 198 784 L222 784 Q246 784 251.5 787 Q257 790 257 802 Q257 815 251.5 819 Q246 823 222 823 L198 823 Z " />
<glyph glyph-name="V" unicode="V" horiz-adv-x="442" d="M118 0 L3 710 L180 710 L224 292 L232 200 L239 292 L284 710 L439 710 L325 0 L118 0 Z " />
<glyph glyph-name="W" unicode="W" horiz-adv-x="609" d="M3 710 L173 710 L214 336 L262 710 L348 710 L398 336 L435 710 L606 710 L499 0 L351 0 L312 253 L304 321 L297 253 L260 0 L111 0 L3 710 Z " />
<glyph glyph-name="Wacute" unicode="&#x1e82;" horiz-adv-x="609" d="M3 710 L173 710 L214 336 L262 710 L348 710 L398 336 L435 710 L606 710 L499 0 L351 0 L312 253 L304 321 L297 253 L260 0 L111 0 L3 710 Z M441 823 L366 752 L230 752 L276 823 L441 823 Z " />
<glyph glyph-name="Wcircumflex" unicode="&#x174;" horiz-adv-x="609" d="M3 710 L173 710 L214 336 L262 710 L348 710 L398 336 L435 710 L606 710 L499 0 L351 0 L312 253 L304 321 L297 253 L260 0 L111 0 L3 710 Z M170 739 L254 818 L359 818 L439 738 L337 738 L305 769 L274 739 L170 739 Z " />
<glyph glyph-name="Wdieresis" unicode="&#x1e84;" horiz-adv-x="535" d="M3 710 L173 710 L214 336 L262 710 L348 710 L398 336 L435 710 L606 710 L499 0 L351 0 L312 253 L304 321 L297 253 L260 0 L111 0 L3 710 Z M272 804 L272 733 L149 733 L149 804 L272 804 Z M431 804 L431 733 L310 733 L310 804 L431 804 Z " />
<glyph glyph-name="Wgrave" unicode="&#x1e80;" horiz-adv-x="609" d="M3 710 L173 710 L214 336 L262 710 L348 710 L398 336 L435 710 L606 710 L499 0 L351 0 L312 253 L304 321 L297 253 L260 0 L111 0 L3 710 Z M334 804 L381 733 L244 733 L169 804 L334 804 Z " />
<glyph glyph-name="X" unicode="X" horiz-adv-x="465" d="M5 710 L180 710 L233 514 L284 710 L458 710 L331 352 L459 0 L284 0 L233 186 L179 0 L7 0 L135 351 L5 710 Z " />
<glyph glyph-name="Y" unicode="Y" horiz-adv-x="450" d="M307 173 L307 0 L143 0 L143 173 L2 710 L184 710 L223 440 L233 354 L242 440 L282 710 L448 710 L307 173 Z " />
<glyph glyph-name="Yacute" unicode="&#xdd;" horiz-adv-x="450" d="M307 173 L307 0 L143 0 L143 173 L2 710 L184 710 L223 440 L233 354 L242 440 L282 710 L448 710 L307 173 Z M368 818 L293 747 L157 747 L203 818 L368 818 Z " />
<glyph glyph-name="Ycircumflex" unicode="&#x176;" horiz-adv-x="450" d="M307 173 L307 0 L143 0 L143 173 L2 710 L184 710 L223 440 L233 354 L242 440 L282 710 L448 710 L307 173 Z M95 747 L179 826 L284 826 L364 746 L262 746 L230 777 L199 747 L95 747 Z " />
<glyph glyph-name="Ydieresis" unicode="&#x178;" horiz-adv-x="450" d="M307 173 L307 0 L143 0 L143 173 L2 710 L184 710 L223 440 L233 354 L242 440 L282 710 L448 710 L307 173 Z M212 815 L212 744 L89 744 L89 815 L212 815 Z M371 815 L371 744 L250 744 L250 815 L371 815 Z " />
<glyph glyph-name="Ygrave" unicode="&#x1ef2;" horiz-adv-x="450" d="M307 173 L307 0 L143 0 L143 173 L2 710 L184 710 L223 440 L233 354 L242 440 L282 710 L448 710 L307 173 Z M262 819 L309 748 L172 748 L97 819 L262 819 Z " />
<glyph glyph-name="Z" unicode="Z" horiz-adv-x="396" d="M17 710 L379 710 L379 583 L198 158 L379 158 L379 0 L17 0 L17 139 L197 552 L17 552 L17 710 Z " />
<glyph glyph-name="Zacute" unicode="&#x179;" horiz-adv-x="396" d="M17 710 L379 710 L379 583 L198 158 L379 158 L379 0 L17 0 L17 139 L197 552 L17 552 L17 710 Z M321 814 L246 743 L110 743 L156 814 L321 814 Z " />
<glyph glyph-name="Zcaron" unicode="&#x17d;" horiz-adv-x="339" d="M17 710 L379 710 L379 583 L198 158 L379 158 L379 0 L17 0 L17 139 L197 552 L17 552 L17 710 Z M320 816 L237 737 L131 737 L51 817 L154 817 L185 787 L216 816 L320 816 Z " />
<glyph glyph-name="Zdotaccent" unicode="&#x17b;" horiz-adv-x="396" d="M17 710 L379 710 L379 583 L198 158 L379 158 L379 0 L17 0 L17 139 L197 552 L17 552 L17 710 Z M149 836 L246 836 L246 746 L149 746 L149 836 Z " />
<glyph glyph-name="a" unicode="a" horiz-adv-x="425" d="M248 581 L398 581 L398 0 L243 0 L239 34 Q239 34 239 34 Q188 -6 135 -6 Q81 -6 50.5 24 Q20 54 20 129 L20 459 Q20 515 50.5 551.5 Q81 588 143 588 Q203 588 242 551 L248 581 Z M233 441 Q225 452 208 452 Q191 452 188 445 Q185 438 185 413 L185 165 Q185 141 187.5 134.5 Q190 128 206 128 Q222 128 233 138 L233 441 Z " />
<glyph glyph-name="aacute" unicode="&#xe1;" horiz-adv-x="425" d="M248 581 L398 581 L398 0 L243 0 L239 34 Q239 34 239 34 Q188 -6 135 -6 Q81 -6 50.5 24 Q20 54 20 129 L20 459 Q20 515 50.5 551.5 Q81 588 143 588 Q203 588 242 551 L248 581 Z M233 441 Q225 452 208 452 Q191 452 188 445 Q185 438 185 413 L185 165 Q185 141 187.5 134.5 Q190 128 206 128 Q222 128 233 138 L233 441 Z M329 712 L254 641 L118 641 L164 712 L329 712 Z " />
<glyph glyph-name="abreve" unicode="&#x103;" horiz-adv-x="425" d="M248 581 L398 581 L398 0 L243 0 L239 34 Q239 34 239 34 Q188 -6 135 -6 Q81 -6 50.5 24 Q20 54 20 129 L20 459 Q20 515 50.5 551.5 Q81 588 143 588 Q203 588 242 551 L248 581 Z M233 441 Q225 452 208 452 Q191 452 188 445 Q185 438 185 413 L185 165 Q185 141 187.5 134.5 Q190 128 206 128 Q222 128 233 138 L233 441 Z M345 726 Q345 666 321 645 Q297 624 241 624 L182 624 Q129 624 101 645.5 Q73 667 73 726 L159 726 Q160 708 167 701 Q174 694 205 694 L216 694 Q247 694 253 702 Q259 710 260 726 L345 726 Z " />
<glyph glyph-name="acircumflex" unicode="&#xe2;" horiz-adv-x="425" d="M248 581 L398 581 L398 0 L243 0 L239 34 Q239 34 239 34 Q188 -6 135 -6 Q81 -6 50.5 24 Q20 54 20 129 L20 459 Q20 515 50.5 551.5 Q81 588 143 588 Q203 588 242 551 L248 581 Z M233 441 Q225 452 208 452 Q191 452 188 445 Q185 438 185 413 L185 165 Q185 141 187.5 134.5 Q190 128 206 128 Q222 128 233 138 L233 441 Z M76 635 L160 714 L265 714 L345 634 L243 634 L211 665 L180 635 L76 635 Z " />
<glyph glyph-name="acutecomb" unicode="&#x301;" horiz-adv-x="282" d="M243 751 L168 680 L32 680 L78 751 L243 751 Z " />
<glyph glyph-name="adieresis" unicode="&#xe4;" horiz-adv-x="425" d="M248 581 L398 581 L398 0 L243 0 L239 34 Q239 34 239 34 Q188 -6 135 -6 Q81 -6 50.5 24 Q20 54 20 129 L20 459 Q20 515 50.5 551.5 Q81 588 143 588 Q203 588 242 551 L248 581 Z M233 441 Q225 452 208 452 Q191 452 188 445 Q185 438 185 413 L185 165 Q185 141 187.5 134.5 Q190 128 206 128 Q222 128 233 138 L233 441 Z M189 724 L189 653 L66 653 L66 724 L189 724 Z M348 724 L348 653 L227 653 L227 724 L348 724 Z " />
<glyph glyph-name="ae" unicode="&#xe6;" horiz-adv-x="640" d="M20 370 L20 462 Q20 520 62.5 555.5 Q105 591 188 591 Q270 591 328 553 Q381 591 445 591 Q541 591 582.5 556.5 Q624 522 624 457 L624 234 L408 234 L408 117 Q409 116 429 116 Q446 116 453 117.5 Q460 119 460 139 L460 196 L624 196 L624 123 Q624 55 569 22.5 Q514 -10 445 -10 Q378 -10 326 24 Q319 28 312 33 Q309 31 305 28 Q250 -10 156 -10 Q89 -9 52.5 18 Q16 45 16 119 L16 226 Q16 281 57 308.5 Q98 336 183 336 L244 336 L244 425 Q244 449 240 455 Q236 461 213 461 Q190 461 186.5 456 Q183 451 183 426 L183 370 L20 370 Z M408 336 L460 336 L460 429 Q460 453 457.5 457 Q455 461 435 461 Q414 461 411 457 Q408 453 408 427 L408 336 Z M244 236 L220 236 Q193 236 186.5 233 Q180 230 180 207 L180 144 Q180 122 185 117 Q190 112 207 112 Q223 112 233 113 Q237 114 244 116 L244 236 Z " />
<glyph glyph-name="aeacute" unicode="&#x1fd;" horiz-adv-x="640" d="M20 370 L20 462 Q20 520 62.5 555.5 Q105 591 188 591 Q270 591 328 553 Q381 591 445 591 Q541 591 582.5 556.5 Q624 522 624 457 L624 234 L408 234 L408 117 Q409 116 429 116 Q446 116 453 117.5 Q460 119 460 139 L460 196 L624 196 L624 123 Q624 55 569 22.5 Q514 -10 445 -10 Q378 -10 326 24 Q319 28 312 33 Q309 31 305 28 Q250 -10 156 -10 Q89 -9 52.5 18 Q16 45 16 119 L16 226 Q16 281 57 308.5 Q98 336 183 336 L244 336 L244 425 Q244 449 240 455 Q236 461 213 461 Q190 461 186.5 456 Q183 451 183 426 L183 370 L20 370 Z M408 336 L460 336 L460 429 Q460 453 457.5 457 Q455 461 435 461 Q414 461 411 457 Q408 453 408 427 L408 336 Z M244 236 L220 236 Q193 236 186.5 233 Q180 230 180 207 L180 144 Q180 122 185 117 Q190 112 207 112 Q223 112 233 113 Q237 114 244 116 L244 236 Z M444 700 L369 629 L233 629 L279 700 L444 700 Z " />
<glyph glyph-name="agrave" unicode="&#xe0;" horiz-adv-x="425" d="M248 581 L398 581 L398 0 L243 0 L239 34 Q239 34 239 34 Q188 -6 135 -6 Q81 -6 50.5 24 Q20 54 20 129 L20 459 Q20 515 50.5 551.5 Q81 588 143 588 Q203 588 242 551 L248 581 Z M233 441 Q225 452 208 452 Q191 452 188 445 Q185 438 185 413 L185 165 Q185 141 187.5 134.5 Q190 128 206 128 Q222 128 233 138 L233 441 Z M248 705 L295 634 L158 634 L83 705 L248 705 Z " />
<glyph glyph-name="amacron" unicode="&#x101;" horiz-adv-x="425" d="M248 581 L398 581 L398 0 L243 0 L239 34 Q239 34 239 34 Q188 -6 135 -6 Q81 -6 50.5 24 Q20 54 20 129 L20 459 Q20 515 50.5 551.5 Q81 588 143 588 Q203 588 242 551 L248 581 Z M233 441 Q225 452 208 452 Q191 452 188 445 Q185 438 185 413 L185 165 Q185 141 187.5 134.5 Q190 128 206 128 Q222 128 233 138 L233 441 Z M354 726 L354 651 L66 651 L66 726 L354 726 Z " />
<glyph glyph-name="ampersand" unicode="&#x26;" horiz-adv-x="483" d="M463 401 L382 164 L486 10 L486 0 L352 0 L316 51 Q313 47 309 43 Q261 -5 178 -5 Q107 -5 62 26.5 Q17 58 17 143 L17 273 Q17 339 47 366 Q57 375 72 386 Q68 392 64 397 Q20 451 20 506 L20 561 Q20 647 70.5 681.5 Q121 716 212 716 Q303 716 353 680.5 Q403 645 403 561 L403 463 L249 463 L249 558 Q249 574 241 577.5 Q233 581 213 581 Q194 581 183.5 578 Q173 575 173 558 L173 504 Q173 474 191 447 Q209 420 225 397 L292 297 L318 401 L463 401 Z M156 274 L156 155 Q156 138 165.5 134 Q175 130 198 130 Q219 130 235 136 Q243 138 249 145 L156 274 Z " />
<glyph glyph-name="aogonek" unicode="&#x105;" horiz-adv-x="425" d="M398 -135 L334 -135 Q263 -135 233 -115 Q203 -95 203 -65 Q203 -35 221 -11 Q230 0 242 9 L239 34 Q239 34 239 34 Q188 -6 135 -6 Q81 -6 50.5 24 Q20 54 20 129 L20 459 Q20 515 50.5 551.5 Q81 588 143 588 Q203 588 242 551 L248 581 L398 581 L398 0 L340 0 Q336 -2 334 -4 Q325 -9 325 -18 Q325 -25 332 -30 Q339 -35 376 -35 L398 -35 L398 -135 Z M233 441 Q225 452 208 452 Q191 452 188 445 Q185 438 185 413 L185 165 Q185 141 187.5 134.5 Q190 128 206 128 Q222 128 233 138 L233 441 Z " />
<glyph glyph-name="aring" unicode="&#xe5;" horiz-adv-x="425" d="M248 581 L398 581 L398 0 L243 0 L239 34 Q239 34 239 34 Q188 -6 135 -6 Q81 -6 50.5 24 Q20 54 20 129 L20 459 Q20 515 50.5 551.5 Q81 588 143 588 Q203 588 242 551 L248 581 Z M233 441 Q225 452 208 452 Q191 452 188 445 Q185 438 185 413 L185 165 Q185 141 187.5 134.5 Q190 128 206 128 Q222 128 233 138 L233 441 Z M191 625 Q143 625 118.5 642.5 Q94 660 94 700 Q94 742 118.5 760 Q143 778 192 778 L228 778 Q278 778 302 760 Q326 742 326 700 Q326 660 302.5 642.5 Q279 625 228 625 L191 625 Z M199 721 Q173 721 167.5 717 Q162 713 162 700 Q162 689 168.5 685.5 Q175 682 199 682 L223 682 Q247 682 252.5 685 Q258 688 258 700 Q258 713 252.5 717 Q247 721 223 721 L199 721 Z " />
<glyph glyph-name="aringacute" unicode="&#x1fb;" horiz-adv-x="372" d="M248 581 L398 581 L398 0 L243 0 L239 34 Q239 34 239 34 Q188 -6 135 -6 Q81 -6 50.5 24 Q20 54 20 129 L20 459 Q20 515 50.5 551.5 Q81 588 143 588 Q203 588 242 551 L248 581 Z M233 441 Q225 452 208 452 Q191 452 188 445 Q185 438 185 413 L185 165 Q185 141 187.5 134.5 Q190 128 206 128 Q222 128 233 138 L233 441 Z M191 625 Q143 625 118.5 642.5 Q94 660 94 700 Q94 742 118.5 760 Q143 778 192 778 L228 778 Q278 778 302 760 Q326 742 326 700 Q326 660 302.5 642.5 Q279 625 228 625 L191 625 Z M199 721 Q173 721 167.5 717 Q162 713 162 700 Q162 689 168.5 685.5 Q175 682 199 682 L223 682 Q247 682 252.5 685 Q258 688 258 700 Q258 713 252.5 717 Q247 721 223 721 L199 721 Z M331 870 L256 799 L120 799 L166 870 L331 870 Z " />
<glyph glyph-name="arrowdown" unicode="&#x2193;" horiz-adv-x="476" d="M240 -4 L34 310 L168 310 L168 710 L310 710 L310 310 L442 310 L240 -4 Z " />
<glyph glyph-name="arrowleft" unicode="&#x2190;" horiz-adv-x="657" d="M2 351 L317 558 L317 424 L627 424 L627 282 L317 282 L317 150 L2 351 Z " />
<glyph glyph-name="arrowright" unicode="&#x2192;" horiz-adv-x="657" d="M655 357 L341 151 L341 284 L30 284 L30 427 L341 427 L341 559 L655 357 Z " />
<glyph glyph-name="arrowup" unicode="&#x2191;" horiz-adv-x="476" d="M235 710 L442 396 L308 396 L308 0 L166 0 L166 396 L34 396 L235 710 Z " />
<glyph glyph-name="asciicircum" unicode="&#x5e;" horiz-adv-x="344" d="M1 457 L140 710 L205 710 L344 457 L238 457 L172 561 L107 457 L1 457 Z " />
<glyph glyph-name="asciitilde" unicode="&#x7e;" horiz-adv-x="473" d="M25 459 L145 459 Q145 437 150.5 433.5 Q156 430 176 430 Q200 430 247 446 Q294 462 345 462 Q396 462 422.5 432.5 Q449 403 449 306 L316 306 Q316 320 313.5 325.5 Q311 331 291 331 Q271 331 229 316.5 Q187 302 137 302 Q78 302 51.5 337.5 Q25 373 25 459 Z " />
<glyph glyph-name="asterisk" unicode="&#x2a;" horiz-adv-x="256" d="M189 588 L231 543 L170 502 L127 547 L88 502 L25 540 L64 586 L0 602 L22 665 L91 649 L91 707 L165 707 L165 651 L229 667 L256 604 L189 588 Z " />
<glyph glyph-name="at" unicode="&#x40;" horiz-adv-x="624" d="M310 640 Q450 640 524 606 Q598 572 598 434 L598 151 Q598 69 570 52.5 Q542 36 488 36 Q423 36 400 54 Q388 63 375 85 Q361 75 345 65 Q305 40 265 40 Q221 40 193 65.5 Q165 91 165 150 L165 412 Q165 456 187.5 481.5 Q210 507 259 507 Q307 507 339 484 Q353 474 366 461 L380 501 L463 501 L463 135 Q463 102 469 98.5 Q475 95 498 95 Q518 96 527 104 Q536 112 536 140 L536 434 Q536 538 478.5 558 Q421 578 310 578 Q206 575 148.5 553.5 Q91 532 91 434 L91 108 Q91 14 152.5 -4 Q214 -22 313 -22 Q414 -22 470.5 -19 Q527 -16 563 -11 L563 -77 Q538 -79 478.5 -84.5 Q419 -90 313 -90 Q174 -90 102 -57 Q30 -24 30 108 L30 434 Q30 573 105 605.5 Q180 638 310 640 Z M345 384 Q338 392 332 396 Q324 400 309 400 Q296 400 290 397 Q284 394 284 380 L284 166 Q284 151 289.5 149 Q295 147 308 147 Q324 147 335 151 Q340 153 345 156 L345 384 Z " />
<glyph glyph-name="atilde" unicode="&#xe3;" horiz-adv-x="425" d="M248 581 L398 581 L398 0 L243 0 L239 34 Q239 34 239 34 Q188 -6 135 -6 Q81 -6 50.5 24 Q20 54 20 129 L20 459 Q20 515 50.5 551.5 Q81 588 143 588 Q203 588 242 551 L248 581 Z M233 441 Q225 452 208 452 Q191 452 188 445 Q185 438 185 413 L185 165 Q185 141 187.5 134.5 Q190 128 206 128 Q222 128 233 138 L233 441 Z M267 742 Q303 742 326.5 721 Q350 700 351 638 L276 638 Q275 651 271.5 656.5 Q268 662 258 662 Q242 662 212.5 647.5 Q183 633 149 633 Q111 633 87.5 655 Q64 677 64 735 L136 735 Q136 721 141.5 715.5 Q147 710 158 710 Q179 710 208 726 Q237 742 267 742 Z " />
<glyph glyph-name="b" unicode="b" horiz-adv-x="430" d="M193 559 Q233 589 281 589 Q344 589 376 557 Q408 525 408 470 L408 118 Q408 43 376 17.5 Q344 -8 289 -8 Q235 -8 182 33 Q181 34 180 35 L175 0 L28 0 L28 720 L193 720 L193 559 Z M193 138 Q206 128 224 128 Q235 128 239.5 133 Q244 138 244 161 L244 417 Q244 441 239 447.5 Q234 454 222 454 Q204 454 194 446 Q193 445 193 445 L193 138 Z " />
<glyph glyph-name="backslash" unicode="&#x5c;" horiz-adv-x="256" d="M243 0 L132 0 L13 710 L119 710 L243 0 Z " />
<glyph glyph-name="bar" unicode="&#x7c;" horiz-adv-x="218" d="M45 737 L172 737 L172 -48 L45 -48 L45 737 Z " />
<glyph glyph-name="braceleft" unicode="&#x7b;" horiz-adv-x="287" d="M71 613 Q71 694 116 718 Q161 742 220 742 L269 742 L269 618 L256 618 Q220 618 209 611 Q198 604 198 570 L198 432 Q198 409 188 389.5 Q178 370 146 356 Q178 342 188 323.5 Q198 305 198 275 L198 162 Q198 120 211 110 Q224 100 252 100 L269 100 L269 -24 L220 -24 Q164 -24 117.5 -0.5 Q71 23 71 105 L71 243 Q71 268 59.5 281 Q48 294 20 294 L13 294 L13 418 L20 418 Q48 418 59.5 430.5 Q71 443 71 466 L71 613 Z " />
<glyph glyph-name="braceright" unicode="&#x7d;" horiz-adv-x="287" d="M216 105 Q216 25 171 1 Q126 -23 68 -23 L19 -23 L19 100 L32 100 Q68 100 78.5 107.5 Q89 115 89 149 L89 286 Q89 309 99.5 329 Q110 349 141 363 Q110 377 99.5 395 Q89 413 89 443 L89 557 Q89 599 76 609 Q63 619 36 619 L19 619 L19 742 L68 742 Q123 742 169.5 719 Q216 696 216 614 L216 476 Q216 451 227.5 438 Q239 425 267 425 L274 425 L274 301 L267 301 Q239 301 227.5 288.5 Q216 276 216 253 L216 105 Z " />
<glyph glyph-name="bracketleft" unicode="&#x5b;" horiz-adv-x="250" d="M231 625 L155 625 L155 85 L231 85 L231 -29 L28 -29 L28 738 L231 738 L231 625 Z " />
<glyph glyph-name="bracketright" unicode="&#x5d;" horiz-adv-x="250" d="M20 85 L96 85 L96 624 L20 624 L20 738 L223 738 L223 -29 L20 -29 L20 85 Z " />
<glyph glyph-name="uni0306" unicode="&#x306;" horiz-adv-x="315" d="M295 675 Q295 615 271 594 Q247 573 191 573 L132 573 Q79 573 51 594.5 Q23 616 23 675 L109 675 Q110 657 117 650 Q124 643 155 643 L166 643 Q197 643 203 651 Q209 659 210 675 L295 675 Z " />
<glyph glyph-name="brokenbar" unicode="&#xa6;" horiz-adv-x="218" d="M45 737 L172 737 L172 383 L45 383 L45 737 Z M172 317 L172 -37 L45 -37 L45 317 L172 317 Z " />
<glyph glyph-name="bullet" unicode="&#x2022;" horiz-adv-x="300" d="M150 392 Q194 392 230 361 Q266 330 266 289 Q266 245 229 215 Q192 185 150 185 Q108 185 71 215.5 Q34 246 34 289 Q34 329 70.5 360.5 Q107 392 150 392 Z " />
<glyph glyph-name="c" unicode="c" horiz-adv-x="418" d="M211 591 Q308 591 352.5 556.5 Q397 522 397 450 L397 327 L233 327 L233 420 Q233 438 228.5 442.5 Q224 447 210 447 Q196 447 190.5 443.5 Q185 440 185 421 L185 154 Q185 135 189.5 131.5 Q194 128 209 128 Q223 128 228 131.5 Q233 135 233 154 L233 259 L396 259 L396 123 Q396 53 352 21.5 Q308 -10 211 -10 Q115 -10 67.5 21.5 Q20 53 20 127 L20 449 Q20 519 67.5 555 Q115 591 211 591 Z " />
<glyph glyph-name="cacute" unicode="&#x107;" horiz-adv-x="418" d="M211 591 Q308 591 352.5 556.5 Q397 522 397 450 L397 327 L233 327 L233 420 Q233 438 228.5 442.5 Q224 447 210 447 Q196 447 190.5 443.5 Q185 440 185 421 L185 154 Q185 135 189.5 131.5 Q194 128 209 128 Q223 128 228 131.5 Q233 135 233 154 L233 259 L396 259 L396 123 Q396 53 352 21.5 Q308 -10 211 -10 Q115 -10 67.5 21.5 Q20 53 20 127 L20 449 Q20 519 67.5 555 Q115 591 211 591 Z M336 701 L261 630 L125 630 L171 701 L336 701 Z " />
<glyph glyph-name="uni030C" unicode="&#x30c;" horiz-adv-x="310" d="M287 813 L204 734 L98 734 L18 814 L121 814 L152 784 L183 813 L287 813 Z " />
<glyph glyph-name="ccaron" unicode="&#x10d;" horiz-adv-x="418" d="M211 591 Q308 591 352.5 556.5 Q397 522 397 450 L397 327 L233 327 L233 420 Q233 438 228.5 442.5 Q224 447 210 447 Q196 447 190.5 443.5 Q185 440 185 421 L185 154 Q185 135 189.5 131.5 Q194 128 209 128 Q223 128 228 131.5 Q233 135 233 154 L233 259 L396 259 L396 123 Q396 53 352 21.5 Q308 -10 211 -10 Q115 -10 67.5 21.5 Q20 53 20 127 L20 449 Q20 519 67.5 555 Q115 591 211 591 Z M345 700 L262 621 L156 621 L76 701 L179 701 L210 671 L241 700 L345 700 Z " />
<glyph glyph-name="ccedilla" unicode="&#xe7;" horiz-adv-x="364" d="M211 591 Q308 591 352.5 556.5 Q397 522 397 450 L397 327 L233 327 L233 420 Q233 438 228.5 442.5 Q224 447 210 447 Q196 447 190.5 443.5 Q185 440 185 421 L185 154 Q185 135 189.5 131.5 Q194 128 209 128 Q223 128 228 131.5 Q233 135 233 154 L233 259 L396 259 L396 123 Q396 53 352 21.5 Q308 -10 211 -10 Q115 -10 67.5 21.5 Q20 53 20 127 L20 449 Q20 519 67.5 555 Q115 591 211 591 Z M215 -97 L124 -97 L170 -8 L232 -8 L215 -97 Z " />
<glyph glyph-name="cdotaccent" unicode="&#x10b;" horiz-adv-x="418" d="M211 591 Q308 591 352.5 556.5 Q397 522 397 450 L397 327 L233 327 L233 420 Q233 438 228.5 442.5 Q224 447 210 447 Q196 447 190.5 443.5 Q185 440 185 421 L185 154 Q185 135 189.5 131.5 Q194 128 209 128 Q223 128 228 131.5 Q233 135 233 154 L233 259 L396 259 L396 123 Q396 53 352 21.5 Q308 -10 211 -10 Q115 -10 67.5 21.5 Q20 53 20 127 L20 449 Q20 519 67.5 555 Q115 591 211 591 Z M159 726 L256 726 L256 636 L159 636 L159 726 Z " />
<glyph glyph-name="uni0327" unicode="&#x327;" horiz-adv-x="240" d="M143 -62 L52 -62 L98 27 L160 27 L143 -62 Z " />
<glyph glyph-name="cent" unicode="&#xa2;" horiz-adv-x="364" d="M147 717 L215 717 L215 655 Q276 649 308 622 Q347 587 347 522 L347 395 L201 395 L201 498 Q201 511 197.5 515 Q194 519 183 519 Q172 519 167.5 515.5 Q163 512 163 499 L163 208 Q163 195 166.5 191 Q170 187 182 187 Q193 187 197 191 Q201 195 201 208 L201 322 L346 322 L346 183 Q346 120 308 88 Q277 62 216 57 L216 0 L148 0 L148 58 Q91 63 59 88 Q17 119 17 187 L17 521 Q17 584 59 620 Q90 648 147 654 L147 717 Z " />
<glyph glyph-name="uni0302" unicode="&#x302;" horiz-adv-x="256" d="M-6 732 L78 811 L183 811 L263 731 L161 731 L129 762 L98 732 L-6 732 Z " />
<glyph glyph-name="colon" unicode="&#x3a;" horiz-adv-x="181" d="M159 535 L159 390 L26 390 L26 535 L159 535 Z M159 202 L159 57 L26 57 L26 202 L159 202 Z " />
<glyph glyph-name="comma" unicode="&#x2c;" horiz-adv-x="151" d="M133 148 L105 -56 L18 -56 L18 148 L133 148 Z " />
<glyph glyph-name="uniF6C3" unicode="&#xf6c3;" horiz-adv-x="120" d="M92 -110 L-13 -110 L14 -9 L120 -9 L92 -110 Z " />
<glyph glyph-name="currency" unicode="&#xa4;" horiz-adv-x="484" d="M1 81 L59 132 Q48 159 48 197 L48 497 Q48 535 59 562 L-2 614 L93 700 L162 640 Q195 648 237 648 Q281 648 316 639 L387 700 L482 613 L419 558 Q429 532 429 497 L429 197 Q429 160 418 133 L478 81 L384 -3 L315 56 Q281 47 237 47 Q197 47 164 55 L96 -4 L1 81 Z M212 220 Q212 197 216.5 191.5 Q221 186 238 186 Q257 186 261 191.5 Q265 197 265 220 L265 474 Q265 497 260 503.5 Q255 510 238 510 Q222 510 217 503.5 Q212 497 212 474 L212 220 Z " />
<glyph glyph-name="d" unicode="d" horiz-adv-x="427" d="M233 720 L398 720 L398 0 L255 0 L245 39 Q242 37 239 34 Q188 -6 135 -6 Q81 -6 50.5 24 Q20 54 20 129 L20 459 Q20 515 50.5 551.5 Q81 588 143 588 Q197 588 233 558 L233 720 Z M233 443 Q225 452 208 452 Q191 452 188 445 Q185 438 185 413 L185 165 Q185 141 187.5 134.5 Q190 128 206 128 Q222 128 233 136 L233 443 Z " />
<glyph glyph-name="dagger" unicode="&#x2020;" horiz-adv-x="408" d="M24 601 L144 601 L144 710 L263 710 L263 601 L384 601 L384 495 L263 495 L263 198 L144 198 L144 495 L24 495 L24 601 Z " />
<glyph glyph-name="dcaron" unicode="&#x10f;" horiz-adv-x="558" d="M233 720 L398 720 L398 0 L255 0 L245 39 Q242 37 239 34 Q188 -6 135 -6 Q81 -6 50.5 24 Q20 54 20 129 L20 459 Q20 515 50.5 551.5 Q81 588 143 588 Q197 588 233 558 L233 720 Z M233 443 Q225 452 208 452 Q191 452 188 445 Q185 438 185 413 L185 165 Q185 141 187.5 134.5 Q190 128 206 128 Q222 128 233 136 L233 443 Z M548 720 L508 519 L430 519 L433 720 L548 720 Z " />
<glyph glyph-name="dslash" unicode="&#x111;" horiz-adv-x="436" d="M142 666 L233 666 L233 720 L398 720 L398 666 L440 666 L440 620 L398 620 L398 0 L255 0 L245 39 Q242 37 239 34 Q188 -6 135 -6 Q81 -6 50.5 24 Q20 54 20 129 L20 459 Q20 515 50.5 551.5 Q81 588 143 588 Q197 588 233 558 L233 620 L142 620 L142 666 Z M233 443 Q225 452 208 452 Q191 452 188 445 Q185 438 185 413 L185 165 Q185 141 187.5 134.5 Q190 128 206 128 Q222 128 233 136 L233 443 Z " />
<glyph glyph-name="degree" unicode="&#xb0;" horiz-adv-x="299" d="M149 720 Q216 720 249.5 695.5 Q283 671 283 612 L283 564 Q283 503 249.5 480 Q216 457 149 457 Q85 457 50 480 Q15 503 15 564 L15 612 Q15 672 50 696 Q85 720 149 720 Z M121 566 Q121 554 125.5 551 Q130 548 150 548 Q169 548 174 551 Q179 554 179 566 L179 610 Q179 621 173.5 625 Q168 629 150 629 Q131 629 126 625.5 Q121 622 121 610 L121 566 Z " />
<glyph glyph-name="uni0308" unicode="&#x308;" horiz-adv-x="356" d="M144 649 L144 578 L21 578 L21 649 L144 649 Z M303 649 L303 578 L182 578 L182 649 L303 649 Z " />
<glyph glyph-name="divide" unicode="&#xf7;" horiz-adv-x="469" d="M233 540 Q256 540 276 526.5 Q296 513 296 488 Q296 462 276 448 Q256 434 233 434 Q210 434 189.5 448.5 Q169 463 169 488 Q169 513 189 526.5 Q209 540 233 540 Z M435 416 L435 304 L35 304 L35 416 L435 416 Z M233 281 Q256 281 276 267.5 Q296 254 296 229 Q296 202 276 188.5 Q256 175 233 175 Q210 175 189.5 189 Q169 203 169 229 Q169 254 189 267.5 Q209 281 233 281 Z " />
<glyph glyph-name="dollar" unicode="&#x24;" horiz-adv-x="435" d="M216 720 Q325 720 367 679.5 Q409 639 409 575 L409 473 L244 473 L244 547 Q244 562 240.5 566.5 Q237 571 218 571 Q199 571 194.5 566.5 Q190 562 190 547 L190 504 Q190 488 195.5 478.5 Q201 469 218 460 L340 385 Q377 363 393 323.5 Q409 284 409 238 L409 135 Q409 59 360.5 25.5 Q312 -8 217 -8 Q124 -8 75 24 Q26 56 26 135 L26 252 L190 252 L190 167 Q190 150 194.5 145.5 Q199 141 218 141 Q237 141 240.5 145.5 Q244 150 244 167 L244 213 Q244 243 235 254 Q226 265 199 279 L109 335 Q71 357 48.5 394.5 Q26 432 26 484 L26 567 Q26 638 66.5 679 Q107 720 216 720 Z M173 779 L270 779 L270 689 L173 689 L173 779 Z M170 30 L267 30 L267 -60 L170 -60 L170 30 Z " />
<glyph glyph-name="uni0307" unicode="&#x307;" horiz-adv-x="118" d="M13 662 L110 662 L110 572 L13 572 L13 662 Z " />
<glyph glyph-name="dotlessi" unicode="&#x131;" horiz-adv-x="217" d="M191 581 L191 0 L26 0 L26 581 L191 581 Z " />
<glyph glyph-name="e" unicode="e" horiz-adv-x="421" d="M402 207 L402 139 Q402 55 350 22.5 Q298 -10 210 -10 Q121 -10 70.5 22.5 Q20 55 20 139 L20 441 Q20 523 70.5 557 Q121 591 210 591 Q298 591 350 556.5 Q402 522 402 441 L402 239 L185 239 L185 162 Q185 142 190 137.5 Q195 133 211 133 Q228 133 233 137.5 Q238 142 238 162 L238 207 L402 207 Z M185 339 L238 339 L238 418 Q238 438 232 442.5 Q226 447 211 447 Q196 447 190.5 443 Q185 439 185 418 L185 339 Z " />
<glyph glyph-name="eacute" unicode="&#xe9;" horiz-adv-x="367" d="M402 207 L402 139 Q402 55 350 22.5 Q298 -10 210 -10 Q121 -10 70.5 22.5 Q20 55 20 139 L20 441 Q20 523 70.5 557 Q121 591 210 591 Q298 591 350 556.5 Q402 522 402 441 L402 239 L185 239 L185 162 Q185 142 190 137.5 Q195 133 211 133 Q228 133 233 137.5 Q238 142 238 162 L238 207 L402 207 Z M185 339 L238 339 L238 418 Q238 438 232 442.5 Q226 447 211 447 Q196 447 190.5 443 Q185 439 185 418 L185 339 Z M325 697 L250 626 L114 626 L160 697 L325 697 Z " />
<glyph glyph-name="ebreve" unicode="&#x115;" horiz-adv-x="367" d="M402 207 L402 139 Q402 55 350 22.5 Q298 -10 210 -10 Q121 -10 70.5 22.5 Q20 55 20 139 L20 441 Q20 523 70.5 557 Q121 591 210 591 Q298 591 350 556.5 Q402 522 402 441 L402 239 L185 239 L185 162 Q185 142 190 137.5 Q195 133 211 133 Q228 133 233 137.5 Q238 142 238 162 L238 207 L402 207 Z M185 339 L238 339 L238 418 Q238 438 232 442.5 Q226 447 211 447 Q196 447 190.5 443 Q185 439 185 418 L185 339 Z M341 731 Q341 671 317 650 Q293 629 237 629 L178 629 Q125 629 97 650.5 Q69 672 69 731 L155 731 Q156 713 163 706 Q170 699 201 699 L212 699 Q243 699 249 707 Q255 715 256 731 L341 731 Z " />
<glyph glyph-name="ecaron" unicode="&#x11b;" horiz-adv-x="367" d="M402 207 L402 139 Q402 55 350 22.5 Q298 -10 210 -10 Q121 -10 70.5 22.5 Q20 55 20 139 L20 441 Q20 523 70.5 557 Q121 591 210 591 Q298 591 350 556.5 Q402 522 402 441 L402 239 L185 239 L185 162 Q185 142 190 137.5 Q195 133 211 133 Q228 133 233 137.5 Q238 142 238 162 L238 207 L402 207 Z M185 339 L238 339 L238 418 Q238 438 232 442.5 Q226 447 211 447 Q196 447 190.5 443 Q185 439 185 418 L185 339 Z M339 723 L256 644 L150 644 L70 724 L173 724 L204 694 L235 723 L339 723 Z " />
<glyph glyph-name="ecircumflex" unicode="&#xea;" horiz-adv-x="367" d="M402 207 L402 139 Q402 55 350 22.5 Q298 -10 210 -10 Q121 -10 70.5 22.5 Q20 55 20 139 L20 441 Q20 523 70.5 557 Q121 591 210 591 Q298 591 350 556.5 Q402 522 402 441 L402 239 L185 239 L185 162 Q185 142 190 137.5 Q195 133 211 133 Q228 133 233 137.5 Q238 142 238 162 L238 207 L402 207 Z M185 339 L238 339 L238 418 Q238 438 232 442.5 Q226 447 211 447 Q196 447 190.5 443 Q185 439 185 418 L185 339 Z M70 639 L154 718 L259 718 L339 638 L237 638 L205 669 L174 639 L70 639 Z " />
<glyph glyph-name="edieresis" unicode="&#xeb;" horiz-adv-x="367" d="M402 207 L402 139 Q402 55 350 22.5 Q298 -10 210 -10 Q121 -10 70.5 22.5 Q20 55 20 139 L20 441 Q20 523 70.5 557 Q121 591 210 591 Q298 591 350 556.5 Q402 522 402 441 L402 239 L185 239 L185 162 Q185 142 190 137.5 Q195 133 211 133 Q228 133 233 137.5 Q238 142 238 162 L238 207 L402 207 Z M185 339 L238 339 L238 418 Q238 438 232 442.5 Q226 447 211 447 Q196 447 190.5 443 Q185 439 185 418 L185 339 Z M187 732 L187 661 L64 661 L64 732 L187 732 Z M346 732 L346 661 L225 661 L225 732 L346 732 Z " />
<glyph glyph-name="edotaccent" unicode="&#x117;" horiz-adv-x="421" d="M402 207 L402 139 Q402 55 350 22.5 Q298 -10 210 -10 Q121 -10 70.5 22.5 Q20 55 20 139 L20 441 Q20 523 70.5 557 Q121 591 210 591 Q298 591 350 556.5 Q402 522 402 441 L402 239 L185 239 L185 162 Q185 142 190 137.5 Q195 133 211 133 Q228 133 233 137.5 Q238 142 238 162 L238 207 L402 207 Z M185 339 L238 339 L238 418 Q238 438 232 442.5 Q226 447 211 447 Q196 447 190.5 443 Q185 439 185 418 L185 339 Z M163 737 L260 737 L260 647 L163 647 L163 737 Z " />
<glyph glyph-name="egrave" unicode="&#xe8;" horiz-adv-x="367" d="M402 207 L402 139 Q402 55 350 22.5 Q298 -10 210 -10 Q121 -10 70.5 22.5 Q20 55 20 139 L20 441 Q20 523 70.5 557 Q121 591 210 591 Q298 591 350 556.5 Q402 522 402 441 L402 239 L185 239 L185 162 Q185 142 190 137.5 Q195 133 211 133 Q228 133 233 137.5 Q238 142 238 162 L238 207 L402 207 Z M185 339 L238 339 L238 418 Q238 438 232 442.5 Q226 447 211 447 Q196 447 190.5 443 Q185 439 185 418 L185 339 Z M251 715 L298 644 L161 644 L86 715 L251 715 Z " />
<glyph glyph-name="eight" unicode="8" horiz-adv-x="444" d="M222 716 Q312 716 365 681 Q418 646 418 561 L418 444 Q418 391 372 357 Q418 322 418 270 L418 143 Q418 58 365 26.5 Q312 -5 222 -5 Q131 -5 79 26.5 Q27 58 27 143 L27 270 Q27 322 72 357 Q27 392 27 444 L27 561 Q27 647 79 681.5 Q131 716 222 716 Z M192 446 Q192 423 196 418.5 Q200 414 223 414 Q246 414 249.5 418.5 Q253 423 253 446 L253 545 Q253 572 248 576.5 Q243 581 223 581 Q203 581 197.5 577 Q192 573 192 545 L192 446 Z M192 162 Q192 139 197 134.5 Q202 130 223 130 Q244 130 248.5 134.5 Q253 139 253 162 L253 268 Q253 290 247 295.5 Q241 301 223 301 Q203 301 197.5 296 Q192 291 192 268 L192 162 Z " />
<glyph glyph-name="ellipsis" unicode="&#x2026;" horiz-adv-x="544" d="M339 145 L339 0 L206 0 L206 145 L339 145 Z M146 145 L146 0 L13 0 L13 145 L146 145 Z M532 145 L532 0 L399 0 L399 145 L532 145 Z " />
<glyph glyph-name="emacron" unicode="&#x113;" horiz-adv-x="367" d="M402 207 L402 139 Q402 55 350 22.5 Q298 -10 210 -10 Q121 -10 70.5 22.5 Q20 55 20 139 L20 441 Q20 523 70.5 557 Q121 591 210 591 Q298 591 350 556.5 Q402 522 402 441 L402 239 L185 239 L185 162 Q185 142 190 137.5 Q195 133 211 133 Q228 133 233 137.5 Q238 142 238 162 L238 207 L402 207 Z M185 339 L238 339 L238 418 Q238 438 232 442.5 Q226 447 211 447 Q196 447 190.5 443 Q185 439 185 418 L185 339 Z M359 733 L359 658 L71 658 L71 733 L359 733 Z " />
<glyph glyph-name="emdash" unicode="&#x2014;" horiz-adv-x="550" d="M38 402 L512 402 L512 288 L38 288 L38 402 Z " />
<glyph glyph-name="endash" unicode="&#x2013;" horiz-adv-x="353" d="M25 402 L328 402 L328 288 L25 288 L25 402 Z " />
<glyph glyph-name="eogonek" unicode="&#x119;" horiz-adv-x="421" d="M400 -117 Q387 -125 361 -130.5 Q335 -136 305 -136 Q269 -136 243 -115 Q217 -94 217 -60 Q217 -34 229 -10 Q220 -10 210 -10 Q121 -10 70.5 22.5 Q20 55 20 139 L20 441 Q20 523 70.5 557 Q121 591 210 591 Q298 591 350 556.5 Q402 522 402 441 L402 239 L185 239 L185 162 Q185 142 190 137.5 Q195 133 211 133 Q228 133 233 137.5 Q238 142 238 162 L238 207 L402 207 L402 139 Q402 55 350 23 Q345 17 341 13 Q328 2 328 -8 Q328 -15 332 -18 Q336 -21 345 -21 Q358 -21 371 -16 Q384 -11 400 -2 L400 -117 Z M185 339 L238 339 L238 418 Q238 438 232 442.5 Q226 447 211 447 Q196 447 190.5 443 Q185 439 185 418 L185 339 Z " />
<glyph glyph-name="equal" unicode="&#x3d;" horiz-adv-x="463" d="M420 514 L420 391 L43 391 L43 514 L420 514 Z M420 336 L420 213 L43 213 L43 336 L420 336 Z " />
<glyph glyph-name="eth" unicode="&#xf0;" horiz-adv-x="422" d="M118 717 L279 717 Q302 693 321 669 L392 669 L392 620 L354 620 Q367 596 376 572 Q390 533 397 485 Q402 465 402 440 L402 423 Q402 410 402 396 L402 140 Q402 59 350 24.5 Q298 -10 210 -10 Q122 -10 71 24.5 Q20 59 20 140 L20 440 Q20 518 71 554.5 Q122 591 210 591 Q217 591 223 591 Q215 603 203 620 L65 620 L65 669 L162 669 Q143 691 118 717 Z M185 162 Q185 139 189.5 134 Q194 129 211 129 Q230 129 234 134 Q238 139 238 162 L238 417 Q238 440 233 446.5 Q228 453 211 453 Q195 453 190 446.5 Q185 440 185 417 L185 162 Z " />
<glyph glyph-name="exclam" unicode="&#x21;" horiz-adv-x="239" d="M69 148 L24 698 L24 710 L215 710 L215 698 L170 148 L69 148 Z M51 121 L188 121 L188 0 L51 0 L51 121 Z " />
<glyph glyph-name="exclamdown" unicode="&#xa1;" horiz-adv-x="239" d="M188 589 L51 589 L51 710 L188 710 L188 589 Z M170 562 L215 12 L215 0 L24 0 L24 12 L69 562 L170 562 Z " />
<glyph glyph-name="f" unicode="f" horiz-adv-x="290" d="M8 581 L49 581 L49 599 Q49 678 96.5 703.5 Q144 729 221 729 Q241 729 258.5 728.5 Q276 728 282 727 L282 616 L245 616 Q221 616 217 606.5 Q213 597 213 588 L213 581 L282 581 L282 451 L213 451 L213 0 L49 0 L49 451 L8 451 L8 581 Z " />
<glyph glyph-name="five" unicode="5" horiz-adv-x="444" d="M289 508 Q351 508 384.5 469.5 Q418 431 418 316 L418 153 Q418 59 368.5 25.5 Q319 -8 224 -8 Q123 -8 76.5 25.5 Q30 59 30 153 L30 271 L195 271 L195 184 Q195 155 200.5 149 Q206 143 224 143 Q246 143 250 149.5 Q254 156 254 184 L254 313 Q254 335 250 346.5 Q246 358 226 358 Q207 358 192 347 Q177 336 167 326 L30 326 L30 710 L418 710 L418 562 L189 562 L189 472 Q208 489 233 498.5 Q258 508 289 508 Z " />
<glyph glyph-name="four" unicode="4" horiz-adv-x="421" d="M365 710 L365 257 L413 257 L413 113 L365 113 L365 0 L201 0 L201 113 L8 113 L8 244 L158 710 L365 710 Z M131 257 L201 257 L201 484 L131 257 Z " />
<glyph glyph-name="g" unicode="g" horiz-adv-x="425" d="M26 1 L174 1 L174 -6 Q174 -17 180.5 -20.5 Q187 -24 209 -24 Q231 -24 233 -20.5 Q235 -17 235 -1 L235 62 Q186 25 135 25 Q81 25 50.5 54.5 Q20 84 20 159 L20 459 Q20 515 50.5 551.5 Q81 588 143 588 Q203 588 242 551 Q243 549 245 547 L256 581 L400 581 L400 -10 Q400 -88 349.5 -115 Q299 -142 210 -142 Q122 -142 74 -115 Q26 -88 26 -9 L26 1 Z M235 441 Q227 452 208 452 Q191 452 188 445 Q185 438 185 413 L185 196 Q185 172 187.5 165 Q190 158 206 158 Q222 158 235 168 Q235 168 235 168 L235 441 Z " />
<glyph glyph-name="gbreve" unicode="&#x11f;" horiz-adv-x="425" d="M26 1 L174 1 L174 -6 Q174 -17 180.5 -20.5 Q187 -24 209 -24 Q231 -24 233 -20.5 Q235 -17 235 -1 L235 62 Q186 25 135 25 Q81 25 50.5 54.5 Q20 84 20 159 L20 459 Q20 515 50.5 551.5 Q81 588 143 588 Q203 588 242 551 Q243 549 245 547 L256 581 L400 581 L400 -10 Q400 -88 349.5 -115 Q299 -142 210 -142 Q122 -142 74 -115 Q26 -88 26 -9 L26 1 Z M235 441 Q227 452 208 452 Q191 452 188 445 Q185 438 185 413 L185 196 Q185 172 187.5 165 Q190 158 206 158 Q222 158 235 168 Q235 168 235 168 L235 441 Z M350 714 Q350 654 326 633 Q302 612 246 612 L187 612 Q134 612 106 633.5 Q78 655 78 714 L164 714 Q165 696 172 689 Q179 682 210 682 L221 682 Q252 682 258 690 Q264 698 265 714 L350 714 Z " />
<glyph glyph-name="gdotaccent" unicode="&#x121;" horiz-adv-x="425" d="M26 1 L174 1 L174 -6 Q174 -17 180.5 -20.5 Q187 -24 209 -24 Q231 -24 233 -20.5 Q235 -17 235 -1 L235 62 Q186 25 135 25 Q81 25 50.5 54.5 Q20 84 20 159 L20 459 Q20 515 50.5 551.5 Q81 588 143 588 Q203 588 242 551 Q243 549 245 547 L256 581 L400 581 L400 -10 Q400 -88 349.5 -115 Q299 -142 210 -142 Q122 -142 74 -115 Q26 -88 26 -9 L26 1 Z M235 441 Q227 452 208 452 Q191 452 188 445 Q185 438 185 413 L185 196 Q185 172 187.5 165 Q190 158 206 158 Q222 158 235 168 Q235 168 235 168 L235 441 Z M167 734 L264 734 L264 644 L167 644 L167 734 Z " />
<glyph glyph-name="germandbls" unicode="&#xdf;" horiz-adv-x="461" d="M387 389 Q420 369 433.5 350.5 Q447 332 447 283 L447 150 Q447 56 403 27.5 Q359 -1 258 -1 Q241 -1 223 0 L223 141 Q266 141 274.5 148.5 Q283 156 283 188 L283 229 Q283 268 273 278.5 Q263 289 222 307 L266 534 L243 534 Q208 534 201.5 527.5 Q195 521 195 486 L195 0 L31 0 L31 486 Q31 593 74.5 637 Q118 681 236 681 L427 681 L427 554 L387 389 Z " />
<glyph glyph-name="grave" unicode="&#x60;" horiz-adv-x="431" d="M262 801 L309 730 L172 730 L97 801 L262 801 Z " />
<glyph glyph-name="greater" unicode="&#x3e;" horiz-adv-x="330" d="M26 3 L26 203 L194 367 L26 524 L26 714 L297 420 L297 311 L26 3 Z " />
<glyph glyph-name="guillemotleft" unicode="&#xab;" horiz-adv-x="421" d="M397 499 L313 334 L397 169 L276 169 L193 334 L277 499 L397 499 Z M218 499 L134 334 L218 169 L97 169 L14 334 L98 499 L218 499 Z " />
<glyph glyph-name="guillemotright" unicode="&#xbb;" horiz-adv-x="421" d="M25 169 L109 334 L25 499 L145 499 L228 334 L144 169 L25 169 Z M204 169 L288 334 L204 499 L324 499 L407 334 L323 169 L204 169 Z " />
<glyph glyph-name="guilsinglleft" unicode="&#x2039;" horiz-adv-x="242" d="M217 499 L133 334 L217 169 L97 169 L13 334 L98 499 L217 499 Z " />
<glyph glyph-name="guilsinglright" unicode="&#x203a;" horiz-adv-x="242" d="M25 169 L109 335 L25 500 L145 500 L228 335 L144 169 L25 169 Z " />
<glyph glyph-name="h" unicode="h" horiz-adv-x="428" d="M193 551 Q241 587 293 587 Q353 587 380 552 Q407 517 407 441 L407 0 L242 0 L242 405 Q242 435 238.5 440.5 Q235 446 220 446 Q205 446 193 441 L193 0 L28 0 L28 720 L193 720 L193 551 Z " />
<glyph glyph-name="hbar" unicode="&#x127;" horiz-adv-x="433" d="M28 666 L28 720 L193 720 L193 666 L287 666 L287 620 L193 620 L193 551 Q241 587 293 587 Q353 587 380 552 Q407 517 407 441 L407 0 L242 0 L242 405 Q242 435 238.5 440.5 Q235 446 220 446 Q205 446 193 441 L193 0 L28 0 L28 620 L-10 620 L-10 666 L28 666 Z " />
<glyph glyph-name="uni030B" unicode="&#x30b;" horiz-adv-x="273" d="M146 807 L86 730 L-11 730 L46 807 L146 807 Z M281 807 L220 730 L123 730 L183 807 L281 807 Z " />
<glyph glyph-name="hyphen" unicode="&#x2d;" horiz-adv-x="244" d="M219 402 L219 288 L25 288 L25 402 L219 402 Z " />
<glyph glyph-name="i" unicode="i" horiz-adv-x="217" d="M26 720 L191 720 L191 610 L26 610 L26 720 Z M191 581 L191 0 L26 0 L26 581 L191 581 Z " />
<glyph glyph-name="iacute" unicode="&#xed;" horiz-adv-x="217" d="M228 711 L178 625 L34 625 L78 711 L228 711 Z M191 581 L191 0 L26 0 L26 581 L191 581 Z " />
<glyph glyph-name="ibreve" unicode="&#x12d;" horiz-adv-x="217" d="M141 710 L214 710 Q214 659 195.5 639 Q177 619 121 619 L101 619 Q48 619 26.5 639.5 Q5 660 5 710 L78 710 Q78 685 86.5 681 Q95 677 107 677 L112 677 Q124 677 132.5 681 Q141 685 141 710 Z M191 581 L191 0 L26 0 L26 581 L191 581 Z " />
<glyph glyph-name="icircumflex" unicode="&#xee;" horiz-adv-x="217" d="M-3 626 L66 715 L154 715 L221 625 L133 625 L108 654 L84 626 L-3 626 Z M191 581 L191 0 L26 0 L26 581 L191 581 Z " />
<glyph glyph-name="idieresis" unicode="&#xef;" horiz-adv-x="217" d="M94 710 L94 618 L-5 618 L-5 710 L94 710 Z M221 710 L221 618 L124 618 L124 710 L221 710 Z M191 581 L191 0 L26 0 L26 581 L191 581 Z " />
<glyph glyph-name="igrave" unicode="&#xec;" horiz-adv-x="217" d="M-11 698 L150 698 L191 622 L36 622 L-11 698 Z M191 581 L191 0 L26 0 L26 581 L191 581 Z " />
<glyph glyph-name="imacron" unicode="&#x12b;" horiz-adv-x="217" d="M1 705 L216 705 L216 646 L1 646 L1 705 Z M191 581 L191 0 L26 0 L26 581 L191 581 Z " />
<glyph glyph-name="iogonek" unicode="&#x12f;" horiz-adv-x="191" d="M26 720 L191 720 L191 610 L26 610 L26 720 Z M191 581 L191 0 L26 0 L26 581 L191 581 Z M209 -141 L138 -141 Q83 -141 48.5 -114 Q14 -87 14 -50 Q14 -15 34.5 9 Q55 33 97 34 L209 0 Q201 0 194 0 Q153 0 137.5 -5 Q122 -10 122 -27 Q122 -42 139.5 -46 Q157 -50 180 -50 L209 -50 L209 -141 Z " />
<glyph glyph-name="j" unicode="j" horiz-adv-x="215" d="M29 720 L193 720 L193 610 L29 610 L29 720 Z M29 581 L193 581 L193 0 Q193 -90 151 -117 Q109 -144 20 -144 Q1 -144 -7 -142 Q-15 -140 -20 -139 L-20 -28 L1 -28 Q21 -28 25 -23 Q29 -18 29 1 L29 581 Z " />
<glyph glyph-name="k" unicode="k" horiz-adv-x="429" d="M193 720 L193 373 L258 581 L426 581 L320 292 L431 0 L260 0 L193 211 L193 0 L28 0 L28 720 L193 720 Z " />
<glyph glyph-name="l" unicode="l" horiz-adv-x="217" d="M26 0 L26 720 L191 720 L191 0 L26 0 Z " />
<glyph glyph-name="lacute" unicode="&#x13a;" horiz-adv-x="217" d="M26 0 L26 720 L191 720 L191 0 L26 0 Z M243 819 L168 748 L32 748 L78 819 L243 819 Z " />
<glyph glyph-name="lcaron" unicode="&#x13e;" horiz-adv-x="313" d="M26 0 L26 720 L191 720 L191 0 L26 0 Z M316 720 L276 519 L198 519 L201 720 L316 720 Z " />
<glyph glyph-name="ldot" unicode="&#x140;" horiz-adv-x="331" d="M26 0 L26 720 L191 720 L191 0 L26 0 Z M330 393 L330 248 L197 248 L197 393 L330 393 Z " />
<glyph glyph-name="less" unicode="&#x3c;" horiz-adv-x="330" d="M305 714 L305 514 L138 349 L305 192 L305 3 L34 296 L34 405 L305 714 Z " />
<glyph glyph-name="lslash" unicode="&#x142;" horiz-adv-x="258" d="M-6 353 L47 369 L47 720 L211 720 L211 415 L265 430 L265 355 L211 339 L211 0 L47 0 L47 292 L-5 277 L-6 353 Z " />
<glyph glyph-name="m" unicode="m" horiz-adv-x="643" d="M178 538 Q179 539 181 540 Q231 587 286 587 Q349 587 375 545 Q380 537 384 529 Q390 534 396 540 Q443 587 499 587 Q561 587 590.5 555.5 Q620 524 620 436 L620 0 L455 0 L455 413 Q455 436 451 441.5 Q447 447 434 447 Q418 447 406 437 Q404 436 402 434 L402 0 L243 0 L243 413 Q243 436 238.5 441.5 Q234 447 220 447 Q205 447 190 438 L190 0 L26 0 L26 581 L168 581 L178 538 Z " />
<glyph glyph-name="overscore" unicode="&#xaf;" horiz-adv-x="478" d="M382 622 L382 547 L94 547 L94 622 L382 622 Z " />
<glyph glyph-name="minus" unicode="&#x2212;" horiz-adv-x="374" d="M349 287 L25 287 L25 411 L349 411 L349 287 Z " />
<glyph glyph-name="multiply" unicode="&#xd7;" horiz-adv-x="438" d="M404 450 L315 368 L404 286 L311 191 L217 278 L123 191 L34 287 L121 368 L34 449 L123 544 L218 457 L311 544 L404 450 Z " />
<glyph glyph-name="n" unicode="n" horiz-adv-x="428" d="M183 545 Q232 587 287 587 Q351 587 377.5 547.5 Q404 508 404 452 L404 0 L240 0 L240 408 Q240 433 236 439.5 Q232 446 218 446 Q202 446 190 440 L190 0 L26 0 L26 581 L179 581 L183 545 Z " />
<glyph glyph-name="nacute" unicode="&#x144;" horiz-adv-x="428" d="M183 545 Q232 587 287 587 Q351 587 377.5 547.5 Q404 508 404 452 L404 0 L240 0 L240 408 Q240 433 236 439.5 Q232 446 218 446 Q202 446 190 440 L190 0 L26 0 L26 581 L179 581 L183 545 Z M354 701 L279 630 L143 630 L189 701 L354 701 Z " />
<glyph glyph-name="ncaron" unicode="&#x148;" horiz-adv-x="428" d="M183 545 Q232 587 287 587 Q351 587 377.5 547.5 Q404 508 404 452 L404 0 L240 0 L240 408 Q240 433 236 439.5 Q232 446 218 446 Q202 446 190 440 L190 0 L26 0 L26 581 L179 581 L183 545 Z M353 699 L270 620 L164 620 L84 700 L187 700 L218 670 L249 699 L353 699 Z " />
<glyph glyph-name="nine" unicode="9" horiz-adv-x="444" d="M27 363 L27 561 Q27 647 79.5 681 Q132 715 222 715 Q312 715 365 681 Q418 647 418 561 L418 150 Q418 64 365 29.5 Q312 -5 222 -5 Q132 -5 79.5 30 Q27 65 27 150 L27 206 L192 206 L192 179 Q192 157 197 151.5 Q202 146 222 146 Q241 146 247 151.5 Q253 157 253 179 L253 262 Q248 260 244 258 Q203 238 155 238 Q94 238 60.5 269 Q27 300 27 363 Z M253 368 L253 531 Q253 554 248.5 560.5 Q244 567 222 567 Q201 567 196.5 560.5 Q192 554 192 531 L192 395 Q192 374 196.5 366.5 Q201 359 215 359 Q235 359 249 366 Q251 367 253 368 Z " />
<glyph glyph-name="ntilde" unicode="&#xf1;" horiz-adv-x="375" d="M183 545 Q232 587 287 587 Q351 587 377.5 547.5 Q404 508 404 452 L404 0 L240 0 L240 408 Q240 433 236 439.5 Q232 446 218 446 Q202 446 190 440 L190 0 L26 0 L26 581 L179 581 L183 545 Z M267 726 Q303 726 326.5 705 Q350 684 351 622 L276 622 Q275 635 271.5 640.5 Q268 646 258 646 Q242 646 212.5 631.5 Q183 617 149 617 Q111 617 87.5 639 Q64 661 64 719 L136 719 Q136 705 141.5 699.5 Q147 694 158 694 Q179 694 208 710 Q237 726 267 726 Z " />
<glyph glyph-name="numbersign" unicode="&#x23;" horiz-adv-x="432" d="M19 302 L93 302 L109 420 L30 420 L30 498 L119 498 L148 710 L232 710 L203 498 L268 498 L297 710 L381 710 L352 498 L412 498 L412 420 L342 420 L326 302 L413 302 L413 225 L315 225 L285 0 L202 0 L232 225 L166 225 L136 0 L53 0 L83 225 L19 225 L19 302 Z M177 302 L242 302 L258 420 L193 420 L177 302 Z " />
<glyph glyph-name="o" unicode="o" horiz-adv-x="422" d="M210 591 Q298 591 350 554 Q402 517 402 440 L402 140 Q402 59 350 24.5 Q298 -10 210 -10 Q122 -10 71 24.5 Q20 59 20 140 L20 440 Q20 518 71 554.5 Q122 591 210 591 Z M185 162 Q185 139 189.5 134 Q194 129 211 129 Q230 129 234 134 Q238 139 238 162 L238 417 Q238 440 233 446.5 Q228 453 211 453 Q195 453 190 446.5 Q185 440 185 417 L185 162 Z " />
<glyph glyph-name="oacute" unicode="&#xf3;" horiz-adv-x="422" d="M210 591 Q298 591 350 554 Q402 517 402 440 L402 140 Q402 59 350 24.5 Q298 -10 210 -10 Q122 -10 71 24.5 Q20 59 20 140 L20 440 Q20 518 71 554.5 Q122 591 210 591 Z M185 162 Q185 139 189.5 134 Q194 129 211 129 Q230 129 234 134 Q238 139 238 162 L238 417 Q238 440 233 446.5 Q228 453 211 453 Q195 453 190 446.5 Q185 440 185 417 L185 162 Z M342 699 L267 628 L131 628 L177 699 L342 699 Z " />
<glyph glyph-name="obreve" unicode="&#x14f;" horiz-adv-x="368" d="M210 591 Q298 591 350 554 Q402 517 402 440 L402 140 Q402 59 350 24.5 Q298 -10 210 -10 Q122 -10 71 24.5 Q20 59 20 140 L20 440 Q20 518 71 554.5 Q122 591 210 591 Z M185 162 Q185 139 189.5 134 Q194 129 211 129 Q230 129 234 134 Q238 139 238 162 L238 417 Q238 440 233 446.5 Q228 453 211 453 Q195 453 190 446.5 Q185 440 185 417 L185 162 Z M339 721 Q339 661 315 640 Q291 619 235 619 L176 619 Q123 619 95 640.5 Q67 662 67 721 L153 721 Q154 703 161 696 Q168 689 199 689 L210 689 Q241 689 247 697 Q253 705 254 721 L339 721 Z " />
<glyph glyph-name="ocircumflex" unicode="&#xf4;" horiz-adv-x="368" d="M210 591 Q298 591 350 554 Q402 517 402 440 L402 140 Q402 59 350 24.5 Q298 -10 210 -10 Q122 -10 71 24.5 Q20 59 20 140 L20 440 Q20 518 71 554.5 Q122 591 210 591 Z M185 162 Q185 139 189.5 134 Q194 129 211 129 Q230 129 234 134 Q238 139 238 162 L238 417 Q238 440 233 446.5 Q228 453 211 453 Q195 453 190 446.5 Q185 440 185 417 L185 162 Z M71 617 L155 696 L260 696 L340 616 L238 616 L206 647 L175 617 L71 617 Z " />
<glyph glyph-name="odieresis" unicode="&#xf6;" horiz-adv-x="368" d="M210 591 Q298 591 350 554 Q402 517 402 440 L402 140 Q402 59 350 24.5 Q298 -10 210 -10 Q122 -10 71 24.5 Q20 59 20 140 L20 440 Q20 518 71 554.5 Q122 591 210 591 Z M185 162 Q185 139 189.5 134 Q194 129 211 129 Q230 129 234 134 Q238 139 238 162 L238 417 Q238 440 233 446.5 Q228 453 211 453 Q195 453 190 446.5 Q185 440 185 417 L185 162 Z M187 706 L187 635 L64 635 L64 706 L187 706 Z M346 706 L346 635 L225 635 L225 706 L346 706 Z " />
<glyph glyph-name="oe" unicode="&#x153;" horiz-adv-x="641" d="M188 591 Q266 591 304 556 Q314 546 322 533 Q329 544 338 553 Q376 591 453 591 Q542 591 585 556.5 Q628 522 628 457 L628 239 L400 239 L400 145 Q400 130 408 128.5 Q416 127 438 127 Q460 127 467 128.5 Q474 130 474 145 L474 207 L628 207 L628 123 Q628 55 585 22.5 Q542 -10 453 -10 Q376 -10 338 27 Q329 35 322 45 Q314 33 304 24 Q266 -10 188 -10 Q100 -10 57.5 24.5 Q15 59 15 134 L15 445 Q15 518 57.5 554.5 Q100 591 188 591 Z M168 150 Q168 132 176 128 Q184 124 205 124 Q227 124 234.5 128 Q242 132 242 150 L242 431 Q242 448 234 453 Q226 458 205 458 Q185 458 176.5 453.5 Q168 449 168 431 L168 150 Z M400 334 L474 334 L474 431 Q474 445 466 449.5 Q458 454 438 454 Q417 454 408.5 450 Q400 446 400 431 L400 334 Z " />
<glyph glyph-name="uni0328" unicode="&#x328;" horiz-adv-x="414" d="M409 -141 L338 -141 Q283 -141 248.5 -114 Q214 -87 214 -50 Q214 -15 234.5 9 Q255 33 297 34 L409 0 Q401 0 394 0 Q353 0 337.5 -5 Q322 -10 322 -27 Q322 -42 339.5 -46 Q357 -50 380 -50 L409 -50 L409 -141 Z " />
<glyph glyph-name="ograve" unicode="&#xf2;" horiz-adv-x="368" d="M210 591 Q298 591 350 554 Q402 517 402 440 L402 140 Q402 59 350 24.5 Q298 -10 210 -10 Q122 -10 71 24.5 Q20 59 20 140 L20 440 Q20 518 71 554.5 Q122 591 210 591 Z M185 162 Q185 139 189.5 134 Q194 129 211 129 Q230 129 234 134 Q238 139 238 162 L238 417 Q238 440 233 446.5 Q228 453 211 453 Q195 453 190 446.5 Q185 440 185 417 L185 162 Z M250 697 L297 626 L160 626 L85 697 L250 697 Z " />
<glyph glyph-name="ohungarumlaut" unicode="&#x151;" horiz-adv-x="422" d="M210 591 Q298 591 350 554 Q402 517 402 440 L402 140 Q402 59 350 24.5 Q298 -10 210 -10 Q122 -10 71 24.5 Q20 59 20 140 L20 440 Q20 518 71 554.5 Q122 591 210 591 Z M185 162 Q185 139 189.5 134 Q194 129 211 129 Q230 129 234 134 Q238 139 238 162 L238 417 Q238 440 233 446.5 Q228 453 211 453 Q195 453 190 446.5 Q185 440 185 417 L185 162 Z M239 698 L179 621 L82 621 L139 698 L239 698 Z M374 698 L313 621 L216 621 L276 698 L374 698 Z " />
<glyph glyph-name="omacron" unicode="&#x14d;" horiz-adv-x="368" d="M210 591 Q298 591 350 554 Q402 517 402 440 L402 140 Q402 59 350 24.5 Q298 -10 210 -10 Q122 -10 71 24.5 Q20 59 20 140 L20 440 Q20 518 71 554.5 Q122 591 210 591 Z M185 162 Q185 139 189.5 134 Q194 129 211 129 Q230 129 234 134 Q238 139 238 162 L238 417 Q238 440 233 446.5 Q228 453 211 453 Q195 453 190 446.5 Q185 440 185 417 L185 162 Z M358 709 L358 634 L70 634 L70 709 L358 709 Z " />
<glyph glyph-name="one" unicode="1" horiz-adv-x="258" d="M86 710 L223 710 L223 0 L58 0 L58 550 L12 550 L12 684 L86 710 Z " />
<glyph glyph-name="onesuperior" unicode="&#xb9;" horiz-adv-x="214" d="M131 710 L188 710 L188 218 L64 218 L64 603 L13 603 L13 692 L131 710 Z " />
<glyph glyph-name="ordfeminine" unicode="&#xaa;" horiz-adv-x="378" d="M246 710 L350 710 L350 270 L243 270 L236 292 Q228 286 220 281 Q179 254 139 254 Q95 254 61.5 280.5 Q28 307 28 365 L28 621 Q28 665 56 690.5 Q84 716 134 716 Q181 716 217 700 Q228 694 239 685 L246 710 Z M221 606 Q215 612 209 612 Q208 612 207 612 Q199 610 185 610 Q171 610 164 607 Q157 604 157 589 L157 381 Q157 366 163.5 364.5 Q170 363 184 363 Q199 363 211 365 Q216 366 221 369 L221 606 Z " />
<glyph glyph-name="ordmasculine" unicode="&#xba;" horiz-adv-x="369" d="M184 720 Q262 720 301.5 691 Q341 662 341 602 L341 384 Q341 322 301.5 294 Q262 266 184 266 Q107 266 67.5 294 Q28 322 28 384 L28 602 Q28 662 67.5 691 Q107 720 184 720 Z M153 396 Q153 376 160.5 372.5 Q168 369 185 369 Q202 369 209.5 372.5 Q217 376 217 396 L217 590 Q217 608 208.5 613 Q200 618 185 618 Q169 618 161 613.5 Q153 609 153 590 L153 396 Z " />
<glyph glyph-name="oslash" unicode="&#xf8;" horiz-adv-x="422" d="M364 581 L417 581 L381 522 Q402 489 402 440 L402 140 Q402 59 350 24.5 Q298 -10 210 -10 Q126 -10 76 21 L64 0 L6 0 L41 57 Q20 89 20 140 L20 440 Q20 518 71 554.5 Q122 591 210 591 Q297 591 348 555 L364 581 Z M185 290 L238 376 L238 417 Q238 440 233 446.5 Q228 453 211 453 Q195 453 190 446.5 Q185 440 185 417 L185 290 Z M185 162 Q185 139 189.5 134 Q194 129 211 129 Q230 129 234 134 Q238 139 238 162 L238 286 L185 199 L185 162 Z " />
<glyph glyph-name="oslashacute" unicode="&#x1ff;" horiz-adv-x="422" d="M364 581 L417 581 L381 522 Q402 489 402 440 L402 140 Q402 59 350 24.5 Q298 -10 210 -10 Q126 -10 76 21 L64 0 L6 0 L41 57 Q20 89 20 140 L20 440 Q20 518 71 554.5 Q122 591 210 591 Q297 591 348 555 L364 581 Z M185 290 L238 376 L238 417 Q238 440 233 446.5 Q228 453 211 453 Q195 453 190 446.5 Q185 440 185 417 L185 290 Z M185 162 Q185 139 189.5 134 Q194 129 211 129 Q230 129 234 134 Q238 139 238 162 L238 286 L185 199 L185 162 Z M343 700 L268 629 L132 629 L178 700 L343 700 Z " />
<glyph glyph-name="otilde" unicode="&#xf5;" horiz-adv-x="368" d="M210 591 Q298 591 350 554 Q402 517 402 440 L402 140 Q402 59 350 24.5 Q298 -10 210 -10 Q122 -10 71 24.5 Q20 59 20 140 L20 440 Q20 518 71 554.5 Q122 591 210 591 Z M185 162 Q185 139 189.5 134 Q194 129 211 129 Q230 129 234 134 Q238 139 238 162 L238 417 Q238 440 233 446.5 Q228 453 211 453 Q195 453 190 446.5 Q185 440 185 417 L185 162 Z M269 727 Q305 727 328.5 706 Q352 685 353 623 L278 623 Q277 636 273.5 641.5 Q270 647 260 647 Q244 647 214.5 632.5 Q185 618 151 618 Q113 618 89.5 640 Q66 662 66 720 L138 720 Q138 706 143.5 700.5 Q149 695 160 695 Q181 695 210 711 Q239 727 269 727 Z " />
<glyph glyph-name="p" unicode="p" horiz-adv-x="431" d="M189 -110 L25 -110 L25 581 L169 581 L176 549 Q179 551 181 554 Q221 589 282 589 Q344 589 376.5 557 Q409 525 409 471 L409 118 Q409 43 372.5 17.5 Q336 -8 285 -8 Q234 -8 189 25 L189 -110 Z M189 137 Q189 137 190 137 Q203 129 221 129 Q237 129 240.5 134 Q244 139 244 164 L244 419 Q244 442 240 447 Q236 452 222 452 Q205 452 193 446 Q191 444 189 443 L189 137 Z " />
<glyph glyph-name="paragraph" unicode="&#xb6;" horiz-adv-x="592" d="M409 710 L409 0 L255 0 L255 263 Q170 268 98.5 327.5 Q27 387 27 485 Q27 588 104 649 Q181 710 294 710 L409 710 Z M564 710 L564 0 L458 0 L458 710 L564 710 Z " />
<glyph glyph-name="parenleft" unicode="&#x28;" horiz-adv-x="242" d="M175 742 L223 742 L223 618 L212 618 Q176 618 164.5 611 Q153 604 153 570 L153 162 Q153 120 166 110 Q179 100 206 100 L223 100 L223 -24 L175 -24 Q120 -24 73 -0.5 Q26 23 26 105 L26 615 Q26 694 71.5 718 Q117 742 175 742 Z " />
<glyph glyph-name="parenright" unicode="&#x29;" horiz-adv-x="242" d="M68 -21 L20 -21 L20 103 L31 103 Q67 103 78.5 110 Q90 117 90 151 L90 559 Q90 601 76.5 611 Q63 621 36 621 L20 621 L20 745 L68 745 Q123 745 169.5 721.5 Q216 698 216 616 L216 106 Q216 27 171 3 Q126 -21 68 -21 Z " />
<glyph glyph-name="percent" unicode="&#x25;" horiz-adv-x="553" d="M149 380 Q85 380 54 402 Q23 424 23 483 L23 609 Q23 667 54 690 Q85 713 149 713 Q213 713 242.5 690.5 Q272 668 272 609 L272 483 Q272 423 242.5 401.5 Q213 380 149 380 Z M519 710 L100 0 L36 0 L457 710 L519 710 Z M176 605 Q176 618 170.5 621 Q165 624 148 624 Q132 624 125 621 Q118 618 118 605 L118 491 Q118 477 124 473.5 Q130 470 148 470 Q166 470 171 473.5 Q176 477 176 491 L176 605 Z M405 -6 Q341 -6 310.5 19.5 Q280 45 280 115 L280 219 Q280 277 310.5 302 Q341 327 405 327 Q470 327 499 302.5 Q528 278 528 219 L528 115 Q528 44 499 19 Q470 -6 405 -6 Z M433 222 Q433 234 426.5 236.5 Q420 239 404 239 Q387 239 380.5 236.5 Q374 234 374 222 L374 104 Q374 89 381 86 Q388 83 404 83 Q419 83 426 86 Q433 89 433 104 L433 222 Z " />
<glyph glyph-name="period" unicode="&#x2e;" horiz-adv-x="155" d="M144 145 L144 0 L11 0 L11 145 L144 145 Z " />
<glyph glyph-name="middot" unicode="&#xb7;" horiz-adv-x="217" d="M168 434 L168 289 L35 289 L35 434 L168 434 Z " />
<glyph glyph-name="plus" unicode="&#x2b;" horiz-adv-x="395" d="M371 287 L267 287 L267 180 L129 180 L129 287 L25 287 L25 411 L129 411 L129 519 L267 519 L267 411 L371 411 L371 287 Z " />
<glyph glyph-name="plusminus" unicode="&#xb1;" horiz-adv-x="404" d="M376 346 L272 346 L272 239 L134 239 L134 346 L30 346 L30 470 L134 470 L134 578 L272 578 L272 470 L376 470 L376 346 Z M362 90 L38 90 L38 214 L362 214 L362 90 Z " />
<glyph glyph-name="q" unicode="q" horiz-adv-x="431" d="M242 28 Q192 -8 144 -8 Q88 -8 55 17.5 Q22 43 22 123 L22 460 Q22 525 55 557 Q88 589 149 589 Q210 589 250 554 Q253 552 255 549 L262 581 L407 581 L407 -78 L242 -109 L242 28 Z M242 441 Q239 444 236 446 Q226 454 210 454 Q195 454 191 449 Q187 444 187 421 L187 163 Q187 138 190.5 133.5 Q194 129 211 129 Q229 129 242 136 L242 441 Z " />
<glyph glyph-name="question" unicode="&#x3f;" horiz-adv-x="417" d="M21 473 L21 592 Q21 650 58 685 Q95 720 208 720 Q320 720 360 685 Q400 650 400 592 L400 492 Q400 414 337 368 Q274 322 274 264 L274 185 L134 185 L134 316 Q134 380 190 423.5 Q246 467 246 491 L246 562 Q246 581 239 584.5 Q232 588 208 588 Q184 588 176.5 584.5 Q169 581 169 562 L169 473 L21 473 Z M134 150 L274 150 L274 0 L134 0 L134 150 Z " />
<glyph glyph-name="questiondown" unicode="&#xbf;" horiz-adv-x="417" d="M284 566 L145 566 L145 715 L284 715 L284 566 Z M397 242 L397 124 Q397 66 359.5 30.5 Q322 -5 210 -5 Q98 -5 58 30.5 Q18 66 18 124 L18 223 Q18 301 81.5 347.5 Q145 394 145 452 L145 531 L284 531 L284 400 Q284 336 228 292.5 Q172 249 172 224 L172 154 Q172 134 178.5 130.5 Q185 127 210 127 Q234 127 241.5 130.5 Q249 134 249 154 L249 242 L397 242 Z " />
<glyph glyph-name="quotedbl" unicode="&#x22;" horiz-adv-x="287" d="M133 710 L119 507 L32 507 L18 710 L133 710 Z M269 710 L255 507 L169 507 L154 710 L269 710 Z " />
<glyph glyph-name="quotedblbase" unicode="&#x201e;" horiz-adv-x="292" d="M20 0 L33 203 L121 203 L135 0 L20 0 Z M157 0 L171 203 L258 203 L272 0 L157 0 Z " />
<glyph glyph-name="quotedblleft" unicode="&#x201c;" horiz-adv-x="299" d="M135 710 L139 509 L52 509 L20 710 L135 710 Z M270 710 L274 509 L188 509 L155 710 L270 710 Z " />
<glyph glyph-name="quotedblright" unicode="&#x201d;" horiz-adv-x="299" d="M143 710 L103 509 L25 509 L28 710 L143 710 Z M279 710 L238 509 L160 509 L164 710 L279 710 Z " />
<glyph glyph-name="quoteleft" unicode="&#x2018;" horiz-adv-x="163" d="M135 710 L139 509 L60 509 L20 710 L135 710 Z " />
<glyph glyph-name="quoteright" unicode="&#x2019;" horiz-adv-x="163" d="M143 710 L103 509 L25 509 L28 710 L143 710 Z " />
<glyph glyph-name="quotesinglbase" unicode="&#x201a;" horiz-adv-x="154" d="M21 0 L34 203 L122 203 L136 0 L21 0 Z " />
<glyph glyph-name="quotesingle" unicode="&#x27;" horiz-adv-x="151" d="M133 710 L119 507 L32 507 L18 710 L133 710 Z " />
<glyph glyph-name="r" unicode="r" horiz-adv-x="296" d="M181 537 Q184 542 187 546 Q217 588 257 588 Q267 588 272.5 587.5 Q278 587 284 587 L284 424 Q269 425 255 425 Q237 425 220 423 Q204 420 190 414 L190 0 L26 0 L26 581 L177 581 L181 537 Z " />
<glyph glyph-name="racute" unicode="&#x155;" horiz-adv-x="296" d="M181 537 Q184 542 187 546 Q217 588 257 588 Q267 588 272.5 587.5 Q278 587 284 587 L284 424 Q269 425 255 425 Q237 425 220 423 Q204 420 190 414 L190 0 L26 0 L26 581 L177 581 L181 537 Z M260 706 L185 635 L49 635 L95 706 L260 706 Z " />
<glyph glyph-name="rcaron" unicode="&#x159;" horiz-adv-x="296" d="M181 537 Q184 542 187 546 Q217 588 257 588 Q267 588 272.5 587.5 Q278 587 284 587 L284 424 Q269 425 255 425 Q237 425 220 423 Q204 420 190 414 L190 0 L26 0 L26 581 L177 581 L181 537 Z M279 700 L196 621 L90 621 L10 701 L113 701 L144 671 L175 700 L279 700 Z " />
<glyph glyph-name="uni030A" unicode="&#x30a;" horiz-adv-x="265" d="M112 585 Q64 585 39.5 602.5 Q15 620 15 660 Q15 702 39.5 720 Q64 738 113 738 L149 738 Q199 738 223 720 Q247 702 247 660 Q247 620 223.5 602.5 Q200 585 149 585 L112 585 Z M120 681 Q94 681 88.5 677 Q83 673 83 660 Q83 649 89.5 645.5 Q96 642 120 642 L144 642 Q168 642 173.5 645 Q179 648 179 660 Q179 673 173.5 677 Q168 681 144 681 L120 681 Z " />
<glyph glyph-name="s" unicode="s" horiz-adv-x="400" d="M198 590 Q297 590 341.5 554.5 Q386 519 386 456 L386 387 L226 387 L226 429 Q226 444 222.5 449 Q219 454 200 454 Q181 454 176.5 449 Q172 444 172 429 L172 408 Q172 391 176 386 Q180 381 194 376 L304 334 Q348 317 367 286.5 Q386 256 386 201 L386 128 Q386 55 340 23 Q294 -9 200 -9 Q108 -9 61 21.5 Q14 52 14 128 L14 201 L172 201 L172 153 Q172 141 175.5 133.5 Q179 126 200 126 Q222 126 225 133.5 Q228 141 228 153 L228 180 Q228 199 221 205.5 Q214 212 191 221 L102 255 Q59 271 36.5 303 Q14 335 14 393 L14 454 Q14 518 58.5 554 Q103 590 198 590 Z " />
<glyph glyph-name="sacute" unicode="&#x15b;" horiz-adv-x="400" d="M198 590 Q297 590 341.5 554.5 Q386 519 386 456 L386 387 L226 387 L226 429 Q226 444 222.5 449 Q219 454 200 454 Q181 454 176.5 449 Q172 444 172 429 L172 408 Q172 391 176 386 Q180 381 194 376 L304 334 Q348 317 367 286.5 Q386 256 386 201 L386 128 Q386 55 340 23 Q294 -9 200 -9 Q108 -9 61 21.5 Q14 52 14 128 L14 201 L172 201 L172 153 Q172 141 175.5 133.5 Q179 126 200 126 Q222 126 225 133.5 Q228 141 228 153 L228 180 Q228 199 221 205.5 Q214 212 191 221 L102 255 Q59 271 36.5 303 Q14 335 14 393 L14 454 Q14 518 58.5 554 Q103 590 198 590 Z M329 697 L254 626 L118 626 L164 697 L329 697 Z " />
<glyph glyph-name="scaron" unicode="&#x161;" horiz-adv-x="400" d="M198 590 Q297 590 341.5 554.5 Q386 519 386 456 L386 387 L226 387 L226 429 Q226 444 222.5 449 Q219 454 200 454 Q181 454 176.5 449 Q172 444 172 429 L172 408 Q172 391 176 386 Q180 381 194 376 L304 334 Q348 317 367 286.5 Q386 256 386 201 L386 128 Q386 55 340 23 Q294 -9 200 -9 Q108 -9 61 21.5 Q14 52 14 128 L14 201 L172 201 L172 153 Q172 141 175.5 133.5 Q179 126 200 126 Q222 126 225 133.5 Q228 141 228 153 L228 180 Q228 199 221 205.5 Q214 212 191 221 L102 255 Q59 271 36.5 303 Q14 335 14 393 L14 454 Q14 518 58.5 554 Q103 590 198 590 Z M336 706 L253 627 L147 627 L67 707 L170 707 L201 677 L232 706 L336 706 Z " />
<glyph glyph-name="scedilla" unicode="&#x15f;" horiz-adv-x="400" d="M198 590 Q297 590 341.5 554.5 Q386 519 386 456 L386 387 L226 387 L226 429 Q226 444 222.5 449 Q219 454 200 454 Q181 454 176.5 449 Q172 444 172 429 L172 408 Q172 391 176 386 Q180 381 194 376 L304 334 Q348 317 367 286.5 Q386 256 386 201 L386 128 Q386 55 340 23 Q294 -9 200 -9 Q108 -9 61 21.5 Q14 52 14 128 L14 201 L172 201 L172 153 Q172 141 175.5 133.5 Q179 126 200 126 Q222 126 225 133.5 Q228 141 228 153 L228 180 Q228 199 221 205.5 Q214 212 191 221 L102 255 Q59 271 36.5 303 Q14 335 14 393 L14 454 Q14 518 58.5 554 Q103 590 198 590 Z M216 -95 L125 -95 L171 -6 L233 -6 L216 -95 Z " />
<glyph glyph-name="section" unicode="&#xa7;" horiz-adv-x="404" d="M201 720 Q299 720 344.5 684.5 Q390 649 390 591 L390 544 L240 544 L240 569 Q240 581 232.5 584 Q225 587 203 587 Q181 587 173.5 584 Q166 581 166 569 L166 563 Q166 545 173 540.5 Q180 536 197 531 L312 490 Q357 475 370 448 Q383 421 383 369 Q383 342 380 307 L255 362 Q246 365 235.5 368.5 Q225 372 195 383 L100 414 Q57 431 35.5 463.5 Q14 496 14 554 L14 591 Q14 649 59.5 684.5 Q105 720 201 720 Z M141 375 Q147 373 162.5 368 Q178 363 193 358 L309 318 Q353 303 371.5 270.5 Q390 238 390 183 L390 122 Q390 54 343.5 22 Q297 -10 202 -10 Q111 -10 62.5 20.5 Q14 51 14 122 L14 185 L164 185 L164 150 Q164 137 170 130 Q176 123 201 123 Q226 123 231.5 130 Q237 137 237 150 L237 166 Q237 185 229 192 Q221 199 193 210 L99 241 Q55 257 38 287.5 Q21 318 21 383 Q21 403 22 427 L141 375 Z " />
<glyph glyph-name="semicolon" unicode="&#x3b;" horiz-adv-x="165" d="M151 445 L151 300 L18 300 L18 445 L151 445 Z M136 145 L108 -59 L21 -59 L21 145 L136 145 Z " />
<glyph glyph-name="seven" unicode="7" horiz-adv-x="371" d="M13 562 L13 710 L363 710 L363 587 L211 0 L43 0 L189 562 L13 562 Z " />
<glyph glyph-name="six" unicode="6" horiz-adv-x="444" d="M419 335 L419 149 Q419 64 366 29.5 Q313 -5 223 -5 Q133 -5 80.5 29.5 Q28 64 28 149 L28 561 Q28 647 80.5 681.5 Q133 716 223 716 Q313 716 366 681 Q419 646 419 561 L419 491 L254 491 L254 535 Q254 557 248.5 562.5 Q243 568 224 568 Q204 568 198.5 562.5 Q193 557 193 535 L193 436 Q197 439 202 441 Q242 459 292 459 Q357 459 388 427.5 Q419 396 419 335 Z M193 326 L193 178 Q193 155 197.5 148.5 Q202 142 223 142 Q244 142 249 148.5 Q254 155 254 178 L254 300 Q254 320 251 327.5 Q248 335 232 335 Q212 335 197 328 Q195 327 193 326 Z " />
<glyph glyph-name="slash" unicode="&#x2f;" horiz-adv-x="256" d="M137 710 L243 710 L124 0 L13 0 L137 710 Z " />
<glyph glyph-name="sterling" unicode="&#xa3;" horiz-adv-x="414" d="M226 140 L389 140 L389 0 L14 0 L14 131 L73 137 L73 278 L13 278 L13 417 L73 417 L73 543 Q73 638 120 674 Q167 710 263 710 L366 710 L366 571 L287 571 Q249 571 237.5 561.5 Q226 552 226 524 L226 417 L325 417 L325 278 L226 278 L226 140 Z " />
<glyph glyph-name="t" unicode="t" horiz-adv-x="281" d="M9 581 L55 581 L55 665 L219 665 L219 581 L271 581 L271 451 L219 451 L219 149 Q219 134 222.5 130.5 Q226 127 238 127 L266 127 L266 0 Q248 -3 222 -6 Q196 -9 182 -9 Q125 -9 90 9 Q55 27 55 112 L55 451 L9 451 L9 581 Z " />
<glyph glyph-name="tcaron" unicode="&#x165;" horiz-adv-x="377" d="M263 705 L368 705 L332 505 L262 505 L263 705 Z M8 580 L47 580 L47 665 L193 665 L193 580 L234 580 L234 456 L193 456 L193 141 Q193 129 195.5 125.5 Q198 122 208 122 L229 122 L229 0 Q212 -4 189 -7 Q166 -10 154 -10 Q106 -10 76.5 7 Q47 24 47 109 L47 456 L8 456 L8 580 Z " />
<glyph glyph-name="thorn" unicode="&#xfe;" horiz-adv-x="440" d="M193 -115 L28 -115 L28 720 L193 720 L193 557 Q231 589 289 589 Q350 589 383 557 Q416 525 416 471 L416 118 Q416 43 380.5 17.5 Q345 -8 289 -8 Q240 -8 193 28 L193 -115 Z M193 140 Q195 139 197 138 Q212 132 231 132 Q247 132 249.5 137.5 Q252 143 252 162 L252 419 Q252 437 249 443 Q246 449 231 449 Q215 449 201 443 Q197 442 193 439 L193 140 Z " />
<glyph glyph-name="three" unicode="3" horiz-adv-x="438" d="M363 370 Q389 356 400.5 336.5 Q412 317 412 284 L412 143 Q412 53 365.5 23 Q319 -7 218 -7 Q126 -7 76.5 23 Q27 53 27 140 Q27 141 27 143 L27 253 L191 253 L191 177 Q191 154 196.5 147 Q202 140 220 140 Q238 140 243 147 Q248 154 248 177 L248 250 Q248 275 238.5 283.5 Q229 292 173 295 L173 431 Q228 434 238 440 Q248 446 248 465 L248 541 Q248 560 244 565.5 Q240 571 219 571 Q199 571 195 565 Q191 559 191 541 L191 479 L27 479 L27 556 Q27 649 79.5 681 Q132 713 220 713 Q314 713 363 681 Q412 649 412 556 L412 457 Q412 421 400 405.5 Q388 390 363 370 Z " />
<glyph glyph-name="threesuperior" unicode="&#xb3;" horiz-adv-x="350" d="M281 469 Q307 456 317.5 441.5 Q328 427 328 407 L328 306 Q328 254 298 226.5 Q268 199 174 199 Q86 199 53.5 226.5 Q21 254 21 306 L21 391 L144 391 L144 322 Q144 314 152 309.5 Q160 305 175 305 Q191 305 198.5 309.5 Q206 314 206 322 L206 384 Q206 398 194 406.5 Q182 415 142 417 L142 511 Q181 515 193.5 519 Q206 523 206 537 L206 595 Q206 603 198.5 606.5 Q191 610 175 610 Q160 610 152 606.5 Q144 603 144 595 L144 545 L21 545 L21 609 Q21 660 56 686.5 Q91 713 175 713 Q263 713 295.5 686.5 Q328 660 328 609 L328 530 Q328 506 317 495 Q306 484 281 469 Z " />
<glyph glyph-name="tildecomb" unicode="&#x303;" horiz-adv-x="356" d="M237 704 Q273 704 296.5 683 Q320 662 321 600 L246 600 Q245 613 241.5 618.5 Q238 624 228 624 Q212 624 182.5 609.5 Q153 595 119 595 Q81 595 57.5 617 Q34 639 34 697 L106 697 Q106 683 111.5 677.5 Q117 672 128 672 Q149 672 178 688 Q207 704 237 704 Z " />
<glyph glyph-name="two" unicode="2" horiz-adv-x="431" d="M324 302 L222 156 L408 156 L408 0 L27 0 L27 150 L196 395 Q222 431 233 451.5 Q244 472 244 502 L244 538 Q244 562 238 565.5 Q232 569 215 569 Q197 569 192 565.5 Q187 562 187 538 L187 479 L23 479 L23 563 Q23 642 71.5 681 Q120 720 210 720 Q213 720 215 720 Q314 720 361 681 Q408 642 408 569 L408 498 Q408 442 378.5 389 Q349 336 324 302 Z " />
<glyph glyph-name="twosuperior" unicode="&#xb2;" horiz-adv-x="348" d="M269 454 L183 342 L330 342 L330 236 L30 236 L30 337 L161 502 Q179 526 193.5 546.5 Q208 567 208 588 L208 610 Q208 628 203 632.5 Q198 637 179 637 Q161 637 154.5 632.5 Q148 628 148 610 L148 562 L27 562 L27 637 Q27 688 70 716 Q113 744 179 744 Q247 744 287.5 716 Q328 688 328 642 L328 580 Q328 542 308 510 Q288 478 269 454 Z " />
<glyph glyph-name="u" unicode="u" horiz-adv-x="427" d="M244 39 Q238 34 232 29 Q187 -8 131 -8 Q83 -8 52.5 14 Q22 36 22 111 L22 581 L187 581 L187 168 Q187 144 190.5 139.5 Q194 135 212 135 Q226 135 236 141 L236 581 L400 581 L400 0 L251 0 L244 39 Z " />
<glyph glyph-name="uacute" unicode="&#xfa;" horiz-adv-x="427" d="M244 39 Q238 34 232 29 Q187 -8 131 -8 Q83 -8 52.5 14 Q22 36 22 111 L22 581 L187 581 L187 168 Q187 144 190.5 139.5 Q194 135 212 135 Q226 135 236 141 L236 581 L400 581 L400 0 L251 0 L244 39 Z M343 701 L268 630 L132 630 L178 701 L343 701 Z " />
<glyph glyph-name="ubreve" unicode="&#x16d;" horiz-adv-x="374" d="M244 39 Q238 34 232 29 Q187 -8 131 -8 Q83 -8 52.5 14 Q22 36 22 111 L22 581 L187 581 L187 168 Q187 144 190.5 139.5 Q194 135 212 135 Q226 135 236 141 L236 581 L400 581 L400 0 L251 0 L244 39 Z M344 723 Q344 663 320 642 Q296 621 240 621 L181 621 Q128 621 100 642.5 Q72 664 72 723 L158 723 Q159 705 166 698 Q173 691 204 691 L215 691 Q246 691 252 699 Q258 707 259 723 L344 723 Z " />
<glyph glyph-name="ucircumflex" unicode="&#xfb;" horiz-adv-x="427" d="M244 39 Q238 34 232 29 Q187 -8 131 -8 Q83 -8 52.5 14 Q22 36 22 111 L22 581 L187 581 L187 168 Q187 144 190.5 139.5 Q194 135 212 135 Q226 135 236 141 L236 581 L400 581 L400 0 L251 0 L244 39 Z M77 624 L161 703 L266 703 L346 623 L244 623 L212 654 L181 624 L77 624 Z " />
<glyph glyph-name="udieresis" unicode="&#xfc;" horiz-adv-x="374" d="M244 39 Q238 34 232 29 Q187 -8 131 -8 Q83 -8 52.5 14 Q22 36 22 111 L22 581 L187 581 L187 168 Q187 144 190.5 139.5 Q194 135 212 135 Q226 135 236 141 L236 581 L400 581 L400 0 L251 0 L244 39 Z M190 698 L190 627 L67 627 L67 698 L190 698 Z M349 698 L349 627 L228 627 L228 698 L349 698 Z " />
<glyph glyph-name="ugrave" unicode="&#xf9;" horiz-adv-x="427" d="M244 39 Q238 34 232 29 Q187 -8 131 -8 Q83 -8 52.5 14 Q22 36 22 111 L22 581 L187 581 L187 168 Q187 144 190.5 139.5 Q194 135 212 135 Q226 135 236 141 L236 581 L400 581 L400 0 L251 0 L244 39 Z M257 693 L304 622 L167 622 L92 693 L257 693 Z " />
<glyph glyph-name="uhungarumlaut" unicode="&#x171;" horiz-adv-x="427" d="M244 39 Q238 34 232 29 Q187 -8 131 -8 Q83 -8 52.5 14 Q22 36 22 111 L22 581 L187 581 L187 168 Q187 144 190.5 139.5 Q194 135 212 135 Q226 135 236 141 L236 581 L400 581 L400 0 L251 0 L244 39 Z M239 706 L179 629 L82 629 L139 706 L239 706 Z M374 706 L313 629 L216 629 L276 706 L374 706 Z " />
<glyph glyph-name="umacron" unicode="&#x16b;" horiz-adv-x="374" d="M244 39 Q238 34 232 29 Q187 -8 131 -8 Q83 -8 52.5 14 Q22 36 22 111 L22 581 L187 581 L187 168 Q187 144 190.5 139.5 Q194 135 212 135 Q226 135 236 141 L236 581 L400 581 L400 0 L251 0 L244 39 Z M363 692 L363 617 L75 617 L75 692 L363 692 Z " />
<glyph glyph-name="underscore" unicode="&#x5f;" horiz-adv-x="360" d="M363 0 L363 -82 L-3 -82 L-3 0 L363 0 Z " />
<glyph glyph-name="uni0122" unicode="&#x122;" horiz-adv-x="434" d="M218 717 Q326 717 368.5 682 Q411 647 411 571 L411 456 L247 456 L247 535 Q247 555 241.5 560.5 Q236 566 218 566 Q199 566 193.5 560.5 Q188 555 188 535 L188 182 Q188 159 192 150.5 Q196 142 223 142 Q249 142 253 150.5 Q257 159 257 182 L257 260 L218 260 L218 412 L411 412 L411 141 Q411 56 364 23.5 Q317 -9 223 -9 Q123 -9 73.5 23.5 Q24 56 24 141 L24 571 Q24 647 69.5 682 Q115 717 218 717 Z M258 -132 L153 -132 L180 -31 L286 -31 L258 -132 Z " />
<glyph glyph-name="uni0123" unicode="&#x123;" horiz-adv-x="425" d="M26 1 L174 1 L174 -6 Q174 -17 180.5 -20.5 Q187 -24 209 -24 Q231 -24 233 -20.5 Q235 -17 235 -1 L235 62 Q186 25 135 25 Q81 25 50.5 54.5 Q20 84 20 159 L20 459 Q20 515 50.5 551.5 Q81 588 143 588 Q203 588 242 551 Q243 549 245 547 L256 581 L400 581 L400 -10 Q400 -88 349.5 -115 Q299 -142 210 -142 Q122 -142 74 -115 Q26 -88 26 -9 L26 1 Z M235 441 Q227 452 208 452 Q191 452 188 445 Q185 438 185 413 L185 196 Q185 172 187.5 165 Q190 158 206 158 Q222 158 235 168 Q235 168 235 168 L235 441 Z M248 -267 L143 -267 L170 -166 L276 -166 L248 -267 Z " />
<glyph glyph-name="uni0136" unicode="&#x136;" horiz-adv-x="390" d="M323 354 L458 0 L282 0 L193 257 L193 0 L28 0 L28 710 L193 710 L193 443 L276 710 L451 710 L323 354 Z M247 -128 L142 -128 L169 -27 L275 -27 L247 -128 Z " />
<glyph glyph-name="uni0137" unicode="&#x137;" horiz-adv-x="376" d="M193 720 L193 373 L258 581 L426 581 L320 292 L431 0 L260 0 L193 211 L193 0 L28 0 L28 720 L193 720 Z M226 -127 L121 -127 L148 -26 L254 -26 L226 -127 Z " />
<glyph glyph-name="uni013B" unicode="&#x13b;" horiz-adv-x="303" d="M28 0 L28 710 L193 710 L193 154 L333 154 L333 0 L28 0 Z M197 -127 L92 -127 L119 -26 L225 -26 L197 -127 Z " />
<glyph glyph-name="uni013C" unicode="&#x13c;" horiz-adv-x="191" d="M26 0 L26 720 L191 720 L191 0 L26 0 Z M134 -129 L29 -129 L56 -28 L162 -28 L134 -129 Z " />
<glyph glyph-name="uni0145" unicode="&#x145;" horiz-adv-x="469" d="M291 710 L441 710 L441 0 L298 0 L168 360 L178 260 L178 0 L28 0 L28 710 L180 710 L300 352 L291 456 L291 710 Z M274 -135 L169 -135 L196 -34 L302 -34 L274 -135 Z " />
<glyph glyph-name="uni0146" unicode="&#x146;" horiz-adv-x="428" d="M183 545 Q232 587 287 587 Q351 587 377.5 547.5 Q404 508 404 452 L404 0 L240 0 L240 408 Q240 433 236 439.5 Q232 446 218 446 Q202 446 190 440 L190 0 L26 0 L26 581 L179 581 L183 545 Z M248 -129 L143 -129 L170 -28 L276 -28 L248 -129 Z " />
<glyph glyph-name="uni0156" unicode="&#x156;" horiz-adv-x="377" d="M227 710 Q339 710 376 668.5 Q413 627 413 551 L413 418 Q413 354 362 315 Q374 302 381 290 Q392 269 397 218 L423 0 L260 0 L237 219 Q235 242 231 254 Q230 257 228 260 L194 260 L194 0 L28 0 L28 710 L227 710 Z M193 395 L214 395 Q240 395 244 401 Q248 407 248 433 L248 523 Q248 548 244.5 555 Q241 562 214 562 L193 562 L193 395 Z M236 -116 L131 -116 L158 -15 L264 -15 L236 -116 Z " />
<glyph glyph-name="uni0157" unicode="&#x157;" horiz-adv-x="296" d="M181 537 Q184 542 187 546 Q217 588 257 588 Q267 588 272.5 587.5 Q278 587 284 587 L284 424 Q269 425 255 425 Q237 425 220 423 Q204 420 190 414 L190 0 L26 0 L26 581 L177 581 L181 537 Z M137 -130 L32 -130 L59 -29 L165 -29 L137 -130 Z " />
<glyph glyph-name="uni0162" unicode="&#x162;" horiz-adv-x="385" d="M224 -69 L84 -69 L143 0 L110 0 L110 554 L11 554 L11 710 L374 710 L374 554 L275 554 L275 0 L246 0 L224 -69 Z " />
<glyph glyph-name="uni0163" unicode="&#x163;" horiz-adv-x="242" d="M9 581 L55 581 L55 665 L219 665 L219 581 L271 581 L271 451 L219 451 L219 149 Q219 134 222.5 130.5 Q226 127 238 127 L266 127 L266 0 Q248 -3 222 -6 Q196 -9 182 -9 Q125 -9 90 9 Q55 27 55 112 L55 451 L9 451 L9 581 Z M174 -89 L83 -89 L129 0 L191 0 L174 -89 Z " />
<glyph glyph-name="uni01DD" unicode="&#x1dd;" horiz-adv-x="422" d="M20 375 L20 442 Q20 526 72 558.5 Q124 591 212 591 Q300 591 351 558.5 Q402 526 402 442 L402 140 Q402 58 351 24 Q300 -10 212 -10 Q124 -10 72 24.5 Q20 59 20 140 L20 342 L238 342 L238 415 Q238 434 232.5 438.5 Q227 443 211 443 Q194 443 189.5 438.5 Q185 434 185 415 L185 375 L20 375 Z M185 242 L185 168 Q185 149 190 143.5 Q195 138 211 138 Q226 138 232 143 Q238 148 238 168 L238 242 L185 242 Z " />
<glyph glyph-name="uni0218" unicode="&#x218;" horiz-adv-x="369" d="M211 720 Q320 720 362 679.5 Q404 639 404 575 L404 473 L239 473 L239 547 Q239 562 235.5 566.5 Q232 571 213 571 Q194 571 189.5 566.5 Q185 562 185 547 L185 504 Q185 488 190.5 478.5 Q196 469 213 460 L335 385 Q372 363 388 323.5 Q404 284 404 238 L404 135 Q404 59 355.5 25.5 Q307 -8 212 -8 Q119 -8 70 24 Q21 56 21 135 L21 252 L185 252 L185 167 Q185 150 189.5 145.5 Q194 141 213 141 Q232 141 235.5 145.5 Q239 150 239 167 L239 213 Q239 243 230 254 Q221 265 194 279 L104 335 Q66 357 43.5 394.5 Q21 432 21 484 L21 567 Q21 638 61.5 679 Q102 720 211 720 Z M218 -114 L113 -114 L140 -13 L246 -13 L218 -114 Z " />
<glyph glyph-name="uni0219" unicode="&#x219;" horiz-adv-x="400" d="M198 590 Q297 590 341.5 554.5 Q386 519 386 456 L386 387 L226 387 L226 429 Q226 444 222.5 449 Q219 454 200 454 Q181 454 176.5 449 Q172 444 172 429 L172 408 Q172 391 176 386 Q180 381 194 376 L304 334 Q348 317 367 286.5 Q386 256 386 201 L386 128 Q386 55 340 23 Q294 -9 200 -9 Q108 -9 61 21.5 Q14 52 14 128 L14 201 L172 201 L172 153 Q172 141 175.5 133.5 Q179 126 200 126 Q222 126 225 133.5 Q228 141 228 153 L228 180 Q228 199 221 205.5 Q214 212 191 221 L102 255 Q59 271 36.5 303 Q14 335 14 393 L14 454 Q14 518 58.5 554 Q103 590 198 590 Z M232 -126 L127 -126 L154 -25 L260 -25 L232 -126 Z " />
<glyph glyph-name="uni021A" unicode="&#x21a;" horiz-adv-x="385" d="M11 710 L374 710 L374 554 L275 554 L275 0 L110 0 L110 554 L11 554 L11 710 Z M219 -134 L114 -134 L141 -33 L247 -33 L219 -134 Z " />
<glyph glyph-name="uni021B" unicode="&#x21b;" horiz-adv-x="242" d="M9 581 L55 581 L55 665 L219 665 L219 581 L271 581 L271 451 L219 451 L219 149 Q219 134 222.5 130.5 Q226 127 238 127 L266 127 L266 0 Q248 -3 222 -6 Q196 -9 182 -9 Q125 -9 90 9 Q55 27 55 112 L55 451 L9 451 L9 581 Z M180 -120 L75 -120 L102 -19 L208 -19 L180 -120 Z " />
<glyph glyph-name="uogonek" unicode="&#x173;" horiz-adv-x="427" d="M336 -135 Q266 -135 235.5 -115 Q205 -95 205 -65 Q205 -35 224 -17 Q234 -6 250 4 L244 39 Q238 34 232 29 Q187 -8 131 -8 Q83 -8 52.5 14 Q22 36 22 111 L22 581 L187 581 L187 168 Q187 144 190.5 139.5 Q194 135 212 135 Q226 135 236 141 L236 581 L400 581 L400 0 L342 0 Q351 5 369 14 L332 19 L278 19 Q262 11 250 4 L251 0 L342 0 Q339 -2 337 -4 Q328 -9 328 -18 Q328 -25 334.5 -30 Q341 -35 378 -35 L402 -35 L402 -135 L336 -135 Z " />
<glyph glyph-name="uring" unicode="&#x16f;" horiz-adv-x="427" d="M244 39 Q238 34 232 29 Q187 -8 131 -8 Q83 -8 52.5 14 Q22 36 22 111 L22 581 L187 581 L187 168 Q187 144 190.5 139.5 Q194 135 212 135 Q226 135 236 141 L236 581 L400 581 L400 0 L251 0 L244 39 Z M195 610 Q147 610 122.5 627.5 Q98 645 98 685 Q98 727 122.5 745 Q147 763 196 763 L232 763 Q282 763 306 745 Q330 727 330 685 Q330 645 306.5 627.5 Q283 610 232 610 L195 610 Z M203 706 Q177 706 171.5 702 Q166 698 166 685 Q166 674 172.5 670.5 Q179 667 203 667 L227 667 Q251 667 256.5 670 Q262 673 262 685 Q262 698 256.5 702 Q251 706 227 706 L203 706 Z " />
<glyph glyph-name="v" unicode="v" horiz-adv-x="406" d="M111 0 L3 581 L174 581 L196 275 L204 189 L212 275 L233 581 L403 581 L297 0 L111 0 Z " />
<glyph glyph-name="w" unicode="w" horiz-adv-x="633" d="M3 581 L173 581 L218 269 L262 581 L370 581 L412 321 L418 269 L459 581 L630 581 L510 0 L364 0 L324 181 L316 227 L309 181 L270 0 L124 0 L3 581 Z " />
<glyph glyph-name="wacute" unicode="&#x1e83;" horiz-adv-x="633" d="M3 581 L173 581 L218 269 L262 581 L370 581 L412 321 L418 269 L459 581 L630 581 L510 0 L364 0 L324 181 L316 227 L309 181 L270 0 L124 0 L3 581 Z M447 709 L372 638 L236 638 L282 709 L447 709 Z " />
<glyph glyph-name="wcircumflex" unicode="&#x175;" horiz-adv-x="633" d="M3 581 L173 581 L218 269 L262 581 L370 581 L412 321 L418 269 L459 581 L630 581 L510 0 L364 0 L324 181 L316 227 L309 181 L270 0 L124 0 L3 581 Z M184 631 L268 710 L373 710 L453 630 L351 630 L319 661 L288 631 L184 631 Z " />
<glyph glyph-name="wdieresis" unicode="&#x1e85;" horiz-adv-x="544" d="M3 581 L173 581 L218 269 L262 581 L370 581 L412 321 L418 269 L459 581 L630 581 L510 0 L364 0 L324 181 L316 227 L309 181 L270 0 L124 0 L3 581 Z M276 707 L276 636 L153 636 L153 707 L276 707 Z M435 707 L435 636 L314 636 L314 707 L435 707 Z " />
<glyph glyph-name="wgrave" unicode="&#x1e81;" horiz-adv-x="633" d="M3 581 L173 581 L218 269 L262 581 L370 581 L412 321 L418 269 L459 581 L630 581 L510 0 L364 0 L324 181 L316 227 L309 181 L270 0 L124 0 L3 581 Z M349 704 L396 633 L259 633 L184 704 L349 704 Z " />
<glyph glyph-name="x" unicode="x" horiz-adv-x="437" d="M5 581 L180 581 L219 402 L256 581 L432 581 L336 288 L433 0 L256 0 L219 158 L180 0 L6 0 L105 287 L5 581 Z " />
<glyph glyph-name="y" unicode="y" horiz-adv-x="439" d="M278 -123 L109 -123 L137 0 L3 581 L183 581 L214 298 L221 203 L231 298 L257 581 L435 581 L278 -123 Z " />
<glyph glyph-name="yacute" unicode="&#xfd;" horiz-adv-x="383" d="M278 -123 L109 -123 L137 0 L3 581 L183 581 L214 298 L221 203 L231 298 L257 581 L435 581 L278 -123 Z M339 712 L264 641 L128 641 L174 712 L339 712 Z " />
<glyph glyph-name="ycircumflex" unicode="&#x177;" horiz-adv-x="383" d="M278 -123 L109 -123 L137 0 L3 581 L183 581 L214 298 L221 203 L231 298 L257 581 L435 581 L278 -123 Z M79 631 L163 710 L268 710 L348 630 L246 630 L214 661 L183 631 L79 631 Z " />
<glyph glyph-name="ydieresis" unicode="&#xff;" horiz-adv-x="383" d="M278 -123 L109 -123 L137 0 L3 581 L183 581 L214 298 L221 203 L231 298 L257 581 L435 581 L278 -123 Z M196 706 L196 635 L73 635 L73 706 L196 706 Z M355 706 L355 635 L234 635 L234 706 L355 706 Z " />
<glyph glyph-name="yen" unicode="&#xa5;" horiz-adv-x="453" d="M52 304 L108 304 L2 710 L184 710 L223 440 L233 354 L242 440 L282 710 L448 710 L341 304 L401 304 L401 212 L317 212 L309 183 L401 183 L401 90 L307 90 L307 0 L143 0 L142 90 L52 90 L52 183 L140 183 L132 212 L52 212 L52 304 Z " />
<glyph glyph-name="ygrave" unicode="&#x1ef3;" horiz-adv-x="383" d="M278 -123 L109 -123 L137 0 L3 581 L183 581 L214 298 L221 203 L231 298 L257 581 L435 581 L278 -123 Z M262 698 L309 627 L172 627 L97 698 L262 698 Z " />
<glyph glyph-name="z" unicode="z" horiz-adv-x="365" d="M349 448 L196 141 L349 141 L349 0 L16 0 L16 131 L166 433 L16 433 L16 581 L349 581 L349 448 Z " />
<glyph glyph-name="zacute" unicode="&#x17a;" horiz-adv-x="315" d="M349 448 L196 141 L349 141 L349 0 L16 0 L16 131 L166 433 L16 433 L16 581 L349 581 L349 448 Z M294 695 L219 624 L83 624 L129 695 L294 695 Z " />
<glyph glyph-name="zcaron" unicode="&#x17e;" horiz-adv-x="326" d="M349 448 L196 141 L349 141 L349 0 L16 0 L16 131 L166 433 L16 433 L16 581 L349 581 L349 448 Z M313 704 L230 625 L124 625 L44 705 L147 705 L178 675 L209 704 L313 704 Z " />
<glyph glyph-name="zdotaccent" unicode="&#x17c;" horiz-adv-x="365" d="M349 448 L196 141 L349 141 L349 0 L16 0 L16 131 L166 433 L16 433 L16 581 L349 581 L349 448 Z M134 709 L231 709 L231 619 L134 619 L134 709 Z " />
<glyph glyph-name="zero" unicode="0" horiz-adv-x="438" d="M218 714 Q321 714 367 679 Q413 644 413 554 L413 152 Q413 62 367 27.5 Q321 -7 218 -7 Q116 -7 70.5 27.5 Q25 62 25 152 L25 554 Q25 645 70.5 679.5 Q116 714 218 714 Z M190 184 Q190 160 194.5 153.5 Q199 147 220 147 Q240 147 244.5 153.5 Q249 160 249 184 L249 518 Q249 546 245 553 Q241 560 220 560 Q198 560 194 553 Q190 546 190 518 L190 184 Z " />
</font>
</svg>
