<?xml version="1.0" encoding="UTF-8"?>
<svg xmlns="http://www.w3.org/2000/svg" xmlns:xlink="http://www.w3.org/1999/xlink" version="1.2" >
<font id="MetaSerifPro-BoldIta">
<font-face  font-family="Meta Serif Pro" units-per-em="1000" ascent="763" descent="-237" font-style="normal" font-weight="700" font-stretch="normal" cap-height="695" x-height="509" underline-position="-52" underline-thickness="73" />
<missing-glyph  horiz-adv-x="553" d="M71 0 L482 0 L482 689 L71 689 L71 0 Z M121 50 L121 639 L432 639 L432 50 L121 50 Z " />
<glyph glyph-name=".null" d="" />
<glyph glyph-name="CR" unicode="&#xd;" horiz-adv-x="225" d="" />
<glyph glyph-name="space" unicode="&#x20;" horiz-adv-x="225" d="" />
<glyph glyph-name="exclam" unicode="&#x21;" horiz-adv-x="307" d="M335 703 L146 687 L90 223 L183 223 L335 703 Z M206 81 C206 130 164 171 114 171 C64 171 24 130 24 81 C24 30 64 -12 114 -12 C164 -12 206 30 206 81 L206 81 Z " />
<glyph glyph-name="quotedbl" unicode="&#x22;" horiz-adv-x="440" d="M390 453 L439 709 L340 709 L291 453 L390 453 Z M211 453 L260 709 L161 709 L112 453 L211 453 Z " />
<glyph glyph-name="numbersign" unicode="&#x23;" horiz-adv-x="574" d="M583 422 L599 506 L501 506 L569 709 L486 709 L419 506 L300 506 L368 709 L285 709 L218 506 L113 506 L97 422 L190 422 L147 294 L42 294 L26 211 L120 211 L50 0 L133 0 L203 211 L321 211 L251 0 L334 0 L404 211 L513 211 L528 294 L431 294 L474 422 L583 422 Z M392 422 L348 294 L230 294 L273 422 L392 422 Z " />
<glyph glyph-name="dollar" unicode="&#x24;" horiz-adv-x="535" d="M144 -101 L199 -101 L216 -14 C376 -9 483 71 483 220 C483 324 424 369 340 406 L302 422 L344 636 C388 620 407 579 407 517 L504 517 L529 652 C505 668 451 697 357 704 L375 792 L320 792 L303 706 C153 703 55 617 55 484 C55 392 104 339 179 307 L221 289 L173 49 C119 64 104 113 104 186 L6 186 L-20 48 C9 22 68 -6 161 -12 L144 -101 Z M344 161 C344 88 294 50 227 45 L271 267 C319 242 344 211 344 161 L344 161 Z M184 539 C184 599 226 640 290 643 L251 445 C211 464 184 490 184 539 L184 539 Z " />
<glyph glyph-name="percent" unicode="&#x25;" horiz-adv-x="1033" d="M1013 253 C1013 352 955 411 853 411 C703 411 617 293 617 155 C617 50 677 -9 777 -9 C913 -9 1013 96 1013 253 L1013 253 Z M784 37 C755 37 738 56 738 111 C738 127 740 147 743 170 C755 279 791 362 844 362 C877 362 891 338 891 290 C891 273 889 253 886 231 C871 135 846 37 784 37 L784 37 Z M448 503 C448 602 390 661 287 661 C138 661 51 543 51 405 C51 300 111 241 211 241 C347 241 448 346 448 503 L448 503 Z M219 287 C190 287 173 306 173 363 C173 379 174 398 177 420 C190 529 225 612 279 612 C312 612 326 588 326 540 C326 523 324 503 321 481 C306 385 281 287 219 287 L219 287 Z M858 730 L786 730 L174 -123 L247 -123 L858 730 Z " />
<glyph glyph-name="ampersand" unicode="&#x26;" horiz-adv-x="718" d="M624 286 C640 328 658 339 706 340 L713 383 L494 383 L487 340 C535 336 552 329 552 301 C552 256 532 221 514 195 L372 373 C477 412 554 470 554 561 C554 654 480 706 361 706 C206 706 122 613 122 510 C122 456 144 412 178 373 L208 339 C92 310 7 251 7 151 C7 43 93 -14 223 -14 C318 -14 381 12 439 49 L480 0 L676 0 L684 44 C647 44 628 52 603 82 L550 148 C579 187 601 223 624 286 L624 286 Z M282 51 C209 51 162 89 162 164 C162 228 188 272 237 301 L406 90 C372 67 327 51 282 51 L282 51 Z M329 427 C287 475 264 513 264 552 C264 611 305 646 355 646 C404 646 431 612 431 557 C431 496 398 450 343 410 L329 427 Z " />
<glyph glyph-name="quotesingle" unicode="&#x27;" horiz-adv-x="261" d="M211 453 L260 709 L161 709 L112 453 L211 453 Z " />
<glyph glyph-name="parenleft" unicode="&#x28;" horiz-adv-x="397" d="M290 -122 C224 -57 207 44 207 166 C207 387 278 616 466 733 L434 775 C171 669 60 458 60 189 C60 4 146 -108 252 -158 L290 -122 Z " />
<glyph glyph-name="parenright" unicode="&#x29;" horiz-adv-x="421" d="M141 740 C207 675 224 573 224 451 C224 229 153 1 -35 -116 L-3 -158 C260 -52 371 157 371 432 C371 614 285 726 179 775 L141 740 Z " />
<glyph glyph-name="asterisk" unicode="&#x2a;" horiz-adv-x="460" d="M431 465 L437 527 L312 557 L347 681 L292 704 L225 595 L118 668 L76 620 L155 520 L57 438 L88 383 L206 435 L252 310 L314 326 L307 455 L431 465 Z " />
<glyph glyph-name="plus" unicode="&#x2b;" horiz-adv-x="584" d="M298 507 L259 306 L65 306 L52 236 L246 236 L206 33 L286 33 L325 236 L521 236 L534 306 L339 306 L378 507 L298 507 Z " />
<glyph glyph-name="comma" unicode="&#x2c;" horiz-adv-x="274" d="M212 60 C212 114 178 163 114 163 C62 163 26 127 26 81 C26 42 47 26 71 15 C90 7 99 -1 99 -19 C99 -53 56 -89 -13 -109 L9 -147 C117 -123 212 -44 212 60 L212 60 Z " />
<glyph glyph-name="hyphen" unicode="&#x2d;" horiz-adv-x="354" d="M291 222 L314 337 L62 337 L39 222 L291 222 Z " />
<glyph glyph-name="period" unicode="&#x2e;" horiz-adv-x="275" d="M207 81 C207 132 165 173 113 173 C62 173 21 132 21 81 C21 29 62 -13 113 -13 C165 -13 207 29 207 81 L207 81 Z " />
<glyph glyph-name="slash" unicode="&#x2f;" horiz-adv-x="392" d="M466 761 L372 761 L-64 -149 L29 -149 L466 761 Z " />
<glyph glyph-name="zero" unicode="0" horiz-adv-x="590" d="M552 316 C552 460 462 528 331 528 C132 528 38 355 38 195 C38 67 119 -14 254 -14 C458 -14 552 147 552 316 L552 316 Z M399 369 C399 280 379 183 343 112 C318 62 289 50 257 50 C210 50 187 77 187 135 C187 218 208 328 240 396 C262 445 290 463 328 463 C375 463 399 433 399 369 L399 369 Z " />
<glyph glyph-name="one" unicode="1" horiz-adv-x="408" d="M358 515 L259 515 L53 408 L63 360 C108 371 136 381 182 403 L124 130 C110 63 96 49 8 45 L-1 0 L340 0 L349 45 C288 47 269 57 269 88 C269 96 271 110 274 124 L358 515 Z " />
<glyph glyph-name="two" unicode="2" horiz-adv-x="472" d="M268 528 C166 528 87 479 41 423 L73 372 C110 405 158 433 208 433 C255 433 280 407 280 361 C280 273 214 224 104 150 L-6 77 L-22 0 L385 0 L421 102 L134 102 L170 121 C329 202 443 270 443 389 C443 474 385 528 268 528 L268 528 Z " />
<glyph glyph-name="three" unicode="3" horiz-adv-x="454" d="M191 439 C246 439 272 410 272 360 C272 274 219 233 143 233 C121 233 105 234 89 235 L74 165 C90 166 107 167 124 167 C191 167 226 136 226 78 C226 -42 141 -101 9 -101 C-33 -101 -68 -95 -103 -87 L-87 -146 C-57 -157 -16 -164 32 -164 C183 -164 381 -107 381 76 C381 142 336 193 256 203 C345 229 421 282 421 377 C421 470 362 528 248 528 C155 528 75 490 22 432 L53 383 C91 416 134 439 191 439 L191 439 Z " />
<glyph glyph-name="four" unicode="4" horiz-adv-x="568" d="M237 -179 L395 -160 L431 8 L511 8 L525 74 L445 74 L503 350 L397 334 C342 257 316 189 291 74 L103 74 L456 515 L306 515 L-4 75 L-19 8 L277 8 L237 -179 Z " />
<glyph glyph-name="five" unicode="5" horiz-adv-x="451" d="M397 102 C397 192 338 256 226 256 C188 256 147 251 121 241 L166 392 L427 392 L468 513 L130 513 L25 157 C56 170 104 178 143 178 C211 178 240 142 240 79 C240 -63 107 -102 23 -102 C-25 -102 -49 -97 -83 -87 L-73 -144 C-41 -156 -10 -164 47 -164 C224 -164 397 -79 397 102 L397 102 Z " />
<glyph glyph-name="six" unicode="6" horiz-adv-x="572" d="M544 693 C256 631 35 474 35 201 C35 64 113 -14 256 -14 C423 -14 532 83 532 255 C532 363 453 423 371 423 C300 423 254 400 221 375 C279 498 391 582 551 640 L544 693 Z M382 238 C382 142 343 43 257 43 C195 43 176 108 176 175 C176 230 189 286 200 313 C230 333 269 347 307 347 C358 347 382 313 382 238 L382 238 Z " />
<glyph glyph-name="seven" unicode="7" horiz-adv-x="465" d="M489 513 L70 513 L29 389 L359 389 C210 249 62 50 -20 -170 L145 -143 C209 67 305 250 448 400 L489 513 Z " />
<glyph glyph-name="eight" unicode="8" horiz-adv-x="558" d="M547 539 C547 624 468 680 343 680 C206 680 102 602 102 476 C102 403 134 361 190 324 C100 295 13 248 13 142 C13 52 95 -14 248 -14 C405 -14 513 64 513 193 C513 276 472 320 384 371 C479 396 547 443 547 539 L547 539 Z M371 148 C371 90 332 44 253 44 C184 44 148 86 148 151 C148 207 180 257 232 296 C342 233 371 202 371 148 L371 148 Z M421 539 C421 480 398 434 336 401 C262 445 240 481 240 519 C240 580 276 620 334 620 C394 620 421 587 421 539 L421 539 Z " />
<glyph glyph-name="nine" unicode="9" horiz-adv-x="575" d="M540 311 C540 442 460 528 311 528 C147 528 38 418 38 260 C38 141 116 85 210 85 C277 85 320 106 352 127 C296 7 148 -87 -23 -131 L4 -180 C316 -135 540 23 540 311 L540 311 Z M374 193 C344 172 307 160 267 160 C214 160 187 198 187 272 C187 369 221 466 306 466 C374 466 396 394 396 321 C396 270 385 219 374 193 L374 193 Z " />
<glyph glyph-name="colon" unicode="&#x3a;" horiz-adv-x="303" d="M213 81 C213 132 171 173 119 173 C68 173 27 132 27 81 C27 29 68 -13 119 -13 C171 -13 213 29 213 81 L213 81 Z M266 373 C266 424 224 466 172 466 C121 466 80 424 80 373 C80 321 121 279 172 279 C224 279 266 321 266 373 L266 373 Z " />
<glyph glyph-name="semicolon" unicode="&#x3b;" horiz-adv-x="299" d="M262 373 C262 424 220 466 169 466 C117 466 76 424 76 373 C76 321 117 279 169 279 C220 279 262 321 262 373 L262 373 Z M215 60 C215 114 181 163 117 163 C65 163 29 127 29 81 C29 42 50 26 74 15 C93 7 102 -1 102 -19 C102 -53 59 -89 -10 -109 L12 -147 C120 -123 215 -44 215 60 L215 60 Z " />
<glyph glyph-name="less" unicode="&#x3c;" horiz-adv-x="537" d="M403 47 L419 128 L156 289 L486 471 L504 565 L85 330 L69 248 L403 47 Z " />
<glyph glyph-name="equal" unicode="&#x3d;" horiz-adv-x="613" d="M52 159 L518 159 L532 230 L66 230 L52 159 Z M82 315 L548 315 L563 387 L96 387 L82 315 Z " />
<glyph glyph-name="greater" unicode="&#x3e;" horiz-adv-x="530" d="M35 47 L447 248 L463 330 L135 565 L118 479 L376 297 L51 136 L35 47 Z " />
<glyph glyph-name="question" unicode="&#x3f;" horiz-adv-x="479" d="M286 81 C286 131 243 172 192 172 C142 172 101 131 101 81 C101 29 142 -13 192 -13 C243 -13 286 29 286 81 L286 81 Z M280 637 C322 637 339 612 339 572 C339 506 310 477 256 438 C202 399 153 350 153 283 C153 255 163 233 171 222 L235 222 L235 233 C235 300 255 325 345 373 C421 413 493 465 493 565 C493 663 417 706 296 706 C222 706 161 689 112 663 L87 541 L189 541 C206 604 224 637 280 637 L280 637 Z " />
<glyph glyph-name="at" unicode="&#x40;" horiz-adv-x="907" d="M601 7 C738 7 866 86 866 282 C866 488 713 625 479 625 C229 625 42 448 42 194 C42 -46 204 -176 423 -176 C502 -176 558 -162 611 -141 L596 -105 C554 -119 506 -129 435 -129 C245 -129 131 3 131 193 C131 433 274 578 477 578 C653 578 774 488 774 283 C774 128 710 57 639 57 C606 57 592 67 592 93 C592 102 593 112 596 125 L640 326 C647 357 658 393 667 418 C631 440 570 451 511 451 C344 451 220 301 220 131 C220 49 260 5 328 5 C399 5 438 42 470 97 C470 37 506 7 601 7 L601 7 Z M484 181 C450 128 416 84 381 84 C359 84 346 96 346 140 C346 255 406 396 493 396 C510 396 522 391 532 380 L484 181 Z " />
<glyph glyph-name="A" unicode="A" horiz-adv-x="648" d="M394 101 C395 92 395 91 395 87 C395 59 382 48 328 46 L320 0 L604 0 L613 46 C574 51 565 63 557 113 L470 695 L345 695 L45 113 C17 60 -1 51 -45 46 L-53 0 L168 0 L177 46 C138 47 122 56 122 74 C122 83 126 93 132 107 L171 187 L384 187 L394 101 Z M301 452 C327 505 340 537 342 543 L348 543 L348 528 C348 516 348 483 353 444 L374 261 L207 261 L301 452 Z " />
<glyph glyph-name="B" unicode="B" horiz-adv-x="641" d="M117 695 L108 647 C150 646 167 637 167 606 C167 597 165 585 163 575 L74 117 C63 60 44 46 -10 46 L-18 0 L279 0 C364 0 420 3 487 32 C564 65 605 125 605 211 C605 289 551 344 450 354 L450 358 C553 366 635 430 635 539 C635 644 561 695 424 695 L117 695 Z M283 387 L329 624 L374 624 C440 624 471 608 471 536 C471 484 456 441 429 415 C404 392 375 387 327 387 L283 387 Z M343 318 C414 318 441 290 441 219 C441 163 425 114 392 90 C364 70 329 67 275 67 L221 67 L270 318 L343 318 Z " />
<glyph glyph-name="C" unicode="C" horiz-adv-x="617" d="M318 -14 C406 -14 501 9 547 39 L574 177 L466 177 C438 95 401 56 329 56 C257 56 215 94 215 218 C215 433 287 636 431 636 C495 636 507 597 509 520 L616 520 L643 655 C600 686 538 706 447 706 C191 706 50 489 50 258 C50 87 134 -14 318 -14 L318 -14 Z " />
<glyph glyph-name="D" unicode="D" horiz-adv-x="697" d="M-18 0 L294 0 C403 0 491 24 552 88 C629 169 672 286 672 435 C672 607 575 695 394 695 L117 695 L108 647 C150 646 167 637 167 606 C167 597 165 584 163 575 L74 117 C63 60 44 46 -10 46 L-18 0 Z M377 625 C481 625 506 578 506 468 C506 337 472 198 428 134 C388 76 336 67 270 67 L222 67 L330 625 L377 625 Z " />
<glyph glyph-name="E" unicode="E" horiz-adv-x="593" d="M-18 0 L506 0 L541 183 L465 183 C439 90 410 67 344 67 L221 67 L270 319 L332 319 C384 319 401 307 401 271 C401 266 400 255 399 248 L465 248 L506 457 L440 457 C425 400 406 386 344 386 L283 386 L329 624 L437 624 C508 624 514 602 522 526 L596 526 L617 695 L117 695 L108 647 C150 646 167 637 167 606 C167 597 165 585 163 575 L74 117 C63 60 44 46 -10 46 L-18 0 Z " />
<glyph glyph-name="F" unicode="F" horiz-adv-x="565" d="M269 314 L329 314 C381 314 398 301 398 266 C398 259 397 249 396 242 L462 242 L503 452 L437 452 C422 395 403 381 341 381 L282 381 L329 624 L433 624 C505 624 512 604 521 524 L595 524 L616 695 L117 695 L108 647 C150 646 167 637 167 606 C167 597 165 586 163 575 L74 117 C63 60 44 46 -10 46 L-18 0 L294 0 L302 46 C247 46 228 56 228 89 C228 97 229 107 231 118 L269 314 Z " />
<glyph glyph-name="G" unicode="G" horiz-adv-x="691" d="M340 54 C259 54 215 99 215 217 C215 448 295 635 441 635 C511 635 530 600 531 520 L636 520 L663 655 C619 685 552 706 457 706 C183 706 50 481 50 258 C50 84 142 -14 340 -14 C414 -14 505 6 565 40 L602 230 C613 287 632 301 681 302 L691 349 L395 349 L385 302 C438 301 456 292 456 261 C456 252 454 240 452 230 L422 74 C401 61 370 54 340 54 L340 54 Z " />
<glyph glyph-name="H" unicode="H" horiz-adv-x="750" d="M712 575 C723 632 742 646 795 647 L804 695 L509 695 L500 647 C553 646 566 632 555 575 L519 394 L284 394 L320 575 C331 632 350 646 403 647 L412 695 L117 695 L108 647 C161 646 174 632 163 575 L74 117 C63 60 44 46 -10 46 L-18 0 L278 0 L286 46 C233 46 220 60 231 117 L270 319 L505 319 L466 117 C455 60 436 46 383 46 L375 0 L670 0 L678 46 C625 46 612 60 623 117 L712 575 Z " />
<glyph glyph-name="I" unicode="I" horiz-adv-x="358" d="M320 575 C331 632 350 646 403 647 L412 695 L117 695 L108 647 C150 646 167 637 167 606 C167 597 165 585 163 575 L74 117 C63 60 44 46 -10 46 L-18 0 L278 0 L286 46 C233 46 220 60 231 117 L320 575 Z " />
<glyph glyph-name="J" unicode="J" horiz-adv-x="357" d="M321 575 C332 632 351 646 404 647 L413 695 L118 695 L109 647 C151 646 168 637 168 606 C168 599 166 584 164 575 L71 100 C49 -11 28 -65 -85 -100 L-70 -147 C109 -131 196 -67 228 95 L321 575 Z " />
<glyph glyph-name="K" unicode="K" horiz-adv-x="665" d="M602 576 C650 624 675 643 719 648 L728 695 L503 695 L494 648 C520 648 533 638 533 623 C533 613 528 602 514 587 L292 347 L427 0 L631 0 L639 46 C597 49 578 59 562 95 L431 401 L602 576 Z M320 575 C331 632 350 646 403 647 L412 695 L117 695 L108 647 C150 646 167 637 167 606 C167 597 165 586 163 575 L74 117 C63 60 44 46 -10 46 L-18 0 L278 0 L286 46 C244 46 227 55 227 86 C227 93 229 105 231 117 L320 575 Z " />
<glyph glyph-name="L" unicode="L" horiz-adv-x="561" d="M221 67 L320 575 C331 632 350 646 405 647 L413 695 L117 695 L108 647 C161 646 174 632 163 575 L74 117 C63 60 44 46 -10 46 L-18 0 L481 0 L533 192 L456 192 C419 96 379 67 314 67 L221 67 Z " />
<glyph glyph-name="M" unicode="M" horiz-adv-x="889" d="M928 695 L661 695 L488 333 C459 271 441 211 438 198 L432 198 C432 204 433 219 433 239 C433 266 432 296 428 342 L399 695 L141 695 L132 648 C180 645 197 636 197 612 C197 601 195 588 190 572 L66 124 C49 64 36 48 -22 46 L-30 0 L194 0 L203 46 C159 46 142 55 142 81 C142 91 145 103 149 118 L235 427 C248 474 262 550 265 569 L271 569 C271 562 270 542 270 517 C270 488 271 450 274 417 L312 0 L404 0 L621 434 C647 487 672 554 677 569 L683 569 C680 553 668 484 661 432 L618 117 C610 61 601 48 537 46 L529 0 L822 0 L830 46 C773 48 767 66 774 124 L831 572 C838 625 848 644 919 648 L928 695 Z " />
<glyph glyph-name="N" unicode="N" horiz-adv-x="698" d="M558 0 L669 575 C680 632 698 646 750 647 L758 695 L539 695 L530 647 C572 646 589 637 589 606 C589 597 587 586 585 575 L546 376 C531 299 524 232 523 217 L517 217 C516 233 507 296 480 358 L334 695 L117 695 L108 647 C150 646 167 637 167 606 C167 599 165 587 163 575 L74 117 C63 60 44 46 -10 46 L-18 0 L205 0 L213 46 C172 46 155 55 155 86 C155 95 157 107 159 117 L210 382 C218 422 229 517 232 553 L238 553 C239 541 247 480 289 386 L459 0 L558 0 Z " />
<glyph glyph-name="O" unicode="O" horiz-adv-x="703" d="M679 423 C679 605 574 706 409 706 C164 706 50 467 50 270 C50 104 141 -14 319 -14 C570 -14 679 219 679 423 L679 423 Z M513 472 C513 365 489 203 431 116 C403 73 370 53 318 53 C245 53 215 109 215 212 C215 324 238 477 298 573 C323 613 356 636 409 636 C487 636 513 581 513 472 L513 472 Z " />
<glyph glyph-name="P" unicode="P" horiz-adv-x="610" d="M260 267 L334 267 C397 267 452 273 497 293 C589 332 636 413 636 510 C636 644 556 695 399 695 L117 695 L108 647 C150 646 167 637 167 606 C167 599 165 587 163 575 L74 117 C63 60 44 46 -10 46 L-18 0 L294 0 L302 46 C247 46 228 56 228 89 C228 99 229 107 231 118 L260 267 Z M475 513 C475 446 454 396 422 369 C394 345 363 341 321 341 L274 341 L329 624 L376 624 C450 624 475 589 475 513 L475 513 Z " />
<glyph glyph-name="Q" unicode="Q" horiz-adv-x="703" d="M679 423 C679 605 574 706 410 706 C164 706 50 468 50 272 C50 184 74 110 124 58 C169 11 230 -1 281 -35 C356 -84 419 -153 518 -153 C550 -153 584 -148 602 -138 L646 -26 C620 -32 594 -34 566 -34 C502 -34 427 -16 385 -3 C588 32 679 238 679 423 L679 423 Z M513 472 C513 365 488 203 431 116 C398 66 365 53 317 53 C244 53 215 109 215 212 C215 324 238 477 298 573 C323 613 356 636 409 636 C487 636 513 581 513 472 L513 472 Z " />
<glyph glyph-name="R" unicode="R" horiz-adv-x="656" d="M329 624 L374 624 C445 624 475 598 475 526 C475 426 424 362 331 362 L279 362 L329 624 Z M265 292 C315 286 338 272 361 207 C386 136 400 87 424 0 L617 0 L625 46 C584 46 573 66 560 104 C540 164 527 201 506 237 C487 271 449 297 413 308 L413 312 C540 326 636 395 636 528 C636 643 553 695 408 695 L117 695 L108 647 C150 646 167 637 167 606 C167 597 165 585 163 575 L74 117 C63 60 44 46 -10 46 L-18 0 L278 0 L286 46 C244 46 227 55 227 86 C227 93 229 105 231 117 L265 292 Z " />
<glyph glyph-name="S" unicode="S" horiz-adv-x="537" d="M235 45 C153 45 125 92 125 177 L125 186 L23 186 L-2 48 C30 19 105 -14 226 -14 C388 -14 500 71 500 220 C500 328 440 373 358 409 L292 438 C245 459 211 486 211 541 C211 602 253 643 320 643 C392 643 420 603 420 525 L420 517 L518 517 L544 652 C516 671 456 706 334 706 C184 706 80 622 80 485 C80 393 128 338 201 305 L265 276 C328 248 354 220 354 161 C354 83 305 45 235 45 L235 45 Z " />
<glyph glyph-name="T" unicode="T" horiz-adv-x="615" d="M113 695 L68 509 L144 509 C178 594 191 624 257 624 L299 624 L201 117 C190 60 170 46 109 46 L101 0 L413 0 L422 46 C374 46 355 55 355 87 C355 95 356 104 359 117 L457 624 L500 624 C561 624 564 596 568 509 L643 509 L670 695 L113 695 Z " />
<glyph glyph-name="U" unicode="U" horiz-adv-x="685" d="M353 68 C273 68 238 100 237 168 C237 191 240 219 246 251 L309 575 C320 632 339 646 393 647 L401 695 L106 695 L97 647 C149 646 163 632 152 575 L91 261 C85 227 82 197 82 170 C84 54 160 -14 327 -14 C482 -14 561 69 592 226 L659 575 C670 632 689 646 740 647 L749 695 L529 695 L520 647 C563 646 580 637 580 607 C580 598 579 590 576 575 L510 231 C489 121 440 68 353 68 L353 68 Z " />
<glyph glyph-name="V" unicode="V" horiz-adv-x="662" d="M295 588 C291 626 308 646 362 647 L371 695 L88 695 L79 647 C117 642 126 632 133 581 L215 0 L341 0 L648 582 C676 635 692 641 735 647 L745 695 L522 695 L513 647 C550 646 567 637 567 619 C567 611 563 600 557 588 L396 267 C363 201 346 158 343 149 L337 149 C337 160 334 236 331 265 L295 588 Z " />
<glyph glyph-name="W" unicode="W" horiz-adv-x="927" d="M635 695 L518 695 L351 288 C326 228 305 159 301 143 L295 143 C296 158 299 218 299 268 L299 286 L290 590 L290 593 C290 630 308 646 358 647 L367 695 L88 695 L79 647 C117 642 129 634 132 581 L160 0 L309 0 L455 337 C479 393 498 459 502 474 L508 474 C507 463 505 428 505 384 C505 367 505 346 506 329 L523 0 L670 0 L914 577 C936 629 956 641 1001 647 L1009 695 L786 695 L778 647 C815 646 832 639 832 616 C832 607 829 597 824 583 L709 289 C684 226 664 159 660 144 L654 144 C655 154 655 183 655 218 C655 240 655 266 654 287 L635 695 Z " />
<glyph glyph-name="X" unicode="X" horiz-adv-x="671" d="M602 584 C640 629 663 642 703 647 L711 695 L493 695 L484 647 C512 646 525 639 525 625 C525 615 521 605 505 584 L396 446 L390 446 L334 588 C330 598 328 607 328 614 C328 635 345 646 384 647 L393 695 L113 695 L103 647 C136 642 150 632 170 586 L271 348 L81 115 C41 65 17 51 -23 46 L-31 0 L190 0 L198 46 C153 47 135 65 173 114 L300 275 L305 275 L373 109 C377 99 379 91 379 81 C379 59 361 46 323 46 L315 0 L606 0 L614 46 C575 51 559 65 539 111 L424 378 L602 584 Z " />
<glyph glyph-name="Y" unicode="Y" horiz-adv-x="627" d="M207 117 C197 60 177 46 116 46 L108 0 L420 0 L428 46 C367 46 354 60 365 117 L393 263 L612 585 C645 633 660 642 701 647 L709 695 L492 695 L483 647 C514 646 528 638 528 621 C528 610 523 599 514 584 L366 345 L361 345 L302 583 C292 621 300 646 350 647 L359 695 L88 695 L79 647 C113 642 128 634 142 583 L235 261 L207 117 Z " />
<glyph glyph-name="Z" unicode="Z" horiz-adv-x="571" d="M-23 0 L490 0 L538 190 L463 190 C425 100 393 67 316 67 L178 67 L608 639 L619 695 L135 695 L90 517 L168 517 C203 595 232 630 299 630 L420 630 L-13 56 L-23 0 Z " />
<glyph glyph-name="bracketleft" unicode="&#x5b;" horiz-adv-x="373" d="M263 -155 L274 -99 L168 -99 L327 717 L433 717 L444 773 L199 773 L18 -155 L263 -155 Z " />
<glyph glyph-name="backslash" unicode="&#x5c;" horiz-adv-x="438" d="M379 -149 L206 761 L116 761 L289 -149 L379 -149 Z " />
<glyph glyph-name="bracketright" unicode="&#x5d;" horiz-adv-x="373" d="M128 773 L117 717 L223 717 L64 -99 L-42 -99 L-53 -155 L192 -155 L373 773 L128 773 Z " />
<glyph glyph-name="asciicircum" unicode="&#x5e;" horiz-adv-x="556" d="M513 310 L401 708 L305 708 L39 310 L144 310 L333 601 L413 310 L513 310 Z " />
<glyph glyph-name="underscore" unicode="&#x5f;" horiz-adv-x="496" d="M438 -125 L438 -52 L-62 -52 L-62 -125 L438 -125 Z " />
<glyph glyph-name="grave" unicode="&#x60;" horiz-adv-x="472" d="M360 593 L172 779 L95 654 L335 558 L360 593 Z " />
<glyph glyph-name="a" unicode="a" horiz-adv-x="579" d="M344 522 C176 522 25 333 25 131 C25 39 70 -13 149 -13 C225 -13 283 37 325 103 C325 102 324 94 324 89 C324 25 351 -9 416 -9 C464 -9 505 3 546 26 L543 67 C532 66 522 65 514 65 C481 65 468 74 468 99 C468 109 470 122 474 138 L528 378 C541 434 557 480 571 510 L481 510 C467 498 452 484 441 465 C432 499 399 522 344 522 L344 522 Z M347 450 C371 450 386 443 396 429 L342 201 C302 139 253 81 214 81 C189 81 175 102 175 152 C175 291 254 450 347 450 L347 450 Z " />
<glyph glyph-name="b" unicode="b" horiz-adv-x="582" d="M261 -14 C435 -14 557 157 557 353 C557 465 506 521 431 521 C352 521 292 467 250 401 L286 561 C297 612 301 652 301 680 C301 705 298 721 295 730 L282 730 L97 704 L87 659 C128 658 146 647 146 612 C146 601 144 588 141 572 L50 143 C38 85 24 34 10 0 L104 0 C115 10 130 31 137 48 C152 14 191 -14 261 -14 L261 -14 Z M237 56 C209 56 190 68 183 82 L233 318 C266 369 314 416 352 416 C378 416 398 400 398 343 C398 216 342 56 237 56 L237 56 Z " />
<glyph glyph-name="c" unicode="c" horiz-adv-x="475" d="M333 522 C144 522 32 348 32 192 C32 61 103 -14 225 -14 C326 -14 387 29 425 75 L393 121 C356 93 325 73 272 73 C213 73 183 110 183 183 C183 325 238 458 317 458 C353 458 361 433 361 388 L361 371 L461 371 L482 480 C458 500 410 522 333 522 L333 522 Z " />
<glyph glyph-name="d" unicode="d" horiz-adv-x="595" d="M351 201 C312 139 263 81 216 81 C191 81 175 102 175 154 C175 301 259 450 354 450 C376 450 390 444 401 432 L351 201 Z M337 103 C337 102 336 90 336 85 C336 28 363 -9 427 -9 C474 -9 514 3 558 26 L555 67 C543 66 534 65 525 65 C493 65 481 73 481 99 C481 109 483 122 486 138 L577 561 C588 611 591 650 591 678 C591 703 588 721 585 730 L572 730 L389 704 L378 659 C420 658 438 647 438 612 C438 601 436 588 433 572 L419 506 C403 516 381 522 353 522 C183 522 25 339 25 132 C25 39 74 -13 153 -13 C229 -13 296 37 337 103 L337 103 Z " />
<glyph glyph-name="e" unicode="e" horiz-adv-x="515" d="M180 172 C180 188 180 197 182 216 L206 216 C362 216 503 255 503 384 C503 482 432 522 330 522 C162 522 32 363 32 184 C32 59 96 -14 227 -14 C317 -14 394 24 450 89 L419 132 C372 90 327 74 272 74 C209 74 180 112 180 172 L180 172 Z M367 403 C367 318 309 277 197 277 L193 277 C214 384 263 457 321 457 C349 457 367 436 367 403 L367 403 Z " />
<glyph glyph-name="f" unicode="f" horiz-adv-x="351" d="M169 -34 L263 436 L369 436 L400 509 L278 509 L299 611 C309 658 326 670 348 670 C375 670 381 651 381 614 L471 614 L488 709 C457 724 406 733 357 733 C255 733 170 678 146 573 L131 508 L65 486 L53 436 L116 436 L25 -27 C10 -106 -11 -128 -95 -133 L-95 -171 C-77 -180 -54 -188 -14 -188 C80 -188 148 -136 169 -34 L169 -34 Z " />
<glyph glyph-name="g" unicode="g" horiz-adv-x="528" d="M178 -202 C328 -202 458 -148 458 -8 C458 84 394 110 308 119 L187 132 C167 134 163 143 163 155 C163 173 191 186 221 194 C230 194 238 193 247 193 C419 193 479 274 479 347 C479 386 466 415 447 431 C468 421 487 420 509 420 C536 420 558 423 586 439 L554 535 C524 511 492 496 455 496 C412 496 353 522 282 522 C149 522 52 451 52 337 C52 266 93 222 157 207 C81 188 29 150 29 88 C29 39 56 19 108 12 C123 10 164 6 230 0 C290 -5 321 -17 321 -56 C321 -112 275 -141 184 -141 C121 -141 89 -126 89 -84 C89 -58 98 -38 110 -22 L12 -24 C-16 -37 -46 -61 -46 -101 C-46 -172 33 -202 178 -202 L178 -202 Z M254 253 C221 253 194 274 194 322 C194 398 225 460 281 460 C318 460 341 439 341 392 C341 317 316 253 254 253 L254 253 Z " />
<glyph glyph-name="h" unicode="h" horiz-adv-x="579" d="M333 141 C328 119 325 99 325 81 C325 24 354 -9 419 -9 C465 -9 507 3 551 26 L548 67 C535 65 523 65 514 65 C484 65 472 73 472 97 C472 107 474 121 478 138 L533 375 C537 391 538 406 538 420 C538 479 507 522 439 522 C363 522 295 467 247 390 L285 561 C296 611 299 650 299 678 C299 703 296 721 293 730 L280 730 L96 704 L85 659 C127 658 145 647 145 612 C145 601 143 588 140 572 L16 0 L162 0 L226 294 C266 354 315 404 355 404 C376 404 384 393 384 374 C384 367 383 358 381 349 L333 141 Z " />
<glyph glyph-name="i" unicode="i" horiz-adv-x="300" d="M251 380 C256 401 258 418 258 434 C258 490 228 515 172 515 C123 515 76 498 45 482 L36 443 C85 443 107 429 107 394 C107 385 105 371 101 356 L48 141 C43 119 40 99 40 81 C40 23 69 -9 133 -9 C181 -9 223 3 268 26 L264 67 C251 66 241 65 229 65 C201 65 188 74 188 97 C188 108 191 121 195 138 L251 380 Z M304 655 C304 701 267 739 221 739 C173 739 135 701 135 655 C135 609 173 572 219 572 C266 572 304 609 304 655 L304 655 Z " />
<glyph glyph-name="j" unicode="j" horiz-adv-x="284" d="M175 -4 L254 380 C258 400 260 417 260 432 C260 491 231 515 174 515 C126 515 78 498 47 482 L38 443 C88 443 108 429 108 393 C108 383 106 371 103 356 L35 14 C14 -91 -10 -121 -96 -149 L-80 -204 C77 -176 151 -125 175 -4 L175 -4 Z M306 655 C306 701 270 739 223 739 C175 739 137 701 137 655 C137 609 175 572 221 572 C268 572 306 609 306 655 L306 655 Z " />
<glyph glyph-name="k" unicode="k" horiz-adv-x="544" d="M283 561 C294 612 298 652 298 680 C298 705 295 721 292 730 L279 730 L95 704 L84 659 C125 658 144 646 144 611 C144 600 142 587 139 572 L16 0 L162 0 L283 561 Z M285 92 C309 15 338 -8 402 -8 C439 -8 485 4 523 28 L519 66 C503 64 498 64 490 64 C453 64 442 80 425 128 L358 317 L406 368 C459 426 516 466 562 466 L571 509 L428 509 L230 269 L285 92 Z " />
<glyph glyph-name="l" unicode="l" horiz-adv-x="298" d="M280 561 C291 612 295 649 295 680 C295 705 292 721 289 730 L276 730 L91 704 L81 659 C122 658 140 647 140 612 C140 601 138 588 135 572 L42 141 C37 119 35 97 35 83 C35 24 63 -9 129 -9 C176 -9 219 3 263 26 L259 67 C246 66 235 65 226 65 C194 65 183 74 183 97 C183 107 185 121 189 138 L280 561 Z " />
<glyph glyph-name="m" unicode="m" horiz-adv-x="860" d="M701 -9 C747 -9 788 3 832 26 L829 67 C822 66 805 65 796 65 C765 65 753 73 753 97 C753 107 755 121 759 138 L814 375 C818 391 819 406 819 420 C819 479 788 522 720 522 C645 522 582 460 533 386 C534 395 535 405 535 412 C535 473 504 522 437 522 C361 522 302 465 251 383 C253 397 254 409 254 421 C254 488 225 515 178 515 C129 515 86 499 52 482 L43 443 C93 442 112 428 112 395 C112 387 111 379 109 369 L30 0 L175 0 L238 294 C276 351 322 401 356 401 C377 401 386 390 386 371 C386 363 385 354 383 345 L310 0 L456 0 L517 296 C556 352 601 401 635 401 C656 401 665 390 665 370 C665 363 664 355 662 346 L614 141 C609 119 606 99 606 81 C606 23 636 -9 701 -9 L701 -9 Z " />
<glyph glyph-name="n" unicode="n" horiz-adv-x="591" d="M345 141 C340 119 337 99 337 81 C337 23 366 -9 432 -9 C477 -9 519 3 563 26 L560 67 C547 66 536 65 527 65 C496 65 485 74 485 97 C485 108 487 121 491 138 L545 375 C549 391 550 406 550 420 C550 479 519 522 451 522 C370 522 302 465 251 383 C253 397 254 409 254 421 C254 488 225 515 178 515 C129 515 86 499 52 482 L43 443 C93 442 112 428 112 395 C112 387 111 379 109 369 L30 0 L175 0 L238 294 C278 354 327 404 367 404 C389 404 397 392 397 373 C397 366 396 358 394 349 L345 141 Z " />
<glyph glyph-name="o" unicode="o" horiz-adv-x="552" d="M527 314 C527 452 441 522 317 522 C131 522 31 357 31 191 C31 67 111 -14 238 -14 C433 -14 527 145 527 314 L527 314 Z M376 364 C376 273 352 167 323 111 C301 61 272 49 243 49 C200 49 181 79 181 134 C181 221 203 326 231 391 C253 440 279 457 313 457 C357 457 376 427 376 364 L376 364 Z " />
<glyph glyph-name="p" unicode="p" horiz-adv-x="595" d="M246 318 C279 370 327 416 365 416 C392 416 411 400 411 343 C411 221 355 47 242 47 C217 47 202 56 194 70 L246 318 Z M178 -4 C194 -11 215 -14 245 -14 C433 -14 570 159 570 366 C570 465 519 521 444 521 C365 521 301 464 258 397 C259 404 259 411 259 418 C259 487 226 515 178 515 C129 515 86 499 52 482 L44 443 C94 442 112 428 112 396 C112 388 111 379 109 369 L13 -81 C1 -138 -11 -150 -62 -151 L-72 -196 L200 -196 L211 -151 C171 -150 156 -143 156 -116 C156 -104 158 -95 161 -81 L178 -4 Z " />
<glyph glyph-name="q" unicode="q" horiz-adv-x="573" d="M280 -81 C266 -136 254 -150 200 -151 L189 -196 L463 -196 L474 -151 C436 -150 422 -143 422 -117 C422 -108 424 -96 427 -81 L532 378 C545 434 561 480 575 510 L485 510 C471 498 456 484 445 465 C436 499 403 522 348 522 C180 522 23 333 23 131 C23 39 70 -13 149 -13 C224 -13 285 37 327 103 L280 -81 Z M351 450 C375 450 390 443 400 429 L346 201 C306 139 257 81 214 81 C189 81 174 102 174 152 C174 297 256 450 351 450 L351 450 Z " />
<glyph glyph-name="r" unicode="r" horiz-adv-x="420" d="M30 0 L175 0 L220 210 C247 340 296 372 362 372 C383 372 397 369 417 361 L453 512 C437 520 425 522 407 522 C341 522 284 457 247 373 C249 388 250 401 250 413 C250 480 224 515 178 515 C129 515 86 499 52 482 L43 443 C93 442 112 428 112 395 C112 387 111 379 109 369 L30 0 Z " />
<glyph glyph-name="s" unicode="s" horiz-adv-x="456" d="M177 -14 C322 -14 410 57 410 170 C410 250 369 291 282 320 L238 335 C200 348 180 364 180 392 C180 436 217 460 261 460 C316 460 334 428 335 377 L423 377 L441 483 C410 500 359 522 276 522 C156 522 61 461 61 345 C61 265 105 225 174 202 L217 187 C258 172 282 157 282 120 C282 65 239 50 190 50 C132 50 110 80 110 136 L110 140 L19 140 L2 32 C28 13 80 -14 177 -14 L177 -14 Z " />
<glyph glyph-name="t" unicode="t" horiz-adv-x="356" d="M391 509 L272 509 C284 560 303 624 317 659 L220 651 C181 619 152 559 133 509 L62 486 L52 436 L111 436 L53 161 C47 133 44 111 44 90 C44 26 85 -14 170 -14 C221 -14 275 0 317 29 L309 76 C287 68 261 63 243 63 C206 63 192 79 192 114 C192 128 194 143 198 163 L256 436 L362 436 L391 509 Z " />
<glyph glyph-name="u" unicode="u" horiz-adv-x="575" d="M325 99 C325 98 324 89 324 84 C324 24 353 -9 417 -9 C465 -9 507 3 548 26 L545 67 C534 66 525 65 517 65 C483 65 470 75 470 100 C470 110 472 123 475 138 L552 509 L409 509 L344 201 C309 145 263 91 222 91 C201 91 190 100 190 124 C190 133 191 143 194 156 L245 377 C249 394 252 415 252 430 C252 487 221 515 167 515 C117 515 72 498 40 482 L32 443 C80 443 100 430 100 394 C100 383 99 371 95 356 L44 140 C40 122 38 106 38 89 C38 27 71 -14 142 -14 C219 -14 280 30 325 99 L325 99 Z " />
<glyph glyph-name="v" unicode="v" horiz-adv-x="491" d="M120 -1 L235 -1 L510 459 L510 502 L382 516 C380 447 361 377 297 243 L239 122 L233 122 C234 128 236 148 236 177 C236 196 234 220 232 247 L217 412 C210 486 186 515 134 515 C93 515 42 500 16 484 L8 445 C73 445 76 426 83 360 L120 -1 Z " />
<glyph glyph-name="w" unicode="w" horiz-adv-x="765" d="M117 -2 L235 -2 L389 338 L393 338 C392 331 390 305 390 278 C390 259 391 234 393 211 L411 -2 L520 -2 L784 459 L784 502 L657 516 C655 447 643 379 585 254 L531 140 L525 140 C525 143 526 155 526 163 C526 185 525 222 520 272 L499 509 L390 509 L235 140 L229 140 C230 146 234 170 234 207 C234 224 233 244 231 266 L216 412 C209 486 186 515 134 515 C93 515 42 500 16 484 L8 445 C73 445 77 427 84 350 L117 -2 Z " />
<glyph glyph-name="x" unicode="x" horiz-adv-x="518" d="M192 251 L99 135 C52 75 25 58 -25 49 L-34 0 L99 0 L216 180 L247 76 C266 12 292 -9 349 -9 C391 -9 446 7 477 21 L471 63 C460 62 450 61 442 61 C403 61 392 76 377 121 L326 270 L419 386 C456 432 491 459 540 464 L549 509 L411 509 L302 342 L270 444 C254 498 230 515 177 515 C127 515 88 502 61 489 L54 450 C107 450 123 443 143 387 L192 251 Z " />
<glyph glyph-name="y" unicode="y" horiz-adv-x="492" d="M182 13 C139 -73 50 -93 -43 -109 L12 -207 C114 -191 190 -135 257 -11 L511 459 L511 502 L383 516 C382 450 372 362 286 186 L243 98 L237 98 C239 111 243 136 243 179 C243 205 241 236 237 271 L223 381 C211 476 196 515 133 515 C85 515 42 498 15 485 L8 445 C58 445 71 437 81 368 L101 224 C114 134 119 67 121 10 L182 13 Z " />
<glyph glyph-name="z" unicode="z" horiz-adv-x="481" d="M492 444 L506 509 L453 509 C425 480 412 471 387 471 C342 471 286 516 208 516 C118 516 70 451 59 330 L105 321 C122 374 155 386 195 386 C228 386 265 380 332 378 L-4 64 L-16 0 L41 0 C59 22 80 33 112 33 C183 33 210 -13 301 -13 C378 -13 427 22 454 173 L414 185 C388 130 365 118 313 118 C285 118 250 127 198 127 C182 127 164 126 144 124 L492 444 Z " />
<glyph glyph-name="braceleft" unicode="&#x7b;" horiz-adv-x="388" d="M28 284 C88 284 119 266 119 220 C119 212 118 203 116 193 L75 -15 C72 -30 70 -45 70 -58 C70 -119 104 -155 187 -155 L281 -155 L292 -105 L260 -105 C214 -105 200 -78 200 -45 C200 -34 202 -22 204 -10 L240 178 C243 192 244 204 244 215 C244 283 199 303 174 307 L175 311 C206 316 272 341 292 442 L328 628 C337 676 358 723 421 723 L452 723 L462 773 L368 773 C271 773 219 719 202 634 L161 424 C148 357 107 333 37 333 L28 284 Z " />
<glyph glyph-name="bar" unicode="&#x7c;" horiz-adv-x="265" d="M103 -149 L279 761 L191 761 L15 -149 L103 -149 Z " />
<glyph glyph-name="braceright" unicode="&#x7d;" horiz-adv-x="398" d="M380 334 C320 334 289 352 289 398 C289 406 290 415 292 425 L333 633 C336 648 338 663 338 676 C338 737 304 773 221 773 L126 773 L116 723 L147 723 C194 723 208 696 208 663 C208 652 206 640 204 628 L167 440 C164 426 163 414 163 403 C163 335 208 315 233 311 L232 307 C201 302 135 277 116 176 L80 -10 C70 -59 49 -105 -14 -105 L-44 -105 L-55 -155 L40 -155 C137 -155 189 -101 206 -15 L247 194 C260 261 300 285 370 285 L380 334 Z " />
<glyph glyph-name="asciitilde" unicode="&#x7e;" horiz-adv-x="577" d="M383 342 C327 342 265 379 201 379 C143 379 89 312 74 231 L109 214 C130 252 160 269 194 269 C243 269 312 234 376 234 C433 234 487 297 509 376 L471 394 C452 356 415 342 383 342 L383 342 Z " />
<glyph glyph-name="uni00A0" unicode="&#xa0;" horiz-adv-x="225" d="" />
<glyph glyph-name="exclamdown" unicode="&#xa1;" horiz-adv-x="307" d="M-36 -193 L153 -177 L209 288 L116 288 L-36 -193 Z M93 429 C93 380 135 339 185 339 C235 339 276 380 276 429 C276 481 235 522 185 522 C135 522 93 481 93 429 L93 429 Z " />
<glyph glyph-name="cent" unicode="&#xa2;" horiz-adv-x="511" d="M182 -101 L237 -101 L254 -12 C341 -4 399 36 435 78 L403 122 C362 90 322 70 270 69 L347 459 C374 451 382 427 382 378 L382 368 L476 368 L497 477 C475 494 425 517 359 521 L376 605 L321 605 L304 520 C129 502 25 339 25 192 C25 70 90 -3 199 -13 L182 -101 Z M167 183 C167 313 221 429 291 456 L218 80 C186 96 167 132 167 183 L167 183 Z " />
<glyph glyph-name="sterling" unicode="&#xa3;" horiz-adv-x="594" d="M38 307 L117 307 L80 117 C69 60 43 46 -17 46 L-26 0 L493 0 L544 192 L467 192 C430 96 391 67 325 67 L227 67 L274 307 L452 307 L464 367 L285 367 L309 490 C326 576 356 617 410 617 C457 617 467 586 467 524 L467 515 L571 515 L594 630 C564 656 511 680 427 680 C288 680 177 618 146 457 L129 367 L50 367 L38 307 Z " />
<glyph glyph-name="currency" unicode="&#xa4;" horiz-adv-x="496" d="M76 31 L142 112 C163 104 187 101 212 101 C236 101 256 103 278 109 L314 30 L380 68 L346 142 C401 178 443 247 443 329 C443 370 430 402 407 427 L467 499 L416 538 L352 461 C332 468 309 472 285 472 C258 472 235 470 212 461 L177 539 L111 500 L146 426 C92 388 54 321 54 243 C54 202 66 170 89 146 L25 70 L76 31 Z M271 409 C316 409 336 382 336 334 C336 271 313 161 223 161 C179 161 160 190 160 242 C160 334 196 409 271 409 L271 409 Z " />
<glyph glyph-name="yen" unicode="&#xa5;" horiz-adv-x="624" d="M67 319 L205 319 L222 261 L221 253 L55 253 L43 197 L210 197 L195 117 C185 60 165 46 104 46 L96 0 L408 0 L416 46 C355 46 342 60 353 117 L368 197 L550 197 L561 253 L378 253 L381 263 L419 319 L573 319 L585 375 L457 375 L601 586 C634 634 650 642 689 647 L697 695 L480 695 L471 647 C521 646 527 624 502 584 L354 345 L349 345 L289 583 C287 592 286 600 286 607 C286 631 299 646 338 647 L347 695 L76 695 L67 647 C101 642 116 634 130 583 L190 375 L78 375 L67 319 Z " />
<glyph glyph-name="brokenbar" unicode="&#xa6;" horiz-adv-x="266" d="M202 356 L280 757 L192 757 L114 356 L202 356 Z M103 -150 L181 251 L93 251 L15 -150 L103 -150 Z " />
<glyph glyph-name="section" unicode="&#xa7;" horiz-adv-x="493" d="M20 266 C20 189 60 143 135 108 L216 70 C256 51 274 34 274 0 C274 -51 235 -69 184 -69 C125 -69 105 -38 105 17 L105 21 L14 21 L-4 -86 C23 -106 75 -133 176 -133 C317 -133 401 -56 401 42 C401 106 376 144 324 175 C414 200 477 255 477 351 C477 424 443 472 356 512 L274 550 C239 566 223 584 223 609 C223 653 259 676 303 676 C358 676 376 643 377 594 L465 594 L483 700 C452 717 402 739 311 739 C198 739 106 679 106 570 C106 507 132 470 173 442 C79 414 20 358 20 266 L20 266 Z M137 314 C137 360 173 396 233 412 L283 390 C324 372 349 348 349 298 C349 247 313 218 262 205 L197 235 C161 251 137 279 137 314 L137 314 Z " />
<glyph glyph-name="dieresis" unicode="&#xa8;" horiz-adv-x="534" d="M238 646 C238 692 202 727 157 727 C111 727 73 692 73 646 C73 602 110 566 155 566 C201 566 238 602 238 646 L238 646 Z M461 646 C461 692 425 727 380 727 C334 727 296 692 296 646 C296 602 333 566 378 566 C424 566 461 602 461 646 L461 646 Z " />
<glyph glyph-name="copyright" unicode="&#xa9;" horiz-adv-x="801" d="M335 355 C335 452 350 511 420 511 C466 511 475 483 480 439 L560 439 L560 521 C534 537 486 554 419 554 C277 554 209 479 209 346 C209 213 279 143 422 143 C489 143 536 160 563 175 L563 258 L489 258 C482 211 466 192 422 192 C353 192 335 259 335 355 L335 355 Z M411 31 C243 31 110 153 110 343 C110 537 243 657 411 657 C579 657 712 537 712 343 C712 153 579 31 411 31 L411 31 Z M411 -12 C613 -12 767 128 767 344 C767 558 607 701 411 701 C215 701 55 558 55 344 C55 128 209 -12 411 -12 L411 -12 Z " />
<glyph glyph-name="ordfeminine" unicode="&#xaa;" horiz-adv-x="476" d="M310 742 C178 742 61 607 61 450 C61 377 97 338 158 338 C218 338 264 376 296 426 C296 425 295 417 295 413 C295 367 321 341 370 341 C407 341 444 349 476 368 L473 399 C464 398 456 397 449 397 C426 397 416 404 416 423 C416 431 417 440 420 452 L461 633 C471 675 483 710 494 732 L413 732 C402 724 392 713 384 699 C377 725 353 742 310 742 L310 742 Z M313 687 C329 687 341 683 349 672 L309 500 C280 453 244 410 216 410 C198 410 187 425 187 463 C187 568 245 687 313 687 L313 687 Z " />
<glyph glyph-name="guillemotleft" unicode="&#xab;" horiz-adv-x="599" d="M183 250 L328 437 L287 479 L33 252 L208 23 L259 62 L183 250 Z M424 250 L569 437 L528 479 L274 252 L449 23 L500 62 L424 250 Z " />
<glyph glyph-name="logicalnot" unicode="&#xac;" horiz-adv-x="512" d="M52 228 L367 228 L337 69 L417 69 L462 301 L66 301 L52 228 Z " />
<glyph glyph-name="uni00AD" unicode="&#xad;" horiz-adv-x="354" d="M291 222 L314 337 L62 337 L39 222 L291 222 Z " />
<glyph glyph-name="registered" unicode="&#xae;" horiz-adv-x="801" d="M231 150 L419 150 L419 185 C377 185 374 197 374 241 L374 324 C400 323 406 311 432 250 C444 222 462 187 475 150 L608 150 L608 185 C575 185 571 190 557 219 C543 250 532 269 522 285 C506 315 481 327 453 332 L453 335 C520 339 566 358 566 440 C566 524 505 548 413 548 L231 548 L231 511 C273 511 275 498 275 455 L275 241 C275 198 273 185 231 185 L231 150 Z M374 363 L374 502 L391 502 C447 502 462 486 462 436 C462 380 447 363 401 363 L374 363 Z M411 31 C243 31 110 153 110 343 C110 537 243 657 411 657 C579 657 712 537 712 343 C712 153 579 31 411 31 L411 31 Z M411 -12 C613 -12 767 128 767 344 C767 558 607 701 411 701 C215 701 55 558 55 344 C55 128 209 -12 411 -12 L411 -12 Z " />
<glyph glyph-name="macron" unicode="&#xaf;" horiz-adv-x="448" d="M367 601 L383 679 L81 679 L65 601 L367 601 Z " />
<glyph glyph-name="degree" unicode="&#xb0;" horiz-adv-x="383" d="M398 549 C398 641 340 696 247 696 C139 696 67 620 67 501 C67 411 126 357 216 357 C332 357 398 450 398 549 L398 549 Z M222 425 C175 425 151 445 151 507 C151 581 185 629 242 629 C288 629 313 608 313 550 C313 480 285 425 222 425 L222 425 Z " />
<glyph glyph-name="plusminus" unicode="&#xb1;" horiz-adv-x="567" d="M302 507 L275 365 L114 365 L99 292 L260 292 L231 141 L311 141 L340 292 L498 292 L512 365 L355 365 L382 507 L302 507 Z M47 24 L446 24 L460 98 L61 98 L47 24 Z " />
<glyph glyph-name="twosuperior" unicode="&#xb2;" horiz-adv-x="359" d="M226 661 C151 661 93 628 56 584 L79 547 C107 572 142 586 176 586 C216 586 238 570 238 534 C238 476 196 441 112 382 L20 318 L11 250 L310 250 L337 333 L113 333 L163 357 C276 413 358 458 358 556 C358 625 303 661 226 661 L226 661 Z " />
<glyph glyph-name="threesuperior" unicode="&#xb3;" horiz-adv-x="338" d="M162 598 C193 598 215 584 215 553 C215 509 186 486 138 486 C127 486 117 486 108 487 L98 433 C109 434 116 435 132 435 C169 435 191 419 191 378 C191 308 128 281 51 281 C35 281 5 284 -11 288 L-5 244 C14 236 44 230 82 230 C192 230 311 267 311 375 C311 424 273 460 212 463 C277 472 326 510 326 573 C326 630 275 661 205 661 C144 661 93 637 61 600 L84 566 C110 587 132 598 162 598 L162 598 Z " />
<glyph glyph-name="acute" unicode="&#xb4;" horiz-adv-x="472" d="M109 593 L135 558 L375 654 L297 779 L109 593 Z " />
<glyph glyph-name="mu" unicode="&#xb5;" horiz-adv-x="590" d="M-24 -205 L129 -180 L145 -114 C151 -90 155 -67 155 -46 C155 -22 151 0 145 20 L149 22 C159 -3 176 -13 209 -13 C262 -13 314 30 348 103 C347 91 346 79 347 69 C350 19 373 -9 431 -9 C479 -9 521 3 562 26 L559 67 C549 66 536 65 530 65 C497 65 484 75 484 100 C484 109 486 123 490 142 L567 509 L423 509 L358 201 C323 145 277 91 236 91 C215 91 203 101 203 126 C203 136 205 148 209 162 L259 377 C263 397 266 416 266 430 C266 489 235 515 181 515 C131 515 86 498 54 482 L45 443 C94 443 115 429 115 394 C115 385 113 371 109 356 L30 11 C14 -58 -1 -121 -24 -175 L-24 -205 Z " />
<glyph glyph-name="paragraph" unicode="&#xb6;" horiz-adv-x="677" d="M721 695 L329 695 C154 695 63 605 63 446 C63 343 131 285 262 285 L335 285 L256 -119 L329 -119 L475 634 L557 634 L410 -119 L483 -119 L617 574 C628 631 645 648 712 650 L721 695 Z M403 634 L347 347 L313 347 C265 347 248 376 248 434 C248 561 288 634 364 634 L403 634 Z " />
<glyph glyph-name="periodcentered" unicode="&#xb7;" horiz-adv-x="294" d="M243 289 C243 340 201 382 150 382 C98 382 57 340 57 289 C57 237 98 195 150 195 C201 195 243 237 243 289 L243 289 Z " />
<glyph glyph-name="cedilla" unicode="&#xb8;" horiz-adv-x="361" d="M288 -119 C288 -74 257 -45 193 -41 L216 10 L172 16 L131 -77 L130 -98 C165 -99 191 -107 191 -130 C191 -152 177 -158 155 -158 C133 -158 111 -154 89 -140 L72 -179 C91 -192 124 -204 170 -204 C244 -204 288 -179 288 -119 L288 -119 Z " />
<glyph glyph-name="onesuperior" unicode="&#xb9;" horiz-adv-x="326" d="M299 653 L215 653 L62 578 L72 537 C101 542 137 554 162 568 L112 338 C104 301 94 292 23 287 L16 250 L292 250 L298 287 C246 289 230 299 230 321 C230 326 231 333 232 338 L299 653 Z " />
<glyph glyph-name="ordmasculine" unicode="&#xba;" horiz-adv-x="448" d="M453 585 C453 689 386 741 288 741 C143 741 65 617 65 492 C65 398 127 338 227 338 C380 338 453 457 453 585 L453 585 Z M329 622 C329 553 310 475 290 433 C272 395 253 386 232 386 C201 386 188 409 188 449 C188 515 204 593 225 642 C240 678 259 691 284 691 C316 691 329 668 329 622 L329 622 Z " />
<glyph glyph-name="guillemotright" unicode="&#xbb;" horiz-adv-x="599" d="M416 253 L271 66 L312 23 L566 251 L391 479 L340 440 L416 253 Z M71 23 L325 251 L150 479 L100 440 L175 253 L30 66 L71 23 Z " />
<glyph glyph-name="onequarter" unicode="&#xbc;" horiz-adv-x="950" d="M722 -22 L839 -11 L857 90 L909 90 L920 144 L868 144 L902 305 L825 297 C793 259 770 210 755 144 L642 144 L858 403 L750 403 L553 136 L544 90 L745 90 L722 -22 Z M809 730 L737 730 L125 -123 L198 -123 L809 730 Z M299 653 L215 653 L62 578 L72 537 C101 542 137 554 162 568 L112 338 C104 301 94 292 23 287 L16 250 L292 250 L298 287 C246 289 230 299 230 321 C230 326 231 333 232 338 L299 653 Z " />
<glyph glyph-name="onehalf" unicode="&#xbd;" horiz-adv-x="975" d="M796 411 C721 411 663 378 626 334 L650 297 C678 322 713 336 746 336 C786 336 808 320 808 284 C808 226 766 191 682 132 L590 68 L581 0 L880 0 L908 83 L683 83 L733 107 C846 163 929 208 929 306 C929 375 874 411 796 411 L796 411 Z M802 730 L730 730 L118 -123 L191 -123 L802 730 Z M299 653 L215 653 L62 578 L72 537 C101 542 137 554 162 568 L112 338 C104 301 94 292 23 287 L16 250 L292 250 L298 287 C246 289 230 299 230 321 C230 326 231 333 232 338 L299 653 Z " />
<glyph glyph-name="threequarters" unicode="&#xbe;" horiz-adv-x="938" d="M695 -22 L812 -11 L830 90 L882 90 L893 144 L841 144 L875 305 L798 297 C766 259 743 210 728 144 L615 144 L831 403 L723 403 L526 136 L517 90 L718 90 L695 -22 Z M162 598 C193 598 215 584 215 553 C215 509 186 486 138 486 C127 486 117 486 108 487 L98 433 C109 434 116 435 132 435 C169 435 191 419 191 378 C191 308 128 281 51 281 C35 281 5 284 -11 288 L-5 244 C14 236 44 230 82 230 C192 230 311 267 311 375 C311 424 273 460 212 463 C277 472 326 510 326 573 C326 630 275 661 205 661 C144 661 93 637 61 600 L84 566 C110 587 132 598 162 598 L162 598 Z M793 730 L721 730 L109 -123 L182 -123 L793 730 Z " />
<glyph glyph-name="questiondown" unicode="&#xbf;" horiz-adv-x="479" d="M203 428 C203 378 246 337 297 337 C347 337 389 378 389 428 C389 480 347 522 297 522 C246 522 203 480 203 428 L203 428 Z M193 -198 C267 -198 328 -180 377 -154 L403 -33 L300 -33 C283 -95 266 -128 210 -128 C167 -128 150 -103 150 -63 C150 3 179 32 233 71 C287 110 336 159 336 225 C336 254 327 276 319 287 L255 287 L255 272 C255 205 227 180 144 136 C68 97 -4 44 -4 -56 C-4 -154 72 -198 193 -198 L193 -198 Z " />
<glyph glyph-name="Agrave" unicode="&#xc0;" horiz-adv-x="648" d="M394 101 C395 92 395 91 395 87 C395 59 382 48 328 46 L320 0 L604 0 L613 46 C574 51 565 63 557 113 L470 695 L345 695 L45 113 C17 60 -1 51 -45 46 L-53 0 L168 0 L177 46 C138 47 122 56 122 74 C122 83 126 93 132 107 L171 187 L384 187 L394 101 Z M301 452 C327 505 340 537 342 543 L348 543 L348 528 C348 516 348 483 353 444 L374 261 L207 261 L301 452 Z M519 760 L314 925 L249 795 L496 723 L519 760 Z " />
<glyph glyph-name="Aacute" unicode="&#xc1;" horiz-adv-x="648" d="M394 101 C395 92 395 91 395 87 C395 59 382 48 328 46 L320 0 L604 0 L613 46 C574 51 565 63 557 113 L470 695 L345 695 L45 113 C17 60 -1 51 -45 46 L-53 0 L168 0 L177 46 C138 47 122 56 122 74 C122 83 126 93 132 107 L171 187 L384 187 L394 101 Z M301 452 C327 505 340 537 342 543 L348 543 L348 528 C348 516 348 483 353 444 L374 261 L207 261 L301 452 Z M292 760 L315 723 L562 795 L497 925 L292 760 Z " />
<glyph glyph-name="Acircumflex" unicode="&#xc2;" horiz-adv-x="648" d="M394 101 C395 92 395 91 395 87 C395 59 382 48 328 46 L320 0 L604 0 L613 46 C574 51 565 63 557 113 L470 695 L345 695 L45 113 C17 60 -1 51 -45 46 L-53 0 L168 0 L177 46 C138 47 122 56 122 74 C122 83 126 93 132 107 L171 187 L384 187 L394 101 Z M301 452 C327 505 340 537 342 543 L348 543 L348 528 C348 516 348 483 353 444 L374 261 L207 261 L301 452 Z M423 808 L557 729 L582 761 L446 940 L236 766 L257 730 L423 808 Z " />
<glyph glyph-name="Atilde" unicode="&#xc3;" horiz-adv-x="648" d="M394 101 C395 92 395 91 395 87 C395 59 382 48 328 46 L320 0 L604 0 L613 46 C574 51 565 63 557 113 L470 695 L345 695 L45 113 C17 60 -1 51 -45 46 L-53 0 L168 0 L177 46 C138 47 122 56 122 74 C122 83 126 93 132 107 L171 187 L384 187 L394 101 Z M301 452 C327 505 340 537 342 543 L348 543 L348 528 C348 516 348 483 353 444 L374 261 L207 261 L301 452 Z M491 857 C441 857 412 895 352 895 C293 895 251 832 240 761 L275 745 C294 779 315 794 348 794 C392 794 425 758 487 758 C544 758 585 816 603 887 L565 903 C547 868 522 857 491 857 L491 857 Z " />
<glyph glyph-name="Adieresis" unicode="&#xc4;" horiz-adv-x="648" d="M394 101 C395 92 395 91 395 87 C395 59 382 48 328 46 L320 0 L604 0 L613 46 C574 51 565 63 557 113 L470 695 L345 695 L45 113 C17 60 -1 51 -45 46 L-53 0 L168 0 L177 46 C138 47 122 56 122 74 C122 83 126 93 132 107 L171 187 L384 187 L394 101 Z M301 452 C327 505 340 537 342 543 L348 543 L348 528 C348 516 348 483 353 444 L374 261 L207 261 L301 452 Z M390 817 C390 862 355 898 309 898 C263 898 226 862 226 817 C226 773 263 737 308 737 C354 737 390 773 390 817 L390 817 Z M613 817 C613 862 578 898 532 898 C486 898 449 862 449 817 C449 773 486 737 531 737 C577 737 613 773 613 817 L613 817 Z " />
<glyph glyph-name="Aring" unicode="&#xc5;" horiz-adv-x="648" d="M394 101 C395 92 395 91 395 87 C395 59 382 48 328 46 L320 0 L604 0 L613 46 C574 51 565 63 557 113 L470 695 L345 695 L45 113 C17 60 -1 51 -45 46 L-53 0 L168 0 L177 46 C138 47 122 56 122 74 C122 83 126 93 132 107 L171 187 L384 187 L394 101 Z M301 452 C327 505 340 537 342 543 L348 543 L348 528 C348 516 348 483 353 444 L374 261 L207 261 L301 452 Z M417 729 C492 729 540 779 540 850 C540 911 499 961 430 961 C356 961 305 910 305 839 C305 778 348 729 417 729 L417 729 Z M425 907 C458 907 478 882 478 848 C478 812 454 785 417 785 C385 785 367 808 367 841 C367 879 389 907 425 907 L425 907 Z " />
<glyph glyph-name="AE" unicode="&#xc6;" horiz-adv-x="932" d="M-53 0 L168 0 L177 46 C142 47 128 55 128 70 C128 80 134 92 145 107 L237 235 L436 235 L413 117 C402 60 383 46 329 46 L321 0 L845 0 L880 183 L804 183 C778 90 749 67 683 67 L560 67 L609 319 L670 319 C722 319 740 307 740 271 C740 264 739 256 738 248 L804 248 L845 457 L779 457 C763 400 745 386 683 386 L622 386 L668 624 L776 624 C846 624 853 602 861 526 L935 526 L956 695 L360 695 L351 647 C387 646 408 637 408 617 C408 607 403 596 392 581 L58 113 C23 64 -1 51 -45 46 L-53 0 Z M519 624 L525 624 C519 609 494 535 472 422 L450 310 L292 310 L519 624 Z " />
<glyph glyph-name="Ccedilla" unicode="&#xc7;" horiz-adv-x="617" d="M381 -119 C381 -74 350 -45 286 -41 L298 -13 C305 -14 311 -14 318 -14 C406 -14 501 9 547 39 L574 177 L466 177 C438 95 401 56 329 56 C257 56 215 94 215 218 C215 433 287 636 431 636 C495 636 507 597 509 520 L616 520 L643 655 C600 686 538 706 447 706 C191 706 50 489 50 258 C50 108 114 12 253 -9 L224 -77 L223 -98 C258 -99 284 -107 284 -130 C284 -152 270 -158 248 -158 C226 -158 204 -154 182 -140 L165 -179 C184 -192 217 -204 263 -204 C337 -204 381 -179 381 -119 L381 -119 Z " />
<glyph glyph-name="Egrave" unicode="&#xc8;" horiz-adv-x="593" d="M502 760 L297 925 L232 795 L479 723 L502 760 Z M-18 0 L506 0 L541 183 L465 183 C439 90 410 67 344 67 L221 67 L270 319 L332 319 C384 319 401 307 401 271 C401 266 400 255 399 248 L465 248 L506 457 L440 457 C425 400 406 386 344 386 L283 386 L329 624 L437 624 C508 624 514 602 522 526 L596 526 L617 695 L117 695 L108 647 C150 646 167 637 167 606 C167 597 165 585 163 575 L74 117 C63 60 44 46 -10 46 L-18 0 Z " />
<glyph glyph-name="Eacute" unicode="&#xc9;" horiz-adv-x="593" d="M277 760 L300 723 L547 795 L482 925 L277 760 Z M-18 0 L506 0 L541 183 L465 183 C439 90 410 67 344 67 L221 67 L270 319 L332 319 C384 319 401 307 401 271 C401 266 400 255 399 248 L465 248 L506 457 L440 457 C425 400 406 386 344 386 L283 386 L329 624 L437 624 C508 624 514 602 522 526 L596 526 L617 695 L117 695 L108 647 C150 646 167 637 167 606 C167 597 165 585 163 575 L74 117 C63 60 44 46 -10 46 L-18 0 Z " />
<glyph glyph-name="Ecircumflex" unicode="&#xca;" horiz-adv-x="593" d="M400 808 L534 729 L559 761 L423 940 L213 766 L234 730 L400 808 Z M-18 0 L506 0 L541 183 L465 183 C439 90 410 67 344 67 L221 67 L270 319 L332 319 C384 319 401 307 401 271 C401 266 400 255 399 248 L465 248 L506 457 L440 457 C425 400 406 386 344 386 L283 386 L329 624 L437 624 C508 624 514 602 522 526 L596 526 L617 695 L117 695 L108 647 C150 646 167 637 167 606 C167 597 165 585 163 575 L74 117 C63 60 44 46 -10 46 L-18 0 Z " />
<glyph glyph-name="Edieresis" unicode="&#xcb;" horiz-adv-x="593" d="M-18 0 L506 0 L541 183 L465 183 C439 90 410 67 344 67 L221 67 L270 319 L332 319 C384 319 401 307 401 271 C401 266 400 255 399 248 L465 248 L506 457 L440 457 C425 400 406 386 344 386 L283 386 L329 624 L437 624 C508 624 514 602 522 526 L596 526 L617 695 L117 695 L108 647 C150 646 167 637 167 606 C167 597 165 585 163 575 L74 117 C63 60 44 46 -10 46 L-18 0 Z M365 817 C365 862 330 898 284 898 C238 898 201 862 201 817 C201 773 238 737 283 737 C329 737 365 773 365 817 L365 817 Z M588 817 C588 862 553 898 507 898 C461 898 424 862 424 817 C424 773 461 737 506 737 C552 737 588 773 588 817 L588 817 Z " />
<glyph glyph-name="Igrave" unicode="&#xcc;" horiz-adv-x="358" d="M320 575 C331 632 350 646 403 647 L412 695 L117 695 L108 647 C150 646 167 637 167 606 C167 597 165 585 163 575 L74 117 C63 60 44 46 -10 46 L-18 0 L278 0 L286 46 C233 46 220 60 231 117 L320 575 Z M390 760 L185 925 L120 795 L367 723 L390 760 Z " />
<glyph glyph-name="Iacute" unicode="&#xcd;" horiz-adv-x="358" d="M320 575 C331 632 350 646 403 647 L412 695 L117 695 L108 647 C150 646 167 637 167 606 C167 597 165 585 163 575 L74 117 C63 60 44 46 -10 46 L-18 0 L278 0 L286 46 C233 46 220 60 231 117 L320 575 Z M154 760 L177 723 L424 795 L359 925 L154 760 Z " />
<glyph glyph-name="Icircumflex" unicode="&#xce;" horiz-adv-x="358" d="M320 575 C331 632 350 646 403 647 L412 695 L117 695 L108 647 C150 646 167 637 167 606 C167 597 165 585 163 575 L74 117 C63 60 44 46 -10 46 L-18 0 L278 0 L286 46 C233 46 220 60 231 117 L320 575 Z M293 808 L427 729 L452 761 L316 940 L106 766 L127 730 L293 808 Z " />
<glyph glyph-name="Idieresis" unicode="&#xcf;" horiz-adv-x="358" d="M320 575 C331 632 350 646 403 647 L412 695 L117 695 L108 647 C150 646 167 637 167 606 C167 597 165 585 163 575 L74 117 C63 60 44 46 -10 46 L-18 0 L278 0 L286 46 C233 46 220 60 231 117 L320 575 Z M256 817 C256 862 221 898 175 898 C129 898 92 862 92 817 C92 773 129 737 174 737 C220 737 256 773 256 817 L256 817 Z M479 817 C479 862 444 898 398 898 C352 898 315 862 315 817 C315 773 352 737 397 737 C443 737 479 773 479 817 L479 817 Z " />
<glyph glyph-name="Eth" unicode="&#xd0;" horiz-adv-x="697" d="M-18 0 L294 0 C403 0 491 24 552 88 C629 169 672 286 672 435 C672 607 575 695 394 695 L117 695 L108 647 C150 646 167 637 167 606 C167 597 165 587 163 575 L127 393 L55 393 L40 320 L113 320 L74 117 C63 60 44 46 -10 46 L-18 0 Z M377 625 C481 625 506 578 506 468 C506 337 472 198 428 134 C388 76 336 67 270 67 L222 67 L271 320 L393 320 L409 393 L285 393 L330 625 L377 625 Z " />
<glyph glyph-name="Ntilde" unicode="&#xd1;" horiz-adv-x="698" d="M533 857 C483 857 454 895 394 895 C335 895 293 832 282 761 L317 745 C336 779 357 794 390 794 C434 794 467 758 529 758 C586 758 627 816 645 887 L607 903 C589 868 564 857 533 857 L533 857 Z M558 0 L669 575 C680 632 698 646 750 647 L758 695 L539 695 L530 647 C572 646 589 637 589 606 C589 597 587 586 585 575 L546 376 C531 299 524 232 523 217 L517 217 C516 233 507 296 480 358 L334 695 L117 695 L108 647 C150 646 167 637 167 606 C167 599 165 587 163 575 L74 117 C63 60 44 46 -10 46 L-18 0 L205 0 L213 46 C172 46 155 55 155 86 C155 95 157 107 159 117 L210 382 C218 422 229 517 232 553 L238 553 C239 541 247 480 289 386 L459 0 L558 0 Z " />
<glyph glyph-name="Ograve" unicode="&#xd2;" horiz-adv-x="703" d="M547 760 L342 925 L277 795 L524 723 L547 760 Z M679 423 C679 605 574 706 409 706 C164 706 50 467 50 270 C50 104 141 -14 319 -14 C570 -14 679 219 679 423 L679 423 Z M513 472 C513 365 489 203 431 116 C403 73 370 53 318 53 C245 53 215 109 215 212 C215 324 238 477 298 573 C323 613 356 636 409 636 C487 636 513 581 513 472 L513 472 Z " />
<glyph glyph-name="Oacute" unicode="&#xd3;" horiz-adv-x="703" d="M309 760 L332 723 L579 795 L514 925 L309 760 Z M679 423 C679 605 574 706 409 706 C164 706 50 467 50 270 C50 104 141 -14 319 -14 C570 -14 679 219 679 423 L679 423 Z M513 472 C513 365 489 203 431 116 C403 73 370 53 318 53 C245 53 215 109 215 212 C215 324 238 477 298 573 C323 613 356 636 409 636 C487 636 513 581 513 472 L513 472 Z " />
<glyph glyph-name="Ocircumflex" unicode="&#xd4;" horiz-adv-x="703" d="M446 808 L580 729 L605 761 L469 940 L259 766 L280 730 L446 808 Z M679 423 C679 605 574 706 409 706 C164 706 50 467 50 270 C50 104 141 -14 319 -14 C570 -14 679 219 679 423 L679 423 Z M513 472 C513 365 489 203 431 116 C403 73 370 53 318 53 C245 53 215 109 215 212 C215 324 238 477 298 573 C323 613 356 636 409 636 C487 636 513 581 513 472 L513 472 Z " />
<glyph glyph-name="Otilde" unicode="&#xd5;" horiz-adv-x="703" d="M504 857 C454 857 425 895 365 895 C306 895 264 832 253 761 L288 745 C307 779 328 794 361 794 C405 794 438 758 500 758 C557 758 598 816 616 887 L578 903 C560 868 535 857 504 857 L504 857 Z M679 423 C679 605 574 706 409 706 C164 706 50 467 50 270 C50 104 141 -14 319 -14 C570 -14 679 219 679 423 L679 423 Z M513 472 C513 365 489 203 431 116 C403 73 370 53 318 53 C245 53 215 109 215 212 C215 324 238 477 298 573 C323 613 356 636 409 636 C487 636 513 581 513 472 L513 472 Z " />
<glyph glyph-name="Odieresis" unicode="&#xd6;" horiz-adv-x="703" d="M406 817 C406 862 371 898 325 898 C279 898 242 862 242 817 C242 773 279 737 324 737 C370 737 406 773 406 817 L406 817 Z M629 817 C629 862 594 898 548 898 C502 898 465 862 465 817 C465 773 502 737 547 737 C593 737 629 773 629 817 L629 817 Z M679 423 C679 605 574 706 409 706 C164 706 50 467 50 270 C50 104 141 -14 319 -14 C570 -14 679 219 679 423 L679 423 Z M513 472 C513 365 489 203 431 116 C403 73 370 53 318 53 C245 53 215 109 215 212 C215 324 238 477 298 573 C323 613 356 636 409 636 C487 636 513 581 513 472 L513 472 Z " />
<glyph glyph-name="multiply" unicode="&#xd7;" horiz-adv-x="570" d="M115 427 L238 273 L52 118 L92 67 L279 223 L403 69 L461 118 L336 270 L520 424 L478 475 L295 322 L171 475 L115 427 Z " />
<glyph glyph-name="Oslash" unicode="&#xd8;" horiz-adv-x="703" d="M679 423 C679 507 655 575 611 624 L673 704 L628 736 L570 660 C527 690 472 706 409 706 C164 706 50 467 50 270 C50 191 72 120 117 69 L52 -16 L96 -47 L157 32 C199 3 253 -14 319 -14 C570 -14 679 219 679 423 L679 423 Z M517 472 C517 365 492 203 434 116 C405 73 370 53 318 53 C270 53 239 75 223 118 L516 500 C516 491 517 482 517 472 L517 472 Z M210 212 C210 324 235 477 295 573 C321 613 356 636 409 636 C458 636 488 615 503 573 L210 191 L210 212 Z " />
<glyph glyph-name="Ugrave" unicode="&#xd9;" horiz-adv-x="685" d="M577 760 L372 925 L307 795 L554 723 L577 760 Z M353 68 C273 68 238 100 237 168 C237 191 240 219 246 251 L309 575 C320 632 339 646 393 647 L401 695 L106 695 L97 647 C149 646 163 632 152 575 L91 261 C85 227 82 197 82 170 C84 54 160 -14 327 -14 C482 -14 561 69 592 226 L659 575 C670 632 689 646 740 647 L749 695 L529 695 L520 647 C563 646 580 637 580 607 C580 598 579 590 576 575 L510 231 C489 121 440 68 353 68 L353 68 Z " />
<glyph glyph-name="Uacute" unicode="&#xda;" horiz-adv-x="685" d="M344 760 L367 723 L614 795 L549 925 L344 760 Z M353 68 C273 68 238 100 237 168 C237 191 240 219 246 251 L309 575 C320 632 339 646 393 647 L401 695 L106 695 L97 647 C149 646 163 632 152 575 L91 261 C85 227 82 197 82 170 C84 54 160 -14 327 -14 C482 -14 561 69 592 226 L659 575 C670 632 689 646 740 647 L749 695 L529 695 L520 647 C563 646 580 637 580 607 C580 598 579 590 576 575 L510 231 C489 121 440 68 353 68 L353 68 Z " />
<glyph glyph-name="Ucircumflex" unicode="&#xdb;" horiz-adv-x="685" d="M483 808 L617 729 L642 761 L506 940 L296 766 L317 730 L483 808 Z M353 68 C273 68 238 100 237 168 C237 191 240 219 246 251 L309 575 C320 632 339 646 393 647 L401 695 L106 695 L97 647 C149 646 163 632 152 575 L91 261 C85 227 82 197 82 170 C84 54 160 -14 327 -14 C482 -14 561 69 592 226 L659 575 C670 632 689 646 740 647 L749 695 L529 695 L520 647 C563 646 580 637 580 607 C580 598 579 590 576 575 L510 231 C489 121 440 68 353 68 L353 68 Z " />
<glyph glyph-name="Udieresis" unicode="&#xdc;" horiz-adv-x="685" d="M353 68 C273 68 238 100 237 168 C237 191 240 219 246 251 L309 575 C320 632 339 646 393 647 L401 695 L106 695 L97 647 C149 646 163 632 152 575 L91 261 C85 227 82 197 82 170 C84 54 160 -14 327 -14 C482 -14 561 69 592 226 L659 575 C670 632 689 646 740 647 L749 695 L529 695 L520 647 C563 646 580 637 580 607 C580 598 579 590 576 575 L510 231 C489 121 440 68 353 68 L353 68 Z M433 817 C433 862 398 898 352 898 C306 898 269 862 269 817 C269 773 306 737 351 737 C397 737 433 773 433 817 L433 817 Z M656 817 C656 862 621 898 575 898 C529 898 492 862 492 817 C492 773 529 737 574 737 C620 737 656 773 656 817 L656 817 Z " />
<glyph glyph-name="Yacute" unicode="&#xdd;" horiz-adv-x="627" d="M207 117 C197 60 177 46 116 46 L108 0 L420 0 L428 46 C367 46 354 60 365 117 L393 263 L612 585 C645 633 660 642 701 647 L709 695 L492 695 L483 647 C514 646 528 638 528 621 C528 610 523 599 514 584 L366 345 L361 345 L302 583 C292 621 300 646 350 647 L359 695 L88 695 L79 647 C113 642 128 634 142 583 L235 261 L207 117 Z M306 760 L329 723 L576 795 L511 925 L306 760 Z " />
<glyph glyph-name="Thorn" unicode="&#xde;" horiz-adv-x="602" d="M451 388 C451 327 431 280 399 255 C372 233 341 233 300 233 L254 233 L302 485 L352 485 C426 485 451 453 451 388 L451 388 Z M320 575 C331 632 350 646 403 647 L412 695 L117 695 L108 647 C150 646 167 637 167 606 C167 597 165 586 163 575 L74 117 C63 60 44 46 -10 46 L-18 0 L294 0 L302 46 C247 46 228 56 228 89 C228 97 229 107 231 118 L239 160 L313 160 C374 160 427 166 474 185 C567 223 612 295 612 386 C612 509 532 555 376 555 L316 555 L320 575 Z " />
<glyph glyph-name="germandbls" unicode="&#xdf;" horiz-adv-x="600" d="M116 436 L25 -27 C10 -106 -11 -128 -95 -133 L-95 -171 C-77 -180 -54 -188 -14 -188 C80 -188 148 -135 168 -38 L289 557 C308 649 346 675 395 675 C445 675 460 644 460 598 C460 542 421 497 371 463 C327 433 316 419 316 397 C316 376 326 363 354 329 C406 265 418 220 418 161 C418 99 387 57 332 57 C297 57 277 66 251 85 L224 44 C253 11 295 -13 360 -13 C470 -13 568 56 568 173 C568 262 519 322 431 377 C407 392 399 398 399 406 C399 418 408 423 432 433 C508 464 588 514 588 601 C588 683 518 733 405 733 C269 733 168 670 141 547 L132 508 L65 486 L53 436 L116 436 Z " />
<glyph glyph-name="agrave" unicode="&#xe0;" horiz-adv-x="579" d="M344 522 C176 522 25 333 25 131 C25 39 70 -13 149 -13 C225 -13 283 37 325 103 C325 102 324 94 324 89 C324 25 351 -9 416 -9 C464 -9 505 3 546 26 L543 67 C532 66 522 65 514 65 C481 65 468 74 468 99 C468 109 470 122 474 138 L528 378 C541 434 557 480 571 510 L481 510 C467 498 452 484 441 465 C432 499 399 522 344 522 L344 522 Z M347 450 C371 450 386 443 396 429 L342 201 C302 139 253 81 214 81 C189 81 175 102 175 152 C175 291 254 450 347 450 L347 450 Z M491 593 L303 779 L226 654 L466 558 L491 593 Z " />
<glyph glyph-name="aacute" unicode="&#xe1;" horiz-adv-x="579" d="M344 522 C176 522 25 333 25 131 C25 39 70 -13 149 -13 C225 -13 283 37 325 103 C325 102 324 94 324 89 C324 25 351 -9 416 -9 C464 -9 505 3 546 26 L543 67 C532 66 522 65 514 65 C481 65 468 74 468 99 C468 109 470 122 474 138 L528 378 C541 434 557 480 571 510 L481 510 C467 498 452 484 441 465 C432 499 399 522 344 522 L344 522 Z M347 450 C371 450 386 443 396 429 L342 201 C302 139 253 81 214 81 C189 81 175 102 175 152 C175 291 254 450 347 450 L347 450 Z M256 593 L282 558 L522 654 L444 779 L256 593 Z " />
<glyph glyph-name="acircumflex" unicode="&#xe2;" horiz-adv-x="579" d="M344 522 C176 522 25 333 25 131 C25 39 70 -13 149 -13 C225 -13 283 37 325 103 C325 102 324 94 324 89 C324 25 351 -9 416 -9 C464 -9 505 3 546 26 L543 67 C532 66 522 65 514 65 C481 65 468 74 468 99 C468 109 470 122 474 138 L528 378 C541 434 557 480 571 510 L481 510 C467 498 452 484 441 465 C432 499 399 522 344 522 L344 522 Z M347 450 C371 450 386 443 396 429 L342 201 C302 139 253 81 214 81 C189 81 175 102 175 152 C175 291 254 450 347 450 L347 450 Z M400 635 L534 556 L559 588 L423 767 L213 593 L235 557 L400 635 Z " />
<glyph glyph-name="atilde" unicode="&#xe3;" horiz-adv-x="579" d="M344 522 C176 522 25 333 25 131 C25 39 70 -13 149 -13 C225 -13 283 37 325 103 C325 102 324 94 324 89 C324 25 351 -9 416 -9 C464 -9 505 3 546 26 L543 67 C532 66 522 65 514 65 C481 65 468 74 468 99 C468 109 470 122 474 138 L528 378 C541 434 557 480 571 510 L481 510 C467 498 452 484 441 465 C432 499 399 522 344 522 L344 522 Z M347 450 C371 450 386 443 396 429 L342 201 C302 139 253 81 214 81 C189 81 175 102 175 152 C175 291 254 450 347 450 L347 450 Z M454 686 C407 686 376 720 320 720 C262 720 221 655 210 584 L245 568 C263 602 284 616 315 616 C357 616 393 585 450 585 C506 585 546 644 564 715 L526 731 C509 697 484 686 454 686 L454 686 Z " />
<glyph glyph-name="adieresis" unicode="&#xe4;" horiz-adv-x="579" d="M344 522 C176 522 25 333 25 131 C25 39 70 -13 149 -13 C225 -13 283 37 325 103 C325 102 324 94 324 89 C324 25 351 -9 416 -9 C464 -9 505 3 546 26 L543 67 C532 66 522 65 514 65 C481 65 468 74 468 99 C468 109 470 122 474 138 L528 378 C541 434 557 480 571 510 L481 510 C467 498 452 484 441 465 C432 499 399 522 344 522 L344 522 Z M347 450 C371 450 386 443 396 429 L342 201 C302 139 253 81 214 81 C189 81 175 102 175 152 C175 291 254 450 347 450 L347 450 Z M355 646 C355 692 319 727 274 727 C228 727 190 692 190 646 C190 602 227 566 272 566 C318 566 355 602 355 646 L355 646 Z M578 646 C578 692 542 727 497 727 C451 727 413 692 413 646 C413 602 450 566 495 566 C541 566 578 602 578 646 L578 646 Z " />
<glyph glyph-name="aring" unicode="&#xe5;" horiz-adv-x="579" d="M344 522 C176 522 25 333 25 131 C25 39 70 -13 149 -13 C225 -13 283 37 325 103 C325 102 324 94 324 89 C324 25 351 -9 416 -9 C464 -9 505 3 546 26 L543 67 C532 66 522 65 514 65 C481 65 468 74 468 99 C468 109 470 122 474 138 L528 378 C541 434 557 480 571 510 L481 510 C467 498 452 484 441 465 C432 499 399 522 344 522 L344 522 Z M347 450 C371 450 386 443 396 429 L342 201 C302 139 253 81 214 81 C189 81 175 102 175 152 C175 291 254 450 347 450 L347 450 Z M376 562 C452 562 500 612 500 683 C500 744 458 794 389 794 C315 794 264 743 264 672 C264 611 307 562 376 562 L376 562 Z M385 740 C418 740 438 715 438 681 C438 645 413 618 377 618 C344 618 326 641 326 675 C326 712 349 740 385 740 L385 740 Z " />
<glyph glyph-name="ae" unicode="&#xe6;" horiz-adv-x="794" d="M458 172 C458 188 459 212 461 223 L490 223 C646 223 782 256 782 384 C782 482 710 522 608 522 C552 522 493 502 447 465 C422 505 371 522 306 522 C227 522 164 506 112 479 L93 376 L197 376 C212 431 236 455 290 455 C327 455 343 438 343 397 C343 381 341 362 336 338 L327 293 L300 293 C142 293 24 250 24 123 C24 35 81 -14 171 -14 C252 -14 305 28 337 70 C368 16 424 -14 505 -14 C595 -14 672 24 728 89 L697 132 C650 90 606 74 550 74 C488 74 458 112 458 172 L458 172 Z M231 75 C192 75 173 98 173 142 C173 215 229 232 300 232 L315 232 C312 218 311 196 311 184 C311 157 313 138 318 116 C292 91 267 75 231 75 L231 75 Z M646 403 C646 318 588 286 476 286 L471 286 C493 393 541 457 599 457 C627 457 646 436 646 403 L646 403 Z " />
<glyph glyph-name="ccedilla" unicode="&#xe7;" horiz-adv-x="475" d="M285 -119 C285 -74 254 -45 190 -41 L202 -13 C210 -13 217 -14 225 -14 C326 -14 387 29 425 75 L393 121 C356 93 325 73 272 73 C213 73 183 110 183 183 C183 325 238 458 317 458 C353 458 361 433 361 388 L361 371 L461 371 L482 480 C458 500 410 522 333 522 C144 522 32 348 32 192 C32 86 78 17 159 -5 L128 -77 L127 -98 C162 -99 188 -107 188 -130 C188 -152 174 -158 152 -158 C130 -158 108 -154 86 -140 L69 -179 C88 -192 121 -204 167 -204 C241 -204 285 -179 285 -119 L285 -119 Z " />
<glyph glyph-name="egrave" unicode="&#xe8;" horiz-adv-x="515" d="M180 172 C180 188 180 197 182 216 L206 216 C362 216 503 255 503 384 C503 482 432 522 330 522 C162 522 32 363 32 184 C32 59 96 -14 227 -14 C317 -14 394 24 450 89 L419 132 C372 90 327 74 272 74 C209 74 180 112 180 172 L180 172 Z M367 403 C367 318 309 277 197 277 L193 277 C214 384 263 457 321 457 C349 457 367 436 367 403 L367 403 Z M464 593 L276 779 L199 654 L439 558 L464 593 Z " />
<glyph glyph-name="eacute" unicode="&#xe9;" horiz-adv-x="515" d="M226 593 L252 558 L492 654 L414 779 L226 593 Z M180 172 C180 188 180 197 182 216 L206 216 C362 216 503 255 503 384 C503 482 432 522 330 522 C162 522 32 363 32 184 C32 59 96 -14 227 -14 C317 -14 394 24 450 89 L419 132 C372 90 327 74 272 74 C209 74 180 112 180 172 L180 172 Z M367 403 C367 318 309 277 197 277 L193 277 C214 384 263 457 321 457 C349 457 367 436 367 403 L367 403 Z " />
<glyph glyph-name="ecircumflex" unicode="&#xea;" horiz-adv-x="515" d="M357 635 L491 556 L516 588 L380 767 L170 593 L192 557 L357 635 Z M180 172 C180 188 180 197 182 216 L206 216 C362 216 503 255 503 384 C503 482 432 522 330 522 C162 522 32 363 32 184 C32 59 96 -14 227 -14 C317 -14 394 24 450 89 L419 132 C372 90 327 74 272 74 C209 74 180 112 180 172 L180 172 Z M367 403 C367 318 309 277 197 277 L193 277 C214 384 263 457 321 457 C349 457 367 436 367 403 L367 403 Z " />
<glyph glyph-name="edieresis" unicode="&#xeb;" horiz-adv-x="515" d="M315 646 C315 692 279 727 234 727 C188 727 150 692 150 646 C150 602 187 566 232 566 C278 566 315 602 315 646 L315 646 Z M538 646 C538 692 502 727 457 727 C411 727 373 692 373 646 C373 602 410 566 455 566 C501 566 538 602 538 646 L538 646 Z M180 172 C180 188 180 197 182 216 L206 216 C362 216 503 255 503 384 C503 482 432 522 330 522 C162 522 32 363 32 184 C32 59 96 -14 227 -14 C317 -14 394 24 450 89 L419 132 C372 90 327 74 272 74 C209 74 180 112 180 172 L180 172 Z M367 403 C367 318 309 277 197 277 L193 277 C214 384 263 457 321 457 C349 457 367 436 367 403 L367 403 Z " />
<glyph glyph-name="igrave" unicode="&#xec;" horiz-adv-x="300" d="M251 380 C256 401 258 418 258 434 C258 490 228 515 172 515 C123 515 76 498 45 482 L36 443 C85 443 107 429 107 394 C107 385 105 371 101 356 L48 141 C43 119 40 99 40 81 C40 23 69 -9 133 -9 C181 -9 223 3 268 26 L264 67 C251 66 241 65 229 65 C201 65 188 74 188 97 C188 108 191 121 195 138 L251 380 Z M316 593 L128 779 L51 654 L291 558 L316 593 Z " />
<glyph glyph-name="iacute" unicode="&#xed;" horiz-adv-x="300" d="M86 593 L112 558 L352 654 L274 779 L86 593 Z M251 380 C256 401 258 418 258 434 C258 490 228 515 172 515 C123 515 76 498 45 482 L36 443 C85 443 107 429 107 394 C107 385 105 371 101 356 L48 141 C43 119 40 99 40 81 C40 23 69 -9 133 -9 C181 -9 223 3 268 26 L264 67 C251 66 241 65 229 65 C201 65 188 74 188 97 C188 108 191 121 195 138 L251 380 Z " />
<glyph glyph-name="icircumflex" unicode="&#xee;" horiz-adv-x="300" d="M212 635 L346 556 L371 588 L235 767 L25 593 L47 557 L212 635 Z M251 380 C256 401 258 418 258 434 C258 490 228 515 172 515 C123 515 76 498 45 482 L36 443 C85 443 107 429 107 394 C107 385 105 371 101 356 L48 141 C43 119 40 99 40 81 C40 23 69 -9 133 -9 C181 -9 223 3 268 26 L264 67 C251 66 241 65 229 65 C201 65 188 74 188 97 C188 108 191 121 195 138 L251 380 Z " />
<glyph glyph-name="idieresis" unicode="&#xef;" horiz-adv-x="300" d="M171 646 C171 692 135 727 90 727 C44 727 6 692 6 646 C6 602 43 566 88 566 C134 566 171 602 171 646 L171 646 Z M394 646 C394 692 358 727 313 727 C267 727 229 692 229 646 C229 602 266 566 311 566 C357 566 394 602 394 646 L394 646 Z M251 380 C256 401 258 418 258 434 C258 490 228 515 172 515 C123 515 76 498 45 482 L36 443 C85 443 107 429 107 394 C107 385 105 371 101 356 L48 141 C43 119 40 99 40 81 C40 23 69 -9 133 -9 C181 -9 223 3 268 26 L264 67 C251 66 241 65 229 65 C201 65 188 74 188 97 C188 108 191 121 195 138 L251 380 Z " />
<glyph glyph-name="eth" unicode="&#xf0;" horiz-adv-x="552" d="M131 584 L151 536 L308 593 C329 568 344 539 356 505 C341 511 326 512 308 512 C131 512 31 357 31 191 C31 67 111 -14 238 -14 C433 -14 528 146 528 349 C528 466 489 562 411 630 L508 666 L488 714 L360 667 C309 698 247 719 173 731 L149 688 C195 675 234 657 266 633 L131 584 Z M377 358 C377 274 352 167 323 111 C301 61 272 49 243 49 C200 49 181 79 181 134 C181 221 202 320 230 385 C248 427 279 450 319 450 C341 450 358 444 371 437 C375 413 377 386 377 358 L377 358 Z " />
<glyph glyph-name="ntilde" unicode="&#xf1;" horiz-adv-x="591" d="M345 141 C340 119 337 99 337 81 C337 23 366 -9 432 -9 C477 -9 519 3 563 26 L560 67 C547 66 536 65 527 65 C496 65 485 74 485 97 C485 108 487 121 491 138 L545 375 C549 391 550 406 550 420 C550 479 519 522 451 522 C370 522 302 465 251 383 C253 397 254 409 254 421 C254 488 225 515 178 515 C129 515 86 499 52 482 L43 443 C93 442 112 428 112 395 C112 387 111 379 109 369 L30 0 L175 0 L238 294 C278 354 327 404 367 404 C389 404 397 392 397 373 C397 366 396 358 394 349 L345 141 Z M437 686 C390 686 359 720 303 720 C245 720 204 655 193 584 L228 568 C246 602 267 616 298 616 C340 616 376 585 433 585 C489 585 529 644 547 715 L509 731 C492 697 467 686 437 686 L437 686 Z " />
<glyph glyph-name="ograve" unicode="&#xf2;" horiz-adv-x="552" d="M527 314 C527 452 441 522 317 522 C131 522 31 357 31 191 C31 67 111 -14 238 -14 C433 -14 527 145 527 314 L527 314 Z M376 364 C376 273 352 167 323 111 C301 61 272 49 243 49 C200 49 181 79 181 134 C181 221 203 326 231 391 C253 440 279 457 313 457 C357 457 376 427 376 364 L376 364 Z M459 593 L271 779 L194 654 L434 558 L459 593 Z " />
<glyph glyph-name="oacute" unicode="&#xf3;" horiz-adv-x="552" d="M221 593 L247 558 L487 654 L409 779 L221 593 Z M527 314 C527 452 441 522 317 522 C131 522 31 357 31 191 C31 67 111 -14 238 -14 C433 -14 527 145 527 314 L527 314 Z M376 364 C376 273 352 167 323 111 C301 61 272 49 243 49 C200 49 181 79 181 134 C181 221 203 326 231 391 C253 440 279 457 313 457 C357 457 376 427 376 364 L376 364 Z " />
<glyph glyph-name="ocircumflex" unicode="&#xf4;" horiz-adv-x="552" d="M350 635 L484 556 L509 588 L373 767 L163 593 L185 557 L350 635 Z M527 314 C527 452 441 522 317 522 C131 522 31 357 31 191 C31 67 111 -14 238 -14 C433 -14 527 145 527 314 L527 314 Z M376 364 C376 273 352 167 323 111 C301 61 272 49 243 49 C200 49 181 79 181 134 C181 221 203 326 231 391 C253 440 279 457 313 457 C357 457 376 427 376 364 L376 364 Z " />
<glyph glyph-name="otilde" unicode="&#xf5;" horiz-adv-x="552" d="M527 314 C527 452 441 522 317 522 C131 522 31 357 31 191 C31 67 111 -14 238 -14 C433 -14 527 145 527 314 L527 314 Z M376 364 C376 273 352 167 323 111 C301 61 272 49 243 49 C200 49 181 79 181 134 C181 221 203 326 231 391 C253 440 279 457 313 457 C357 457 376 427 376 364 L376 364 Z M412 686 C365 686 334 720 278 720 C220 720 179 655 168 584 L203 568 C221 602 242 616 273 616 C315 616 351 585 408 585 C464 585 504 644 522 715 L484 731 C467 697 442 686 412 686 L412 686 Z " />
<glyph glyph-name="odieresis" unicode="&#xf6;" horiz-adv-x="552" d="M318 646 C318 692 282 727 237 727 C191 727 153 692 153 646 C153 602 190 566 235 566 C281 566 318 602 318 646 L318 646 Z M541 646 C541 692 505 727 460 727 C414 727 376 692 376 646 C376 602 413 566 458 566 C504 566 541 602 541 646 L541 646 Z M527 314 C527 452 441 522 317 522 C131 522 31 357 31 191 C31 67 111 -14 238 -14 C433 -14 527 145 527 314 L527 314 Z M376 364 C376 273 352 167 323 111 C301 61 272 49 243 49 C200 49 181 79 181 134 C181 221 203 326 231 391 C253 440 279 457 313 457 C357 457 376 427 376 364 L376 364 Z " />
<glyph glyph-name="divide" unicode="&#xf7;" horiz-adv-x="621" d="M52 236 L557 236 L571 306 L65 306 L52 236 Z M418 474 C418 512 386 545 347 545 C307 545 276 511 276 472 C276 430 307 399 347 399 C386 399 418 431 418 474 L418 474 Z M343 64 C343 103 310 135 272 135 C232 135 200 102 200 62 C200 21 232 -10 272 -10 C310 -10 343 22 343 64 L343 64 Z " />
<glyph glyph-name="oslash" unicode="&#xf8;" horiz-adv-x="552" d="M527 314 C527 377 509 427 477 461 L528 526 L489 555 L439 492 C405 512 364 522 317 522 C131 522 31 357 31 191 C31 130 50 79 85 43 L34 -22 L73 -51 L124 13 C155 -4 194 -14 238 -14 C433 -14 527 145 527 314 L527 314 Z M227 391 C248 440 279 457 313 457 C345 457 365 441 374 409 L177 160 C181 241 201 332 227 391 L227 391 Z M328 111 C304 62 273 49 243 49 C213 49 193 63 183 89 L378 336 C374 252 353 162 328 111 L328 111 Z " />
<glyph glyph-name="ugrave" unicode="&#xf9;" horiz-adv-x="575" d="M325 99 C325 98 324 89 324 84 C324 24 353 -9 417 -9 C465 -9 507 3 548 26 L545 67 C534 66 525 65 517 65 C483 65 470 75 470 100 C470 110 472 123 475 138 L552 509 L409 509 L344 201 C309 145 263 91 222 91 C201 91 190 100 190 124 C190 133 191 143 194 156 L245 377 C249 394 252 415 252 430 C252 487 221 515 167 515 C117 515 72 498 40 482 L32 443 C80 443 100 430 100 394 C100 383 99 371 95 356 L44 140 C40 122 38 106 38 89 C38 27 71 -14 142 -14 C219 -14 280 30 325 99 L325 99 Z M439 593 L251 779 L174 654 L414 558 L439 593 Z " />
<glyph glyph-name="uacute" unicode="&#xfa;" horiz-adv-x="575" d="M223 593 L249 558 L489 654 L411 779 L223 593 Z M325 99 C325 98 324 89 324 84 C324 24 353 -9 417 -9 C465 -9 507 3 548 26 L545 67 C534 66 525 65 517 65 C483 65 470 75 470 100 C470 110 472 123 475 138 L552 509 L409 509 L344 201 C309 145 263 91 222 91 C201 91 190 100 190 124 C190 133 191 143 194 156 L245 377 C249 394 252 415 252 430 C252 487 221 515 167 515 C117 515 72 498 40 482 L32 443 C80 443 100 430 100 394 C100 383 99 371 95 356 L44 140 C40 122 38 106 38 89 C38 27 71 -14 142 -14 C219 -14 280 30 325 99 L325 99 Z " />
<glyph glyph-name="ucircumflex" unicode="&#xfb;" horiz-adv-x="575" d="M360 635 L494 556 L519 588 L383 767 L173 593 L195 557 L360 635 Z M325 99 C325 98 324 89 324 84 C324 24 353 -9 417 -9 C465 -9 507 3 548 26 L545 67 C534 66 525 65 517 65 C483 65 470 75 470 100 C470 110 472 123 475 138 L552 509 L409 509 L344 201 C309 145 263 91 222 91 C201 91 190 100 190 124 C190 133 191 143 194 156 L245 377 C249 394 252 415 252 430 C252 487 221 515 167 515 C117 515 72 498 40 482 L32 443 C80 443 100 430 100 394 C100 383 99 371 95 356 L44 140 C40 122 38 106 38 89 C38 27 71 -14 142 -14 C219 -14 280 30 325 99 L325 99 Z " />
<glyph glyph-name="udieresis" unicode="&#xfc;" horiz-adv-x="575" d="M312 646 C312 692 276 727 231 727 C185 727 147 692 147 646 C147 602 184 566 229 566 C275 566 312 602 312 646 L312 646 Z M535 646 C535 692 499 727 454 727 C408 727 370 692 370 646 C370 602 407 566 452 566 C498 566 535 602 535 646 L535 646 Z M325 99 C325 98 324 89 324 84 C324 24 353 -9 417 -9 C465 -9 507 3 548 26 L545 67 C534 66 525 65 517 65 C483 65 470 75 470 100 C470 110 472 123 475 138 L552 509 L409 509 L344 201 C309 145 263 91 222 91 C201 91 190 100 190 124 C190 133 191 143 194 156 L245 377 C249 394 252 415 252 430 C252 487 221 515 167 515 C117 515 72 498 40 482 L32 443 C80 443 100 430 100 394 C100 383 99 371 95 356 L44 140 C40 122 38 106 38 89 C38 27 71 -14 142 -14 C219 -14 280 30 325 99 L325 99 Z " />
<glyph glyph-name="yacute" unicode="&#xfd;" horiz-adv-x="492" d="M182 13 C139 -73 50 -93 -43 -109 L12 -207 C114 -191 190 -135 257 -11 L511 459 L511 502 L383 516 C382 450 372 362 286 186 L243 98 L237 98 C239 111 243 136 243 179 C243 205 241 236 237 271 L223 381 C211 476 196 515 133 515 C85 515 42 498 15 485 L8 445 C58 445 71 437 81 368 L101 224 C114 134 119 67 121 10 L182 13 Z M188 593 L214 558 L454 654 L376 779 L188 593 Z " />
<glyph glyph-name="thorn" unicode="&#xfe;" horiz-adv-x="590" d="M241 318 C274 370 322 416 360 416 C387 416 406 400 406 343 C406 221 350 47 237 47 C212 47 197 56 189 70 L241 318 Z M296 561 C306 605 309 641 309 668 C309 699 305 719 301 730 L288 730 L104 704 L93 659 C135 658 153 647 153 612 C153 601 151 588 148 572 L8 -81 C-4 -138 -16 -150 -67 -151 L-77 -196 L195 -196 L206 -151 C166 -150 151 -143 151 -116 C151 -107 153 -95 156 -81 L173 -4 C190 -11 210 -14 240 -14 C428 -14 565 159 565 366 C565 465 514 521 439 521 C362 521 304 467 261 401 L296 561 Z " />
<glyph glyph-name="ydieresis" unicode="&#xff;" horiz-adv-x="492" d="M182 13 C139 -73 50 -93 -43 -109 L12 -207 C114 -191 190 -135 257 -11 L511 459 L511 502 L383 516 C382 450 372 362 286 186 L243 98 L237 98 C239 111 243 136 243 179 C243 205 241 236 237 271 L223 381 C211 476 196 515 133 515 C85 515 42 498 15 485 L8 445 C58 445 71 437 81 368 L101 224 C114 134 119 67 121 10 L182 13 Z M274 646 C274 692 238 727 193 727 C147 727 109 692 109 646 C109 602 146 566 191 566 C237 566 274 602 274 646 L274 646 Z M497 646 C497 692 461 727 416 727 C370 727 332 692 332 646 C332 602 369 566 414 566 C460 566 497 602 497 646 L497 646 Z " />
<glyph glyph-name="Amacron" unicode="&#x100;" horiz-adv-x="648" d="M394 101 C395 92 395 91 395 87 C395 59 382 48 328 46 L320 0 L604 0 L613 46 C574 51 565 63 557 113 L470 695 L345 695 L45 113 C17 60 -1 51 -45 46 L-53 0 L168 0 L177 46 C138 47 122 56 122 74 C122 83 126 93 132 107 L171 187 L384 187 L394 101 Z M301 452 C327 505 340 537 342 543 L348 543 L348 528 C348 516 348 483 353 444 L374 261 L207 261 L301 452 Z M561 773 L577 851 L275 851 L259 773 L561 773 Z " />
<glyph glyph-name="amacron" unicode="&#x101;" horiz-adv-x="579" d="M344 522 C176 522 25 333 25 131 C25 39 70 -13 149 -13 C225 -13 283 37 325 103 C325 102 324 94 324 89 C324 25 351 -9 416 -9 C464 -9 505 3 546 26 L543 67 C532 66 522 65 514 65 C481 65 468 74 468 99 C468 109 470 122 474 138 L528 378 C541 434 557 480 571 510 L481 510 C467 498 452 484 441 465 C432 499 399 522 344 522 L344 522 Z M347 450 C371 450 386 443 396 429 L342 201 C302 139 253 81 214 81 C189 81 175 102 175 152 C175 291 254 450 347 450 L347 450 Z M529 601 L545 679 L243 679 L227 601 L529 601 Z " />
<glyph glyph-name="Abreve" unicode="&#x102;" horiz-adv-x="648" d="M394 101 C395 92 395 91 395 87 C395 59 382 48 328 46 L320 0 L604 0 L613 46 C574 51 565 63 557 113 L470 695 L345 695 L45 113 C17 60 -1 51 -45 46 L-53 0 L168 0 L177 46 C138 47 122 56 122 74 C122 83 126 93 132 107 L171 187 L384 187 L394 101 Z M301 452 C327 505 340 537 342 543 L348 543 L348 528 C348 516 348 483 353 444 L374 261 L207 261 L301 452 Z M411 744 C507 744 567 829 600 906 L563 928 C522 877 478 846 419 846 C361 846 330 871 309 926 L269 909 C274 829 315 744 411 744 L411 744 Z " />
<glyph glyph-name="abreve" unicode="&#x103;" horiz-adv-x="579" d="M344 522 C176 522 25 333 25 131 C25 39 70 -13 149 -13 C225 -13 283 37 325 103 C325 102 324 94 324 89 C324 25 351 -9 416 -9 C464 -9 505 3 546 26 L543 67 C532 66 522 65 514 65 C481 65 468 74 468 99 C468 109 470 122 474 138 L528 378 C541 434 557 480 571 510 L481 510 C467 498 452 484 441 465 C432 499 399 522 344 522 L344 522 Z M347 450 C371 450 386 443 396 429 L342 201 C302 139 253 81 214 81 C189 81 175 102 175 152 C175 291 254 450 347 450 L347 450 Z M366 565 C463 565 520 648 553 727 L517 749 C475 698 433 667 373 667 C315 667 283 692 263 747 L222 732 C229 652 267 565 366 565 L366 565 Z " />
<glyph glyph-name="Aogonek" unicode="&#x104;" horiz-adv-x="648" d="M392 -132 C372 -143 361 -147 341 -147 C318 -147 297 -134 297 -102 C297 -54 335 0 424 0 L604 0 L613 46 C574 51 565 63 557 113 L470 695 L345 695 L45 113 C17 60 -1 51 -45 46 L-53 0 L168 0 L177 46 C138 47 122 56 122 74 C122 83 126 93 132 107 L171 187 L384 187 L393 103 C394 95 394 93 394 90 C394 66 382 52 352 37 C224 -27 176 -61 176 -122 C176 -180 228 -205 288 -205 C338 -205 380 -190 409 -160 L392 -132 Z M301 452 C326 505 340 537 342 543 L348 543 L348 528 C348 516 348 483 353 444 L374 261 L207 261 L301 452 Z " />
<glyph glyph-name="aogonek" unicode="&#x105;" horiz-adv-x="579" d="M482 -132 C462 -143 451 -147 431 -147 C408 -147 387 -133 387 -104 C387 -37 484 -5 546 26 L543 67 C531 66 522 65 513 65 C481 65 468 74 468 99 C468 109 470 122 474 138 L528 378 C541 434 557 480 571 510 L481 510 C467 498 452 484 441 465 C432 499 399 522 344 522 C176 522 25 333 25 131 C25 39 70 -13 149 -13 C225 -13 283 37 325 103 L325 89 C325 37 345 4 387 -6 C312 -36 266 -71 266 -123 C266 -179 318 -205 378 -205 C428 -205 470 -190 499 -160 L482 -132 Z M347 450 C371 450 386 443 396 429 L342 201 C302 139 253 81 214 81 C189 81 175 102 175 152 C175 291 254 450 347 450 L347 450 Z " />
<glyph glyph-name="Cacute" unicode="&#x106;" horiz-adv-x="617" d="M318 -14 C406 -14 501 9 547 39 L574 177 L466 177 C438 95 401 56 329 56 C257 56 215 94 215 218 C215 433 287 636 431 636 C495 636 507 597 509 520 L616 520 L643 655 C600 686 538 706 447 706 C191 706 50 489 50 258 C50 87 134 -14 318 -14 L318 -14 Z M322 760 L345 723 L592 795 L527 925 L322 760 Z " />
<glyph glyph-name="cacute" unicode="&#x107;" horiz-adv-x="475" d="M220 593 L246 558 L486 654 L408 779 L220 593 Z M333 522 C144 522 32 348 32 192 C32 61 103 -14 225 -14 C326 -14 387 29 425 75 L393 121 C356 93 325 73 272 73 C213 73 183 110 183 183 C183 325 238 458 317 458 C353 458 361 433 361 388 L361 371 L461 371 L482 480 C458 500 410 522 333 522 L333 522 Z " />
<glyph glyph-name="Ccircumflex" unicode="&#x108;" horiz-adv-x="617" d="M460 808 L594 729 L619 761 L483 940 L273 766 L294 730 L460 808 Z M318 -14 C406 -14 501 9 547 39 L574 177 L466 177 C438 95 401 56 329 56 C257 56 215 94 215 218 C215 433 287 636 431 636 C495 636 507 597 509 520 L616 520 L643 655 C600 686 538 706 447 706 C191 706 50 489 50 258 C50 87 134 -14 318 -14 L318 -14 Z " />
<glyph glyph-name="ccircumflex" unicode="&#x109;" horiz-adv-x="475" d="M350 635 L484 556 L509 588 L373 767 L163 593 L185 557 L350 635 Z M333 522 C144 522 32 348 32 192 C32 61 103 -14 225 -14 C326 -14 387 29 425 75 L393 121 C356 93 325 73 272 73 C213 73 183 110 183 183 C183 325 238 458 317 458 C353 458 361 433 361 388 L361 371 L461 371 L482 480 C458 500 410 522 333 522 L333 522 Z " />
<glyph glyph-name="Cdotaccent" unicode="&#x10a;" horiz-adv-x="617" d="M318 -14 C406 -14 501 9 547 39 L574 177 L466 177 C438 95 401 56 329 56 C257 56 215 94 215 218 C215 433 287 636 431 636 C495 636 507 597 509 520 L616 520 L643 655 C600 686 538 706 447 706 C191 706 50 489 50 258 C50 87 134 -14 318 -14 L318 -14 Z M534 828 C534 875 497 912 450 912 C402 912 363 875 363 828 C363 781 401 744 448 744 C496 744 534 781 534 828 L534 828 Z " />
<glyph glyph-name="cdotaccent" unicode="&#x10b;" horiz-adv-x="475" d="M333 522 C144 522 32 348 32 192 C32 61 103 -14 225 -14 C326 -14 387 29 425 75 L393 121 C356 93 325 73 272 73 C213 73 183 110 183 183 C183 325 238 458 317 458 C353 458 361 433 361 388 L361 371 L461 371 L482 480 C458 500 410 522 333 522 L333 522 Z M426 652 C426 699 389 737 342 737 C294 737 255 699 255 652 C255 606 293 568 340 568 C388 568 426 606 426 652 L426 652 Z " />
<glyph glyph-name="Ccaron" unicode="&#x10c;" horiz-adv-x="617" d="M441 861 L307 941 L282 908 L418 730 L628 904 L606 939 L441 861 Z M318 -14 C406 -14 501 9 547 39 L574 177 L466 177 C438 95 401 56 329 56 C257 56 215 94 215 218 C215 433 287 636 431 636 C495 636 507 597 509 520 L616 520 L643 655 C600 686 538 706 447 706 C191 706 50 489 50 258 C50 87 134 -14 318 -14 L318 -14 Z " />
<glyph glyph-name="ccaron" unicode="&#x10d;" horiz-adv-x="475" d="M344 682 L212 762 L186 729 L322 551 L532 725 L511 760 L344 682 Z M333 522 C144 522 32 348 32 192 C32 61 103 -14 225 -14 C326 -14 387 29 425 75 L393 121 C356 93 325 73 272 73 C213 73 183 110 183 183 C183 325 238 458 317 458 C353 458 361 433 361 388 L361 371 L461 371 L482 480 C458 500 410 522 333 522 L333 522 Z " />
<glyph glyph-name="Dcaron" unicode="&#x10e;" horiz-adv-x="697" d="M409 861 L275 941 L250 908 L386 730 L596 904 L574 939 L409 861 Z M-18 0 L294 0 C403 0 491 24 552 88 C629 169 672 286 672 435 C672 607 575 695 394 695 L117 695 L108 647 C150 646 167 637 167 606 C167 597 165 584 163 575 L74 117 C63 60 44 46 -10 46 L-18 0 Z M377 625 C481 625 506 578 506 468 C506 337 472 198 428 134 C388 76 336 67 270 67 L222 67 L330 625 L377 625 Z " />
<glyph glyph-name="dcaron" unicode="&#x10f;" horiz-adv-x="595" d="M351 201 C312 139 263 81 216 81 C191 81 175 102 175 154 C175 301 259 450 354 450 C376 450 390 444 401 432 L351 201 Z M337 103 C337 102 336 90 336 85 C336 28 363 -9 427 -9 C474 -9 514 3 558 26 L555 67 C543 66 534 65 525 65 C493 65 481 73 481 99 C481 109 483 122 486 138 L577 561 C588 611 591 650 591 678 C591 703 588 721 585 730 L572 730 L389 704 L378 659 C420 658 438 647 438 612 C438 601 436 588 433 572 L419 506 C403 516 381 522 353 522 C183 522 25 339 25 132 C25 39 74 -13 153 -13 C229 -13 296 37 337 103 L337 103 Z M761 724 L647 737 L621 556 L680 547 L761 724 Z " />
<glyph glyph-name="Dcroat" unicode="&#x110;" horiz-adv-x="697" d="M-18 0 L294 0 C403 0 491 24 552 88 C629 169 672 286 672 435 C672 607 575 695 394 695 L117 695 L108 647 C150 646 167 637 167 606 C167 597 165 587 163 575 L127 393 L55 393 L40 320 L113 320 L74 117 C63 60 44 46 -10 46 L-18 0 Z M377 625 C481 625 506 578 506 468 C506 337 472 198 428 134 C388 76 336 67 270 67 L222 67 L271 320 L393 320 L409 393 L285 393 L330 625 L377 625 Z " />
<glyph glyph-name="dcroat" unicode="&#x111;" horiz-adv-x="595" d="M272 566 L431 566 L419 506 C403 516 381 522 353 522 C183 522 25 339 25 132 C25 39 74 -13 153 -13 C229 -13 296 37 337 103 C337 99 336 92 336 87 C336 26 363 -9 427 -9 C474 -9 514 3 558 26 L555 67 C543 66 534 65 525 65 C493 65 481 74 481 99 C481 109 483 122 486 138 L578 566 L646 566 L659 611 L586 611 C590 637 591 658 591 676 C591 702 588 720 585 730 L572 730 L389 704 L378 661 C427 660 443 651 443 628 C443 623 442 617 441 611 L284 611 L272 566 Z M351 201 C312 139 263 81 216 81 C191 81 175 102 175 154 C175 301 259 450 354 450 C376 450 390 444 401 432 L351 201 Z " />
<glyph glyph-name="Emacron" unicode="&#x112;" horiz-adv-x="593" d="M-18 0 L506 0 L541 183 L465 183 C439 90 410 67 344 67 L221 67 L270 319 L332 319 C384 319 401 307 401 271 C401 266 400 255 399 248 L465 248 L506 457 L440 457 C425 400 406 386 344 386 L283 386 L329 624 L437 624 C508 624 514 602 522 526 L596 526 L617 695 L117 695 L108 647 C150 646 167 637 167 606 C167 597 165 585 163 575 L74 117 C63 60 44 46 -10 46 L-18 0 Z M539 773 L555 851 L253 851 L237 773 L539 773 Z " />
<glyph glyph-name="emacron" unicode="&#x113;" horiz-adv-x="515" d="M180 172 C180 188 180 197 182 216 L206 216 C362 216 503 255 503 384 C503 482 432 522 330 522 C162 522 32 363 32 184 C32 59 96 -14 227 -14 C317 -14 394 24 450 89 L419 132 C372 90 327 74 272 74 C209 74 180 112 180 172 L180 172 Z M367 403 C367 318 309 277 197 277 L193 277 C214 384 263 457 321 457 C349 457 367 436 367 403 L367 403 Z M491 601 L507 679 L205 679 L189 601 L491 601 Z " />
<glyph glyph-name="Ebreve" unicode="&#x114;" horiz-adv-x="593" d="M-18 0 L506 0 L541 183 L465 183 C439 90 410 67 344 67 L221 67 L270 319 L332 319 C384 319 401 307 401 271 C401 266 400 255 399 248 L465 248 L506 457 L440 457 C425 400 406 386 344 386 L283 386 L329 624 L437 624 C508 624 514 602 522 526 L596 526 L617 695 L117 695 L108 647 C150 646 167 637 167 606 C167 597 165 585 163 575 L74 117 C63 60 44 46 -10 46 L-18 0 Z M390 743 C487 743 544 826 577 905 L541 927 C499 876 457 845 397 845 C339 845 307 870 287 925 L246 910 C253 830 291 743 390 743 L390 743 Z " />
<glyph glyph-name="ebreve" unicode="&#x115;" horiz-adv-x="515" d="M180 172 C180 188 180 197 182 216 L206 216 C362 216 503 255 503 384 C503 482 432 522 330 522 C162 522 32 363 32 184 C32 59 96 -14 227 -14 C317 -14 394 24 450 89 L419 132 C372 90 327 74 272 74 C209 74 180 112 180 172 L180 172 Z M367 403 C367 318 309 277 197 277 L193 277 C214 384 263 457 321 457 C349 457 367 436 367 403 L367 403 Z M356 565 C453 565 510 648 543 727 L507 749 C465 698 423 667 363 667 C305 667 273 692 253 747 L212 732 C219 652 257 565 356 565 L356 565 Z " />
<glyph glyph-name="Edotaccent" unicode="&#x116;" horiz-adv-x="593" d="M483 828 C483 875 446 912 399 912 C351 912 312 875 312 828 C312 781 350 744 397 744 C445 744 483 781 483 828 L483 828 Z M-18 0 L506 0 L541 183 L465 183 C439 90 410 67 344 67 L221 67 L270 319 L332 319 C384 319 401 307 401 271 C401 266 400 255 399 248 L465 248 L506 457 L440 457 C425 400 406 386 344 386 L283 386 L329 624 L437 624 C508 624 514 602 522 526 L596 526 L617 695 L117 695 L108 647 C150 646 167 637 167 606 C167 597 165 585 163 575 L74 117 C63 60 44 46 -10 46 L-18 0 Z " />
<glyph glyph-name="edotaccent" unicode="&#x117;" horiz-adv-x="515" d="M180 172 C180 188 180 197 182 216 L206 216 C362 216 503 255 503 384 C503 482 432 522 330 522 C162 522 32 363 32 184 C32 59 96 -14 227 -14 C317 -14 394 24 450 89 L419 132 C372 90 327 74 272 74 C209 74 180 112 180 172 L180 172 Z M367 403 C367 318 309 277 197 277 L193 277 C214 384 263 457 321 457 C349 457 367 436 367 403 L367 403 Z M432 652 C432 699 395 737 348 737 C300 737 261 699 261 652 C261 606 299 568 346 568 C394 568 432 606 432 652 L432 652 Z " />
<glyph glyph-name="Eogonek" unicode="&#x118;" horiz-adv-x="593" d="M380 0 C294 -30 241 -68 241 -123 C241 -179 293 -205 353 -205 C403 -205 445 -190 474 -160 L457 -132 C437 -143 426 -147 407 -147 C383 -147 362 -133 362 -103 C362 -57 421 0 499 0 L506 0 L541 183 L465 183 C439 90 410 67 344 67 L221 67 L270 319 L332 319 C384 319 401 307 401 271 C401 264 400 257 399 248 L465 248 L506 457 L440 457 C425 400 406 386 344 386 L283 386 L329 624 L437 624 C508 624 514 602 522 526 L596 526 L617 695 L117 695 L108 647 C150 646 167 637 167 606 C167 597 165 583 163 575 L74 117 C63 60 44 46 -10 46 L-18 0 L380 0 Z " />
<glyph glyph-name="eogonek" unicode="&#x119;" horiz-adv-x="515" d="M332 -132 C312 -143 301 -147 282 -147 C259 -147 238 -133 238 -104 C238 -64 272 -31 341 6 C382 28 419 53 450 89 L419 132 C372 90 327 74 272 74 C209 74 180 112 180 172 C180 188 180 199 182 216 L206 216 C362 216 503 255 503 384 C503 482 432 522 330 522 C162 522 32 363 32 184 C32 61 92 -11 219 -11 L227 -11 C155 -41 116 -73 116 -123 C116 -179 168 -205 228 -205 C278 -205 320 -190 349 -160 L332 -132 Z M367 403 C367 318 309 277 197 277 L193 277 C214 384 263 457 321 457 C349 457 367 436 367 403 L367 403 Z " />
<glyph glyph-name="Ecaron" unicode="&#x11a;" horiz-adv-x="593" d="M403 861 L269 941 L244 908 L380 730 L590 904 L568 939 L403 861 Z M-18 0 L506 0 L541 183 L465 183 C439 90 410 67 344 67 L221 67 L270 319 L332 319 C384 319 401 307 401 271 C401 266 400 255 399 248 L465 248 L506 457 L440 457 C425 400 406 386 344 386 L283 386 L329 624 L437 624 C508 624 514 602 522 526 L596 526 L617 695 L117 695 L108 647 C150 646 167 637 167 606 C167 597 165 585 163 575 L74 117 C63 60 44 46 -10 46 L-18 0 Z " />
<glyph glyph-name="ecaron" unicode="&#x11b;" horiz-adv-x="515" d="M340 682 L208 762 L182 729 L318 551 L528 725 L507 760 L340 682 Z M180 172 C180 188 180 197 182 216 L206 216 C362 216 503 255 503 384 C503 482 432 522 330 522 C162 522 32 363 32 184 C32 59 96 -14 227 -14 C317 -14 394 24 450 89 L419 132 C372 90 327 74 272 74 C209 74 180 112 180 172 L180 172 Z M367 403 C367 318 309 277 197 277 L193 277 C214 384 263 457 321 457 C349 457 367 436 367 403 L367 403 Z " />
<glyph glyph-name="Gcircumflex" unicode="&#x11c;" horiz-adv-x="691" d="M493 808 L627 729 L652 761 L516 940 L306 766 L327 730 L493 808 Z M340 54 C259 54 215 99 215 217 C215 448 295 635 441 635 C511 635 530 600 531 520 L636 520 L663 655 C619 685 552 706 457 706 C183 706 50 481 50 258 C50 84 142 -14 340 -14 C414 -14 505 6 565 40 L602 230 C613 287 632 301 681 302 L691 349 L395 349 L385 302 C438 301 456 292 456 261 C456 252 454 240 452 230 L422 74 C401 61 370 54 340 54 L340 54 Z " />
<glyph glyph-name="gcircumflex" unicode="&#x11d;" horiz-adv-x="528" d="M343 635 L477 556 L502 588 L366 767 L156 593 L178 557 L343 635 Z M178 -202 C328 -202 458 -148 458 -8 C458 84 394 110 308 119 L187 132 C167 134 163 143 163 155 C163 173 191 186 221 194 C230 194 238 193 247 193 C419 193 479 274 479 347 C479 386 466 415 447 431 C468 421 487 420 509 420 C536 420 558 423 586 439 L554 535 C524 511 492 496 455 496 C412 496 353 522 282 522 C149 522 52 451 52 337 C52 266 93 222 157 207 C81 188 29 150 29 88 C29 39 56 19 108 12 C123 10 164 6 230 0 C290 -5 321 -17 321 -56 C321 -112 275 -141 184 -141 C121 -141 89 -126 89 -84 C89 -58 98 -38 110 -22 L12 -24 C-16 -37 -46 -61 -46 -101 C-46 -172 33 -202 178 -202 L178 -202 Z M254 253 C221 253 194 274 194 322 C194 398 225 460 281 460 C318 460 341 439 341 392 C341 317 316 253 254 253 L254 253 Z " />
<glyph glyph-name="Gbreve" unicode="&#x11e;" horiz-adv-x="691" d="M455 744 C551 744 611 829 644 906 L607 928 C566 877 522 846 463 846 C405 846 374 871 353 926 L313 909 C318 829 359 744 455 744 L455 744 Z M340 54 C259 54 215 99 215 217 C215 448 295 635 441 635 C511 635 530 600 531 520 L636 520 L663 655 C619 685 552 706 457 706 C183 706 50 481 50 258 C50 84 142 -14 340 -14 C414 -14 505 6 565 40 L602 230 C613 287 632 301 681 302 L691 349 L395 349 L385 302 C438 301 456 292 456 261 C456 252 454 240 452 230 L422 74 C401 61 370 54 340 54 L340 54 Z " />
<glyph glyph-name="gbreve" unicode="&#x11f;" horiz-adv-x="528" d="M178 -202 C328 -202 458 -148 458 -8 C458 84 394 110 308 119 L187 132 C167 134 163 143 163 155 C163 173 191 186 221 194 C230 194 238 193 247 193 C419 193 479 274 479 347 C479 386 466 415 447 431 C468 421 487 420 509 420 C536 420 558 423 586 439 L554 535 C524 511 492 496 455 496 C412 496 353 522 282 522 C149 522 52 451 52 337 C52 266 93 222 157 207 C81 188 29 150 29 88 C29 39 56 19 108 12 C123 10 164 6 230 0 C290 -5 321 -17 321 -56 C321 -112 275 -141 184 -141 C121 -141 89 -126 89 -84 C89 -58 98 -38 110 -22 L12 -24 C-16 -37 -46 -61 -46 -101 C-46 -172 33 -202 178 -202 L178 -202 Z M254 253 C221 253 194 274 194 322 C194 398 225 460 281 460 C318 460 341 439 341 392 C341 317 316 253 254 253 L254 253 Z M317 565 C414 565 471 648 504 727 L468 749 C426 698 384 667 324 667 C266 667 234 692 214 747 L173 732 C180 652 218 565 317 565 L317 565 Z " />
<glyph glyph-name="Gdotaccent" unicode="&#x120;" horiz-adv-x="691" d="M551 828 C551 875 514 912 467 912 C419 912 380 875 380 828 C380 781 418 744 465 744 C513 744 551 781 551 828 L551 828 Z M340 54 C259 54 215 99 215 217 C215 448 295 635 441 635 C511 635 530 600 531 520 L636 520 L663 655 C619 685 552 706 457 706 C183 706 50 481 50 258 C50 84 142 -14 340 -14 C414 -14 505 6 565 40 L602 230 C613 287 632 301 681 302 L691 349 L395 349 L385 302 C438 301 456 292 456 261 C456 252 454 240 452 230 L422 74 C401 61 370 54 340 54 L340 54 Z " />
<glyph glyph-name="gdotaccent" unicode="&#x121;" horiz-adv-x="528" d="M178 -202 C328 -202 458 -148 458 -8 C458 84 394 110 308 119 L187 132 C167 134 163 143 163 155 C163 173 191 186 221 194 C230 194 238 193 247 193 C419 193 479 274 479 347 C479 386 466 415 447 431 C468 421 487 420 509 420 C536 420 558 423 586 439 L554 535 C524 511 492 496 455 496 C412 496 353 522 282 522 C149 522 52 451 52 337 C52 266 93 222 157 207 C81 188 29 150 29 88 C29 39 56 19 108 12 C123 10 164 6 230 0 C290 -5 321 -17 321 -56 C321 -112 275 -141 184 -141 C121 -141 89 -126 89 -84 C89 -58 98 -38 110 -22 L12 -24 C-16 -37 -46 -61 -46 -101 C-46 -172 33 -202 178 -202 L178 -202 Z M254 253 C221 253 194 274 194 322 C194 398 225 460 281 460 C318 460 341 439 341 392 C341 317 316 253 254 253 L254 253 Z M411 652 C411 699 374 737 327 737 C279 737 240 699 240 652 C240 606 278 568 325 568 C373 568 411 606 411 652 L411 652 Z " />
<glyph glyph-name="Gcommaaccent" unicode="&#x122;" horiz-adv-x="691" d="M340 54 C259 54 215 99 215 217 C215 448 295 635 441 635 C511 635 530 600 531 520 L636 520 L663 655 C619 685 552 706 457 706 C183 706 50 481 50 258 C50 84 142 -14 340 -14 C414 -14 505 6 565 40 L602 230 C613 287 632 301 681 302 L691 349 L395 349 L385 302 C438 301 456 292 456 261 C456 252 454 240 452 230 L422 74 C401 61 370 54 340 54 L340 54 Z M377 -133 C377 -85 349 -44 295 -44 C247 -44 216 -74 216 -111 C216 -145 233 -160 252 -169 C268 -176 274 -182 274 -193 C274 -218 242 -234 188 -251 L206 -286 C293 -271 377 -218 377 -133 L377 -133 Z " />
<glyph glyph-name="gcommaaccent" unicode="&#x123;" horiz-adv-x="528" d="M178 -202 C328 -202 458 -148 458 -8 C458 84 394 110 308 119 L187 132 C167 134 163 143 163 155 C163 173 191 186 221 194 C230 194 238 193 247 193 C419 193 479 274 479 347 C479 386 466 415 447 431 C468 421 487 420 509 420 C536 420 558 423 586 439 L554 535 C524 511 492 496 455 496 C412 496 353 522 282 522 C149 522 52 451 52 337 C52 266 93 222 157 207 C81 188 29 150 29 88 C29 39 56 19 108 12 C123 10 164 6 230 0 C290 -5 321 -17 321 -56 C321 -112 275 -141 184 -141 C121 -141 89 -126 89 -84 C89 -58 98 -38 110 -22 L12 -24 C-16 -37 -46 -61 -46 -101 C-46 -172 33 -202 178 -202 L178 -202 Z M254 253 C221 253 194 274 194 322 C194 398 225 460 281 460 C318 460 341 439 341 392 C341 317 316 253 254 253 L254 253 Z M247 651 C247 603 276 561 330 561 C377 561 408 592 408 629 C408 664 391 680 370 688 C355 694 350 700 350 711 C350 736 385 753 439 771 L422 806 C335 791 247 738 247 651 L247 651 Z " />
<glyph glyph-name="Hcircumflex" unicode="&#x124;" horiz-adv-x="750" d="M712 575 C723 632 742 646 795 647 L804 695 L509 695 L500 647 C553 646 566 632 555 575 L519 394 L284 394 L320 575 C331 632 350 646 403 647 L412 695 L117 695 L108 647 C161 646 174 632 163 575 L74 117 C63 60 44 46 -10 46 L-18 0 L278 0 L286 46 C233 46 220 60 231 117 L270 319 L505 319 L466 117 C455 60 436 46 383 46 L375 0 L670 0 L678 46 C625 46 612 60 623 117 L712 575 Z M486 808 L620 729 L645 761 L509 940 L299 766 L320 730 L486 808 Z " />
<glyph glyph-name="hcircumflex" unicode="&#x125;" horiz-adv-x="579" d="M333 141 C328 119 325 99 325 81 C325 24 354 -9 419 -9 C465 -9 507 3 551 26 L548 67 C535 65 523 65 514 65 C484 65 472 73 472 97 C472 107 474 121 478 138 L533 375 C537 391 538 406 538 420 C538 479 507 522 439 522 C363 522 295 467 247 390 L285 561 C296 611 299 650 299 678 C299 703 296 721 293 730 L280 730 L96 704 L85 659 C127 658 145 647 145 612 C145 601 143 588 140 572 L16 0 L162 0 L226 294 C266 354 315 404 355 404 C376 404 384 393 384 374 C384 367 383 358 381 349 L333 141 Z M383 839 L517 760 L542 792 L406 971 L196 797 L217 761 L383 839 Z " />
<glyph glyph-name="Hbar" unicode="&#x126;" horiz-adv-x="750" d="M712 575 C723 632 742 646 795 647 L804 695 L509 695 L500 647 C553 646 566 632 555 575 L550 549 L315 549 L320 575 C331 632 350 646 403 647 L412 695 L117 695 L108 647 C161 646 174 632 163 575 L158 549 L89 549 L75 486 L145 486 L74 117 C63 60 44 46 -10 46 L-18 0 L278 0 L286 46 C233 46 220 60 231 117 L270 319 L505 319 L466 117 C455 60 436 46 383 46 L375 0 L670 0 L678 46 C625 46 612 60 623 117 L694 486 L765 486 L778 549 L707 549 L712 575 Z M284 394 L302 486 L537 486 L519 394 L284 394 Z " />
<glyph glyph-name="hbar" unicode="&#x127;" horiz-adv-x="579" d="M63 566 L139 566 L16 0 L162 0 L226 294 C266 354 315 404 355 404 C376 404 384 393 384 374 C384 367 383 358 381 349 L333 141 C328 119 325 99 325 81 C325 24 354 -9 419 -9 C465 -9 507 3 551 26 L548 67 C537 66 523 65 514 65 C483 65 472 73 472 97 C472 107 474 121 478 138 L533 375 C537 391 538 406 538 420 C538 479 507 522 439 522 C363 522 295 467 247 390 L286 566 L437 566 L450 611 L294 611 C298 637 299 658 299 676 C299 702 296 720 293 730 L280 730 L96 704 L85 659 C132 658 150 649 150 622 C150 619 150 615 149 611 L75 611 L63 566 Z " />
<glyph glyph-name="Itilde" unicode="&#x128;" horiz-adv-x="358" d="M320 575 C331 632 350 646 403 647 L412 695 L117 695 L108 647 C150 646 167 637 167 606 C167 597 165 585 163 575 L74 117 C63 60 44 46 -10 46 L-18 0 L278 0 L286 46 C233 46 220 60 231 117 L320 575 Z M359 857 C309 857 280 895 220 895 C161 895 119 832 108 761 L143 745 C162 779 183 794 216 794 C260 794 293 758 355 758 C412 758 453 816 471 887 L433 903 C415 868 390 857 359 857 L359 857 Z " />
<glyph glyph-name="itilde" unicode="&#x129;" horiz-adv-x="300" d="M251 380 C256 401 258 418 258 434 C258 490 228 515 172 515 C123 515 76 498 45 482 L36 443 C85 443 107 429 107 394 C107 385 105 371 101 356 L48 141 C43 119 40 99 40 81 C40 23 69 -9 133 -9 C181 -9 223 3 268 26 L264 67 C251 66 241 65 229 65 C201 65 188 74 188 97 C188 108 191 121 195 138 L251 380 Z M273 686 C226 686 195 720 139 720 C81 720 40 655 29 584 L64 568 C82 602 103 616 134 616 C176 616 212 585 269 585 C325 585 365 644 383 715 L345 731 C328 697 303 686 273 686 L273 686 Z " />
<glyph glyph-name="Imacron" unicode="&#x12a;" horiz-adv-x="358" d="M320 575 C331 632 350 646 403 647 L412 695 L117 695 L108 647 C150 646 167 637 167 606 C167 597 165 585 163 575 L74 117 C63 60 44 46 -10 46 L-18 0 L278 0 L286 46 C233 46 220 60 231 117 L320 575 Z M430 773 L446 851 L144 851 L128 773 L430 773 Z " />
<glyph glyph-name="imacron" unicode="&#x12b;" horiz-adv-x="300" d="M333 601 L349 679 L71 679 L55 601 L333 601 Z M251 380 C256 401 258 418 258 434 C258 490 228 515 172 515 C123 515 76 498 45 482 L36 443 C85 443 107 429 107 394 C107 385 105 371 101 356 L48 141 C43 119 40 99 40 81 C40 23 69 -9 133 -9 C181 -9 223 3 268 26 L264 67 C251 66 241 65 229 65 C201 65 188 74 188 97 C188 108 191 121 195 138 L251 380 Z " />
<glyph glyph-name="Ibreve" unicode="&#x12c;" horiz-adv-x="358" d="M320 575 C331 632 350 646 403 647 L412 695 L117 695 L108 647 C150 646 167 637 167 606 C167 597 165 585 163 575 L74 117 C63 60 44 46 -10 46 L-18 0 L278 0 L286 46 C233 46 220 60 231 117 L320 575 Z M270 744 C366 744 426 829 459 906 L422 928 C381 877 337 846 278 846 C220 846 189 871 168 926 L128 909 C133 829 174 744 270 744 L270 744 Z " />
<glyph glyph-name="ibreve" unicode="&#x12d;" horiz-adv-x="300" d="M251 380 C256 401 258 418 258 434 C258 490 228 515 172 515 C123 515 76 498 45 482 L36 443 C85 443 107 429 107 394 C107 385 105 371 101 356 L48 141 C43 119 40 99 40 81 C40 23 69 -9 133 -9 C181 -9 223 3 268 26 L264 67 C251 66 241 65 229 65 C201 65 188 74 188 97 C188 108 191 121 195 138 L251 380 Z M199 565 C296 565 353 648 386 727 L350 749 C308 698 266 667 206 667 C148 667 116 692 96 747 L55 732 C62 652 100 565 199 565 L199 565 Z " />
<glyph glyph-name="Iogonek" unicode="&#x12e;" horiz-adv-x="358" d="M233 -132 C213 -143 202 -147 183 -147 C159 -147 138 -133 138 -104 C138 -58 191 0 263 0 L278 0 L286 46 C233 46 220 60 231 117 L320 575 C331 632 350 646 403 647 L412 695 L117 695 L108 647 C150 646 167 637 167 606 C167 599 165 587 163 575 L74 117 C63 60 44 46 -10 46 L-18 0 L148 0 C64 -31 17 -67 17 -122 C17 -178 69 -205 129 -205 C179 -205 221 -190 250 -160 L233 -132 Z " />
<glyph glyph-name="iogonek" unicode="&#x12f;" horiz-adv-x="300" d="M304 655 C304 701 267 739 221 739 C173 739 135 701 135 655 C135 609 173 572 219 572 C266 572 304 609 304 655 L304 655 Z M264 67 C251 66 241 65 229 65 C201 65 188 74 188 97 C188 108 191 121 195 138 L251 380 C256 401 258 418 258 434 C258 490 228 515 172 515 C123 515 76 498 45 482 L36 443 C85 443 107 429 107 394 C107 385 105 371 101 356 L48 141 C43 119 40 100 40 83 C40 31 64 -1 116 -5 C41 -36 -3 -72 -3 -123 C-3 -179 49 -205 110 -205 C160 -205 201 -190 231 -160 L213 -132 C194 -143 182 -147 163 -147 C140 -147 119 -133 119 -104 C119 -34 222 1 268 26 L264 67 Z " />
<glyph glyph-name="Idotaccent" unicode="&#x130;" horiz-adv-x="358" d="M320 575 C331 632 350 646 403 647 L412 695 L117 695 L108 647 C150 646 167 637 167 606 C167 597 165 585 163 575 L74 117 C63 60 44 46 -10 46 L-18 0 L278 0 L286 46 C233 46 220 60 231 117 L320 575 Z M369 828 C369 875 332 912 285 912 C237 912 198 875 198 828 C198 781 236 744 283 744 C331 744 369 781 369 828 L369 828 Z " />
<glyph glyph-name="dotlessi" unicode="&#x131;" horiz-adv-x="300" d="M251 380 C256 401 258 418 258 434 C258 490 228 515 172 515 C123 515 76 498 45 482 L36 443 C85 443 107 429 107 394 C107 385 105 371 101 356 L48 141 C43 119 40 99 40 81 C40 23 69 -9 133 -9 C181 -9 223 3 268 26 L264 67 C251 66 241 65 229 65 C201 65 188 74 188 97 C188 108 191 121 195 138 L251 380 Z " />
<glyph glyph-name="IJ" unicode="&#x132;" horiz-adv-x="710" d="M320 575 C331 632 350 646 403 647 L412 695 L117 695 L108 647 C150 646 167 637 167 606 C167 597 165 585 163 575 L74 117 C63 60 44 46 -10 46 L-18 0 L278 0 L286 46 C233 46 220 60 231 117 L320 575 Z M673 575 C684 632 703 646 756 647 L765 695 L470 695 L461 647 C503 646 520 637 520 606 C520 599 518 584 516 575 L423 100 C401 -11 380 -65 267 -100 L282 -147 C461 -131 548 -67 580 95 L673 575 Z " />
<glyph glyph-name="ij" unicode="&#x133;" horiz-adv-x="574" d="M251 380 C256 401 258 418 258 434 C258 490 228 515 172 515 C123 515 76 498 45 482 L36 443 C85 443 107 429 107 394 C107 385 105 371 101 356 L48 141 C43 119 40 99 40 81 C40 23 69 -9 133 -9 C181 -9 223 3 268 26 L264 67 C251 66 241 65 229 65 C201 65 188 74 188 97 C188 108 191 121 195 138 L251 380 Z M304 655 C304 701 267 739 221 739 C173 739 135 701 135 655 C135 609 173 572 219 572 C266 572 304 609 304 655 L304 655 Z M465 -4 L544 380 C548 400 550 417 550 432 C550 491 521 515 464 515 C416 515 368 498 337 482 L328 443 C378 443 398 429 398 393 C398 383 396 371 393 356 L325 14 C304 -91 280 -121 194 -149 L210 -204 C367 -176 441 -125 465 -4 L465 -4 Z M596 655 C596 701 560 739 513 739 C465 739 427 701 427 655 C427 609 465 572 511 572 C558 572 596 609 596 655 L596 655 Z " />
<glyph glyph-name="Jcircumflex" unicode="&#x134;" horiz-adv-x="357" d="M290 808 L424 729 L449 761 L313 940 L103 766 L124 730 L290 808 Z M321 575 C332 632 351 646 404 647 L413 695 L118 695 L109 647 C151 646 168 637 168 606 C168 599 166 584 164 575 L71 100 C49 -11 28 -65 -85 -100 L-70 -147 C109 -131 196 -67 228 95 L321 575 Z " />
<glyph glyph-name="jcircumflex" unicode="&#x135;" horiz-adv-x="284" d="M175 -4 L254 380 C258 400 260 417 260 432 C260 491 231 515 174 515 C126 515 78 498 47 482 L38 443 C88 443 108 429 108 393 C108 383 106 371 103 356 L35 14 C14 -91 -10 -121 -96 -149 L-80 -204 C77 -176 151 -125 175 -4 L175 -4 Z M205 635 L339 556 L364 588 L228 767 L18 593 L40 557 L205 635 Z " />
<glyph glyph-name="Kcommaaccent" unicode="&#x136;" horiz-adv-x="665" d="M602 576 C650 624 675 643 719 648 L728 695 L503 695 L494 648 C520 648 533 638 533 623 C533 613 528 602 514 587 L292 347 L427 0 L631 0 L639 46 C597 49 578 59 562 95 L431 401 L602 576 Z M320 575 C331 632 350 646 403 647 L412 695 L117 695 L108 647 C150 646 167 637 167 606 C167 597 165 586 163 575 L74 117 C63 60 44 46 -10 46 L-18 0 L278 0 L286 46 C244 46 227 55 227 86 C227 93 229 105 231 117 L320 575 Z M383 -133 C383 -85 355 -44 301 -44 C253 -44 222 -74 222 -111 C222 -145 239 -160 258 -169 C274 -176 280 -182 280 -193 C280 -218 248 -234 194 -251 L212 -286 C299 -271 383 -218 383 -133 L383 -133 Z " />
<glyph glyph-name="kcommaaccent" unicode="&#x137;" horiz-adv-x="544" d="M283 561 C294 612 298 652 298 680 C298 705 295 721 292 730 L279 730 L95 704 L84 659 C125 658 144 646 144 611 C144 600 142 587 139 572 L16 0 L162 0 L283 561 Z M285 92 C309 15 338 -8 402 -8 C439 -8 485 4 523 28 L519 66 C503 64 498 64 490 64 C453 64 442 80 425 128 L358 317 L406 368 C459 426 516 466 562 466 L571 509 L428 509 L230 269 L285 92 Z M305 -133 C305 -85 277 -44 223 -44 C175 -44 144 -74 144 -111 C144 -145 161 -160 180 -169 C196 -176 202 -182 202 -193 C202 -218 170 -234 116 -251 L134 -286 C221 -271 305 -218 305 -133 L305 -133 Z " />
<glyph glyph-name="kgreenlandic" unicode="&#x138;" horiz-adv-x="557" d="M30 0 L175 0 L257 380 C261 400 263 417 263 432 C263 490 233 515 177 515 C129 515 82 498 50 482 L42 443 C91 443 111 430 111 394 C111 383 109 371 106 356 L30 0 Z M299 92 C323 15 352 -8 416 -8 C452 -8 499 4 536 28 L533 66 C521 64 512 64 504 64 C467 64 455 80 438 128 L371 317 L419 368 C473 426 530 466 575 466 L584 509 L441 509 L243 269 L299 92 Z " />
<glyph glyph-name="Lacute" unicode="&#x139;" horiz-adv-x="561" d="M160 760 L183 723 L430 795 L365 925 L160 760 Z M221 67 L320 575 C331 632 350 646 405 647 L413 695 L117 695 L108 647 C161 646 174 632 163 575 L74 117 C63 60 44 46 -10 46 L-18 0 L481 0 L533 192 L456 192 C419 96 379 67 314 67 L221 67 Z " />
<glyph glyph-name="lacute" unicode="&#x13a;" horiz-adv-x="298" d="M130 776 L153 739 L400 811 L335 941 L130 776 Z M280 561 C291 612 295 649 295 680 C295 705 292 721 289 730 L276 730 L91 704 L81 659 C122 658 140 647 140 612 C140 601 138 588 135 572 L42 141 C37 119 35 97 35 83 C35 24 63 -9 129 -9 C176 -9 219 3 263 26 L259 67 C246 66 235 65 226 65 C194 65 183 74 183 97 C183 107 185 121 189 138 L280 561 Z " />
<glyph glyph-name="Lcommaaccent" unicode="&#x13b;" horiz-adv-x="561" d="M221 67 L320 575 C331 632 350 646 405 647 L413 695 L117 695 L108 647 C161 646 174 632 163 575 L74 117 C63 60 44 46 -10 46 L-18 0 L481 0 L533 192 L456 192 C419 96 379 67 314 67 L221 67 Z M299 -133 C299 -85 271 -44 217 -44 C169 -44 138 -74 138 -111 C138 -145 155 -160 174 -169 C190 -176 196 -182 196 -193 C196 -218 164 -234 110 -251 L128 -286 C215 -271 299 -218 299 -133 L299 -133 Z " />
<glyph glyph-name="lcommaaccent" unicode="&#x13c;" horiz-adv-x="298" d="M280 561 C291 612 295 649 295 680 C295 705 292 721 289 730 L276 730 L91 704 L81 659 C122 658 140 647 140 612 C140 601 138 588 135 572 L42 141 C37 119 35 97 35 83 C35 24 63 -9 129 -9 C176 -9 219 3 263 26 L259 67 C246 66 235 65 226 65 C194 65 183 74 183 97 C183 107 185 121 189 138 L280 561 Z M164 -133 C164 -85 136 -44 82 -44 C34 -44 3 -74 3 -111 C3 -145 20 -160 39 -169 C55 -176 61 -182 61 -193 C61 -218 29 -234 -25 -251 L-7 -286 C80 -271 164 -218 164 -133 L164 -133 Z " />
<glyph glyph-name="Lcaron" unicode="&#x13d;" horiz-adv-x="561" d="M221 67 L320 575 C331 632 350 646 405 647 L413 695 L117 695 L108 647 C161 646 174 632 163 575 L74 117 C63 60 44 46 -10 46 L-18 0 L481 0 L533 192 L456 192 C419 96 379 67 314 67 L221 67 Z M600 724 L487 737 L453 556 L513 547 L600 724 Z " />
<glyph glyph-name="lcaron" unicode="&#x13e;" horiz-adv-x="298" d="M280 561 C291 612 295 649 295 680 C295 705 292 721 289 730 L276 730 L91 704 L81 659 C122 658 140 647 140 612 C140 601 138 588 135 572 L42 141 C37 119 35 97 35 83 C35 24 63 -9 129 -9 C176 -9 219 3 263 26 L259 67 C246 66 235 65 226 65 C194 65 183 74 183 97 C183 107 185 121 189 138 L280 561 Z M463 724 L349 737 L323 556 L382 547 L463 724 Z " />
<glyph glyph-name="Ldot" unicode="&#x13f;" horiz-adv-x="561" d="M221 67 L320 575 C331 632 350 646 405 647 L413 695 L117 695 L108 647 C161 646 174 632 163 575 L74 117 C63 60 44 46 -10 46 L-18 0 L481 0 L533 192 L456 192 C419 96 379 67 314 67 L221 67 Z M584 378 C584 428 544 469 494 469 C443 469 403 428 403 378 C403 327 443 287 494 287 C544 287 584 327 584 378 L584 378 Z " />
<glyph glyph-name="ldot" unicode="&#x140;" horiz-adv-x="441" d="M280 561 C291 612 295 649 295 680 C295 705 292 721 289 730 L276 730 L91 704 L81 659 C122 658 140 647 140 612 C140 601 138 588 135 572 L42 141 C37 119 35 97 35 83 C35 24 63 -9 129 -9 C176 -9 219 3 263 26 L259 67 C246 66 235 65 226 65 C194 65 183 74 183 97 C183 107 185 121 189 138 L280 561 Z M462 350 C462 397 424 435 377 435 C329 435 292 397 292 350 C292 303 329 264 377 264 C424 264 462 303 462 350 L462 350 Z " />
<glyph glyph-name="Lslash" unicode="&#x141;" horiz-adv-x="561" d="M221 67 L269 315 L456 376 L468 437 L281 376 L320 575 C331 632 350 646 405 647 L413 695 L117 695 L108 647 C150 646 167 637 167 606 C167 599 165 587 163 575 L113 321 L38 296 L26 236 L102 260 L74 117 C63 60 44 46 -10 46 L-18 0 L481 0 L533 192 L456 192 C419 96 379 67 314 67 L221 67 Z " />
<glyph glyph-name="lslash" unicode="&#x142;" horiz-adv-x="319" d="M282 561 C293 612 297 649 297 680 C297 705 294 721 291 730 L278 730 L93 704 L83 659 C124 658 142 647 142 612 C142 601 140 588 137 572 L95 376 L28 350 L11 289 L82 317 L44 141 C39 119 37 97 37 83 C37 24 65 -9 131 -9 C178 -9 221 3 265 26 L261 67 C248 66 237 65 228 65 C196 65 185 74 185 97 C185 107 187 121 191 138 L243 382 L321 413 L338 474 L256 441 L282 561 Z " />
<glyph glyph-name="Nacute" unicode="&#x143;" horiz-adv-x="698" d="M335 760 L358 723 L605 795 L540 925 L335 760 Z M558 0 L669 575 C680 632 698 646 750 647 L758 695 L539 695 L530 647 C572 646 589 637 589 606 C589 597 587 586 585 575 L546 376 C531 299 524 232 523 217 L517 217 C516 233 507 296 480 358 L334 695 L117 695 L108 647 C150 646 167 637 167 606 C167 599 165 587 163 575 L74 117 C63 60 44 46 -10 46 L-18 0 L205 0 L213 46 C172 46 155 55 155 86 C155 95 157 107 159 117 L210 382 C218 422 229 517 232 553 L238 553 C239 541 247 480 289 386 L459 0 L558 0 Z " />
<glyph glyph-name="nacute" unicode="&#x144;" horiz-adv-x="591" d="M240 593 L266 558 L506 654 L428 779 L240 593 Z M345 141 C340 119 337 99 337 81 C337 23 366 -9 432 -9 C477 -9 519 3 563 26 L560 67 C547 66 536 65 527 65 C496 65 485 74 485 97 C485 108 487 121 491 138 L545 375 C549 391 550 406 550 420 C550 479 519 522 451 522 C370 522 302 465 251 383 C253 397 254 409 254 421 C254 488 225 515 178 515 C129 515 86 499 52 482 L43 443 C93 442 112 428 112 395 C112 387 111 379 109 369 L30 0 L175 0 L238 294 C278 354 327 404 367 404 C389 404 397 392 397 373 C397 366 396 358 394 349 L345 141 Z " />
<glyph glyph-name="Ncommaaccent" unicode="&#x145;" horiz-adv-x="698" d="M558 0 L669 575 C680 632 698 646 750 647 L758 695 L539 695 L530 647 C572 646 589 637 589 606 C589 597 587 586 585 575 L546 376 C531 299 524 232 523 217 L517 217 C516 233 507 296 480 358 L334 695 L117 695 L108 647 C150 646 167 637 167 606 C167 599 165 587 163 575 L74 117 C63 60 44 46 -10 46 L-18 0 L205 0 L213 46 C172 46 155 55 155 86 C155 95 157 107 159 117 L210 382 C218 422 229 517 232 553 L238 553 C239 541 247 480 289 386 L459 0 L558 0 Z M375 -133 C375 -85 347 -44 293 -44 C245 -44 214 -74 214 -111 C214 -145 231 -160 250 -169 C266 -176 272 -182 272 -193 C272 -218 240 -234 186 -251 L204 -286 C291 -271 375 -218 375 -133 L375 -133 Z " />
<glyph glyph-name="ncommaaccent" unicode="&#x146;" horiz-adv-x="591" d="M345 141 C340 119 337 99 337 81 C337 23 366 -9 432 -9 C477 -9 519 3 563 26 L560 67 C547 66 536 65 527 65 C496 65 485 74 485 97 C485 108 487 121 491 138 L545 375 C549 391 550 406 550 420 C550 479 519 522 451 522 C370 522 302 465 251 383 C253 397 254 409 254 421 C254 488 225 515 178 515 C129 515 86 499 52 482 L43 443 C93 442 112 428 112 395 C112 387 111 379 109 369 L30 0 L175 0 L238 294 C278 354 327 404 367 404 C389 404 397 392 397 373 C397 366 396 358 394 349 L345 141 Z M330 -133 C330 -85 302 -44 248 -44 C200 -44 169 -74 169 -111 C169 -145 186 -160 205 -169 C221 -176 227 -182 227 -193 C227 -218 195 -234 141 -251 L159 -286 C246 -271 330 -218 330 -133 L330 -133 Z " />
<glyph glyph-name="Ncaron" unicode="&#x147;" horiz-adv-x="698" d="M452 861 L318 941 L293 908 L429 730 L639 904 L617 939 L452 861 Z M558 0 L669 575 C680 632 698 646 750 647 L758 695 L539 695 L530 647 C572 646 589 637 589 606 C589 597 587 586 585 575 L546 376 C531 299 524 232 523 217 L517 217 C516 233 507 296 480 358 L334 695 L117 695 L108 647 C150 646 167 637 167 606 C167 599 165 587 163 575 L74 117 C63 60 44 46 -10 46 L-18 0 L205 0 L213 46 C172 46 155 55 155 86 C155 95 157 107 159 117 L210 382 C218 422 229 517 232 553 L238 553 C239 541 247 480 289 386 L459 0 L558 0 Z " />
<glyph glyph-name="ncaron" unicode="&#x148;" horiz-adv-x="591" d="M352 682 L220 762 L194 729 L330 551 L540 725 L519 760 L352 682 Z M345 141 C340 119 337 99 337 81 C337 23 366 -9 432 -9 C477 -9 519 3 563 26 L560 67 C547 66 536 65 527 65 C496 65 485 74 485 97 C485 108 487 121 491 138 L545 375 C549 391 550 406 550 420 C550 479 519 522 451 522 C370 522 302 465 251 383 C253 397 254 409 254 421 C254 488 225 515 178 515 C129 515 86 499 52 482 L43 443 C93 442 112 428 112 395 C112 387 111 379 109 369 L30 0 L175 0 L238 294 C278 354 327 404 367 404 C389 404 397 392 397 373 C397 366 396 358 394 349 L345 141 Z " />
<glyph glyph-name="napostrophe" unicode="&#x149;" horiz-adv-x="591" d="M63 621 C63 669 34 711 -20 711 C-67 711 -98 680 -98 643 C-98 608 -81 592 -60 584 C-45 578 -40 572 -40 561 C-40 536 -75 519 -129 501 L-112 466 C-25 481 63 534 63 621 L63 621 Z M345 141 C340 119 337 99 337 81 C337 23 366 -9 432 -9 C477 -9 519 3 563 26 L560 67 C547 66 536 65 527 65 C496 65 485 74 485 97 C485 108 487 121 491 138 L545 375 C549 391 550 406 550 420 C550 479 519 522 451 522 C370 522 302 465 251 383 C253 397 254 409 254 421 C254 488 225 515 178 515 C129 515 86 499 52 482 L43 443 C93 442 112 428 112 395 C112 387 111 379 109 369 L30 0 L175 0 L238 294 C278 354 327 404 367 404 C389 404 397 392 397 373 C397 366 396 358 394 349 L345 141 Z " />
<glyph glyph-name="Eng" unicode="&#x14a;" horiz-adv-x="698" d="M669 575 C680 632 698 646 750 647 L758 695 L539 695 L530 647 C572 646 589 637 589 606 C589 597 587 586 585 575 L546 376 C531 299 524 232 523 217 L517 217 C517 229 511 288 480 358 L334 695 L117 695 L108 647 C150 646 167 637 167 606 C167 599 165 587 163 575 L74 117 C63 60 44 46 -10 46 L-18 0 L205 0 L213 46 C172 46 155 55 155 86 C155 95 157 107 159 117 L210 382 C218 422 229 517 232 553 L238 553 C239 541 247 480 289 386 L437 49 C415 -59 385 -108 285 -139 L300 -185 C457 -172 536 -114 566 42 L669 575 Z " />
<glyph glyph-name="eng" unicode="&#x14b;" horiz-adv-x="574" d="M545 375 C549 391 550 406 550 420 C550 479 519 522 451 522 C370 522 302 465 251 383 C253 397 254 409 254 421 C254 488 225 515 178 515 C129 515 86 499 52 482 L43 443 C93 442 112 428 112 395 C112 387 111 379 109 369 L30 0 L175 0 L238 294 C278 354 327 404 367 404 C389 404 397 392 397 373 C397 366 396 358 394 349 L325 13 C304 -90 281 -119 194 -149 L210 -204 C368 -176 443 -123 468 1 L545 375 Z " />
<glyph glyph-name="Omacron" unicode="&#x14c;" horiz-adv-x="703" d="M580 773 L596 851 L294 851 L278 773 L580 773 Z M679 423 C679 605 574 706 409 706 C164 706 50 467 50 270 C50 104 141 -14 319 -14 C570 -14 679 219 679 423 L679 423 Z M513 472 C513 365 489 203 431 116 C403 73 370 53 318 53 C245 53 215 109 215 212 C215 324 238 477 298 573 C323 613 356 636 409 636 C487 636 513 581 513 472 L513 472 Z " />
<glyph glyph-name="omacron" unicode="&#x14d;" horiz-adv-x="552" d="M484 601 L500 679 L198 679 L182 601 L484 601 Z M527 314 C527 452 441 522 317 522 C131 522 31 357 31 191 C31 67 111 -14 238 -14 C433 -14 527 145 527 314 L527 314 Z M376 364 C376 273 352 167 323 111 C301 61 272 49 243 49 C200 49 181 79 181 134 C181 221 203 326 231 391 C253 440 279 457 313 457 C357 457 376 427 376 364 L376 364 Z " />
<glyph glyph-name="Obreve" unicode="&#x14e;" horiz-adv-x="703" d="M421 744 C517 744 577 829 610 906 L573 928 C532 877 488 846 429 846 C371 846 340 871 319 926 L279 909 C284 829 325 744 421 744 L421 744 Z M679 423 C679 605 574 706 409 706 C164 706 50 467 50 270 C50 104 141 -14 319 -14 C570 -14 679 219 679 423 L679 423 Z M513 472 C513 365 489 203 431 116 C403 73 370 53 318 53 C245 53 215 109 215 212 C215 324 238 477 298 573 C323 613 356 636 409 636 C487 636 513 581 513 472 L513 472 Z " />
<glyph glyph-name="obreve" unicode="&#x14f;" horiz-adv-x="552" d="M527 314 C527 452 441 522 317 522 C131 522 31 357 31 191 C31 67 111 -14 238 -14 C433 -14 527 145 527 314 L527 314 Z M376 364 C376 273 352 167 323 111 C301 61 272 49 243 49 C200 49 181 79 181 134 C181 221 203 326 231 391 C253 440 279 457 313 457 C357 457 376 427 376 364 L376 364 Z M329 565 C426 565 483 648 516 727 L480 749 C438 698 396 667 336 667 C278 667 246 692 226 747 L185 732 C192 652 230 565 329 565 L329 565 Z " />
<glyph glyph-name="Ohungarumlaut" unicode="&#x150;" horiz-adv-x="703" d="M494 928 L375 973 L303 756 L352 735 L494 928 Z M673 895 L562 962 L465 753 L509 727 L673 895 Z M679 423 C679 605 574 706 409 706 C164 706 50 467 50 270 C50 104 141 -14 319 -14 C570 -14 679 219 679 423 L679 423 Z M513 472 C513 365 489 203 431 116 C403 73 370 53 318 53 C245 53 215 109 215 212 C215 324 238 477 298 573 C323 613 356 636 409 636 C487 636 513 581 513 472 L513 472 Z " />
<glyph glyph-name="ohungarumlaut" unicode="&#x151;" horiz-adv-x="552" d="M410 763 L291 808 L214 581 L263 561 L410 763 Z M590 730 L479 797 L376 578 L420 552 L590 730 Z M527 314 C527 452 441 522 317 522 C131 522 31 357 31 191 C31 67 111 -14 238 -14 C433 -14 527 145 527 314 L527 314 Z M376 364 C376 273 352 167 323 111 C301 61 272 49 243 49 C200 49 181 79 181 134 C181 221 203 326 231 391 C253 440 279 457 313 457 C357 457 376 427 376 364 L376 364 Z " />
<glyph glyph-name="OE" unicode="&#x152;" horiz-adv-x="942" d="M855 0 L890 183 L814 183 C788 90 759 67 693 67 L570 67 L619 319 L680 319 C732 319 750 307 750 271 C750 264 749 256 748 248 L814 248 L855 457 L789 457 C773 400 755 386 693 386 L632 386 L678 624 L786 624 C856 624 863 602 871 526 L945 526 L966 695 L448 695 C198 695 50 504 50 273 C50 88 170 0 352 0 L855 0 Z M413 67 L360 67 C263 67 214 131 214 235 C214 348 241 467 290 542 C332 607 387 624 460 624 L521 624 L413 67 Z " />
<glyph glyph-name="oe" unicode="&#x153;" horiz-adv-x="845" d="M510 172 C510 188 511 204 513 216 L537 216 C692 216 834 255 834 384 C834 482 762 522 660 522 C589 522 525 492 481 444 C447 493 387 522 317 522 C131 522 31 357 31 191 C31 67 111 -14 238 -14 C308 -14 369 8 410 49 C436 8 490 -14 557 -14 C647 -14 724 24 780 89 L749 132 C702 90 658 74 602 74 C540 74 510 112 510 172 L510 172 Z M376 364 C376 273 352 167 323 111 C301 61 272 49 243 49 C200 49 181 79 181 134 C181 221 203 326 231 391 C253 440 279 457 313 457 C357 457 376 427 376 364 L376 364 Z M698 403 C698 318 639 277 527 277 L523 277 C545 384 593 457 651 457 C680 457 698 436 698 403 L698 403 Z " />
<glyph glyph-name="Racute" unicode="&#x154;" horiz-adv-x="656" d="M279 760 L302 723 L549 795 L484 925 L279 760 Z M329 624 L374 624 C445 624 475 598 475 526 C475 426 424 362 331 362 L279 362 L329 624 Z M265 292 C315 286 338 272 361 207 C386 136 400 87 424 0 L617 0 L625 46 C584 46 573 66 560 104 C540 164 527 201 506 237 C487 271 449 297 413 308 L413 312 C540 326 636 395 636 528 C636 643 553 695 408 695 L117 695 L108 647 C150 646 167 637 167 606 C167 597 165 585 163 575 L74 117 C63 60 44 46 -10 46 L-18 0 L278 0 L286 46 C244 46 227 55 227 86 C227 93 229 105 231 117 L265 292 Z " />
<glyph glyph-name="racute" unicode="&#x155;" horiz-adv-x="420" d="M185 593 L211 558 L451 654 L373 779 L185 593 Z M30 0 L175 0 L220 210 C247 340 296 372 362 372 C383 372 397 369 417 361 L453 512 C437 520 425 522 407 522 C341 522 284 457 247 373 C249 388 250 401 250 413 C250 480 224 515 178 515 C129 515 86 499 52 482 L43 443 C93 442 112 428 112 395 C112 387 111 379 109 369 L30 0 Z " />
<glyph glyph-name="Rcommaaccent" unicode="&#x156;" horiz-adv-x="656" d="M329 624 L374 624 C445 624 475 598 475 526 C475 426 424 362 331 362 L279 362 L329 624 Z M265 292 C315 286 338 272 361 207 C386 136 400 87 424 0 L617 0 L625 46 C584 46 573 66 560 104 C540 164 527 201 506 237 C487 271 449 297 413 308 L413 312 C540 326 636 395 636 528 C636 643 553 695 408 695 L117 695 L108 647 C150 646 167 637 167 606 C167 597 165 585 163 575 L74 117 C63 60 44 46 -10 46 L-18 0 L278 0 L286 46 C244 46 227 55 227 86 C227 93 229 105 231 117 L265 292 Z M373 -133 C373 -85 345 -44 291 -44 C243 -44 212 -74 212 -111 C212 -145 229 -160 248 -169 C264 -176 270 -182 270 -193 C270 -218 238 -234 184 -251 L202 -286 C289 -271 373 -218 373 -133 L373 -133 Z " />
<glyph glyph-name="rcommaaccent" unicode="&#x157;" horiz-adv-x="420" d="M30 0 L175 0 L220 210 C247 340 296 372 362 372 C383 372 397 369 417 361 L453 512 C437 520 425 522 407 522 C341 522 284 457 247 373 C249 388 250 401 250 413 C250 480 224 515 178 515 C129 515 86 499 52 482 L43 443 C93 442 112 428 112 395 C112 387 111 379 109 369 L30 0 Z M160 -133 C160 -85 132 -44 78 -44 C30 -44 -1 -74 -1 -111 C-1 -145 16 -160 35 -169 C51 -176 57 -182 57 -193 C57 -218 25 -234 -29 -251 L-11 -286 C76 -271 160 -218 160 -133 L160 -133 Z " />
<glyph glyph-name="Rcaron" unicode="&#x158;" horiz-adv-x="656" d="M396 861 L262 941 L237 908 L373 730 L583 904 L561 939 L396 861 Z M329 624 L374 624 C445 624 475 598 475 526 C475 426 424 362 331 362 L279 362 L329 624 Z M265 292 C315 286 338 272 361 207 C386 136 400 87 424 0 L617 0 L625 46 C584 46 573 66 560 104 C540 164 527 201 506 237 C487 271 449 297 413 308 L413 312 C540 326 636 395 636 528 C636 643 553 695 408 695 L117 695 L108 647 C150 646 167 637 167 606 C167 597 165 585 163 575 L74 117 C63 60 44 46 -10 46 L-18 0 L278 0 L286 46 C244 46 227 55 227 86 C227 93 229 105 231 117 L265 292 Z " />
<glyph glyph-name="rcaron" unicode="&#x159;" horiz-adv-x="420" d="M295 682 L163 762 L137 729 L273 551 L483 725 L462 760 L295 682 Z M30 0 L175 0 L220 210 C247 340 296 372 362 372 C383 372 397 369 417 361 L453 512 C437 520 425 522 407 522 C341 522 284 457 247 373 C249 388 250 401 250 413 C250 480 224 515 178 515 C129 515 86 499 52 482 L43 443 C93 442 112 428 112 395 C112 387 111 379 109 369 L30 0 Z " />
<glyph glyph-name="Sacute" unicode="&#x15a;" horiz-adv-x="537" d="M235 45 C153 45 125 92 125 177 L125 186 L23 186 L-2 48 C30 19 105 -14 226 -14 C388 -14 500 71 500 220 C500 328 440 373 358 409 L292 438 C245 459 211 486 211 541 C211 602 253 643 320 643 C392 643 420 603 420 525 L420 517 L518 517 L544 652 C516 671 456 706 334 706 C184 706 80 622 80 485 C80 393 128 338 201 305 L265 276 C328 248 354 220 354 161 C354 83 305 45 235 45 L235 45 Z M231 760 L254 723 L501 795 L436 925 L231 760 Z " />
<glyph glyph-name="sacute" unicode="&#x15b;" horiz-adv-x="456" d="M168 593 L194 558 L434 654 L356 779 L168 593 Z M177 -14 C322 -14 410 57 410 170 C410 250 369 291 282 320 L238 335 C200 348 180 364 180 392 C180 436 217 460 261 460 C316 460 334 428 335 377 L423 377 L441 483 C410 500 359 522 276 522 C156 522 61 461 61 345 C61 265 105 225 174 202 L217 187 C258 172 282 157 282 120 C282 65 239 50 190 50 C132 50 110 80 110 136 L110 140 L19 140 L2 32 C28 13 80 -14 177 -14 L177 -14 Z " />
<glyph glyph-name="Scircumflex" unicode="&#x15c;" horiz-adv-x="537" d="M363 808 L497 729 L522 761 L386 940 L176 766 L197 730 L363 808 Z M235 45 C153 45 125 92 125 177 L125 186 L23 186 L-2 48 C30 19 105 -14 226 -14 C388 -14 500 71 500 220 C500 328 440 373 358 409 L292 438 C245 459 211 486 211 541 C211 602 253 643 320 643 C392 643 420 603 420 525 L420 517 L518 517 L544 652 C516 671 456 706 334 706 C184 706 80 622 80 485 C80 393 128 338 201 305 L265 276 C328 248 354 220 354 161 C354 83 305 45 235 45 L235 45 Z " />
<glyph glyph-name="scircumflex" unicode="&#x15d;" horiz-adv-x="456" d="M308 635 L442 556 L467 588 L331 767 L121 593 L143 557 L308 635 Z M177 -14 C322 -14 410 57 410 170 C410 250 369 291 282 320 L238 335 C200 348 180 364 180 392 C180 436 217 460 261 460 C316 460 334 428 335 377 L423 377 L441 483 C410 500 359 522 276 522 C156 522 61 461 61 345 C61 265 105 225 174 202 L217 187 C258 172 282 157 282 120 C282 65 239 50 190 50 C132 50 110 80 110 136 L110 140 L19 140 L2 32 C28 13 80 -14 177 -14 L177 -14 Z " />
<glyph glyph-name="Scedilla" unicode="&#x15e;" horiz-adv-x="537" d="M309 -119 C309 -74 278 -45 214 -41 L226 -14 C388 -14 500 71 500 220 C500 328 440 373 358 409 L292 438 C245 459 211 486 211 541 C211 602 253 643 320 643 C392 643 420 603 420 525 L420 517 L518 517 L544 652 C516 671 456 706 334 706 C184 706 80 622 80 485 C80 393 128 338 201 305 L265 276 C328 248 354 220 354 161 C354 83 305 45 235 45 C153 45 125 92 125 177 L125 186 L23 186 L-2 48 C26 23 86 -5 180 -12 L152 -77 L151 -98 C186 -99 212 -107 212 -130 C212 -152 198 -158 176 -158 C154 -158 132 -154 110 -140 L93 -179 C112 -192 145 -204 191 -204 C265 -204 309 -179 309 -119 L309 -119 Z " />
<glyph glyph-name="scedilla" unicode="&#x15f;" horiz-adv-x="456" d="M271 -119 C271 -74 240 -45 176 -41 L188 -14 C326 -10 410 60 410 170 C410 250 369 291 282 320 L238 335 C200 348 180 364 180 392 C180 436 217 460 261 460 C316 460 334 428 335 377 L423 377 L441 483 C410 500 359 522 276 522 C156 522 61 461 61 345 C61 265 105 225 174 202 L217 187 C258 172 282 157 282 120 C282 65 239 50 190 50 C132 50 110 80 110 136 L110 140 L19 140 L2 32 C24 15 67 -7 142 -13 L114 -77 L113 -98 C148 -99 174 -107 174 -130 C174 -152 160 -158 138 -158 C116 -158 94 -154 72 -140 L55 -179 C74 -192 107 -204 153 -204 C227 -204 271 -179 271 -119 L271 -119 Z " />
<glyph glyph-name="Scaron" unicode="&#x160;" horiz-adv-x="537" d="M354 861 L220 941 L195 908 L331 730 L541 904 L519 939 L354 861 Z M235 45 C153 45 125 92 125 177 L125 186 L23 186 L-2 48 C30 19 105 -14 226 -14 C388 -14 500 71 500 220 C500 328 440 373 358 409 L292 438 C245 459 211 486 211 541 C211 602 253 643 320 643 C392 643 420 603 420 525 L420 517 L518 517 L544 652 C516 671 456 706 334 706 C184 706 80 622 80 485 C80 393 128 338 201 305 L265 276 C328 248 354 220 354 161 C354 83 305 45 235 45 L235 45 Z " />
<glyph glyph-name="scaron" unicode="&#x161;" horiz-adv-x="456" d="M292 682 L160 762 L134 729 L270 551 L480 725 L459 760 L292 682 Z M177 -14 C322 -14 410 57 410 170 C410 250 369 291 282 320 L238 335 C200 348 180 364 180 392 C180 436 217 460 261 460 C316 460 334 428 335 377 L423 377 L441 483 C410 500 359 522 276 522 C156 522 61 461 61 345 C61 265 105 225 174 202 L217 187 C258 172 282 157 282 120 C282 65 239 50 190 50 C132 50 110 80 110 136 L110 140 L19 140 L2 32 C28 13 80 -14 177 -14 L177 -14 Z " />
<glyph glyph-name="Tcommaaccent" unicode="&#x162;" horiz-adv-x="615" d="M113 695 L68 509 L144 509 C178 594 191 624 257 624 L299 624 L201 117 C190 60 170 46 109 46 L101 0 L232 0 L198 -77 L197 -98 C232 -99 258 -107 258 -130 C258 -152 244 -158 222 -158 C200 -158 178 -154 156 -140 L139 -179 C158 -192 191 -204 237 -204 C311 -204 355 -179 355 -119 C355 -74 324 -45 260 -41 L278 0 L413 0 L422 46 C374 46 355 55 355 87 C355 95 356 104 359 117 L457 624 L500 624 C561 624 564 596 568 509 L643 509 L670 695 L113 695 Z " />
<glyph glyph-name="tcommaaccent" unicode="&#x163;" horiz-adv-x="356" d="M247 -119 C247 -74 216 -45 152 -41 L164 -14 L170 -14 C221 -14 275 0 317 29 L309 76 C287 68 261 63 243 63 C206 63 192 79 192 114 C192 128 194 143 198 163 L256 436 L362 436 L391 509 L272 509 C284 560 303 624 317 659 L220 651 C181 619 152 559 133 509 L62 486 L52 436 L111 436 L53 161 C47 133 44 111 44 90 C44 40 69 4 120 -8 L90 -77 L89 -98 C124 -99 150 -107 150 -130 C150 -152 136 -158 114 -158 C92 -158 70 -154 48 -140 L31 -179 C50 -192 83 -204 129 -204 C203 -204 247 -179 247 -119 L247 -119 Z " />
<glyph glyph-name="Tcaron" unicode="&#x164;" horiz-adv-x="615" d="M404 861 L270 941 L245 908 L381 730 L591 904 L569 939 L404 861 Z M113 695 L68 509 L144 509 C178 594 191 624 257 624 L299 624 L201 117 C190 60 170 46 109 46 L101 0 L413 0 L422 46 C374 46 355 55 355 87 C355 95 356 104 359 117 L457 624 L500 624 C561 624 564 596 568 509 L643 509 L670 695 L113 695 Z " />
<glyph glyph-name="tcaron" unicode="&#x165;" horiz-adv-x="356" d="M391 509 L272 509 C284 560 303 624 317 659 L220 651 C181 619 152 559 133 509 L62 486 L52 436 L111 436 L53 161 C47 133 44 111 44 90 C44 26 85 -14 170 -14 C221 -14 275 0 317 29 L309 76 C287 68 261 63 243 63 C206 63 192 79 192 114 C192 128 194 143 198 163 L256 436 L362 436 L391 509 Z M485 724 L371 737 L345 556 L404 547 L485 724 Z " />
<glyph glyph-name="Tbar" unicode="&#x166;" horiz-adv-x="615" d="M113 695 L68 509 L144 509 C178 594 191 624 257 624 L299 624 L254 390 L144 390 L130 316 L239 316 L201 117 C190 60 170 46 109 46 L101 0 L413 0 L422 46 C374 46 355 55 355 87 C355 95 356 104 359 117 L397 316 L518 316 L532 390 L412 390 L457 624 L500 624 C561 624 564 596 568 509 L643 509 L670 695 L113 695 Z " />
<glyph glyph-name="tbar" unicode="&#x167;" horiz-adv-x="356" d="M391 509 L272 509 C284 560 303 624 317 659 L220 651 C181 619 152 559 133 509 L62 486 L52 436 L111 436 L92 345 L32 345 L17 280 L78 280 L53 161 C47 133 44 111 44 90 C44 26 85 -14 170 -14 C221 -14 275 0 317 29 L309 76 C287 68 261 63 243 63 C206 63 192 79 192 114 C192 128 194 143 198 163 L223 280 L337 280 L351 345 L236 345 L256 436 L362 436 L391 509 Z " />
<glyph glyph-name="Utilde" unicode="&#x168;" horiz-adv-x="685" d="M353 68 C273 68 238 100 237 168 C237 191 240 219 246 251 L309 575 C320 632 339 646 393 647 L401 695 L106 695 L97 647 C149 646 163 632 152 575 L91 261 C85 227 82 197 82 170 C84 54 160 -14 327 -14 C482 -14 561 69 592 226 L659 575 C670 632 689 646 740 647 L749 695 L529 695 L520 647 C563 646 580 637 580 607 C580 598 579 590 576 575 L510 231 C489 121 440 68 353 68 L353 68 Z M537 857 C487 857 458 895 398 895 C339 895 297 832 286 761 L321 745 C340 779 361 794 394 794 C438 794 471 758 533 758 C590 758 631 816 649 887 L611 903 C593 868 568 857 537 857 L537 857 Z " />
<glyph glyph-name="utilde" unicode="&#x169;" horiz-adv-x="575" d="M325 99 C325 98 324 89 324 84 C324 24 353 -9 417 -9 C465 -9 507 3 548 26 L545 67 C534 66 525 65 517 65 C483 65 470 75 470 100 C470 110 472 123 475 138 L552 509 L409 509 L344 201 C309 145 263 91 222 91 C201 91 190 100 190 124 C190 133 191 143 194 156 L245 377 C249 394 252 415 252 430 C252 487 221 515 167 515 C117 515 72 498 40 482 L32 443 C80 443 100 430 100 394 C100 383 99 371 95 356 L44 140 C40 122 38 106 38 89 C38 27 71 -14 142 -14 C219 -14 280 30 325 99 L325 99 Z M415 686 C368 686 337 720 281 720 C223 720 182 655 171 584 L206 568 C224 602 245 616 276 616 C318 616 354 585 411 585 C467 585 507 644 525 715 L487 731 C470 697 445 686 415 686 L415 686 Z " />
<glyph glyph-name="Umacron" unicode="&#x16a;" horiz-adv-x="685" d="M353 68 C273 68 238 100 237 168 C237 191 240 219 246 251 L309 575 C320 632 339 646 393 647 L401 695 L106 695 L97 647 C149 646 163 632 152 575 L91 261 C85 227 82 197 82 170 C84 54 160 -14 327 -14 C482 -14 561 69 592 226 L659 575 C670 632 689 646 740 647 L749 695 L529 695 L520 647 C563 646 580 637 580 607 C580 598 579 590 576 575 L510 231 C489 121 440 68 353 68 L353 68 Z M608 773 L624 851 L322 851 L306 773 L608 773 Z " />
<glyph glyph-name="umacron" unicode="&#x16b;" horiz-adv-x="575" d="M325 99 C325 98 324 89 324 84 C324 24 353 -9 417 -9 C465 -9 507 3 548 26 L545 67 C534 66 525 65 517 65 C483 65 470 75 470 100 C470 110 472 123 475 138 L552 509 L409 509 L344 201 C309 145 263 91 222 91 C201 91 190 100 190 124 C190 133 191 143 194 156 L245 377 C249 394 252 415 252 430 C252 487 221 515 167 515 C117 515 72 498 40 482 L32 443 C80 443 100 430 100 394 C100 383 99 371 95 356 L44 140 C40 122 38 106 38 89 C38 27 71 -14 142 -14 C219 -14 280 30 325 99 L325 99 Z M485 601 L501 679 L199 679 L183 601 L485 601 Z " />
<glyph glyph-name="Ubreve" unicode="&#x16c;" horiz-adv-x="685" d="M353 68 C273 68 238 100 237 168 C237 191 240 219 246 251 L309 575 C320 632 339 646 393 647 L401 695 L106 695 L97 647 C149 646 163 632 152 575 L91 261 C85 227 82 197 82 170 C84 54 160 -14 327 -14 C482 -14 561 69 592 226 L659 575 C670 632 689 646 740 647 L749 695 L529 695 L520 647 C563 646 580 637 580 607 C580 598 579 590 576 575 L510 231 C489 121 440 68 353 68 L353 68 Z M458 744 C554 744 614 829 647 906 L610 928 C569 877 525 846 466 846 C408 846 377 871 356 926 L316 909 C321 829 362 744 458 744 L458 744 Z " />
<glyph glyph-name="ubreve" unicode="&#x16d;" horiz-adv-x="575" d="M325 99 C325 98 324 89 324 84 C324 24 353 -9 417 -9 C465 -9 507 3 548 26 L545 67 C534 66 525 65 517 65 C483 65 470 75 470 100 C470 110 472 123 475 138 L552 509 L409 509 L344 201 C309 145 263 91 222 91 C201 91 190 100 190 124 C190 133 191 143 194 156 L245 377 C249 394 252 415 252 430 C252 487 221 515 167 515 C117 515 72 498 40 482 L32 443 C80 443 100 430 100 394 C100 383 99 371 95 356 L44 140 C40 122 38 106 38 89 C38 27 71 -14 142 -14 C219 -14 280 30 325 99 L325 99 Z M326 565 C423 565 480 648 513 727 L477 749 C435 698 393 667 333 667 C275 667 243 692 223 747 L182 732 C189 652 227 565 326 565 L326 565 Z " />
<glyph glyph-name="Uring" unicode="&#x16e;" horiz-adv-x="685" d="M353 68 C273 68 238 100 237 168 C237 191 240 219 246 251 L309 575 C320 632 339 646 393 647 L401 695 L106 695 L97 647 C149 646 163 632 152 575 L91 261 C85 227 82 197 82 170 C84 54 160 -14 327 -14 C482 -14 561 69 592 226 L659 575 C670 632 689 646 740 647 L749 695 L529 695 L520 647 C563 646 580 637 580 607 C580 598 579 590 576 575 L510 231 C489 121 440 68 353 68 L353 68 Z M462 722 C537 722 585 772 585 843 C585 904 544 954 475 954 C401 954 350 903 350 832 C350 771 393 722 462 722 L462 722 Z M470 900 C503 900 523 875 523 841 C523 805 499 778 462 778 C430 778 412 801 412 834 C412 872 434 900 470 900 L470 900 Z " />
<glyph glyph-name="uring" unicode="&#x16f;" horiz-adv-x="575" d="M332 562 C408 562 456 612 456 683 C456 744 414 794 345 794 C271 794 220 743 220 672 C220 611 263 562 332 562 L332 562 Z M341 740 C374 740 394 715 394 681 C394 645 369 618 333 618 C300 618 282 641 282 675 C282 712 305 740 341 740 L341 740 Z M325 99 C325 98 324 89 324 84 C324 24 353 -9 417 -9 C465 -9 507 3 548 26 L545 67 C534 66 525 65 517 65 C483 65 470 75 470 100 C470 110 472 123 475 138 L552 509 L409 509 L344 201 C309 145 263 91 222 91 C201 91 190 100 190 124 C190 133 191 143 194 156 L245 377 C249 394 252 415 252 430 C252 487 221 515 167 515 C117 515 72 498 40 482 L32 443 C80 443 100 430 100 394 C100 383 99 371 95 356 L44 140 C40 122 38 106 38 89 C38 27 71 -14 142 -14 C219 -14 280 30 325 99 L325 99 Z " />
<glyph glyph-name="Uhungarumlaut" unicode="&#x170;" horiz-adv-x="685" d="M533 928 L414 973 L342 756 L391 735 L533 928 Z M712 895 L601 962 L504 753 L548 727 L712 895 Z M353 68 C273 68 238 100 237 168 C237 191 240 219 246 251 L309 575 C320 632 339 646 393 647 L401 695 L106 695 L97 647 C149 646 163 632 152 575 L91 261 C85 227 82 197 82 170 C84 54 160 -14 327 -14 C482 -14 561 69 592 226 L659 575 C670 632 689 646 740 647 L749 695 L529 695 L520 647 C563 646 580 637 580 607 C580 598 579 590 576 575 L510 231 C489 121 440 68 353 68 L353 68 Z " />
<glyph glyph-name="uhungarumlaut" unicode="&#x171;" horiz-adv-x="575" d="M325 99 C325 98 324 89 324 84 C324 24 353 -9 417 -9 C465 -9 507 3 548 26 L545 67 C534 66 525 65 517 65 C483 65 470 75 470 100 C470 110 472 123 475 138 L552 509 L409 509 L344 201 C309 145 263 91 222 91 C201 91 190 100 190 124 C190 133 191 143 194 156 L245 377 C249 394 252 415 252 430 C252 487 221 515 167 515 C117 515 72 498 40 482 L32 443 C80 443 100 430 100 394 C100 383 99 371 95 356 L44 140 C40 122 38 106 38 89 C38 27 71 -14 142 -14 C219 -14 280 30 325 99 L325 99 Z M399 763 L280 808 L203 581 L252 561 L399 763 Z M579 730 L468 797 L365 578 L409 552 L579 730 Z " />
<glyph glyph-name="Uogonek" unicode="&#x172;" horiz-adv-x="685" d="M659 575 C670 632 689 646 740 647 L749 695 L529 695 L520 647 C563 646 580 637 580 607 C580 598 579 590 576 575 L510 231 C489 121 440 68 353 68 C273 68 238 100 237 168 C237 191 240 219 246 251 L309 575 C320 632 339 646 393 647 L401 695 L106 695 L97 647 C149 646 163 632 152 575 L91 261 C85 227 82 197 82 170 C84 56 168 -14 313 -14 C247 -41 203 -74 203 -123 C203 -179 255 -205 315 -205 C365 -205 407 -190 437 -160 L419 -132 C399 -143 388 -147 369 -147 C346 -147 325 -133 325 -104 C325 -45 369 -26 429 2 L446 10 C526 46 570 115 592 226 L659 575 Z " />
<glyph glyph-name="uogonek" unicode="&#x173;" horiz-adv-x="575" d="M545 67 C534 66 525 65 517 65 C483 65 470 75 470 100 C470 110 472 123 475 138 L552 509 L409 509 L344 201 C309 145 263 91 222 91 C201 91 190 100 190 124 C190 133 191 143 194 156 L245 377 C250 397 251 415 251 430 C251 490 221 515 167 515 C117 515 72 498 40 482 L32 443 C80 443 100 430 100 394 C100 383 99 371 95 356 L44 140 C40 122 38 106 38 89 C38 27 71 -14 142 -14 C219 -14 280 30 325 99 C325 97 324 89 324 84 C324 37 347 4 389 -6 C314 -36 268 -71 268 -123 C268 -179 319 -205 380 -205 C430 -205 471 -190 501 -160 L483 -132 C464 -143 452 -147 433 -147 C410 -147 389 -133 389 -104 C389 -37 485 -5 548 26 L545 67 Z " />
<glyph glyph-name="Wcircumflex" unicode="&#x174;" horiz-adv-x="927" d="M595 808 L729 729 L754 761 L618 940 L408 766 L429 730 L595 808 Z M635 695 L518 695 L351 288 C326 228 305 159 301 143 L295 143 C296 158 299 218 299 268 L299 286 L290 590 L290 593 C290 630 308 646 358 647 L367 695 L88 695 L79 647 C117 642 129 634 132 581 L160 0 L309 0 L455 337 C479 393 498 459 502 474 L508 474 C507 463 505 428 505 384 C505 367 505 346 506 329 L523 0 L670 0 L914 577 C936 629 956 641 1001 647 L1009 695 L786 695 L778 647 C815 646 832 639 832 616 C832 607 829 597 824 583 L709 289 C684 226 664 159 660 144 L654 144 C655 154 655 183 655 218 C655 240 655 266 654 287 L635 695 Z " />
<glyph glyph-name="wcircumflex" unicode="&#x175;" horiz-adv-x="765" d="M468 635 L602 556 L627 588 L491 767 L281 593 L303 557 L468 635 Z M117 -2 L235 -2 L389 338 L393 338 C392 331 390 305 390 278 C390 259 391 234 393 211 L411 -2 L520 -2 L784 459 L784 502 L657 516 C655 447 643 379 585 254 L531 140 L525 140 C525 143 526 155 526 163 C526 185 525 222 520 272 L499 509 L390 509 L235 140 L229 140 C230 146 234 170 234 207 C234 224 233 244 231 266 L216 412 C209 486 186 515 134 515 C93 515 42 500 16 484 L8 445 C73 445 77 427 84 350 L117 -2 Z " />
<glyph glyph-name="Ycircumflex" unicode="&#x176;" horiz-adv-x="627" d="M207 117 C197 60 177 46 116 46 L108 0 L420 0 L428 46 C367 46 354 60 365 117 L393 263 L612 585 C645 633 660 642 701 647 L709 695 L492 695 L483 647 C514 646 528 638 528 621 C528 610 523 599 514 584 L366 345 L361 345 L302 583 C292 621 300 646 350 647 L359 695 L88 695 L79 647 C113 642 128 634 142 583 L235 261 L207 117 Z M445 808 L579 729 L604 761 L468 940 L258 766 L279 730 L445 808 Z " />
<glyph glyph-name="ycircumflex" unicode="&#x177;" horiz-adv-x="492" d="M182 13 C139 -73 50 -93 -43 -109 L12 -207 C114 -191 190 -135 257 -11 L511 459 L511 502 L383 516 C382 450 372 362 286 186 L243 98 L237 98 C239 111 243 136 243 179 C243 205 241 236 237 271 L223 381 C211 476 196 515 133 515 C85 515 42 498 15 485 L8 445 C58 445 71 437 81 368 L101 224 C114 134 119 67 121 10 L182 13 Z M313 635 L447 556 L472 588 L336 767 L126 593 L148 557 L313 635 Z " />
<glyph glyph-name="Ydieresis" unicode="&#x178;" horiz-adv-x="627" d="M207 117 C197 60 177 46 116 46 L108 0 L420 0 L428 46 C367 46 354 60 365 117 L393 263 L612 585 C645 633 660 642 701 647 L709 695 L492 695 L483 647 C514 646 528 638 528 621 C528 610 523 599 514 584 L366 345 L361 345 L302 583 C292 621 300 646 350 647 L359 695 L88 695 L79 647 C113 642 128 634 142 583 L235 261 L207 117 Z M400 817 C400 862 365 898 319 898 C273 898 236 862 236 817 C236 773 273 737 318 737 C364 737 400 773 400 817 L400 817 Z M623 817 C623 862 588 898 542 898 C496 898 459 862 459 817 C459 773 496 737 541 737 C587 737 623 773 623 817 L623 817 Z " />
<glyph glyph-name="Zacute" unicode="&#x179;" horiz-adv-x="571" d="M258 760 L281 723 L528 795 L463 925 L258 760 Z M-23 0 L490 0 L538 190 L463 190 C425 100 393 67 316 67 L178 67 L608 639 L619 695 L135 695 L90 517 L168 517 C203 595 232 630 299 630 L420 630 L-13 56 L-23 0 Z " />
<glyph glyph-name="zacute" unicode="&#x17a;" horiz-adv-x="481" d="M188 593 L214 558 L454 654 L376 779 L188 593 Z M492 444 L506 509 L453 509 C425 480 412 471 387 471 C342 471 286 516 208 516 C118 516 70 451 59 330 L105 321 C122 374 155 386 195 386 C228 386 265 380 332 378 L-4 64 L-16 0 L41 0 C59 22 80 33 112 33 C183 33 210 -13 301 -13 C378 -13 427 22 454 173 L414 185 C388 130 365 118 313 118 C285 118 250 127 198 127 C182 127 164 126 144 124 L492 444 Z " />
<glyph glyph-name="Zdotaccent" unicode="&#x17b;" horiz-adv-x="571" d="M-23 0 L490 0 L538 190 L463 190 C425 100 393 67 316 67 L178 67 L608 639 L619 695 L135 695 L90 517 L168 517 C203 595 232 630 299 630 L420 630 L-13 56 L-23 0 Z M472 828 C472 875 435 912 388 912 C340 912 301 875 301 828 C301 781 339 744 386 744 C434 744 472 781 472 828 L472 828 Z " />
<glyph glyph-name="zdotaccent" unicode="&#x17c;" horiz-adv-x="481" d="M492 444 L506 509 L453 509 C425 480 412 471 387 471 C342 471 286 516 208 516 C118 516 70 451 59 330 L105 321 C122 374 155 386 195 386 C228 386 265 380 332 378 L-4 64 L-16 0 L41 0 C59 22 80 33 112 33 C183 33 210 -13 301 -13 C378 -13 427 22 454 173 L414 185 C388 130 365 118 313 118 C285 118 250 127 198 127 C182 127 164 126 144 124 L492 444 Z M404 652 C404 699 367 737 320 737 C272 737 233 699 233 652 C233 606 271 568 318 568 C366 568 404 606 404 652 L404 652 Z " />
<glyph glyph-name="Zcaron" unicode="&#x17d;" horiz-adv-x="571" d="M380 861 L246 941 L221 908 L357 730 L567 904 L545 939 L380 861 Z M-23 0 L490 0 L538 190 L463 190 C425 100 393 67 316 67 L178 67 L608 639 L619 695 L135 695 L90 517 L168 517 C203 595 232 630 299 630 L420 630 L-13 56 L-23 0 Z " />
<glyph glyph-name="zcaron" unicode="&#x17e;" horiz-adv-x="481" d="M314 682 L182 762 L156 729 L292 551 L502 725 L481 760 L314 682 Z M492 444 L506 509 L453 509 C425 480 412 471 387 471 C342 471 286 516 208 516 C118 516 70 451 59 330 L105 321 C122 374 155 386 195 386 C228 386 265 380 332 378 L-4 64 L-16 0 L41 0 C59 22 80 33 112 33 C183 33 210 -13 301 -13 C378 -13 427 22 454 173 L414 185 C388 130 365 118 313 118 C285 118 250 127 198 127 C182 127 164 126 144 124 L492 444 Z " />
<glyph glyph-name="longs" unicode="&#x17f;" horiz-adv-x="351" d="M169 -34 L299 611 C309 658 326 670 348 670 C375 670 381 651 381 614 L471 614 L488 709 C457 724 406 733 357 733 C255 733 170 678 146 573 L131 508 L65 486 L53 436 L116 436 L25 -27 C10 -106 -11 -128 -95 -133 L-95 -171 C-77 -180 -54 -188 -14 -188 C80 -188 148 -136 169 -34 L169 -34 Z " />
<glyph glyph-name="uni018F" unicode="&#x18f;" horiz-adv-x="639" d="M244 -14 C465 -14 616 199 616 442 C616 608 551 707 377 707 C259 707 162 653 88 565 L126 517 C188 572 248 601 319 601 C415 601 454 546 454 457 C454 435 453 413 450 397 C435 398 419 398 404 398 C196 398 20 344 20 164 C20 39 109 -14 244 -14 L244 -14 Z M182 141 C182 269 265 330 427 330 L435 330 C400 148 334 51 252 51 C208 51 182 82 182 141 L182 141 Z " />
<glyph glyph-name="florin" unicode="&#x192;" horiz-adv-x="421" d="M53 368 L125 368 L16 -35 C-6 -118 -37 -138 -99 -152 L-101 -193 C41 -192 137 -134 167 -27 L276 368 L395 368 L410 433 L294 433 L328 558 C347 627 371 646 401 646 C427 646 434 632 434 602 C434 594 434 584 433 574 L521 574 L549 678 C519 695 471 706 407 706 C280 706 204 651 167 518 L144 436 L68 423 L53 368 Z " />
<glyph glyph-name="uni01B5" unicode="&#x1b5;" horiz-adv-x="571" d="M85 328 L192 328 L-13 56 L-23 0 L490 0 L538 190 L463 190 C425 100 393 67 316 67 L178 67 L374 328 L519 328 L529 398 L427 398 L608 639 L619 695 L135 695 L90 517 L168 517 C203 595 232 630 299 630 L420 630 L245 398 L95 398 L85 328 Z " />
<glyph glyph-name="uni01B6" unicode="&#x1b6;" horiz-adv-x="481" d="M492 444 L506 509 L453 509 C425 480 412 471 387 471 C342 471 286 516 208 516 C118 516 70 451 59 330 L105 321 C122 374 155 386 195 386 C228 386 265 380 332 378 L224 277 L98 277 L91 233 L177 233 L-4 64 L-16 0 L41 0 C59 22 80 33 112 33 C183 33 210 -13 301 -13 C378 -13 427 22 454 173 L414 185 C388 130 365 118 313 118 C285 118 250 127 198 127 C182 127 164 126 144 124 L262 233 L397 233 L404 277 L310 277 L492 444 Z " />
<glyph glyph-name="Aringacute" unicode="&#x1fa;" horiz-adv-x="648" d="M394 101 C395 92 395 91 395 87 C395 59 382 48 328 46 L320 0 L604 0 L613 46 C574 51 565 63 557 113 L470 695 L345 695 L45 113 C17 60 -1 51 -45 46 L-53 0 L168 0 L177 46 C138 47 122 56 122 74 C122 83 126 93 132 107 L171 187 L384 187 L394 101 Z M301 452 C327 505 340 537 342 543 L348 543 L348 528 C348 516 348 483 353 444 L374 261 L207 261 L301 452 Z M290 987 L313 950 L560 1022 L495 1152 L290 987 Z M407 720 C482 720 530 770 530 841 C530 902 489 952 420 952 C346 952 295 901 295 830 C295 769 338 720 407 720 L407 720 Z M415 898 C448 898 468 873 468 839 C468 803 444 776 407 776 C375 776 357 799 357 832 C357 870 379 898 415 898 L415 898 Z " />
<glyph glyph-name="aringacute" unicode="&#x1fb;" horiz-adv-x="579" d="M344 522 C176 522 25 333 25 131 C25 39 70 -13 149 -13 C225 -13 283 37 325 103 C325 102 324 94 324 89 C324 25 351 -9 416 -9 C464 -9 505 3 546 26 L543 67 C532 66 522 65 514 65 C481 65 468 74 468 99 C468 109 470 122 474 138 L528 378 C541 434 557 480 571 510 L481 510 C467 498 452 484 441 465 C432 499 399 522 344 522 L344 522 Z M347 450 C371 450 386 443 396 429 L342 201 C302 139 253 81 214 81 C189 81 175 102 175 152 C175 291 254 450 347 450 L347 450 Z M379 549 C455 549 503 599 503 670 C503 731 461 781 392 781 C318 781 267 730 267 659 C267 598 310 549 379 549 L379 549 Z M388 727 C421 727 441 702 441 668 C441 632 416 605 380 605 C347 605 329 628 329 662 C329 699 352 727 388 727 L388 727 Z M273 824 L296 787 L543 859 L478 989 L273 824 Z " />
<glyph glyph-name="AEacute" unicode="&#x1fc;" horiz-adv-x="932" d="M557 760 L580 723 L827 795 L762 925 L557 760 Z M-53 0 L168 0 L177 46 C142 47 128 55 128 70 C128 80 134 92 145 107 L237 235 L436 235 L413 117 C402 60 383 46 329 46 L321 0 L845 0 L880 183 L804 183 C778 90 749 67 683 67 L560 67 L609 319 L670 319 C722 319 740 307 740 271 C740 264 739 256 738 248 L804 248 L845 457 L779 457 C763 400 745 386 683 386 L622 386 L668 624 L776 624 C846 624 853 602 861 526 L935 526 L956 695 L360 695 L351 647 C387 646 408 637 408 617 C408 607 403 596 392 581 L58 113 C23 64 -1 51 -45 46 L-53 0 Z M519 624 L525 624 C519 609 494 535 472 422 L450 310 L292 310 L519 624 Z " />
<glyph glyph-name="aeacute" unicode="&#x1fd;" horiz-adv-x="794" d="M367 593 L393 558 L633 654 L555 779 L367 593 Z M458 172 C458 188 459 212 461 223 L490 223 C646 223 782 256 782 384 C782 482 710 522 608 522 C552 522 493 502 447 465 C422 505 371 522 306 522 C227 522 164 506 112 479 L93 376 L197 376 C212 431 236 455 290 455 C327 455 343 438 343 397 C343 381 341 362 336 338 L327 293 L300 293 C142 293 24 250 24 123 C24 35 81 -14 171 -14 C252 -14 305 28 337 70 C368 16 424 -14 505 -14 C595 -14 672 24 728 89 L697 132 C650 90 606 74 550 74 C488 74 458 112 458 172 L458 172 Z M231 75 C192 75 173 98 173 142 C173 215 229 232 300 232 L315 232 C312 218 311 196 311 184 C311 157 313 138 318 116 C292 91 267 75 231 75 L231 75 Z M646 403 C646 318 588 286 476 286 L471 286 C493 393 541 457 599 457 C627 457 646 436 646 403 L646 403 Z " />
<glyph glyph-name="Oslashacute" unicode="&#x1fe;" horiz-adv-x="703" d="M679 423 C679 507 655 575 611 624 L673 704 L628 736 L570 660 C527 690 472 706 409 706 C164 706 50 467 50 270 C50 191 72 120 117 69 L52 -16 L96 -47 L157 32 C199 3 253 -14 319 -14 C570 -14 679 219 679 423 L679 423 Z M517 472 C517 365 492 203 434 116 C405 73 370 53 318 53 C270 53 239 75 223 118 L516 500 C516 491 517 482 517 472 L517 472 Z M210 212 C210 324 235 477 295 573 C321 613 356 636 409 636 C458 636 488 615 503 573 L210 191 L210 212 Z M328 760 L351 723 L598 795 L533 925 L328 760 Z " />
<glyph glyph-name="oslashacute" unicode="&#x1ff;" horiz-adv-x="552" d="M527 314 C527 377 509 427 477 461 L528 526 L489 555 L439 492 C405 512 364 522 317 522 C131 522 31 357 31 191 C31 130 50 79 85 43 L34 -22 L73 -51 L124 13 C155 -4 194 -14 238 -14 C433 -14 527 145 527 314 L527 314 Z M227 391 C248 440 279 457 313 457 C345 457 365 441 374 409 L177 160 C181 241 201 332 227 391 L227 391 Z M328 111 C304 62 273 49 243 49 C213 49 193 63 183 89 L378 336 C374 252 353 162 328 111 L328 111 Z M222 593 L248 558 L488 654 L410 779 L222 593 Z " />
<glyph glyph-name="Scommaaccent" unicode="&#x218;" horiz-adv-x="537" d="M235 45 C153 45 125 92 125 177 L125 186 L23 186 L-2 48 C30 19 105 -14 226 -14 C388 -14 500 71 500 220 C500 328 440 373 358 409 L292 438 C245 459 211 486 211 541 C211 602 253 643 320 643 C392 643 420 603 420 525 L420 517 L518 517 L544 652 C516 671 456 706 334 706 C184 706 80 622 80 485 C80 393 128 338 201 305 L265 276 C328 248 354 220 354 161 C354 83 305 45 235 45 L235 45 Z M282 -133 C282 -85 254 -44 200 -44 C152 -44 121 -74 121 -111 C121 -145 138 -160 157 -169 C173 -176 179 -182 179 -193 C179 -218 147 -234 93 -251 L111 -286 C198 -271 282 -218 282 -133 L282 -133 Z " />
<glyph glyph-name="scommaaccent" unicode="&#x219;" horiz-adv-x="456" d="M177 -14 C322 -14 410 57 410 170 C410 250 369 291 282 320 L238 335 C200 348 180 364 180 392 C180 436 217 460 261 460 C316 460 334 428 335 377 L423 377 L441 483 C410 500 359 522 276 522 C156 522 61 461 61 345 C61 265 105 225 174 202 L217 187 C258 172 282 157 282 120 C282 65 239 50 190 50 C132 50 110 80 110 136 L110 140 L19 140 L2 32 C28 13 80 -14 177 -14 L177 -14 Z M245 -133 C245 -85 217 -44 163 -44 C115 -44 84 -74 84 -111 C84 -145 101 -160 120 -169 C136 -176 142 -182 142 -193 C142 -218 110 -234 56 -251 L74 -286 C161 -271 245 -218 245 -133 L245 -133 Z " />
<glyph glyph-name="uni021A" unicode="&#x21a;" horiz-adv-x="615" d="M113 695 L68 509 L144 509 C178 594 191 624 257 624 L299 624 L201 117 C190 60 170 46 109 46 L101 0 L413 0 L422 46 C374 46 355 55 355 87 C355 95 356 104 359 117 L457 624 L500 624 C561 624 564 596 568 509 L643 509 L670 695 L113 695 Z M319 -133 C319 -85 291 -44 237 -44 C189 -44 158 -74 158 -111 C158 -145 175 -160 194 -169 C210 -176 216 -182 216 -193 C216 -218 184 -234 130 -251 L148 -286 C235 -271 319 -218 319 -133 L319 -133 Z " />
<glyph glyph-name="uni021B" unicode="&#x21b;" horiz-adv-x="356" d="M391 509 L272 509 C284 560 303 624 317 659 L220 651 C181 619 152 559 133 509 L62 486 L52 436 L111 436 L53 161 C47 133 44 111 44 90 C44 26 85 -14 170 -14 C221 -14 275 0 317 29 L309 76 C287 68 261 63 243 63 C206 63 192 79 192 114 C192 128 194 143 198 163 L256 436 L362 436 L391 509 Z M207 -133 C207 -85 179 -44 125 -44 C77 -44 46 -74 46 -111 C46 -145 63 -160 82 -169 C98 -176 104 -182 104 -193 C104 -218 72 -234 18 -251 L36 -286 C123 -271 207 -218 207 -133 L207 -133 Z " />
<glyph glyph-name="uni0237" unicode="&#x237;" horiz-adv-x="284" d="M175 -4 L254 380 C258 400 260 417 260 432 C260 491 231 515 174 515 C126 515 78 498 47 482 L38 443 C88 443 108 429 108 393 C108 383 106 371 103 356 L35 14 C14 -91 -10 -121 -96 -149 L-80 -204 C77 -176 151 -125 175 -4 L175 -4 Z " />
<glyph glyph-name="uni0259" unicode="&#x259;" horiz-adv-x="513" d="M341 336 C341 320 340 303 338 292 L320 292 C163 292 17 254 17 123 C17 25 88 -14 190 -14 C358 -14 489 144 489 324 C489 449 425 522 294 522 C204 522 127 484 71 419 L102 376 C149 417 193 434 249 434 C311 434 341 395 341 336 L341 336 Z M153 105 C153 189 209 230 320 230 L328 230 C306 124 257 51 200 51 C171 51 153 72 153 105 L153 105 Z " />
<glyph glyph-name="uni02BB" unicode="&#x2bb;" horiz-adv-x="256" d="M72 502 C72 447 104 399 171 399 C223 399 259 435 259 481 C259 519 238 535 214 546 C195 555 186 562 186 581 C186 614 229 650 298 670 L276 709 C167 685 72 606 72 502 L72 502 Z " />
<glyph glyph-name="afii57929" unicode="&#x2bc;" horiz-adv-x="256" d="M296 605 C296 660 265 708 198 708 C146 708 110 672 110 626 C110 587 131 571 155 561 C174 552 183 545 183 526 C183 492 140 457 71 436 L93 398 C202 422 296 501 296 605 L296 605 Z " />
<glyph glyph-name="circumflex" unicode="&#x2c6;" horiz-adv-x="525" d="M274 635 L408 556 L433 588 L297 767 L87 593 L109 557 L274 635 Z " />
<glyph glyph-name="caron" unicode="&#x2c7;" horiz-adv-x="501" d="M248 682 L116 762 L90 729 L226 551 L436 725 L415 760 L248 682 Z " />
<glyph glyph-name="breve" unicode="&#x2d8;" horiz-adv-x="473" d="M219 565 C316 565 373 648 406 727 L370 749 C328 698 286 667 226 667 C168 667 136 692 116 747 L75 732 C82 652 120 565 219 565 L219 565 Z " />
<glyph glyph-name="dotaccent" unicode="&#x2d9;" horiz-adv-x="318" d="M244 652 C244 699 207 737 160 737 C112 737 73 699 73 652 C73 606 111 568 158 568 C206 568 244 606 244 652 L244 652 Z " />
<glyph glyph-name="ring" unicode="&#x2da;" horiz-adv-x="381" d="M184 562 C260 562 308 612 308 683 C308 744 266 794 197 794 C123 794 72 743 72 672 C72 611 115 562 184 562 L184 562 Z M193 740 C226 740 246 715 246 681 C246 645 221 618 185 618 C152 618 134 641 134 675 C134 712 157 740 193 740 L193 740 Z " />
<glyph glyph-name="ogonek" unicode="&#x2db;" horiz-adv-x="377" d="M280 -132 C261 -143 249 -147 230 -147 C207 -147 186 -133 186 -104 C186 -64 220 -29 292 4 L276 25 C140 -15 65 -53 65 -123 C65 -179 117 -205 177 -205 C227 -205 269 -190 298 -160 L280 -132 Z " />
<glyph glyph-name="tilde" unicode="&#x2dc;" horiz-adv-x="532" d="M333 686 C286 686 255 720 199 720 C141 720 100 655 89 584 L124 568 C142 602 163 616 194 616 C236 616 272 585 329 585 C385 585 425 644 443 715 L405 731 C388 697 363 686 333 686 L333 686 Z " />
<glyph glyph-name="hungarumlaut" unicode="&#x2dd;" horiz-adv-x="530" d="M272 763 L153 808 L76 581 L125 561 L272 763 Z M452 730 L341 797 L238 578 L282 552 L452 730 Z " />
<glyph glyph-name="gravecomb" unicode="&#x300;" horiz-adv-x="1" d="M-92 593 L-280 779 L-357 654 L-117 558 L-92 593 Z " />
<glyph glyph-name="acutecomb" unicode="&#x301;" horiz-adv-x="1" d="M-330 593 L-304 558 L-64 654 L-142 779 L-330 593 Z " />
<glyph glyph-name="uni0302" unicode="&#x302;" horiz-adv-x="1" d="M-201 635 L-67 556 L-42 588 L-178 767 L-388 593 L-366 557 L-201 635 Z " />
<glyph glyph-name="tildecomb" unicode="&#x303;" horiz-adv-x="1" d="M-139 686 C-186 686 -217 720 -273 720 C-331 720 -372 655 -383 584 L-348 568 C-330 602 -309 616 -278 616 C-236 616 -200 585 -143 585 C-87 585 -47 644 -29 715 L-67 731 C-84 697 -109 686 -139 686 L-139 686 Z " />
<glyph glyph-name="uni0304" unicode="&#x304;" horiz-adv-x="1" d="M-80 616 L-64 694 L-366 694 L-382 616 L-80 616 Z " />
<glyph glyph-name="uni0306" unicode="&#x306;" horiz-adv-x="1" d="M-253 551 C-156 551 -99 634 -66 713 L-102 735 C-144 684 -186 653 -246 653 C-304 653 -336 678 -356 733 L-397 718 C-390 638 -352 551 -253 551 L-253 551 Z " />
<glyph glyph-name="uni0307" unicode="&#x307;" horiz-adv-x="1" d="M5 655 C5 701 -32 739 -78 739 C-126 739 -164 701 -164 655 C-164 609 -126 572 -80 572 C-33 572 5 609 5 655 L5 655 Z " />
<glyph glyph-name="uni0308" unicode="&#x308;" horiz-adv-x="1" d="M-295 646 C-295 692 -331 727 -376 727 C-422 727 -460 692 -460 646 C-460 602 -423 566 -378 566 C-332 566 -295 602 -295 646 L-295 646 Z M-72 646 C-72 692 -108 727 -153 727 C-199 727 -237 692 -237 646 C-237 602 -200 566 -155 566 C-109 566 -72 602 -72 646 L-72 646 Z " />
<glyph glyph-name="uni030A" unicode="&#x30a;" horiz-adv-x="1" d="M-196 562 C-120 562 -72 612 -72 683 C-72 744 -114 794 -183 794 C-257 794 -308 743 -308 672 C-308 611 -265 562 -196 562 L-196 562 Z M-187 740 C-154 740 -134 715 -134 681 C-134 645 -159 618 -195 618 C-228 618 -246 641 -246 675 C-246 712 -223 740 -187 740 L-187 740 Z " />
<glyph glyph-name="uni030B" unicode="&#x30b;" horiz-adv-x="1" d="M-257 769 L-376 814 L-453 587 L-404 567 L-257 769 Z M-77 736 L-188 803 L-291 584 L-247 558 L-77 736 Z " />
<glyph glyph-name="uni030C" unicode="&#x30c;" horiz-adv-x="1" d="M-166 682 L-298 762 L-324 729 L-188 551 L22 725 L1 760 L-166 682 Z " />
<glyph glyph-name="uni0312" unicode="&#x312;" horiz-adv-x="1" d="M-273 651 C-273 603 -244 561 -190 561 C-143 561 -112 592 -112 629 C-112 664 -129 680 -150 688 C-165 694 -170 700 -170 711 C-170 736 -135 753 -81 771 L-98 806 C-185 791 -273 738 -273 651 L-273 651 Z " />
<glyph glyph-name="uni0313" unicode="&#x313;" horiz-adv-x="1" d="M-89 724 L-203 737 L-229 556 L-170 547 L-89 724 Z " />
<glyph glyph-name="dotbelowcomb" unicode="&#x323;" horiz-adv-x="1" d="M227 -133 C227 -85 189 -45 140 -45 C90 -45 50 -85 50 -133 C50 -182 89 -221 138 -221 C188 -221 227 -182 227 -133 L227 -133 Z " />
<glyph glyph-name="uni0326" unicode="&#x326;" horiz-adv-x="1" d="M262 -133 C262 -85 234 -44 180 -44 C132 -44 101 -74 101 -111 C101 -145 118 -160 137 -169 C153 -176 159 -182 159 -193 C159 -218 127 -234 73 -251 L91 -286 C178 -271 262 -218 262 -133 L262 -133 Z " />
<glyph glyph-name="uni0327" unicode="&#x327;" horiz-adv-x="1" d="M-72 -119 C-72 -74 -103 -45 -167 -41 L-144 10 L-188 16 L-229 -77 L-230 -98 C-195 -99 -169 -107 -169 -130 C-169 -152 -183 -158 -205 -158 C-227 -158 -249 -154 -271 -140 L-288 -179 C-269 -192 -236 -204 -190 -204 C-116 -204 -72 -179 -72 -119 L-72 -119 Z " />
<glyph glyph-name="uni0328" unicode="&#x328;" horiz-adv-x="1" d="M-96 -131 C-115 -142 -127 -146 -146 -146 C-169 -146 -190 -132 -190 -103 C-190 -63 -156 -28 -84 5 L-100 26 C-236 -14 -311 -52 -311 -122 C-311 -178 -259 -204 -199 -204 C-149 -204 -107 -189 -78 -159 L-96 -131 Z " />
<glyph glyph-name="uni0335" unicode="&#x335;" horiz-adv-x="1" d="M-80 214 L-64 292 L-366 292 L-382 214 L-80 214 Z " />
<glyph glyph-name="uni0336" unicode="&#x336;" horiz-adv-x="1" d="M-58 206 L-39 301 L-750 301 L-769 206 L-58 206 Z " />
<glyph glyph-name="uni037E" unicode="&#x37e;" horiz-adv-x="299" d="M262 373 C262 424 220 466 169 466 C117 466 76 424 76 373 C76 321 117 279 169 279 C220 279 262 321 262 373 L262 373 Z M215 60 C215 114 181 163 117 163 C65 163 29 127 29 81 C29 42 50 26 74 15 C93 7 102 -1 102 -19 C102 -53 59 -89 -10 -109 L12 -147 C120 -123 215 -44 215 60 L215 60 Z " />
<glyph glyph-name="tonos" unicode="&#x384;" horiz-adv-x="392" d="M201 554 L300 737 L169 765 L115 558 L201 554 Z " />
<glyph glyph-name="dieresistonos" unicode="&#x385;" horiz-adv-x="490" d="M171 631 C171 673 138 706 96 706 C54 706 20 673 20 631 C20 590 53 557 95 557 C137 557 171 590 171 631 L171 631 Z M470 631 C470 673 438 706 395 706 C353 706 319 673 319 631 C319 590 353 557 394 557 C436 557 470 590 470 631 L470 631 Z M261 561 L336 747 L214 781 L183 565 L261 561 Z " />
<glyph glyph-name="Alphatonos" unicode="&#x386;" horiz-adv-x="648" d="M394 101 C395 92 395 91 395 87 C395 59 382 48 328 46 L320 0 L604 0 L613 46 C574 51 565 63 557 113 L470 695 L345 695 L45 113 C17 60 -1 51 -45 46 L-53 0 L168 0 L177 46 C138 47 122 56 122 74 C122 83 126 93 132 107 L171 187 L384 187 L394 101 Z M301 452 C327 505 340 537 342 543 L348 543 L348 528 C348 516 348 483 353 444 L374 261 L207 261 L301 452 Z M171 501 L267 684 L137 712 L85 505 L171 501 Z " />
<glyph glyph-name="anoteleia" unicode="&#x387;" horiz-adv-x="294" d="M243 289 C243 340 201 382 150 382 C98 382 57 340 57 289 C57 237 98 195 150 195 C201 195 243 237 243 289 L243 289 Z " />
<glyph glyph-name="Epsilontonos" unicode="&#x388;" horiz-adv-x="593" d="M-18 0 L506 0 L541 183 L465 183 C439 90 410 67 344 67 L221 67 L270 319 L332 319 C384 319 401 307 401 271 C401 266 400 255 399 248 L465 248 L506 457 L440 457 C425 400 406 386 344 386 L283 386 L329 624 L437 624 C508 624 514 602 522 526 L596 526 L617 695 L117 695 L108 647 C150 646 167 637 167 606 C167 597 165 585 163 575 L74 117 C63 60 44 46 -10 46 L-18 0 Z M-7 501 L89 684 L-41 712 L-93 505 L-7 501 Z " />
<glyph glyph-name="Etatonos" unicode="&#x389;" horiz-adv-x="750" d="M712 575 C723 632 742 646 795 647 L804 695 L509 695 L500 647 C553 646 566 632 555 575 L519 394 L284 394 L320 575 C331 632 350 646 403 647 L412 695 L117 695 L108 647 C161 646 174 632 163 575 L74 117 C63 60 44 46 -10 46 L-18 0 L278 0 L286 46 C233 46 220 60 231 117 L270 319 L505 319 L466 117 C455 60 436 46 383 46 L375 0 L670 0 L678 46 C625 46 612 60 623 117 L712 575 Z M-5 501 L91 684 L-39 712 L-91 505 L-5 501 Z " />
<glyph glyph-name="Iotatonos" unicode="&#x38a;" horiz-adv-x="358" d="M320 575 C331 632 350 646 403 647 L412 695 L117 695 L108 647 C150 646 167 637 167 606 C167 597 165 585 163 575 L74 117 C63 60 44 46 -10 46 L-18 0 L278 0 L286 46 C233 46 220 60 231 117 L320 575 Z M-7 501 L89 684 L-41 712 L-93 505 L-7 501 Z " />
<glyph glyph-name="Omicrontonos" unicode="&#x38c;" horiz-adv-x="703" d="M679 423 C679 605 574 706 409 706 C164 706 50 467 50 270 C50 104 141 -14 319 -14 C570 -14 679 219 679 423 L679 423 Z M513 472 C513 365 489 203 431 116 C403 73 370 53 318 53 C245 53 215 109 215 212 C215 324 238 477 298 573 C323 613 356 636 409 636 C487 636 513 581 513 472 L513 472 Z M42 501 L138 684 L8 712 L-44 505 L42 501 Z " />
<glyph glyph-name="Upsilontonos" unicode="&#x38e;" horiz-adv-x="627" d="M207 117 C197 60 177 46 116 46 L108 0 L420 0 L428 46 C367 46 354 60 365 117 L393 263 L612 585 C645 633 660 642 701 647 L709 695 L492 695 L483 647 C514 646 528 638 528 621 C528 610 523 599 514 584 L366 345 L361 345 L302 583 C292 621 300 646 350 647 L359 695 L88 695 L79 647 C113 642 128 634 142 583 L235 261 L207 117 Z M-40 501 L56 684 L-74 712 L-126 505 L-40 501 Z " />
<glyph glyph-name="Omegatonos" unicode="&#x38f;" horiz-adv-x="768" d="M452 640 C539 640 570 584 570 497 C570 309 498 169 382 88 L365 0 L650 0 L695 166 L635 166 C604 96 572 91 505 91 L468 91 C579 144 731 264 731 448 C731 600 633 706 458 706 C234 706 91 545 91 355 C91 236 166 138 236 91 L195 91 C128 91 97 96 96 166 L35 166 L15 0 L301 0 L319 88 C268 134 252 203 252 290 C252 444 299 640 452 640 L452 640 Z M70 501 L166 684 L36 712 L-16 505 L70 501 Z " />
<glyph glyph-name="iotadieresistonos" unicode="&#x390;" horiz-adv-x="299" d="M137 631 C137 673 104 706 62 706 C20 706 -14 673 -14 631 C-14 590 19 557 61 557 C103 557 137 590 137 631 L137 631 Z M436 631 C436 673 404 706 361 706 C319 706 285 673 285 631 C285 590 319 557 360 557 C402 557 436 590 436 631 L436 631 Z M227 561 L302 747 L180 781 L149 565 L227 561 Z M39 141 C34 116 31 99 31 81 C31 24 61 -9 126 -9 C176 -9 221 5 259 27 L255 68 C242 66 231 65 221 65 C190 65 179 75 179 98 C179 108 182 124 189 155 L268 518 L241 518 L109 498 C105 463 99 423 86 362 L39 141 Z " />
<glyph glyph-name="Alpha" unicode="&#x391;" horiz-adv-x="648" d="M394 101 C395 92 395 91 395 87 C395 59 382 48 328 46 L320 0 L604 0 L613 46 C574 51 565 63 557 113 L470 695 L345 695 L45 113 C17 60 -1 51 -45 46 L-53 0 L168 0 L177 46 C138 47 122 56 122 74 C122 83 126 93 132 107 L171 187 L384 187 L394 101 Z M301 452 C327 505 340 537 342 543 L348 543 L348 528 C348 516 348 483 353 444 L374 261 L207 261 L301 452 Z " />
<glyph glyph-name="Beta" unicode="&#x392;" horiz-adv-x="641" d="M117 695 L108 647 C150 646 167 637 167 606 C167 597 165 585 163 575 L74 117 C63 60 44 46 -10 46 L-18 0 L279 0 C364 0 420 3 487 32 C564 65 605 125 605 211 C605 289 551 344 450 354 L450 358 C553 366 635 430 635 539 C635 644 561 695 424 695 L117 695 Z M283 387 L329 624 L374 624 C440 624 471 608 471 536 C471 484 456 441 429 415 C404 392 375 387 327 387 L283 387 Z M343 318 C414 318 441 290 441 219 C441 163 425 114 392 90 C364 70 329 67 275 67 L221 67 L270 318 L343 318 Z " />
<glyph glyph-name="Gamma" unicode="&#x393;" horiz-adv-x="556" d="M428 624 C503 624 512 598 516 510 L592 510 L614 695 L116 695 L107 647 C148 646 165 638 165 608 C165 599 163 587 161 575 L73 117 C62 60 43 46 -10 46 L-18 0 L293 0 L301 46 C246 46 226 56 226 86 C226 93 229 110 231 121 L329 624 L428 624 Z " />
<glyph glyph-name="uni0394" unicode="&#x394;" horiz-adv-x="615" d="M549 0 L559 49 L458 695 L335 695 L-12 49 L-21 0 L549 0 Z M90 70 L280 433 C310 490 328 534 332 545 L337 545 C337 534 337 495 345 435 L392 70 L90 70 Z " />
<glyph glyph-name="Epsilon" unicode="&#x395;" horiz-adv-x="593" d="M-18 0 L506 0 L541 183 L465 183 C439 90 410 67 344 67 L221 67 L270 319 L332 319 C384 319 401 307 401 271 C401 266 400 255 399 248 L465 248 L506 457 L440 457 C425 400 406 386 344 386 L283 386 L329 624 L437 624 C508 624 514 602 522 526 L596 526 L617 695 L117 695 L108 647 C150 646 167 637 167 606 C167 597 165 585 163 575 L74 117 C63 60 44 46 -10 46 L-18 0 Z " />
<glyph glyph-name="Zeta" unicode="&#x396;" horiz-adv-x="571" d="M-23 0 L490 0 L538 190 L463 190 C425 100 393 67 316 67 L178 67 L608 639 L619 695 L135 695 L90 517 L168 517 C203 595 232 630 299 630 L420 630 L-13 56 L-23 0 Z " />
<glyph glyph-name="Eta" unicode="&#x397;" horiz-adv-x="750" d="M712 575 C723 632 742 646 795 647 L804 695 L509 695 L500 647 C553 646 566 632 555 575 L519 394 L284 394 L320 575 C331 632 350 646 403 647 L412 695 L117 695 L108 647 C161 646 174 632 163 575 L74 117 C63 60 44 46 -10 46 L-18 0 L278 0 L286 46 C233 46 220 60 231 117 L270 319 L505 319 L466 117 C455 60 436 46 383 46 L375 0 L670 0 L678 46 C625 46 612 60 623 117 L712 575 Z " />
<glyph glyph-name="Theta" unicode="&#x398;" horiz-adv-x="717" d="M326 -14 C585 -14 693 219 693 422 C693 605 582 706 417 706 C158 706 50 474 50 271 C50 90 159 -14 326 -14 L326 -14 Z M325 54 C253 54 200 107 200 220 C200 330 227 479 285 566 C313 608 359 636 417 636 C494 636 542 581 542 472 C542 364 513 209 455 123 C426 80 383 54 325 54 L325 54 Z M241 265 L286 265 C298 306 307 317 355 317 L375 317 C417 317 428 309 428 281 C428 276 428 271 427 265 L471 265 L504 437 L460 437 C448 397 437 386 389 386 L368 386 C328 386 318 394 318 419 C318 423 318 428 319 437 L275 437 L241 265 Z " />
<glyph glyph-name="Iota" unicode="&#x399;" horiz-adv-x="358" d="M320 575 C331 632 350 646 403 647 L412 695 L117 695 L108 647 C150 646 167 637 167 606 C167 597 165 585 163 575 L74 117 C63 60 44 46 -10 46 L-18 0 L278 0 L286 46 C233 46 220 60 231 117 L320 575 Z " />
<glyph glyph-name="Kappa" unicode="&#x39a;" horiz-adv-x="665" d="M602 576 C650 624 675 643 719 648 L728 695 L503 695 L494 648 C520 648 533 638 533 623 C533 613 528 602 514 587 L292 347 L427 0 L631 0 L639 46 C597 49 578 59 562 95 L431 401 L602 576 Z M320 575 C331 632 350 646 403 647 L412 695 L117 695 L108 647 C150 646 167 637 167 606 C167 597 165 586 163 575 L74 117 C63 60 44 46 -10 46 L-18 0 L278 0 L286 46 C244 46 227 55 227 86 C227 93 229 105 231 117 L320 575 Z " />
<glyph glyph-name="Lambda" unicode="&#x39b;" horiz-adv-x="636" d="M-53 0 L167 0 L177 46 C138 48 118 51 118 69 C118 77 123 89 130 103 L299 450 C325 505 335 530 339 541 L345 541 C344 510 347 478 350 448 L383 113 C384 103 385 90 385 87 C385 53 352 48 319 46 L310 0 L592 0 L601 46 C561 51 551 66 545 113 L468 695 L343 695 L44 112 C17 60 0 52 -44 46 L-53 0 Z " />
<glyph glyph-name="Mu" unicode="&#x39c;" horiz-adv-x="889" d="M928 695 L661 695 L488 333 C459 271 441 211 438 198 L432 198 C432 204 433 219 433 239 C433 266 432 296 428 342 L399 695 L141 695 L132 648 C180 645 197 636 197 612 C197 601 195 588 190 572 L66 124 C49 64 36 48 -22 46 L-30 0 L194 0 L203 46 C159 46 142 55 142 81 C142 91 145 103 149 118 L235 427 C248 474 262 550 265 569 L271 569 C271 562 270 542 270 517 C270 488 271 450 274 417 L312 0 L404 0 L621 434 C647 487 672 554 677 569 L683 569 C680 553 668 484 661 432 L618 117 C610 61 601 48 537 46 L529 0 L822 0 L830 46 C773 48 767 66 774 124 L831 572 C838 625 848 644 919 648 L928 695 Z " />
<glyph glyph-name="Nu" unicode="&#x39d;" horiz-adv-x="698" d="M558 0 L669 575 C680 632 698 646 750 647 L758 695 L539 695 L530 647 C572 646 589 637 589 606 C589 597 587 586 585 575 L546 376 C531 299 524 232 523 217 L517 217 C516 233 507 296 480 358 L334 695 L117 695 L108 647 C150 646 167 637 167 606 C167 599 165 587 163 575 L74 117 C63 60 44 46 -10 46 L-18 0 L205 0 L213 46 C172 46 155 55 155 86 C155 95 157 107 159 117 L210 382 C218 422 229 517 232 553 L238 553 C239 541 247 480 289 386 L459 0 L558 0 Z " />
<glyph glyph-name="Xi" unicode="&#x39e;" horiz-adv-x="592" d="M113 254 L179 254 C196 299 211 314 273 314 L336 314 C399 314 407 298 406 254 L472 254 L512 449 L446 449 C429 401 414 389 352 389 L290 389 C227 389 215 404 219 449 L153 449 L113 254 Z M-18 0 L508 0 L553 196 L477 196 C453 123 426 107 362 107 L168 107 C102 107 83 125 88 196 L12 196 L-18 0 Z M83 502 L157 502 C186 571 208 592 278 592 L440 592 C511 592 525 571 527 502 L601 502 L629 695 L129 695 L83 502 Z " />
<glyph glyph-name="Omicron" unicode="&#x39f;" horiz-adv-x="703" d="M679 423 C679 605 574 706 409 706 C164 706 50 467 50 270 C50 104 141 -14 319 -14 C570 -14 679 219 679 423 L679 423 Z M513 472 C513 365 489 203 431 116 C403 73 370 53 318 53 C245 53 215 109 215 212 C215 324 238 477 298 573 C323 613 356 636 409 636 C487 636 513 581 513 472 L513 472 Z " />
<glyph glyph-name="Pi" unicode="&#x3a0;" horiz-adv-x="740" d="M328 623 L554 623 L456 117 C445 60 430 46 377 46 L369 0 L660 0 L668 46 C626 46 609 55 609 86 C609 94 610 104 613 117 L702 575 C713 632 732 646 785 647 L794 695 L116 695 L107 647 C148 646 165 638 165 606 C165 598 163 588 161 575 L73 117 C62 60 43 46 -10 46 L-18 0 L273 0 L281 46 C241 46 226 54 226 83 C226 92 227 101 230 117 L328 623 Z " />
<glyph glyph-name="Rho" unicode="&#x3a1;" horiz-adv-x="610" d="M260 267 L334 267 C397 267 452 273 497 293 C589 332 636 413 636 510 C636 644 556 695 399 695 L117 695 L108 647 C150 646 167 637 167 606 C167 599 165 587 163 575 L74 117 C63 60 44 46 -10 46 L-18 0 L294 0 L302 46 C247 46 228 56 228 89 C228 99 229 107 231 118 L260 267 Z M475 513 C475 446 454 396 422 369 C394 345 363 341 321 341 L274 341 L329 624 L376 624 C450 624 475 589 475 513 L475 513 Z " />
<glyph glyph-name="Sigma" unicode="&#x3a3;" horiz-adv-x="575" d="M413 374 L277 629 L420 629 C493 629 504 603 510 526 L585 526 L605 695 L110 695 L99 637 L258 342 L-16 62 L-27 0 L477 0 L537 210 L462 210 C427 136 406 113 331 113 L150 113 L413 374 Z " />
<glyph glyph-name="Tau" unicode="&#x3a4;" horiz-adv-x="615" d="M113 695 L68 509 L144 509 C178 594 191 624 257 624 L299 624 L201 117 C190 60 170 46 109 46 L101 0 L413 0 L422 46 C374 46 355 55 355 87 C355 95 356 104 359 117 L457 624 L500 624 C561 624 564 596 568 509 L643 509 L670 695 L113 695 Z " />
<glyph glyph-name="Upsilon" unicode="&#x3a5;" horiz-adv-x="627" d="M207 117 C197 60 177 46 116 46 L108 0 L420 0 L428 46 C367 46 354 60 365 117 L393 263 L612 585 C645 633 660 642 701 647 L709 695 L492 695 L483 647 C514 646 528 638 528 621 C528 610 523 599 514 584 L366 345 L361 345 L302 583 C292 621 300 646 350 647 L359 695 L88 695 L79 647 C113 642 128 634 142 583 L235 261 L207 117 Z " />
<glyph glyph-name="Phi" unicode="&#x3a6;" horiz-adv-x="841" d="M223 0 L513 0 L521 46 C472 46 458 63 464 99 C693 101 839 195 839 407 C839 535 743 595 560 597 C570 635 592 646 639 647 L647 695 L358 695 L349 647 C398 647 411 631 406 597 C177 594 31 498 31 292 C31 162 126 101 310 99 C300 57 278 46 231 46 L223 0 Z M323 163 C232 166 190 194 190 275 C190 346 216 440 255 482 C286 515 326 530 395 532 L323 163 Z M475 163 L547 532 C638 530 680 501 680 421 C680 348 653 248 609 207 C578 178 540 165 475 163 L475 163 Z " />
<glyph glyph-name="Chi" unicode="&#x3a7;" horiz-adv-x="671" d="M602 584 C640 629 663 642 703 647 L711 695 L493 695 L484 647 C512 646 525 639 525 625 C525 615 521 605 505 584 L396 446 L390 446 L334 588 C330 598 328 607 328 614 C328 635 345 646 384 647 L393 695 L113 695 L103 647 C136 642 150 632 170 586 L271 348 L81 115 C41 65 17 51 -23 46 L-31 0 L190 0 L198 46 C153 47 135 65 173 114 L300 275 L305 275 L373 109 C377 99 379 91 379 81 C379 59 361 46 323 46 L315 0 L606 0 L614 46 C575 51 559 65 539 111 L424 378 L602 584 Z " />
<glyph glyph-name="Psi" unicode="&#x3a8;" horiz-adv-x="791" d="M103 454 C103 386 120 346 146 317 C182 278 239 258 312 254 L285 117 C274 60 256 46 203 46 L195 0 L487 0 L495 46 C453 46 436 55 436 86 C436 93 438 106 440 117 L466 253 C549 257 623 272 676 313 C720 346 746 402 774 491 C804 586 818 600 864 612 L849 705 C713 697 675 659 632 511 C593 380 559 338 480 329 L529 575 C540 632 553 646 607 647 L615 695 L333 695 L325 647 C364 646 378 638 378 610 C378 601 376 587 374 575 L326 329 C266 338 241 368 241 449 C241 493 247 528 247 564 C247 666 202 698 98 705 L69 619 C98 609 107 595 107 544 C107 513 103 482 103 454 L103 454 Z " />
<glyph glyph-name="uni03A9" unicode="&#x3a9;" horiz-adv-x="768" d="M452 640 C539 640 570 584 570 497 C570 309 498 169 382 88 L365 0 L650 0 L695 166 L635 166 C604 96 572 91 505 91 L468 91 C579 144 731 264 731 448 C731 600 633 706 458 706 C234 706 91 545 91 355 C91 236 166 138 236 91 L195 91 C128 91 97 96 96 166 L35 166 L15 0 L301 0 L319 88 C268 134 252 203 252 290 C252 444 299 640 452 640 L452 640 Z " />
<glyph glyph-name="Iotadieresis" unicode="&#x3aa;" horiz-adv-x="358" d="M320 575 C331 632 350 646 403 647 L412 695 L117 695 L108 647 C150 646 167 637 167 606 C167 597 165 585 163 575 L74 117 C63 60 44 46 -10 46 L-18 0 L278 0 L286 46 C233 46 220 60 231 117 L320 575 Z M257 817 C257 862 222 898 176 898 C130 898 93 862 93 817 C93 773 130 737 175 737 C221 737 257 773 257 817 L257 817 Z M480 817 C480 862 445 898 399 898 C353 898 316 862 316 817 C316 773 353 737 398 737 C444 737 480 773 480 817 L480 817 Z " />
<glyph glyph-name="Upsilondieresis" unicode="&#x3ab;" horiz-adv-x="627" d="M207 117 C197 60 177 46 116 46 L108 0 L420 0 L428 46 C367 46 354 60 365 117 L393 263 L612 585 C645 633 660 642 701 647 L709 695 L492 695 L483 647 C514 646 528 638 528 621 C528 610 523 599 514 584 L366 345 L361 345 L302 583 C292 621 300 646 350 647 L359 695 L88 695 L79 647 C113 642 128 634 142 583 L235 261 L207 117 Z M400 817 C400 862 365 898 319 898 C273 898 236 862 236 817 C236 773 273 737 318 737 C364 737 400 773 400 817 L400 817 Z M623 817 C623 862 588 898 542 898 C496 898 459 862 459 817 C459 773 496 737 541 737 C587 737 623 773 623 817 L623 817 Z " />
<glyph glyph-name="alphatonos" unicode="&#x3ac;" horiz-adv-x="575" d="M356 554 L455 737 L324 765 L270 558 L356 554 Z M567 473 L564 507 L497 520 C483 468 471 436 445 383 L441 383 C431 477 391 522 314 522 C141 522 26 333 26 136 C26 53 66 -14 162 -14 C227 -14 277 20 344 122 L348 122 C351 19 383 -9 439 -9 C482 -9 529 8 559 26 L555 67 C543 65 528 64 523 64 C470 64 461 117 456 273 C496 338 534 409 567 473 L567 473 Z M214 81 C191 81 178 98 178 152 C178 289 237 454 299 454 C332 454 342 411 342 291 L342 226 C269 108 240 81 214 81 L214 81 Z " />
<glyph glyph-name="epsilontonos" unicode="&#x3ad;" horiz-adv-x="490" d="M337 554 L436 737 L305 765 L251 558 L337 554 Z M254 72 C203 72 163 87 163 133 C163 196 203 231 276 231 L322 231 L335 296 L285 296 C240 296 223 315 223 344 C223 404 251 460 315 460 C352 460 370 441 370 401 C370 394 369 384 368 375 L470 375 L492 478 C448 506 380 522 313 522 C177 522 76 469 76 362 C76 320 106 284 171 273 L171 267 C67 259 2 212 2 119 C2 28 92 -12 203 -12 C314 -12 389 26 448 84 L421 125 C372 95 325 72 254 72 L254 72 Z " />
<glyph glyph-name="etatonos" unicode="&#x3ae;" horiz-adv-x="591" d="M390 554 L489 737 L358 765 L304 558 L390 554 Z M67 171 C55 113 40 59 26 30 L26 0 L174 0 C179 16 228 245 238 294 C278 354 326 403 366 403 C387 403 397 392 397 373 C397 366 395 357 393 349 L344 141 C339 119 336 97 336 81 C336 23 366 -9 432 -9 C477 -9 519 3 563 26 L559 67 C548 66 536 65 527 65 C495 65 484 74 484 98 C484 107 486 122 490 138 L543 366 C547 381 550 406 550 420 C550 478 519 522 451 522 C370 522 302 466 252 383 C253 393 254 410 254 420 C254 487 225 515 177 515 C128 515 85 499 51 482 L43 443 C93 442 112 428 112 397 C112 389 110 376 108 366 L67 171 Z " />
<glyph glyph-name="iotatonos" unicode="&#x3af;" horiz-adv-x="299" d="M228 554 L327 737 L196 765 L142 558 L228 554 Z M39 141 C34 116 31 99 31 81 C31 24 61 -9 126 -9 C176 -9 221 5 259 27 L255 68 C242 66 231 65 221 65 C190 65 179 75 179 98 C179 108 182 124 189 155 L268 518 L241 518 L109 498 C105 463 99 423 86 362 L39 141 Z " />
<glyph glyph-name="upsilondieresistonos" unicode="&#x3b0;" horiz-adv-x="588" d="M248 631 C248 673 215 706 173 706 C131 706 97 673 97 631 C97 590 130 557 172 557 C214 557 248 590 248 631 L248 631 Z M547 631 C547 673 515 706 472 706 C430 706 396 673 396 631 C396 590 430 557 471 557 C513 557 547 590 547 631 L547 631 Z M338 561 L413 747 L291 781 L260 565 L338 561 Z M255 370 C262 400 263 418 263 430 C263 482 237 517 172 517 C128 517 83 499 48 482 L40 443 C94 442 107 424 107 392 C107 383 105 367 103 355 L60 150 C56 133 54 118 54 103 C54 28 114 -13 204 -13 C438 -13 555 162 555 376 C555 444 534 499 518 521 L393 501 L387 475 C393 455 400 420 400 377 C400 267 346 49 232 49 C207 49 200 65 200 89 C200 104 201 120 206 141 L255 370 Z " />
<glyph glyph-name="alpha" unicode="&#x3b1;" horiz-adv-x="575" d="M567 473 L564 507 L497 520 C483 468 471 436 445 383 L441 383 C431 477 391 522 314 522 C141 522 26 333 26 136 C26 53 66 -14 162 -14 C227 -14 277 20 344 122 L348 122 C351 19 383 -9 439 -9 C482 -9 529 8 559 26 L555 67 C543 65 528 64 523 64 C470 64 461 117 456 273 C496 338 534 409 567 473 L567 473 Z M214 81 C191 81 178 98 178 152 C178 289 237 454 299 454 C332 454 342 411 342 291 L342 226 C269 108 240 81 214 81 L214 81 Z " />
<glyph glyph-name="beta" unicode="&#x3b2;" horiz-adv-x="567" d="M279 -13 C447 -13 528 95 528 244 C528 322 474 381 397 390 L397 395 C504 418 561 490 561 585 C561 671 497 735 372 735 C232 735 155 669 125 525 L17 11 C2 -59 -15 -121 -37 -175 L-37 -205 L121 -181 L134 -124 C143 -82 157 1 160 22 C190 -1 235 -13 279 -13 L279 -13 Z M271 520 C298 646 323 676 370 676 C400 676 414 654 414 613 C414 527 388 423 310 423 L292 423 L271 363 L285 363 C346 363 376 334 376 265 C376 190 349 48 253 48 C226 48 198 56 176 77 L271 520 Z " />
<glyph glyph-name="gamma" unicode="&#x3b3;" horiz-adv-x="513" d="M106 301 C140 89 145 58 145 -4 C145 -57 124 -95 -22 -108 L-22 -135 L-6 -218 C110 -197 193 -124 278 -5 C376 130 471 296 528 459 L527 502 L403 516 C403 382 385 318 300 154 L250 59 L245 59 C253 96 256 138 256 192 C256 239 252 294 244 363 C231 476 204 515 141 515 C94 515 50 498 24 485 L16 445 C67 445 84 437 106 301 L106 301 Z " />
<glyph glyph-name="delta" unicode="&#x3b4;" horiz-adv-x="563" d="M168 560 C168 520 187 484 226 452 C110 394 31 304 31 160 C31 54 98 -13 243 -13 C429 -13 529 131 529 288 C529 387 464 446 390 491 C304 543 266 569 266 602 C266 641 313 655 348 655 C430 655 459 611 469 545 L530 560 C541 581 549 604 549 629 C549 692 488 735 378 735 C265 735 168 677 168 560 L168 560 Z M185 126 C185 227 215 341 285 410 C345 372 369 343 369 279 C369 236 350 156 322 104 C304 71 279 49 243 49 C199 49 185 81 185 126 L185 126 Z " />
<glyph glyph-name="epsilon" unicode="&#x3b5;" horiz-adv-x="490" d="M254 72 C203 72 163 87 163 133 C163 196 203 231 276 231 L322 231 L335 296 L285 296 C240 296 223 315 223 344 C223 404 251 460 315 460 C352 460 370 441 370 401 C370 394 369 384 368 375 L470 375 L492 478 C448 506 380 522 313 522 C177 522 76 469 76 362 C76 320 106 284 171 273 L171 267 C67 259 2 212 2 119 C2 28 92 -12 203 -12 C314 -12 389 26 448 84 L421 125 C372 95 325 72 254 72 L254 72 Z " />
<glyph glyph-name="zeta" unicode="&#x3b6;" horiz-adv-x="440" d="M261 566 C137 468 29 332 29 180 C29 89 78 26 190 -5 C232 -16 249 -28 249 -51 C249 -93 206 -136 179 -163 L252 -209 C322 -154 406 -85 406 4 C406 59 368 81 296 105 C220 131 190 154 190 211 C190 323 268 480 353 547 C446 548 529 599 564 688 L568 714 L509 730 L363 640 C304 649 272 684 261 741 L205 720 C201 708 199 695 199 683 C199 635 222 589 261 566 L261 566 Z " />
<glyph glyph-name="eta" unicode="&#x3b7;" horiz-adv-x="591" d="M67 171 C55 113 40 59 26 30 L26 0 L174 0 C179 16 228 245 238 294 C278 354 326 403 366 403 C387 403 397 392 397 373 C397 366 395 357 393 349 L344 141 C339 119 336 97 336 81 C336 23 366 -9 432 -9 C477 -9 519 3 563 26 L559 67 C548 66 536 65 527 65 C495 65 484 74 484 98 C484 107 486 122 490 138 L543 366 C547 381 550 406 550 420 C550 478 519 522 451 522 C370 522 302 466 252 383 C253 393 254 410 254 420 C254 487 225 515 177 515 C128 515 85 499 51 482 L43 443 C93 442 112 428 112 397 C112 389 110 376 108 366 L67 171 Z " />
<glyph glyph-name="theta" unicode="&#x3b8;" horiz-adv-x="556" d="M553 513 C553 663 475 735 363 735 C136 735 44 429 44 215 C44 70 114 -14 236 -14 C458 -14 553 302 553 513 L553 513 Z M238 47 C200 47 182 78 182 142 C182 183 191 256 205 333 L381 333 C366 259 349 191 333 152 C306 83 275 47 238 47 L238 47 Z M361 671 C398 671 415 643 415 581 C415 543 406 472 393 396 L217 396 C232 473 252 539 269 578 C297 641 325 671 361 671 L361 671 Z " />
<glyph glyph-name="iota" unicode="&#x3b9;" horiz-adv-x="299" d="M39 141 C34 116 31 99 31 81 C31 24 61 -9 126 -9 C176 -9 221 5 259 27 L255 68 C242 66 231 65 221 65 C190 65 179 75 179 98 C179 108 182 124 189 155 L268 518 L241 518 L109 498 C105 463 99 423 86 362 L39 141 Z " />
<glyph glyph-name="kappa" unicode="&#x3ba;" horiz-adv-x="564" d="M418 361 C447 390 461 398 515 404 L567 410 L567 522 C466 519 436 486 386 427 C338 370 295 326 246 279 L264 361 C267 374 271 400 271 416 C271 484 237 515 188 515 C139 515 94 499 60 482 L52 443 C102 442 121 428 121 397 C121 388 120 380 117 366 L81 195 C60 98 43 47 26 22 L26 0 L181 0 C192 41 205 94 224 178 L268 217 L291 128 C313 43 334 -9 488 -9 L515 87 C467 95 455 106 440 149 L381 324 L418 361 Z " />
<glyph glyph-name="lambda" unicode="&#x3bb;" horiz-adv-x="527" d="M404 639 C397 725 335 735 286 735 C242 735 208 725 172 706 L164 655 C228 655 261 648 265 597 L271 517 L236 523 L52 146 C13 66 -9 36 -34 13 L41 -10 L71 -10 L278 441 L282 441 L299 144 C304 50 322 -11 415 -11 C452 -11 487 -1 520 19 L516 70 C503 67 494 65 484 65 C456 65 450 80 445 139 L404 639 Z " />
<glyph glyph-name="uni03BC" unicode="&#x3bc;" horiz-adv-x="590" d="M-24 -205 L129 -180 L145 -114 C151 -90 155 -67 155 -46 C155 -22 151 0 145 20 L149 22 C159 -3 176 -13 209 -13 C262 -13 314 30 348 103 C347 91 346 79 347 69 C350 19 373 -9 431 -9 C479 -9 521 3 562 26 L559 67 C549 66 536 65 530 65 C497 65 484 75 484 100 C484 109 486 123 490 142 L567 509 L423 509 L358 201 C323 145 277 91 236 91 C215 91 203 101 203 126 C203 136 205 148 209 162 L259 377 C263 397 266 416 266 430 C266 489 235 515 181 515 C131 515 86 498 54 482 L45 443 C94 443 115 429 115 394 C115 385 113 371 109 356 L30 11 C14 -58 -1 -121 -24 -175 L-24 -205 Z " />
<glyph glyph-name="nu" unicode="&#x3bd;" horiz-adv-x="495" d="M127 0 L261 0 C370 146 450 296 507 459 L506 502 L385 516 C384 383 375 317 296 181 L249 100 L243 100 C243 175 238 223 233 263 L219 381 C207 477 187 515 124 515 C77 515 34 498 7 485 L-1 445 C46 445 69 438 81 358 L97 244 C120 83 125 47 127 0 L127 0 Z " />
<glyph glyph-name="xi" unicode="&#x3be;" horiz-adv-x="453" d="M245 576 C190 546 126 504 126 434 C126 391 158 354 244 348 L244 342 C134 327 14 262 14 142 C14 59 87 17 205 -6 C248 -14 266 -27 266 -50 C266 -89 223 -133 194 -163 L267 -209 C335 -158 421 -87 421 6 C421 57 386 87 310 104 C215 125 175 140 175 185 C175 284 292 310 375 310 L408 310 L422 377 L385 377 C304 377 262 400 262 451 C262 499 291 530 330 557 C434 558 513 584 560 688 L565 713 L505 729 L348 645 C291 654 264 685 253 741 L197 720 C193 706 191 691 191 677 C191 633 210 595 245 576 L245 576 Z " />
<glyph glyph-name="omicron" unicode="&#x3bf;" horiz-adv-x="552" d="M527 314 C527 452 441 522 317 522 C131 522 31 357 31 191 C31 67 111 -14 238 -14 C433 -14 527 145 527 314 L527 314 Z M376 364 C376 273 352 167 323 111 C301 61 272 49 243 49 C200 49 181 79 181 134 C181 221 203 326 231 391 C253 440 279 457 313 457 C357 457 376 427 376 364 L376 364 Z " />
<glyph glyph-name="pi" unicode="&#x3c0;" horiz-adv-x="634" d="M367 190 C363 170 360 147 360 129 C360 32 423 -6 517 -15 L537 29 C502 47 489 70 489 107 C489 128 493 153 500 185 L541 385 C577 388 605 393 629 406 L674 539 C621 517 589 512 527 512 L280 512 C162 512 101 459 63 364 L88 335 C121 367 148 384 200 385 C148 195 96 115 30 73 L14 0 L158 0 C215 105 240 239 273 385 L408 385 L367 190 Z " />
<glyph glyph-name="rho" unicode="&#x3c1;" horiz-adv-x="587" d="M255 50 C219 50 190 73 179 95 L222 296 C246 411 283 458 343 458 C385 458 408 436 408 376 C408 307 383 178 342 108 C318 67 289 50 255 50 L255 50 Z M134 -119 C146 -64 154 -3 155 36 L159 37 C178 9 223 -13 279 -13 C472 -13 562 170 562 335 C562 453 478 521 351 521 C182 521 103 429 72 283 L14 11 C-1 -59 -16 -121 -38 -175 L-38 -205 L120 -181 L134 -119 Z " />
<glyph glyph-name="sigma1" unicode="&#x3c2;" horiz-adv-x="474" d="M287 100 C208 127 184 154 184 215 C184 271 201 349 234 403 C260 445 288 459 316 459 C356 459 359 424 358 371 L464 371 L488 477 C454 502 406 521 327 521 C138 521 28 364 28 185 C28 91 85 22 182 -4 C230 -17 243 -26 243 -50 C243 -90 203 -131 171 -163 L244 -209 C311 -159 398 -87 398 3 C398 55 360 76 287 100 L287 100 Z " />
<glyph glyph-name="sigma" unicode="&#x3c3;" horiz-adv-x="587" d="M522 305 C522 358 502 406 466 434 L468 439 C482 431 512 416 540 416 C569 416 581 419 606 430 L611 458 L609 529 C571 513 536 509 501 509 C423 509 376 522 314 522 C128 522 31 357 31 191 C31 67 108 -14 235 -14 C430 -14 522 143 522 305 L522 305 Z M370 365 C370 273 345 168 318 112 C294 62 269 50 240 50 C197 50 182 79 182 133 C182 220 203 326 231 391 C253 440 276 457 310 457 C354 457 370 427 370 365 L370 365 Z " />
<glyph glyph-name="tau" unicode="&#x3c4;" horiz-adv-x="529" d="M161 142 C156 118 153 98 153 81 C153 24 183 -9 248 -9 C298 -9 342 5 380 27 L375 68 C361 66 351 65 341 65 C310 65 298 75 298 98 C298 105 301 120 306 147 L354 384 L431 384 C467 384 503 392 525 404 L564 522 L537 522 C502 511 475 509 428 509 L234 509 C116 509 58 457 15 365 L44 337 C76 364 112 384 156 384 L230 384 C219 353 208 320 197 285 C187 251 166 168 161 142 L161 142 Z " />
<glyph glyph-name="upsilon" unicode="&#x3c5;" horiz-adv-x="588" d="M255 370 C262 400 263 418 263 430 C263 482 237 517 172 517 C128 517 83 499 48 482 L40 443 C94 442 107 424 107 392 C107 383 105 367 103 355 L60 150 C56 133 54 118 54 103 C54 28 114 -13 204 -13 C438 -13 555 162 555 376 C555 444 534 499 518 521 L393 501 L387 475 C393 455 400 420 400 377 C400 267 346 49 232 49 C207 49 200 65 200 89 C200 104 201 120 206 141 L255 370 Z " />
<glyph glyph-name="phi" unicode="&#x3c6;" horiz-adv-x="788" d="M763 347 C763 460 688 521 566 521 C407 521 355 430 326 296 L274 52 C210 57 179 98 179 167 C179 295 245 419 340 503 L228 518 C112 435 31 312 31 172 C31 57 124 -2 261 -10 C247 -71 232 -126 213 -175 L213 -205 L368 -184 L404 -10 C680 -8 763 169 763 347 L763 347 Z M472 304 C498 425 518 458 562 458 C593 458 615 441 615 388 C615 310 596 185 547 119 C515 76 471 54 418 52 L472 304 Z " />
<glyph glyph-name="chi" unicode="&#x3c7;" horiz-adv-x="540" d="M88 120 C34 58 8 35 -26 13 L47 -11 L78 -11 L239 186 L244 186 L271 98 C292 27 313 -11 393 -11 C433 -11 470 5 501 28 L496 69 C487 67 476 66 469 66 C440 66 427 78 412 122 L359 276 L460 388 C515 449 541 471 574 492 L497 516 L466 516 L330 349 L326 349 L304 422 C283 493 265 516 202 516 C158 516 121 500 88 482 L81 442 C88 443 95 444 102 444 C136 444 152 435 166 391 L208 259 L88 120 Z " />
<glyph glyph-name="psi" unicode="&#x3c8;" horiz-adv-x="794" d="M228 -205 L382 -184 L419 -10 C654 -6 762 167 762 376 C762 444 740 499 724 521 L602 501 L596 475 C602 455 609 419 609 376 C609 232 548 68 433 53 L578 734 L549 734 L428 714 C422 670 413 622 397 547 L291 53 C234 58 209 87 209 139 C209 155 212 173 216 193 L256 380 C260 398 262 416 262 430 C262 482 237 517 172 517 C128 517 83 499 48 482 L40 443 C94 442 107 424 107 392 C107 383 105 364 103 355 L71 204 C67 187 65 171 65 157 C65 51 149 -6 278 -10 C264 -72 248 -127 229 -175 L228 -205 Z " />
<glyph glyph-name="omega" unicode="&#x3c9;" horiz-adv-x="793" d="M497 382 L470 382 L345 365 C339 319 332 274 327 250 C303 122 275 52 221 52 C189 52 178 78 178 121 C178 251 224 394 347 503 L232 518 C107 430 30 301 30 152 C30 39 99 -13 194 -13 C256 -13 304 14 334 61 C348 22 390 -13 463 -13 C649 -13 762 160 762 351 C762 427 735 497 720 521 L597 500 L592 473 C599 451 609 414 609 362 C609 283 589 186 551 113 C530 73 501 49 471 49 C451 49 439 60 439 91 C439 104 442 124 449 159 L497 382 Z " />
<glyph glyph-name="iotadieresis" unicode="&#x3ca;" horiz-adv-x="299" d="M184 646 C184 692 148 727 103 727 C57 727 19 692 19 646 C19 602 56 566 101 566 C147 566 184 602 184 646 L184 646 Z M407 646 C407 692 371 727 326 727 C280 727 242 692 242 646 C242 602 279 566 324 566 C370 566 407 602 407 646 L407 646 Z M39 141 C34 116 31 99 31 81 C31 24 61 -9 126 -9 C176 -9 221 5 259 27 L255 68 C242 66 231 65 221 65 C190 65 179 75 179 98 C179 108 182 124 189 155 L268 518 L241 518 L109 498 C105 463 99 423 86 362 L39 141 Z " />
<glyph glyph-name="upsilondieresis" unicode="&#x3cb;" horiz-adv-x="588" d="M288 646 C288 692 252 727 207 727 C161 727 123 692 123 646 C123 602 160 566 205 566 C251 566 288 602 288 646 L288 646 Z M511 646 C511 692 475 727 430 727 C384 727 346 692 346 646 C346 602 383 566 428 566 C474 566 511 602 511 646 L511 646 Z M255 370 C262 400 263 418 263 430 C263 482 237 517 172 517 C128 517 83 499 48 482 L40 443 C94 442 107 424 107 392 C107 383 105 367 103 355 L60 150 C56 133 54 118 54 103 C54 28 114 -13 204 -13 C438 -13 555 162 555 376 C555 444 534 499 518 521 L393 501 L387 475 C393 455 400 420 400 377 C400 267 346 49 232 49 C207 49 200 65 200 89 C200 104 201 120 206 141 L255 370 Z " />
<glyph glyph-name="omicrontonos" unicode="&#x3cc;" horiz-adv-x="552" d="M366 554 L465 737 L334 765 L280 558 L366 554 Z M527 314 C527 452 441 522 317 522 C131 522 31 357 31 191 C31 67 111 -14 238 -14 C433 -14 527 145 527 314 L527 314 Z M376 364 C376 273 352 167 323 111 C301 61 272 49 243 49 C200 49 181 79 181 134 C181 221 203 326 231 391 C253 440 279 457 313 457 C357 457 376 427 376 364 L376 364 Z " />
<glyph glyph-name="upsilontonos" unicode="&#x3cd;" horiz-adv-x="588" d="M358 554 L457 737 L326 765 L272 558 L358 554 Z M255 370 C262 400 263 418 263 430 C263 482 237 517 172 517 C128 517 83 499 48 482 L40 443 C94 442 107 424 107 392 C107 383 105 367 103 355 L60 150 C56 133 54 118 54 103 C54 28 114 -13 204 -13 C438 -13 555 162 555 376 C555 444 534 499 518 521 L393 501 L387 475 C393 455 400 420 400 377 C400 267 346 49 232 49 C207 49 200 65 200 89 C200 104 201 120 206 141 L255 370 Z " />
<glyph glyph-name="omegatonos" unicode="&#x3ce;" horiz-adv-x="793" d="M502 554 L601 737 L470 765 L416 558 L502 554 Z M497 382 L470 382 L345 365 C339 319 332 274 327 250 C303 122 275 52 221 52 C189 52 178 78 178 121 C178 251 224 394 347 503 L232 518 C107 430 30 301 30 152 C30 39 99 -13 194 -13 C256 -13 304 14 334 61 C348 22 390 -13 463 -13 C649 -13 762 160 762 351 C762 427 735 497 720 521 L597 500 L592 473 C599 451 609 414 609 362 C609 283 589 186 551 113 C530 73 501 49 471 49 C451 49 439 60 439 91 C439 104 442 124 449 159 L497 382 Z " />
<glyph glyph-name="uni03D0" unicode="&#x3d0;" horiz-adv-x="573" d="M566 593 C566 680 492 735 374 735 C233 735 124 647 56 329 C46 282 41 244 41 207 C41 58 124 -13 249 -13 C429 -13 531 91 531 253 C531 320 492 364 419 391 C503 427 566 488 566 593 L566 593 Z M379 266 C379 179 342 48 248 48 C205 48 185 81 185 149 C185 194 194 254 212 337 C273 624 314 676 369 676 C405 676 418 652 418 610 C418 498 369 431 261 413 L258 351 C283 354 308 359 332 364 C367 341 379 308 379 266 L379 266 Z " />
<glyph glyph-name="theta1" unicode="&#x3d1;" horiz-adv-x="583" d="M240 48 C196 48 170 66 170 122 C170 166 184 204 184 244 C184 293 163 320 134 341 L37 305 C43 289 45 277 45 257 C45 215 31 176 31 136 C31 39 104 -13 240 -13 C408 -13 499 93 551 345 C566 418 574 474 574 523 C574 680 486 735 373 735 C218 735 121 642 121 503 C121 396 218 344 393 311 C347 106 304 48 240 48 L240 48 Z M270 497 C270 574 302 676 371 676 C408 676 435 661 435 590 C435 546 428 478 407 376 C306 396 270 432 270 497 L270 497 Z " />
<glyph glyph-name="Upsilon1" unicode="&#x3d2;" horiz-adv-x="656" d="M406 226 C446 437 565 602 729 625 L723 705 C540 705 432 563 374 351 L370 351 C375 549 334 707 94 705 L68 601 C202 567 260 460 260 333 C260 301 256 268 250 235 L226 110 C215 53 197 46 137 46 L129 0 L438 0 L447 46 C399 46 380 51 380 81 C380 89 383 106 385 116 L406 226 Z " />
<glyph glyph-name="uni03D3" unicode="&#x3d3;" horiz-adv-x="656" d="M406 226 C446 437 565 602 729 625 L723 705 C540 705 432 563 374 351 L370 351 C375 549 334 707 94 705 L68 601 C202 567 260 460 260 333 C260 301 256 268 250 235 L226 110 C215 53 197 46 137 46 L129 0 L438 0 L447 46 C399 46 380 51 380 81 C380 89 383 106 385 116 L406 226 Z M-32 501 L64 684 L-66 712 L-118 505 L-32 501 Z " />
<glyph glyph-name="uni03D4" unicode="&#x3d4;" horiz-adv-x="656" d="M406 226 C446 437 565 602 729 625 L723 705 C540 705 432 563 374 351 L370 351 C375 549 334 707 94 705 L68 601 C202 567 260 460 260 333 C260 301 256 268 250 235 L226 110 C215 53 197 46 137 46 L129 0 L438 0 L447 46 C399 46 380 51 380 81 C380 89 383 106 385 116 L406 226 Z M389 817 C389 862 354 898 308 898 C262 898 225 862 225 817 C225 773 262 737 307 737 C353 737 389 773 389 817 L389 817 Z M612 817 C612 862 577 898 531 898 C485 898 448 862 448 817 C448 773 485 737 530 737 C576 737 612 773 612 817 L612 817 Z " />
<glyph glyph-name="phi1" unicode="&#x3d5;" horiz-adv-x="807" d="M579 735 L551 735 L430 715 C423 673 415 626 398 547 L392 521 C164 513 31 405 31 181 C31 62 119 -2 279 -9 C265 -72 250 -126 230 -175 L230 -205 L383 -184 L420 -10 C643 -2 783 96 783 329 C783 444 699 514 533 521 L579 735 Z M625 345 C625 256 599 167 558 115 C527 75 488 57 434 53 L520 458 C585 454 625 428 625 345 L625 345 Z M292 53 C228 57 188 85 188 167 C188 249 213 334 247 386 C279 436 322 454 379 458 L292 53 Z " />
<glyph glyph-name="uni0400" unicode="&#x400;" horiz-adv-x="593" d="M503 760 L298 925 L233 795 L480 723 L503 760 Z M-18 0 L506 0 L541 183 L465 183 C439 90 410 67 344 67 L221 67 L270 319 L332 319 C384 319 401 307 401 271 C401 266 400 255 399 248 L465 248 L506 457 L440 457 C425 400 406 386 344 386 L283 386 L329 624 L437 624 C508 624 514 602 522 526 L596 526 L617 695 L117 695 L108 647 C150 646 167 637 167 606 C167 597 165 585 163 575 L74 117 C63 60 44 46 -10 46 L-18 0 Z " />
<glyph glyph-name="afii10023" unicode="&#x401;" horiz-adv-x="593" d="M-18 0 L506 0 L541 183 L465 183 C439 90 410 67 344 67 L221 67 L270 319 L332 319 C384 319 401 307 401 271 C401 266 400 255 399 248 L465 248 L506 457 L440 457 C425 400 406 386 344 386 L283 386 L329 624 L437 624 C508 624 514 602 522 526 L596 526 L617 695 L117 695 L108 647 C150 646 167 637 167 606 C167 597 165 585 163 575 L74 117 C63 60 44 46 -10 46 L-18 0 Z M365 817 C365 862 330 898 284 898 C238 898 201 862 201 817 C201 773 238 737 283 737 C329 737 365 773 365 817 L365 817 Z M588 817 C588 862 553 898 507 898 C461 898 424 862 424 817 C424 773 461 737 506 737 C552 737 588 773 588 817 L588 817 Z " />
<glyph glyph-name="afii10051" unicode="&#x402;" horiz-adv-x="814" d="M113 695 L68 509 L144 509 C178 594 191 624 257 624 L299 624 L201 117 C190 60 170 46 109 46 L101 0 L406 0 L415 46 C373 46 355 54 355 84 C355 93 356 101 359 117 L400 332 C442 352 490 366 534 366 C588 366 618 347 618 293 C618 283 617 274 614 256 L603 200 C581 89 566 53 457 5 L470 -45 C636 -8 736 49 765 216 L774 271 C777 289 780 308 780 319 C780 409 715 463 593 463 C524 463 464 438 414 408 L457 624 L500 624 C561 624 564 604 568 516 L643 516 L670 695 L113 695 Z " />
<glyph glyph-name="afii10052" unicode="&#x403;" horiz-adv-x="560" d="M262 760 L285 723 L532 795 L467 925 L262 760 Z M428 624 C503 624 512 598 516 510 L592 510 L614 695 L116 695 L107 647 C148 646 165 638 165 608 C165 599 163 587 161 575 L73 117 C62 60 43 46 -10 46 L-18 0 L293 0 L301 46 C246 46 226 56 226 86 C226 93 229 110 231 121 L329 624 L428 624 Z " />
<glyph glyph-name="afii10053" unicode="&#x404;" horiz-adv-x="633" d="M318 -13 C416 -13 500 11 547 41 L572 176 L466 176 C438 95 395 56 318 56 C255 56 213 91 213 186 C213 227 216 271 222 314 L452 314 L467 389 L236 389 C246 437 264 483 284 523 C324 601 367 635 428 635 C498 635 521 598 522 522 L629 522 L655 652 C601 684 540 706 431 706 C203 706 50 506 50 239 C50 78 145 -13 318 -13 L318 -13 Z " />
</font>
</svg>
