<?xml version="1.0" encoding="UTF-8"?>
<svg xmlns="http://www.w3.org/2000/svg" xmlns:xlink="http://www.w3.org/1999/xlink" version="1.2" >
<font id="MetaSerifPro-BookIta">
<font-face  font-family="Meta Serif Pro" units-per-em="1000" ascent="763" descent="-237" font-style="normal" font-weight="450" font-stretch="normal" cap-height="689" x-height="491" underline-position="-75" underline-thickness="50" />
<missing-glyph  horiz-adv-x="553" d="M71 0 L482 0 L482 689 L71 689 L71 0 Z M121 50 L121 639 L432 639 L432 50 L121 50 Z " />
<glyph glyph-name=".null" d="" />
<glyph glyph-name="CR" unicode="&#xd;" horiz-adv-x="225" d="" />
<glyph glyph-name="space" unicode="&#x20;" horiz-adv-x="225" d="" />
<glyph glyph-name="exclam" unicode="&#x21;" horiz-adv-x="325" d="M325 702 L204 687 L122 210 L175 210 L325 702 Z M186 60 C186 96 156 125 120 125 C83 125 55 96 55 60 C55 22 83 -8 119 -8 C155 -8 186 22 186 60 L186 60 Z " />
<glyph glyph-name="quotedbl" unicode="&#x22;" horiz-adv-x="434" d="M380 453 L430 709 L345 709 L295 453 L380 453 Z M201 453 L251 709 L166 709 L116 453 L201 453 Z " />
<glyph glyph-name="numbersign" unicode="&#x23;" horiz-adv-x="561" d="M575 430 L588 499 L494 499 L564 708 L492 708 L422 499 L300 499 L370 708 L298 708 L228 499 L126 499 L113 430 L205 430 L155 279 L54 279 L41 211 L132 211 L62 0 L134 0 L204 211 L326 211 L256 0 L328 0 L399 211 L502 211 L515 279 L421 279 L472 430 L575 430 Z M400 430 L349 279 L227 279 L278 430 L400 430 Z " />
<glyph glyph-name="dollar" unicode="&#x24;" horiz-adv-x="497" d="M146 -100 L191 -100 L208 -14 C374 -11 451 72 451 203 C451 296 391 342 322 379 L292 394 L345 648 C402 635 422 591 422 535 L483 535 L502 643 C479 665 431 691 355 698 L373 785 L328 785 L310 700 C176 698 85 620 85 501 C85 418 132 371 190 341 L232 319 L174 35 C107 46 92 90 92 171 L28 171 L5 46 C38 16 91 -7 164 -13 L146 -100 Z M363 170 C363 88 312 35 218 33 L273 298 C329 267 363 230 363 170 L363 170 Z M170 531 C170 601 218 652 301 653 L252 415 C200 444 170 468 170 531 L170 531 Z " />
<glyph glyph-name="percent" unicode="&#x25;" horiz-adv-x="928" d="M382 505 C382 598 337 651 250 651 C116 651 42 512 42 383 C42 287 93 240 175 240 C303 240 382 363 382 505 L382 505 Z M183 274 C141 274 124 311 124 374 C124 476 168 613 243 613 C283 613 301 579 301 514 C301 444 270 274 183 274 L183 274 Z M791 730 L737 730 L120 -123 L174 -123 L791 730 Z M898 255 C898 348 853 401 766 401 C632 401 558 262 558 133 C558 37 609 -10 691 -10 C819 -10 898 113 898 255 L898 255 Z M699 24 C657 24 640 61 640 124 C640 226 684 363 759 363 C799 363 817 329 817 264 C817 194 786 24 699 24 L699 24 Z " />
<glyph glyph-name="ampersand" unicode="&#x26;" horiz-adv-x="679" d="M588 287 C609 333 624 347 677 348 L684 383 L475 383 L468 348 C519 346 534 336 534 304 C534 266 510 215 480 172 L320 362 C429 403 516 463 516 558 C516 648 448 700 335 700 C193 700 130 602 130 518 C130 456 153 418 193 373 L214 349 C102 311 10 249 10 151 C10 49 82 -14 236 -14 C315 -14 386 20 447 71 L506 0 L640 0 L645 33 C620 33 588 43 568 67 L509 139 C538 181 548 200 588 287 L588 287 Z M240 33 C160 33 114 81 114 151 C114 237 157 282 237 321 L419 103 C369 61 308 33 240 33 L240 33 Z M282 408 C244 450 218 488 218 537 C218 612 270 655 332 655 C389 655 425 620 425 555 C425 473 379 435 298 390 L282 408 Z " />
<glyph glyph-name="quotesingle" unicode="&#x27;" horiz-adv-x="255" d="M201 453 L251 709 L166 709 L116 453 L201 453 Z " />
<glyph glyph-name="parenleft" unicode="&#x28;" horiz-adv-x="366" d="M265 -127 C190 -81 146 26 146 162 C146 353 223 619 433 741 L415 775 C165 657 60 403 60 180 C60 15 134 -106 241 -159 L265 -127 Z " />
<glyph glyph-name="parenright" unicode="&#x29;" horiz-adv-x="366" d="M133 743 C208 697 252 590 252 454 C252 263 175 -3 -35 -125 L-17 -159 C233 -41 338 213 338 436 C338 601 264 722 157 775 L133 743 Z " />
<glyph glyph-name="asterisk" unicode="&#x2a;" horiz-adv-x="458" d="M422 467 L428 511 L291 544 L336 680 L298 698 L221 577 L109 664 L79 633 L165 521 L50 436 L71 396 L202 450 L244 311 L290 321 L282 465 L422 467 Z " />
<glyph glyph-name="plus" unicode="&#x2b;" horiz-adv-x="580" d="M308 507 L267 298 L65 298 L55 245 L257 245 L216 34 L275 34 L316 245 L520 245 L530 298 L326 298 L367 507 L308 507 Z " />
<glyph glyph-name="comma" unicode="&#x2c;" horiz-adv-x="264" d="M199 42 C199 94 166 131 120 131 C79 131 52 105 52 64 C52 37 63 19 85 9 C101 1 115 -2 115 -22 C115 -53 72 -85 15 -107 L32 -136 C116 -112 199 -45 199 42 L199 42 Z " />
<glyph glyph-name="hyphen" unicode="&#x2d;" horiz-adv-x="313" d="M251 235 L264 306 L61 306 L48 235 L251 235 Z " />
<glyph glyph-name="period" unicode="&#x2e;" horiz-adv-x="252" d="M187 59 C187 100 157 132 116 132 C75 132 45 100 45 59 C45 18 75 -14 116 -14 C157 -14 187 18 187 59 L187 59 Z " />
<glyph glyph-name="slash" unicode="&#x2f;" horiz-adv-x="395" d="M455 761 L386 761 L-50 -149 L18 -149 L455 761 Z " />
<glyph glyph-name="zero" unicode="0" horiz-adv-x="566" d="M521 316 C521 444 449 525 316 525 C142 525 45 356 45 189 C45 64 115 -14 248 -14 C419 -14 521 146 521 316 L521 316 Z M422 342 C422 253 404 142 349 81 C324 54 292 36 250 36 C176 36 138 78 138 169 C138 242 154 345 200 411 C226 449 263 474 312 474 C383 474 422 431 422 342 L422 342 Z " />
<glyph glyph-name="one" unicode="1" horiz-adv-x="397" d="M322 513 L264 513 L78 406 L84 373 C131 387 165 399 211 421 L146 114 C132 47 119 40 27 34 L20 0 L314 0 L321 34 C252 36 231 44 231 76 C231 85 232 95 235 108 L322 513 Z " />
<glyph glyph-name="two" unicode="2" horiz-adv-x="456" d="M262 525 C176 525 104 482 61 425 L90 391 C125 427 175 460 230 460 C291 460 321 434 321 382 C321 282 248 217 126 135 L-6 46 L-15 0 L367 0 L394 73 L114 73 L162 102 C333 205 425 283 425 393 C425 472 369 525 262 525 L262 525 Z " />
<glyph glyph-name="three" unicode="3" horiz-adv-x="457" d="M221 461 C284 461 319 432 319 372 C319 284 259 220 167 220 C145 220 127 221 111 223 L102 171 C119 172 132 173 147 173 C233 173 280 150 280 78 C280 -55 159 -116 22 -116 C-9 -116 -43 -111 -75 -106 L-64 -149 C-32 -158 -4 -164 55 -164 C210 -164 380 -79 380 65 C380 142 337 182 262 198 C355 229 417 304 417 378 C417 478 345 525 244 525 C170 525 94 489 39 431 L68 398 C113 435 159 461 221 461 L221 461 Z " />
<glyph glyph-name="four" unicode="4" horiz-adv-x="526" d="M246 -179 L343 -160 L381 18 L465 18 L476 67 L392 67 L453 353 L398 343 C357 264 322 173 299 67 L68 67 L410 513 L312 513 L-6 60 L-15 18 L288 18 L246 -179 Z " />
<glyph glyph-name="five" unicode="5" horiz-adv-x="436" d="M370 90 C370 187 310 243 215 243 C178 243 146 238 116 230 L166 430 L416 430 L446 505 L127 505 L34 163 C76 178 115 187 166 187 C235 187 271 150 271 75 C271 -59 168 -116 41 -116 C-5 -116 -44 -109 -77 -99 L-68 -143 C-36 -155 3 -164 57 -164 C218 -164 370 -84 370 90 L370 90 Z " />
<glyph glyph-name="six" unicode="6" horiz-adv-x="550" d="M508 700 C264 624 45 466 45 203 C45 62 114 -14 238 -14 C370 -14 489 91 489 242 C489 341 426 406 338 406 C267 406 196 378 157 341 C218 481 334 588 515 659 L508 700 Z M390 232 C390 114 327 34 244 34 C155 34 129 114 129 192 C129 229 135 266 143 293 C192 329 259 345 299 345 C361 345 390 309 390 232 L390 232 Z " />
<glyph glyph-name="seven" unicode="7" horiz-adv-x="461" d="M481 505 L82 505 L54 430 L386 430 C242 273 91 28 0 -177 L111 -151 C198 63 311 291 454 441 L481 505 Z " />
<glyph glyph-name="eight" unicode="8" horiz-adv-x="548" d="M534 521 C534 600 465 672 337 672 C207 672 119 592 119 491 C119 433 154 374 212 345 C117 318 21 265 21 161 C21 62 101 -14 246 -14 C399 -14 486 79 486 182 C486 242 454 291 357 343 C470 369 534 437 534 521 L534 521 Z M393 170 C393 95 344 31 247 31 C156 31 115 81 115 157 C115 237 176 292 250 318 C367 259 393 223 393 170 L393 170 Z M446 526 C446 475 425 406 317 372 C235 414 211 455 211 504 C211 576 261 623 333 623 C411 623 446 581 446 526 L446 526 Z " />
<glyph glyph-name="nine" unicode="9" horiz-adv-x="546" d="M501 306 C501 447 421 525 299 525 C157 525 44 407 44 261 C44 155 117 85 223 85 C290 85 340 109 375 133 C328 19 165 -105 -30 -151 L-5 -191 C263 -141 501 8 501 306 L501 306 Z M391 192 C342 152 291 143 245 143 C174 143 138 190 138 268 C138 388 205 474 297 474 C383 474 412 393 412 311 C412 268 404 224 391 192 L391 192 Z " />
<glyph glyph-name="colon" unicode="&#x3a;" horiz-adv-x="339" d="M207 59 C207 100 177 132 136 132 C95 132 65 100 65 59 C65 18 95 -14 136 -14 C177 -14 207 18 207 59 L207 59 Z M274 373 C274 414 244 446 203 446 C162 446 132 414 132 373 C132 332 162 300 203 300 C244 300 274 332 274 373 L274 373 Z " />
<glyph glyph-name="semicolon" unicode="&#x3b;" horiz-adv-x="328" d="M263 373 C263 414 233 446 192 446 C151 446 121 414 121 373 C121 332 151 300 192 300 C233 300 263 332 263 373 L263 373 Z M209 42 C209 94 176 131 130 131 C89 131 62 105 62 64 C62 37 73 19 95 9 C111 1 125 -2 125 -22 C125 -53 82 -85 25 -107 L42 -136 C126 -112 209 -45 209 42 L209 42 Z " />
<glyph glyph-name="less" unicode="&#x3c;" horiz-adv-x="531" d="M394 56 L406 117 L124 290 L478 486 L491 558 L79 326 L65 254 L394 56 Z " />
<glyph glyph-name="equal" unicode="&#x3d;" horiz-adv-x="609" d="M55 173 L520 173 L530 226 L65 226 L55 173 Z M83 321 L548 321 L559 374 L94 374 L83 321 Z " />
<glyph glyph-name="greater" unicode="&#x3e;" horiz-adv-x="524" d="M450 254 L464 326 L142 558 L129 492 L407 296 L57 123 L45 56 L450 254 Z " />
<glyph glyph-name="question" unicode="&#x3f;" horiz-adv-x="443" d="M234 60 C234 98 201 128 163 128 C125 128 95 98 95 60 C95 20 125 -13 163 -13 C202 -13 234 20 234 60 L234 60 Z M269 654 C320 654 343 624 343 575 C343 500 308 474 231 421 C170 379 141 336 141 282 C141 251 150 227 156 215 L194 215 C194 283 200 322 288 372 C388 429 443 480 443 570 C443 666 366 700 273 700 C201 700 145 675 110 653 L90 563 L156 563 C172 620 202 654 269 654 L269 654 Z " />
<glyph glyph-name="at" unicode="&#x40;" horiz-adv-x="906" d="M614 -1 C738 -1 861 79 861 276 C861 488 708 625 474 625 C224 625 45 448 45 194 C45 -40 199 -176 418 -176 C497 -176 553 -162 606 -141 L591 -111 C549 -125 501 -135 430 -135 C240 -135 126 3 126 193 C126 433 269 581 472 581 C648 581 780 485 780 265 C780 111 695 38 626 38 C593 38 577 48 577 82 C577 95 579 110 584 131 L627 306 C629 313 643 380 652 402 C616 434 577 452 513 452 C371 452 235 333 235 137 C235 49 278 -1 350 -1 C426 -1 468 45 495 103 L495 100 C495 28 533 -1 614 -1 L614 -1 Z M511 189 C472 122 433 61 380 61 C348 61 326 83 326 144 C326 282 388 406 500 406 C527 406 546 392 554 376 L511 189 Z " />
<glyph glyph-name="A" unicode="A" horiz-adv-x="643" d="M428 107 C429 96 429 92 429 90 C429 52 412 37 356 35 L349 0 L588 0 L595 35 C544 40 529 64 523 123 L466 689 L372 689 L79 121 C43 52 20 42 -30 35 L-37 0 L178 0 L185 35 C144 36 123 42 123 63 C123 73 128 88 138 107 L193 215 L419 215 L428 107 Z M335 490 C370 558 383 595 385 602 L391 602 C391 600 390 592 390 572 C390 552 391 520 395 475 L415 263 L218 263 L335 490 Z " />
<glyph glyph-name="B" unicode="B" horiz-adv-x="606" d="M121 689 L115 654 C166 652 184 642 184 610 C184 601 182 591 180 578 L89 111 C78 54 62 37 -6 35 L-12 0 L251 0 C372 0 433 7 486 52 C539 97 559 154 559 221 C559 292 504 348 425 359 L425 363 C527 375 586 438 586 538 C586 626 539 689 389 689 L121 689 Z M240 383 L290 640 L364 640 C453 640 488 616 488 542 C488 483 471 444 440 417 C410 391 378 383 328 383 L240 383 Z M320 335 C424 335 453 292 453 220 C453 150 433 106 402 79 C374 56 331 49 277 49 L175 49 L231 335 L320 335 Z " />
<glyph glyph-name="C" unicode="C" horiz-adv-x="578" d="M300 33 C214 33 167 83 167 232 C167 398 227 653 416 653 C492 653 501 617 505 540 L573 540 L595 649 C563 675 518 700 428 700 C187 700 63 470 63 240 C63 82 130 -14 296 -14 C379 -14 458 13 498 38 L519 143 L453 143 C423 65 379 33 300 33 L300 33 Z " />
<glyph glyph-name="D" unicode="D" horiz-adv-x="658" d="M-12 0 L256 0 C381 0 449 14 511 74 C589 150 635 306 635 440 C635 616 529 689 357 689 L121 689 L115 654 C166 652 184 642 184 610 C184 603 182 587 180 578 L89 111 C78 54 62 37 -6 35 L-12 0 Z M362 642 C505 642 534 566 534 448 C534 341 506 196 453 127 C403 62 344 51 260 51 L176 51 L291 642 L362 642 Z " />
<glyph glyph-name="E" unicode="E" horiz-adv-x="568" d="M-12 0 L479 0 L511 165 L466 165 C439 72 416 49 339 49 L175 49 L231 336 L321 336 C383 336 399 319 392 265 L433 265 L470 455 L429 455 C414 398 391 384 329 384 L240 384 L290 640 L453 640 C511 640 522 615 529 539 L571 539 L590 689 L121 689 L115 654 C166 652 184 642 184 610 C184 601 182 589 180 578 L89 111 C78 54 62 37 -6 35 L-12 0 Z " />
<glyph glyph-name="F" unicode="F" horiz-adv-x="543" d="M227 320 L311 320 C373 320 388 301 381 246 L422 246 L460 439 L419 439 C404 382 381 368 319 368 L236 368 L289 640 L441 640 C503 640 513 622 525 534 L567 534 L585 689 L121 689 L115 654 C166 652 184 642 184 610 C184 601 182 588 180 578 L89 111 C78 54 62 37 -6 35 L-12 0 L253 0 L259 35 C203 37 183 49 183 82 C183 88 185 102 187 114 L227 320 Z " />
<glyph glyph-name="G" unicode="G" horiz-adv-x="648" d="M316 33 C220 33 167 83 167 233 C167 402 227 652 416 652 C499 652 517 617 521 540 L589 540 L611 649 C579 675 531 699 428 699 C182 699 63 459 63 244 C63 84 136 -14 315 -14 C376 -14 459 3 521 37 L558 226 C569 283 586 300 638 302 L645 337 L395 337 L388 302 C448 300 467 290 467 258 C467 251 465 238 463 226 L432 63 C402 43 359 33 316 33 L316 33 Z " />
<glyph glyph-name="H" unicode="H" horiz-adv-x="699" d="M650 578 C661 635 677 652 745 654 L751 689 L493 689 L487 654 C537 653 556 640 556 609 C556 600 555 591 552 578 L515 390 L241 390 L278 578 C289 635 305 652 373 654 L379 689 L121 689 L115 654 C167 653 184 640 184 610 C184 601 183 591 180 578 L89 111 C78 54 62 37 -6 35 L-12 0 L246 0 L252 35 C199 36 183 49 183 79 C183 88 185 98 187 111 L231 340 L505 340 L461 111 C450 54 434 37 366 35 L360 0 L618 0 L624 35 C572 37 555 47 555 78 C555 87 557 98 559 111 L650 578 Z " />
<glyph glyph-name="I" unicode="I" horiz-adv-x="327" d="M278 578 C289 635 305 652 373 654 L379 689 L121 689 L115 654 C166 652 184 642 184 610 C184 601 182 589 180 578 L89 111 C78 54 62 37 -6 35 L-12 0 L246 0 L252 35 C201 37 183 47 183 79 C183 88 185 100 187 111 L278 578 Z " />
<glyph glyph-name="J" unicode="J" horiz-adv-x="336" d="M282 578 C293 635 309 652 377 654 L383 689 L125 689 L119 654 C170 652 188 642 188 610 C188 601 186 591 184 578 L91 100 C69 -11 45 -65 -67 -110 L-50 -147 C100 -110 159 -50 190 108 L282 578 Z " />
<glyph glyph-name="K" unicode="K" horiz-adv-x="622" d="M510 547 C588 623 613 647 663 654 L669 689 L457 689 L451 654 C482 653 499 645 499 629 C499 616 491 602 465 576 L253 364 L424 0 L578 0 L584 35 C533 39 511 48 493 84 L344 385 L510 547 Z M278 578 C289 635 305 652 373 654 L379 689 L121 689 L115 654 C166 652 184 642 184 610 C184 601 182 589 180 578 L89 111 C78 54 62 37 -6 35 L-12 0 L246 0 L252 35 C201 37 183 47 183 79 C183 88 185 100 187 111 L278 578 Z " />
<glyph glyph-name="L" unicode="L" horiz-adv-x="532" d="M175 49 L277 575 C288 632 306 652 378 654 L384 689 L121 689 L115 654 C166 652 184 642 184 610 C184 601 182 589 180 578 L89 111 C78 54 62 37 -6 35 L-12 0 L452 0 L499 169 L455 169 C418 79 389 49 316 49 L175 49 Z " />
<glyph glyph-name="M" unicode="M" horiz-adv-x="831" d="M868 689 L670 689 L443 244 C413 185 397 129 394 117 L388 117 L388 131 C388 174 387 199 382 251 L335 689 L140 689 L134 654 C185 651 205 641 205 612 C205 606 203 592 199 578 L77 114 C61 54 47 37 -11 35 L-17 0 L193 0 L199 35 C150 36 133 45 133 70 C133 80 136 92 140 108 L231 460 C242 500 253 575 256 592 L262 592 C262 576 265 506 270 460 L320 0 L378 0 L631 482 C646 510 672 577 677 591 L683 591 C680 577 667 514 661 473 L609 107 C601 51 586 37 521 35 L515 0 L756 0 L762 35 C718 37 705 48 705 83 C705 92 705 101 707 114 L767 578 C774 631 791 650 862 654 L868 689 Z " />
<glyph glyph-name="N" unicode="N" horiz-adv-x="669" d="M526 0 L638 578 C649 635 663 652 725 654 L731 689 L514 689 L508 654 C559 652 577 642 577 610 C577 601 575 589 573 578 L525 333 C505 227 498 144 497 127 L491 127 C490 140 480 200 451 271 L277 689 L121 689 L115 654 C166 652 184 642 184 610 C184 601 182 589 180 578 L89 111 C78 54 62 37 -6 35 L-12 0 L213 0 L219 35 C168 37 150 47 150 79 C150 86 151 98 154 111 L209 394 C227 485 232 562 233 578 L239 578 C240 565 251 501 290 408 L461 0 L526 0 Z " />
<glyph glyph-name="O" unicode="O" horiz-adv-x="673" d="M650 438 C650 611 554 700 410 700 C161 700 63 438 63 252 C63 84 153 -14 308 -14 C555 -14 650 250 650 438 L650 438 Z M546 467 C546 373 519 220 459 124 C420 62 375 33 307 33 C211 33 167 85 167 219 C167 320 191 468 252 562 C289 621 336 652 409 652 C507 652 546 587 546 467 L546 467 Z " />
<glyph glyph-name="P" unicode="P" horiz-adv-x="569" d="M187 114 L220 287 L300 287 C362 287 418 292 465 316 C534 351 586 422 586 520 C586 638 519 689 351 689 L121 689 L115 654 C166 652 184 642 184 610 C184 601 182 589 180 578 L89 111 C78 54 62 37 -6 35 L-12 0 L253 0 L259 35 C203 37 183 48 183 82 C183 91 184 99 187 114 L187 114 Z M485 522 C485 445 455 390 415 361 C385 339 348 335 306 335 L230 335 L289 640 L361 640 C458 640 485 599 485 522 L485 522 Z " />
<glyph glyph-name="Q" unicode="Q" horiz-adv-x="673" d="M650 438 C650 611 555 700 411 700 C162 700 63 438 63 252 C63 120 114 30 223 -4 C348 -43 426 -122 524 -122 C549 -122 585 -118 598 -112 L625 -36 C603 -44 572 -46 553 -46 C490 -46 405 -20 351 -8 C560 18 650 262 650 438 L650 438 Z M546 467 C546 373 519 220 459 124 C420 62 372 33 304 33 C208 33 167 85 167 219 C167 320 191 468 252 562 C289 621 337 652 410 652 C509 652 546 587 546 467 L546 467 Z " />
<glyph glyph-name="R" unicode="R" horiz-adv-x="612" d="M290 640 L349 640 C435 640 478 612 478 526 C478 417 420 362 312 362 L236 362 L290 640 Z M228 319 C288 317 315 303 342 239 C371 170 397 88 425 0 L567 0 L573 35 C522 37 512 57 498 93 C472 158 451 225 432 258 C414 288 385 311 339 323 L339 327 C478 327 579 391 579 537 C579 643 506 689 373 689 L121 689 L115 654 C166 652 184 642 184 610 C184 601 182 588 180 578 L89 111 C78 54 62 37 -6 35 L-12 0 L246 0 L252 35 C201 37 183 47 183 79 C183 88 185 100 187 111 L228 319 Z " />
<glyph glyph-name="S" unicode="S" horiz-adv-x="503" d="M215 33 C116 33 91 77 91 171 L27 171 L4 46 C43 12 111 -14 206 -14 C371 -14 453 77 453 204 C453 298 397 345 332 379 L273 410 C219 439 186 466 186 531 C186 602 232 653 314 653 C399 653 425 603 425 535 L486 535 L505 643 C478 669 420 700 324 700 C197 700 102 621 102 501 C102 416 145 370 212 335 L271 304 C330 274 364 235 364 170 C364 87 309 33 215 33 L215 33 Z " />
<glyph glyph-name="T" unicode="T" horiz-adv-x="569" d="M120 689 L88 532 L136 532 C160 614 177 640 244 640 L315 640 L212 111 C201 54 183 37 113 35 L106 0 L374 0 L381 35 C325 37 306 48 306 80 C306 89 307 95 310 111 L413 640 L490 640 C555 640 552 602 548 532 L594 532 L626 689 L120 689 Z " />
<glyph glyph-name="U" unicode="U" horiz-adv-x="670" d="M317 46 C228 46 190 80 190 155 C190 180 193 206 199 236 L266 578 C277 635 291 652 361 654 L367 689 L109 689 L103 654 C152 652 171 642 171 607 C171 599 170 589 168 578 L103 239 C96 202 94 176 94 152 C94 50 161 -14 314 -14 C451 -14 538 56 570 221 L639 578 C650 635 664 652 726 654 L732 689 L506 689 L500 654 C557 652 574 641 574 610 C574 603 572 590 570 578 L501 221 C480 113 427 46 317 46 L317 46 Z " />
<glyph glyph-name="V" unicode="V" horiz-adv-x="636" d="M251 582 C247 635 268 652 330 654 L337 689 L95 689 L88 654 C139 649 147 624 153 565 L210 0 L302 0 L598 562 C634 631 652 646 706 654 L713 689 L498 689 L491 654 C532 653 553 647 553 626 C553 616 548 601 538 582 L382 279 C332 182 297 96 290 78 L284 78 C283 107 280 217 275 279 L251 582 Z " />
<glyph glyph-name="W" unicode="W" horiz-adv-x="877" d="M575 689 L491 689 L324 298 C292 224 263 145 255 122 L249 122 C250 139 253 202 253 263 L253 298 L244 582 L244 588 C244 637 266 649 325 654 L331 689 L94 689 L88 654 C139 649 149 630 151 566 L169 0 L261 0 L449 438 C469 484 489 547 493 561 L499 561 C499 553 498 529 498 501 C498 480 499 458 500 438 L524 0 L613 0 L849 557 C876 620 898 647 948 654 L954 689 L738 689 L732 654 C777 651 796 641 796 615 C796 601 791 584 781 560 L674 297 C640 213 614 138 608 122 L602 122 C602 142 601 229 597 297 L575 689 Z " />
<glyph glyph-name="X" unicode="X" horiz-adv-x="605" d="M525 574 C569 632 595 649 636 654 L642 689 L442 689 L436 654 C469 652 483 644 483 628 C483 615 475 599 459 577 L350 426 L346 426 L288 578 C283 590 279 605 279 616 C279 639 297 652 344 654 L350 689 L112 689 L106 654 C144 649 162 639 185 580 L273 359 L95 128 C40 57 15 40 -26 35 L-32 0 L177 0 L183 35 C149 37 130 43 130 61 C130 72 137 88 153 110 L293 302 L297 302 L368 112 C387 61 376 37 314 35 L308 0 L548 0 L554 35 C516 40 494 55 470 117 L371 371 L525 574 Z " />
<glyph glyph-name="Y" unicode="Y" horiz-adv-x="589" d="M222 111 C212 54 193 37 123 35 L116 0 L384 0 L391 35 C326 37 309 51 319 106 L353 282 L545 561 C596 635 619 649 660 654 L666 689 L460 689 L454 654 C488 652 507 647 507 628 C507 615 500 601 486 579 L331 341 L327 341 L263 577 C259 592 256 605 256 615 C256 641 275 653 317 654 L323 689 L94 689 L88 654 C126 649 147 636 166 572 L252 276 L222 111 Z " />
<glyph glyph-name="Z" unicode="Z" horiz-adv-x="553" d="M585 633 L595 689 L157 689 L112 527 L156 527 C191 605 228 640 295 640 L477 640 L3 56 L-7 0 L456 0 L504 172 L460 172 C422 82 387 49 310 49 L110 49 L585 633 Z " />
<glyph glyph-name="bracketleft" unicode="&#x5b;" horiz-adv-x="351" d="M220 -155 L229 -113 L123 -113 L287 731 L393 731 L401 773 L216 773 L35 -155 L220 -155 Z " />
<glyph glyph-name="backslash" unicode="&#x5c;" horiz-adv-x="438" d="M195 761 L130 761 L303 -149 L368 -149 L195 761 Z " />
<glyph glyph-name="bracketright" unicode="&#x5d;" horiz-adv-x="351" d="M156 773 L148 731 L254 731 L90 -113 L-15 -113 L-24 -155 L160 -155 L341 773 L156 773 Z " />
<glyph glyph-name="asciicircum" unicode="&#x5e;" horiz-adv-x="594" d="M534 310 L409 708 L341 708 L60 310 L138 310 L362 636 L463 310 L534 310 Z " />
<glyph glyph-name="underscore" unicode="&#x5f;" horiz-adv-x="496" d="M437 -125 L437 -75 L-63 -75 L-63 -125 L437 -125 Z " />
<glyph glyph-name="grave" unicode="&#x60;" horiz-adv-x="545" d="M361 600 L182 753 L129 662 L341 566 L361 600 Z " />
<glyph glyph-name="a" unicode="a" horiz-adv-x="547" d="M344 505 C186 505 35 323 35 123 C35 40 76 -12 150 -12 C228 -12 291 60 333 126 C328 105 326 87 326 70 C326 21 347 -9 398 -9 C430 -9 460 1 496 20 L493 51 C481 49 466 48 461 48 C432 48 416 58 416 87 C416 96 418 108 421 122 L474 355 C487 413 505 466 522 495 L472 495 C459 483 446 471 435 453 C426 490 387 505 344 505 L344 505 Z M338 458 C372 458 392 442 399 421 L350 214 C310 145 238 53 183 53 C153 53 131 75 131 129 C131 298 225 458 338 458 L338 458 Z " />
<glyph glyph-name="b" unicode="b" horiz-adv-x="550" d="M228 -14 C401 -14 515 164 515 355 C515 454 474 503 407 503 C322 503 255 431 213 365 L258 561 C270 613 274 653 274 681 C274 705 271 721 268 730 L255 730 L112 704 L105 674 C153 672 175 660 175 622 C175 612 173 601 170 587 L74 140 C60 74 44 28 30 0 L83 0 C95 10 99 15 117 44 C130 16 169 -14 228 -14 L228 -14 Z M232 35 C192 35 160 57 152 77 L194 273 C234 342 312 438 371 438 C398 438 419 416 419 353 C419 186 347 35 232 35 L232 35 Z " />
<glyph glyph-name="c" unicode="c" horiz-adv-x="455" d="M317 504 C151 504 35 330 35 176 C35 53 104 -14 215 -14 C291 -14 358 26 396 69 L370 104 C331 68 286 43 234 43 C169 43 130 86 130 168 C130 310 202 457 308 457 C352 457 369 434 367 372 L435 372 L455 464 C432 483 392 504 317 504 L317 504 Z " />
<glyph glyph-name="d" unicode="d" horiz-adv-x="553" d="M361 214 C321 145 252 53 186 53 C155 53 131 75 131 135 C131 314 230 457 349 457 C377 457 396 445 407 429 L361 214 Z M344 126 C340 107 338 89 338 73 C338 23 359 -9 406 -9 C436 -9 462 -1 508 20 L505 51 C493 49 482 48 473 48 C441 48 428 59 428 86 C428 96 430 108 433 122 L527 561 C539 619 542 655 542 684 C542 706 540 721 537 730 L524 730 L383 704 L376 674 C424 672 445 661 445 623 C445 611 444 601 441 587 L422 491 C405 500 386 505 363 505 C198 505 35 344 35 128 C35 40 82 -12 156 -12 C238 -12 304 59 344 126 L344 126 Z " />
<glyph glyph-name="e" unicode="e" horiz-adv-x="477" d="M130 171 C130 187 130 203 132 218 L154 218 C357 218 462 284 462 380 C462 460 404 504 316 504 C154 504 35 333 35 179 C35 56 93 -14 203 -14 C293 -14 363 27 407 77 L381 112 C334 68 288 43 232 43 C168 43 130 89 130 171 L130 171 Z M370 386 C370 315 323 264 169 264 L140 264 C164 369 228 456 310 456 C347 456 370 425 370 386 L370 386 Z " />
<glyph glyph-name="f" unicode="f" horiz-adv-x="303" d="M212 436 L318 436 L343 491 L222 491 L243 599 C257 668 285 687 321 687 C350 687 355 661 355 629 L416 629 L433 712 C411 722 376 730 338 730 C243 730 169 676 148 570 L132 490 L66 468 L60 436 L123 436 L31 -35 C16 -114 -11 -136 -95 -141 L-95 -172 C-77 -181 -57 -188 -34 -188 C58 -188 101 -116 119 -27 L212 436 Z " />
<glyph glyph-name="g" unicode="g" horiz-adv-x="496" d="M526 440 L504 508 C477 491 454 481 424 481 C381 481 328 504 259 504 C156 504 61 434 61 328 C61 271 93 214 155 199 C86 177 40 142 40 92 C40 40 77 28 125 24 C145 22 167 20 228 17 C296 14 327 -6 327 -48 C327 -113 280 -154 168 -154 C80 -154 49 -127 49 -85 C49 -52 62 -24 71 -11 L31 -13 C0 -27 -35 -50 -35 -95 C-35 -153 22 -198 166 -198 C303 -198 411 -137 411 -23 C411 58 357 97 239 100 L157 102 C130 103 124 116 124 128 C124 152 161 178 201 186 C208 186 213 185 220 185 C375 185 435 279 435 343 C435 383 417 423 391 445 C417 431 441 426 461 426 C487 426 501 430 526 440 L526 440 Z M235 231 C180 231 151 261 151 314 C151 409 204 458 259 458 C317 458 344 428 344 377 C344 303 310 231 235 231 L235 231 Z " />
<glyph glyph-name="h" unicode="h" horiz-adv-x="531" d="M330 122 C326 101 323 82 323 65 C323 17 343 -9 392 -9 C418 -9 450 -1 496 20 L493 51 C478 49 466 48 456 48 C426 48 415 58 415 82 C415 89 417 103 421 122 L474 371 C477 386 479 400 479 413 C479 465 454 505 392 505 C313 505 247 438 201 368 L244 561 C256 614 260 656 260 683 C260 706 257 721 254 730 L241 730 L98 704 L91 674 C139 672 160 660 160 622 C160 612 159 601 156 587 L30 0 L121 0 L179 273 C218 339 290 434 352 434 C375 434 385 422 385 398 C385 388 383 376 380 362 L330 122 Z " />
<glyph glyph-name="i" unicode="i" horiz-adv-x="268" d="M205 367 C210 389 213 409 213 425 C213 476 188 496 146 496 C115 496 72 485 46 472 L39 441 C94 441 117 427 117 392 C117 385 115 369 111 354 L55 122 C50 101 47 82 47 65 C47 18 69 -9 113 -9 C145 -9 179 -1 225 20 L222 51 C207 49 195 48 185 48 C154 48 143 58 143 82 C143 92 145 106 149 122 L205 367 Z M258 644 C258 679 231 707 196 707 C161 707 134 679 134 644 C134 609 161 581 196 581 C231 581 258 609 258 644 L258 644 Z " />
<glyph glyph-name="j" unicode="j" horiz-adv-x="265" d="M218 367 C222 389 225 409 225 423 C225 475 201 496 158 496 C127 496 84 485 58 472 L51 441 C106 441 129 427 129 392 C129 382 125 363 123 354 L55 12 C34 -93 9 -129 -76 -165 L-60 -206 C52 -171 119 -125 143 -4 L218 367 Z M270 644 C270 679 243 707 208 707 C173 707 146 679 146 644 C146 609 173 581 208 581 C243 581 270 609 270 644 L270 644 Z " />
<glyph glyph-name="k" unicode="k" horiz-adv-x="487" d="M244 561 C256 614 260 656 260 683 C260 706 257 721 254 730 L241 730 L98 704 L91 674 C139 672 160 660 160 622 C160 612 159 601 156 587 L30 0 L121 0 L244 561 Z M267 87 C297 17 322 -6 368 -6 C394 -6 429 5 462 24 L459 55 C445 53 434 52 424 52 C384 52 374 68 358 103 L276 292 L342 355 C402 413 446 448 498 448 L507 491 L406 491 L191 269 L267 87 Z " />
<glyph glyph-name="l" unicode="l" horiz-adv-x="266" d="M240 561 C252 614 256 654 256 683 C256 706 253 721 250 730 L237 730 L94 704 L87 674 C135 672 156 660 156 623 C156 612 155 601 152 587 L52 122 C48 101 46 85 46 67 C46 17 66 -9 116 -9 C146 -9 181 -1 226 20 L223 51 C207 49 194 48 183 48 C151 48 140 57 140 81 C140 91 143 107 146 122 L240 561 Z " />
<glyph glyph-name="m" unicode="m" horiz-adv-x="793" d="M470 365 C472 380 473 391 473 408 C473 464 453 505 391 505 C313 505 249 429 203 357 C208 377 210 401 210 416 C210 469 188 496 151 496 C116 496 79 485 53 472 L46 441 C101 441 120 428 120 393 C120 382 118 369 115 354 L40 0 L131 0 L189 273 C228 339 295 434 352 434 C374 434 384 423 384 398 C384 387 382 374 379 359 L303 0 L394 0 L453 278 C492 342 558 434 614 434 C637 434 647 422 647 398 C647 388 645 376 642 362 L592 122 C588 102 586 86 586 68 C586 17 607 -9 655 -9 C683 -9 712 -1 758 20 L755 51 C741 49 729 48 719 48 C688 48 677 58 677 82 C677 92 680 108 683 122 L736 371 C739 386 741 400 741 413 C741 465 716 505 654 505 C579 505 516 433 470 365 L470 365 Z " />
<glyph glyph-name="n" unicode="n" horiz-adv-x="541" d="M340 122 C336 101 333 81 333 65 C333 19 353 -9 404 -9 C428 -9 460 -1 506 20 L503 51 C489 49 477 48 467 48 C436 48 425 58 425 82 C425 93 428 108 431 122 L484 371 C487 386 489 400 489 413 C489 465 464 505 402 505 C319 505 249 429 203 357 C208 379 210 404 210 416 C210 469 188 496 151 496 C116 496 79 485 53 472 L46 441 C101 441 120 428 120 393 C120 382 118 369 115 354 L40 0 L131 0 L189 273 C228 339 300 434 362 434 C385 434 395 422 395 398 C395 389 393 376 390 362 L340 122 Z " />
<glyph glyph-name="o" unicode="o" horiz-adv-x="518" d="M483 310 C483 418 419 504 298 504 C159 504 35 364 35 178 C35 65 106 -14 220 -14 C377 -14 483 138 483 310 L483 310 Z M387 325 C387 228 362 133 315 79 C291 51 260 34 224 34 C157 34 131 85 131 163 C131 253 154 338 192 393 C219 432 254 456 294 456 C360 456 387 409 387 325 L387 325 Z " />
<glyph glyph-name="p" unicode="p" horiz-adv-x="547" d="M190 274 C230 343 309 438 368 438 C395 438 416 416 416 353 C416 203 351 33 208 33 C180 33 156 45 145 64 L190 274 Z M131 -3 C151 -10 175 -14 201 -14 C394 -14 512 170 512 355 C512 454 471 503 404 503 C319 503 248 426 204 357 C209 379 211 403 211 416 C211 469 189 496 152 496 C117 496 80 485 54 472 L47 441 C102 441 121 428 121 393 C121 382 119 369 116 354 L21 -92 C9 -149 -5 -158 -63 -162 L-70 -196 L170 -196 L177 -162 C125 -160 108 -152 108 -124 C108 -116 109 -105 112 -93 L131 -3 Z " />
<glyph glyph-name="q" unicode="q" horiz-adv-x="522" d="M276 -93 C264 -146 251 -159 182 -162 L174 -196 L413 -196 L421 -162 C378 -159 362 -151 362 -125 C362 -116 364 -106 367 -92 L469 355 C482 413 500 466 517 495 L467 495 C454 483 441 471 430 453 C421 490 382 505 339 505 C181 505 30 323 30 123 C30 40 71 -12 145 -12 C223 -12 286 60 328 126 L276 -93 Z M333 458 C367 458 387 442 394 421 L345 214 C305 145 233 53 178 53 C148 53 126 75 126 129 C126 298 220 458 333 458 L333 458 Z " />
<glyph glyph-name="r" unicode="r" horiz-adv-x="360" d="M204 358 C207 378 208 390 208 411 C208 467 189 496 151 496 C116 496 79 485 53 472 L46 441 C101 441 120 428 120 393 C120 382 118 369 115 354 L40 0 L131 0 L177 218 C203 342 260 403 329 403 C344 403 352 401 359 398 L380 500 C372 503 361 505 352 505 C296 505 240 436 204 358 L204 358 Z " />
<glyph glyph-name="s" unicode="s" horiz-adv-x="423" d="M167 -14 C285 -14 370 53 370 148 C370 218 330 254 255 286 L204 308 C157 328 146 350 146 381 C146 430 179 459 232 459 C295 459 315 429 317 377 L378 377 L393 467 C371 482 329 505 252 505 C152 505 64 454 64 358 C64 289 103 254 161 229 L212 207 C258 187 286 170 286 122 C286 57 234 32 175 32 C108 32 82 55 85 129 L22 129 L5 31 C26 16 69 -14 167 -14 L167 -14 Z " />
<glyph glyph-name="t" unicode="t" horiz-adv-x="319" d="M343 491 L224 491 C232 531 253 606 266 641 L214 633 C187 602 158 541 139 491 L68 468 L62 436 L121 436 L56 127 C52 109 50 90 50 77 C50 12 89 -14 152 -14 C191 -14 227 -1 265 18 L257 51 C235 43 214 38 197 38 C160 38 142 50 142 85 C142 99 144 114 148 134 L212 436 L318 436 L343 491 Z " />
<glyph glyph-name="u" unicode="u" horiz-adv-x="537" d="M329 126 C325 108 323 90 323 75 C323 24 346 -9 394 -9 C426 -9 459 1 495 20 L492 51 C481 50 472 49 464 49 C430 49 415 61 415 89 C415 95 417 109 420 122 L497 491 L407 491 L349 218 C310 152 238 57 176 57 C153 57 143 69 143 93 C143 101 145 115 148 129 L196 356 C200 377 203 396 203 412 C203 469 177 496 140 496 C105 496 68 485 42 472 L35 441 C90 441 109 428 109 393 C109 382 107 369 104 354 L54 120 C51 105 49 91 49 78 C49 26 74 -14 136 -14 C219 -14 284 57 329 126 L329 126 Z " />
<glyph glyph-name="v" unicode="v" horiz-adv-x="457" d="M378 498 C375 453 367 388 260 197 L198 86 L192 86 C193 92 194 118 194 139 C194 160 193 187 191 218 L180 365 C173 461 165 496 117 496 C82 496 48 485 22 472 L15 441 C83 441 88 422 93 356 L123 -4 L194 -4 L462 448 L462 483 L378 498 Z " />
<glyph glyph-name="w" unicode="w" horiz-adv-x="701" d="M481 100 C481 109 477 178 468 250 L439 491 L378 491 L208 100 L202 100 L202 115 C202 138 202 170 196 231 L181 381 C173 464 163 496 117 496 C82 496 48 485 22 472 L15 441 C60 441 78 432 85 406 C90 388 92 365 93 356 L136 -5 L208 -5 L377 369 L380 369 C380 363 380 345 381 321 C382 296 384 264 388 230 L414 -5 L475 -5 L706 448 L706 483 L624 498 C620 439 606 376 525 190 L486 100 L481 100 Z " />
<glyph glyph-name="x" unicode="x" horiz-adv-x="480" d="M194 252 L103 127 C60 67 38 52 -10 43 L-19 0 L81 0 L211 200 L238 104 C258 31 284 -9 325 -9 C361 -9 400 6 430 20 L427 51 C419 50 406 49 397 49 C359 49 343 63 329 106 L281 255 L381 388 C415 433 436 444 481 448 L490 491 L382 491 L264 305 L236 407 C216 479 191 496 153 496 C119 496 92 485 66 472 L59 441 C111 441 133 435 151 381 L194 252 Z " />
<glyph glyph-name="y" unicode="y" horiz-adv-x="468" d="M168 1 C117 -102 59 -122 -20 -139 L2 -213 C93 -195 149 -141 215 -21 L473 448 L473 483 L386 498 C383 448 356 347 311 262 L218 85 L212 85 C212 91 213 102 213 115 C213 143 211 187 202 247 L185 365 C171 463 163 496 115 496 C80 496 47 485 21 472 L14 441 C80 441 86 421 96 356 L114 237 C131 127 136 54 138 -2 L168 1 Z " />
<glyph glyph-name="z" unicode="z" horiz-adv-x="435" d="M453 450 L460 491 L414 491 C400 470 383 460 360 460 C310 460 228 499 165 499 C105 499 78 454 55 346 L91 341 C111 384 131 411 174 411 C206 411 275 406 336 405 L-24 39 L-30 0 L15 0 C24 15 43 31 75 31 C140 31 202 -11 278 -11 C337 -11 356 16 395 145 L364 153 C333 96 298 77 258 77 C230 77 193 81 151 83 C129 84 106 85 83 85 L453 450 Z " />
<glyph glyph-name="braceleft" unicode="&#x7b;" horiz-adv-x="380" d="M45 292 C105 292 137 275 137 228 C137 220 136 211 134 201 L87 -36 C84 -51 83 -64 83 -76 C83 -132 115 -155 179 -155 L259 -155 L267 -115 L210 -115 C170 -115 158 -92 158 -65 C158 -62 159 -49 161 -41 L206 189 C209 203 210 215 210 226 C210 284 176 303 152 307 L153 311 C184 316 236 341 253 429 L298 659 C305 696 324 733 375 733 L432 733 L440 773 L360 773 C297 773 238 740 222 654 L176 417 C163 350 122 326 52 326 L45 292 Z " />
<glyph glyph-name="bar" unicode="&#x7c;" horiz-adv-x="265" d="M89 -149 L265 761 L201 761 L25 -149 L89 -149 Z " />
<glyph glyph-name="braceright" unicode="&#x7d;" horiz-adv-x="389" d="M364 326 C304 326 273 344 273 390 C273 398 274 407 276 417 L322 654 C325 669 326 681 326 693 C326 750 294 773 230 773 L150 773 L142 733 L199 733 C239 733 251 710 251 683 C251 678 250 667 248 659 L203 429 C200 415 199 403 199 392 C199 334 233 315 257 311 L256 307 C225 302 173 277 156 189 L111 -42 C104 -79 85 -116 34 -116 L-22 -116 L-30 -155 L49 -155 C112 -155 170 -122 186 -40 L234 201 C247 268 287 292 357 292 L364 326 Z " />
<glyph glyph-name="asciitilde" unicode="&#x7e;" horiz-adv-x="554" d="M379 320 C312 320 271 368 193 368 C135 368 87 322 60 238 L94 219 C118 259 142 286 181 286 C243 286 294 237 372 237 C429 237 482 284 514 362 L476 383 C453 344 418 320 379 320 L379 320 Z " />
<glyph glyph-name="uni00A0" unicode="&#xa0;" horiz-adv-x="225" d="" />
<glyph glyph-name="exclamdown" unicode="&#xa1;" horiz-adv-x="325" d="M21 -205 L142 -190 L224 287 L171 287 L21 -205 Z M160 437 C160 401 190 372 226 372 C263 372 291 401 291 437 C291 475 263 505 227 505 C191 505 160 475 160 437 L160 437 Z " />
<glyph glyph-name="cent" unicode="&#xa2;" horiz-adv-x="455" d="M166 -100 L211 -100 L228 -13 C299 -9 360 28 396 69 L370 104 C332 69 289 45 240 43 L324 456 C355 450 367 426 367 382 L367 372 L435 372 L455 464 C434 481 398 500 333 503 L353 598 L308 598 L288 502 C138 483 35 321 35 176 C35 65 91 0 184 -12 L166 -100 Z M130 168 C130 296 189 429 278 453 L196 48 C154 62 130 103 130 168 L130 168 Z " />
<glyph glyph-name="sterling" unicode="&#xa3;" horiz-adv-x="558" d="M47 301 L123 301 L86 111 C75 54 59 37 -8 35 L-15 0 L469 0 L517 169 L473 169 C435 79 406 49 333 49 L172 49 L221 301 L413 301 L424 345 L229 345 L252 459 C278 590 324 626 395 626 C462 626 471 588 471 525 L536 525 L558 626 C535 648 493 672 411 672 C286 672 183 605 149 432 L132 345 L58 345 L47 301 Z " />
<glyph glyph-name="currency" unicode="&#xa4;" horiz-adv-x="491" d="M218 99 C241 99 264 102 286 109 L321 31 L383 68 L350 139 C405 177 442 239 442 321 C442 360 429 393 407 416 L466 487 L417 525 L354 450 C335 457 312 461 288 461 C262 461 236 457 212 448 L179 524 L116 487 L149 414 C98 376 64 315 64 237 C64 198 76 166 97 143 L35 69 L85 31 L150 109 C170 102 193 99 218 99 L218 99 Z M279 416 C333 416 353 388 353 340 C353 266 326 145 227 145 C176 145 155 170 155 223 C155 335 197 416 279 416 L279 416 Z " />
<glyph glyph-name="yen" unicode="&#xa5;" horiz-adv-x="583" d="M84 336 L231 336 L249 276 L246 263 L72 263 L62 219 L238 219 L219 111 C209 54 190 37 120 35 L113 0 L381 0 L388 35 C332 37 313 48 313 81 C313 86 315 101 317 111 L338 219 L526 219 L536 263 L346 263 L350 282 L387 336 L548 336 L558 380 L417 380 L542 561 C593 635 616 649 657 654 L663 689 L457 689 L451 654 C485 652 504 647 504 628 C504 618 501 607 483 579 L328 341 L324 341 L260 577 C256 592 253 605 253 615 C253 640 269 653 314 654 L320 689 L91 689 L85 654 C123 649 144 636 163 572 L219 380 L94 380 L84 336 Z " />
<glyph glyph-name="brokenbar" unicode="&#xa6;" horiz-adv-x="266" d="M188 356 L266 757 L202 757 L124 356 L188 356 Z M89 -150 L167 251 L103 251 L25 -150 L89 -150 Z " />
<glyph glyph-name="section" unicode="&#xa7;" horiz-adv-x="468" d="M40 283 C40 213 75 169 130 137 L212 89 C255 64 286 41 286 -7 C286 -61 240 -86 175 -86 C108 -86 85 -62 85 -1 L85 11 L22 11 L5 -87 C26 -102 69 -132 167 -132 C285 -132 370 -65 370 23 C370 89 336 119 281 152 C372 171 444 232 444 328 C444 403 410 439 332 486 L259 530 C220 553 201 572 201 603 C201 652 234 681 287 681 C350 681 370 651 372 599 L433 599 L448 689 C426 704 384 727 307 727 C207 727 119 676 119 580 C119 511 156 484 202 458 C101 430 40 375 40 283 L40 283 Z M119 305 C119 373 166 416 246 434 L282 415 C330 389 361 358 361 299 C361 229 313 193 237 178 L173 216 C136 238 119 267 119 305 L119 305 Z " />
<glyph glyph-name="dieresis" unicode="&#xa8;" horiz-adv-x="445" d="M178 638 C178 672 152 698 118 698 C84 698 58 672 58 638 C58 604 84 578 118 578 C152 578 178 604 178 638 L178 638 Z M387 638 C387 672 361 698 327 698 C293 698 267 672 267 638 C267 604 293 578 327 578 C361 578 387 604 387 638 L387 638 Z " />
<glyph glyph-name="copyright" unicode="&#xa9;" horiz-adv-x="797" d="M290 348 C290 454 325 521 412 521 C476 521 486 492 495 438 L559 438 L559 526 C533 543 484 561 415 561 C270 561 201 475 201 340 C201 204 272 125 418 125 C487 125 535 143 562 160 L562 247 L504 247 C495 193 479 167 414 167 C328 167 290 242 290 348 L290 348 Z M411 31 C243 31 110 153 110 343 C110 537 243 657 411 657 C579 657 712 537 712 343 C712 153 579 31 411 31 L411 31 Z M411 -12 C613 -12 767 128 767 344 C767 558 607 701 411 701 C215 701 55 558 55 344 C55 128 209 -12 411 -12 L411 -12 Z " />
<glyph glyph-name="ordfeminine" unicode="&#xaa;" horiz-adv-x="437" d="M279 738 C157 738 40 597 40 442 C40 378 72 338 129 338 C189 338 238 394 271 445 C267 429 265 410 265 401 C265 363 282 340 321 340 C350 340 377 345 407 363 L405 388 C391 386 387 386 380 386 C357 386 345 394 345 416 C345 423 346 432 349 443 L390 622 C400 667 414 708 427 730 L378 730 C368 721 358 712 350 698 C343 726 312 738 279 738 L279 738 Z M275 700 C300 700 316 689 322 673 L284 513 C253 459 201 391 161 391 C139 391 123 408 123 449 C123 578 192 700 275 700 L275 700 Z " />
<glyph glyph-name="guillemotleft" unicode="&#xab;" horiz-adv-x="506" d="M280 426 L251 457 L40 244 L168 31 L207 61 L136 241 L280 426 Z M476 426 L447 457 L236 244 L364 31 L403 61 L332 241 L476 426 Z " />
<glyph glyph-name="logicalnot" unicode="&#xac;" horiz-adv-x="507" d="M55 237 L387 237 L355 72 L414 72 L457 293 L66 293 L55 237 Z " />
<glyph glyph-name="uni00AD" unicode="&#xad;" horiz-adv-x="313" d="M251 235 L264 306 L61 306 L48 235 L251 235 Z " />
<glyph glyph-name="registered" unicode="&#xae;" horiz-adv-x="797" d="M431 331 C510 333 558 355 558 441 C558 531 493 555 396 555 L224 555 L224 524 C274 523 278 510 278 465 L278 224 C278 179 274 166 224 165 L224 136 L414 136 L414 165 C364 166 352 175 352 224 L352 326 C397 325 407 305 441 242 C456 214 477 174 494 136 L609 136 L609 166 C571 167 564 172 547 202 C532 231 522 250 513 265 C491 300 463 320 431 328 L431 331 Z M479 441 C479 379 457 361 391 361 L352 361 L352 517 L378 517 C457 517 479 494 479 441 L479 441 Z M411 31 C243 31 110 153 110 343 C110 537 243 657 411 657 C579 657 712 537 712 343 C712 153 579 31 411 31 L411 31 Z M411 -12 C613 -12 767 128 767 344 C767 558 607 701 411 701 C215 701 55 558 55 344 C55 128 209 -12 411 -12 L411 -12 Z " />
<glyph glyph-name="macron" unicode="&#xaf;" horiz-adv-x="351" d="M311 590 L321 647 L40 647 L30 590 L311 590 Z " />
<glyph glyph-name="degree" unicode="&#xb0;" horiz-adv-x="411" d="M391 549 C391 641 334 696 241 696 C133 696 60 620 60 501 C60 411 118 357 208 357 C324 357 391 450 391 549 L391 549 Z M214 414 C162 414 136 437 136 505 C136 586 173 639 236 639 C287 639 314 616 314 552 C314 475 283 414 214 414 L214 414 Z " />
<glyph glyph-name="plusminus" unicode="&#xb1;" horiz-adv-x="559" d="M301 507 L271 352 L103 352 L92 296 L260 296 L228 132 L287 132 L319 296 L483 296 L494 352 L330 352 L360 507 L301 507 Z M40 25 L431 25 L441 81 L50 81 L40 25 Z " />
<glyph glyph-name="twosuperior" unicode="&#xb2;" horiz-adv-x="343" d="M220 651 C146 651 95 617 66 576 L85 548 C115 577 150 600 191 600 C231 600 252 585 252 546 C252 484 210 450 116 371 L21 291 L12 250 L292 250 L314 308 L94 308 L165 360 C261 429 335 482 335 559 C335 621 290 651 220 651 L220 651 Z " />
<glyph glyph-name="threesuperior" unicode="&#xb3;" horiz-adv-x="329" d="M171 604 C210 604 230 589 230 554 C230 501 192 478 145 478 C134 478 124 478 115 479 L105 436 C116 437 123 438 139 438 C179 438 204 426 204 381 C204 307 128 268 47 268 C31 268 3 270 -13 274 L-8 239 C10 233 36 230 66 230 C168 230 284 276 284 381 C284 426 255 456 202 462 C262 473 311 513 311 569 C311 626 262 651 201 651 C140 651 93 627 61 590 L84 564 C108 588 137 604 171 604 L171 604 Z " />
<glyph glyph-name="acute" unicode="&#xb4;" horiz-adv-x="545" d="M197 566 L409 662 L356 753 L177 600 L197 566 Z " />
<glyph glyph-name="mu" unicode="&#xb5;" horiz-adv-x="551" d="M92 -175 L115 -66 C119 -45 121 -27 121 -14 C121 -1 120 6 119 11 L123 13 C128 -2 146 -14 173 -14 C233 -14 295 46 343 126 C339 108 337 90 337 75 C337 24 360 -9 408 -9 C440 -9 473 1 509 20 L506 51 C495 50 486 49 478 49 C444 49 429 61 429 89 C429 98 430 105 434 122 L511 491 L421 491 L363 218 C324 152 252 57 190 57 C167 57 156 69 156 93 C156 103 158 115 161 129 L209 356 C213 377 217 400 217 412 C217 468 191 496 154 496 C119 496 82 485 56 472 L49 441 C104 441 123 428 123 393 C123 382 121 369 118 354 L43 5 C28 -64 12 -122 -10 -176 L-10 -199 L92 -175 Z " />
<glyph glyph-name="paragraph" unicode="&#xb6;" horiz-adv-x="641" d="M681 689 L343 689 C173 689 70 626 70 464 C70 367 139 307 288 307 L332 307 L248 -125 L303 -125 L452 642 L537 642 L388 -125 L443 -125 L580 582 C591 639 608 656 675 658 L681 689 Z M397 642 L341 355 L314 355 C259 355 242 379 242 438 C242 578 285 642 351 642 L397 642 Z " />
<glyph glyph-name="periodcentered" unicode="&#xb7;" horiz-adv-x="291" d="M216 278 C216 319 186 351 145 351 C104 351 74 319 74 278 C74 237 104 205 145 205 C186 205 216 237 216 278 L216 278 Z " />
<glyph glyph-name="cedilla" unicode="&#xb8;" horiz-adv-x="288" d="M233 -113 C233 -77 210 -44 150 -39 L168 4 L131 10 L98 -69 L97 -90 C134 -91 171 -97 171 -123 C171 -153 153 -159 131 -159 C109 -159 91 -155 69 -141 L53 -173 C72 -186 96 -198 134 -198 C201 -198 233 -168 233 -113 L233 -113 Z " />
<glyph glyph-name="onesuperior" unicode="&#xb9;" horiz-adv-x="304" d="M258 644 L201 644 L65 571 L68 543 C97 551 137 565 166 578 L111 321 C103 284 89 281 18 279 L12 250 L260 250 L266 279 C192 281 181 287 190 326 L258 644 Z " />
<glyph glyph-name="ordmasculine" unicode="&#xba;" horiz-adv-x="418" d="M388 586 C388 667 338 733 245 733 C137 733 40 627 40 485 C40 399 95 339 183 339 C306 339 388 454 388 586 L388 586 Z M307 595 C307 523 289 452 255 414 C237 393 215 380 189 380 C141 380 122 419 122 475 C122 542 139 605 167 646 C186 674 211 692 240 692 C287 692 307 656 307 595 L307 595 Z " />
<glyph glyph-name="guillemotright" unicode="&#xbb;" horiz-adv-x="506" d="M226 62 L255 31 L466 244 L338 457 L299 427 L370 247 L226 62 Z M30 62 L59 31 L270 244 L142 457 L103 427 L174 247 L30 62 Z " />
<glyph glyph-name="onequarter" unicode="&#xbc;" horiz-adv-x="832" d="M735 730 L681 730 L64 -123 L118 -123 L735 730 Z M639 -21 L721 -10 L743 91 L795 91 L802 127 L750 127 L786 297 L728 287 C702 239 685 197 670 127 L536 127 L757 394 L681 394 L470 116 L465 91 L663 91 L639 -21 Z M258 644 L201 644 L65 571 L68 543 C97 551 137 565 166 578 L111 321 C103 284 89 281 18 279 L12 250 L260 250 L266 279 C192 281 181 287 190 326 L258 644 Z " />
<glyph glyph-name="onehalf" unicode="&#xbd;" horiz-adv-x="838" d="M735 730 L681 730 L64 -123 L118 -123 L735 730 Z M703 401 C629 401 578 367 549 326 L568 298 C598 327 633 350 674 350 C714 350 735 335 735 296 C735 234 693 200 599 121 L504 41 L495 0 L775 0 L797 58 L577 58 L648 110 C744 179 818 232 818 309 C818 371 773 401 703 401 L703 401 Z M258 644 L201 644 L65 571 L68 543 C97 551 137 565 166 578 L111 321 C103 284 89 281 18 279 L12 250 L260 250 L266 279 C192 281 181 287 190 326 L258 644 Z " />
<glyph glyph-name="threequarters" unicode="&#xbe;" horiz-adv-x="857" d="M171 604 C210 604 230 589 230 554 C230 501 192 478 145 478 C134 478 124 478 115 479 L105 436 C116 437 123 438 139 438 C179 438 204 426 204 381 C204 307 128 268 47 268 C31 268 3 270 -13 274 L-8 239 C10 233 36 230 66 230 C168 230 284 276 284 381 C284 426 255 456 202 462 C262 473 311 513 311 569 C311 626 262 651 201 651 C140 651 93 627 61 590 L84 564 C108 588 137 604 171 604 L171 604 Z M760 730 L706 730 L89 -123 L143 -123 L760 730 Z M664 -21 L746 -10 L768 91 L820 91 L827 127 L775 127 L811 297 L753 287 C727 239 710 197 695 127 L561 127 L782 394 L706 394 L495 116 L490 91 L688 91 L664 -21 Z " />
<glyph glyph-name="questiondown" unicode="&#xbf;" horiz-adv-x="443" d="M209 432 C209 394 242 364 280 364 C318 364 348 394 348 432 C348 472 318 505 280 505 C241 505 209 472 209 432 L209 432 Z M174 -162 C123 -162 100 -132 100 -83 C100 -8 135 18 212 71 C273 113 302 156 302 210 C302 241 293 265 287 277 L249 277 C249 209 243 170 155 120 C55 63 0 12 0 -78 C0 -174 77 -208 170 -208 C242 -208 298 -183 333 -161 L353 -71 L287 -71 C271 -128 241 -162 174 -162 L174 -162 Z " />
<glyph glyph-name="Agrave" unicode="&#xc0;" horiz-adv-x="643" d="M428 107 C429 96 429 92 429 90 C429 52 412 37 356 35 L349 0 L588 0 L595 35 C544 40 529 64 523 123 L466 689 L372 689 L79 121 C43 52 20 42 -30 35 L-37 0 L178 0 L185 35 C144 36 123 42 123 63 C123 73 128 88 138 107 L193 215 L419 215 L428 107 Z M335 490 C370 558 383 595 385 602 L391 602 C391 600 390 592 390 572 C390 552 391 520 395 475 L415 263 L218 263 L335 490 Z M498 761 L307 889 L264 797 L478 727 L498 761 Z " />
<glyph glyph-name="Aacute" unicode="&#xc1;" horiz-adv-x="643" d="M428 107 C429 96 429 92 429 90 C429 52 412 37 356 35 L349 0 L588 0 L595 35 C544 40 529 64 523 123 L466 689 L372 689 L79 121 C43 52 20 42 -30 35 L-37 0 L178 0 L185 35 C144 36 123 42 123 63 C123 73 128 88 138 107 L193 215 L419 215 L428 107 Z M335 490 C370 558 383 595 385 602 L391 602 C391 600 390 592 390 572 C390 552 391 520 395 475 L415 263 L218 263 L335 490 Z M330 727 L544 797 L501 889 L310 761 L330 727 Z " />
<glyph glyph-name="Acircumflex" unicode="&#xc2;" horiz-adv-x="643" d="M428 107 C429 96 429 92 429 90 C429 52 412 37 356 35 L349 0 L588 0 L595 35 C544 40 529 64 523 123 L466 689 L372 689 L79 121 C43 52 20 42 -30 35 L-37 0 L178 0 L185 35 C144 36 123 42 123 63 C123 73 128 88 138 107 L193 215 L419 215 L428 107 Z M335 490 C370 558 383 595 385 602 L391 602 C391 600 390 592 390 572 C390 552 391 520 395 475 L415 263 L218 263 L335 490 Z M553 724 L577 752 L448 907 L256 754 L277 724 L433 809 L553 724 Z " />
<glyph glyph-name="Atilde" unicode="&#xc3;" horiz-adv-x="643" d="M428 107 C429 96 429 92 429 90 C429 52 412 37 356 35 L349 0 L588 0 L595 35 C544 40 529 64 523 123 L466 689 L372 689 L79 121 C43 52 20 42 -30 35 L-37 0 L178 0 L185 35 C144 36 123 42 123 63 C123 73 128 88 138 107 L193 215 L419 215 L428 107 Z M335 490 C370 558 383 595 385 602 L391 602 C391 600 390 592 390 572 C390 552 391 520 395 475 L415 263 L218 263 L335 490 Z M498 818 C449 818 426 864 360 864 C300 864 269 819 255 764 L289 751 C306 778 322 798 360 798 C403 798 429 754 498 754 C557 754 590 798 607 849 L571 863 C554 836 533 818 498 818 L498 818 Z " />
<glyph glyph-name="Adieresis" unicode="&#xc4;" horiz-adv-x="643" d="M428 107 C429 96 429 92 429 90 C429 52 412 37 356 35 L349 0 L588 0 L595 35 C544 40 529 64 523 123 L466 689 L372 689 L79 121 C43 52 20 42 -30 35 L-37 0 L178 0 L185 35 C144 36 123 42 123 63 C123 73 128 88 138 107 L193 215 L419 215 L428 107 Z M335 490 C370 558 383 595 385 602 L391 602 C391 600 390 592 390 572 C390 552 391 520 395 475 L415 263 L218 263 L335 490 Z M385 787 C385 821 359 847 325 847 C291 847 265 821 265 787 C265 753 291 727 325 727 C359 727 385 753 385 787 L385 787 Z M594 787 C594 821 568 847 534 847 C500 847 474 821 474 787 C474 753 500 727 534 727 C568 727 594 753 594 787 L594 787 Z " />
<glyph glyph-name="Aring" unicode="&#xc5;" horiz-adv-x="643" d="M428 107 C429 96 429 92 429 90 C429 52 412 37 356 35 L349 0 L588 0 L595 35 C544 40 529 64 523 123 L466 689 L372 689 L79 121 C43 52 20 42 -30 35 L-37 0 L178 0 L185 35 C144 36 123 42 123 63 C123 73 128 88 138 107 L193 215 L419 215 L428 107 Z M335 490 C370 558 383 595 385 602 L391 602 C391 600 390 592 390 572 C390 552 391 520 395 475 L415 263 L218 263 L335 490 Z M417 719 C482 719 525 764 525 827 C525 880 490 923 430 923 C366 923 321 877 321 814 C321 761 357 719 417 719 L417 719 Z M427 888 C463 888 484 861 484 823 C484 784 456 755 416 755 C381 755 362 779 362 816 C362 857 388 888 427 888 L427 888 Z " />
<glyph glyph-name="AE" unicode="&#xc6;" horiz-adv-x="916" d="M342 35 L336 0 L827 0 L859 165 L814 165 C787 72 764 49 687 49 L523 49 L579 336 L669 336 C731 336 747 319 740 265 L781 265 L818 455 L777 455 C762 398 739 384 677 384 L588 384 L638 640 L801 640 C859 640 870 615 877 539 L919 539 L938 689 L406 689 L400 654 C442 653 460 647 460 632 C460 624 454 612 443 597 L91 121 C45 59 20 42 -30 35 L-37 0 L178 0 L185 35 C146 36 126 44 126 62 C126 73 137 93 148 107 L250 245 L463 245 L437 111 C426 54 410 37 342 35 L342 35 Z M546 642 L552 642 C547 629 526 568 510 484 L472 293 L286 293 L546 642 Z " />
<glyph glyph-name="Ccedilla" unicode="&#xc7;" horiz-adv-x="578" d="M354 -113 C354 -77 331 -44 271 -39 L281 -14 L296 -14 C379 -14 458 13 498 38 L519 143 L453 143 C423 65 379 33 300 33 C214 33 167 83 167 232 C167 398 227 653 416 653 C492 653 501 617 505 540 L573 540 L595 649 C563 675 518 700 428 700 C187 700 63 470 63 240 C63 100 116 9 243 -10 L219 -69 L218 -90 C255 -91 292 -97 292 -123 C292 -153 274 -159 252 -159 C230 -159 212 -155 190 -141 L174 -173 C193 -186 217 -198 255 -198 C322 -198 354 -168 354 -113 L354 -113 Z " />
<glyph glyph-name="Egrave" unicode="&#xc8;" horiz-adv-x="568" d="M-12 0 L479 0 L511 165 L466 165 C439 72 416 49 339 49 L175 49 L231 336 L321 336 C383 336 399 319 392 265 L433 265 L470 455 L429 455 C414 398 391 384 329 384 L240 384 L290 640 L453 640 C511 640 522 615 529 539 L571 539 L590 689 L121 689 L115 654 C166 652 184 642 184 610 C184 601 182 589 180 578 L89 111 C78 54 62 37 -6 35 L-12 0 Z M486 761 L295 889 L252 797 L466 727 L486 761 Z " />
<glyph glyph-name="Eacute" unicode="&#xc9;" horiz-adv-x="568" d="M-12 0 L479 0 L511 165 L466 165 C439 72 416 49 339 49 L175 49 L231 336 L321 336 C383 336 399 319 392 265 L433 265 L470 455 L429 455 C414 398 391 384 329 384 L240 384 L290 640 L453 640 C511 640 522 615 529 539 L571 539 L590 689 L121 689 L115 654 C166 652 184 642 184 610 C184 601 182 589 180 578 L89 111 C78 54 62 37 -6 35 L-12 0 Z M304 727 L518 797 L475 889 L284 761 L304 727 Z " />
<glyph glyph-name="Ecircumflex" unicode="&#xca;" horiz-adv-x="568" d="M-12 0 L479 0 L511 165 L466 165 C439 72 416 49 339 49 L175 49 L231 336 L321 336 C383 336 399 319 392 265 L433 265 L470 455 L429 455 C414 398 391 384 329 384 L240 384 L290 640 L453 640 C511 640 522 615 529 539 L571 539 L590 689 L121 689 L115 654 C166 652 184 642 184 610 C184 601 182 589 180 578 L89 111 C78 54 62 37 -6 35 L-12 0 Z M510 724 L534 752 L405 907 L213 754 L234 724 L390 809 L510 724 Z " />
<glyph glyph-name="Edieresis" unicode="&#xcb;" horiz-adv-x="568" d="M-12 0 L479 0 L511 165 L466 165 C439 72 416 49 339 49 L175 49 L231 336 L321 336 C383 336 399 319 392 265 L433 265 L470 455 L429 455 C414 398 391 384 329 384 L240 384 L290 640 L453 640 C511 640 522 615 529 539 L571 539 L590 689 L121 689 L115 654 C166 652 184 642 184 610 C184 601 182 589 180 578 L89 111 C78 54 62 37 -6 35 L-12 0 Z M343 787 C343 821 317 847 283 847 C249 847 223 821 223 787 C223 753 249 727 283 727 C317 727 343 753 343 787 L343 787 Z M552 787 C552 821 526 847 492 847 C458 847 432 821 432 787 C432 753 458 727 492 727 C526 727 552 753 552 787 L552 787 Z " />
<glyph glyph-name="Igrave" unicode="&#xcc;" horiz-adv-x="327" d="M278 578 C289 635 305 652 373 654 L379 689 L121 689 L115 654 C166 652 184 642 184 610 C184 601 182 589 180 578 L89 111 C78 54 62 37 -6 35 L-12 0 L246 0 L252 35 C201 37 183 47 183 79 C183 88 185 100 187 111 L278 578 Z M348 761 L157 889 L114 797 L328 727 L348 761 Z " />
<glyph glyph-name="Iacute" unicode="&#xcd;" horiz-adv-x="327" d="M278 578 C289 635 305 652 373 654 L379 689 L121 689 L115 654 C166 652 184 642 184 610 C184 601 182 589 180 578 L89 111 C78 54 62 37 -6 35 L-12 0 L246 0 L252 35 C201 37 183 47 183 79 C183 88 185 100 187 111 L278 578 Z M166 727 L380 797 L337 889 L146 761 L166 727 Z " />
<glyph glyph-name="Icircumflex" unicode="&#xce;" horiz-adv-x="327" d="M278 578 C289 635 305 652 373 654 L379 689 L121 689 L115 654 C166 652 184 642 184 610 C184 601 182 589 180 578 L89 111 C78 54 62 37 -6 35 L-12 0 L246 0 L252 35 C201 37 183 47 183 79 C183 88 185 100 187 111 L278 578 Z M400 724 L424 752 L295 907 L103 754 L124 724 L280 809 L400 724 Z " />
<glyph glyph-name="Idieresis" unicode="&#xcf;" horiz-adv-x="327" d="M278 578 C289 635 305 652 373 654 L379 689 L121 689 L115 654 C166 652 184 642 184 610 C184 601 182 589 180 578 L89 111 C78 54 62 37 -6 35 L-12 0 L246 0 L252 35 C201 37 183 47 183 79 C183 88 185 100 187 111 L278 578 Z M215 787 C215 821 189 847 155 847 C121 847 95 821 95 787 C95 753 121 727 155 727 C189 727 215 753 215 787 L215 787 Z M424 787 C424 821 398 847 364 847 C330 847 304 821 304 787 C304 753 330 727 364 727 C398 727 424 753 424 787 L424 787 Z " />
<glyph glyph-name="Eth" unicode="&#xd0;" horiz-adv-x="658" d="M-12 0 L256 0 C381 0 449 14 511 74 C589 150 635 306 635 440 C635 616 529 689 357 689 L121 689 L115 654 C166 652 184 642 184 610 C184 601 182 589 180 578 L143 388 L61 388 L51 342 L134 342 L89 111 C78 54 62 37 -6 35 L-12 0 Z M362 642 C505 642 534 566 534 448 C534 341 506 196 453 127 C403 62 344 51 260 51 L176 51 L232 342 L392 342 L402 388 L241 388 L291 642 L362 642 Z " />
<glyph glyph-name="Ntilde" unicode="&#xd1;" horiz-adv-x="669" d="M526 0 L638 578 C649 635 663 652 725 654 L731 689 L514 689 L508 654 C559 652 577 642 577 610 C577 601 575 589 573 578 L525 333 C505 227 498 144 497 127 L491 127 C490 140 480 200 451 271 L277 689 L121 689 L115 654 C166 652 184 642 184 610 C184 601 182 589 180 578 L89 111 C78 54 62 37 -6 35 L-12 0 L213 0 L219 35 C168 37 150 47 150 79 C150 86 151 98 154 111 L209 394 C227 485 232 562 233 578 L239 578 C240 565 251 501 290 408 L461 0 L526 0 Z M516 818 C467 818 444 864 378 864 C318 864 287 819 273 764 L307 751 C324 778 340 798 378 798 C421 798 447 754 516 754 C575 754 608 798 625 849 L589 863 C572 836 551 818 516 818 L516 818 Z " />
<glyph glyph-name="Ograve" unicode="&#xd2;" horiz-adv-x="673" d="M650 438 C650 611 554 700 410 700 C161 700 63 438 63 252 C63 84 153 -14 308 -14 C555 -14 650 250 650 438 L650 438 Z M546 467 C546 373 519 220 459 124 C420 62 375 33 307 33 C211 33 167 85 167 219 C167 320 191 468 252 562 C289 621 336 652 409 652 C507 652 546 587 546 467 L546 467 Z M531 761 L340 889 L297 797 L511 727 L531 761 Z " />
<glyph glyph-name="Oacute" unicode="&#xd3;" horiz-adv-x="673" d="M650 438 C650 611 554 700 410 700 C161 700 63 438 63 252 C63 84 153 -14 308 -14 C555 -14 650 250 650 438 L650 438 Z M546 467 C546 373 519 220 459 124 C420 62 375 33 307 33 C211 33 167 85 167 219 C167 320 191 468 252 562 C289 621 336 652 409 652 C507 652 546 587 546 467 L546 467 Z M329 727 L543 797 L500 889 L309 761 L329 727 Z " />
<glyph glyph-name="Ocircumflex" unicode="&#xd4;" horiz-adv-x="673" d="M650 438 C650 611 554 700 410 700 C161 700 63 438 63 252 C63 84 153 -14 308 -14 C555 -14 650 250 650 438 L650 438 Z M546 467 C546 373 519 220 459 124 C420 62 375 33 307 33 C211 33 167 85 167 219 C167 320 191 468 252 562 C289 621 336 652 409 652 C507 652 546 587 546 467 L546 467 Z M565 724 L589 752 L460 907 L268 754 L289 724 L445 809 L565 724 Z " />
<glyph glyph-name="Otilde" unicode="&#xd5;" horiz-adv-x="673" d="M650 438 C650 611 554 700 410 700 C161 700 63 438 63 252 C63 84 153 -14 308 -14 C555 -14 650 250 650 438 L650 438 Z M546 467 C546 373 519 220 459 124 C420 62 375 33 307 33 C211 33 167 85 167 219 C167 320 191 468 252 562 C289 621 336 652 409 652 C507 652 546 587 546 467 L546 467 Z M506 818 C457 818 434 864 368 864 C308 864 277 819 263 764 L297 751 C314 778 330 798 368 798 C411 798 437 754 506 754 C565 754 598 798 615 849 L579 863 C562 836 541 818 506 818 L506 818 Z " />
<glyph glyph-name="Odieresis" unicode="&#xd6;" horiz-adv-x="673" d="M650 438 C650 611 554 700 410 700 C161 700 63 438 63 252 C63 84 153 -14 308 -14 C555 -14 650 250 650 438 L650 438 Z M546 467 C546 373 519 220 459 124 C420 62 375 33 307 33 C211 33 167 85 167 219 C167 320 191 468 252 562 C289 621 336 652 409 652 C507 652 546 587 546 467 L546 467 Z M389 787 C389 821 363 847 329 847 C295 847 269 821 269 787 C269 753 295 727 329 727 C363 727 389 753 389 787 L389 787 Z M598 787 C598 821 572 847 538 847 C504 847 478 821 478 787 C478 753 504 727 538 727 C572 727 598 753 598 787 L598 787 Z " />
<glyph glyph-name="multiply" unicode="&#xd7;" horiz-adv-x="562" d="M118 433 L246 273 L56 114 L86 76 L277 236 L406 76 L450 112 L321 271 L512 431 L481 469 L290 309 L161 469 L118 433 Z " />
<glyph glyph-name="Oslash" unicode="&#xd8;" horiz-adv-x="673" d="M650 438 C650 518 629 580 592 624 L657 707 L617 736 L557 657 C517 685 468 700 410 700 C161 700 63 438 63 252 C63 179 80 119 112 75 L41 -17 L77 -44 L142 41 C183 5 239 -14 308 -14 C555 -14 650 250 650 438 L650 438 Z M546 467 C546 373 519 220 459 124 C420 62 375 33 307 33 C248 33 208 52 187 98 L537 552 C543 528 546 499 546 467 L546 467 Z M167 219 C167 320 191 468 252 562 C289 621 336 652 409 652 C459 652 493 635 515 603 L171 153 C168 172 167 194 167 219 L167 219 Z " />
<glyph glyph-name="Ugrave" unicode="&#xd9;" horiz-adv-x="670" d="M317 46 C228 46 190 80 190 155 C190 180 193 206 199 236 L266 578 C277 635 291 652 361 654 L367 689 L109 689 L103 654 C152 652 171 642 171 607 C171 599 170 589 168 578 L103 239 C96 202 94 176 94 152 C94 50 161 -14 314 -14 C451 -14 538 56 570 221 L639 578 C650 635 664 652 726 654 L732 689 L506 689 L500 654 C557 652 574 641 574 610 C574 603 572 590 570 578 L501 221 C480 113 427 46 317 46 L317 46 Z M559 761 L368 889 L325 797 L539 727 L559 761 Z " />
<glyph glyph-name="Uacute" unicode="&#xda;" horiz-adv-x="670" d="M317 46 C228 46 190 80 190 155 C190 180 193 206 199 236 L266 578 C277 635 291 652 361 654 L367 689 L109 689 L103 654 C152 652 171 642 171 607 C171 599 170 589 168 578 L103 239 C96 202 94 176 94 152 C94 50 161 -14 314 -14 C451 -14 538 56 570 221 L639 578 C650 635 664 652 726 654 L732 689 L506 689 L500 654 C557 652 574 641 574 610 C574 603 572 590 570 578 L501 221 C480 113 427 46 317 46 L317 46 Z M357 727 L571 797 L528 889 L337 761 L357 727 Z " />
<glyph glyph-name="Ucircumflex" unicode="&#xdb;" horiz-adv-x="670" d="M317 46 C228 46 190 80 190 155 C190 180 193 206 199 236 L266 578 C277 635 291 652 361 654 L367 689 L109 689 L103 654 C152 652 171 642 171 607 C171 599 170 589 168 578 L103 239 C96 202 94 176 94 152 C94 50 161 -14 314 -14 C451 -14 538 56 570 221 L639 578 C650 635 664 652 726 654 L732 689 L506 689 L500 654 C557 652 574 641 574 610 C574 603 572 590 570 578 L501 221 C480 113 427 46 317 46 L317 46 Z M592 724 L616 752 L487 907 L295 754 L316 724 L472 809 L592 724 Z " />
<glyph glyph-name="Udieresis" unicode="&#xdc;" horiz-adv-x="670" d="M317 46 C228 46 190 80 190 155 C190 180 193 206 199 236 L266 578 C277 635 291 652 361 654 L367 689 L109 689 L103 654 C152 652 171 642 171 607 C171 599 170 589 168 578 L103 239 C96 202 94 176 94 152 C94 50 161 -14 314 -14 C451 -14 538 56 570 221 L639 578 C650 635 664 652 726 654 L732 689 L506 689 L500 654 C557 652 574 641 574 610 C574 603 572 590 570 578 L501 221 C480 113 427 46 317 46 L317 46 Z M405 787 C405 821 379 847 345 847 C311 847 285 821 285 787 C285 753 311 727 345 727 C379 727 405 753 405 787 L405 787 Z M614 787 C614 821 588 847 554 847 C520 847 494 821 494 787 C494 753 520 727 554 727 C588 727 614 753 614 787 L614 787 Z " />
<glyph glyph-name="Yacute" unicode="&#xdd;" horiz-adv-x="589" d="M222 111 C212 54 193 37 123 35 L116 0 L384 0 L391 35 C326 37 309 51 319 106 L353 282 L545 561 C596 635 619 649 660 654 L666 689 L460 689 L454 654 C488 652 507 647 507 628 C507 615 500 601 486 579 L331 341 L327 341 L263 577 C259 592 256 605 256 615 C256 641 275 653 317 654 L323 689 L94 689 L88 654 C126 649 147 636 166 572 L252 276 L222 111 Z M319 727 L533 797 L490 889 L299 761 L319 727 Z " />
<glyph glyph-name="Thorn" unicode="&#xde;" horiz-adv-x="552" d="M459 397 C459 323 430 271 390 243 C361 222 324 218 283 218 L208 218 L265 509 L337 509 C433 509 459 471 459 397 L459 397 Z M278 578 C289 635 305 652 373 654 L379 689 L121 689 L115 654 C166 652 184 642 184 610 C184 601 182 588 180 578 L89 111 C78 54 62 37 -6 35 L-12 0 L253 0 L259 35 C203 37 183 48 183 82 C183 91 184 99 187 114 L199 172 L277 172 C338 172 393 177 440 200 C508 233 559 301 559 395 C559 508 493 557 327 557 L274 557 L278 578 Z " />
<glyph glyph-name="germandbls" unicode="&#xdf;" horiz-adv-x="554" d="M123 436 L31 -35 C16 -114 -11 -136 -95 -141 L-95 -172 C-77 -181 -57 -188 -34 -188 C58 -188 103 -116 121 -27 L233 533 C256 648 300 683 369 683 C419 683 448 655 448 609 C448 548 394 505 354 477 C305 443 291 432 291 404 C291 388 297 374 314 353 C319 347 324 340 331 333 C383 276 408 228 408 159 C408 97 375 41 307 41 C265 41 239 55 209 78 L182 38 C212 11 247 -9 314 -9 C435 -9 508 72 508 166 C508 254 443 320 381 376 C360 395 355 401 355 409 C355 422 363 429 395 449 C449 482 535 534 535 611 C535 680 470 729 373 729 C275 729 167 664 142 537 L133 491 L66 468 L59 436 L123 436 Z " />
<glyph glyph-name="agrave" unicode="&#xe0;" horiz-adv-x="547" d="M344 505 C186 505 35 323 35 123 C35 40 76 -12 150 -12 C228 -12 291 60 333 126 C328 105 326 87 326 70 C326 21 347 -9 398 -9 C430 -9 460 1 496 20 L493 51 C481 49 466 48 461 48 C432 48 416 58 416 87 C416 96 418 108 421 122 L474 355 C487 413 505 466 522 495 L472 495 C459 483 446 471 435 453 C426 490 387 505 344 505 L344 505 Z M338 458 C372 458 392 442 399 421 L350 214 C310 145 238 53 183 53 C153 53 131 75 131 129 C131 298 225 458 338 458 L338 458 Z M442 600 L263 753 L210 662 L422 566 L442 600 Z " />
<glyph glyph-name="aacute" unicode="&#xe1;" horiz-adv-x="547" d="M344 505 C186 505 35 323 35 123 C35 40 76 -12 150 -12 C228 -12 291 60 333 126 C328 105 326 87 326 70 C326 21 347 -9 398 -9 C430 -9 460 1 496 20 L493 51 C481 49 466 48 461 48 C432 48 416 58 416 87 C416 96 418 108 421 122 L474 355 C487 413 505 466 522 495 L472 495 C459 483 446 471 435 453 C426 490 387 505 344 505 L344 505 Z M338 458 C372 458 392 442 399 421 L350 214 C310 145 238 53 183 53 C153 53 131 75 131 129 C131 298 225 458 338 458 L338 458 Z M266 566 L478 662 L425 753 L246 600 L266 566 Z " />
<glyph glyph-name="acircumflex" unicode="&#xe2;" horiz-adv-x="547" d="M344 505 C186 505 35 323 35 123 C35 40 76 -12 150 -12 C228 -12 291 60 333 126 C328 105 326 87 326 70 C326 21 347 -9 398 -9 C430 -9 460 1 496 20 L493 51 C481 49 466 48 461 48 C432 48 416 58 416 87 C416 96 418 108 421 122 L474 355 C487 413 505 466 522 495 L472 495 C459 483 446 471 435 453 C426 490 387 505 344 505 L344 505 Z M338 458 C372 458 392 442 399 421 L350 214 C310 145 238 53 183 53 C153 53 131 75 131 129 C131 298 225 458 338 458 L338 458 Z M492 564 L516 592 L387 747 L195 594 L216 564 L372 649 L492 564 Z " />
<glyph glyph-name="atilde" unicode="&#xe3;" horiz-adv-x="547" d="M344 505 C186 505 35 323 35 123 C35 40 76 -12 150 -12 C228 -12 291 60 333 126 C328 105 326 87 326 70 C326 21 347 -9 398 -9 C430 -9 460 1 496 20 L493 51 C481 49 466 48 461 48 C432 48 416 58 416 87 C416 96 418 108 421 122 L474 355 C487 413 505 466 522 495 L472 495 C459 483 446 471 435 453 C426 490 387 505 344 505 L344 505 Z M338 458 C372 458 392 442 399 421 L350 214 C310 145 238 53 183 53 C153 53 131 75 131 129 C131 298 225 458 338 458 L338 458 Z M424 669 C383 669 354 700 300 700 C246 700 215 649 203 594 L236 580 C251 607 266 624 300 624 C336 624 370 595 424 595 C477 595 510 645 525 696 L490 711 C475 684 456 669 424 669 L424 669 Z " />
<glyph glyph-name="adieresis" unicode="&#xe4;" horiz-adv-x="547" d="M344 505 C186 505 35 323 35 123 C35 40 76 -12 150 -12 C228 -12 291 60 333 126 C328 105 326 87 326 70 C326 21 347 -9 398 -9 C430 -9 460 1 496 20 L493 51 C481 49 466 48 461 48 C432 48 416 58 416 87 C416 96 418 108 421 122 L474 355 C487 413 505 466 522 495 L472 495 C459 483 446 471 435 453 C426 490 387 505 344 505 L344 505 Z M338 458 C372 458 392 442 399 421 L350 214 C310 145 238 53 183 53 C153 53 131 75 131 129 C131 298 225 458 338 458 L338 458 Z M332 638 C332 672 306 698 272 698 C238 698 212 672 212 638 C212 604 238 578 272 578 C306 578 332 604 332 638 L332 638 Z M541 638 C541 672 515 698 481 698 C447 698 421 672 421 638 C421 604 447 578 481 578 C515 578 541 604 541 638 L541 638 Z " />
<glyph glyph-name="aring" unicode="&#xe5;" horiz-adv-x="547" d="M344 505 C186 505 35 323 35 123 C35 40 76 -12 150 -12 C228 -12 291 60 333 126 C328 105 326 87 326 70 C326 21 347 -9 398 -9 C430 -9 460 1 496 20 L493 51 C481 49 466 48 461 48 C432 48 416 58 416 87 C416 96 418 108 421 122 L474 355 C487 413 505 466 522 495 L472 495 C459 483 446 471 435 453 C426 490 387 505 344 505 L344 505 Z M338 458 C372 458 392 442 399 421 L350 214 C310 145 238 53 183 53 C153 53 131 75 131 129 C131 298 225 458 338 458 L338 458 Z M354 560 C419 560 462 605 462 668 C462 721 427 764 367 764 C303 764 258 718 258 655 C258 602 294 560 354 560 L354 560 Z M364 729 C400 729 421 702 421 664 C421 625 393 596 353 596 C318 596 299 620 299 657 C299 698 325 729 364 729 L364 729 Z " />
<glyph glyph-name="ae" unicode="&#xe6;" horiz-adv-x="756" d="M409 171 C409 187 409 209 411 224 L441 224 C651 224 741 285 741 380 C741 460 683 505 595 505 C534 505 475 480 427 429 C404 483 367 505 282 505 C221 505 165 491 114 466 L96 372 L159 372 C174 425 204 456 276 456 C324 456 344 432 344 381 C344 361 341 336 335 307 L328 274 L315 274 C171 274 20 249 20 114 C20 27 73 -14 159 -14 C247 -14 295 31 330 80 C355 19 406 -14 482 -14 C572 -14 642 27 686 77 L660 112 C613 68 567 43 511 43 C447 43 409 89 409 171 L409 171 Z M183 43 C141 43 114 62 114 115 C114 214 204 228 306 228 L318 228 C315 211 314 195 314 179 C314 158 316 139 319 122 C274 70 240 43 183 43 L183 43 Z M649 386 C649 315 600 270 448 270 C439 270 429 271 419 271 C443 376 507 456 589 456 C626 456 649 425 649 386 L649 386 Z " />
<glyph glyph-name="ccedilla" unicode="&#xe7;" horiz-adv-x="455" d="M256 -113 C256 -77 233 -44 173 -39 L184 -12 C194 -13 204 -14 215 -14 C291 -14 358 26 396 69 L370 104 C331 68 286 43 234 43 C169 43 130 86 130 168 C130 310 202 457 308 457 C350 457 367 435 367 385 L367 372 L435 372 L455 464 C432 483 392 504 317 504 C151 504 35 330 35 176 C35 80 77 18 148 -4 L121 -69 L120 -90 C157 -91 194 -97 194 -123 C194 -153 176 -159 154 -159 C132 -159 114 -155 92 -141 L76 -173 C95 -186 119 -198 157 -198 C224 -198 256 -168 256 -113 L256 -113 Z " />
<glyph glyph-name="egrave" unicode="&#xe8;" horiz-adv-x="477" d="M130 171 C130 187 130 203 132 218 L154 218 C357 218 462 284 462 380 C462 460 404 504 316 504 C154 504 35 333 35 179 C35 56 93 -14 203 -14 C293 -14 363 27 407 77 L381 112 C334 68 288 43 232 43 C168 43 130 89 130 171 L130 171 Z M370 386 C370 315 323 264 169 264 L140 264 C164 369 228 456 310 456 C347 456 370 425 370 386 L370 386 Z M430 600 L251 753 L198 662 L410 566 L430 600 Z " />
<glyph glyph-name="eacute" unicode="&#xe9;" horiz-adv-x="477" d="M130 171 C130 187 130 203 132 218 L154 218 C357 218 462 284 462 380 C462 460 404 504 316 504 C154 504 35 333 35 179 C35 56 93 -14 203 -14 C293 -14 363 27 407 77 L381 112 C334 68 288 43 232 43 C168 43 130 89 130 171 L130 171 Z M370 386 C370 315 323 264 169 264 L140 264 C164 369 228 456 310 456 C347 456 370 425 370 386 L370 386 Z M252 566 L464 662 L411 753 L232 600 L252 566 Z " />
<glyph glyph-name="ecircumflex" unicode="&#xea;" horiz-adv-x="477" d="M130 171 C130 187 130 203 132 218 L154 218 C357 218 462 284 462 380 C462 460 404 504 316 504 C154 504 35 333 35 179 C35 56 93 -14 203 -14 C293 -14 363 27 407 77 L381 112 C334 68 288 43 232 43 C168 43 130 89 130 171 L130 171 Z M370 386 C370 315 323 264 169 264 L140 264 C164 369 228 456 310 456 C347 456 370 425 370 386 L370 386 Z M465 564 L489 592 L360 747 L168 594 L189 564 L345 649 L465 564 Z " />
<glyph glyph-name="edieresis" unicode="&#xeb;" horiz-adv-x="477" d="M130 171 C130 187 130 203 132 218 L154 218 C357 218 462 284 462 380 C462 460 404 504 316 504 C154 504 35 333 35 179 C35 56 93 -14 203 -14 C293 -14 363 27 407 77 L381 112 C334 68 288 43 232 43 C168 43 130 89 130 171 L130 171 Z M370 386 C370 315 323 264 169 264 L140 264 C164 369 228 456 310 456 C347 456 370 425 370 386 L370 386 Z M281 638 C281 672 255 698 221 698 C187 698 161 672 161 638 C161 604 187 578 221 578 C255 578 281 604 281 638 L281 638 Z M490 638 C490 672 464 698 430 698 C396 698 370 672 370 638 C370 604 396 578 430 578 C464 578 490 604 490 638 L490 638 Z " />
<glyph glyph-name="igrave" unicode="&#xec;" horiz-adv-x="268" d="M275 600 L96 753 L43 662 L255 566 L275 600 Z M205 367 C210 389 213 409 213 425 C213 476 188 496 146 496 C115 496 72 485 46 472 L39 441 C94 441 117 427 117 392 C117 385 115 369 111 354 L55 122 C50 101 47 82 47 65 C47 18 69 -9 113 -9 C145 -9 179 -1 225 20 L222 51 C207 49 195 48 185 48 C154 48 143 58 143 82 C143 92 145 106 149 122 L205 367 Z " />
<glyph glyph-name="iacute" unicode="&#xed;" horiz-adv-x="268" d="M117 566 L329 662 L276 753 L97 600 L117 566 Z M205 367 C210 389 213 409 213 425 C213 476 188 496 146 496 C115 496 72 485 46 472 L39 441 C94 441 117 427 117 392 C117 385 115 369 111 354 L55 122 C50 101 47 82 47 65 C47 18 69 -9 113 -9 C145 -9 179 -1 225 20 L222 51 C207 49 195 48 185 48 C154 48 143 58 143 82 C143 92 145 106 149 122 L205 367 Z " />
<glyph glyph-name="icircumflex" unicode="&#xee;" horiz-adv-x="268" d="M205 367 C210 389 213 409 213 425 C213 476 188 496 146 496 C115 496 72 485 46 472 L39 441 C94 441 117 427 117 392 C117 385 115 369 111 354 L55 122 C50 101 47 82 47 65 C47 18 69 -9 113 -9 C145 -9 179 -1 225 20 L222 51 C207 49 195 48 185 48 C154 48 143 58 143 82 C143 92 145 106 149 122 L205 367 Z M319 564 L343 592 L214 747 L22 594 L43 564 L199 649 L319 564 Z " />
<glyph glyph-name="idieresis" unicode="&#xef;" horiz-adv-x="268" d="M143 638 C143 672 117 698 83 698 C49 698 23 672 23 638 C23 604 49 578 83 578 C117 578 143 604 143 638 L143 638 Z M352 638 C352 672 326 698 292 698 C258 698 232 672 232 638 C232 604 258 578 292 578 C326 578 352 604 352 638 L352 638 Z M205 367 C210 389 213 409 213 425 C213 476 188 496 146 496 C115 496 72 485 46 472 L39 441 C94 441 117 427 117 392 C117 385 115 369 111 354 L55 122 C50 101 47 82 47 65 C47 18 69 -9 113 -9 C145 -9 179 -1 225 20 L222 51 C207 49 195 48 185 48 C154 48 143 58 143 82 C143 92 145 106 149 122 L205 367 Z " />
<glyph glyph-name="eth" unicode="&#xf0;" horiz-adv-x="518" d="M128 579 L145 541 L298 603 C327 571 348 533 363 488 C342 500 322 504 298 504 C159 504 35 364 35 178 C35 65 106 -14 220 -14 C377 -14 483 138 483 325 C483 448 442 556 363 629 L459 668 L442 706 L326 659 C278 693 219 716 150 725 L130 694 C184 681 228 661 264 634 L128 579 Z M387 325 C387 228 362 133 315 79 C291 51 260 34 224 34 C157 34 131 85 131 163 C131 253 154 338 192 393 C219 432 257 460 303 460 C341 460 360 448 377 436 C383 402 387 365 387 325 L387 325 Z " />
<glyph glyph-name="ntilde" unicode="&#xf1;" horiz-adv-x="541" d="M340 122 C336 101 333 81 333 65 C333 19 353 -9 404 -9 C428 -9 460 -1 506 20 L503 51 C489 49 477 48 467 48 C436 48 425 58 425 82 C425 93 428 108 431 122 L484 371 C487 386 489 400 489 413 C489 465 464 505 402 505 C319 505 249 429 203 357 C208 379 210 404 210 416 C210 469 188 496 151 496 C116 496 79 485 53 472 L46 441 C101 441 120 428 120 393 C120 382 118 369 115 354 L40 0 L131 0 L189 273 C228 339 300 434 362 434 C385 434 395 422 395 398 C395 389 393 376 390 362 L340 122 Z M400 669 C359 669 330 700 276 700 C222 700 191 649 179 594 L212 580 C227 607 242 624 276 624 C312 624 346 595 400 595 C453 595 486 645 501 696 L466 711 C451 684 432 669 400 669 L400 669 Z " />
<glyph glyph-name="ograve" unicode="&#xf2;" horiz-adv-x="518" d="M483 310 C483 418 419 504 298 504 C159 504 35 364 35 178 C35 65 106 -14 220 -14 C377 -14 483 138 483 310 L483 310 Z M387 325 C387 228 362 133 315 79 C291 51 260 34 224 34 C157 34 131 85 131 163 C131 253 154 338 192 393 C219 432 254 456 294 456 C360 456 387 409 387 325 L387 325 Z M421 600 L242 753 L189 662 L401 566 L421 600 Z " />
<glyph glyph-name="oacute" unicode="&#xf3;" horiz-adv-x="518" d="M483 310 C483 418 419 504 298 504 C159 504 35 364 35 178 C35 65 106 -14 220 -14 C377 -14 483 138 483 310 L483 310 Z M387 325 C387 228 362 133 315 79 C291 51 260 34 224 34 C157 34 131 85 131 163 C131 253 154 338 192 393 C219 432 254 456 294 456 C360 456 387 409 387 325 L387 325 Z M243 566 L455 662 L402 753 L223 600 L243 566 Z " />
<glyph glyph-name="ocircumflex" unicode="&#xf4;" horiz-adv-x="518" d="M483 310 C483 418 419 504 298 504 C159 504 35 364 35 178 C35 65 106 -14 220 -14 C377 -14 483 138 483 310 L483 310 Z M387 325 C387 228 362 133 315 79 C291 51 260 34 224 34 C157 34 131 85 131 163 C131 253 154 338 192 393 C219 432 254 456 294 456 C360 456 387 409 387 325 L387 325 Z M456 564 L480 592 L351 747 L159 594 L180 564 L336 649 L456 564 Z " />
<glyph glyph-name="otilde" unicode="&#xf5;" horiz-adv-x="518" d="M483 310 C483 418 419 504 298 504 C159 504 35 364 35 178 C35 65 106 -14 220 -14 C377 -14 483 138 483 310 L483 310 Z M387 325 C387 228 362 133 315 79 C291 51 260 34 224 34 C157 34 131 85 131 163 C131 253 154 338 192 393 C219 432 254 456 294 456 C360 456 387 409 387 325 L387 325 Z M397 669 C356 669 327 700 273 700 C219 700 188 649 176 594 L209 580 C224 607 239 624 273 624 C309 624 343 595 397 595 C450 595 483 645 498 696 L463 711 C448 684 429 669 397 669 L397 669 Z " />
<glyph glyph-name="odieresis" unicode="&#xf6;" horiz-adv-x="518" d="M483 310 C483 418 419 504 298 504 C159 504 35 364 35 178 C35 65 106 -14 220 -14 C377 -14 483 138 483 310 L483 310 Z M387 325 C387 228 362 133 315 79 C291 51 260 34 224 34 C157 34 131 85 131 163 C131 253 154 338 192 393 C219 432 254 456 294 456 C360 456 387 409 387 325 L387 325 Z M291 638 C291 672 265 698 231 698 C197 698 171 672 171 638 C171 604 197 578 231 578 C265 578 291 604 291 638 L291 638 Z M500 638 C500 672 474 698 440 698 C406 698 380 672 380 638 C380 604 406 578 440 578 C474 578 500 604 500 638 L500 638 Z " />
<glyph glyph-name="divide" unicode="&#xf7;" horiz-adv-x="620" d="M55 245 L560 245 L570 298 L65 298 L55 245 Z M417 482 C417 517 388 546 353 546 C317 546 289 516 289 480 C289 443 317 415 353 415 C388 415 417 444 417 482 L417 482 Z M342 56 C342 91 313 120 278 120 C242 120 214 90 214 54 C214 17 242 -11 278 -11 C313 -11 342 18 342 56 L342 56 Z " />
<glyph glyph-name="oslash" unicode="&#xf8;" horiz-adv-x="518" d="M483 310 C483 363 467 411 437 446 L490 519 L453 546 L402 476 C374 493 339 504 298 504 C159 504 35 364 35 178 C35 122 53 74 84 40 L33 -30 L67 -55 L117 13 C145 -4 180 -14 220 -14 C377 -14 483 138 483 310 L483 310 Z M131 163 C131 253 154 338 192 393 C219 432 254 456 294 456 C326 456 349 445 364 424 L136 111 C132 126 131 144 131 163 L131 163 Z M387 325 C387 228 362 133 315 79 C291 51 260 34 224 34 C193 34 170 45 155 65 L383 374 C386 359 387 343 387 325 L387 325 Z " />
<glyph glyph-name="ugrave" unicode="&#xf9;" horiz-adv-x="537" d="M329 126 C325 108 323 90 323 75 C323 24 346 -9 394 -9 C426 -9 459 1 495 20 L492 51 C481 50 472 49 464 49 C430 49 415 61 415 89 C415 95 417 109 420 122 L497 491 L407 491 L349 218 C310 152 238 57 176 57 C153 57 143 69 143 93 C143 101 145 115 148 129 L196 356 C200 377 203 396 203 412 C203 469 177 496 140 496 C105 496 68 485 42 472 L35 441 C90 441 109 428 109 393 C109 382 107 369 104 354 L54 120 C51 105 49 91 49 78 C49 26 74 -14 136 -14 C219 -14 284 57 329 126 L329 126 Z M396 600 L217 753 L164 662 L376 566 L396 600 Z " />
<glyph glyph-name="uacute" unicode="&#xfa;" horiz-adv-x="537" d="M329 126 C325 108 323 90 323 75 C323 24 346 -9 394 -9 C426 -9 459 1 495 20 L492 51 C481 50 472 49 464 49 C430 49 415 61 415 89 C415 95 417 109 420 122 L497 491 L407 491 L349 218 C310 152 238 57 176 57 C153 57 143 69 143 93 C143 101 145 115 148 129 L196 356 C200 377 203 396 203 412 C203 469 177 496 140 496 C105 496 68 485 42 472 L35 441 C90 441 109 428 109 393 C109 382 107 369 104 354 L54 120 C51 105 49 91 49 78 C49 26 74 -14 136 -14 C219 -14 284 57 329 126 L329 126 Z M238 566 L450 662 L397 753 L218 600 L238 566 Z " />
<glyph glyph-name="ucircumflex" unicode="&#xfb;" horiz-adv-x="537" d="M329 126 C325 108 323 90 323 75 C323 24 346 -9 394 -9 C426 -9 459 1 495 20 L492 51 C481 50 472 49 464 49 C430 49 415 61 415 89 C415 95 417 109 420 122 L497 491 L407 491 L349 218 C310 152 238 57 176 57 C153 57 143 69 143 93 C143 101 145 115 148 129 L196 356 C200 377 203 396 203 412 C203 469 177 496 140 496 C105 496 68 485 42 472 L35 441 C90 441 109 428 109 393 C109 382 107 369 104 354 L54 120 C51 105 49 91 49 78 C49 26 74 -14 136 -14 C219 -14 284 57 329 126 L329 126 Z M470 564 L494 592 L365 747 L173 594 L194 564 L350 649 L470 564 Z " />
<glyph glyph-name="udieresis" unicode="&#xfc;" horiz-adv-x="537" d="M329 126 C325 108 323 90 323 75 C323 24 346 -9 394 -9 C426 -9 459 1 495 20 L492 51 C481 50 472 49 464 49 C430 49 415 61 415 89 C415 95 417 109 420 122 L497 491 L407 491 L349 218 C310 152 238 57 176 57 C153 57 143 69 143 93 C143 101 145 115 148 129 L196 356 C200 377 203 396 203 412 C203 469 177 496 140 496 C105 496 68 485 42 472 L35 441 C90 441 109 428 109 393 C109 382 107 369 104 354 L54 120 C51 105 49 91 49 78 C49 26 74 -14 136 -14 C219 -14 284 57 329 126 L329 126 Z M266 638 C266 672 240 698 206 698 C172 698 146 672 146 638 C146 604 172 578 206 578 C240 578 266 604 266 638 L266 638 Z M475 638 C475 672 449 698 415 698 C381 698 355 672 355 638 C355 604 381 578 415 578 C449 578 475 604 475 638 L475 638 Z " />
<glyph glyph-name="yacute" unicode="&#xfd;" horiz-adv-x="468" d="M168 1 C117 -102 59 -122 -20 -139 L2 -213 C93 -195 149 -141 215 -21 L473 448 L473 483 L386 498 C383 448 356 347 311 262 L218 85 L212 85 C212 91 213 102 213 115 C213 143 211 187 202 247 L185 365 C171 463 163 496 115 496 C80 496 47 485 21 472 L14 441 C80 441 86 421 96 356 L114 237 C131 127 136 54 138 -2 L168 1 Z M212 566 L424 662 L371 753 L192 600 L212 566 Z " />
<glyph glyph-name="thorn" unicode="&#xfe;" horiz-adv-x="547" d="M190 274 C230 343 309 438 368 438 C395 438 416 416 416 353 C416 203 351 33 208 33 C180 33 156 45 145 64 L190 274 Z M254 561 C266 613 270 652 270 681 C270 705 267 721 264 730 L251 730 L108 704 L101 674 C149 672 171 660 171 622 C171 615 169 601 166 587 L21 -92 C9 -149 -5 -158 -63 -162 L-70 -196 L170 -196 L177 -162 C125 -160 108 -152 108 -124 C108 -116 109 -106 112 -93 L131 -3 C151 -10 175 -14 201 -14 C394 -14 512 170 512 355 C512 454 471 503 404 503 C323 503 254 434 210 368 L254 561 Z " />
<glyph glyph-name="ydieresis" unicode="&#xff;" horiz-adv-x="468" d="M168 1 C117 -102 59 -122 -20 -139 L2 -213 C93 -195 149 -141 215 -21 L473 448 L473 483 L386 498 C383 448 356 347 311 262 L218 85 L212 85 C212 91 213 102 213 115 C213 143 211 187 202 247 L185 365 C171 463 163 496 115 496 C80 496 47 485 21 472 L14 441 C80 441 86 421 96 356 L114 237 C131 127 136 54 138 -2 L168 1 Z M240 638 C240 672 214 698 180 698 C146 698 120 672 120 638 C120 604 146 578 180 578 C214 578 240 604 240 638 L240 638 Z M449 638 C449 672 423 698 389 698 C355 698 329 672 329 638 C329 604 355 578 389 578 C423 578 449 604 449 638 L449 638 Z " />
<glyph glyph-name="Amacron" unicode="&#x100;" horiz-adv-x="643" d="M428 107 C429 96 429 92 429 90 C429 52 412 37 356 35 L349 0 L588 0 L595 35 C544 40 529 64 523 123 L466 689 L372 689 L79 121 C43 52 20 42 -30 35 L-37 0 L178 0 L185 35 C144 36 123 42 123 63 C123 73 128 88 138 107 L193 215 L419 215 L428 107 Z M335 490 C370 558 383 595 385 602 L391 602 C391 600 390 592 390 572 C390 552 391 520 395 475 L415 263 L218 263 L335 490 Z M561 769 L571 826 L290 826 L280 769 L561 769 Z " />
<glyph glyph-name="amacron" unicode="&#x101;" horiz-adv-x="547" d="M344 505 C186 505 35 323 35 123 C35 40 76 -12 150 -12 C228 -12 291 60 333 126 C328 105 326 87 326 70 C326 21 347 -9 398 -9 C430 -9 460 1 496 20 L493 51 C481 49 466 48 461 48 C432 48 416 58 416 87 C416 96 418 108 421 122 L474 355 C487 413 505 466 522 495 L472 495 C459 483 446 471 435 453 C426 490 387 505 344 505 L344 505 Z M338 458 C372 458 392 442 399 421 L350 214 C310 145 238 53 183 53 C153 53 131 75 131 129 C131 298 225 458 338 458 L338 458 Z M498 590 L508 647 L227 647 L217 590 L498 590 Z " />
<glyph glyph-name="Abreve" unicode="&#x102;" horiz-adv-x="643" d="M428 107 C429 96 429 92 429 90 C429 52 412 37 356 35 L349 0 L588 0 L595 35 C544 40 529 64 523 123 L466 689 L372 689 L79 121 C43 52 20 42 -30 35 L-37 0 L178 0 L185 35 C144 36 123 42 123 63 C123 73 128 88 138 107 L193 215 L419 215 L428 107 Z M335 490 C370 558 383 595 385 602 L391 602 C391 600 390 592 390 572 C390 552 391 520 395 475 L415 263 L218 263 L335 490 Z M422 743 C493 743 564 809 600 878 L568 900 C525 852 485 821 434 821 C383 821 354 849 332 900 L299 878 C301 811 350 743 422 743 L422 743 Z " />
<glyph glyph-name="abreve" unicode="&#x103;" horiz-adv-x="547" d="M344 505 C186 505 35 323 35 123 C35 40 76 -12 150 -12 C228 -12 291 60 333 126 C328 105 326 87 326 70 C326 21 347 -9 398 -9 C430 -9 460 1 496 20 L493 51 C481 49 466 48 461 48 C432 48 416 58 416 87 C416 96 418 108 421 122 L474 355 C487 413 505 466 522 495 L472 495 C459 483 446 471 435 453 C426 490 387 505 344 505 L344 505 Z M338 458 C372 458 392 442 399 421 L350 214 C310 145 238 53 183 53 C153 53 131 75 131 129 C131 298 225 458 338 458 L338 458 Z M343 567 C417 567 476 628 514 702 L483 724 C441 673 404 645 350 645 C299 645 269 670 247 722 L212 708 C220 640 261 567 343 567 L343 567 Z " />
<glyph glyph-name="Aogonek" unicode="&#x104;" horiz-adv-x="643" d="M395 -142 C376 -153 364 -159 342 -159 C318 -159 302 -143 302 -117 C302 -66 353 0 430 0 L588 0 L595 35 C544 40 529 64 523 123 L466 689 L372 689 L79 121 C43 52 20 42 -30 35 L-37 0 L178 0 L185 35 C145 36 123 42 123 63 C123 73 128 88 138 107 L193 215 L419 215 L427 116 C430 72 420 55 390 38 C262 -32 222 -69 222 -128 C222 -172 250 -205 313 -205 C356 -205 388 -187 411 -163 L395 -142 Z M335 490 C370 558 383 595 385 602 L391 602 C391 598 390 590 390 572 C390 552 391 520 395 475 L415 263 L218 263 L335 490 Z " />
<glyph glyph-name="aogonek" unicode="&#x105;" horiz-adv-x="547" d="M436 -142 C417 -153 405 -159 383 -159 C359 -159 343 -141 343 -119 C343 -67 403 -18 496 20 L493 51 C481 49 467 48 458 48 C435 48 416 58 416 85 C416 95 417 107 421 122 L474 355 C487 413 505 466 522 495 L472 495 C459 483 446 471 435 453 C426 490 387 505 344 505 C186 505 35 323 35 123 C35 40 76 -12 150 -12 C228 -12 291 60 333 126 C329 107 327 89 327 73 C327 30 343 1 379 -7 C305 -43 263 -81 263 -131 C263 -170 291 -205 354 -205 C397 -205 429 -187 452 -163 L436 -142 Z M338 458 C372 458 392 442 399 421 L350 214 C310 145 238 53 183 53 C153 53 131 75 131 129 C131 298 225 458 338 458 L338 458 Z " />
<glyph glyph-name="Cacute" unicode="&#x106;" horiz-adv-x="578" d="M300 33 C214 33 167 83 167 232 C167 398 227 653 416 653 C492 653 501 617 505 540 L573 540 L595 649 C563 675 518 700 428 700 C187 700 63 470 63 240 C63 82 130 -14 296 -14 C379 -14 458 13 498 38 L519 143 L453 143 C423 65 379 33 300 33 L300 33 Z M322 727 L536 797 L493 889 L302 761 L322 727 Z " />
<glyph glyph-name="cacute" unicode="&#x107;" horiz-adv-x="455" d="M317 504 C151 504 35 330 35 176 C35 53 104 -14 215 -14 C291 -14 358 26 396 69 L370 104 C331 68 286 43 234 43 C169 43 130 86 130 168 C130 310 202 457 308 457 C352 457 369 434 367 372 L435 372 L455 464 C432 483 392 504 317 504 L317 504 Z M255 566 L467 662 L414 753 L235 600 L255 566 Z " />
<glyph glyph-name="Ccircumflex" unicode="&#x108;" horiz-adv-x="578" d="M300 33 C214 33 167 83 167 232 C167 398 227 653 416 653 C492 653 501 617 505 540 L573 540 L595 649 C563 675 518 700 428 700 C187 700 63 470 63 240 C63 82 130 -14 296 -14 C379 -14 458 13 498 38 L519 143 L453 143 C423 65 379 33 300 33 L300 33 Z M560 724 L584 752 L455 907 L263 754 L284 724 L440 809 L560 724 Z " />
<glyph glyph-name="ccircumflex" unicode="&#x109;" horiz-adv-x="455" d="M317 504 C151 504 35 330 35 176 C35 53 104 -14 215 -14 C291 -14 358 26 396 69 L370 104 C331 68 286 43 234 43 C169 43 130 86 130 168 C130 310 202 457 308 457 C352 457 369 434 367 372 L435 372 L455 464 C432 483 392 504 317 504 L317 504 Z M469 564 L493 592 L364 747 L172 594 L193 564 L349 649 L469 564 Z " />
<glyph glyph-name="Cdotaccent" unicode="&#x10a;" horiz-adv-x="578" d="M300 33 C214 33 167 83 167 232 C167 398 227 653 416 653 C492 653 501 617 505 540 L573 540 L595 649 C563 675 518 700 428 700 C187 700 63 470 63 240 C63 82 130 -14 296 -14 C379 -14 458 13 498 38 L519 143 L453 143 C423 65 379 33 300 33 L300 33 Z M495 808 C495 843 468 871 433 871 C398 871 371 843 371 808 C371 773 398 745 433 745 C468 745 495 773 495 808 L495 808 Z " />
<glyph glyph-name="cdotaccent" unicode="&#x10b;" horiz-adv-x="455" d="M317 504 C151 504 35 330 35 176 C35 53 104 -14 215 -14 C291 -14 358 26 396 69 L370 104 C331 68 286 43 234 43 C169 43 130 86 130 168 C130 310 202 457 308 457 C352 457 369 434 367 372 L435 372 L455 464 C432 483 392 504 317 504 L317 504 Z M391 644 C391 679 364 707 329 707 C294 707 267 679 267 644 C267 609 294 581 329 581 C364 581 391 609 391 644 L391 644 Z " />
<glyph glyph-name="Ccaron" unicode="&#x10c;" horiz-adv-x="578" d="M300 33 C214 33 167 83 167 232 C167 398 227 653 416 653 C492 653 501 617 505 540 L573 540 L595 649 C563 675 518 700 428 700 C187 700 63 470 63 240 C63 82 130 -14 296 -14 C379 -14 458 13 498 38 L519 143 L453 143 C423 65 379 33 300 33 L300 33 Z M333 907 L309 879 L438 724 L630 877 L609 907 L453 822 L333 907 Z " />
<glyph glyph-name="ccaron" unicode="&#x10d;" horiz-adv-x="455" d="M317 504 C151 504 35 330 35 176 C35 53 104 -14 215 -14 C291 -14 358 26 396 69 L370 104 C331 68 286 43 234 43 C169 43 130 86 130 168 C130 310 202 457 308 457 C352 457 369 434 367 372 L435 372 L455 464 C432 483 392 504 317 504 L317 504 Z M211 730 L187 702 L316 547 L508 700 L487 730 L331 645 L211 730 Z " />
<glyph glyph-name="Dcaron" unicode="&#x10e;" horiz-adv-x="658" d="M-12 0 L256 0 C381 0 449 14 511 74 C589 150 635 306 635 440 C635 616 529 689 357 689 L121 689 L115 654 C166 652 184 642 184 610 C184 603 182 587 180 578 L89 111 C78 54 62 37 -6 35 L-12 0 Z M362 642 C505 642 534 566 534 448 C534 341 506 196 453 127 C403 62 344 51 260 51 L176 51 L291 642 L362 642 Z M267 907 L243 879 L372 724 L564 877 L543 907 L387 822 L267 907 Z " />
<glyph glyph-name="dcaron" unicode="&#x10f;" horiz-adv-x="553" d="M361 214 C321 145 252 53 186 53 C155 53 131 75 131 135 C131 314 230 457 349 457 C377 457 396 445 407 429 L361 214 Z M344 126 C340 107 338 89 338 73 C338 23 359 -9 406 -9 C436 -9 462 -1 508 20 L505 51 C493 49 482 48 473 48 C441 48 428 59 428 86 C428 96 430 108 433 122 L527 561 C539 619 542 655 542 684 C542 706 540 721 537 730 L524 730 L383 704 L376 674 C424 672 445 661 445 623 C445 611 444 601 441 587 L422 491 C405 500 386 505 363 505 C198 505 35 344 35 128 C35 40 82 -12 156 -12 C238 -12 304 59 344 126 L344 126 Z M706 715 L616 730 L580 538 L623 527 L706 715 Z " />
<glyph glyph-name="Dcroat" unicode="&#x110;" horiz-adv-x="658" d="M-12 0 L256 0 C381 0 449 14 511 74 C589 150 635 306 635 440 C635 616 529 689 357 689 L121 689 L115 654 C166 652 184 642 184 610 C184 603 182 588 180 578 L143 388 L61 388 L51 342 L134 342 L89 111 C78 54 62 37 -6 35 L-12 0 Z M362 642 C505 642 534 566 534 448 C534 341 506 196 453 127 C403 62 344 51 260 51 L176 51 L232 342 L392 342 L402 388 L241 388 L291 642 L362 642 Z " />
<glyph glyph-name="dcroat" unicode="&#x111;" horiz-adv-x="553" d="M282 564 L436 564 L422 491 C405 500 386 505 363 505 C198 505 35 344 35 128 C35 40 82 -12 156 -12 C238 -12 304 59 344 126 C340 107 338 89 338 73 C338 23 359 -9 406 -9 C436 -9 462 -1 508 20 L505 51 C492 49 482 48 473 48 C441 48 428 59 428 86 C428 96 430 108 433 122 L528 564 L613 564 L622 605 L535 605 C540 639 542 666 542 687 C542 708 540 721 537 730 L524 730 L383 704 L376 674 C424 672 445 659 445 621 C445 616 445 611 444 605 L291 605 L282 564 Z M361 214 C321 145 252 53 186 53 C155 53 131 75 131 135 C131 314 230 458 349 458 C377 458 396 445 407 429 L361 214 Z " />
<glyph glyph-name="Emacron" unicode="&#x112;" horiz-adv-x="568" d="M-12 0 L479 0 L511 165 L466 165 C439 72 416 49 339 49 L175 49 L231 336 L321 336 C383 336 399 319 392 265 L433 265 L470 455 L429 455 C414 398 391 384 329 384 L240 384 L290 640 L453 640 C511 640 522 615 529 539 L571 539 L590 689 L121 689 L115 654 C166 652 184 642 184 610 C184 601 182 589 180 578 L89 111 C78 54 62 37 -6 35 L-12 0 Z M524 769 L534 826 L253 826 L243 769 L524 769 Z " />
<glyph glyph-name="emacron" unicode="&#x113;" horiz-adv-x="477" d="M130 171 C130 187 130 203 132 218 L154 218 C357 218 462 284 462 380 C462 460 404 504 316 504 C154 504 35 333 35 179 C35 56 93 -14 203 -14 C293 -14 363 27 407 77 L381 112 C334 68 288 43 232 43 C168 43 130 89 130 171 L130 171 Z M370 386 C370 315 323 264 169 264 L140 264 C164 369 228 456 310 456 C347 456 370 425 370 386 L370 386 Z M458 590 L468 647 L187 647 L177 590 L458 590 Z " />
<glyph glyph-name="Ebreve" unicode="&#x114;" horiz-adv-x="568" d="M-12 0 L479 0 L511 165 L466 165 C439 72 416 49 339 49 L175 49 L231 336 L321 336 C383 336 399 319 392 265 L433 265 L470 455 L429 455 C414 398 391 384 329 384 L240 384 L290 640 L453 640 C511 640 522 615 529 539 L571 539 L590 689 L121 689 L115 654 C166 652 184 642 184 610 C184 601 182 589 180 578 L89 111 C78 54 62 37 -6 35 L-12 0 Z M380 741 C454 741 513 802 551 876 L520 898 C478 847 441 819 387 819 C336 819 306 844 284 896 L249 882 C257 814 298 741 380 741 L380 741 Z " />
<glyph glyph-name="ebreve" unicode="&#x115;" horiz-adv-x="477" d="M130 171 C130 187 130 203 132 218 L154 218 C357 218 462 284 462 380 C462 460 404 504 316 504 C154 504 35 333 35 179 C35 56 93 -14 203 -14 C293 -14 363 27 407 77 L381 112 C334 68 288 43 232 43 C168 43 130 89 130 171 L130 171 Z M370 386 C370 315 323 264 169 264 L140 264 C164 369 228 456 310 456 C347 456 370 425 370 386 L370 386 Z M334 567 C408 567 467 628 505 702 L474 724 C432 673 395 645 341 645 C290 645 260 670 238 722 L203 708 C211 640 252 567 334 567 L334 567 Z " />
<glyph glyph-name="Edotaccent" unicode="&#x116;" horiz-adv-x="568" d="M-12 0 L479 0 L511 165 L466 165 C439 72 416 49 339 49 L175 49 L231 336 L321 336 C383 336 399 319 392 265 L433 265 L470 455 L429 455 C414 398 391 384 329 384 L240 384 L290 640 L453 640 C511 640 522 615 529 539 L571 539 L590 689 L121 689 L115 654 C166 652 184 642 184 610 C184 601 182 589 180 578 L89 111 C78 54 62 37 -6 35 L-12 0 Z M459 808 C459 843 432 871 397 871 C362 871 335 843 335 808 C335 773 362 745 397 745 C432 745 459 773 459 808 L459 808 Z " />
<glyph glyph-name="edotaccent" unicode="&#x117;" horiz-adv-x="477" d="M130 171 C130 187 130 203 132 218 L154 218 C357 218 462 284 462 380 C462 460 404 504 316 504 C154 504 35 333 35 179 C35 56 93 -14 203 -14 C293 -14 363 27 407 77 L381 112 C334 68 288 43 232 43 C168 43 130 89 130 171 L130 171 Z M370 386 C370 315 323 264 169 264 L140 264 C164 369 228 456 310 456 C347 456 370 425 370 386 L370 386 Z M390 644 C390 679 363 707 328 707 C293 707 266 679 266 644 C266 609 293 581 328 581 C363 581 390 609 390 644 L390 644 Z " />
<glyph glyph-name="Eogonek" unicode="&#x118;" horiz-adv-x="568" d="M378 0 C297 -39 255 -78 255 -129 C255 -170 283 -205 346 -205 C389 -205 421 -187 444 -163 L428 -142 C409 -153 397 -159 375 -159 C351 -159 335 -141 335 -116 C335 -63 404 0 469 0 L479 0 L511 165 L466 165 C439 72 416 49 339 49 L175 49 L231 336 L321 336 C383 336 399 319 392 265 L433 265 L470 455 L429 455 C414 398 391 384 329 384 L240 384 L290 640 L453 640 C511 640 522 615 529 539 L571 539 L590 689 L121 689 L115 654 C166 652 184 642 184 610 C184 601 182 589 180 578 L89 111 C78 54 62 37 -6 35 L-12 0 L378 0 Z " />
<glyph glyph-name="eogonek" unicode="&#x119;" horiz-adv-x="477" d="M290 -142 C271 -153 259 -159 237 -159 C213 -159 197 -141 197 -119 C197 -73 232 -41 315 7 C350 27 383 50 407 77 L381 112 C334 68 288 43 232 43 C168 43 130 89 130 171 C130 187 130 203 132 218 L154 218 C357 218 462 284 462 380 C462 460 404 504 316 504 C154 504 35 333 35 179 C35 56 93 -14 203 -14 L216 -14 C151 -49 117 -85 117 -131 C117 -170 145 -205 208 -205 C251 -205 283 -187 306 -163 L290 -142 Z M370 386 C370 315 323 264 169 264 L140 264 C164 369 228 456 310 456 C347 456 370 425 370 386 L370 386 Z " />
<glyph glyph-name="Ecaron" unicode="&#x11a;" horiz-adv-x="568" d="M-12 0 L479 0 L511 165 L466 165 C439 72 416 49 339 49 L175 49 L231 336 L321 336 C383 336 399 319 392 265 L433 265 L470 455 L429 455 C414 398 391 384 329 384 L240 384 L290 640 L453 640 C511 640 522 615 529 539 L571 539 L590 689 L121 689 L115 654 C166 652 184 642 184 610 C184 601 182 589 180 578 L89 111 C78 54 62 37 -6 35 L-12 0 Z M267 907 L243 879 L372 724 L564 877 L543 907 L387 822 L267 907 Z " />
<glyph glyph-name="ecaron" unicode="&#x11b;" horiz-adv-x="477" d="M130 171 C130 187 130 203 132 218 L154 218 C357 218 462 284 462 380 C462 460 404 504 316 504 C154 504 35 333 35 179 C35 56 93 -14 203 -14 C293 -14 363 27 407 77 L381 112 C334 68 288 43 232 43 C168 43 130 89 130 171 L130 171 Z M370 386 C370 315 323 264 169 264 L140 264 C164 369 228 456 310 456 C347 456 370 425 370 386 L370 386 Z M191 730 L167 702 L296 547 L488 700 L467 730 L311 645 L191 730 Z " />
<glyph glyph-name="Gcircumflex" unicode="&#x11c;" horiz-adv-x="648" d="M316 33 C220 33 167 83 167 233 C167 402 227 652 416 652 C499 652 517 617 521 540 L589 540 L611 649 C579 675 531 699 428 699 C182 699 63 459 63 244 C63 84 136 -14 315 -14 C376 -14 459 3 521 37 L558 226 C569 283 586 300 638 302 L645 337 L395 337 L388 302 C448 300 467 290 467 258 C467 251 465 238 463 226 L432 63 C402 43 359 33 316 33 L316 33 Z M590 724 L614 752 L485 907 L293 754 L314 724 L470 809 L590 724 Z " />
<glyph glyph-name="gcircumflex" unicode="&#x11d;" horiz-adv-x="496" d="M526 440 L504 508 C477 491 454 481 424 481 C381 481 328 504 259 504 C156 504 61 434 61 328 C61 271 93 214 155 199 C86 177 40 142 40 92 C40 40 77 28 125 24 C145 22 167 20 228 17 C296 14 327 -6 327 -48 C327 -113 280 -154 168 -154 C80 -154 49 -127 49 -85 C49 -52 62 -24 71 -11 L31 -13 C0 -27 -35 -50 -35 -95 C-35 -153 22 -198 166 -198 C303 -198 411 -137 411 -23 C411 58 357 97 239 100 L157 102 C130 103 124 116 124 128 C124 152 161 178 201 186 C208 186 213 185 220 185 C375 185 435 279 435 343 C435 383 417 423 391 445 C417 431 441 426 461 426 C487 426 501 430 526 440 L526 440 Z M235 231 C180 231 151 261 151 314 C151 409 204 458 259 458 C317 458 344 428 344 377 C344 303 310 231 235 231 L235 231 Z M450 564 L474 592 L345 747 L153 594 L174 564 L330 649 L450 564 Z " />
<glyph glyph-name="Gbreve" unicode="&#x11e;" horiz-adv-x="648" d="M316 33 C220 33 167 83 167 233 C167 402 227 652 416 652 C499 652 517 617 521 540 L589 540 L611 649 C579 675 531 699 428 699 C182 699 63 459 63 244 C63 84 136 -14 315 -14 C376 -14 459 3 521 37 L558 226 C569 283 586 300 638 302 L645 337 L395 337 L388 302 C448 300 467 290 467 258 C467 251 465 238 463 226 L432 63 C402 43 359 33 316 33 L316 33 Z M434 743 C505 743 576 809 612 878 L580 900 C537 852 497 821 446 821 C395 821 366 849 344 900 L311 878 C313 811 362 743 434 743 L434 743 Z " />
<glyph glyph-name="gbreve" unicode="&#x11f;" horiz-adv-x="496" d="M526 440 L504 508 C477 491 454 481 424 481 C381 481 328 504 259 504 C156 504 61 434 61 328 C61 271 93 214 155 199 C86 177 40 142 40 92 C40 40 77 28 125 24 C145 22 167 20 228 17 C296 14 327 -6 327 -48 C327 -113 280 -154 168 -154 C80 -154 49 -127 49 -85 C49 -52 62 -24 71 -11 L31 -13 C0 -27 -35 -50 -35 -95 C-35 -153 22 -198 166 -198 C303 -198 411 -137 411 -23 C411 58 357 97 239 100 L157 102 C130 103 124 116 124 128 C124 152 161 178 201 186 C208 186 213 185 220 185 C375 185 435 279 435 343 C435 383 417 423 391 445 C417 431 441 426 461 426 C487 426 501 430 526 440 L526 440 Z M235 231 C180 231 151 261 151 314 C151 409 204 458 259 458 C317 458 344 428 344 377 C344 303 310 231 235 231 L235 231 Z M315 567 C389 567 448 628 486 702 L455 724 C413 673 376 645 322 645 C271 645 241 670 219 722 L184 708 C192 640 233 567 315 567 L315 567 Z " />
<glyph glyph-name="Gdotaccent" unicode="&#x120;" horiz-adv-x="648" d="M316 33 C220 33 167 83 167 233 C167 402 227 652 416 652 C499 652 517 617 521 540 L589 540 L611 649 C579 675 531 699 428 699 C182 699 63 459 63 244 C63 84 136 -14 315 -14 C376 -14 459 3 521 37 L558 226 C569 283 586 300 638 302 L645 337 L395 337 L388 302 C448 300 467 290 467 258 C467 251 465 238 463 226 L432 63 C402 43 359 33 316 33 L316 33 Z M501 808 C501 843 474 871 439 871 C404 871 377 843 377 808 C377 773 404 745 439 745 C474 745 501 773 501 808 L501 808 Z " />
<glyph glyph-name="gdotaccent" unicode="&#x121;" horiz-adv-x="496" d="M526 440 L504 508 C477 491 454 481 424 481 C381 481 328 504 259 504 C156 504 61 434 61 328 C61 271 93 214 155 199 C86 177 40 142 40 92 C40 40 77 28 125 24 C145 22 167 20 228 17 C296 14 327 -6 327 -48 C327 -113 280 -154 168 -154 C80 -154 49 -127 49 -85 C49 -52 62 -24 71 -11 L31 -13 C0 -27 -35 -50 -35 -95 C-35 -153 22 -198 166 -198 C303 -198 411 -137 411 -23 C411 58 357 97 239 100 L157 102 C130 103 124 116 124 128 C124 152 161 178 201 186 C208 186 213 185 220 185 C375 185 435 279 435 343 C435 383 417 423 391 445 C417 431 441 426 461 426 C487 426 501 430 526 440 L526 440 Z M235 231 C180 231 151 261 151 314 C151 409 204 458 259 458 C317 458 344 428 344 377 C344 303 310 231 235 231 L235 231 Z M369 644 C369 679 342 707 307 707 C272 707 245 679 245 644 C245 609 272 581 307 581 C342 581 369 609 369 644 L369 644 Z " />
<glyph glyph-name="Gcommaaccent" unicode="&#x122;" horiz-adv-x="648" d="M316 33 C220 33 167 83 167 233 C167 402 227 652 416 652 C499 652 517 617 521 540 L589 540 L611 649 C579 675 531 699 428 699 C182 699 63 459 63 244 C63 84 136 -14 315 -14 C376 -14 459 3 521 37 L558 226 C569 283 586 300 638 302 L645 337 L395 337 L388 302 C448 300 467 290 467 258 C467 251 465 238 463 226 L432 63 C402 43 359 33 316 33 L316 33 Z M342 -141 C342 -95 317 -62 270 -62 C231 -62 205 -87 205 -117 C205 -145 219 -158 236 -165 C255 -172 263 -178 263 -191 C263 -214 250 -232 196 -249 L215 -276 C299 -259 342 -203 342 -141 L342 -141 Z " />
<glyph glyph-name="gcommaaccent" unicode="&#x123;" horiz-adv-x="496" d="M526 440 L504 508 C477 491 454 481 424 481 C381 481 328 504 259 504 C156 504 61 434 61 328 C61 271 93 214 155 199 C86 177 40 142 40 92 C40 40 77 28 125 24 C145 22 167 20 228 17 C296 14 327 -6 327 -48 C327 -113 280 -154 168 -154 C80 -154 49 -127 49 -85 C49 -52 62 -24 71 -11 L31 -13 C0 -27 -35 -50 -35 -95 C-35 -153 22 -198 166 -198 C303 -198 411 -137 411 -23 C411 58 357 97 239 100 L157 102 C130 103 124 116 124 128 C124 152 161 178 201 186 C208 186 213 185 220 185 C375 185 435 279 435 343 C435 383 417 423 391 445 C417 431 441 426 461 426 C487 426 501 430 526 440 L526 440 Z M235 231 C180 231 151 261 151 314 C151 409 204 458 259 458 C317 458 344 428 344 377 C344 303 310 231 235 231 L235 231 Z M252 664 C252 616 277 581 324 581 C363 581 389 607 389 639 C389 668 376 684 349 691 C336 695 329 697 329 711 C329 735 353 756 407 774 L392 803 C308 785 252 729 252 664 L252 664 Z " />
<glyph glyph-name="Hcircumflex" unicode="&#x124;" horiz-adv-x="699" d="M650 578 C661 635 677 652 745 654 L751 689 L493 689 L487 654 C537 653 556 640 556 609 C556 600 555 591 552 578 L515 390 L241 390 L278 578 C289 635 305 652 373 654 L379 689 L121 689 L115 654 C167 653 184 640 184 610 C184 601 183 591 180 578 L89 111 C78 54 62 37 -6 35 L-12 0 L246 0 L252 35 C199 36 183 49 183 79 C183 88 185 98 187 111 L231 340 L505 340 L461 111 C450 54 434 37 366 35 L360 0 L618 0 L624 35 C572 37 555 47 555 78 C555 87 557 98 559 111 L650 578 Z M581 724 L605 752 L476 907 L284 754 L305 724 L461 809 L581 724 Z " />
<glyph glyph-name="hcircumflex" unicode="&#x125;" horiz-adv-x="531" d="M330 122 C326 101 323 82 323 65 C323 17 343 -9 392 -9 C418 -9 450 -1 496 20 L493 51 C478 49 466 48 456 48 C426 48 415 58 415 82 C415 89 417 103 421 122 L474 371 C477 386 479 400 479 413 C479 465 454 505 392 505 C313 505 247 438 201 368 L244 561 C256 614 260 656 260 683 C260 706 257 721 254 730 L241 730 L98 704 L91 674 C139 672 160 660 160 622 C160 612 159 601 156 587 L30 0 L121 0 L179 273 C218 339 290 434 352 434 C375 434 385 422 385 398 C385 388 383 376 380 362 L330 122 Z M488 763 L512 791 L383 946 L191 793 L212 763 L368 848 L488 763 Z " />
<glyph glyph-name="Hbar" unicode="&#x126;" horiz-adv-x="699" d="M650 578 C661 635 677 652 745 654 L751 689 L493 689 L487 654 C538 652 556 642 556 610 C556 601 554 589 552 578 L544 540 L270 540 L278 578 C289 635 305 652 373 654 L379 689 L121 689 L115 654 C166 652 184 642 184 610 C184 601 182 589 180 578 L172 540 L102 540 L92 494 L163 494 L89 111 C78 54 62 37 -6 35 L-12 0 L246 0 L252 35 C201 37 183 47 183 79 C183 88 185 101 187 111 L231 340 L505 340 L461 111 C450 54 434 37 366 35 L360 0 L618 0 L624 35 C573 37 555 47 555 79 C555 88 557 101 559 111 L633 494 L706 494 L716 540 L642 540 L650 578 Z M241 390 L261 494 L535 494 L515 390 L241 390 Z " />
<glyph glyph-name="hbar" unicode="&#x127;" horiz-adv-x="531" d="M69 564 L151 564 L30 0 L121 0 L179 273 C218 339 290 434 352 434 C375 434 385 422 385 398 C385 390 383 378 380 362 L330 122 C326 101 323 82 323 65 C323 17 343 -9 392 -9 C418 -9 450 -1 496 20 L493 51 C478 49 466 48 459 48 C425 48 415 59 415 82 C415 87 416 100 421 122 L474 371 C477 386 479 400 479 413 C479 465 454 505 392 505 C313 505 247 438 201 368 L245 564 L400 564 L409 605 L252 605 C257 638 259 665 259 685 C259 707 257 721 254 730 L241 730 L98 704 L91 674 C139 672 160 659 160 621 C160 616 160 611 159 605 L78 605 L69 564 Z " />
<glyph glyph-name="Itilde" unicode="&#x128;" horiz-adv-x="327" d="M278 578 C289 635 305 652 373 654 L379 689 L121 689 L115 654 C166 652 184 642 184 610 C184 601 182 589 180 578 L89 111 C78 54 62 37 -6 35 L-12 0 L246 0 L252 35 C201 37 183 47 183 79 C183 88 185 100 187 111 L278 578 Z M340 818 C291 818 268 864 202 864 C142 864 111 819 97 764 L131 751 C148 778 164 798 202 798 C245 798 271 754 340 754 C399 754 432 798 449 849 L413 863 C396 836 375 818 340 818 L340 818 Z " />
<glyph glyph-name="itilde" unicode="&#x129;" horiz-adv-x="268" d="M240 669 C199 669 170 700 116 700 C62 700 31 649 19 594 L52 580 C67 607 82 624 116 624 C152 624 186 595 240 595 C293 595 326 645 341 696 L306 711 C291 684 272 669 240 669 L240 669 Z M205 367 C210 389 213 409 213 425 C213 476 188 496 146 496 C115 496 72 485 46 472 L39 441 C94 441 117 427 117 392 C117 385 115 369 111 354 L55 122 C50 101 47 82 47 65 C47 18 69 -9 113 -9 C145 -9 179 -1 225 20 L222 51 C207 49 195 48 185 48 C154 48 143 58 143 82 C143 92 145 106 149 122 L205 367 Z " />
<glyph glyph-name="Imacron" unicode="&#x12a;" horiz-adv-x="327" d="M278 578 C289 635 305 652 373 654 L379 689 L121 689 L115 654 C166 652 184 642 184 610 C184 601 182 589 180 578 L89 111 C78 54 62 37 -6 35 L-12 0 L246 0 L252 35 C201 37 183 47 183 79 C183 88 185 100 187 111 L278 578 Z M407 769 L417 826 L136 826 L126 769 L407 769 Z " />
<glyph glyph-name="imacron" unicode="&#x12b;" horiz-adv-x="268" d="M301 590 L311 647 L70 647 L60 590 L301 590 Z M205 367 C210 389 213 409 213 425 C213 476 188 496 146 496 C115 496 72 485 46 472 L39 441 C94 441 117 427 117 392 C117 385 115 369 111 354 L55 122 C50 101 47 82 47 65 C47 18 69 -9 113 -9 C145 -9 179 -1 225 20 L222 51 C207 49 195 48 185 48 C154 48 143 58 143 82 C143 92 145 106 149 122 L205 367 Z " />
<glyph glyph-name="Ibreve" unicode="&#x12c;" horiz-adv-x="327" d="M278 578 C289 635 305 652 373 654 L379 689 L121 689 L115 654 C166 652 184 642 184 610 C184 601 182 589 180 578 L89 111 C78 54 62 37 -6 35 L-12 0 L246 0 L252 35 C201 37 183 47 183 79 C183 88 185 100 187 111 L278 578 Z M249 743 C320 743 391 809 427 878 L395 900 C352 852 312 821 261 821 C210 821 181 849 159 900 L126 878 C128 811 177 743 249 743 L249 743 Z " />
<glyph glyph-name="ibreve" unicode="&#x12d;" horiz-adv-x="268" d="M190 567 C264 567 323 628 361 702 L330 724 C288 673 251 645 197 645 C146 645 116 670 94 722 L59 708 C67 640 108 567 190 567 L190 567 Z M205 367 C210 389 213 409 213 425 C213 476 188 496 146 496 C115 496 72 485 46 472 L39 441 C94 441 117 427 117 392 C117 385 115 369 111 354 L55 122 C50 101 47 82 47 65 C47 18 69 -9 113 -9 C145 -9 179 -1 225 20 L222 51 C207 49 195 48 185 48 C154 48 143 58 143 82 C143 92 145 106 149 122 L205 367 Z " />
<glyph glyph-name="Iogonek" unicode="&#x12e;" horiz-adv-x="327" d="M195 -142 C176 -153 164 -159 142 -159 C118 -159 102 -141 102 -119 C102 -68 169 0 240 0 L246 0 L252 35 C201 37 183 47 183 79 C183 88 185 100 187 111 L278 578 C289 635 305 652 373 654 L379 689 L121 689 L115 654 C166 652 184 642 184 610 C184 601 182 589 180 578 L89 111 C78 54 62 37 -6 35 L-12 0 L147 0 C69 -34 22 -78 22 -131 C22 -170 50 -205 113 -205 C156 -205 188 -187 211 -163 L195 -142 Z " />
<glyph glyph-name="iogonek" unicode="&#x12f;" horiz-adv-x="268" d="M258 644 C258 679 231 707 196 707 C161 707 134 679 134 644 C134 609 161 581 196 581 C231 581 258 609 258 644 L258 644 Z M222 51 C207 49 195 48 185 48 C154 48 143 58 143 82 C143 92 145 106 149 122 L205 367 C210 389 213 409 213 425 C213 476 188 496 146 496 C115 496 72 485 46 472 L39 441 C94 441 117 427 117 392 C117 385 115 369 111 354 L55 122 C50 101 47 83 47 67 C47 20 70 -6 117 -6 C41 -43 1 -81 1 -131 C1 -170 29 -205 92 -205 C135 -205 167 -187 190 -163 L174 -142 C155 -153 143 -159 121 -159 C97 -159 81 -141 81 -119 C81 -52 171 -7 225 20 L222 51 Z " />
<glyph glyph-name="Idotaccent" unicode="&#x130;" horiz-adv-x="327" d="M278 578 C289 635 305 652 373 654 L379 689 L121 689 L115 654 C166 652 184 642 184 610 C184 601 182 589 180 578 L89 111 C78 54 62 37 -6 35 L-12 0 L246 0 L252 35 C201 37 183 47 183 79 C183 88 185 100 187 111 L278 578 Z M335 808 C335 843 308 871 273 871 C238 871 211 843 211 808 C211 773 238 745 273 745 C308 745 335 773 335 808 L335 808 Z " />
<glyph glyph-name="dotlessi" unicode="&#x131;" horiz-adv-x="268" d="M205 367 C210 389 213 409 213 425 C213 476 188 496 146 496 C115 496 72 485 46 472 L39 441 C94 441 117 427 117 392 C117 385 115 369 111 354 L55 122 C50 101 47 82 47 65 C47 18 69 -9 113 -9 C145 -9 179 -1 225 20 L222 51 C207 49 195 48 185 48 C154 48 143 58 143 82 C143 92 145 106 149 122 L205 367 Z " />
<glyph glyph-name="IJ" unicode="&#x132;" horiz-adv-x="657" d="M278 578 C289 635 305 652 373 654 L379 689 L121 689 L115 654 C166 652 184 642 184 610 C184 601 182 589 180 578 L89 111 C78 54 62 37 -6 35 L-12 0 L246 0 L252 35 C201 37 183 47 183 79 C183 88 185 100 187 111 L278 578 Z M603 578 C614 635 630 652 698 654 L704 689 L446 689 L440 654 C491 652 509 642 509 610 C509 601 507 591 505 578 L412 100 C390 -11 366 -65 254 -110 L271 -147 C421 -110 480 -50 511 108 L603 578 Z " />
<glyph glyph-name="ij" unicode="&#x133;" horiz-adv-x="513" d="M205 367 C210 389 213 409 213 425 C213 476 188 496 146 496 C115 496 72 485 46 472 L39 441 C94 441 117 427 117 392 C117 385 115 369 111 354 L55 122 C50 101 47 82 47 65 C47 18 69 -9 113 -9 C145 -9 179 -1 225 20 L222 51 C207 49 195 48 185 48 C154 48 143 58 143 82 C143 92 145 106 149 122 L205 367 Z M258 644 C258 679 231 707 196 707 C161 707 134 679 134 644 C134 609 161 581 196 581 C231 581 258 609 258 644 L258 644 Z M466 367 C470 389 473 409 473 423 C473 475 449 496 406 496 C375 496 332 485 306 472 L299 441 C354 441 377 427 377 392 C377 382 373 363 371 354 L303 12 C282 -93 257 -129 172 -165 L188 -206 C300 -171 367 -125 391 -4 L466 367 Z M518 644 C518 679 491 707 456 707 C421 707 394 679 394 644 C394 609 421 581 456 581 C491 581 518 609 518 644 L518 644 Z " />
<glyph glyph-name="Jcircumflex" unicode="&#x134;" horiz-adv-x="336" d="M282 578 C293 635 309 652 377 654 L383 689 L125 689 L119 654 C170 652 188 642 188 610 C188 601 186 591 184 578 L91 100 C69 -11 45 -65 -67 -110 L-50 -147 C100 -110 159 -50 190 108 L282 578 Z M401 724 L425 752 L296 907 L104 754 L125 724 L281 809 L401 724 Z " />
<glyph glyph-name="jcircumflex" unicode="&#x135;" horiz-adv-x="265" d="M218 367 C222 389 225 409 225 423 C225 475 201 496 158 496 C127 496 84 485 58 472 L51 441 C106 441 129 427 129 392 C129 382 125 363 123 354 L55 12 C34 -93 9 -129 -76 -165 L-60 -206 C52 -171 119 -125 143 -4 L218 367 Z M311 564 L335 592 L206 747 L14 594 L35 564 L191 649 L311 564 Z " />
<glyph glyph-name="Kcommaaccent" unicode="&#x136;" horiz-adv-x="622" d="M510 547 C588 623 613 647 663 654 L669 689 L457 689 L451 654 C482 653 499 645 499 629 C499 616 491 602 465 576 L253 364 L424 0 L578 0 L584 35 C533 39 511 48 493 84 L344 385 L510 547 Z M278 578 C289 635 305 652 373 654 L379 689 L121 689 L115 654 C166 652 184 642 184 610 C184 601 182 589 180 578 L89 111 C78 54 62 37 -6 35 L-12 0 L246 0 L252 35 C201 37 183 47 183 79 C183 88 185 100 187 111 L278 578 Z M349 -141 C349 -95 324 -62 277 -62 C238 -62 212 -87 212 -117 C212 -145 226 -158 243 -165 C262 -172 270 -178 270 -191 C270 -214 257 -232 203 -249 L222 -276 C306 -259 349 -203 349 -141 L349 -141 Z " />
<glyph glyph-name="kcommaaccent" unicode="&#x137;" horiz-adv-x="487" d="M244 561 C256 614 260 656 260 683 C260 706 257 721 254 730 L241 730 L98 704 L91 674 C139 672 160 660 160 622 C160 612 159 601 156 587 L30 0 L121 0 L244 561 Z M267 87 C297 17 322 -6 368 -6 C394 -6 429 5 462 24 L459 55 C445 53 434 52 424 52 C384 52 374 68 358 103 L276 292 L342 355 C402 413 446 448 498 448 L507 491 L406 491 L191 269 L267 87 Z M268 -141 C268 -95 243 -62 196 -62 C157 -62 131 -87 131 -117 C131 -145 145 -158 162 -165 C181 -172 189 -178 189 -191 C189 -214 176 -232 122 -249 L141 -276 C225 -259 268 -203 268 -141 L268 -141 Z " />
<glyph glyph-name="kgreenlandic" unicode="&#x138;" horiz-adv-x="497" d="M40 0 L131 0 L211 367 C216 389 218 408 218 424 C218 475 195 496 152 496 C121 496 78 485 52 472 L45 441 C101 441 122 427 122 391 C122 381 120 368 117 354 L40 0 Z M277 87 C307 17 332 -6 378 -6 C404 -6 439 5 472 24 L469 55 C455 53 444 52 434 52 C394 52 384 68 368 103 L286 292 L352 355 C412 413 456 448 508 448 L517 491 L416 491 L201 269 L277 87 Z " />
<glyph glyph-name="Lacute" unicode="&#x139;" horiz-adv-x="532" d="M175 49 L277 575 C288 632 306 652 378 654 L384 689 L121 689 L115 654 C166 652 184 642 184 610 C184 601 182 589 180 578 L89 111 C78 54 62 37 -6 35 L-12 0 L452 0 L499 169 L455 169 C418 79 389 49 316 49 L175 49 Z M176 727 L390 797 L347 889 L156 761 L176 727 Z " />
<glyph glyph-name="lacute" unicode="&#x13a;" horiz-adv-x="266" d="M240 561 C252 614 256 654 256 683 C256 706 253 721 250 730 L237 730 L94 704 L87 674 C135 672 156 660 156 623 C156 612 155 601 152 587 L52 122 C48 101 46 85 46 67 C46 17 66 -9 116 -9 C146 -9 181 -1 226 20 L223 51 C207 49 194 48 183 48 C151 48 140 57 140 81 C140 91 143 107 146 122 L240 561 Z M149 758 L363 828 L320 920 L129 792 L149 758 Z " />
<glyph glyph-name="Lcommaaccent" unicode="&#x13b;" horiz-adv-x="532" d="M175 49 L277 575 C288 632 306 652 378 654 L384 689 L121 689 L115 654 C166 652 184 642 184 610 C184 601 182 589 180 578 L89 111 C78 54 62 37 -6 35 L-12 0 L452 0 L499 169 L455 169 C418 79 389 49 316 49 L175 49 Z M296 -141 C296 -95 271 -62 224 -62 C185 -62 159 -87 159 -117 C159 -145 173 -158 190 -165 C209 -172 217 -178 217 -191 C217 -214 204 -232 150 -249 L169 -276 C253 -259 296 -203 296 -141 L296 -141 Z " />
<glyph glyph-name="lcommaaccent" unicode="&#x13c;" horiz-adv-x="266" d="M240 561 C252 614 256 654 256 683 C256 706 253 721 250 730 L237 730 L94 704 L87 674 C135 672 156 660 156 623 C156 612 155 601 152 587 L52 122 C48 101 46 85 46 67 C46 17 66 -9 116 -9 C146 -9 181 -1 226 20 L223 51 C207 49 194 48 183 48 C151 48 140 57 140 81 C140 91 143 107 146 122 L240 561 Z M145 -141 C145 -95 120 -62 73 -62 C34 -62 8 -87 8 -117 C8 -145 22 -158 39 -165 C58 -172 66 -178 66 -191 C66 -214 53 -232 -1 -249 L18 -276 C102 -259 145 -203 145 -141 L145 -141 Z " />
<glyph glyph-name="Lcaron" unicode="&#x13d;" horiz-adv-x="532" d="M175 49 L277 575 C288 632 306 652 378 654 L384 689 L121 689 L115 654 C166 652 184 642 184 610 C184 601 182 589 180 578 L89 111 C78 54 62 37 -6 35 L-12 0 L452 0 L499 169 L455 169 C418 79 389 49 316 49 L175 49 Z M564 715 L474 730 L438 538 L481 527 L564 715 Z " />
<glyph glyph-name="lcaron" unicode="&#x13e;" horiz-adv-x="266" d="M240 561 C252 614 256 654 256 683 C256 706 253 721 250 730 L237 730 L94 704 L87 674 C135 672 156 660 156 623 C156 612 155 601 152 587 L52 122 C48 101 46 85 46 67 C46 17 66 -9 116 -9 C146 -9 181 -1 226 20 L223 51 C207 49 194 48 183 48 C151 48 140 57 140 81 C140 91 143 107 146 122 L240 561 Z M416 715 L326 730 L290 538 L333 527 L416 715 Z " />
<glyph glyph-name="Ldot" unicode="&#x13f;" horiz-adv-x="532" d="M175 49 L277 575 C288 632 306 652 378 654 L384 689 L121 689 L115 654 C166 652 184 642 184 610 C184 601 182 589 180 578 L89 111 C78 54 62 37 -6 35 L-12 0 L452 0 L499 169 L455 169 C418 79 389 49 316 49 L175 49 Z M548 369 C548 410 518 442 477 442 C436 442 406 410 406 369 C406 328 436 296 477 296 C518 296 548 328 548 369 L548 369 Z " />
<glyph glyph-name="ldot" unicode="&#x140;" horiz-adv-x="366" d="M240 561 C252 614 256 654 256 683 C256 706 253 721 250 730 L237 730 L94 704 L87 674 C135 672 156 660 156 623 C156 612 155 601 152 587 L52 122 C48 101 46 85 46 67 C46 17 66 -9 116 -9 C146 -9 181 -1 226 20 L223 51 C207 49 194 48 183 48 C151 48 140 57 140 81 C140 91 143 107 146 122 L240 561 Z M386 347 C386 383 359 411 324 411 C288 411 262 383 262 347 C262 311 288 283 324 283 C359 283 386 311 386 347 L386 347 Z " />
<glyph glyph-name="Lslash" unicode="&#x141;" horiz-adv-x="532" d="M133 336 L47 309 L37 253 L122 279 L89 111 C78 54 62 37 -6 35 L-12 0 L452 0 L499 169 L455 169 C418 79 389 49 316 49 L175 49 L226 312 L432 377 L442 434 L237 369 L277 576 C288 633 306 652 378 654 L384 689 L121 689 L115 654 C166 652 184 642 184 610 C184 601 182 589 180 578 L133 336 Z " />
<glyph glyph-name="lslash" unicode="&#x142;" horiz-adv-x="266" d="M240 561 C252 614 256 654 256 683 C256 706 253 721 250 730 L237 730 L94 704 L87 674 C135 672 156 660 156 622 C156 612 155 601 152 587 L106 374 L33 339 L22 288 L95 322 L52 122 C48 101 46 83 46 67 C46 18 66 -9 116 -9 C146 -9 181 -1 226 20 L223 51 C207 49 194 48 183 48 C151 48 140 57 140 81 C140 92 143 105 146 122 L199 372 L278 409 L289 461 L210 423 L240 561 Z " />
<glyph glyph-name="Nacute" unicode="&#x143;" horiz-adv-x="669" d="M526 0 L638 578 C649 635 663 652 725 654 L731 689 L514 689 L508 654 C559 652 577 642 577 610 C577 601 575 589 573 578 L525 333 C505 227 498 144 497 127 L491 127 C490 140 480 200 451 271 L277 689 L121 689 L115 654 C166 652 184 642 184 610 C184 601 182 589 180 578 L89 111 C78 54 62 37 -6 35 L-12 0 L213 0 L219 35 C168 37 150 47 150 79 C150 86 151 98 154 111 L209 394 C227 485 232 562 233 578 L239 578 C240 565 251 501 290 408 L461 0 L526 0 Z M352 727 L566 797 L523 889 L332 761 L352 727 Z " />
<glyph glyph-name="nacute" unicode="&#x144;" horiz-adv-x="541" d="M340 122 C336 101 333 81 333 65 C333 19 353 -9 404 -9 C428 -9 460 -1 506 20 L503 51 C489 49 477 48 467 48 C436 48 425 58 425 82 C425 93 428 108 431 122 L484 371 C487 386 489 400 489 413 C489 465 464 505 402 505 C319 505 249 429 203 357 C208 379 210 404 210 416 C210 469 188 496 151 496 C116 496 79 485 53 472 L46 441 C101 441 120 428 120 393 C120 382 118 369 115 354 L40 0 L131 0 L189 273 C228 339 300 434 362 434 C385 434 395 422 395 398 C395 389 393 376 390 362 L340 122 Z M247 566 L459 662 L406 753 L227 600 L247 566 Z " />
<glyph glyph-name="Ncommaaccent" unicode="&#x145;" horiz-adv-x="669" d="M526 0 L638 578 C649 635 663 652 725 654 L731 689 L514 689 L508 654 C559 652 577 642 577 610 C577 601 575 589 573 578 L525 333 C505 227 498 144 497 127 L491 127 C490 140 480 200 451 271 L277 689 L121 689 L115 654 C166 652 184 642 184 610 C184 601 182 589 180 578 L89 111 C78 54 62 37 -6 35 L-12 0 L213 0 L219 35 C168 37 150 47 150 79 C150 86 151 98 154 111 L209 394 C227 485 232 562 233 578 L239 578 C240 565 251 501 290 408 L461 0 L526 0 Z M372 -141 C372 -95 347 -62 300 -62 C261 -62 235 -87 235 -117 C235 -145 249 -158 266 -165 C285 -172 293 -178 293 -191 C293 -214 280 -232 226 -249 L245 -276 C329 -259 372 -203 372 -141 L372 -141 Z " />
<glyph glyph-name="ncommaaccent" unicode="&#x146;" horiz-adv-x="541" d="M340 122 C336 101 333 81 333 65 C333 19 353 -9 404 -9 C428 -9 460 -1 506 20 L503 51 C489 49 477 48 467 48 C436 48 425 58 425 82 C425 93 428 108 431 122 L484 371 C487 386 489 400 489 413 C489 465 464 505 402 505 C319 505 249 429 203 357 C208 379 210 404 210 416 C210 469 188 496 151 496 C116 496 79 485 53 472 L46 441 C101 441 120 428 120 393 C120 382 118 369 115 354 L40 0 L131 0 L189 273 C228 339 300 434 362 434 C385 434 395 422 395 398 C395 389 393 376 390 362 L340 122 Z M301 -141 C301 -95 276 -62 229 -62 C190 -62 164 -87 164 -117 C164 -145 178 -158 195 -165 C214 -172 222 -178 222 -191 C222 -214 209 -232 155 -249 L174 -276 C258 -259 301 -203 301 -141 L301 -141 Z " />
<glyph glyph-name="Ncaron" unicode="&#x147;" horiz-adv-x="669" d="M526 0 L638 578 C649 635 663 652 725 654 L731 689 L514 689 L508 654 C559 652 577 642 577 610 C577 601 575 589 573 578 L525 333 C505 227 498 144 497 127 L491 127 C490 140 480 200 451 271 L277 689 L121 689 L115 654 C166 652 184 642 184 610 C184 601 182 589 180 578 L89 111 C78 54 62 37 -6 35 L-12 0 L213 0 L219 35 C168 37 150 47 150 79 C150 86 151 98 154 111 L209 394 C227 485 232 562 233 578 L239 578 C240 565 251 501 290 408 L461 0 L526 0 Z M299 907 L275 879 L404 724 L596 877 L575 907 L419 822 L299 907 Z " />
<glyph glyph-name="ncaron" unicode="&#x148;" horiz-adv-x="541" d="M340 122 C336 101 333 81 333 65 C333 19 353 -9 404 -9 C428 -9 460 -1 506 20 L503 51 C489 49 477 48 467 48 C436 48 425 58 425 82 C425 93 428 108 431 122 L484 371 C487 386 489 400 489 413 C489 465 464 505 402 505 C319 505 249 429 203 357 C208 379 210 404 210 416 C210 469 188 496 151 496 C116 496 79 485 53 472 L46 441 C101 441 120 428 120 393 C120 382 118 369 115 354 L40 0 L131 0 L189 273 C228 339 300 434 362 434 C385 434 395 422 395 398 C395 389 393 376 390 362 L340 122 Z M193 730 L169 702 L298 547 L490 700 L469 730 L313 645 L193 730 Z " />
<glyph glyph-name="napostrophe" unicode="&#x149;" horiz-adv-x="541" d="M90 622 C90 670 65 705 18 705 C-21 705 -47 679 -47 647 C-47 618 -34 602 -7 595 C6 591 13 589 13 575 C13 551 -11 530 -65 512 L-50 483 C34 501 90 557 90 622 L90 622 Z M340 122 C336 101 333 81 333 65 C333 19 353 -9 404 -9 C428 -9 460 -1 506 20 L503 51 C489 49 477 48 467 48 C436 48 425 58 425 82 C425 93 428 108 431 122 L484 371 C487 386 489 400 489 413 C489 465 464 505 402 505 C319 505 249 429 203 357 C208 379 210 404 210 416 C210 469 188 496 151 496 C116 496 79 485 53 472 L46 441 C101 441 120 428 120 393 C120 382 118 369 115 354 L40 0 L131 0 L189 273 C228 339 300 434 362 434 C385 434 395 422 395 398 C395 389 393 376 390 362 L340 122 Z " />
<glyph glyph-name="Eng" unicode="&#x14a;" horiz-adv-x="669" d="M638 578 C649 635 663 652 725 654 L731 689 L514 689 L508 654 C559 652 577 642 577 610 C577 601 575 589 573 578 L525 333 C505 227 498 144 497 127 L491 127 C490 140 480 200 451 271 L277 689 L121 689 L115 654 C166 652 184 642 184 610 C184 601 182 589 180 578 L89 111 C78 54 62 37 -6 35 L-12 0 L213 0 L219 35 C168 37 150 47 150 79 C150 86 151 98 154 111 L209 394 C227 485 232 562 233 578 L239 578 C240 565 251 501 290 408 L448 28 C427 -74 375 -109 304 -141 L321 -177 C435 -149 505 -109 532 29 L638 578 Z " />
<glyph glyph-name="eng" unicode="&#x14b;" horiz-adv-x="530" d="M484 371 C487 386 489 400 489 413 C489 465 464 505 402 505 C319 505 249 429 203 357 C208 379 210 404 210 416 C210 469 188 496 151 496 C116 496 79 485 53 472 L46 441 C101 441 120 428 120 393 C120 382 118 369 115 354 L40 0 L131 0 L189 273 C228 339 300 434 362 434 C385 434 395 422 395 398 C395 389 393 376 390 362 L325 18 C304 -92 277 -124 193 -165 L209 -206 C321 -171 390 -118 415 13 L484 371 Z " />
<glyph glyph-name="Omacron" unicode="&#x14c;" horiz-adv-x="673" d="M650 438 C650 611 554 700 410 700 C161 700 63 438 63 252 C63 84 153 -14 308 -14 C555 -14 650 250 650 438 L650 438 Z M546 467 C546 373 519 220 459 124 C420 62 375 33 307 33 C211 33 167 85 167 219 C167 320 191 468 252 562 C289 621 336 652 409 652 C507 652 546 587 546 467 L546 467 Z M569 769 L579 826 L298 826 L288 769 L569 769 Z " />
<glyph glyph-name="omacron" unicode="&#x14d;" horiz-adv-x="518" d="M483 310 C483 418 419 504 298 504 C159 504 35 364 35 178 C35 65 106 -14 220 -14 C377 -14 483 138 483 310 L483 310 Z M387 325 C387 228 362 133 315 79 C291 51 260 34 224 34 C157 34 131 85 131 163 C131 253 154 338 192 393 C219 432 254 456 294 456 C360 456 387 409 387 325 L387 325 Z M449 590 L459 647 L178 647 L168 590 L449 590 Z " />
<glyph glyph-name="Obreve" unicode="&#x14e;" horiz-adv-x="673" d="M650 438 C650 611 554 700 410 700 C161 700 63 438 63 252 C63 84 153 -14 308 -14 C555 -14 650 250 650 438 L650 438 Z M546 467 C546 373 519 220 459 124 C420 62 375 33 307 33 C211 33 167 85 167 219 C167 320 191 468 252 562 C289 621 336 652 409 652 C507 652 546 587 546 467 L546 467 Z M422 743 C493 743 564 809 600 878 L568 900 C525 852 485 821 434 821 C383 821 354 849 332 900 L299 878 C301 811 350 743 422 743 L422 743 Z " />
<glyph glyph-name="obreve" unicode="&#x14f;" horiz-adv-x="518" d="M483 310 C483 418 419 504 298 504 C159 504 35 364 35 178 C35 65 106 -14 220 -14 C377 -14 483 138 483 310 L483 310 Z M387 325 C387 228 362 133 315 79 C291 51 260 34 224 34 C157 34 131 85 131 163 C131 253 154 338 192 393 C219 432 254 456 294 456 C360 456 387 409 387 325 L387 325 Z M317 567 C391 567 450 628 488 702 L457 724 C415 673 378 645 324 645 C273 645 243 670 221 722 L186 708 C194 640 235 567 317 567 L317 567 Z " />
<glyph glyph-name="Ohungarumlaut" unicode="&#x150;" horiz-adv-x="673" d="M650 438 C650 611 554 700 410 700 C161 700 63 438 63 252 C63 84 153 -14 308 -14 C555 -14 650 250 650 438 L650 438 Z M546 467 C546 373 519 220 459 124 C420 62 375 33 307 33 C211 33 167 85 167 219 C167 320 191 468 252 562 C289 621 336 652 409 652 C507 652 546 587 546 467 L546 467 Z M456 901 L370 937 L318 745 L360 727 L456 901 Z M636 873 L559 922 L475 747 L512 721 L636 873 Z " />
<glyph glyph-name="ohungarumlaut" unicode="&#x151;" horiz-adv-x="518" d="M483 310 C483 418 419 504 298 504 C159 504 35 364 35 178 C35 65 106 -14 220 -14 C377 -14 483 138 483 310 L483 310 Z M387 325 C387 228 362 133 315 79 C291 51 260 34 224 34 C157 34 131 85 131 163 C131 253 154 338 192 393 C219 432 254 456 294 456 C360 456 387 409 387 325 L387 325 Z M384 770 L299 806 L229 581 L271 563 L384 770 Z M568 740 L490 791 L386 583 L423 557 L568 740 Z " />
<glyph glyph-name="OE" unicode="&#x152;" horiz-adv-x="907" d="M818 0 L850 165 L805 165 C778 72 755 49 678 49 L514 49 L570 336 L660 336 C713 336 733 324 733 286 C733 280 732 273 731 265 L772 265 L809 455 L768 455 C753 398 730 384 668 384 L579 384 L629 640 L792 640 C850 640 861 615 868 539 L910 539 L929 689 L469 689 C206 689 64 491 64 262 C64 75 178 0 350 0 L818 0 Z M416 49 L363 49 C212 49 165 125 165 262 C165 366 194 471 254 549 C304 614 367 640 470 640 L531 640 L416 49 Z " />
<glyph glyph-name="oe" unicode="&#x153;" horiz-adv-x="813" d="M465 171 C465 187 465 203 467 218 L489 218 C692 218 798 284 798 380 C798 460 740 504 652 504 C574 504 509 467 461 403 C434 461 379 504 298 504 C159 504 35 364 35 178 C35 65 106 -14 220 -14 C291 -14 354 16 398 71 C419 16 468 -14 539 -14 C629 -14 699 27 743 77 L717 112 C670 68 624 43 568 43 C504 43 465 89 465 171 L465 171 Z M387 325 C387 228 362 133 315 79 C291 51 260 34 224 34 C157 34 131 85 131 163 C131 253 154 338 192 393 C219 432 254 456 294 456 C360 456 387 409 387 325 L387 325 Z M706 386 C706 315 656 264 502 264 L475 264 C499 369 564 456 646 456 C683 456 706 425 706 386 L706 386 Z " />
<glyph glyph-name="Racute" unicode="&#x154;" horiz-adv-x="612" d="M290 640 L349 640 C435 640 478 612 478 526 C478 417 420 362 312 362 L236 362 L290 640 Z M228 319 C288 317 315 303 342 239 C371 170 397 88 425 0 L567 0 L573 35 C522 37 512 57 498 93 C472 158 451 225 432 258 C414 288 385 311 339 323 L339 327 C478 327 579 391 579 537 C579 643 506 689 373 689 L121 689 L115 654 C166 652 184 642 184 610 C184 601 182 588 180 578 L89 111 C78 54 62 37 -6 35 L-12 0 L246 0 L252 35 C201 37 183 47 183 79 C183 88 185 100 187 111 L228 319 Z M292 727 L506 797 L463 889 L272 761 L292 727 Z " />
<glyph glyph-name="racute" unicode="&#x155;" horiz-adv-x="360" d="M204 358 C207 378 208 390 208 411 C208 467 189 496 151 496 C116 496 79 485 53 472 L46 441 C101 441 120 428 120 393 C120 382 118 369 115 354 L40 0 L131 0 L177 218 C203 342 260 403 329 403 C344 403 352 401 359 398 L380 500 C372 503 361 505 352 505 C296 505 240 436 204 358 L204 358 Z M173 566 L385 662 L332 753 L153 600 L173 566 Z " />
<glyph glyph-name="Rcommaaccent" unicode="&#x156;" horiz-adv-x="612" d="M290 640 L349 640 C435 640 478 612 478 526 C478 417 420 362 312 362 L236 362 L290 640 Z M228 319 C288 317 315 303 342 239 C371 170 397 88 425 0 L567 0 L573 35 C522 37 512 57 498 93 C472 158 451 225 432 258 C414 288 385 311 339 323 L339 327 C478 327 579 391 579 537 C579 643 506 689 373 689 L121 689 L115 654 C166 652 184 642 184 610 C184 601 182 588 180 578 L89 111 C78 54 62 37 -6 35 L-12 0 L246 0 L252 35 C201 37 183 47 183 79 C183 88 185 100 187 111 L228 319 Z M348 -141 C348 -95 323 -62 276 -62 C237 -62 211 -87 211 -117 C211 -145 225 -158 242 -165 C261 -172 269 -178 269 -191 C269 -214 256 -232 202 -249 L221 -276 C305 -259 348 -203 348 -141 L348 -141 Z " />
<glyph glyph-name="rcommaaccent" unicode="&#x157;" horiz-adv-x="360" d="M204 358 C207 378 208 390 208 411 C208 467 189 496 151 496 C116 496 79 485 53 472 L46 441 C101 441 120 428 120 393 C120 382 118 369 115 354 L40 0 L131 0 L177 218 C203 342 260 403 329 403 C344 403 352 401 359 398 L380 500 C372 503 361 505 352 505 C296 505 240 436 204 358 L204 358 Z M131 -141 C131 -95 106 -62 59 -62 C20 -62 -6 -87 -6 -117 C-6 -145 8 -158 25 -165 C44 -172 52 -178 52 -191 C52 -214 39 -232 -15 -249 L4 -276 C88 -259 131 -203 131 -141 L131 -141 Z " />
<glyph glyph-name="Rcaron" unicode="&#x158;" horiz-adv-x="612" d="M290 640 L349 640 C435 640 478 612 478 526 C478 417 420 362 312 362 L236 362 L290 640 Z M228 319 C288 317 315 303 342 239 C371 170 397 88 425 0 L567 0 L573 35 C522 37 512 57 498 93 C472 158 451 225 432 258 C414 288 385 311 339 323 L339 327 C478 327 579 391 579 537 C579 643 506 689 373 689 L121 689 L115 654 C166 652 184 642 184 610 C184 601 182 588 180 578 L89 111 C78 54 62 37 -6 35 L-12 0 L246 0 L252 35 C201 37 183 47 183 79 C183 88 185 100 187 111 L228 319 Z M254 907 L230 879 L359 724 L551 877 L530 907 L374 822 L254 907 Z " />
<glyph glyph-name="rcaron" unicode="&#x159;" horiz-adv-x="360" d="M204 358 C207 378 208 390 208 411 C208 467 189 496 151 496 C116 496 79 485 53 472 L46 441 C101 441 120 428 120 393 C120 382 118 369 115 354 L40 0 L131 0 L177 218 C203 342 260 403 329 403 C344 403 352 401 359 398 L380 500 C372 503 361 505 352 505 C296 505 240 436 204 358 L204 358 Z M120 730 L96 702 L225 547 L417 700 L396 730 L240 645 L120 730 Z " />
<glyph glyph-name="Sacute" unicode="&#x15a;" horiz-adv-x="503" d="M215 33 C116 33 91 77 91 171 L27 171 L4 46 C43 12 111 -14 206 -14 C371 -14 453 77 453 204 C453 298 397 345 332 379 L273 410 C219 439 186 466 186 531 C186 602 232 653 314 653 C399 653 425 603 425 535 L486 535 L505 643 C478 669 420 700 324 700 C197 700 102 621 102 501 C102 416 145 370 212 335 L271 304 C330 274 364 235 364 170 C364 87 309 33 215 33 L215 33 Z M251 727 L465 797 L422 889 L231 761 L251 727 Z " />
<glyph glyph-name="sacute" unicode="&#x15b;" horiz-adv-x="423" d="M167 -14 C285 -14 370 53 370 148 C370 218 330 254 255 286 L204 308 C157 328 146 350 146 381 C146 430 179 459 232 459 C295 459 315 429 317 377 L378 377 L393 467 C371 482 329 505 252 505 C152 505 64 454 64 358 C64 289 103 254 161 229 L212 207 C258 187 286 170 286 122 C286 57 234 32 175 32 C108 32 82 55 85 129 L22 129 L5 31 C26 16 69 -14 167 -14 L167 -14 Z M183 566 L395 662 L342 753 L163 600 L183 566 Z " />
<glyph glyph-name="Scircumflex" unicode="&#x15c;" horiz-adv-x="503" d="M215 33 C116 33 91 77 91 171 L27 171 L4 46 C43 12 111 -14 206 -14 C371 -14 453 77 453 204 C453 298 397 345 332 379 L273 410 C219 439 186 466 186 531 C186 602 232 653 314 653 C399 653 425 603 425 535 L486 535 L505 643 C478 669 420 700 324 700 C197 700 102 621 102 501 C102 416 145 370 212 335 L271 304 C330 274 364 235 364 170 C364 87 309 33 215 33 L215 33 Z M467 724 L491 752 L362 907 L170 754 L191 724 L347 809 L467 724 Z " />
<glyph glyph-name="scircumflex" unicode="&#x15d;" horiz-adv-x="423" d="M167 -14 C285 -14 370 53 370 148 C370 218 330 254 255 286 L204 308 C157 328 146 350 146 381 C146 430 179 459 232 459 C295 459 315 429 317 377 L378 377 L393 467 C371 482 329 505 252 505 C152 505 64 454 64 358 C64 289 103 254 161 229 L212 207 C258 187 286 170 286 122 C286 57 234 32 175 32 C108 32 82 55 85 129 L22 129 L5 31 C26 16 69 -14 167 -14 L167 -14 Z M395 564 L419 592 L290 747 L98 594 L119 564 L275 649 L395 564 Z " />
<glyph glyph-name="Scedilla" unicode="&#x15e;" horiz-adv-x="503" d="M273 -113 C273 -77 250 -44 190 -39 L200 -14 L206 -14 C371 -14 453 77 453 204 C453 298 397 345 332 379 L273 410 C219 439 186 466 186 531 C186 602 232 653 314 653 C399 653 425 603 425 535 L486 535 L505 643 C478 669 420 700 324 700 C197 700 102 621 102 501 C102 416 145 370 212 335 L271 304 C330 274 364 235 364 170 C364 87 309 33 215 33 C116 33 91 77 91 171 L27 171 L4 46 C36 17 89 -5 161 -12 L138 -69 L137 -90 C174 -91 211 -97 211 -123 C211 -153 193 -159 171 -159 C149 -159 131 -155 109 -141 L93 -173 C112 -186 136 -198 174 -198 C241 -198 273 -168 273 -113 L273 -113 Z " />
<glyph glyph-name="scedilla" unicode="&#x15f;" horiz-adv-x="423" d="M241 -113 C241 -77 218 -44 158 -39 L168 -14 C285 -13 370 53 370 148 C370 218 330 254 255 286 L204 308 C157 328 146 350 146 381 C146 430 179 459 232 459 C295 459 315 429 317 377 L378 377 L393 467 C371 482 329 505 252 505 C152 505 64 454 64 358 C64 289 103 254 161 229 L212 207 C258 187 286 170 286 122 C286 57 234 32 175 32 C108 32 85 56 85 117 L85 129 L22 129 L5 31 C23 18 57 -5 129 -12 L106 -69 L105 -90 C142 -91 179 -97 179 -123 C179 -153 161 -159 139 -159 C117 -159 99 -155 77 -141 L61 -173 C80 -186 104 -198 142 -198 C209 -198 241 -168 241 -113 L241 -113 Z " />
<glyph glyph-name="Scaron" unicode="&#x160;" horiz-adv-x="503" d="M215 33 C116 33 91 77 91 171 L27 171 L4 46 C43 12 111 -14 206 -14 C371 -14 453 77 453 204 C453 298 397 345 332 379 L273 410 C219 439 186 466 186 531 C186 602 232 653 314 653 C399 653 425 603 425 535 L486 535 L505 643 C478 669 420 700 324 700 C197 700 102 621 102 501 C102 416 145 370 212 335 L271 304 C330 274 364 235 364 170 C364 87 309 33 215 33 L215 33 Z M224 907 L200 879 L329 724 L521 877 L500 907 L344 822 L224 907 Z " />
<glyph glyph-name="scaron" unicode="&#x161;" horiz-adv-x="423" d="M167 -14 C285 -14 370 53 370 148 C370 218 330 254 255 286 L204 308 C157 328 146 350 146 381 C146 430 179 459 232 459 C295 459 315 429 317 377 L378 377 L393 467 C371 482 329 505 252 505 C152 505 64 454 64 358 C64 289 103 254 161 229 L212 207 C258 187 286 170 286 122 C286 57 234 32 175 32 C108 32 82 55 85 129 L22 129 L5 31 C26 16 69 -14 167 -14 L167 -14 Z M147 730 L123 702 L252 547 L444 700 L423 730 L267 645 L147 730 Z " />
<glyph glyph-name="Tcommaaccent" unicode="&#x162;" horiz-adv-x="569" d="M329 -113 C329 -77 306 -44 246 -39 L262 0 L374 0 L381 35 C325 37 306 48 306 80 C306 89 307 95 310 111 L413 640 L490 640 C537 640 550 623 550 571 C550 562 549 547 548 532 L594 532 L626 689 L120 689 L88 532 L136 532 C160 614 177 640 244 640 L315 640 L212 111 C201 54 183 37 113 35 L106 0 L223 0 L194 -69 L193 -90 C230 -91 267 -97 267 -123 C267 -153 249 -159 227 -159 C205 -159 187 -155 165 -141 L149 -173 C168 -186 192 -198 230 -198 C297 -198 329 -168 329 -113 L329 -113 Z " />
<glyph glyph-name="tcommaaccent" unicode="&#x163;" horiz-adv-x="319" d="M216 -113 C216 -77 193 -44 133 -39 L143 -14 L152 -14 C191 -14 227 -1 265 18 L257 51 C235 43 214 38 197 38 C160 38 142 50 142 85 C142 99 144 114 148 134 L212 436 L318 436 L343 491 L224 491 C232 531 253 606 266 641 L214 633 C187 602 158 541 139 491 L68 468 L62 436 L121 436 L56 127 C52 109 50 90 50 77 C50 29 71 3 106 -8 L81 -69 L80 -90 C117 -91 154 -97 154 -123 C154 -153 136 -159 114 -159 C92 -159 74 -155 52 -141 L36 -173 C55 -186 79 -198 117 -198 C184 -198 216 -168 216 -113 L216 -113 Z " />
<glyph glyph-name="Tcaron" unicode="&#x164;" horiz-adv-x="569" d="M120 689 L88 532 L136 532 C160 614 177 640 244 640 L315 640 L212 111 C201 54 183 37 113 35 L106 0 L374 0 L381 35 C325 37 306 48 306 80 C306 89 307 95 310 111 L413 640 L490 640 C555 640 552 602 548 532 L594 532 L626 689 L120 689 Z M257 907 L233 879 L362 724 L554 877 L533 907 L377 822 L257 907 Z " />
<glyph glyph-name="tcaron" unicode="&#x165;" horiz-adv-x="319" d="M343 491 L224 491 C232 531 253 606 266 641 L214 633 C187 602 158 541 139 491 L68 468 L62 436 L121 436 L56 127 C52 109 50 90 50 77 C50 12 89 -14 152 -14 C191 -14 227 -1 265 18 L257 51 C235 43 214 38 197 38 C160 38 142 50 142 85 C142 99 144 114 148 134 L212 436 L318 436 L343 491 Z M419 715 L329 730 L293 538 L336 527 L419 715 Z " />
<glyph glyph-name="Tbar" unicode="&#x166;" horiz-adv-x="569" d="M120 689 L88 532 L136 532 C160 614 177 640 244 640 L315 640 L265 383 L152 383 L142 337 L256 337 L212 111 C201 54 183 37 113 35 L106 0 L374 0 L381 35 C325 37 306 48 306 80 C306 89 307 95 310 111 L354 337 L485 337 L495 383 L363 383 L413 640 L490 640 C555 640 552 602 548 532 L594 532 L626 689 L120 689 Z " />
<glyph glyph-name="tbar" unicode="&#x167;" horiz-adv-x="319" d="M343 491 L224 491 C232 531 253 606 266 641 L214 633 C187 602 158 541 139 491 L68 468 L62 436 L121 436 L101 345 L40 345 L30 304 L93 304 L56 127 C52 109 50 90 50 77 C50 12 89 -14 152 -14 C191 -14 227 -1 265 18 L257 51 C235 43 214 38 197 38 C160 38 142 50 142 85 C142 99 144 114 148 134 L184 304 L298 304 L308 345 L192 345 L212 436 L318 436 L343 491 Z " />
<glyph glyph-name="Utilde" unicode="&#x168;" horiz-adv-x="670" d="M317 46 C228 46 190 80 190 155 C190 180 193 206 199 236 L266 578 C277 635 291 652 361 654 L367 689 L109 689 L103 654 C152 652 171 642 171 607 C171 599 170 589 168 578 L103 239 C96 202 94 176 94 152 C94 50 161 -14 314 -14 C451 -14 538 56 570 221 L639 578 C650 635 664 652 726 654 L732 689 L506 689 L500 654 C557 652 574 641 574 610 C574 603 572 590 570 578 L501 221 C480 113 427 46 317 46 L317 46 Z M520 818 C471 818 448 864 382 864 C322 864 291 819 277 764 L311 751 C328 778 344 798 382 798 C425 798 451 754 520 754 C579 754 612 798 629 849 L593 863 C576 836 555 818 520 818 L520 818 Z " />
<glyph glyph-name="utilde" unicode="&#x169;" horiz-adv-x="537" d="M329 126 C325 108 323 90 323 75 C323 24 346 -9 394 -9 C426 -9 459 1 495 20 L492 51 C481 50 472 49 464 49 C430 49 415 61 415 89 C415 95 417 109 420 122 L497 491 L407 491 L349 218 C310 152 238 57 176 57 C153 57 143 69 143 93 C143 101 145 115 148 129 L196 356 C200 377 203 396 203 412 C203 469 177 496 140 496 C105 496 68 485 42 472 L35 441 C90 441 109 428 109 393 C109 382 107 369 104 354 L54 120 C51 105 49 91 49 78 C49 26 74 -14 136 -14 C219 -14 284 57 329 126 L329 126 Z M376 669 C335 669 306 700 252 700 C198 700 167 649 155 594 L188 580 C203 607 218 624 252 624 C288 624 322 595 376 595 C429 595 462 645 477 696 L442 711 C427 684 408 669 376 669 L376 669 Z " />
<glyph glyph-name="Umacron" unicode="&#x16a;" horiz-adv-x="670" d="M317 46 C228 46 190 80 190 155 C190 180 193 206 199 236 L266 578 C277 635 291 652 361 654 L367 689 L109 689 L103 654 C152 652 171 642 171 607 C171 599 170 589 168 578 L103 239 C96 202 94 176 94 152 C94 50 161 -14 314 -14 C451 -14 538 56 570 221 L639 578 C650 635 664 652 726 654 L732 689 L506 689 L500 654 C557 652 574 641 574 610 C574 603 572 590 570 578 L501 221 C480 113 427 46 317 46 L317 46 Z M587 769 L597 826 L316 826 L306 769 L587 769 Z " />
<glyph glyph-name="umacron" unicode="&#x16b;" horiz-adv-x="537" d="M329 126 C325 108 323 90 323 75 C323 24 346 -9 394 -9 C426 -9 459 1 495 20 L492 51 C481 50 472 49 464 49 C430 49 415 61 415 89 C415 95 417 109 420 122 L497 491 L407 491 L349 218 C310 152 238 57 176 57 C153 57 143 69 143 93 C143 101 145 115 148 129 L196 356 C200 377 203 396 203 412 C203 469 177 496 140 496 C105 496 68 485 42 472 L35 441 C90 441 109 428 109 393 C109 382 107 369 104 354 L54 120 C51 105 49 91 49 78 C49 26 74 -14 136 -14 C219 -14 284 57 329 126 L329 126 Z M450 590 L460 647 L179 647 L169 590 L450 590 Z " />
<glyph glyph-name="Ubreve" unicode="&#x16c;" horiz-adv-x="670" d="M317 46 C228 46 190 80 190 155 C190 180 193 206 199 236 L266 578 C277 635 291 652 361 654 L367 689 L109 689 L103 654 C152 652 171 642 171 607 C171 599 170 589 168 578 L103 239 C96 202 94 176 94 152 C94 50 161 -14 314 -14 C451 -14 538 56 570 221 L639 578 C650 635 664 652 726 654 L732 689 L506 689 L500 654 C557 652 574 641 574 610 C574 603 572 590 570 578 L501 221 C480 113 427 46 317 46 L317 46 Z M429 743 C500 743 571 809 607 878 L575 900 C532 852 492 821 441 821 C390 821 361 849 339 900 L306 878 C308 811 357 743 429 743 L429 743 Z " />
<glyph glyph-name="ubreve" unicode="&#x16d;" horiz-adv-x="537" d="M329 126 C325 108 323 90 323 75 C323 24 346 -9 394 -9 C426 -9 459 1 495 20 L492 51 C481 50 472 49 464 49 C430 49 415 61 415 89 C415 95 417 109 420 122 L497 491 L407 491 L349 218 C310 152 238 57 176 57 C153 57 143 69 143 93 C143 101 145 115 148 129 L196 356 C200 377 203 396 203 412 C203 469 177 496 140 496 C105 496 68 485 42 472 L35 441 C90 441 109 428 109 393 C109 382 107 369 104 354 L54 120 C51 105 49 91 49 78 C49 26 74 -14 136 -14 C219 -14 284 57 329 126 L329 126 Z M311 567 C385 567 444 628 482 702 L451 724 C409 673 372 645 318 645 C267 645 237 670 215 722 L180 708 C188 640 229 567 311 567 L311 567 Z " />
<glyph glyph-name="Uring" unicode="&#x16e;" horiz-adv-x="670" d="M317 46 C228 46 190 80 190 155 C190 180 193 206 199 236 L266 578 C277 635 291 652 361 654 L367 689 L109 689 L103 654 C152 652 171 642 171 607 C171 599 170 589 168 578 L103 239 C96 202 94 176 94 152 C94 50 161 -14 314 -14 C451 -14 538 56 570 221 L639 578 C650 635 664 652 726 654 L732 689 L506 689 L500 654 C557 652 574 641 574 610 C574 603 572 590 570 578 L501 221 C480 113 427 46 317 46 L317 46 Z M440 719 C505 719 548 764 548 827 C548 880 513 923 453 923 C389 923 344 877 344 814 C344 761 380 719 440 719 L440 719 Z M450 888 C486 888 507 861 507 823 C507 784 479 755 439 755 C404 755 385 779 385 816 C385 857 411 888 450 888 L450 888 Z " />
<glyph glyph-name="uring" unicode="&#x16f;" horiz-adv-x="537" d="M329 126 C325 108 323 90 323 75 C323 24 346 -9 394 -9 C426 -9 459 1 495 20 L492 51 C481 50 472 49 464 49 C430 49 415 61 415 89 C415 95 417 109 420 122 L497 491 L407 491 L349 218 C310 152 238 57 176 57 C153 57 143 69 143 93 C143 101 145 115 148 129 L196 356 C200 377 203 396 203 412 C203 469 177 496 140 496 C105 496 68 485 42 472 L35 441 C90 441 109 428 109 393 C109 382 107 369 104 354 L54 120 C51 105 49 91 49 78 C49 26 74 -14 136 -14 C219 -14 284 57 329 126 L329 126 Z M308 560 C373 560 416 605 416 668 C416 721 381 764 321 764 C257 764 212 718 212 655 C212 602 248 560 308 560 L308 560 Z M318 729 C354 729 375 702 375 664 C375 625 347 596 307 596 C272 596 253 620 253 657 C253 698 279 729 318 729 L318 729 Z " />
<glyph glyph-name="Uhungarumlaut" unicode="&#x170;" horiz-adv-x="670" d="M317 46 C228 46 190 80 190 155 C190 180 193 206 199 236 L266 578 C277 635 291 652 361 654 L367 689 L109 689 L103 654 C152 652 171 642 171 607 C171 599 170 589 168 578 L103 239 C96 202 94 176 94 152 C94 50 161 -14 314 -14 C451 -14 538 56 570 221 L639 578 C650 635 664 652 726 654 L732 689 L506 689 L500 654 C557 652 574 641 574 610 C574 603 572 590 570 578 L501 221 C480 113 427 46 317 46 L317 46 Z M481 901 L395 937 L343 745 L385 727 L481 901 Z M661 873 L584 922 L500 747 L537 721 L661 873 Z " />
<glyph glyph-name="uhungarumlaut" unicode="&#x171;" horiz-adv-x="537" d="M329 126 C325 108 323 90 323 75 C323 24 346 -9 394 -9 C426 -9 459 1 495 20 L492 51 C481 50 472 49 464 49 C430 49 415 61 415 89 C415 95 417 109 420 122 L497 491 L407 491 L349 218 C310 152 238 57 176 57 C153 57 143 69 143 93 C143 101 145 115 148 129 L196 356 C200 377 203 396 203 412 C203 469 177 496 140 496 C105 496 68 485 42 472 L35 441 C90 441 109 428 109 393 C109 382 107 369 104 354 L54 120 C51 105 49 91 49 78 C49 26 74 -14 136 -14 C219 -14 284 57 329 126 L329 126 Z M328 770 L243 806 L173 581 L215 563 L328 770 Z M512 740 L434 791 L330 583 L367 557 L512 740 Z " />
<glyph glyph-name="Uogonek" unicode="&#x172;" horiz-adv-x="670" d="M639 578 C650 635 664 652 726 654 L732 689 L506 689 L500 654 C557 652 574 641 574 610 C574 603 572 590 570 578 L501 221 C480 113 427 46 317 46 C228 46 190 80 190 155 C190 180 193 206 199 236 L266 578 C277 635 291 652 361 654 L367 689 L109 689 L103 654 C152 652 171 642 171 607 C171 599 170 589 168 578 L103 239 C96 202 94 176 94 152 C94 50 161 -14 314 -14 L319 -14 C247 -47 209 -82 209 -131 C209 -170 237 -205 300 -205 C343 -205 375 -187 398 -163 L382 -142 C363 -153 351 -159 329 -159 C305 -159 289 -141 289 -119 C289 -53 375 -15 424 6 C500 39 547 105 570 221 L639 578 Z " />
<glyph glyph-name="uogonek" unicode="&#x173;" horiz-adv-x="537" d="M492 51 C481 50 472 49 464 49 C430 49 415 61 415 89 C415 95 417 109 420 122 L497 491 L407 491 L349 218 C310 152 238 57 176 57 C153 57 143 69 143 93 C143 101 145 115 148 129 L196 356 C200 377 203 396 203 412 C203 469 177 496 140 496 C105 496 68 485 42 472 L35 441 C90 441 109 428 109 393 C109 382 107 369 104 354 L54 120 C51 105 49 91 49 78 C49 26 74 -14 136 -14 C219 -14 284 57 329 126 C325 108 323 89 323 74 C323 28 341 -1 378 -7 C304 -43 262 -81 262 -131 C262 -170 290 -205 353 -205 C396 -205 428 -187 451 -163 L435 -142 C416 -153 404 -159 382 -159 C358 -159 342 -141 342 -119 C342 -67 402 -18 495 20 L492 51 Z " />
<glyph glyph-name="Wcircumflex" unicode="&#x174;" horiz-adv-x="877" d="M575 689 L491 689 L324 298 C292 224 263 145 255 122 L249 122 C250 139 253 202 253 263 L253 298 L244 582 L244 588 C244 637 266 649 325 654 L331 689 L94 689 L88 654 C139 649 149 630 151 566 L169 0 L261 0 L449 438 C469 484 489 547 493 561 L499 561 C499 553 498 529 498 501 C498 480 499 458 500 438 L524 0 L613 0 L849 557 C876 620 898 647 948 654 L954 689 L738 689 L732 654 C777 651 796 641 796 615 C796 601 791 584 781 560 L674 297 C640 213 614 138 608 122 L602 122 C602 142 601 229 597 297 L575 689 Z M671 724 L695 752 L566 907 L374 754 L395 724 L551 809 L671 724 Z " />
<glyph glyph-name="wcircumflex" unicode="&#x175;" horiz-adv-x="701" d="M481 100 C481 109 477 178 468 250 L439 491 L378 491 L208 100 L202 100 L202 115 C202 138 202 170 196 231 L181 381 C173 464 163 496 117 496 C82 496 48 485 22 472 L15 441 C60 441 78 432 85 406 C90 388 92 365 93 356 L136 -5 L208 -5 L377 369 L380 369 C380 363 380 345 381 321 C382 296 384 264 388 230 L414 -5 L475 -5 L706 448 L706 483 L624 498 C620 439 606 376 525 190 L486 100 L481 100 Z M557 564 L581 592 L452 747 L260 594 L281 564 L437 649 L557 564 Z " />
<glyph glyph-name="Ycircumflex" unicode="&#x176;" horiz-adv-x="589" d="M222 111 C212 54 193 37 123 35 L116 0 L384 0 L391 35 C326 37 309 51 319 106 L353 282 L545 561 C596 635 619 649 660 654 L666 689 L460 689 L454 654 C488 652 507 647 507 628 C507 615 500 601 486 579 L331 341 L327 341 L263 577 C259 592 256 605 256 615 C256 641 275 653 317 654 L323 689 L94 689 L88 654 C126 649 147 636 166 572 L252 276 L222 111 Z M534 724 L558 752 L429 907 L237 754 L258 724 L414 809 L534 724 Z " />
<glyph glyph-name="ycircumflex" unicode="&#x177;" horiz-adv-x="468" d="M168 1 C117 -102 59 -122 -20 -139 L2 -213 C93 -195 149 -141 215 -21 L473 448 L473 483 L386 498 C383 448 356 347 311 262 L218 85 L212 85 C212 91 213 102 213 115 C213 143 211 187 202 247 L185 365 C171 463 163 496 115 496 C80 496 47 485 21 472 L14 441 C80 441 86 421 96 356 L114 237 C131 127 136 54 138 -2 L168 1 Z M422 564 L446 592 L317 747 L125 594 L146 564 L302 649 L422 564 Z " />
<glyph glyph-name="Ydieresis" unicode="&#x178;" horiz-adv-x="589" d="M222 111 C212 54 193 37 123 35 L116 0 L384 0 L391 35 C326 37 309 51 319 106 L353 282 L545 561 C596 635 619 649 660 654 L666 689 L460 689 L454 654 C488 652 507 647 507 628 C507 615 500 601 486 579 L331 341 L327 341 L263 577 C259 592 256 605 256 615 C256 641 275 653 317 654 L323 689 L94 689 L88 654 C126 649 147 636 166 572 L252 276 L222 111 Z M368 787 C368 821 342 847 308 847 C274 847 248 821 248 787 C248 753 274 727 308 727 C342 727 368 753 368 787 L368 787 Z M577 787 C577 821 551 847 517 847 C483 847 457 821 457 787 C457 753 483 727 517 727 C551 727 577 753 577 787 L577 787 Z " />
<glyph glyph-name="Zacute" unicode="&#x179;" horiz-adv-x="553" d="M585 633 L595 689 L157 689 L112 527 L156 527 C191 605 228 640 295 640 L477 640 L3 56 L-7 0 L456 0 L504 172 L460 172 C422 82 387 49 310 49 L110 49 L585 633 Z M287 727 L501 797 L458 889 L267 761 L287 727 Z " />
<glyph glyph-name="zacute" unicode="&#x17a;" horiz-adv-x="435" d="M453 450 L460 491 L414 491 C400 470 383 460 360 460 C310 460 228 499 165 499 C105 499 78 454 55 346 L91 341 C111 384 131 411 174 411 C206 411 275 406 336 405 L-24 39 L-30 0 L15 0 C24 15 43 31 75 31 C140 31 202 -11 278 -11 C337 -11 356 16 395 145 L364 153 C333 96 298 77 258 77 C230 77 193 81 151 83 C129 84 106 85 83 85 L453 450 Z M200 566 L412 662 L359 753 L180 600 L200 566 Z " />
<glyph glyph-name="Zdotaccent" unicode="&#x17b;" horiz-adv-x="553" d="M585 633 L595 689 L157 689 L112 527 L156 527 C191 605 228 640 295 640 L477 640 L3 56 L-7 0 L456 0 L504 172 L460 172 C422 82 387 49 310 49 L110 49 L585 633 Z M446 808 C446 843 419 871 384 871 C349 871 322 843 322 808 C322 773 349 745 384 745 C419 745 446 773 446 808 L446 808 Z " />
<glyph glyph-name="zdotaccent" unicode="&#x17c;" horiz-adv-x="435" d="M453 450 L460 491 L414 491 C400 470 383 460 360 460 C310 460 228 499 165 499 C105 499 78 454 55 346 L91 341 C111 384 131 411 174 411 C206 411 275 406 336 405 L-24 39 L-30 0 L15 0 C24 15 43 31 75 31 C140 31 202 -11 278 -11 C337 -11 356 16 395 145 L364 153 C333 96 298 77 258 77 C230 77 193 81 151 83 C129 84 106 85 83 85 L453 450 Z M355 644 C355 679 328 707 293 707 C258 707 231 679 231 644 C231 609 258 581 293 581 C328 581 355 609 355 644 L355 644 Z " />
<glyph glyph-name="Zcaron" unicode="&#x17d;" horiz-adv-x="553" d="M585 633 L595 689 L157 689 L112 527 L156 527 C191 605 228 640 295 640 L477 640 L3 56 L-7 0 L456 0 L504 172 L460 172 C422 82 387 49 310 49 L110 49 L585 633 Z M250 907 L226 879 L355 724 L547 877 L526 907 L370 822 L250 907 Z " />
<glyph glyph-name="zcaron" unicode="&#x17e;" horiz-adv-x="435" d="M453 450 L460 491 L414 491 C400 470 383 460 360 460 C310 460 228 499 165 499 C105 499 78 454 55 346 L91 341 C111 384 131 411 174 411 C206 411 275 406 336 405 L-24 39 L-30 0 L15 0 C24 15 43 31 75 31 C140 31 202 -11 278 -11 C337 -11 356 16 395 145 L364 153 C333 96 298 77 258 77 C230 77 193 81 151 83 C129 84 106 85 83 85 L453 450 Z M156 730 L132 702 L261 547 L453 700 L432 730 L276 645 L156 730 Z " />
<glyph glyph-name="longs" unicode="&#x17f;" horiz-adv-x="303" d="M243 599 C257 668 285 687 321 687 C350 687 355 661 355 629 L416 629 L433 712 C411 722 376 730 338 730 C243 730 169 676 148 570 L132 490 L66 468 L60 436 L123 436 L31 -35 C16 -114 -11 -136 -95 -141 L-95 -172 C-77 -181 -57 -188 -34 -188 C58 -188 101 -116 119 -27 L243 599 Z " />
<glyph glyph-name="uni018F" unicode="&#x18f;" horiz-adv-x="610" d="M475 445 C475 423 475 402 472 381 C456 382 425 383 409 383 C152 383 20 290 20 145 C20 47 96 -14 218 -14 C441 -14 581 221 581 434 C581 600 521 700 364 700 C242 700 159 631 98 562 L125 530 C190 591 251 625 328 625 C427 625 475 558 475 445 L475 445 Z M129 146 C129 259 201 334 425 334 C438 334 443 334 464 333 C429 154 336 30 224 30 C162 30 129 69 129 146 L129 146 Z " />
<glyph glyph-name="florin" unicode="&#x192;" horiz-adv-x="347" d="M55 383 L127 383 L7 -58 C-12 -126 -41 -152 -95 -165 L-95 -199 C-5 -199 73 -139 100 -44 L220 383 L333 383 L348 427 L232 427 L269 561 C290 639 316 657 346 657 C375 657 380 636 380 599 L443 599 L465 682 C443 692 397 700 356 700 C261 700 198 652 169 540 L140 430 L65 417 L55 383 Z " />
<glyph glyph-name="uni01B5" unicode="&#x1b5;" horiz-adv-x="553" d="M585 633 L595 689 L157 689 L112 527 L156 527 C191 605 228 640 295 640 L477 640 L268 383 L117 383 L107 337 L231 337 L3 56 L-7 0 L456 0 L504 172 L460 172 C422 82 387 49 310 49 L110 49 L344 337 L486 337 L496 383 L381 383 L585 633 Z " />
<glyph glyph-name="uni01B6" unicode="&#x1b6;" horiz-adv-x="435" d="M453 450 L460 491 L414 491 C400 470 383 460 360 460 C310 460 228 499 165 499 C105 499 78 454 55 346 L91 341 C111 384 131 411 174 411 C206 411 275 406 336 405 L201 268 L59 268 L59 226 L160 226 L-24 39 L-30 0 L15 0 C24 15 43 31 75 31 C140 31 202 -11 278 -11 C337 -11 356 16 395 145 L364 153 C333 96 298 77 258 77 C215 77 151 85 83 85 L226 226 L372 226 L372 268 L268 268 L453 450 Z " />
<glyph glyph-name="Aringacute" unicode="&#x1fa;" horiz-adv-x="643" d="M428 107 C429 96 429 92 429 90 C429 52 412 37 356 35 L349 0 L588 0 L595 35 C544 40 529 64 523 123 L466 689 L372 689 L79 121 C43 52 20 42 -30 35 L-37 0 L178 0 L185 35 C144 36 123 42 123 63 C123 73 128 88 138 107 L193 215 L419 215 L428 107 Z M335 490 C370 558 383 595 385 602 L391 602 C391 600 390 592 390 572 C390 552 391 520 395 475 L415 263 L218 263 L335 490 Z M424 710 C489 710 532 755 532 818 C532 871 497 914 437 914 C373 914 328 868 328 805 C328 752 364 710 424 710 L424 710 Z M434 879 C470 879 491 852 491 814 C491 775 463 746 423 746 C388 746 369 770 369 807 C369 848 395 879 434 879 L434 879 Z M343 911 L557 981 L514 1073 L323 945 L343 911 Z " />
<glyph glyph-name="aringacute" unicode="&#x1fb;" horiz-adv-x="547" d="M344 505 C186 505 35 323 35 123 C35 40 76 -12 150 -12 C228 -12 291 60 333 126 C328 105 326 87 326 70 C326 21 347 -9 398 -9 C430 -9 460 1 496 20 L493 51 C481 49 466 48 461 48 C432 48 416 58 416 87 C416 96 418 108 421 122 L474 355 C487 413 505 466 522 495 L472 495 C459 483 446 471 435 453 C426 490 387 505 344 505 L344 505 Z M338 458 C372 458 392 442 399 421 L350 214 C310 145 238 53 183 53 C153 53 131 75 131 129 C131 298 225 458 338 458 L338 458 Z M358 544 C423 544 466 589 466 652 C466 705 431 748 371 748 C307 748 262 702 262 639 C262 586 298 544 358 544 L358 544 Z M368 713 C404 713 425 686 425 648 C425 609 397 580 357 580 C322 580 303 604 303 641 C303 682 329 713 368 713 L368 713 Z M297 759 L511 829 L468 921 L277 793 L297 759 Z " />
<glyph glyph-name="AEacute" unicode="&#x1fc;" horiz-adv-x="916" d="M342 35 L336 0 L827 0 L859 165 L814 165 C787 72 764 49 687 49 L523 49 L579 336 L669 336 C731 336 747 319 740 265 L781 265 L818 455 L777 455 C762 398 739 384 677 384 L588 384 L638 640 L801 640 C859 640 870 615 877 539 L919 539 L938 689 L406 689 L400 654 C442 653 460 647 460 632 C460 624 454 612 443 597 L91 121 C45 59 20 42 -30 35 L-37 0 L178 0 L185 35 C146 36 126 44 126 62 C126 73 137 93 148 107 L250 245 L463 245 L437 111 C426 54 410 37 342 35 L342 35 Z M546 642 L552 642 C547 629 526 568 510 484 L472 293 L286 293 L546 642 Z M593 727 L807 797 L764 889 L573 761 L593 727 Z " />
<glyph glyph-name="aeacute" unicode="&#x1fd;" horiz-adv-x="756" d="M409 171 C409 187 409 209 411 224 L441 224 C651 224 741 285 741 380 C741 460 683 505 595 505 C534 505 475 480 427 429 C404 483 367 505 282 505 C221 505 165 491 114 466 L96 372 L159 372 C174 425 204 456 276 456 C324 456 344 432 344 381 C344 361 341 336 335 307 L328 274 L315 274 C171 274 20 249 20 114 C20 27 73 -14 159 -14 C247 -14 295 31 330 80 C355 19 406 -14 482 -14 C572 -14 642 27 686 77 L660 112 C613 68 567 43 511 43 C447 43 409 89 409 171 L409 171 Z M183 43 C141 43 114 62 114 115 C114 214 204 228 306 228 L318 228 C315 211 314 195 314 179 C314 158 316 139 319 122 C274 70 240 43 183 43 L183 43 Z M649 386 C649 315 600 270 448 270 C439 270 429 271 419 271 C443 376 507 456 589 456 C626 456 649 425 649 386 L649 386 Z M407 566 L619 662 L566 753 L387 600 L407 566 Z " />
<glyph glyph-name="Oslashacute" unicode="&#x1fe;" horiz-adv-x="673" d="M650 438 C650 518 629 580 592 624 L657 707 L617 736 L557 657 C517 685 468 700 410 700 C161 700 63 438 63 252 C63 179 80 119 112 75 L41 -17 L77 -44 L142 41 C183 5 239 -14 308 -14 C555 -14 650 250 650 438 L650 438 Z M546 467 C546 373 519 220 459 124 C420 62 375 33 307 33 C248 33 208 52 187 98 L537 552 C543 528 546 499 546 467 L546 467 Z M167 219 C167 320 191 468 252 562 C289 621 336 652 409 652 C459 652 493 635 515 603 L171 153 C168 172 167 194 167 219 L167 219 Z M349 727 L563 797 L520 889 L329 761 L349 727 Z " />
<glyph glyph-name="oslashacute" unicode="&#x1ff;" horiz-adv-x="518" d="M243 566 L455 662 L402 753 L223 600 L243 566 Z M483 310 C483 363 467 411 437 446 L490 519 L453 546 L402 476 C374 493 339 504 298 504 C159 504 35 364 35 178 C35 122 53 74 84 40 L33 -30 L67 -55 L117 13 C145 -4 180 -14 220 -14 C377 -14 483 138 483 310 L483 310 Z M131 163 C131 253 154 338 192 393 C219 432 254 456 294 456 C326 456 349 445 364 424 L136 111 C132 126 131 144 131 163 L131 163 Z M387 325 C387 228 362 133 315 79 C291 51 260 34 224 34 C193 34 170 45 155 65 L383 374 C386 359 387 343 387 325 L387 325 Z " />
<glyph glyph-name="Scommaaccent" unicode="&#x218;" horiz-adv-x="503" d="M215 33 C116 33 91 77 91 171 L27 171 L4 46 C43 12 111 -14 206 -14 C371 -14 453 77 453 204 C453 298 397 345 332 379 L273 410 C219 439 186 466 186 531 C186 602 232 653 314 653 C399 653 425 603 425 535 L486 535 L505 643 C478 669 420 700 324 700 C197 700 102 621 102 501 C102 416 145 370 212 335 L271 304 C330 274 364 235 364 170 C364 87 309 33 215 33 L215 33 Z M241 -141 C241 -95 216 -62 169 -62 C130 -62 104 -87 104 -117 C104 -145 118 -158 135 -165 C154 -172 162 -178 162 -191 C162 -214 149 -232 95 -249 L114 -276 C198 -259 241 -203 241 -141 L241 -141 Z " />
<glyph glyph-name="scommaaccent" unicode="&#x219;" horiz-adv-x="423" d="M167 -14 C285 -14 370 53 370 148 C370 218 330 254 255 286 L204 308 C157 328 146 350 146 381 C146 430 179 459 232 459 C295 459 315 429 317 377 L378 377 L393 467 C371 482 329 505 252 505 C152 505 64 454 64 358 C64 289 103 254 161 229 L212 207 C258 187 286 170 286 122 C286 57 234 32 175 32 C108 32 82 55 85 129 L22 129 L5 31 C26 16 69 -14 167 -14 L167 -14 Z M209 -141 C209 -95 184 -62 137 -62 C98 -62 72 -87 72 -117 C72 -145 86 -158 103 -165 C122 -172 130 -178 130 -191 C130 -214 117 -232 63 -249 L82 -276 C166 -259 209 -203 209 -141 L209 -141 Z " />
<glyph glyph-name="uni021A" unicode="&#x21a;" horiz-adv-x="569" d="M120 689 L88 532 L136 532 C160 614 177 640 244 640 L315 640 L212 111 C201 54 183 37 113 35 L106 0 L374 0 L381 35 C325 37 306 48 306 80 C306 89 307 95 310 111 L413 640 L490 640 C555 640 552 602 548 532 L594 532 L626 689 L120 689 Z M285 -141 C285 -95 260 -62 213 -62 C174 -62 148 -87 148 -117 C148 -145 162 -158 179 -165 C198 -172 206 -178 206 -191 C206 -214 193 -232 139 -249 L158 -276 C242 -259 285 -203 285 -141 L285 -141 Z " />
<glyph glyph-name="uni021B" unicode="&#x21b;" horiz-adv-x="319" d="M343 491 L224 491 C232 531 253 606 266 641 L214 633 C187 602 158 541 139 491 L68 468 L62 436 L121 436 L56 127 C52 109 50 90 50 77 C50 12 89 -14 152 -14 C191 -14 227 -1 265 18 L257 51 C235 43 214 38 197 38 C160 38 142 50 142 85 C142 99 144 114 148 134 L212 436 L318 436 L343 491 Z M188 -141 C188 -95 163 -62 116 -62 C77 -62 51 -87 51 -117 C51 -145 65 -158 82 -165 C101 -172 109 -178 109 -191 C109 -214 96 -232 42 -249 L61 -276 C145 -259 188 -203 188 -141 L188 -141 Z " />
<glyph glyph-name="uni0237" unicode="&#x237;" horiz-adv-x="265" d="M218 367 C222 389 225 409 225 423 C225 475 201 496 158 496 C127 496 84 485 58 472 L51 441 C106 441 129 427 129 392 C129 382 125 363 123 354 L55 12 C34 -93 9 -129 -76 -165 L-60 -206 C52 -171 119 -125 143 -4 L218 367 Z " />
<glyph glyph-name="uni0259" unicode="&#x259;" horiz-adv-x="472" d="M347 319 C347 303 347 287 345 272 L323 272 C120 272 15 206 15 110 C15 30 73 -14 161 -14 C323 -14 442 157 442 311 C442 434 384 504 274 504 C184 504 114 463 70 413 L96 378 C143 422 189 447 245 447 C309 447 347 401 347 319 L347 319 Z M107 104 C107 175 154 226 313 226 L337 226 C313 121 249 34 167 34 C130 34 107 65 107 104 L107 104 Z " />
<glyph glyph-name="uni02BB" unicode="&#x2bb;" horiz-adv-x="264" d="M101 527 C101 475 134 438 180 438 C221 438 248 464 248 505 C248 532 237 550 215 560 C199 568 185 571 185 591 C185 622 228 654 285 676 L268 705 C184 681 101 614 101 527 L101 527 Z " />
<glyph glyph-name="afii57929" unicode="&#x2bc;" horiz-adv-x="264" d="M281 616 C281 668 248 705 202 705 C161 705 134 679 134 638 C134 611 145 593 167 583 C183 575 197 572 197 552 C197 521 154 489 97 467 L114 438 C198 462 281 529 281 616 L281 616 Z " />
<glyph glyph-name="circumflex" unicode="&#x2c6;" horiz-adv-x="545" d="M400 564 L424 592 L295 747 L103 594 L124 564 L280 649 L400 564 Z " />
<glyph glyph-name="caron" unicode="&#x2c7;" horiz-adv-x="464" d="M138 730 L114 702 L243 547 L435 700 L414 730 L258 645 L138 730 Z " />
<glyph glyph-name="breve" unicode="&#x2d8;" horiz-adv-x="402" d="M194 567 C268 567 327 628 365 702 L334 724 C292 673 255 645 201 645 C150 645 120 670 98 722 L63 708 C71 640 112 567 194 567 L194 567 Z " />
<glyph glyph-name="dotaccent" unicode="&#x2d9;" horiz-adv-x="241" d="M181 644 C181 679 154 707 119 707 C84 707 57 679 57 644 C57 609 84 581 119 581 C154 581 181 609 181 644 L181 644 Z " />
<glyph glyph-name="ring" unicode="&#x2da;" horiz-adv-x="313" d="M147 560 C212 560 255 605 255 668 C255 721 220 764 160 764 C96 764 51 718 51 655 C51 602 87 560 147 560 L147 560 Z M157 729 C193 729 214 702 214 664 C214 625 186 596 146 596 C111 596 92 620 92 657 C92 698 118 729 157 729 L157 729 Z " />
<glyph glyph-name="ogonek" unicode="&#x2db;" horiz-adv-x="288" d="M202 -142 C183 -153 171 -159 149 -159 C125 -159 109 -141 109 -119 C109 -73 144 -41 227 7 L211 24 C92 -24 29 -68 29 -131 C29 -170 57 -205 120 -205 C163 -205 195 -187 218 -163 L202 -142 Z " />
<glyph glyph-name="tilde" unicode="&#x2dc;" horiz-adv-x="545" d="M331 669 C290 669 261 700 207 700 C153 700 122 649 110 594 L143 580 C158 607 173 624 207 624 C243 624 277 595 331 595 C384 595 417 645 432 696 L397 711 C382 684 363 669 331 669 L331 669 Z " />
<glyph glyph-name="hungarumlaut" unicode="&#x2dd;" horiz-adv-x="482" d="M223 770 L138 806 L68 581 L110 563 L223 770 Z M407 740 L329 791 L225 583 L262 557 L407 740 Z " />
<glyph glyph-name="gravecomb" unicode="&#x300;" horiz-adv-x="1" d="M-96 600 L-275 753 L-328 662 L-116 566 L-96 600 Z " />
<glyph glyph-name="acutecomb" unicode="&#x301;" horiz-adv-x="1" d="M-274 566 L-62 662 L-115 753 L-294 600 L-274 566 Z " />
<glyph glyph-name="uni0302" unicode="&#x302;" horiz-adv-x="1" d="M-61 564 L-37 592 L-166 747 L-358 594 L-337 564 L-181 649 L-61 564 Z " />
<glyph glyph-name="tildecomb" unicode="&#x303;" horiz-adv-x="1" d="M-120 669 C-161 669 -190 700 -244 700 C-298 700 -329 649 -341 594 L-308 580 C-293 607 -278 624 -244 624 C-208 624 -174 595 -120 595 C-67 595 -34 645 -19 696 L-54 711 C-69 684 -88 669 -120 669 L-120 669 Z " />
<glyph glyph-name="uni0304" unicode="&#x304;" horiz-adv-x="1" d="M-39 616 L-29 673 L-310 673 L-320 616 L-39 616 Z " />
<glyph glyph-name="uni0306" unicode="&#x306;" horiz-adv-x="1" d="M-207 547 C-133 547 -74 608 -36 682 L-67 704 C-109 653 -146 625 -200 625 C-251 625 -281 650 -303 702 L-338 688 C-330 620 -289 547 -207 547 L-207 547 Z " />
<glyph glyph-name="uni0307" unicode="&#x307;" horiz-adv-x="1" d="M-9 644 C-9 679 -36 707 -71 707 C-106 707 -133 679 -133 644 C-133 609 -106 581 -71 581 C-36 581 -9 609 -9 644 L-9 644 Z " />
<glyph glyph-name="uni0308" unicode="&#x308;" horiz-adv-x="1" d="M-266 638 C-266 672 -292 698 -326 698 C-360 698 -386 672 -386 638 C-386 604 -360 578 -326 578 C-292 578 -266 604 -266 638 L-266 638 Z M-57 638 C-57 672 -83 698 -117 698 C-151 698 -177 672 -177 638 C-177 604 -151 578 -117 578 C-83 578 -57 604 -57 638 L-57 638 Z " />
<glyph glyph-name="uni030A" unicode="&#x30a;" horiz-adv-x="1" d="M-165 560 C-100 560 -57 605 -57 668 C-57 721 -92 764 -152 764 C-216 764 -261 718 -261 655 C-261 602 -225 560 -165 560 L-165 560 Z M-155 729 C-119 729 -98 702 -98 664 C-98 625 -126 596 -166 596 C-201 596 -220 620 -220 657 C-220 698 -194 729 -155 729 L-155 729 Z " />
<glyph glyph-name="uni030B" unicode="&#x30b;" horiz-adv-x="1" d="M-258 779 L-343 815 L-413 590 L-371 572 L-258 779 Z M-74 749 L-152 800 L-256 592 L-219 566 L-74 749 Z " />
<glyph glyph-name="uni030C" unicode="&#x30c;" horiz-adv-x="1" d="M-278 730 L-302 702 L-173 547 L19 700 L-2 730 L-158 645 L-278 730 Z " />
<glyph glyph-name="uni0312" unicode="&#x312;" horiz-adv-x="1" d="M-240 664 C-240 616 -215 581 -168 581 C-129 581 -103 607 -103 639 C-103 668 -116 684 -143 691 C-156 695 -163 697 -163 711 C-163 735 -139 756 -85 774 L-100 803 C-184 785 -240 729 -240 664 L-240 664 Z " />
<glyph glyph-name="uni0313" unicode="&#x313;" horiz-adv-x="1" d="M-94 715 L-184 730 L-220 538 L-177 527 L-94 715 Z " />
<glyph glyph-name="dotbelowcomb" unicode="&#x323;" horiz-adv-x="1" d="M190 -116 C190 -81 163 -53 128 -53 C93 -53 66 -81 66 -116 C66 -151 93 -179 128 -179 C163 -179 190 -151 190 -116 L190 -116 Z " />
<glyph glyph-name="uni0326" unicode="&#x326;" horiz-adv-x="1" d="M218 -141 C218 -95 193 -62 146 -62 C107 -62 81 -87 81 -117 C81 -145 95 -158 112 -165 C131 -172 139 -178 139 -191 C139 -214 126 -232 72 -249 L91 -276 C175 -259 218 -203 218 -141 L218 -141 Z " />
<glyph glyph-name="uni0327" unicode="&#x327;" horiz-adv-x="1" d="M-54 -113 C-54 -77 -77 -44 -137 -39 L-119 4 L-156 10 L-189 -69 L-190 -90 C-153 -91 -116 -97 -116 -123 C-116 -153 -134 -159 -156 -159 C-178 -159 -196 -155 -218 -141 L-234 -173 C-215 -186 -191 -198 -153 -198 C-86 -198 -54 -168 -54 -113 L-54 -113 Z " />
<glyph glyph-name="uni0328" unicode="&#x328;" horiz-adv-x="1" d="M-85 -135 C-104 -146 -116 -152 -138 -152 C-162 -152 -178 -134 -178 -112 C-178 -66 -143 -34 -60 14 L-76 31 C-195 -17 -258 -61 -258 -124 C-258 -163 -230 -198 -167 -198 C-124 -198 -92 -180 -69 -156 L-85 -135 Z " />
<glyph glyph-name="uni0335" unicode="&#x335;" horiz-adv-x="1" d="M-39 215 L-29 272 L-310 272 L-320 215 L-39 215 Z " />
<glyph glyph-name="uni0336" unicode="&#x336;" horiz-adv-x="1" d="M-59 218 L-50 269 L-755 269 L-764 218 L-59 218 Z " />
<glyph glyph-name="uni037E" unicode="&#x37e;" horiz-adv-x="328" d="M263 373 C263 414 233 446 192 446 C151 446 121 414 121 373 C121 332 151 300 192 300 C233 300 263 332 263 373 L263 373 Z M209 42 C209 94 176 131 130 131 C89 131 62 105 62 64 C62 37 73 19 95 9 C111 1 125 -2 125 -22 C125 -53 82 -85 25 -107 L42 -136 C126 -112 209 -45 209 42 L209 42 Z " />
<glyph glyph-name="tonos" unicode="&#x384;" horiz-adv-x="392" d="M192 545 L269 719 L179 740 L140 549 L192 545 Z " />
<glyph glyph-name="dieresistonos" unicode="&#x385;" horiz-adv-x="489" d="M175 598 C175 632 149 658 115 658 C81 658 55 632 55 598 C55 564 81 538 115 538 C149 538 175 564 175 598 L175 598 Z M434 598 C434 632 408 658 374 658 C340 658 314 632 314 598 C314 564 340 538 374 538 C408 538 434 564 434 598 L434 598 Z M248 545 L325 719 L235 740 L196 549 L248 545 Z " />
<glyph glyph-name="Alphatonos" unicode="&#x386;" horiz-adv-x="643" d="M428 107 C429 96 429 92 429 90 C429 52 412 37 356 35 L349 0 L588 0 L595 35 C544 40 529 64 523 123 L466 689 L372 689 L79 121 C43 52 20 42 -30 35 L-37 0 L178 0 L185 35 C144 36 123 42 123 63 C123 73 128 88 138 107 L193 215 L419 215 L428 107 Z M335 490 C370 558 383 595 385 602 L391 602 C391 600 390 592 390 572 C390 552 391 520 395 475 L415 263 L218 263 L335 490 Z M219 510 L296 684 L206 705 L167 514 L219 510 Z " />
<glyph glyph-name="anoteleia" unicode="&#x387;" horiz-adv-x="291" d="M216 278 C216 319 186 351 145 351 C104 351 74 319 74 278 C74 237 104 205 145 205 C186 205 216 237 216 278 L216 278 Z " />
<glyph glyph-name="Epsilontonos" unicode="&#x388;" horiz-adv-x="568" d="M-12 0 L479 0 L511 165 L466 165 C439 72 416 49 339 49 L175 49 L231 336 L321 336 C383 336 399 319 392 265 L433 265 L470 455 L429 455 C414 398 391 384 329 384 L240 384 L290 640 L453 640 C511 640 522 615 529 539 L571 539 L590 689 L121 689 L115 654 C166 652 184 642 184 610 C184 601 182 589 180 578 L89 111 C78 54 62 37 -6 35 L-12 0 Z M11 510 L88 684 L-2 705 L-41 514 L11 510 Z " />
<glyph glyph-name="Etatonos" unicode="&#x389;" horiz-adv-x="699" d="M650 578 C661 635 677 652 745 654 L751 689 L493 689 L487 654 C537 653 556 640 556 609 C556 600 555 591 552 578 L515 390 L241 390 L278 578 C289 635 305 652 373 654 L379 689 L121 689 L115 654 C167 653 184 640 184 610 C184 601 183 591 180 578 L89 111 C78 54 62 37 -6 35 L-12 0 L246 0 L252 35 C199 36 183 49 183 79 C183 88 185 98 187 111 L231 340 L505 340 L461 111 C450 54 434 37 366 35 L360 0 L618 0 L624 35 C572 37 555 47 555 78 C555 87 557 98 559 111 L650 578 Z M18 510 L95 684 L5 705 L-34 514 L18 510 Z " />
<glyph glyph-name="Iotatonos" unicode="&#x38a;" horiz-adv-x="327" d="M278 578 C289 635 305 652 373 654 L379 689 L121 689 L115 654 C166 652 184 642 184 610 C184 601 182 589 180 578 L89 111 C78 54 62 37 -6 35 L-12 0 L246 0 L252 35 C201 37 183 47 183 79 C183 88 185 100 187 111 L278 578 Z M11 510 L88 684 L-2 705 L-41 514 L11 510 Z " />
<glyph glyph-name="Omicrontonos" unicode="&#x38c;" horiz-adv-x="673" d="M650 438 C650 611 554 700 410 700 C161 700 63 438 63 252 C63 84 153 -14 308 -14 C555 -14 650 250 650 438 L650 438 Z M546 467 C546 373 519 220 459 124 C420 62 375 33 307 33 C211 33 167 85 167 219 C167 320 191 468 252 562 C289 621 336 652 409 652 C507 652 546 587 546 467 L546 467 Z M75 510 L152 684 L62 705 L23 514 L75 510 Z " />
<glyph glyph-name="Upsilontonos" unicode="&#x38e;" horiz-adv-x="589" d="M222 111 C212 54 193 37 123 35 L116 0 L384 0 L391 35 C326 37 309 51 319 106 L353 282 L545 561 C596 635 619 649 660 654 L666 689 L460 689 L454 654 C488 652 507 647 507 628 C507 615 500 601 486 579 L331 341 L327 341 L263 577 C259 592 256 605 256 615 C256 641 275 653 317 654 L323 689 L94 689 L88 654 C126 649 147 636 166 572 L252 276 L222 111 Z M-9 510 L68 684 L-22 705 L-61 514 L-9 510 Z " />
<glyph glyph-name="Omegatonos" unicode="&#x38f;" horiz-adv-x="716" d="M433 655 C536 655 583 574 583 457 C583 281 508 161 365 64 L353 0 L613 0 L656 151 L614 151 C585 83 572 75 495 75 L451 75 C569 151 686 243 686 432 C686 582 590 700 437 700 C247 700 92 546 92 341 C92 232 149 130 214 75 L159 75 C82 75 73 83 70 151 L32 151 L15 0 L275 0 L288 64 C218 118 195 207 195 306 C195 453 250 655 433 655 L433 655 Z M84 510 L161 684 L71 705 L32 514 L84 510 Z " />
<glyph glyph-name="iotadieresistonos" unicode="&#x390;" horiz-adv-x="267" d="M52 122 C47 101 45 82 45 65 C45 19 70 -9 118 -9 C158 -9 198 7 222 21 L219 52 C203 49 191 48 179 48 C150 48 140 62 140 85 C140 95 143 111 148 134 L227 500 L207 500 L127 485 C121 447 114 415 97 333 L52 122 Z M129 598 C129 632 103 658 69 658 C35 658 9 632 9 598 C9 564 35 538 69 538 C103 538 129 564 129 598 L129 598 Z M388 598 C388 632 362 658 328 658 C294 658 268 632 268 598 C268 564 294 538 328 538 C362 538 388 564 388 598 L388 598 Z M202 545 L279 719 L189 740 L150 549 L202 545 Z " />
<glyph glyph-name="Alpha" unicode="&#x391;" horiz-adv-x="643" d="M428 107 C429 96 429 92 429 90 C429 52 412 37 356 35 L349 0 L588 0 L595 35 C544 40 529 64 523 123 L466 689 L372 689 L79 121 C43 52 20 42 -30 35 L-37 0 L178 0 L185 35 C144 36 123 42 123 63 C123 73 128 88 138 107 L193 215 L419 215 L428 107 Z M335 490 C370 558 383 595 385 602 L391 602 C391 600 390 592 390 572 C390 552 391 520 395 475 L415 263 L218 263 L335 490 Z " />
<glyph glyph-name="Beta" unicode="&#x392;" horiz-adv-x="606" d="M121 689 L115 654 C166 652 184 642 184 610 C184 601 182 591 180 578 L89 111 C78 54 62 37 -6 35 L-12 0 L251 0 C372 0 433 7 486 52 C539 97 559 154 559 221 C559 292 504 348 425 359 L425 363 C527 375 586 438 586 538 C586 626 539 689 389 689 L121 689 Z M240 383 L290 640 L364 640 C453 640 488 616 488 542 C488 483 471 444 440 417 C410 391 378 383 328 383 L240 383 Z M320 335 C424 335 453 292 453 220 C453 150 433 106 402 79 C374 56 331 49 277 49 L175 49 L231 335 L320 335 Z " />
<glyph glyph-name="Gamma" unicode="&#x393;" horiz-adv-x="507" d="M415 640 C488 640 506 613 509 528 L555 528 L571 689 L120 689 L114 654 C165 652 183 642 183 610 C183 601 181 589 179 578 L88 111 C77 54 61 37 -6 35 L-12 0 L252 0 L258 35 C202 37 182 48 182 82 C182 91 184 103 186 113 L288 640 L415 640 Z " />
<glyph glyph-name="uni0394" unicode="&#x394;" horiz-adv-x="570" d="M513 0 L520 35 L432 690 L337 690 L-28 35 L-35 0 L513 0 Z M58 56 L295 490 C323 541 348 594 351 603 L355 603 C354 594 354 586 354 580 C354 560 355 531 360 492 L410 56 L58 56 Z " />
<glyph glyph-name="Epsilon" unicode="&#x395;" horiz-adv-x="568" d="M-12 0 L479 0 L511 165 L466 165 C439 72 416 49 339 49 L175 49 L231 336 L321 336 C383 336 399 319 392 265 L433 265 L470 455 L429 455 C414 398 391 384 329 384 L240 384 L290 640 L453 640 C511 640 522 615 529 539 L571 539 L590 689 L121 689 L115 654 C166 652 184 642 184 610 C184 601 182 589 180 578 L89 111 C78 54 62 37 -6 35 L-12 0 Z " />
<glyph glyph-name="Zeta" unicode="&#x396;" horiz-adv-x="553" d="M585 633 L595 689 L157 689 L112 527 L156 527 C191 605 228 640 295 640 L477 640 L3 56 L-7 0 L456 0 L504 172 L460 172 C422 82 387 49 310 49 L110 49 L585 633 Z " />
<glyph glyph-name="Eta" unicode="&#x397;" horiz-adv-x="699" d="M650 578 C661 635 677 652 745 654 L751 689 L493 689 L487 654 C537 653 556 640 556 609 C556 600 555 591 552 578 L515 390 L241 390 L278 578 C289 635 305 652 373 654 L379 689 L121 689 L115 654 C167 653 184 640 184 610 C184 601 183 591 180 578 L89 111 C78 54 62 37 -6 35 L-12 0 L246 0 L252 35 C199 36 183 49 183 79 C183 88 185 98 187 111 L231 340 L505 340 L461 111 C450 54 434 37 366 35 L360 0 L618 0 L624 35 C572 37 555 47 555 78 C555 87 557 98 559 111 L650 578 Z " />
<glyph glyph-name="Theta" unicode="&#x398;" horiz-adv-x="693" d="M670 438 C670 611 564 700 420 700 C171 700 63 438 63 252 C63 84 163 -14 318 -14 C565 -14 670 250 670 438 L670 438 Z M567 467 C567 373 540 220 480 124 C441 62 385 33 317 33 C221 33 166 85 166 219 C166 320 190 468 251 562 C288 621 346 652 419 652 C517 652 567 587 567 467 L567 467 Z M386 331 C448 331 454 319 451 280 L492 280 L521 430 L480 430 C468 388 456 379 394 379 L350 379 C287 379 280 389 284 430 L243 430 L214 280 L255 280 C266 319 278 331 340 331 L386 331 Z " />
<glyph glyph-name="Iota" unicode="&#x399;" horiz-adv-x="327" d="M278 578 C289 635 305 652 373 654 L379 689 L121 689 L115 654 C166 652 184 642 184 610 C184 601 182 589 180 578 L89 111 C78 54 62 37 -6 35 L-12 0 L246 0 L252 35 C201 37 183 47 183 79 C183 88 185 100 187 111 L278 578 Z " />
<glyph glyph-name="Kappa" unicode="&#x39a;" horiz-adv-x="622" d="M510 547 C588 623 613 647 663 654 L669 689 L457 689 L451 654 C482 653 499 645 499 629 C499 616 491 602 465 576 L253 364 L424 0 L578 0 L584 35 C533 39 511 48 493 84 L344 385 L510 547 Z M278 578 C289 635 305 652 373 654 L379 689 L121 689 L115 654 C166 652 184 642 184 610 C184 601 182 589 180 578 L89 111 C78 54 62 37 -6 35 L-12 0 L246 0 L252 35 C201 37 183 47 183 79 C183 88 185 100 187 111 L278 578 Z " />
<glyph glyph-name="Lambda" unicode="&#x39b;" horiz-adv-x="635" d="M420 107 C421 96 421 94 421 89 C421 53 404 37 348 35 L341 0 L580 0 L587 35 C536 40 521 64 515 123 L460 689 L366 689 L79 121 C44 52 20 42 -30 35 L-37 0 L178 0 L185 35 C144 36 123 42 123 63 C123 73 128 88 138 107 L329 487 C364 555 377 592 379 599 L385 599 C385 593 384 578 384 569 C384 549 385 517 389 472 L420 107 Z " />
<glyph glyph-name="Mu" unicode="&#x39c;" horiz-adv-x="831" d="M868 689 L670 689 L443 244 C413 185 397 129 394 117 L388 117 L388 131 C388 174 387 199 382 251 L335 689 L140 689 L134 654 C185 651 205 641 205 612 C205 606 203 592 199 578 L77 114 C61 54 47 37 -11 35 L-17 0 L193 0 L199 35 C150 36 133 45 133 70 C133 80 136 92 140 108 L231 460 C242 500 253 575 256 592 L262 592 C262 576 265 506 270 460 L320 0 L378 0 L631 482 C646 510 672 577 677 591 L683 591 C680 577 667 514 661 473 L609 107 C601 51 586 37 521 35 L515 0 L756 0 L762 35 C718 37 705 48 705 83 C705 92 705 101 707 114 L767 578 C774 631 791 650 862 654 L868 689 Z " />
<glyph glyph-name="Nu" unicode="&#x39d;" horiz-adv-x="669" d="M526 0 L638 578 C649 635 663 652 725 654 L731 689 L514 689 L508 654 C559 652 577 642 577 610 C577 601 575 589 573 578 L525 333 C505 227 498 144 497 127 L491 127 C490 140 480 200 451 271 L277 689 L121 689 L115 654 C166 652 184 642 184 610 C184 601 182 589 180 578 L89 111 C78 54 62 37 -6 35 L-12 0 L213 0 L219 35 C168 37 150 47 150 79 C150 86 151 98 154 111 L209 394 C227 485 232 562 233 578 L239 578 C240 565 251 501 290 408 L461 0 L526 0 Z " />
<glyph glyph-name="Xi" unicode="&#x39e;" horiz-adv-x="565" d="M474 0 L512 163 L467 163 C441 90 420 78 353 78 L150 78 C86 78 68 83 68 150 L68 163 L23 163 L0 0 L474 0 Z M144 689 L104 531 L146 531 C183 607 200 614 258 614 L453 614 C511 614 526 607 533 531 L575 531 L595 689 L144 689 Z M339 334 C402 334 417 315 411 267 L452 267 L488 448 L447 448 C432 395 410 382 348 382 L273 382 C209 382 191 400 200 448 L159 448 L123 267 L164 267 C178 317 200 334 262 334 L339 334 Z " />
<glyph glyph-name="Omicron" unicode="&#x39f;" horiz-adv-x="673" d="M650 438 C650 611 554 700 410 700 C161 700 63 438 63 252 C63 84 153 -14 308 -14 C555 -14 650 250 650 438 L650 438 Z M546 467 C546 373 519 220 459 124 C420 62 375 33 307 33 C211 33 167 85 167 219 C167 320 191 468 252 562 C289 621 336 652 409 652 C507 652 546 587 546 467 L546 467 Z " />
<glyph glyph-name="Pi" unicode="&#x3a0;" horiz-adv-x="688" d="M289 641 L553 641 L450 111 C439 54 426 37 358 35 L352 0 L607 0 L613 35 C561 36 544 47 544 79 C544 88 545 95 548 111 L639 578 C650 635 666 652 734 654 L740 689 L120 689 L114 654 C165 652 183 642 183 610 C183 601 182 593 179 578 L88 111 C77 54 61 37 -6 35 L-12 0 L243 0 L249 35 C198 36 182 47 182 77 C182 86 183 95 186 111 L289 641 Z " />
<glyph glyph-name="Rho" unicode="&#x3a1;" horiz-adv-x="569" d="M187 114 L220 287 L300 287 C362 287 418 292 465 316 C534 351 586 422 586 520 C586 638 519 689 351 689 L121 689 L115 654 C166 652 184 642 184 610 C184 601 182 589 180 578 L89 111 C78 54 62 37 -6 35 L-12 0 L253 0 L259 35 C203 37 183 48 183 82 C183 91 184 99 187 114 L187 114 Z M485 522 C485 445 455 390 415 361 C385 339 348 335 306 335 L230 335 L289 640 L361 640 C458 640 485 599 485 522 L485 522 Z " />
<glyph glyph-name="Sigma" unicode="&#x3a3;" horiz-adv-x="544" d="M364 361 L213 640 L418 640 C485 640 510 615 515 537 L559 537 L574 689 L117 689 L107 633 L266 345 L-10 56 L-20 0 L447 0 L496 179 L452 179 C421 110 388 85 311 85 L94 85 L364 361 Z " />
<glyph glyph-name="Tau" unicode="&#x3a4;" horiz-adv-x="569" d="M120 689 L88 532 L136 532 C160 614 177 640 244 640 L315 640 L212 111 C201 54 183 37 113 35 L106 0 L374 0 L381 35 C325 37 306 48 306 80 C306 89 307 95 310 111 L413 640 L490 640 C555 640 552 602 548 532 L594 532 L626 689 L120 689 Z " />
<glyph glyph-name="Upsilon" unicode="&#x3a5;" horiz-adv-x="589" d="M222 111 C212 54 193 37 123 35 L116 0 L384 0 L391 35 C326 37 309 51 319 106 L353 282 L545 561 C596 635 619 649 660 654 L666 689 L460 689 L454 654 C488 652 507 647 507 628 C507 615 500 601 486 579 L331 341 L327 341 L263 577 C259 592 256 605 256 615 C256 641 275 653 317 654 L323 689 L94 689 L88 654 C126 649 147 636 166 572 L252 276 L222 111 Z " />
<glyph glyph-name="Phi" unicode="&#x3a6;" horiz-adv-x="764" d="M35 287 C35 163 124 97 305 96 C294 51 274 37 213 35 L207 0 L463 0 L469 35 C408 36 395 54 401 96 C635 97 769 213 769 407 C769 531 679 597 499 598 C511 639 530 652 590 654 L596 689 L340 689 L334 654 C393 654 407 638 402 598 C168 596 35 480 35 287 L35 287 Z M668 415 C668 337 643 245 593 197 C554 160 510 140 409 140 L490 554 C615 553 668 511 668 415 L668 415 Z M136 279 C136 357 161 449 211 497 C249 533 293 553 394 554 L313 140 C188 140 136 182 136 279 L136 279 Z " />
<glyph glyph-name="Chi" unicode="&#x3a7;" horiz-adv-x="605" d="M525 574 C569 632 595 649 636 654 L642 689 L442 689 L436 654 C469 652 483 644 483 628 C483 615 475 599 459 577 L350 426 L346 426 L288 578 C283 590 279 605 279 616 C279 639 297 652 344 654 L350 689 L112 689 L106 654 C144 649 162 639 185 580 L273 359 L95 128 C40 57 15 40 -26 35 L-32 0 L177 0 L183 35 C149 37 130 43 130 61 C130 72 137 88 153 110 L293 302 L297 302 L368 112 C387 61 376 37 314 35 L308 0 L548 0 L554 35 C516 40 494 55 470 117 L371 371 L525 574 Z " />
<glyph glyph-name="Psi" unicode="&#x3a8;" horiz-adv-x="718" d="M110 458 C110 399 121 358 144 330 C178 288 237 273 312 269 L281 111 C270 54 256 37 188 35 L182 0 L438 0 L444 35 C392 36 373 47 373 80 C373 89 375 101 377 111 L408 269 C503 271 570 284 622 329 C663 364 682 420 708 503 C738 598 750 616 808 632 L799 695 C679 687 657 657 612 502 C570 356 520 316 416 313 L468 578 C479 635 495 652 563 654 L569 689 L313 689 L307 654 C358 652 376 642 376 610 C376 602 374 588 372 578 L320 313 C236 318 199 349 199 448 C199 494 206 533 206 573 C206 660 177 687 85 696 L65 637 C102 625 115 608 115 557 C115 520 110 489 110 458 L110 458 Z " />
<glyph glyph-name="uni03A9" unicode="&#x3a9;" horiz-adv-x="716" d="M433 655 C536 655 583 574 583 457 C583 281 508 161 365 64 L353 0 L613 0 L656 151 L614 151 C585 83 572 75 495 75 L451 75 C569 151 686 243 686 432 C686 582 590 700 437 700 C247 700 92 546 92 341 C92 232 149 130 214 75 L159 75 C82 75 73 83 70 151 L32 151 L15 0 L275 0 L288 64 C218 118 195 207 195 306 C195 453 250 655 433 655 L433 655 Z " />
<glyph glyph-name="Iotadieresis" unicode="&#x3aa;" horiz-adv-x="327" d="M278 578 C289 635 305 652 373 654 L379 689 L121 689 L115 654 C166 652 184 642 184 610 C184 601 182 589 180 578 L89 111 C78 54 62 37 -6 35 L-12 0 L246 0 L252 35 C201 37 183 47 183 79 C183 88 185 100 187 111 L278 578 Z M215 787 C215 821 189 847 155 847 C121 847 95 821 95 787 C95 753 121 727 155 727 C189 727 215 753 215 787 L215 787 Z M424 787 C424 821 398 847 364 847 C330 847 304 821 304 787 C304 753 330 727 364 727 C398 727 424 753 424 787 L424 787 Z " />
<glyph glyph-name="Upsilondieresis" unicode="&#x3ab;" horiz-adv-x="589" d="M222 111 C212 54 193 37 123 35 L116 0 L384 0 L391 35 C326 37 309 51 319 106 L353 282 L545 561 C596 635 619 649 660 654 L666 689 L460 689 L454 654 C488 652 507 647 507 628 C507 615 500 601 486 579 L331 341 L327 341 L263 577 C259 592 256 605 256 615 C256 641 275 653 317 654 L323 689 L94 689 L88 654 C126 649 147 636 166 572 L252 276 L222 111 Z M368 787 C368 821 342 847 308 847 C274 847 248 821 248 787 C248 753 274 727 308 727 C342 727 368 753 368 787 L368 787 Z M577 787 C577 821 551 847 517 847 C483 847 457 821 457 787 C457 753 483 727 517 727 C551 727 577 753 577 787 L577 787 Z " />
<glyph glyph-name="alphatonos" unicode="&#x3ac;" horiz-adv-x="538" d="M523 456 L520 490 L469 502 C453 437 441 398 415 349 L411 349 C405 472 369 507 300 507 C156 507 30 334 30 123 C30 40 67 -12 141 -12 C208 -12 256 36 331 133 L335 133 C338 30 370 -9 426 -9 C458 -9 487 2 517 20 L514 51 C502 49 487 48 482 48 C427 48 415 131 414 252 C450 312 485 381 523 456 L523 456 Z M171 53 C141 53 127 75 127 129 C127 298 204 460 287 460 C326 460 331 401 331 267 L331 217 C262 104 205 53 171 53 L171 53 Z M342 545 L419 719 L329 740 L290 549 L342 545 Z " />
<glyph glyph-name="epsilontonos" unicode="&#x3ad;" horiz-adv-x="447" d="M195 44 C137 44 105 71 105 115 C105 184 150 232 242 232 L302 232 L312 278 L250 278 C191 278 166 303 166 340 C166 408 206 459 283 459 C343 459 355 429 356 385 L356 374 L424 374 L442 457 C403 490 341 504 276 504 C152 504 74 446 74 353 C74 319 95 277 162 265 L161 261 C61 248 8 200 8 114 C8 35 72 -11 183 -11 C276 -11 338 16 407 85 L379 114 C315 64 263 44 195 44 L195 44 Z M307 545 L384 719 L294 740 L255 549 L307 545 Z " />
<glyph glyph-name="etatonos" unicode="&#x3ae;" horiz-adv-x="539" d="M82 194 C62 97 44 41 28 16 L28 0 L127 0 C142 55 156 116 189 273 C228 339 298 434 360 434 C383 434 393 422 393 398 C393 389 391 377 388 362 L338 122 C334 101 331 81 331 65 C331 19 351 -9 402 -9 C426 -9 458 -1 504 20 L501 51 C487 49 475 48 465 48 C434 48 423 58 423 82 C423 93 426 108 429 122 L482 371 C485 386 487 400 487 413 C487 465 462 505 400 505 C317 505 249 429 203 357 C208 379 210 404 210 416 C210 469 186 496 149 496 C114 496 77 485 51 472 L44 441 C99 441 120 428 120 393 C120 382 118 369 115 354 L82 194 Z M365 545 L442 719 L352 740 L313 549 L365 545 Z " />
<glyph glyph-name="iotatonos" unicode="&#x3af;" horiz-adv-x="267" d="M52 122 C47 101 45 82 45 65 C45 19 70 -9 118 -9 C158 -9 198 7 222 21 L219 52 C203 49 191 48 179 48 C150 48 140 62 140 85 C140 95 143 111 148 134 L227 500 L207 500 L127 485 C121 447 114 415 97 333 L52 122 Z M204 545 L281 719 L191 740 L152 549 L204 545 Z " />
<glyph glyph-name="upsilondieresistonos" unicode="&#x3b0;" horiz-adv-x="529" d="M197 357 C202 379 204 404 204 416 C204 469 177 496 140 496 C105 496 68 485 42 472 L35 441 C90 441 111 428 111 393 C111 382 109 369 106 354 L61 144 C56 122 54 102 54 85 C54 19 100 -14 167 -14 C380 -14 489 177 489 372 C489 437 472 487 464 503 L385 490 L380 469 C386 450 392 420 392 378 C392 255 333 36 185 36 C156 36 144 55 144 88 C144 102 146 121 150 138 L197 357 Z M214 598 C214 632 188 658 154 658 C120 658 94 632 94 598 C94 564 120 538 154 538 C188 538 214 564 214 598 L214 598 Z M473 598 C473 632 447 658 413 658 C379 658 353 632 353 598 C353 564 379 538 413 538 C447 538 473 564 473 598 L473 598 Z M287 545 L364 719 L274 740 L235 549 L287 545 Z " />
<glyph glyph-name="alpha" unicode="&#x3b1;" horiz-adv-x="538" d="M523 456 L520 490 L469 502 C453 437 441 398 415 349 L411 349 C405 472 369 507 300 507 C156 507 30 334 30 123 C30 40 67 -12 141 -12 C208 -12 256 36 331 133 L335 133 C338 30 370 -9 426 -9 C458 -9 487 2 517 20 L514 51 C502 49 487 48 482 48 C427 48 415 131 414 252 C450 312 485 381 523 456 L523 456 Z M171 53 C141 53 127 75 127 129 C127 298 204 460 287 460 C326 460 331 401 331 267 L331 217 C262 104 205 53 171 53 L171 53 Z " />
<glyph glyph-name="beta" unicode="&#x3b2;" horiz-adv-x="512" d="M256 -13 C402 -13 473 105 473 231 C473 319 409 375 344 385 L345 389 C443 411 503 503 503 592 C503 675 441 735 345 735 C234 735 164 670 134 528 C99 360 58 173 23 5 C8 -64 -8 -122 -30 -176 L-30 -199 L72 -175 L118 40 C154 5 198 -13 256 -13 L256 -13 Z M221 523 C247 644 279 689 344 689 C388 689 407 654 407 604 C407 510 378 413 272 413 L250 413 L230 366 L243 366 C321 366 377 324 377 237 C377 142 348 35 241 35 C209 35 163 46 127 83 L221 523 Z " />
<glyph glyph-name="gamma" unicode="&#x3b3;" horiz-adv-x="464" d="M106 277 C127 116 127 79 127 2 C127 -71 66 -121 -50 -136 L-50 -153 L-38 -214 C77 -185 156 -96 226 4 C297 104 438 305 469 447 L466 483 L380 498 C380 364 363 307 267 153 L194 36 L189 36 C200 69 206 101 206 156 C206 192 204 239 198 303 C184 460 164 496 116 496 C81 496 49 485 23 472 L16 441 C82 441 87 421 106 277 L106 277 Z " />
<glyph glyph-name="delta" unicode="&#x3b4;" horiz-adv-x="503" d="M173 564 C173 527 195 494 227 467 C104 402 35 294 35 158 C35 60 99 -12 204 -12 C377 -12 465 150 465 299 C465 410 383 464 318 507 C272 538 236 567 236 607 C236 649 281 671 323 671 C415 671 433 624 446 555 L481 570 C488 594 493 613 493 636 C493 699 438 735 348 735 C254 735 173 669 173 564 L173 564 Z M130 137 C130 251 170 371 270 435 C330 392 366 357 366 280 C366 226 345 137 299 83 C275 55 242 37 206 37 C152 37 130 80 130 137 L130 137 Z " />
<glyph glyph-name="epsilon" unicode="&#x3b5;" horiz-adv-x="447" d="M195 44 C137 44 105 71 105 115 C105 184 150 232 242 232 L302 232 L312 278 L250 278 C191 278 166 303 166 340 C166 408 206 459 283 459 C343 459 355 429 356 385 L356 374 L424 374 L442 457 C403 490 341 504 276 504 C152 504 74 446 74 353 C74 319 95 277 162 265 L161 261 C61 248 8 200 8 114 C8 35 72 -11 183 -11 C276 -11 338 16 407 85 L379 114 C315 64 263 44 195 44 L195 44 Z " />
<glyph glyph-name="zeta" unicode="&#x3b6;" horiz-adv-x="366" d="M456 719 L326 637 C275 646 254 679 244 737 L206 722 C202 709 200 696 200 684 C200 644 227 605 262 582 C141 478 40 322 40 179 C40 90 88 28 186 -5 C224 -17 241 -28 241 -52 C241 -92 191 -141 166 -169 L218 -203 C275 -152 341 -93 341 -22 C341 21 308 41 247 66 C169 97 136 121 136 184 C136 319 219 474 313 568 C389 570 470 631 498 692 L501 710 L456 719 Z " />
<glyph glyph-name="eta" unicode="&#x3b7;" horiz-adv-x="539" d="M82 194 C62 97 44 41 28 16 L28 0 L127 0 C142 55 156 116 189 273 C228 339 298 434 360 434 C383 434 393 422 393 398 C393 389 391 377 388 362 L338 122 C334 101 331 81 331 65 C331 19 351 -9 402 -9 C426 -9 458 -1 504 20 L501 51 C487 49 475 48 465 48 C434 48 423 58 423 82 C423 93 426 108 429 122 L482 371 C485 386 487 400 487 413 C487 465 462 505 400 505 C317 505 249 429 203 357 C208 379 210 404 210 416 C210 469 186 496 149 496 C114 496 77 485 51 472 L44 441 C99 441 120 428 120 393 C120 382 118 369 115 354 L82 194 Z " />
<glyph glyph-name="theta" unicode="&#x3b8;" horiz-adv-x="496" d="M498 523 C498 653 442 735 339 735 C168 735 40 458 40 206 C40 75 101 -13 204 -13 C376 -13 498 272 498 523 L498 523 Z M206 34 C155 34 127 78 127 166 C127 215 133 278 145 341 L386 341 C372 277 353 212 329 159 C296 85 255 34 206 34 L206 34 Z M337 688 C387 688 411 644 411 557 C411 511 406 452 396 394 L156 394 C172 461 194 527 221 580 C253 644 292 688 337 688 L337 688 Z " />
<glyph glyph-name="iota" unicode="&#x3b9;" horiz-adv-x="267" d="M52 122 C47 101 45 82 45 65 C45 19 70 -9 118 -9 C158 -9 198 7 222 21 L219 52 C203 49 191 48 179 48 C150 48 140 62 140 85 C140 95 143 111 148 134 L227 500 L207 500 L127 485 C121 447 114 415 97 333 L52 122 Z " />
<glyph glyph-name="kappa" unicode="&#x3ba;" horiz-adv-x="487" d="M357 371 C386 400 404 414 456 419 L497 423 L497 504 C393 501 385 477 329 411 C279 353 232 294 182 239 L208 357 C213 379 215 404 215 416 C215 469 192 496 151 496 C116 496 79 485 53 472 L46 441 C101 441 122 428 122 393 C122 382 120 369 117 354 L83 194 C62 97 44 41 28 16 L28 0 L127 0 C136 35 146 77 165 161 C184 180 202 200 220 220 L247 127 C276 27 298 -9 418 -9 L435 54 C381 62 368 73 351 120 L288 297 C311 322 333 347 357 371 L357 371 Z " />
<glyph glyph-name="lambda" unicode="&#x3bb;" horiz-adv-x="473" d="M343 627 C334 727 277 732 240 732 C208 732 184 724 159 710 L153 677 C220 677 244 668 252 601 L263 504 L244 507 L53 141 C11 60 -4 31 -30 6 L18 -10 L49 -10 L272 450 L273 450 L288 167 C295 29 324 -9 396 -9 C418 -9 448 0 473 22 L470 54 C455 51 445 49 431 49 C403 49 392 61 383 169 L343 627 Z " />
<glyph glyph-name="uni03BC" unicode="&#x3bc;" horiz-adv-x="551" d="M92 -175 L115 -66 C119 -45 121 -27 121 -14 C121 -1 120 6 119 11 L123 13 C128 -2 146 -14 173 -14 C233 -14 295 46 343 126 C339 108 337 90 337 75 C337 24 360 -9 408 -9 C440 -9 473 1 509 20 L506 51 C495 50 486 49 478 49 C444 49 429 61 429 89 C429 98 430 105 434 122 L511 491 L421 491 L363 218 C324 152 252 57 190 57 C167 57 156 69 156 93 C156 103 158 115 161 129 L209 356 C213 377 217 400 217 412 C217 468 191 496 154 496 C119 496 82 485 56 472 L49 441 C104 441 123 428 123 393 C123 382 121 369 118 354 L43 5 C28 -64 12 -122 -10 -176 L-10 -199 L92 -175 Z " />
<glyph glyph-name="nu" unicode="&#x3bd;" horiz-adv-x="458" d="M198 0 C309 136 432 305 463 447 L460 483 L374 498 C374 376 367 308 256 160 L204 89 L199 89 C199 131 195 181 191 217 L176 365 C166 464 157 496 109 496 C74 496 43 485 17 472 L10 441 C76 441 82 419 89 353 L102 224 C114 107 118 58 119 0 L198 0 Z " />
<glyph glyph-name="xi" unicode="&#x3be;" horiz-adv-x="415" d="M265 594 C199 556 144 505 144 435 C144 396 173 362 233 352 L233 348 C114 316 25 237 25 127 C25 49 91 10 218 -7 C259 -13 274 -28 274 -51 C274 -85 221 -144 198 -169 L251 -203 C308 -152 372 -93 372 -16 C372 26 343 58 278 70 C178 88 128 100 128 154 C128 280 256 321 350 323 L376 323 L387 376 L358 376 C274 376 237 404 237 453 C237 510 274 547 315 578 C430 581 482 627 516 693 L520 711 L473 720 L334 641 C287 653 271 681 261 737 L223 722 C219 707 216 692 216 678 C216 639 235 609 265 594 L265 594 Z " />
<glyph glyph-name="omicron" unicode="&#x3bf;" horiz-adv-x="518" d="M483 310 C483 418 419 504 298 504 C159 504 35 364 35 178 C35 65 106 -14 220 -14 C377 -14 483 138 483 310 L483 310 Z M387 325 C387 228 362 133 315 79 C291 51 260 34 224 34 C157 34 131 85 131 163 C131 253 154 338 192 393 C219 432 254 456 294 456 C360 456 387 409 387 325 L387 325 Z " />
<glyph glyph-name="pi" unicode="&#x3c0;" horiz-adv-x="564" d="M335 122 C330 101 328 82 328 65 C328 19 353 -9 401 -9 C441 -9 481 7 505 21 L502 52 C486 49 474 48 462 48 C433 48 423 62 423 85 C423 95 426 111 431 134 L490 414 C525 416 550 423 570 430 L594 505 L573 505 C536 495 509 491 459 491 L237 491 C139 491 88 461 40 378 L64 356 C100 391 130 410 181 414 C124 186 60 80 6 20 L6 0 L105 0 C166 108 206 255 236 414 L404 414 C396 388 387 355 378 313 L335 122 Z " />
<glyph glyph-name="rho" unicode="&#x3c1;" horiz-adv-x="512" d="M210 38 C170 38 129 62 109 101 L147 280 C166 368 200 452 296 452 C358 452 383 413 383 343 C383 270 366 157 313 90 C288 58 253 38 210 38 L210 38 Z M72 -83 C81 -39 86 7 89 55 L92 56 C115 18 166 -12 228 -12 C402 -12 477 180 477 324 C477 436 409 503 307 503 C168 503 91 422 59 272 L3 5 C-12 -64 -28 -122 -50 -176 L-50 -199 L52 -175 L72 -83 Z " />
<glyph glyph-name="sigma1" unicode="&#x3c2;" horiz-adv-x="446" d="M451 463 C419 484 386 503 307 503 C137 503 35 354 35 189 C35 91 96 29 197 -6 C243 -22 251 -33 251 -52 C251 -82 219 -124 175 -169 L228 -203 C282 -155 350 -92 350 -25 C350 17 318 41 258 65 C167 101 133 139 133 207 C133 269 151 350 192 403 C217 436 251 457 296 457 C341 457 360 427 360 391 C360 388 360 383 359 370 L431 370 L451 463 Z " />
<glyph glyph-name="sigma" unicode="&#x3c3;" horiz-adv-x="526" d="M473 306 C473 354 453 405 417 432 L419 436 C433 430 456 423 478 423 C504 423 518 426 543 438 L546 460 L541 513 C499 495 478 493 444 493 C381 493 345 504 293 504 C154 504 35 364 35 178 C35 65 101 -14 215 -14 C372 -14 473 134 473 306 L473 306 Z M377 325 C377 228 352 133 305 79 C281 51 255 34 219 34 C152 34 131 85 131 163 C131 253 154 338 192 393 C219 432 249 456 289 456 C355 456 377 409 377 325 L377 325 Z " />
<glyph glyph-name="tau" unicode="&#x3c4;" horiz-adv-x="445" d="M138 122 C133 101 131 82 131 65 C131 19 156 -9 204 -9 C244 -9 284 7 308 21 L305 52 C289 49 277 48 265 48 C236 48 226 62 226 85 C226 95 229 111 234 134 L293 414 L370 414 C408 414 435 423 456 430 L480 505 L459 505 C422 495 395 491 345 491 L205 491 C107 491 63 461 15 378 L39 356 C75 391 105 414 156 414 L208 414 C199 387 190 353 180 308 L138 122 Z " />
<glyph glyph-name="upsilon" unicode="&#x3c5;" horiz-adv-x="529" d="M197 357 C202 379 204 404 204 416 C204 469 177 496 140 496 C105 496 68 485 42 472 L35 441 C90 441 111 428 111 393 C111 382 109 369 106 354 L61 144 C56 122 54 102 54 85 C54 19 100 -14 167 -14 C380 -14 489 177 489 372 C489 437 472 487 464 503 L385 490 L380 469 C386 450 392 420 392 378 C392 255 333 36 185 36 C156 36 144 55 144 88 C144 102 146 121 150 138 L197 357 Z " />
<glyph glyph-name="phi" unicode="&#x3c6;" horiz-adv-x="669" d="M634 351 C634 439 573 503 479 503 C353 503 310 416 289 316 L232 43 C168 51 129 106 129 187 C129 307 187 403 282 490 L214 500 C106 413 35 310 35 171 C35 66 118 4 222 -4 C207 -69 192 -124 172 -176 L172 -199 L269 -184 L307 -4 C527 -4 634 175 634 351 L634 351 Z M374 308 C398 423 424 452 475 452 C513 452 538 422 538 360 C538 279 520 180 466 114 C432 72 381 45 318 43 L374 308 Z " />
<glyph glyph-name="chi" unicode="&#x3c7;" horiz-adv-x="450" d="M66 104 C36 67 4 32 -30 6 L23 -12 L55 -12 L202 192 L205 192 L229 103 C248 31 264 -9 331 -9 C367 -9 392 3 414 22 L411 54 C405 53 390 50 381 50 C349 50 333 69 322 106 L279 255 L388 387 C423 429 450 459 480 482 L429 503 L398 503 L262 314 L259 314 L236 408 C218 480 184 497 141 497 C110 497 87 489 62 475 L56 442 C110 442 133 435 148 382 L185 251 L66 104 Z " />
<glyph glyph-name="psi" unicode="&#x3c8;" horiz-adv-x="696" d="M199 357 C204 379 206 404 206 416 C206 469 181 496 140 496 C105 496 68 485 42 472 L35 441 C90 441 111 428 111 393 C111 382 109 369 106 354 L75 205 C71 184 69 165 69 148 C69 49 146 1 256 -3 C241 -71 227 -124 206 -176 L205 -199 L302 -184 L340 -4 C573 -1 661 188 661 372 C661 437 639 487 631 503 L556 490 L551 469 C557 449 564 418 564 375 C564 231 508 61 351 45 L497 730 L472 730 L403 716 C396 664 391 634 374 555 L266 44 C185 47 158 85 158 143 C158 162 161 182 166 204 C176 256 188 305 199 357 L199 357 Z " />
<glyph glyph-name="omega" unicode="&#x3c9;" horiz-adv-x="709" d="M425 378 L402 378 L332 366 C326 322 316 266 306 219 C290 143 269 39 181 39 C138 39 121 73 121 130 C121 267 175 390 284 490 L215 500 C101 410 30 291 30 136 C30 40 89 -14 164 -14 C222 -14 265 8 300 62 C304 26 333 -14 395 -14 C594 -14 674 210 674 359 C674 430 649 487 640 503 L565 490 L560 469 C566 447 576 408 576 356 C576 293 558 180 512 106 C485 63 448 35 403 35 C376 35 367 55 367 85 C367 100 370 119 374 138 L425 378 Z " />
<glyph glyph-name="iotadieresis" unicode="&#x3ca;" horiz-adv-x="267" d="M52 122 C47 101 45 82 45 65 C45 19 70 -9 118 -9 C158 -9 198 7 222 21 L219 52 C203 49 191 48 179 48 C150 48 140 62 140 85 C140 95 143 111 148 134 L227 500 L207 500 L127 485 C121 447 114 415 97 333 L52 122 Z M155 638 C155 672 129 698 95 698 C61 698 35 672 35 638 C35 604 61 578 95 578 C129 578 155 604 155 638 L155 638 Z M364 638 C364 672 338 698 304 698 C270 698 244 672 244 638 C244 604 270 578 304 578 C338 578 364 604 364 638 L364 638 Z " />
<glyph glyph-name="upsilondieresis" unicode="&#x3cb;" horiz-adv-x="529" d="M197 357 C202 379 204 404 204 416 C204 469 177 496 140 496 C105 496 68 485 42 472 L35 441 C90 441 111 428 111 393 C111 382 109 369 106 354 L61 144 C56 122 54 102 54 85 C54 19 100 -14 167 -14 C380 -14 489 177 489 372 C489 437 472 487 464 503 L385 490 L380 469 C386 450 392 420 392 378 C392 255 333 36 185 36 C156 36 144 55 144 88 C144 102 146 121 150 138 L197 357 Z M255 638 C255 672 229 698 195 698 C161 698 135 672 135 638 C135 604 161 578 195 578 C229 578 255 604 255 638 L255 638 Z M464 638 C464 672 438 698 404 698 C370 698 344 672 344 638 C344 604 370 578 404 578 C438 578 464 604 464 638 L464 638 Z " />
<glyph glyph-name="omicrontonos" unicode="&#x3cc;" horiz-adv-x="518" d="M483 310 C483 418 419 504 298 504 C159 504 35 364 35 178 C35 65 106 -14 220 -14 C377 -14 483 138 483 310 L483 310 Z M387 325 C387 228 362 133 315 79 C291 51 260 34 224 34 C157 34 131 85 131 163 C131 253 154 338 192 393 C219 432 254 456 294 456 C360 456 387 409 387 325 L387 325 Z M338 545 L415 719 L325 740 L286 549 L338 545 Z " />
<glyph glyph-name="upsilontonos" unicode="&#x3cd;" horiz-adv-x="529" d="M197 357 C202 379 204 404 204 416 C204 469 177 496 140 496 C105 496 68 485 42 472 L35 441 C90 441 111 428 111 393 C111 382 109 369 106 354 L61 144 C56 122 54 102 54 85 C54 19 100 -14 167 -14 C380 -14 489 177 489 372 C489 437 472 487 464 503 L385 490 L380 469 C386 450 392 420 392 378 C392 255 333 36 185 36 C156 36 144 55 144 88 C144 102 146 121 150 138 L197 357 Z M318 545 L395 719 L305 740 L266 549 L318 545 Z " />
<glyph glyph-name="omegatonos" unicode="&#x3ce;" horiz-adv-x="709" d="M425 378 L402 378 L332 366 C326 322 316 266 306 219 C290 143 269 39 181 39 C138 39 121 73 121 130 C121 267 175 390 284 490 L215 500 C101 410 30 291 30 136 C30 40 89 -14 164 -14 C222 -14 265 8 300 62 C304 26 333 -14 395 -14 C594 -14 674 210 674 359 C674 430 649 487 640 503 L565 490 L560 469 C566 447 576 408 576 356 C576 293 558 180 512 106 C485 63 448 35 403 35 C376 35 367 55 367 85 C367 100 370 119 374 138 L425 378 Z M439 545 L516 719 L426 740 L387 549 L439 545 Z " />
<glyph glyph-name="uni03D0" unicode="&#x3d0;" horiz-adv-x="508" d="M509 605 C509 681 441 735 356 735 C237 735 132 652 63 329 C51 271 45 221 45 178 C45 48 122 -13 219 -13 C369 -13 473 116 473 256 C473 324 436 373 356 400 C441 435 509 493 509 605 L509 605 Z M377 254 C377 149 324 35 218 35 C166 35 138 71 138 160 C138 205 145 263 161 337 C218 606 275 689 354 689 C400 689 417 662 417 618 C417 483 346 431 232 409 L230 362 C252 367 275 374 297 380 C349 352 377 306 377 254 L377 254 Z " />
<glyph glyph-name="theta1" unicode="&#x3d1;" horiz-adv-x="504" d="M203 35 C149 35 121 62 121 113 C121 165 142 212 142 261 C142 295 129 317 109 338 L41 312 C46 295 49 281 49 261 C49 211 30 166 30 119 C30 49 89 -13 202 -13 C350 -13 431 111 481 329 C501 417 510 497 510 551 C510 707 418 735 340 735 C203 735 125 630 125 514 C125 420 200 357 382 324 C337 127 273 35 203 35 L203 35 Z M219 518 C219 594 258 689 342 689 C391 689 420 666 420 578 C420 535 408 450 392 370 C269 395 219 446 219 518 L219 518 Z " />
<glyph glyph-name="Upsilon1" unicode="&#x3d2;" horiz-adv-x="627" d="M367 247 C404 433 550 625 697 639 L689 696 C505 699 420 530 353 367 L349 367 C349 398 347 429 342 459 C321 582 252 686 93 696 L75 626 C201 598 280 486 280 347 C280 322 278 297 273 271 L242 111 C231 54 215 37 147 35 L141 0 L399 0 L405 35 C353 36 336 47 336 79 C336 88 338 102 340 111 L367 247 Z " />
<glyph glyph-name="uni03D3" unicode="&#x3d3;" horiz-adv-x="627" d="M367 247 C404 433 550 625 697 639 L689 696 C505 699 420 530 353 367 L349 367 C349 398 347 429 342 459 C321 582 252 686 93 696 L75 626 C201 598 280 486 280 347 C280 322 278 297 273 271 L242 111 C231 54 215 37 147 35 L141 0 L399 0 L405 35 C353 36 336 47 336 79 C336 88 338 102 340 111 L367 247 Z M-18 510 L59 684 L-31 705 L-70 514 L-18 510 Z " />
<glyph glyph-name="uni03D4" unicode="&#x3d4;" horiz-adv-x="627" d="M352 787 C352 821 326 847 292 847 C258 847 232 821 232 787 C232 753 258 727 292 727 C326 727 352 753 352 787 L352 787 Z M561 787 C561 821 535 847 501 847 C467 847 441 821 441 787 C441 753 467 727 501 727 C535 727 561 753 561 787 L561 787 Z M367 247 C404 433 550 625 697 639 L689 696 C505 699 420 530 353 367 L349 367 C349 398 347 429 342 459 C321 582 252 686 93 696 L75 626 C201 598 280 486 280 347 C280 322 278 297 273 271 L242 111 C231 54 215 37 147 35 L141 0 L399 0 L405 35 C353 36 336 47 336 79 C336 88 338 102 340 111 L367 247 Z " />
<glyph glyph-name="phi1" unicode="&#x3d5;" horiz-adv-x="685" d="M490 733 L466 733 L398 719 C391 675 386 647 366 555 L355 505 C132 498 35 367 35 176 C35 70 126 3 248 -3 C233 -71 220 -124 198 -176 L198 -199 L294 -184 L332 -4 C537 1 655 101 655 319 C655 416 581 498 441 504 L490 733 Z M559 324 C559 235 534 153 481 98 C447 63 403 46 343 44 L430 455 C513 452 559 415 559 324 L559 324 Z M257 44 C176 49 129 94 129 178 C129 244 149 312 178 366 C216 436 276 454 345 456 L257 44 Z " />
<glyph glyph-name="uni0400" unicode="&#x400;" horiz-adv-x="568" d="M-12 0 L479 0 L511 165 L466 165 C439 72 416 49 339 49 L175 49 L231 336 L321 336 C383 336 399 319 392 265 L433 265 L470 455 L429 455 C414 398 391 384 329 384 L240 384 L290 640 L453 640 C511 640 522 615 529 539 L571 539 L590 689 L121 689 L115 654 C166 652 184 642 184 610 C184 601 182 589 180 578 L89 111 C78 54 62 37 -6 35 L-12 0 Z M486 761 L295 889 L252 797 L466 727 L486 761 Z " />
<glyph glyph-name="afii10023" unicode="&#x401;" horiz-adv-x="568" d="M-12 0 L479 0 L511 165 L466 165 C439 72 416 49 339 49 L175 49 L231 336 L321 336 C383 336 399 319 392 265 L433 265 L470 455 L429 455 C414 398 391 384 329 384 L240 384 L290 640 L453 640 C511 640 522 615 529 539 L571 539 L590 689 L121 689 L115 654 C166 652 184 642 184 610 C184 601 182 589 180 578 L89 111 C78 54 62 37 -6 35 L-12 0 Z M343 787 C343 821 317 847 283 847 C249 847 223 821 223 787 C223 753 249 727 283 727 C317 727 343 753 343 787 L343 787 Z M552 787 C552 821 526 847 492 847 C458 847 432 821 432 787 C432 753 458 727 492 727 C526 727 552 753 552 787 L552 787 Z " />
<glyph glyph-name="afii10051" unicode="&#x402;" horiz-adv-x="742" d="M120 689 L88 532 L136 532 C160 614 177 640 244 640 L315 640 L212 111 C201 54 183 37 113 35 L106 0 L374 0 L381 35 C325 37 306 48 306 80 C306 89 307 95 310 111 L352 326 C399 352 459 372 515 372 C568 372 601 348 601 289 C601 280 599 265 596 249 L587 201 C565 90 532 51 436 2 L453 -38 C608 10 656 53 689 224 L697 267 C701 290 703 299 703 315 C703 400 632 447 544 447 C468 447 410 417 363 383 L413 640 L490 640 C552 640 553 608 548 532 L594 532 L626 689 L120 689 Z " />
</font>
</svg>
