<?xml version="1.0" encoding="UTF-8"?>
<svg xmlns="http://www.w3.org/2000/svg" xmlns:xlink="http://www.w3.org/1999/xlink" version="1.2" >
<font id="MetaSerifPro-Bold">
<font-face  font-family="Meta Serif Pro" units-per-em="1000" ascent="763" descent="-237" font-style="normal" font-weight="700" font-stretch="normal" cap-height="695" x-height="509" underline-position="-52" underline-thickness="73" />
<missing-glyph  horiz-adv-x="553" d="M71 0 L482 0 L482 689 L71 689 L71 0 Z M121 50 L121 639 L432 639 L432 50 L121 50 Z " />
<glyph glyph-name=".null" d="" />
<glyph glyph-name="CR" unicode="&#xd;" horiz-adv-x="225" d="" />
<glyph glyph-name="space" unicode="&#x20;" horiz-adv-x="225" d="" />
<glyph glyph-name="exclam" unicode="&#x21;" horiz-adv-x="315" d="M111 223 L204 223 L250 704 L64 687 L111 223 Z M157 -12 C207 -12 249 30 249 81 C249 130 207 171 157 171 C107 171 66 130 66 81 C66 30 107 -12 157 -12 L157 -12 Z " />
<glyph glyph-name="quotedbl" unicode="&#x22;" horiz-adv-x="448" d="M363 453 L363 709 L264 709 L264 453 L363 453 Z M184 453 L184 709 L85 709 L85 453 L184 453 Z " />
<glyph glyph-name="numbersign" unicode="&#x23;" horiz-adv-x="573" d="M61 422 L155 422 L137 294 L31 294 L31 211 L125 211 L96 0 L172 0 L201 211 L326 211 L297 0 L373 0 L403 211 L511 211 L511 294 L414 294 L432 422 L541 422 L541 506 L443 506 L471 709 L395 709 L367 506 L242 506 L270 709 L194 709 L166 506 L61 506 L61 422 Z M231 422 L356 422 L338 294 L213 294 L231 422 Z " />
<glyph glyph-name="dollar" unicode="&#x24;" horiz-adv-x="577" d="M308 -101 L308 -10 C459 2 543 80 543 212 C543 335 467 389 349 419 L308 430 L308 640 C371 629 391 584 399 520 L506 520 L506 658 C473 675 410 703 308 706 L308 792 L253 792 L253 705 C119 695 34 622 34 491 C34 373 99 322 209 294 L253 283 L253 47 C184 53 149 92 140 177 L29 177 L29 44 C66 23 129 -10 253 -12 L253 -101 L308 -101 Z M400 158 C400 94 367 58 308 49 L308 269 C376 247 400 215 400 158 L400 158 Z M166 547 C166 600 198 635 253 642 L253 444 C188 464 166 496 166 547 L166 547 Z " />
<glyph glyph-name="percent" unicode="&#x25;" horiz-adv-x="1001" d="M396 453 C396 591 315 661 216 661 C107 661 30 594 30 449 C30 308 100 241 210 241 C310 241 396 306 396 453 L396 453 Z M272 453 C272 328 250 284 211 284 C165 284 149 335 149 455 C149 574 172 614 210 614 C248 614 272 573 272 453 L272 453 Z M768 730 L698 730 L211 -123 L280 -123 L768 730 Z M971 203 C971 341 890 411 792 411 C682 411 605 344 605 199 C605 58 676 -9 786 -9 C886 -9 971 56 971 203 L971 203 Z M847 203 C847 78 825 34 787 34 C741 34 725 85 725 205 C725 324 747 364 785 364 C823 364 847 323 847 203 L847 203 Z " />
<glyph glyph-name="ampersand" unicode="&#x26;" horiz-adv-x="716" d="M504 548 C504 650 423 701 294 701 C153 701 73 625 73 532 C73 466 105 421 151 375 L185 341 C85 306 22 255 22 159 C22 44 122 -12 261 -12 C359 -12 414 10 466 46 L511 0 L716 0 L716 44 C679 44 658 52 630 82 L569 145 C592 183 609 222 619 282 C627 328 640 338 692 340 L692 383 L471 383 L471 340 C529 336 543 325 543 283 C543 241 533 218 525 193 L352 375 C436 414 504 465 504 548 L504 548 Z M318 52 C231 52 174 105 174 182 C174 236 191 268 224 299 L429 86 C399 63 360 52 318 52 L318 52 Z M217 561 C217 614 248 641 296 641 C350 641 380 608 380 553 C380 489 365 456 317 413 L299 431 C246 484 217 517 217 561 L217 561 Z " />
<glyph glyph-name="quotesingle" unicode="&#x27;" horiz-adv-x="269" d="M184 453 L184 709 L85 709 L85 453 L184 453 Z " />
<glyph glyph-name="parenleft" unicode="&#x28;" horiz-adv-x="341" d="M181 317 C181 497 199 651 321 729 L297 775 C98 698 39 560 39 316 C39 73 96 -79 297 -151 L321 -105 C198 -30 181 139 181 317 L181 317 Z " />
<glyph glyph-name="parenright" unicode="&#x29;" horiz-adv-x="341" d="M160 317 C160 133 143 -30 20 -105 L44 -151 C246 -79 303 73 303 316 C303 560 244 698 44 775 L20 729 C143 651 160 495 160 317 L160 317 Z " />
<glyph glyph-name="asterisk" unicode="&#x2a;" horiz-adv-x="461" d="M421 561 L407 603 L277 586 L252 716 L210 716 L185 586 L53 604 L40 563 L154 496 L98 373 L134 346 L229 441 L327 343 L364 372 L306 496 L421 561 Z " />
<glyph glyph-name="plus" unicode="&#x2b;" horiz-adv-x="576" d="M249 507 L249 306 L55 306 L55 236 L249 236 L249 33 L326 33 L326 236 L521 236 L521 306 L326 306 L326 507 L249 507 Z " />
<glyph glyph-name="comma" unicode="&#x2c;" horiz-adv-x="291" d="M236 45 C236 113 193 163 134 163 C82 163 45 125 45 80 C45 39 71 21 94 11 C120 1 131 -7 131 -30 C131 -63 96 -88 27 -108 L57 -149 C174 -125 236 -55 236 45 L236 45 Z " />
<glyph glyph-name="hyphen" unicode="&#x2d;" horiz-adv-x="348" d="M300 222 L300 337 L48 337 L48 222 L300 222 Z " />
<glyph glyph-name="period" unicode="&#x2e;" horiz-adv-x="288" d="M237 81 C237 132 195 174 144 174 C92 174 51 132 51 81 C51 29 92 -13 144 -13 C195 -13 237 29 237 81 L237 81 Z " />
<glyph glyph-name="slash" unicode="&#x2f;" horiz-adv-x="423" d="M23 -149 L119 -149 L379 768 L283 768 L23 -149 Z " />
<glyph glyph-name="zero" unicode="0" horiz-adv-x="584" d="M544 264 C544 439 430 525 294 525 C146 525 40 416 40 255 C40 86 141 -13 288 -13 C434 -13 544 73 544 264 L544 264 Z M380 267 C380 102 350 47 293 47 C224 47 203 111 203 252 C203 410 232 461 291 461 C348 461 380 412 380 267 L380 267 Z " />
<glyph glyph-name="one" unicode="1" horiz-adv-x="420" d="M307 515 L211 515 L28 408 L48 360 C91 371 117 381 158 403 L158 125 C158 63 145 49 59 45 L59 0 L397 0 L397 45 C315 48 307 64 307 124 L307 515 Z " />
<glyph glyph-name="two" unicode="2" horiz-adv-x="479" d="M238 525 C148 525 84 498 32 455 L60 398 C93 418 124 431 175 431 C230 431 269 398 269 345 C269 262 208 217 122 154 L18 77 L18 0 L439 0 L456 103 L153 103 L189 120 C349 195 439 252 439 363 C439 468 367 525 238 525 L238 525 Z " />
<glyph glyph-name="three" unicode="3" horiz-adv-x="480" d="M180 437 C243 437 274 404 274 345 C274 261 234 233 165 233 C142 233 127 234 108 235 L108 164 C125 166 139 166 155 166 C234 166 286 126 286 43 C286 -47 234 -101 100 -101 C67 -101 32 -98 -4 -93 L7 -152 C44 -161 83 -165 130 -165 C278 -165 446 -111 446 47 C446 124 390 192 296 207 C382 231 428 283 428 364 C428 469 351 525 232 525 C140 525 74 495 17 452 L48 397 C80 417 123 437 180 437 L180 437 Z " />
<glyph glyph-name="four" unicode="4" horiz-adv-x="566" d="M322 -179 L471 -160 L471 8 L555 8 L555 74 L471 74 L471 352 L372 334 C333 257 322 189 322 74 L132 74 L393 517 L244 517 L18 75 L18 8 L322 8 L322 -179 Z " />
<glyph glyph-name="five" unicode="5" horiz-adv-x="483" d="M446 67 C446 187 358 256 229 256 C197 256 168 252 139 243 L155 390 L423 390 L438 512 L91 512 L57 158 C85 170 123 178 163 178 C239 178 287 133 287 46 C287 -69 190 -102 110 -102 C61 -102 38 -99 -1 -89 L12 -146 C47 -158 76 -164 136 -164 C291 -164 446 -95 446 67 L446 67 Z " />
<glyph glyph-name="six" unicode="6" horiz-adv-x="562" d="M472 642 L454 695 C251 646 41 517 41 259 C41 86 128 -14 285 -14 C438 -14 530 71 530 213 C530 352 443 418 328 418 C282 418 240 403 209 383 C239 516 326 586 472 642 L472 642 Z M288 347 C354 347 382 303 382 198 C382 94 357 44 297 44 C234 44 195 112 195 252 C195 278 196 298 199 324 C226 339 257 347 288 347 L288 347 Z " />
<glyph glyph-name="seven" unicode="7" horiz-adv-x="459" d="M448 512 L29 512 L12 388 L344 388 C231 238 104 35 56 -170 L214 -143 C249 70 319 249 431 399 L448 512 Z " />
<glyph glyph-name="eight" unicode="8" horiz-adv-x="572" d="M36 160 C36 54 111 -13 284 -13 C441 -13 536 62 536 186 C536 298 472 337 379 379 C452 407 505 444 505 521 C505 617 420 679 286 679 C172 679 61 624 61 492 C61 399 109 352 178 314 C105 288 36 241 36 160 L36 160 Z M398 148 C398 82 355 46 284 46 C211 46 169 83 169 163 C169 219 188 255 224 292 C341 243 398 229 398 148 L398 148 Z M196 524 C196 582 230 620 286 620 C346 620 375 582 375 520 C375 460 354 429 322 402 C219 442 196 474 196 524 L196 524 Z " />
<glyph glyph-name="nine" unicode="9" horiz-adv-x="566" d="M45 -143 L88 -188 C300 -141 525 -4 525 255 C525 433 425 526 278 526 C129 526 35 442 35 300 C35 161 123 95 237 95 C281 95 323 109 353 127 C339 73 314 32 280 -5 C225 -63 148 -107 45 -143 L45 -143 Z M277 166 C211 166 184 216 184 314 C184 418 210 469 269 469 C332 469 371 403 371 264 C371 236 369 211 365 187 C340 173 307 166 277 166 L277 166 Z " />
<glyph glyph-name="colon" unicode="&#x3a;" horiz-adv-x="314" d="M250 373 C250 424 208 466 157 466 C105 466 64 424 64 373 C64 321 105 279 157 279 C208 279 250 321 250 373 L250 373 Z M250 81 C250 132 208 174 157 174 C105 174 64 132 64 81 C64 29 105 -13 157 -13 C208 -13 250 29 250 81 L250 81 Z " />
<glyph glyph-name="semicolon" unicode="&#x3b;" horiz-adv-x="314" d="M252 45 C252 113 210 163 151 163 C98 163 62 125 62 80 C62 39 88 21 111 11 C136 0 148 -6 148 -30 C148 -63 113 -88 43 -108 L73 -149 C190 -125 252 -55 252 45 L252 45 Z M243 373 C243 424 201 466 150 466 C98 466 57 424 57 373 C57 321 98 279 150 279 C201 279 243 321 243 373 L243 373 Z " />
<glyph glyph-name="less" unicode="&#x3c;" horiz-adv-x="483" d="M428 47 L428 132 L134 293 L428 475 L428 565 L55 330 L55 248 L428 47 Z " />
<glyph glyph-name="equal" unicode="&#x3d;" horiz-adv-x="576" d="M55 159 L521 159 L521 230 L55 230 L55 159 Z M55 315 L521 315 L521 387 L55 387 L55 315 Z " />
<glyph glyph-name="greater" unicode="&#x3e;" horiz-adv-x="483" d="M428 248 L428 330 L55 565 L55 475 L349 293 L55 132 L55 47 L428 248 Z " />
<glyph glyph-name="question" unicode="&#x3f;" horiz-adv-x="470" d="M309 81 C309 131 266 172 215 172 C164 172 123 131 123 81 C123 29 164 -13 215 -13 C266 -13 309 29 309 81 L309 81 Z M217 636 C260 636 287 606 287 562 C287 499 253 469 217 436 C171 394 149 354 149 313 C149 270 168 238 182 222 L247 222 C244 237 242 259 242 270 C242 323 266 342 327 383 C368 410 436 455 436 547 C436 659 345 706 229 706 C158 706 82 685 38 657 L38 541 L137 541 C141 603 170 636 217 636 L217 636 Z " />
<glyph glyph-name="at" unicode="&#x40;" horiz-adv-x="907" d="M601 7 C738 7 866 86 866 282 C866 488 713 625 479 625 C229 625 41 448 41 194 C41 -46 204 -176 423 -176 C502 -176 558 -162 611 -141 L596 -105 C554 -119 506 -129 435 -129 C245 -129 131 3 131 193 C131 433 274 578 477 578 C653 578 774 488 774 283 C774 128 710 57 639 57 C606 57 592 67 592 93 C592 102 593 112 596 125 L640 326 C647 357 657 388 667 418 C631 440 570 451 511 451 C344 451 220 301 220 131 C220 49 260 5 327 5 C399 5 438 41 470 97 C470 36 506 7 601 7 L601 7 Z M484 181 C450 128 416 84 381 84 C359 84 346 96 346 140 C346 255 406 395 493 395 C509 395 521 391 531 380 L484 181 Z " />
<glyph glyph-name="A" unicode="A" horiz-adv-x="671" d="M435 101 C438 92 440 83 440 76 C440 56 424 48 379 46 L379 0 L663 0 L663 46 C622 51 612 67 596 113 L397 695 L271 695 L82 113 C65 60 51 51 8 46 L8 0 L229 0 L229 46 C185 48 165 51 165 76 C165 82 166 90 169 101 L194 187 L408 187 L435 101 Z M264 428 C282 489 290 523 295 543 L300 543 C304 523 312 486 330 430 L384 261 L215 261 L264 428 Z " />
<glyph glyph-name="B" unicode="B" horiz-adv-x="634" d="M29 0 L377 0 C537 0 614 63 614 181 C614 277 560 340 439 353 L439 357 C530 373 587 417 587 511 C587 636 492 695 350 695 L29 695 L29 647 C81 646 97 632 97 575 L97 117 C97 60 81 46 29 46 L29 0 Z M254 67 L254 318 L333 318 C417 318 449 283 449 193 C449 95 416 67 333 67 L254 67 Z M254 387 L254 624 L312 624 C390 624 421 593 421 504 C421 412 394 387 316 387 L254 387 Z " />
<glyph glyph-name="C" unicode="C" horiz-adv-x="620" d="M356 -12 C456 -12 542 13 583 43 L583 175 L480 175 C467 93 441 56 362 56 C276 56 216 102 216 344 C216 572 268 636 362 636 C431 636 454 597 470 521 L578 521 L578 657 C530 688 462 707 364 707 C172 707 41 592 41 338 C41 113 152 -12 356 -12 L356 -12 Z " />
<glyph glyph-name="D" unicode="D" horiz-adv-x="691" d="M29 0 L315 0 C540 0 650 121 650 344 C650 596 523 695 319 695 L29 695 L29 647 C81 646 97 632 97 575 L97 117 C97 60 81 46 29 46 L29 0 Z M255 67 L255 624 L307 624 C428 624 481 567 481 337 C481 113 429 67 304 67 L255 67 Z " />
<glyph glyph-name="E" unicode="E" horiz-adv-x="593" d="M29 0 L553 0 L553 183 L477 183 C469 90 444 67 378 67 L254 67 L254 318 L317 318 C379 318 394 301 398 247 L464 247 L464 457 L398 457 C394 400 378 386 316 386 L254 386 L254 624 L363 624 C433 624 445 602 467 526 L541 526 L530 695 L29 695 L29 647 C81 646 97 632 97 575 L97 117 C97 60 81 46 29 46 L29 0 Z " />
<glyph glyph-name="F" unicode="F" horiz-adv-x="577" d="M29 0 L339 0 L339 46 C271 46 254 61 254 118 L254 314 L317 314 C379 314 394 296 398 242 L464 242 L464 452 L398 452 C394 395 378 381 316 381 L254 381 L254 624 L361 624 C433 624 444 604 468 524 L542 524 L530 695 L29 695 L29 647 C81 646 97 632 97 575 L97 117 C97 60 81 46 29 46 L29 0 Z " />
<glyph glyph-name="G" unicode="G" horiz-adv-x="695" d="M453 77 C434 63 407 55 365 55 C268 55 216 118 216 342 C216 556 264 636 366 636 C443 636 466 596 481 520 L591 520 L591 656 C542 687 469 707 370 707 C175 707 41 591 41 338 C41 112 160 -12 360 -12 C447 -12 549 7 609 53 L609 230 C609 287 625 302 674 302 L674 350 L372 350 L372 302 C438 302 453 287 453 230 L453 77 Z " />
<glyph glyph-name="H" unicode="H" horiz-adv-x="746" d="M492 117 C492 60 476 46 423 46 L423 0 L717 0 L717 46 C665 46 649 60 649 117 L649 575 C649 632 665 646 717 647 L717 695 L423 695 L423 647 C476 646 492 632 492 575 L492 394 L254 394 L254 575 C254 632 270 646 323 647 L323 695 L29 695 L29 647 C81 646 97 632 97 575 L97 117 C97 60 81 46 29 46 L29 0 L323 0 L323 46 C270 46 254 60 254 117 L254 319 L492 319 L492 117 Z " />
<glyph glyph-name="I" unicode="I" horiz-adv-x="352" d="M97 117 C97 60 81 46 29 46 L29 0 L323 0 L323 46 C270 46 254 60 254 117 L254 575 C254 632 270 646 323 647 L323 695 L29 695 L29 647 C81 646 97 632 97 575 L97 117 Z " />
<glyph glyph-name="J" unicode="J" horiz-adv-x="354" d="M99 100 C99 -11 85 -51 -21 -102 L5 -147 C168 -116 256 -55 256 107 L256 575 C256 632 272 646 326 647 L326 695 L29 695 L29 647 C82 646 99 632 99 575 L99 100 Z " />
<glyph glyph-name="K" unicode="K" horiz-adv-x="685" d="M97 117 C97 60 81 46 29 46 L29 0 L323 0 L323 46 C270 46 254 60 254 117 L254 575 C254 632 270 646 323 647 L323 695 L29 695 L29 647 C81 646 97 632 97 575 L97 117 Z M546 577 C587 626 611 643 654 648 L654 695 L430 695 L430 648 C459 648 473 637 473 621 C473 613 469 604 460 592 L270 346 L466 0 L672 0 L672 46 C629 49 611 56 588 95 L407 406 L546 577 Z " />
<glyph glyph-name="L" unicode="L" horiz-adv-x="562" d="M254 575 C254 632 270 646 324 647 L324 695 L29 695 L29 647 C81 646 97 632 97 575 L97 117 C97 60 81 46 29 46 L29 0 L528 0 L542 192 L465 192 C446 96 413 67 348 67 L254 67 L254 575 Z " />
<glyph glyph-name="M" unicode="M" horiz-adv-x="879" d="M824 695 L566 695 L471 346 C457 295 448 233 444 211 L440 211 C437 235 428 299 413 346 L306 695 L47 695 L47 648 C120 645 122 621 119 572 L88 124 C84 64 74 47 18 45 L18 0 L234 0 L234 45 C173 45 167 63 170 118 L188 427 C191 475 193 539 194 565 L199 565 C203 541 215 471 230 423 L361 0 L454 0 L578 449 C589 487 599 545 602 564 L607 564 L607 542 C607 516 608 467 610 440 L637 117 C642 63 635 47 570 45 L570 0 L861 0 L861 45 C805 47 797 66 792 122 L752 572 C747 624 754 644 824 648 L824 695 Z " />
<glyph glyph-name="N" unicode="N" horiz-adv-x="704" d="M534 381 C534 323 540 255 543 232 L538 232 C527 261 503 313 472 362 L260 695 L29 695 L29 647 C81 646 97 632 97 575 L97 117 C97 60 81 46 29 46 L29 0 L252 0 L252 46 C199 46 183 60 183 117 L183 376 C183 440 177 506 174 529 L178 529 C188 507 214 453 261 380 L506 0 L618 0 L618 575 C618 632 633 646 685 647 L685 695 L465 695 L465 647 C518 646 534 632 534 575 L534 381 Z " />
<glyph glyph-name="O" unicode="O" horiz-adv-x="706" d="M354 -12 C550 -12 665 115 665 338 C665 581 545 707 353 707 C171 707 41 593 41 340 C41 118 154 -12 354 -12 L354 -12 Z M353 636 C449 636 491 561 491 343 C491 108 438 53 354 53 C261 53 215 121 215 349 C215 566 259 636 353 636 L353 636 Z " />
<glyph glyph-name="P" unicode="P" horiz-adv-x="605" d="M254 267 L349 267 C541 267 596 373 596 483 C596 628 505 695 347 695 L29 695 L29 647 C81 646 97 632 97 575 L97 117 C97 60 81 46 29 46 L29 0 L339 0 L339 46 C271 46 254 61 254 118 L254 267 Z M429 481 C429 373 400 341 321 341 L254 341 L254 624 L313 624 C400 624 429 586 429 481 L429 481 Z " />
<glyph glyph-name="Q" unicode="Q" horiz-adv-x="707" d="M607 -141 C641 -141 659 -136 673 -126 L700 -16 C683 -20 664 -23 637 -23 C588 -23 522 5 469 16 C588 40 665 167 665 338 C665 581 545 707 353 707 C171 707 41 593 41 340 C41 126 139 10 312 -9 C427 -22 485 -141 607 -141 L607 -141 Z M353 636 C449 636 491 561 491 343 C491 108 438 53 354 53 C261 53 215 121 215 349 C215 566 259 636 353 636 L353 636 Z " />
<glyph glyph-name="R" unicode="R" horiz-adv-x="662" d="M399 313 C507 319 592 372 592 495 C592 640 490 695 346 695 L29 695 L29 647 C81 646 97 632 97 575 L97 117 C97 60 81 46 29 46 L29 0 L322 0 L322 46 C271 46 254 61 254 117 L254 292 C305 287 326 270 361 207 C400 134 414 103 458 0 L660 0 L660 46 C612 48 603 66 584 104 C553 167 534 201 508 238 C486 268 448 296 399 309 L399 313 Z M425 494 C425 389 389 362 314 362 L254 362 L254 624 L316 624 C392 624 425 590 425 494 L425 494 Z " />
<glyph glyph-name="S" unicode="S" horiz-adv-x="551" d="M251 -13 C421 -13 516 67 516 211 C516 335 442 397 329 426 L261 443 C189 461 165 493 165 547 C165 606 197 643 263 643 C344 643 370 595 379 520 L481 520 L481 658 C448 677 383 707 275 707 C129 707 34 633 34 491 C34 372 95 319 200 291 L271 272 C351 250 378 219 378 157 C378 81 335 46 260 46 C183 46 144 84 134 176 L29 176 L29 43 C74 17 136 -13 251 -13 L251 -13 Z " />
<glyph glyph-name="T" unicode="T" horiz-adv-x="609" d="M27 695 L16 509 L92 509 C112 595 118 624 183 624 L226 624 L226 117 C226 59 207 46 147 46 L147 0 L462 0 L462 46 C402 46 383 59 383 117 L383 624 L426 624 C490 624 497 595 517 509 L592 509 L581 695 L27 695 Z " />
<glyph glyph-name="U" unicode="U" horiz-adv-x="690" d="M518 227 C518 109 468 69 380 69 C288 69 247 109 247 224 L247 575 C247 632 263 646 317 647 L317 695 L23 695 L23 647 C75 646 90 632 90 575 L90 221 C90 57 170 -12 348 -12 C526 -12 601 74 601 225 L601 575 C601 632 616 646 667 647 L667 695 L448 695 L448 647 C503 646 518 632 518 575 L518 227 Z " />
<glyph glyph-name="V" unicode="V" horiz-adv-x="698" d="M413 0 L605 582 C622 635 637 643 679 648 L679 695 L457 695 L457 648 C500 648 518 635 518 611 C518 603 517 596 514 588 L417 267 C402 217 390 160 387 136 L381 136 C377 161 365 220 352 265 L254 588 C251 596 249 605 249 611 C249 634 266 648 307 648 L307 695 L19 695 L19 648 C57 643 68 634 85 584 L285 0 L413 0 Z " />
<glyph glyph-name="W" unicode="W" horiz-adv-x="955" d="M585 0 L732 0 L867 579 C879 631 897 643 938 648 L938 695 L720 695 L720 648 C759 647 781 638 781 607 C781 600 780 593 778 583 L720 301 C704 223 698 158 697 139 L691 139 C688 162 677 222 657 302 L557 695 L451 695 L357 300 C338 219 330 155 327 138 L322 138 C321 159 315 236 302 300 L243 590 C241 597 241 602 241 608 C241 634 259 647 299 648 L299 695 L17 695 L17 648 C56 643 71 631 83 579 L216 0 L364 0 L444 327 C460 393 468 456 471 476 L476 476 C478 455 487 383 501 328 L585 0 Z " />
<glyph glyph-name="X" unicode="X" horiz-adv-x="689" d="M558 584 C587 628 601 643 640 648 L640 695 L425 695 L425 648 C458 648 476 636 476 616 C476 608 472 598 466 586 L377 440 L372 440 L284 588 C279 598 275 608 275 616 C275 635 292 648 328 648 L328 695 L35 695 L35 648 C69 643 80 632 109 586 L256 349 L111 115 C81 64 60 51 21 46 L21 0 L241 0 L241 46 C207 48 188 59 188 79 C188 86 191 96 197 105 L299 281 L304 281 L407 107 C414 96 417 87 417 79 C417 60 399 47 364 46 L364 0 L668 0 L668 46 C631 51 616 65 587 111 L420 378 L558 584 Z " />
<glyph glyph-name="Y" unicode="Y" horiz-adv-x="655" d="M365 360 L261 583 C255 596 252 607 252 616 C252 636 267 648 300 648 L300 695 L15 695 L15 648 C51 643 66 633 91 583 L250 265 L250 117 C250 60 234 46 173 46 L173 0 L485 0 L485 46 C424 46 407 60 407 117 L407 267 L558 580 C584 633 599 643 639 648 L639 695 L426 695 L426 648 C461 648 477 639 477 618 C477 609 473 598 468 584 L370 360 L365 360 Z " />
<glyph glyph-name="Z" unicode="Z" horiz-adv-x="567" d="M534 639 L534 695 L61 695 L52 516 L129 516 C149 594 171 629 238 629 L363 629 L26 56 L26 0 L522 0 L534 190 L459 190 C439 100 413 67 336 67 L200 67 L534 639 Z " />
<glyph glyph-name="bracketleft" unicode="&#x5b;" horiz-adv-x="360" d="M331 -155 L331 -99 L225 -99 L225 717 L331 717 L331 773 L90 773 L90 -155 L331 -155 Z " />
<glyph glyph-name="backslash" unicode="&#x5c;" horiz-adv-x="423" d="M142 768 L46 768 L306 -149 L402 -149 L142 768 Z " />
<glyph glyph-name="bracketright" unicode="&#x5d;" horiz-adv-x="360" d="M270 -155 L270 773 L29 773 L29 717 L135 717 L135 -99 L29 -99 L29 -155 L270 -155 Z " />
<glyph glyph-name="asciicircum" unicode="&#x5e;" horiz-adv-x="604" d="M539 310 L350 708 L254 708 L65 310 L167 310 L300 601 L436 310 L539 310 Z " />
<glyph glyph-name="underscore" unicode="&#x5f;" horiz-adv-x="496" d="M498 -125 L498 -52 L-2 -52 L-2 -125 L498 -125 Z " />
<glyph glyph-name="grave" unicode="&#x60;" horiz-adv-x="426" d="M346 593 L158 779 L80 654 L320 558 L346 593 Z " />
<glyph glyph-name="a" unicode="a" horiz-adv-x="540" d="M464 150 C464 241 468 324 468 354 C468 471 388 522 273 522 C192 522 110 497 57 466 L57 364 L167 364 C174 417 190 455 247 455 C300 455 319 422 319 345 L319 299 C306 300 283 301 271 301 C114 301 25 252 25 134 C25 31 95 -14 184 -14 C263 -14 306 28 323 64 C331 22 364 -6 426 -6 C470 -6 507 5 528 18 L528 61 C475 63 464 75 464 150 L464 150 Z M317 243 L314 116 C296 93 264 79 238 79 C200 79 178 96 178 153 C178 214 214 243 282 243 L317 243 Z " />
<glyph glyph-name="b" unicode="b" horiz-adv-x="599" d="M406 247 C406 106 367 74 307 74 C269 74 243 86 220 111 L220 382 C242 406 276 422 312 422 C371 422 406 383 406 247 L406 247 Z M187 60 C210 20 257 -12 334 -12 C467 -12 563 68 563 259 C563 437 486 521 366 521 C292 521 244 487 220 443 L220 635 C220 688 210 719 201 734 L186 734 L7 707 L7 663 C57 661 71 651 71 578 L71 117 C71 52 67 24 58 0 L156 0 C170 12 182 41 187 60 L187 60 Z " />
<glyph glyph-name="c" unicode="c" horiz-adv-x="491" d="M456 481 C421 504 371 521 292 521 C153 521 35 426 35 246 C35 71 145 -12 279 -12 C355 -12 423 15 469 69 L442 107 C400 82 371 71 324 71 C249 71 189 119 189 269 C189 422 245 459 292 459 C333 459 341 433 345 371 L456 371 L456 481 Z " />
<glyph glyph-name="d" unicode="d" horiz-adv-x="611" d="M391 68 C394 26 411 -5 418 -13 L433 -13 L595 23 L595 64 C542 68 531 76 531 149 L531 734 L505 734 L319 707 L319 663 C368 661 383 651 383 578 L383 472 C358 503 314 521 264 521 C133 521 35 439 35 251 C35 68 119 -12 236 -12 C304 -12 363 21 391 68 L391 68 Z M197 262 C197 402 237 437 297 437 C329 437 360 427 383 400 L383 122 C355 94 324 80 291 80 C231 80 197 121 197 262 L197 262 Z " />
<glyph glyph-name="e" unicode="e" horiz-adv-x="529" d="M333 74 C237 74 199 120 195 233 L499 233 L499 276 C499 429 435 522 278 522 C133 522 35 425 35 256 C35 86 126 -12 281 -12 C370 -12 436 15 490 68 L466 109 C423 86 375 74 333 74 L333 74 Z M279 460 C331 460 351 422 351 301 L196 301 C203 423 228 460 279 460 L279 460 Z " />
<glyph glyph-name="f" unicode="f" horiz-adv-x="350" d="M238 433 L342 433 L358 509 L237 509 L237 604 C237 651 252 674 284 674 C309 674 323 659 325 614 L411 614 L414 719 C383 733 319 741 278 741 C163 741 89 688 89 582 L89 509 L28 484 L28 433 L89 433 L89 115 C89 58 78 46 28 45 L28 0 L318 0 L318 45 C249 46 238 59 238 115 L238 433 Z " />
<glyph glyph-name="g" unicode="g" horiz-adv-x="548" d="M257 -198 C405 -198 513 -145 513 -18 C513 90 446 124 318 130 L222 134 C202 135 194 144 194 157 C194 173 208 184 229 194 L241 194 C424 196 464 277 464 345 C464 387 444 416 418 434 C442 424 461 420 484 420 C514 420 540 431 566 449 L515 544 C487 520 448 496 413 496 C389 496 380 499 356 505 C326 513 293 522 252 522 C122 522 37 461 37 354 C37 277 86 224 168 207 C100 189 57 151 57 101 C57 57 79 20 132 14 C153 11 208 8 242 7 C347 5 379 -10 379 -60 C379 -109 348 -137 262 -137 C188 -137 159 -117 159 -69 C159 -50 163 -36 171 -21 L72 -22 C44 -33 20 -58 20 -92 C20 -162 115 -198 257 -198 L257 -198 Z M251 253 C209 253 185 283 185 356 C185 432 208 460 251 460 C298 460 319 433 319 353 C319 282 297 253 251 253 L251 253 Z " />
<glyph glyph-name="h" unicode="h" horiz-adv-x="620" d="M230 635 C230 687 221 719 212 734 L197 734 L17 707 L17 663 C67 661 81 651 81 578 L81 115 C81 58 71 46 21 45 L21 0 L291 0 L291 45 C239 46 230 59 230 113 L230 378 C256 398 286 416 331 416 C372 416 397 395 397 335 L397 113 C397 59 388 46 336 45 L336 0 L605 0 L605 45 C556 46 545 58 545 115 L545 370 C545 473 483 521 401 521 C323 521 274 486 230 437 L230 635 Z " />
<glyph glyph-name="i" unicode="i" horiz-adv-x="315" d="M297 0 L297 45 C245 46 236 58 236 115 L236 517 L214 517 L27 482 L27 438 C77 436 87 426 87 353 L87 115 C87 58 76 46 26 45 L26 0 L297 0 Z M244 650 C244 698 206 737 157 737 C107 737 67 698 67 650 C67 601 107 562 155 562 C205 562 244 601 244 650 L244 650 Z " />
<glyph glyph-name="j" unicode="j" horiz-adv-x="306" d="M86 16 C86 -87 67 -134 6 -162 L35 -206 C127 -184 234 -133 234 16 L234 517 L212 517 L25 482 L25 438 C75 436 86 426 86 353 L86 16 Z M243 650 C243 698 205 737 156 737 C106 737 65 698 65 650 C65 601 105 562 153 562 C203 562 243 601 243 650 L243 650 Z " />
<glyph glyph-name="k" unicode="k" horiz-adv-x="588" d="M21 0 L291 0 L291 45 C239 46 230 59 230 113 L230 635 C230 695 216 725 212 734 L197 734 L17 707 L17 663 C67 661 81 651 81 578 L81 115 C81 58 71 46 21 45 L21 0 Z M401 0 L587 0 L587 45 C554 49 533 56 505 100 L372 305 L461 399 C499 439 525 458 565 463 L565 509 L336 509 L336 463 C384 462 399 436 367 401 L238 260 L401 0 Z " />
<glyph glyph-name="l" unicode="l" horiz-adv-x="312" d="M231 635 C231 695 218 724 213 734 L198 734 L17 707 L17 663 C68 661 83 651 83 578 L83 115 C83 58 72 46 21 45 L21 0 L293 0 L293 45 C241 46 231 59 231 116 L231 635 Z " />
<glyph glyph-name="m" unicode="m" horiz-adv-x="911" d="M525 433 C504 488 454 521 395 521 C323 521 273 487 230 435 C227 475 209 510 203 522 L188 522 L27 482 L27 438 C77 436 87 426 87 353 L87 115 C87 58 76 46 26 45 L26 0 L292 0 L292 45 C241 45 236 58 236 112 L236 380 C262 398 289 416 329 416 C367 416 389 395 389 335 L389 112 C389 58 383 45 333 45 L333 0 L592 0 L592 45 C545 46 538 58 538 112 L538 383 C562 400 589 416 628 416 C666 416 688 395 688 335 L688 112 C688 58 682 45 632 45 L632 0 L896 0 L896 45 C847 46 836 58 836 115 L836 370 C836 473 774 521 694 521 C623 521 568 486 525 433 L525 433 Z " />
<glyph glyph-name="n" unicode="n" horiz-adv-x="625" d="M551 370 C551 473 488 521 406 521 C328 521 275 481 232 432 C229 472 210 511 203 522 L188 522 L27 482 L27 438 C77 436 87 426 87 353 L87 115 C87 58 76 46 26 45 L26 0 L297 0 L297 45 C245 46 236 59 236 113 L236 378 C262 398 292 416 336 416 C378 416 402 395 402 335 L402 113 C402 59 393 46 342 45 L342 0 L610 0 L610 45 C562 46 551 58 551 115 L551 370 Z " />
<glyph glyph-name="o" unicode="o" horiz-adv-x="578" d="M543 262 C543 437 439 522 294 522 C135 522 35 415 35 253 C35 85 129 -13 286 -13 C425 -13 543 72 543 262 L543 262 Z M380 266 C380 112 350 49 291 49 C219 49 198 111 198 251 C198 409 226 458 289 458 C349 458 380 411 380 266 L380 266 Z " />
<glyph glyph-name="p" unicode="p" horiz-adv-x="615" d="M422 241 C422 102 382 67 320 67 C289 67 258 77 236 104 L236 382 C264 411 295 422 328 422 C388 422 422 382 422 241 L422 241 Z M230 437 C227 478 208 513 203 522 L188 522 L27 482 L27 438 C77 436 87 426 87 353 L87 -81 C87 -138 76 -150 26 -151 L26 -196 L299 -196 L299 -151 C246 -150 236 -137 236 -81 L236 34 C264 1 305 -11 348 -11 C484 -11 580 72 580 259 C580 439 499 521 380 521 C311 521 257 483 230 437 L230 437 Z " />
<glyph glyph-name="q" unicode="q" horiz-adv-x="600" d="M197 262 C197 402 237 437 297 437 C329 437 360 427 383 400 L383 122 C355 94 324 80 291 80 C231 80 197 121 197 262 L197 262 Z M408 461 C379 498 334 521 271 521 C140 521 35 439 35 251 C35 68 119 -12 236 -12 C304 -12 355 21 383 66 L383 -81 C383 -137 373 -150 320 -151 L320 -196 L592 -196 L592 -151 C543 -150 532 -138 532 -81 L532 379 C532 439 537 493 544 519 L449 519 C432 509 416 489 408 461 L408 461 Z " />
<glyph glyph-name="r" unicode="r" horiz-adv-x="412" d="M234 394 C232 460 210 509 203 522 L188 522 L27 482 L27 438 C77 436 87 426 87 353 L87 115 C87 58 76 46 26 45 L26 0 L315 0 L315 45 C247 46 236 58 236 115 L236 271 C236 349 256 373 332 373 C356 373 369 370 387 365 L415 516 C407 519 393 522 378 522 C323 522 259 480 234 394 L234 394 Z " />
<glyph glyph-name="s" unicode="s" horiz-adv-x="467" d="M218 -13 C358 -13 438 49 438 157 C438 248 382 301 283 323 L210 340 C169 349 151 365 151 398 C151 437 177 457 223 457 C274 457 308 437 316 380 L408 380 L408 486 C381 498 325 522 235 522 C125 522 34 466 34 353 C34 266 83 215 166 197 L243 181 C290 171 313 153 313 112 C313 68 279 49 230 49 C175 49 138 68 131 138 L32 138 L32 30 C60 15 112 -13 218 -13 L218 -13 Z " />
<glyph glyph-name="t" unicode="t" horiz-adv-x="358" d="M344 509 L223 509 C223 560 227 620 232 656 L128 643 C103 605 88 556 82 511 L15 484 L15 433 L75 433 L75 131 C75 21 126 -13 217 -13 C272 -13 315 -1 353 23 L338 75 C315 66 299 63 281 63 C231 63 224 90 224 164 L224 433 L328 433 L344 509 Z " />
<glyph glyph-name="u" unicode="u" horiz-adv-x="607" d="M527 517 L503 517 L319 482 L319 438 C368 436 379 426 379 353 L379 120 C349 95 323 83 289 83 C243 83 225 110 225 164 L225 517 L201 517 L17 482 L17 438 C65 436 76 426 76 353 L76 129 C76 30 133 -13 218 -13 C295 -13 348 20 387 68 C391 26 407 -1 414 -13 L429 -13 L589 23 L589 64 C538 68 527 76 527 149 L527 517 Z " />
<glyph glyph-name="v" unicode="v" horiz-adv-x="552" d="M335 -5 L482 401 C500 449 512 458 552 463 L552 509 L343 509 L343 463 C384 462 402 452 402 428 C402 422 400 414 397 404 L333 207 C323 174 314 138 313 130 L307 130 C305 145 299 174 288 207 L220 404 C216 414 214 422 214 429 C214 450 229 462 271 463 L271 509 L0 509 L0 463 C35 458 45 449 64 401 L220 -5 L335 -5 Z " />
<glyph glyph-name="w" unicode="w" horiz-adv-x="814" d="M379 233 C390 273 399 322 401 338 L406 338 C407 329 414 274 428 233 L508 -5 L631 -5 L743 398 C757 447 771 458 813 463 L813 509 L606 509 L606 463 C645 462 662 453 662 428 C662 419 661 412 659 405 L615 214 C609 188 602 145 600 134 L595 134 C593 146 588 185 577 219 L484 509 L376 509 L301 219 C291 182 287 142 286 134 L280 134 C279 144 273 184 264 219 L215 404 C213 413 212 420 212 427 C212 450 230 462 267 463 L267 509 L1 509 L1 463 C37 458 49 449 66 394 L187 -5 L312 -5 L379 233 Z " />
<glyph glyph-name="x" unicode="x" horiz-adv-x="560" d="M246 200 L250 200 L320 97 C326 89 331 77 331 68 C331 54 318 46 293 45 L293 0 L557 0 L557 45 C515 49 504 63 470 113 L361 271 L453 398 C486 443 497 458 540 463 L540 509 L346 509 L346 463 C373 462 384 453 384 439 C384 430 381 422 375 412 L322 332 L318 332 L265 412 C257 424 253 434 253 442 C253 455 263 462 288 463 L288 509 L24 509 L24 463 C63 458 69 449 106 398 L206 257 L102 113 C62 58 54 49 15 45 L15 0 L211 0 L211 45 C181 46 168 55 168 72 C168 80 171 89 178 99 L246 200 Z " />
<glyph glyph-name="y" unicode="y" horiz-adv-x="552" d="M113 -207 C232 -190 294 -115 337 3 L482 401 C500 449 512 458 552 463 L552 509 L343 509 L343 463 C389 461 404 456 404 434 C404 428 403 421 400 412 L332 194 C321 158 313 123 311 113 L306 113 C304 124 299 159 286 199 L217 412 C213 422 211 430 211 436 C211 453 225 461 271 463 L271 509 L0 509 L0 463 C37 458 47 446 64 399 L141 187 C175 96 187 55 200 3 L258 8 C223 -72 151 -95 63 -111 L113 -207 Z " />
<glyph glyph-name="z" unicode="z" horiz-adv-x="499" d="M478 153 L419 153 C390 69 373 62 289 62 L209 62 L471 451 L471 509 L57 509 L57 355 L117 355 C128 430 143 446 211 446 L300 446 L41 60 L41 0 L458 0 L478 153 Z " />
<glyph glyph-name="braceleft" unicode="&#x7b;" horiz-adv-x="390" d="M259 627 C259 676 271 722 334 722 L365 722 L365 773 L270 773 C173 773 131 719 131 633 L131 424 C131 357 95 333 25 333 L25 284 C95 284 131 260 131 193 L131 -15 C131 -101 169 -155 270 -155 L365 -155 L365 -104 L334 -104 C271 -104 259 -58 259 -9 L259 178 C259 277 198 302 168 307 L168 311 C198 316 259 341 259 442 L259 627 Z " />
<glyph glyph-name="bar" unicode="&#x7c;" horiz-adv-x="269" d="M179 -149 L179 768 L90 768 L90 -149 L179 -149 Z " />
<glyph glyph-name="braceright" unicode="&#x7d;" horiz-adv-x="390" d="M131 442 C131 341 192 316 222 311 L222 307 C192 302 131 277 131 178 L131 -10 C131 -59 119 -105 56 -105 L25 -105 L25 -155 L120 -155 C217 -155 259 -101 259 -15 L259 193 C259 260 295 284 365 284 L365 333 C295 333 259 357 259 424 L259 633 C259 719 221 773 120 773 L25 773 L25 722 L56 722 C119 722 131 676 131 627 L131 442 Z " />
<glyph glyph-name="asciitilde" unicode="&#x7e;" horiz-adv-x="577" d="M377 343 C325 343 261 379 197 379 C132 379 83 311 71 231 L107 214 C126 253 157 268 194 268 C240 268 311 233 375 233 C438 233 487 297 506 376 L468 394 C449 355 412 343 377 343 L377 343 Z " />
<glyph glyph-name="uni00A0" unicode="&#xa0;" horiz-adv-x="225" d="" />
<glyph glyph-name="exclamdown" unicode="&#xa1;" horiz-adv-x="315" d="M65 -188 L251 -171 L204 293 L111 293 L65 -188 Z M66 435 C66 385 108 344 158 344 C208 344 249 385 249 435 C249 486 208 527 158 527 C108 527 66 486 66 435 L66 435 Z " />
<glyph glyph-name="cent" unicode="&#xa2;" horiz-adv-x="520" d="M320 -101 L320 -10 C401 -2 451 31 490 80 L463 115 C413 79 370 66 320 65 L320 460 C354 451 374 422 377 371 L477 371 L477 481 C446 501 388 517 320 521 L320 605 L265 605 L265 520 C138 508 35 414 35 246 C35 77 137 -6 265 -12 L265 -101 L320 -101 Z M183 269 C183 394 216 443 265 457 L265 73 C215 92 183 146 183 269 L183 269 Z " />
<glyph glyph-name="sterling" unicode="&#xa3;" horiz-adv-x="618" d="M273 67 L273 307 L464 307 L464 367 L273 367 L273 490 C273 576 298 617 357 617 C404 617 420 586 424 517 L536 517 L536 633 C509 656 444 680 362 680 C237 680 116 618 116 457 L116 367 L36 367 L36 307 L116 307 L116 117 C116 60 93 46 33 46 L33 0 L556 0 L571 192 L494 192 C475 96 441 67 376 67 L273 67 Z " />
<glyph glyph-name="currency" unicode="&#xa4;" horiz-adv-x="480" d="M240 101 C264 101 287 104 307 110 L359 31 L418 70 L369 144 C407 176 430 223 430 285 C430 346 408 394 371 427 L418 499 L359 538 L309 461 C288 468 265 472 240 472 C213 472 189 468 167 460 L116 538 L58 499 L106 425 C71 392 50 345 50 285 C50 225 72 178 107 146 L58 70 L116 31 L168 112 C190 104 214 101 240 101 L240 101 Z M239 410 C304 410 323 364 323 292 C323 204 302 162 239 162 C177 162 156 204 156 292 C156 364 175 410 239 410 L239 410 Z " />
<glyph glyph-name="yen" unicode="&#xa5;" horiz-adv-x="647" d="M579 196 L579 252 L404 252 L404 267 L428 319 L579 319 L579 375 L456 375 L555 580 C581 633 596 643 636 648 L636 695 L423 695 L423 648 C457 648 473 639 473 618 C473 609 470 598 464 584 L367 360 L361 360 L257 583 C251 596 248 607 248 616 C248 636 263 648 297 648 L297 695 L12 695 L12 648 C47 643 62 633 87 583 L191 375 L72 375 L72 319 L219 319 L247 265 L247 252 L72 252 L72 196 L247 196 L247 116 C247 59 231 45 170 44 L170 0 L481 0 L481 44 C420 45 404 59 404 116 L404 196 L579 196 Z " />
<glyph glyph-name="brokenbar" unicode="&#xa6;" horiz-adv-x="274" d="M179 -149 L179 251 L90 251 L90 -149 L179 -149 Z M179 364 L179 764 L90 764 L90 364 L179 364 Z " />
<glyph glyph-name="section" unicode="&#xa7;" horiz-adv-x="544" d="M508 341 C508 434 446 480 351 513 L248 548 C210 561 187 577 187 611 C187 652 214 674 258 674 C307 674 340 654 348 598 L441 598 L441 704 C414 716 357 739 270 739 C163 739 72 681 72 567 C72 492 107 449 163 422 C86 401 34 350 34 264 C34 172 88 130 168 101 L275 63 C319 47 344 29 344 -11 C344 -55 310 -74 263 -74 C209 -74 173 -54 166 16 L67 16 L67 -92 C95 -107 146 -133 251 -133 C390 -133 467 -74 467 33 C467 103 434 149 378 181 C457 206 508 258 508 341 L508 341 Z M317 369 C363 355 384 329 384 291 C384 244 349 219 302 210 L212 243 C172 258 153 280 153 315 C153 355 182 388 225 398 L317 369 Z " />
<glyph glyph-name="dieresis" unicode="&#xa8;" horiz-adv-x="547" d="M244 646 C244 692 209 728 163 728 C117 728 80 692 80 646 C80 602 117 566 162 566 C208 566 244 602 244 646 L244 646 Z M467 646 C467 692 432 728 386 728 C340 728 303 692 303 646 C303 602 340 566 385 566 C431 566 467 602 467 646 L467 646 Z " />
<glyph glyph-name="copyright" unicode="&#xa9;" horiz-adv-x="801" d="M325 355 C325 452 340 511 409 511 C455 511 464 483 470 439 L549 439 L549 521 C523 537 476 554 409 554 C267 554 199 479 199 346 C199 213 269 143 412 143 C479 143 525 160 552 175 L552 258 L478 258 C471 211 455 192 411 192 C343 192 325 259 325 355 L325 355 Z M401 31 C233 31 100 153 100 343 C100 537 233 657 401 657 C569 657 702 537 702 343 C702 153 569 31 401 31 L401 31 Z M401 -12 C603 -12 757 128 757 344 C757 558 597 701 401 701 C205 701 45 558 45 344 C45 128 199 -12 401 -12 L401 -12 Z " />
<glyph glyph-name="ordfeminine" unicode="&#xaa;" horiz-adv-x="429" d="M362 462 C362 530 365 593 365 616 C365 704 294 742 208 742 C150 742 83 724 44 700 L44 623 L136 623 C138 664 149 690 190 690 C229 690 243 665 243 608 L243 574 C233 575 221 576 200 576 C92 576 20 539 20 450 C20 372 77 338 142 338 C202 338 233 367 246 397 C253 365 276 344 322 344 C355 344 392 353 407 362 L407 397 C369 398 362 405 362 462 L362 462 Z M242 531 L239 438 C226 420 209 410 187 410 C159 410 145 430 145 467 C145 510 167 533 216 533 C224 533 233 532 242 531 L242 531 Z " />
<glyph glyph-name="guillemotleft" unicode="&#xab;" horiz-adv-x="609" d="M194 248 L307 434 L255 480 L44 251 L255 23 L307 69 L194 248 Z M434 248 L547 434 L494 480 L284 251 L494 23 L547 69 L434 248 Z " />
<glyph glyph-name="logicalnot" unicode="&#xac;" horiz-adv-x="506" d="M55 228 L374 228 L374 69 L451 69 L451 301 L55 301 L55 228 Z " />
<glyph glyph-name="uni00AD" unicode="&#xad;" horiz-adv-x="348" d="M300 222 L300 337 L48 337 L48 222 L300 222 Z " />
<glyph glyph-name="registered" unicode="&#xae;" horiz-adv-x="801" d="M409 185 C367 185 364 197 364 241 L364 324 C390 323 395 311 422 250 C434 222 451 187 465 150 L597 150 L597 185 C565 185 561 190 547 219 C532 250 522 269 512 285 C495 315 471 327 443 332 L443 335 C510 339 556 358 556 440 C556 524 495 548 403 548 L221 548 L221 511 C263 511 264 498 264 455 L264 241 C264 198 263 185 221 185 L221 150 L409 150 L409 185 Z M452 436 C452 380 436 363 391 363 L364 363 L364 502 L380 502 C436 502 452 486 452 436 L452 436 Z M401 31 C233 31 100 153 100 343 C100 537 233 657 401 657 C569 657 702 537 702 343 C702 153 569 31 401 31 L401 31 Z M401 -12 C603 -12 757 128 757 344 C757 558 597 701 401 701 C205 701 45 558 45 344 C45 128 199 -12 401 -12 L401 -12 Z " />
<glyph glyph-name="macron" unicode="&#xaf;" horiz-adv-x="462" d="M382 601 L382 679 L80 679 L80 601 L382 601 Z " />
<glyph glyph-name="degree" unicode="&#xb0;" horiz-adv-x="418" d="M373 525 C373 631 312 696 207 696 C110 696 45 631 45 527 C45 422 106 357 209 357 C306 357 373 422 373 525 L373 525 Z M289 523 C289 459 264 427 211 427 C157 427 130 454 130 532 C130 597 155 629 209 629 C262 629 289 602 289 523 L289 523 Z " />
<glyph glyph-name="plusminus" unicode="&#xb1;" horiz-adv-x="506" d="M216 507 L216 365 L55 365 L55 292 L216 292 L216 141 L293 141 L293 292 L451 292 L451 365 L293 365 L293 507 L216 507 Z M55 24 L451 24 L451 98 L55 98 L55 24 Z " />
<glyph glyph-name="twosuperior" unicode="&#xb2;" horiz-adv-x="384" d="M180 661 C113 661 60 630 28 597 L51 561 C74 577 102 587 136 587 C169 587 198 568 198 528 C198 467 168 441 89 371 L20 310 L20 250 L343 250 L354 333 L122 333 L165 356 C267 410 332 452 332 540 C332 620 271 661 180 661 L180 661 Z " />
<glyph glyph-name="threesuperior" unicode="&#xb3;" horiz-adv-x="353" d="M128 598 C162 598 188 581 188 547 C188 500 164 486 121 486 C106 486 99 486 86 487 L86 433 C98 434 104 434 116 434 C165 434 189 413 189 367 C189 314 149 281 82 281 C59 281 35 283 12 288 L20 240 C42 234 72 230 106 230 C212 230 322 269 322 364 C322 418 277 460 204 464 C265 477 310 510 310 562 C310 627 252 661 173 661 C108 661 62 641 25 611 L46 573 C69 587 92 598 128 598 L128 598 Z " />
<glyph glyph-name="acute" unicode="&#xb4;" horiz-adv-x="426" d="M106 558 L346 654 L268 779 L80 593 L106 558 Z " />
<glyph glyph-name="mu" unicode="&#xb5;" horiz-adv-x="598" d="M48 -205 L204 -184 L204 -125 C204 -70 198 -34 186 -1 L190 2 C204 -8 226 -12 249 -12 C304 -12 346 23 370 62 C384 21 414 -12 478 -12 C526 -12 561 -1 590 16 L590 68 C578 65 565 64 554 64 C520 64 507 81 507 123 L507 521 L469 521 L358 502 L358 126 C330 96 293 80 262 80 C237 80 204 90 204 170 C204 205 205 514 205 521 L166 521 L52 502 C55 398 56 313 57 166 L57 11 C57 -60 54 -121 43 -175 L48 -205 Z " />
<glyph glyph-name="paragraph" unicode="&#xb6;" horiz-adv-x="662" d="M552 574 C552 631 565 648 632 650 L632 695 L236 695 C81 695 20 635 20 492 C20 338 101 284 235 284 L325 284 L325 -119 L398 -119 L398 634 L479 634 L479 -119 L552 -119 L552 574 Z M208 492 C208 609 223 634 289 634 L325 634 L325 347 L289 347 C223 347 208 389 208 492 L208 492 Z " />
<glyph glyph-name="periodcentered" unicode="&#xb7;" horiz-adv-x="301" d="M243 282 C243 333 201 375 150 375 C99 375 57 333 57 282 C57 229 99 187 150 187 C201 187 243 229 243 282 L243 282 Z " />
<glyph glyph-name="cedilla" unicode="&#xb8;" horiz-adv-x="288" d="M256 -119 C256 -73 225 -45 160 -41 L175 11 L127 17 L100 -77 L99 -98 C133 -99 158 -107 158 -130 C158 -152 145 -158 123 -158 C101 -158 78 -154 56 -140 L40 -179 C59 -192 92 -204 138 -204 C216 -204 256 -179 256 -119 L256 -119 Z " />
<glyph glyph-name="onesuperior" unicode="&#xb9;" horiz-adv-x="350" d="M250 653 L178 653 L30 562 L49 523 C82 533 110 546 133 561 L133 357 C133 302 120 290 47 287 L47 250 L330 250 L330 287 C261 289 250 303 250 356 L250 653 Z " />
<glyph glyph-name="ordmasculine" unicode="&#xba;" horiz-adv-x="441" d="M414 545 C414 677 336 741 224 741 C103 741 27 660 27 538 C27 411 99 338 218 338 C324 338 414 402 414 545 L414 545 Z M287 548 C287 433 265 386 223 386 C172 386 157 433 157 538 C157 655 177 692 222 692 C264 692 287 656 287 548 L287 548 Z " />
<glyph glyph-name="guillemotright" unicode="&#xbb;" horiz-adv-x="609" d="M302 69 L355 23 L565 251 L355 480 L302 434 L415 248 L302 69 Z M63 69 L115 23 L325 251 L115 480 L63 434 L176 248 L63 69 Z " />
<glyph glyph-name="onequarter" unicode="&#xbc;" horiz-adv-x="973" d="M250 653 L178 653 L30 562 L49 523 C82 533 110 546 133 561 L133 357 C133 302 120 290 47 287 L47 250 L330 250 L330 287 C261 289 250 303 250 356 L250 653 Z M759 730 L690 730 L203 -123 L272 -123 L759 730 Z M779 -12 L895 -3 L895 90 L947 90 L947 144 L895 144 L895 305 L817 294 C790 258 779 213 779 144 L677 144 L836 402 L735 402 L596 140 L596 90 L779 90 L779 -12 Z " />
<glyph glyph-name="onehalf" unicode="&#xbd;" horiz-adv-x="997" d="M250 653 L178 653 L30 562 L49 523 C82 533 110 546 133 561 L133 357 C133 302 120 290 47 287 L47 250 L330 250 L330 287 C261 289 250 303 250 356 L250 653 Z M759 730 L690 730 L203 -123 L272 -123 L759 730 Z M797 411 C729 411 676 380 645 347 L667 311 C690 327 718 337 753 337 C786 337 815 318 815 278 C815 217 785 191 706 121 L637 60 L637 0 L959 0 L971 83 L738 83 L777 104 C879 157 949 200 949 290 C949 370 887 411 797 411 L797 411 Z " />
<glyph glyph-name="threequarters" unicode="&#xbe;" horiz-adv-x="955" d="M128 598 C162 598 188 581 188 547 C188 500 164 486 121 486 C106 486 99 486 86 487 L86 433 C98 434 104 434 116 434 C165 434 189 413 189 367 C189 314 149 281 82 281 C59 281 35 283 12 288 L20 240 C42 234 72 230 106 230 C212 230 322 269 322 364 C322 418 277 460 204 464 C265 477 310 510 310 562 C310 627 252 661 173 661 C108 661 62 641 25 611 L46 573 C69 587 92 598 128 598 L128 598 Z M741 730 L671 730 L184 -123 L254 -123 L741 730 Z M760 -12 L877 -3 L877 90 L929 90 L929 144 L877 144 L877 305 L798 294 C772 258 760 213 760 144 L659 144 L817 402 L717 402 L578 140 L578 90 L760 90 L760 -12 Z " />
<glyph glyph-name="questiondown" unicode="&#xbf;" horiz-adv-x="469" d="M164 433 C164 383 207 342 258 342 C309 342 350 383 350 433 C350 485 309 527 258 527 C207 527 164 485 164 433 L164 433 Z M256 -122 C213 -122 186 -92 186 -48 C186 15 220 45 256 78 C302 120 324 160 324 201 C324 244 305 276 291 292 L226 292 C229 277 231 255 231 244 C231 191 207 172 146 131 C105 104 37 59 37 -33 C37 -145 128 -192 244 -192 C315 -192 391 -171 435 -143 L435 -27 L336 -27 C332 -89 303 -122 256 -122 L256 -122 Z " />
<glyph glyph-name="Agrave" unicode="&#xc0;" horiz-adv-x="671" d="M435 101 C438 92 440 83 440 76 C440 56 424 48 379 46 L379 0 L663 0 L663 46 C622 51 612 67 596 113 L397 695 L271 695 L82 113 C65 60 51 51 8 46 L8 0 L229 0 L229 46 C185 48 165 51 165 76 C165 82 166 90 169 101 L194 187 L408 187 L435 101 Z M264 428 C282 489 290 523 295 543 L300 543 C304 523 312 486 330 430 L384 261 L215 261 L264 428 Z M440 765 L234 929 L170 799 L416 727 L440 765 Z " />
<glyph glyph-name="Aacute" unicode="&#xc1;" horiz-adv-x="671" d="M435 101 C438 92 440 83 440 76 C440 56 424 48 379 46 L379 0 L663 0 L663 46 C622 51 612 67 596 113 L397 695 L271 695 L82 113 C65 60 51 51 8 46 L8 0 L229 0 L229 46 C185 48 165 51 165 76 C165 82 166 90 169 101 L194 187 L408 187 L435 101 Z M264 428 C282 489 290 523 295 543 L300 543 C304 523 312 486 330 430 L384 261 L215 261 L264 428 Z M243 727 L489 799 L424 929 L219 765 L243 727 Z " />
<glyph glyph-name="Acircumflex" unicode="&#xc2;" horiz-adv-x="671" d="M435 101 C438 92 440 83 440 76 C440 56 424 48 379 46 L379 0 L663 0 L663 46 C622 51 612 67 596 113 L397 695 L271 695 L82 113 C65 60 51 51 8 46 L8 0 L229 0 L229 46 C185 48 165 51 165 76 C165 82 166 90 169 101 L194 187 L408 187 L435 101 Z M264 428 C282 489 290 523 295 543 L300 543 C304 523 312 486 330 430 L384 261 L215 261 L264 428 Z M485 731 L510 768 L334 941 L158 768 L183 731 L334 808 L485 731 Z " />
<glyph glyph-name="Atilde" unicode="&#xc3;" horiz-adv-x="671" d="M435 101 C438 92 440 83 440 76 C440 56 424 48 379 46 L379 0 L663 0 L663 46 C622 51 612 67 596 113 L397 695 L271 695 L82 113 C65 60 51 51 8 46 L8 0 L229 0 L229 46 C185 48 165 51 165 76 C165 82 166 90 169 101 L194 187 L408 187 L435 101 Z M264 428 C282 489 290 523 295 543 L300 543 C304 523 312 486 330 430 L384 261 L215 261 L264 428 Z M404 857 C355 857 326 895 266 895 C206 895 165 832 154 760 L189 745 C208 779 228 794 262 794 C305 794 339 758 400 758 C458 758 499 816 516 887 L479 903 C461 868 435 857 404 857 L404 857 Z " />
<glyph glyph-name="Adieresis" unicode="&#xc4;" horiz-adv-x="671" d="M435 101 C438 92 440 83 440 76 C440 56 424 48 379 46 L379 0 L663 0 L663 46 C622 51 612 67 596 113 L397 695 L271 695 L82 113 C65 60 51 51 8 46 L8 0 L229 0 L229 46 C185 48 165 51 165 76 C165 82 166 90 169 101 L194 187 L408 187 L435 101 Z M264 428 C282 489 290 523 295 543 L300 543 C304 523 312 486 330 430 L384 261 L215 261 L264 428 Z M305 817 C305 863 270 898 224 898 C178 898 141 863 141 817 C141 773 177 737 223 737 C269 737 305 773 305 817 L305 817 Z M528 817 C528 863 493 898 447 898 C401 898 364 863 364 817 C364 773 400 737 446 737 C492 737 528 773 528 817 L528 817 Z " />
<glyph glyph-name="Aring" unicode="&#xc5;" horiz-adv-x="671" d="M435 101 C438 92 440 83 440 76 C440 56 424 48 379 46 L379 0 L663 0 L663 46 C622 51 612 67 596 113 L397 695 L271 695 L82 113 C65 60 51 51 8 46 L8 0 L229 0 L229 46 C185 48 165 51 165 76 C165 82 166 90 169 101 L194 187 L408 187 L435 101 Z M264 428 C282 489 290 523 295 543 L300 543 C304 523 312 486 330 430 L384 261 L215 261 L264 428 Z M335 729 C405 729 453 779 453 845 C453 911 405 961 335 961 C266 961 218 911 218 845 C218 779 266 729 335 729 L335 729 Z M335 907 C370 907 391 880 391 845 C391 812 370 786 335 786 C301 786 279 812 279 845 C279 880 301 907 335 907 L335 907 Z " />
<glyph glyph-name="AE" unicode="&#xc6;" horiz-adv-x="933" d="M97 108 C73 60 50 51 8 46 L8 0 L234 0 L234 46 C194 48 174 54 174 72 C174 79 177 87 183 99 L248 225 L443 225 L443 117 C443 60 427 46 374 46 L374 0 L893 0 L893 183 L817 183 C809 90 784 67 718 67 L594 67 L594 318 L656 318 C718 318 734 301 738 247 L804 247 L804 457 L738 457 C734 400 717 386 655 386 L594 386 L594 624 L703 624 C773 624 784 602 806 526 L881 526 L869 695 L284 695 L284 647 C322 646 343 636 343 612 C343 602 339 590 332 576 L97 108 Z M446 624 L452 624 C448 591 443 515 443 430 L443 299 L286 299 L446 624 Z " />
<glyph glyph-name="Ccedilla" unicode="&#xc7;" horiz-adv-x="620" d="M445 -119 C445 -73 414 -45 349 -41 L357 -12 C457 -12 542 13 583 43 L583 175 L480 175 C467 93 441 56 362 56 C276 56 216 102 216 344 C216 572 268 636 362 636 C431 636 454 597 470 521 L578 521 L578 657 C530 688 462 707 364 707 C172 707 41 592 41 338 C41 131 135 9 308 -10 L289 -77 L288 -98 C322 -99 348 -107 348 -130 C348 -152 334 -158 312 -158 C290 -158 268 -154 246 -140 L229 -179 C248 -192 281 -204 327 -204 C405 -204 445 -179 445 -119 L445 -119 Z " />
<glyph glyph-name="Egrave" unicode="&#xc8;" horiz-adv-x="593" d="M418 765 L212 929 L148 799 L394 727 L418 765 Z M29 0 L553 0 L553 183 L477 183 C469 90 444 67 378 67 L254 67 L254 318 L317 318 C379 318 394 301 398 247 L464 247 L464 457 L398 457 C394 400 378 386 316 386 L254 386 L254 624 L363 624 C433 624 445 602 467 526 L541 526 L530 695 L29 695 L29 647 C81 646 97 632 97 575 L97 117 C97 60 81 46 29 46 L29 0 Z " />
<glyph glyph-name="Eacute" unicode="&#xc9;" horiz-adv-x="593" d="M196 727 L442 799 L377 929 L172 765 L196 727 Z M29 0 L553 0 L553 183 L477 183 C469 90 444 67 378 67 L254 67 L254 318 L317 318 C379 318 394 301 398 247 L464 247 L464 457 L398 457 C394 400 378 386 316 386 L254 386 L254 624 L363 624 C433 624 445 602 467 526 L541 526 L530 695 L29 695 L29 647 C81 646 97 632 97 575 L97 117 C97 60 81 46 29 46 L29 0 Z " />
<glyph glyph-name="Ecircumflex" unicode="&#xca;" horiz-adv-x="593" d="M453 731 L478 768 L302 941 L126 768 L151 731 L302 808 L453 731 Z M29 0 L553 0 L553 183 L477 183 C469 90 444 67 378 67 L254 67 L254 318 L317 318 C379 318 394 301 398 247 L464 247 L464 457 L398 457 C394 400 378 386 316 386 L254 386 L254 624 L363 624 C433 624 445 602 467 526 L541 526 L530 695 L29 695 L29 647 C81 646 97 632 97 575 L97 117 C97 60 81 46 29 46 L29 0 Z " />
<glyph glyph-name="Edieresis" unicode="&#xcb;" horiz-adv-x="593" d="M29 0 L553 0 L553 183 L477 183 C469 90 444 67 378 67 L254 67 L254 318 L317 318 C379 318 394 301 398 247 L464 247 L464 457 L398 457 C394 400 378 386 316 386 L254 386 L254 624 L363 624 C433 624 445 602 467 526 L541 526 L530 695 L29 695 L29 647 C81 646 97 632 97 575 L97 117 C97 60 81 46 29 46 L29 0 Z M273 817 C273 863 238 898 192 898 C146 898 109 863 109 817 C109 773 145 737 191 737 C237 737 273 773 273 817 L273 817 Z M496 817 C496 863 461 898 415 898 C369 898 332 863 332 817 C332 773 368 737 414 737 C460 737 496 773 496 817 L496 817 Z " />
<glyph glyph-name="Igrave" unicode="&#xcc;" horiz-adv-x="352" d="M97 117 C97 60 81 46 29 46 L29 0 L323 0 L323 46 C270 46 254 60 254 117 L254 575 C254 632 270 646 323 647 L323 695 L29 695 L29 647 C81 646 97 632 97 575 L97 117 Z M291 765 L85 929 L21 799 L267 727 L291 765 Z " />
<glyph glyph-name="Iacute" unicode="&#xcd;" horiz-adv-x="352" d="M97 117 C97 60 81 46 29 46 L29 0 L323 0 L323 46 C270 46 254 60 254 117 L254 575 C254 632 270 646 323 647 L323 695 L29 695 L29 647 C81 646 97 632 97 575 L97 117 Z M68 727 L314 799 L249 929 L44 765 L68 727 Z " />
<glyph glyph-name="Icircumflex" unicode="&#xce;" horiz-adv-x="352" d="M97 117 C97 60 81 46 29 46 L29 0 L323 0 L323 46 C270 46 254 60 254 117 L254 575 C254 632 270 646 323 647 L323 695 L29 695 L29 647 C81 646 97 632 97 575 L97 117 Z M326 731 L351 768 L175 941 L-1 768 L24 731 L175 808 L326 731 Z " />
<glyph glyph-name="Idieresis" unicode="&#xcf;" horiz-adv-x="352" d="M97 117 C97 60 81 46 29 46 L29 0 L323 0 L323 46 C270 46 254 60 254 117 L254 575 C254 632 270 646 323 647 L323 695 L29 695 L29 647 C81 646 97 632 97 575 L97 117 Z M146 817 C146 863 111 898 65 898 C19 898 -18 863 -18 817 C-18 773 18 737 64 737 C110 737 146 773 146 817 L146 817 Z M369 817 C369 863 334 898 288 898 C242 898 205 863 205 817 C205 773 241 737 287 737 C333 737 369 773 369 817 L369 817 Z " />
<glyph glyph-name="Eth" unicode="&#xd0;" horiz-adv-x="691" d="M28 321 L97 321 L97 117 C97 60 81 46 29 46 L29 0 L315 0 C540 0 650 121 650 344 C650 596 523 695 319 695 L29 695 L29 647 C81 646 97 632 97 575 L97 392 L28 392 L28 321 Z M481 337 C481 113 429 67 304 67 L255 67 L255 321 L371 321 L371 392 L255 392 L255 624 L307 624 C428 624 481 567 481 337 L481 337 Z " />
<glyph glyph-name="Ntilde" unicode="&#xd1;" horiz-adv-x="704" d="M426 857 C377 857 348 895 288 895 C228 895 187 832 176 760 L211 745 C230 779 250 794 284 794 C327 794 361 758 422 758 C480 758 521 816 538 887 L501 903 C483 868 457 857 426 857 L426 857 Z M534 381 C534 323 540 255 543 232 L538 232 C527 261 503 313 472 362 L260 695 L29 695 L29 647 C81 646 97 632 97 575 L97 117 C97 60 81 46 29 46 L29 0 L252 0 L252 46 C199 46 183 60 183 117 L183 376 C183 440 177 506 174 529 L178 529 C188 507 214 453 261 380 L506 0 L618 0 L618 575 C618 632 633 646 685 647 L685 695 L465 695 L465 647 C518 646 534 632 534 575 L534 381 Z " />
<glyph glyph-name="Ograve" unicode="&#xd2;" horiz-adv-x="706" d="M468 765 L262 929 L198 799 L444 727 L468 765 Z M354 -12 C550 -12 665 115 665 338 C665 581 545 707 353 707 C171 707 41 593 41 340 C41 118 154 -12 354 -12 L354 -12 Z M353 636 C449 636 491 561 491 343 C491 108 438 53 354 53 C261 53 215 121 215 349 C215 566 259 636 353 636 L353 636 Z " />
<glyph glyph-name="Oacute" unicode="&#xd3;" horiz-adv-x="706" d="M245 727 L491 799 L426 929 L221 765 L245 727 Z M354 -12 C550 -12 665 115 665 338 C665 581 545 707 353 707 C171 707 41 593 41 340 C41 118 154 -12 354 -12 L354 -12 Z M353 636 C449 636 491 561 491 343 C491 108 438 53 354 53 C261 53 215 121 215 349 C215 566 259 636 353 636 L353 636 Z " />
<glyph glyph-name="Ocircumflex" unicode="&#xd4;" horiz-adv-x="706" d="M503 731 L528 768 L352 941 L176 768 L201 731 L352 808 L503 731 Z M354 -12 C550 -12 665 115 665 338 C665 581 545 707 353 707 C171 707 41 593 41 340 C41 118 154 -12 354 -12 L354 -12 Z M353 636 C449 636 491 561 491 343 C491 108 438 53 354 53 C261 53 215 121 215 349 C215 566 259 636 353 636 L353 636 Z " />
<glyph glyph-name="Otilde" unicode="&#xd5;" horiz-adv-x="706" d="M422 857 C373 857 344 895 284 895 C224 895 183 832 172 760 L207 745 C226 779 246 794 280 794 C323 794 357 758 418 758 C476 758 517 816 534 887 L497 903 C479 868 453 857 422 857 L422 857 Z M354 -12 C550 -12 665 115 665 338 C665 581 545 707 353 707 C171 707 41 593 41 340 C41 118 154 -12 354 -12 L354 -12 Z M353 636 C449 636 491 561 491 343 C491 108 438 53 354 53 C261 53 215 121 215 349 C215 566 259 636 353 636 L353 636 Z " />
<glyph glyph-name="Odieresis" unicode="&#xd6;" horiz-adv-x="706" d="M323 817 C323 863 288 898 242 898 C196 898 159 863 159 817 C159 773 195 737 241 737 C287 737 323 773 323 817 L323 817 Z M546 817 C546 863 511 898 465 898 C419 898 382 863 382 817 C382 773 418 737 464 737 C510 737 546 773 546 817 L546 817 Z M354 -12 C550 -12 665 115 665 338 C665 581 545 707 353 707 C171 707 41 593 41 340 C41 118 154 -12 354 -12 L354 -12 Z M353 636 C449 636 491 561 491 343 C491 108 438 53 354 53 C261 53 215 121 215 349 C215 566 259 636 353 636 L353 636 Z " />
<glyph glyph-name="multiply" unicode="&#xd7;" horiz-adv-x="519" d="M56 424 L208 270 L55 118 L105 66 L259 221 L413 66 L464 118 L310 270 L464 424 L413 475 L259 322 L105 475 L56 424 Z " />
<glyph glyph-name="Oslash" unicode="&#xd8;" horiz-adv-x="706" d="M613 725 L565 752 L513 669 C468 694 413 707 353 707 C171 707 41 593 41 340 C41 216 76 120 142 61 L86 -31 L133 -58 L186 29 C232 2 288 -12 354 -12 C550 -12 665 115 665 338 C665 474 627 575 559 636 L613 725 Z M494 343 C494 108 438 53 354 53 C306 53 270 70 246 125 L477 504 C488 462 494 409 494 343 L494 343 Z M353 636 C398 636 432 619 455 574 L226 198 C217 238 212 289 212 349 C212 566 259 636 353 636 L353 636 Z " />
<glyph glyph-name="Ugrave" unicode="&#xd9;" horiz-adv-x="690" d="M490 765 L284 929 L220 799 L466 727 L490 765 Z M518 227 C518 109 468 69 380 69 C288 69 247 109 247 224 L247 575 C247 632 263 646 317 647 L317 695 L23 695 L23 647 C75 646 90 632 90 575 L90 221 C90 57 170 -12 348 -12 C526 -12 601 74 601 225 L601 575 C601 632 616 646 667 647 L667 695 L448 695 L448 647 C503 646 518 632 518 575 L518 227 Z " />
<glyph glyph-name="Uacute" unicode="&#xda;" horiz-adv-x="690" d="M267 727 L513 799 L448 929 L243 765 L267 727 Z M518 227 C518 109 468 69 380 69 C288 69 247 109 247 224 L247 575 C247 632 263 646 317 647 L317 695 L23 695 L23 647 C75 646 90 632 90 575 L90 221 C90 57 170 -12 348 -12 C526 -12 601 74 601 225 L601 575 C601 632 616 646 667 647 L667 695 L448 695 L448 647 C503 646 518 632 518 575 L518 227 Z " />
<glyph glyph-name="Ucircumflex" unicode="&#xdb;" horiz-adv-x="690" d="M525 731 L550 768 L374 941 L198 768 L223 731 L374 808 L525 731 Z M518 227 C518 109 468 69 380 69 C288 69 247 109 247 224 L247 575 C247 632 263 646 317 647 L317 695 L23 695 L23 647 C75 646 90 632 90 575 L90 221 C90 57 170 -12 348 -12 C526 -12 601 74 601 225 L601 575 C601 632 616 646 667 647 L667 695 L448 695 L448 647 C503 646 518 632 518 575 L518 227 Z " />
<glyph glyph-name="Udieresis" unicode="&#xdc;" horiz-adv-x="690" d="M518 227 C518 109 468 69 380 69 C288 69 247 109 247 224 L247 575 C247 632 263 646 317 647 L317 695 L23 695 L23 647 C75 646 90 632 90 575 L90 221 C90 57 170 -12 348 -12 C526 -12 601 74 601 225 L601 575 C601 632 616 646 667 647 L667 695 L448 695 L448 647 C503 646 518 632 518 575 L518 227 Z M345 817 C345 863 310 898 264 898 C218 898 181 863 181 817 C181 773 217 737 263 737 C309 737 345 773 345 817 L345 817 Z M568 817 C568 863 533 898 487 898 C441 898 404 863 404 817 C404 773 440 737 486 737 C532 737 568 773 568 817 L568 817 Z " />
<glyph glyph-name="Yacute" unicode="&#xdd;" horiz-adv-x="655" d="M365 360 L261 583 C255 596 252 607 252 616 C252 636 267 648 300 648 L300 695 L15 695 L15 648 C51 643 66 633 91 583 L250 265 L250 117 C250 60 234 46 173 46 L173 0 L485 0 L485 46 C424 46 407 60 407 117 L407 267 L558 580 C584 633 599 643 639 648 L639 695 L426 695 L426 648 C461 648 477 639 477 618 C477 609 473 598 468 584 L370 360 L365 360 Z M238 727 L484 799 L419 929 L214 765 L238 727 Z " />
<glyph glyph-name="Thorn" unicode="&#xde;" horiz-adv-x="605" d="M429 358 C429 262 400 234 321 234 L254 234 L254 484 L313 484 C400 484 429 451 429 358 L429 358 Z M254 574 C254 615 270 646 323 647 L323 695 L29 695 L29 647 C81 646 97 632 97 575 L97 117 C97 60 81 46 29 46 L29 0 L339 0 L339 46 C271 46 254 61 254 118 L254 160 L350 160 C541 160 597 249 597 360 C597 506 506 555 350 555 L254 555 L254 574 Z " />
<glyph glyph-name="germandbls" unicode="&#xdf;" horiz-adv-x="637" d="M89 509 L28 484 L28 433 L89 433 L89 115 C89 58 78 46 28 45 L28 0 L238 0 L238 540 C238 632 272 674 329 674 C386 674 411 643 411 582 C411 531 393 503 356 474 C317 444 300 431 300 408 C300 379 323 365 364 332 C427 280 464 232 464 153 C464 96 438 56 387 56 C355 56 328 64 299 83 L278 31 C308 8 353 -12 420 -12 C540 -12 615 58 615 163 C615 286 542 335 425 390 C411 396 401 404 401 414 C401 425 409 432 431 443 C502 481 546 522 546 597 C546 686 468 741 327 741 C192 741 89 678 89 538 L89 509 Z " />
<glyph glyph-name="agrave" unicode="&#xe0;" horiz-adv-x="540" d="M464 150 C464 241 468 324 468 354 C468 471 388 522 273 522 C192 522 110 497 57 466 L57 364 L167 364 C174 417 190 455 247 455 C300 455 319 422 319 345 L319 299 C306 300 283 301 271 301 C114 301 25 252 25 134 C25 31 95 -14 184 -14 C263 -14 306 28 323 64 C331 22 364 -6 426 -6 C470 -6 507 5 528 18 L528 61 C475 63 464 75 464 150 L464 150 Z M317 243 L314 116 C296 93 264 79 238 79 C200 79 178 96 178 153 C178 214 214 243 282 243 L317 243 Z M378 593 L190 779 L112 654 L352 558 L378 593 Z " />
<glyph glyph-name="aacute" unicode="&#xe1;" horiz-adv-x="540" d="M464 150 C464 241 468 324 468 354 C468 471 388 522 273 522 C192 522 110 497 57 466 L57 364 L167 364 C174 417 190 455 247 455 C300 455 319 422 319 345 L319 299 C306 300 283 301 271 301 C114 301 25 252 25 134 C25 31 95 -14 184 -14 C263 -14 306 28 323 64 C331 22 364 -6 426 -6 C470 -6 507 5 528 18 L528 61 C475 63 464 75 464 150 L464 150 Z M317 243 L314 116 C296 93 264 79 238 79 C200 79 178 96 178 153 C178 214 214 243 282 243 L317 243 Z M160 558 L400 654 L322 779 L134 593 L160 558 Z " />
<glyph glyph-name="acircumflex" unicode="&#xe2;" horiz-adv-x="540" d="M464 150 C464 241 468 324 468 354 C468 471 388 522 273 522 C192 522 110 497 57 466 L57 364 L167 364 C174 417 190 455 247 455 C300 455 319 422 319 345 L319 299 C306 300 283 301 271 301 C114 301 25 252 25 134 C25 31 95 -14 184 -14 C263 -14 306 28 323 64 C331 22 364 -6 426 -6 C470 -6 507 5 528 18 L528 61 C475 63 464 75 464 150 L464 150 Z M317 243 L314 116 C296 93 264 79 238 79 C200 79 178 96 178 153 C178 214 214 243 282 243 L317 243 Z M418 556 L443 593 L267 767 L91 593 L116 556 L267 634 L418 556 Z " />
<glyph glyph-name="atilde" unicode="&#xe3;" horiz-adv-x="540" d="M464 150 C464 241 468 324 468 354 C468 471 388 522 273 522 C192 522 110 497 57 466 L57 364 L167 364 C174 417 190 455 247 455 C300 455 319 422 319 345 L319 299 C306 300 283 301 271 301 C114 301 25 252 25 134 C25 31 95 -14 184 -14 C263 -14 306 28 323 64 C331 22 364 -6 426 -6 C470 -6 507 5 528 18 L528 61 C475 63 464 75 464 150 L464 150 Z M317 243 L314 116 C296 93 264 79 238 79 C200 79 178 96 178 153 C178 214 214 243 282 243 L317 243 Z M326 686 C279 686 248 720 192 720 C134 720 93 655 82 583 L117 568 C135 602 156 616 187 616 C229 616 265 584 322 584 C378 584 419 644 436 715 L399 731 C381 697 356 686 326 686 L326 686 Z " />
<glyph glyph-name="adieresis" unicode="&#xe4;" horiz-adv-x="540" d="M464 150 C464 241 468 324 468 354 C468 471 388 522 273 522 C192 522 110 497 57 466 L57 364 L167 364 C174 417 190 455 247 455 C300 455 319 422 319 345 L319 299 C306 300 283 301 271 301 C114 301 25 252 25 134 C25 31 95 -14 184 -14 C263 -14 306 28 323 64 C331 22 364 -6 426 -6 C470 -6 507 5 528 18 L528 61 C475 63 464 75 464 150 L464 150 Z M317 243 L314 116 C296 93 264 79 238 79 C200 79 178 96 178 153 C178 214 214 243 282 243 L317 243 Z M234 646 C234 692 199 728 153 728 C107 728 70 692 70 646 C70 602 107 566 152 566 C198 566 234 602 234 646 L234 646 Z M457 646 C457 692 422 728 376 728 C330 728 293 692 293 646 C293 602 330 566 375 566 C421 566 457 602 457 646 L457 646 Z " />
<glyph glyph-name="aring" unicode="&#xe5;" horiz-adv-x="540" d="M464 150 C464 241 468 324 468 354 C468 471 388 522 273 522 C192 522 110 497 57 466 L57 364 L167 364 C174 417 190 455 247 455 C300 455 319 422 319 345 L319 299 C306 300 283 301 271 301 C114 301 25 252 25 134 C25 31 95 -14 184 -14 C263 -14 306 28 323 64 C331 22 364 -6 426 -6 C470 -6 507 5 528 18 L528 61 C475 63 464 75 464 150 L464 150 Z M317 243 L314 116 C296 93 264 79 238 79 C200 79 178 96 178 153 C178 214 214 243 282 243 L317 243 Z M259 562 C329 562 377 612 377 678 C377 745 329 794 259 794 C190 794 142 745 142 678 C142 612 190 562 259 562 L259 562 Z M259 740 C294 740 316 713 316 678 C316 645 294 619 259 619 C225 619 204 645 204 678 C204 713 225 740 259 740 L259 740 Z " />
<glyph glyph-name="ae" unicode="&#xe6;" horiz-adv-x="812" d="M415 471 C386 503 332 522 265 522 C192 522 110 497 57 466 L57 364 L167 364 C174 417 190 455 247 455 C299 455 320 422 320 347 L320 300 L271 300 C114 300 25 252 25 134 C25 31 95 -12 188 -12 C284 -12 343 29 370 69 C412 15 478 -12 564 -12 C653 -12 719 15 773 68 L748 109 C706 86 658 74 615 74 C520 74 482 123 478 236 L782 236 L782 276 C782 429 717 522 562 522 C505 522 453 502 415 471 L415 471 Z M561 460 C614 460 634 422 634 301 L479 301 C486 423 511 460 561 460 L561 460 Z M248 81 C204 81 178 103 178 153 C178 214 214 236 290 236 L319 236 C320 190 327 151 341 117 C318 95 285 81 248 81 L248 81 Z " />
<glyph glyph-name="ccedilla" unicode="&#xe7;" horiz-adv-x="491" d="M249 -204 C326 -204 367 -179 367 -119 C367 -73 335 -45 270 -41 L278 -12 L290 -12 C362 -10 425 18 469 69 L442 107 C400 82 371 71 324 71 C249 71 189 119 189 269 C189 422 245 459 292 459 C333 459 341 433 345 371 L456 371 L456 481 C421 504 371 521 292 521 C153 521 35 426 35 246 C35 93 119 10 230 -8 L210 -77 L209 -98 C243 -99 269 -107 269 -130 C269 -152 255 -158 233 -158 C211 -158 189 -154 167 -140 L150 -179 C169 -192 202 -204 249 -204 L249 -204 Z " />
<glyph glyph-name="egrave" unicode="&#xe8;" horiz-adv-x="529" d="M333 74 C237 74 199 120 195 233 L499 233 L499 276 C499 429 435 522 278 522 C133 522 35 425 35 256 C35 86 126 -12 281 -12 C370 -12 436 15 490 68 L466 109 C423 86 375 74 333 74 L333 74 Z M279 460 C331 460 351 422 351 301 L196 301 C203 423 228 460 279 460 L279 460 Z M398 593 L210 779 L132 654 L372 558 L398 593 Z " />
<glyph glyph-name="eacute" unicode="&#xe9;" horiz-adv-x="529" d="M173 558 L413 654 L335 779 L147 593 L173 558 Z M333 74 C237 74 199 120 195 233 L499 233 L499 276 C499 429 435 522 278 522 C133 522 35 425 35 256 C35 86 126 -12 281 -12 C370 -12 436 15 490 68 L466 109 C423 86 375 74 333 74 L333 74 Z M279 460 C331 460 351 422 351 301 L196 301 C203 423 228 460 279 460 L279 460 Z " />
<glyph glyph-name="ecircumflex" unicode="&#xea;" horiz-adv-x="529" d="M428 556 L453 593 L277 767 L101 593 L126 556 L277 634 L428 556 Z M333 74 C237 74 199 120 195 233 L499 233 L499 276 C499 429 435 522 278 522 C133 522 35 425 35 256 C35 86 126 -12 281 -12 C370 -12 436 15 490 68 L466 109 C423 86 375 74 333 74 L333 74 Z M279 460 C331 460 351 422 351 301 L196 301 C203 423 228 460 279 460 L279 460 Z " />
<glyph glyph-name="edieresis" unicode="&#xeb;" horiz-adv-x="529" d="M244 646 C244 692 209 728 163 728 C117 728 80 692 80 646 C80 602 117 566 162 566 C208 566 244 602 244 646 L244 646 Z M467 646 C467 692 432 728 386 728 C340 728 303 692 303 646 C303 602 340 566 385 566 C431 566 467 602 467 646 L467 646 Z M333 74 C237 74 199 120 195 233 L499 233 L499 276 C499 429 435 522 278 522 C133 522 35 425 35 256 C35 86 126 -12 281 -12 C370 -12 436 15 490 68 L466 109 C423 86 375 74 333 74 L333 74 Z M279 460 C331 460 351 422 351 301 L196 301 C203 423 228 460 279 460 L279 460 Z " />
<glyph glyph-name="igrave" unicode="&#xec;" horiz-adv-x="315" d="M297 0 L297 45 C245 46 236 58 236 115 L236 517 L214 517 L27 482 L27 438 C77 436 87 426 87 353 L87 115 C87 58 76 46 26 45 L26 0 L297 0 Z M273 593 L85 779 L7 654 L247 558 L273 593 Z " />
<glyph glyph-name="iacute" unicode="&#xed;" horiz-adv-x="315" d="M54 558 L294 654 L216 779 L28 593 L54 558 Z M297 0 L297 45 C245 46 236 58 236 115 L236 517 L214 517 L27 482 L27 438 C77 436 87 426 87 353 L87 115 C87 58 76 46 26 45 L26 0 L297 0 Z " />
<glyph glyph-name="icircumflex" unicode="&#xee;" horiz-adv-x="315" d="M312 556 L337 593 L161 767 L-15 593 L10 556 L161 634 L312 556 Z M297 0 L297 45 C245 46 236 58 236 115 L236 517 L214 517 L27 482 L27 438 C77 436 87 426 87 353 L87 115 C87 58 76 46 26 45 L26 0 L297 0 Z " />
<glyph glyph-name="idieresis" unicode="&#xef;" horiz-adv-x="315" d="M132 646 C132 692 97 728 51 728 C5 728 -32 692 -32 646 C-32 602 5 566 50 566 C96 566 132 602 132 646 L132 646 Z M355 646 C355 692 320 728 274 728 C228 728 191 692 191 646 C191 602 228 566 273 566 C319 566 355 602 355 646 L355 646 Z M297 0 L297 45 C245 46 236 58 236 115 L236 517 L214 517 L27 482 L27 438 C77 436 87 426 87 353 L87 115 C87 58 76 46 26 45 L26 0 L297 0 Z " />
<glyph glyph-name="eth" unicode="&#xf0;" horiz-adv-x="571" d="M114 530 L279 590 C313 560 336 531 354 492 C331 504 299 511 270 511 C142 511 35 420 35 252 C35 70 143 -13 286 -13 C425 -13 535 82 535 278 C535 443 481 554 380 629 L476 664 L456 712 L324 664 C265 696 192 715 113 729 L91 685 C146 669 192 650 229 627 L94 579 L114 530 Z M380 273 C380 107 346 48 288 48 C221 48 193 107 193 253 C193 376 227 448 296 448 C320 448 343 443 364 427 C376 381 380 345 380 273 L380 273 Z " />
<glyph glyph-name="ntilde" unicode="&#xf1;" horiz-adv-x="625" d="M551 370 C551 473 488 521 406 521 C328 521 275 481 232 432 C229 472 210 511 203 522 L188 522 L27 482 L27 438 C77 436 87 426 87 353 L87 115 C87 58 76 46 26 45 L26 0 L297 0 L297 45 C245 46 236 59 236 113 L236 378 C262 398 292 416 336 416 C378 416 402 395 402 335 L402 113 C402 59 393 46 342 45 L342 0 L610 0 L610 45 C562 46 551 58 551 115 L551 370 Z M385 686 C338 686 307 720 251 720 C193 720 152 655 141 583 L176 568 C194 602 215 616 246 616 C288 616 324 584 381 584 C437 584 478 644 495 715 L458 731 C440 697 415 686 385 686 L385 686 Z " />
<glyph glyph-name="ograve" unicode="&#xf2;" horiz-adv-x="578" d="M543 262 C543 437 439 522 294 522 C135 522 35 415 35 253 C35 85 129 -13 286 -13 C425 -13 543 72 543 262 L543 262 Z M380 266 C380 112 350 49 291 49 C219 49 198 111 198 251 C198 409 226 458 289 458 C349 458 380 411 380 266 L380 266 Z M400 593 L212 779 L134 654 L374 558 L400 593 Z " />
<glyph glyph-name="oacute" unicode="&#xf3;" horiz-adv-x="578" d="M182 558 L422 654 L344 779 L156 593 L182 558 Z M543 262 C543 437 439 522 294 522 C135 522 35 415 35 253 C35 85 129 -13 286 -13 C425 -13 543 72 543 262 L543 262 Z M380 266 C380 112 350 49 291 49 C219 49 198 111 198 251 C198 409 226 458 289 458 C349 458 380 411 380 266 L380 266 Z " />
<glyph glyph-name="ocircumflex" unicode="&#xf4;" horiz-adv-x="578" d="M439 556 L464 593 L288 767 L112 593 L137 556 L288 634 L439 556 Z M543 262 C543 437 439 522 294 522 C135 522 35 415 35 253 C35 85 129 -13 286 -13 C425 -13 543 72 543 262 L543 262 Z M380 266 C380 112 350 49 291 49 C219 49 198 111 198 251 C198 409 226 458 289 458 C349 458 380 411 380 266 L380 266 Z " />
<glyph glyph-name="otilde" unicode="&#xf5;" horiz-adv-x="578" d="M543 262 C543 437 439 522 294 522 C135 522 35 415 35 253 C35 85 129 -13 286 -13 C425 -13 543 72 543 262 L543 262 Z M380 266 C380 112 350 49 291 49 C219 49 198 111 198 251 C198 409 226 458 289 458 C349 458 380 411 380 266 L380 266 Z M357 686 C310 686 279 720 223 720 C165 720 124 655 113 583 L148 568 C166 602 187 616 218 616 C260 616 296 584 353 584 C409 584 450 644 467 715 L430 731 C412 697 387 686 357 686 L357 686 Z " />
<glyph glyph-name="odieresis" unicode="&#xf6;" horiz-adv-x="578" d="M259 646 C259 692 224 728 178 728 C132 728 95 692 95 646 C95 602 132 566 177 566 C223 566 259 602 259 646 L259 646 Z M482 646 C482 692 447 728 401 728 C355 728 318 692 318 646 C318 602 355 566 400 566 C446 566 482 602 482 646 L482 646 Z M543 262 C543 437 439 522 294 522 C135 522 35 415 35 253 C35 85 129 -13 286 -13 C425 -13 543 72 543 262 L543 262 Z M380 266 C380 112 350 49 291 49 C219 49 198 111 198 251 C198 409 226 458 289 458 C349 458 380 411 380 266 L380 266 Z " />
<glyph glyph-name="divide" unicode="&#xf7;" horiz-adv-x="616" d="M380 474 C380 512 347 545 309 545 C268 545 237 511 237 472 C237 430 268 399 309 399 C347 399 380 431 380 474 L380 474 Z M55 236 L561 236 L561 306 L55 306 L55 236 Z M380 64 C380 103 347 135 309 135 C268 135 237 102 237 62 C237 21 268 -10 309 -10 C347 -10 380 22 380 64 L380 64 Z " />
<glyph glyph-name="oslash" unicode="&#xf8;" horiz-adv-x="578" d="M500 540 L456 566 L414 498 C378 514 338 522 294 522 C135 522 35 415 35 253 C35 155 67 80 125 36 L79 -37 L123 -63 L168 10 C202 -4 242 -13 286 -13 C425 -13 543 72 543 262 C543 359 511 429 457 471 L500 540 Z M192 251 C192 409 224 458 289 458 C320 458 344 446 360 413 L200 155 C193 181 192 212 192 251 L192 251 Z M387 266 C387 112 353 49 291 49 C257 49 234 62 219 91 L378 347 C384 325 387 298 387 266 L387 266 Z " />
<glyph glyph-name="ugrave" unicode="&#xf9;" horiz-adv-x="607" d="M527 517 L503 517 L319 482 L319 438 C368 436 379 426 379 353 L379 120 C349 95 323 83 289 83 C243 83 225 110 225 164 L225 517 L201 517 L17 482 L17 438 C65 436 76 426 76 353 L76 129 C76 30 133 -13 218 -13 C295 -13 348 20 387 68 C391 26 407 -1 414 -13 L429 -13 L589 23 L589 64 C538 68 527 76 527 149 L527 517 Z M414 593 L226 779 L148 654 L388 558 L414 593 Z " />
<glyph glyph-name="uacute" unicode="&#xfa;" horiz-adv-x="607" d="M195 558 L435 654 L357 779 L169 593 L195 558 Z M527 517 L503 517 L319 482 L319 438 C368 436 379 426 379 353 L379 120 C349 95 323 83 289 83 C243 83 225 110 225 164 L225 517 L201 517 L17 482 L17 438 C65 436 76 426 76 353 L76 129 C76 30 133 -13 218 -13 C295 -13 348 20 387 68 C391 26 407 -1 414 -13 L429 -13 L589 23 L589 64 C538 68 527 76 527 149 L527 517 Z " />
<glyph glyph-name="ucircumflex" unicode="&#xfb;" horiz-adv-x="607" d="M453 556 L478 593 L302 767 L126 593 L151 556 L302 634 L453 556 Z M527 517 L503 517 L319 482 L319 438 C368 436 379 426 379 353 L379 120 C349 95 323 83 289 83 C243 83 225 110 225 164 L225 517 L201 517 L17 482 L17 438 C65 436 76 426 76 353 L76 129 C76 30 133 -13 218 -13 C295 -13 348 20 387 68 C391 26 407 -1 414 -13 L429 -13 L589 23 L589 64 C538 68 527 76 527 149 L527 517 Z " />
<glyph glyph-name="udieresis" unicode="&#xfc;" horiz-adv-x="607" d="M273 646 C273 692 238 728 192 728 C146 728 109 692 109 646 C109 602 146 566 191 566 C237 566 273 602 273 646 L273 646 Z M496 646 C496 692 461 728 415 728 C369 728 332 692 332 646 C332 602 369 566 414 566 C460 566 496 602 496 646 L496 646 Z M527 517 L503 517 L319 482 L319 438 C368 436 379 426 379 353 L379 120 C349 95 323 83 289 83 C243 83 225 110 225 164 L225 517 L201 517 L17 482 L17 438 C65 436 76 426 76 353 L76 129 C76 30 133 -13 218 -13 C295 -13 348 20 387 68 C391 26 407 -1 414 -13 L429 -13 L589 23 L589 64 C538 68 527 76 527 149 L527 517 Z " />
<glyph glyph-name="yacute" unicode="&#xfd;" horiz-adv-x="552" d="M113 -207 C232 -190 294 -115 337 3 L482 401 C500 449 512 458 552 463 L552 509 L343 509 L343 463 C389 461 404 456 404 434 C404 428 403 421 400 412 L332 194 C321 158 313 123 311 113 L306 113 C304 124 299 159 286 199 L217 412 C213 422 211 430 211 436 C211 453 225 461 271 463 L271 509 L0 509 L0 463 C37 458 47 446 64 399 L141 187 C175 96 187 55 200 3 L258 8 C223 -72 151 -95 63 -111 L113 -207 Z M194 558 L434 654 L356 779 L168 593 L194 558 Z " />
<glyph glyph-name="thorn" unicode="&#xfe;" horiz-adv-x="599" d="M406 241 C406 102 366 67 304 67 C273 67 242 77 220 104 L220 382 C248 411 279 422 312 422 C372 422 406 382 406 241 L406 241 Z M6 707 L6 663 C57 661 71 651 71 578 L71 -81 C71 -138 60 -150 10 -151 L10 -196 L283 -196 L283 -151 C230 -150 220 -137 220 -81 L220 34 C248 1 289 -11 332 -11 C468 -11 564 72 564 259 C564 439 483 521 365 521 C293 521 247 484 220 438 L220 635 C220 695 206 725 201 734 L186 734 L6 707 Z " />
<glyph glyph-name="ydieresis" unicode="&#xff;" horiz-adv-x="552" d="M113 -207 C232 -190 294 -115 337 3 L482 401 C500 449 512 458 552 463 L552 509 L343 509 L343 463 C389 461 404 456 404 434 C404 428 403 421 400 412 L332 194 C321 158 313 123 311 113 L306 113 C304 124 299 159 286 199 L217 412 C213 422 211 430 211 436 C211 453 225 461 271 463 L271 509 L0 509 L0 463 C37 458 47 446 64 399 L141 187 C175 96 187 55 200 3 L258 8 C223 -72 151 -95 63 -111 L113 -207 Z M271 646 C271 692 236 728 190 728 C144 728 107 692 107 646 C107 602 144 566 189 566 C235 566 271 602 271 646 L271 646 Z M494 646 C494 692 459 728 413 728 C367 728 330 692 330 646 C330 602 367 566 412 566 C458 566 494 602 494 646 L494 646 Z " />
<glyph glyph-name="Amacron" unicode="&#x100;" horiz-adv-x="671" d="M435 101 C438 92 440 83 440 76 C440 56 424 48 379 46 L379 0 L663 0 L663 46 C622 51 612 67 596 113 L397 695 L271 695 L82 113 C65 60 51 51 8 46 L8 0 L229 0 L229 46 C185 48 165 51 165 76 C165 82 166 90 169 101 L194 187 L408 187 L435 101 Z M264 428 C282 489 290 523 295 543 L300 543 C304 523 312 486 330 430 L384 261 L215 261 L264 428 Z M488 773 L488 851 L182 851 L182 773 L488 773 Z " />
<glyph glyph-name="amacron" unicode="&#x101;" horiz-adv-x="540" d="M464 150 C464 241 468 324 468 354 C468 471 388 522 273 522 C192 522 110 497 57 466 L57 364 L167 364 C174 417 190 455 247 455 C300 455 319 422 319 345 L319 299 C306 300 283 301 271 301 C114 301 25 252 25 134 C25 31 95 -14 184 -14 C263 -14 306 28 323 64 C331 22 364 -6 426 -6 C470 -6 507 5 528 18 L528 61 C475 63 464 75 464 150 L464 150 Z M317 243 L314 116 C296 93 264 79 238 79 C200 79 178 96 178 153 C178 214 214 243 282 243 L317 243 Z M413 601 L413 679 L111 679 L111 601 L413 601 Z " />
<glyph glyph-name="Abreve" unicode="&#x102;" horiz-adv-x="671" d="M435 101 C438 92 440 83 440 76 C440 56 424 48 379 46 L379 0 L663 0 L663 46 C622 51 612 67 596 113 L397 695 L271 695 L82 113 C65 60 51 51 8 46 L8 0 L229 0 L229 46 C185 48 165 51 165 76 C165 82 166 90 169 101 L194 187 L408 187 L435 101 Z M264 428 C282 489 290 523 295 543 L300 543 C304 523 312 486 330 430 L384 261 L215 261 L264 428 Z M335 743 C432 743 485 829 505 905 L468 928 C433 880 395 846 335 846 C274 846 236 880 202 928 L165 905 C185 829 237 743 335 743 L335 743 Z " />
<glyph glyph-name="abreve" unicode="&#x103;" horiz-adv-x="540" d="M464 150 C464 241 468 324 468 354 C468 471 388 522 273 522 C192 522 110 497 57 466 L57 364 L167 364 C174 417 190 455 247 455 C300 455 319 422 319 345 L319 299 C306 300 283 301 271 301 C114 301 25 252 25 134 C25 31 95 -14 184 -14 C263 -14 306 28 323 64 C331 22 364 -6 426 -6 C470 -6 507 5 528 18 L528 61 C475 63 464 75 464 150 L464 150 Z M317 243 L314 116 C296 93 264 79 238 79 C200 79 178 96 178 153 C178 214 214 243 282 243 L317 243 Z M264 565 C360 565 410 651 429 727 L392 749 C359 701 322 668 263 668 C205 668 167 701 135 749 L98 727 C118 651 167 565 264 565 L264 565 Z " />
<glyph glyph-name="Aogonek" unicode="&#x104;" horiz-adv-x="671" d="M486 -131 C465 -142 450 -146 432 -146 C408 -146 387 -132 387 -97 C387 -50 427 0 496 0 L663 0 L663 46 C623 51 612 64 595 115 L397 695 L271 695 L82 113 C65 60 51 51 8 46 L8 0 L229 0 L229 46 C184 48 165 52 165 75 C165 82 166 89 169 101 L194 187 L408 187 L435 101 C439 88 440 81 440 72 C440 53 430 39 404 24 C321 -24 265 -57 265 -118 C265 -179 319 -205 382 -205 C429 -205 471 -192 502 -160 L486 -131 Z M264 428 C282 489 290 523 295 543 L300 543 C304 523 312 486 330 430 L384 261 L215 261 L264 428 Z " />
<glyph glyph-name="aogonek" unicode="&#x105;" horiz-adv-x="540" d="M525 -131 C504 -142 489 -146 471 -146 C447 -146 425 -132 425 -97 C425 -47 464 -7 528 18 L528 61 C475 63 464 75 464 150 C464 241 468 324 468 354 C468 471 388 522 273 522 C192 522 110 497 57 466 L57 364 L167 364 C174 417 190 455 247 455 C300 455 319 422 319 345 L319 299 C306 300 283 301 271 301 C114 301 25 252 25 134 C25 31 95 -14 184 -14 C263 -14 306 28 323 64 C330 29 357 0 407 -4 C348 -33 304 -67 304 -115 C304 -179 358 -205 421 -205 C468 -205 510 -192 541 -160 L525 -131 Z M317 243 L314 116 C296 93 264 79 238 79 C200 79 178 96 178 153 C178 214 214 243 282 243 L317 243 Z " />
<glyph glyph-name="Cacute" unicode="&#x106;" horiz-adv-x="620" d="M356 -12 C456 -12 542 13 583 43 L583 175 L480 175 C467 93 441 56 362 56 C276 56 216 102 216 344 C216 572 268 636 362 636 C431 636 454 597 470 521 L578 521 L578 657 C530 688 462 707 364 707 C172 707 41 592 41 338 C41 113 152 -12 356 -12 L356 -12 Z M250 727 L496 799 L431 929 L226 765 L250 727 Z " />
<glyph glyph-name="cacute" unicode="&#x107;" horiz-adv-x="491" d="M181 558 L421 654 L343 779 L155 593 L181 558 Z M456 481 C421 504 371 521 292 521 C153 521 35 426 35 246 C35 71 145 -12 279 -12 C355 -12 423 15 469 69 L442 107 C400 82 371 71 324 71 C249 71 189 119 189 269 C189 422 245 459 292 459 C333 459 341 433 345 371 L456 371 L456 481 Z " />
<glyph glyph-name="Ccircumflex" unicode="&#x108;" horiz-adv-x="620" d="M508 731 L533 768 L357 941 L181 768 L206 731 L357 808 L508 731 Z M356 -12 C456 -12 542 13 583 43 L583 175 L480 175 C467 93 441 56 362 56 C276 56 216 102 216 344 C216 572 268 636 362 636 C431 636 454 597 470 521 L578 521 L578 657 C530 688 462 707 364 707 C172 707 41 592 41 338 C41 113 152 -12 356 -12 L356 -12 Z " />
<glyph glyph-name="ccircumflex" unicode="&#x109;" horiz-adv-x="491" d="M430 556 L455 593 L279 767 L103 593 L128 556 L279 634 L430 556 Z M456 481 C421 504 371 521 292 521 C153 521 35 426 35 246 C35 71 145 -12 279 -12 C355 -12 423 15 469 69 L442 107 C400 82 371 71 324 71 C249 71 189 119 189 269 C189 422 245 459 292 459 C333 459 341 433 345 371 L456 371 L456 481 Z " />
<glyph glyph-name="Cdotaccent" unicode="&#x10a;" horiz-adv-x="620" d="M356 -12 C456 -12 542 13 583 43 L583 175 L480 175 C467 93 441 56 362 56 C276 56 216 102 216 344 C216 572 268 636 362 636 C431 636 454 597 470 521 L578 521 L578 657 C530 688 462 707 364 707 C172 707 41 592 41 338 C41 113 152 -12 356 -12 L356 -12 Z M443 828 C443 875 406 913 359 913 C311 913 272 875 272 828 C272 781 310 744 357 744 C405 744 443 781 443 828 L443 828 Z " />
<glyph glyph-name="cdotaccent" unicode="&#x10b;" horiz-adv-x="491" d="M456 481 C421 504 371 521 292 521 C153 521 35 426 35 246 C35 71 145 -12 279 -12 C355 -12 423 15 469 69 L442 107 C400 82 371 71 324 71 C249 71 189 119 189 269 C189 422 245 459 292 459 C333 459 341 433 345 371 L456 371 L456 481 Z M370 652 C370 699 333 737 286 737 C238 737 199 699 199 652 C199 606 237 568 284 568 C332 568 370 606 370 652 L370 652 Z " />
<glyph glyph-name="Ccaron" unicode="&#x10c;" horiz-adv-x="620" d="M358 864 L207 941 L182 904 L358 731 L534 904 L509 941 L358 864 Z M356 -12 C456 -12 542 13 583 43 L583 175 L480 175 C467 93 441 56 362 56 C276 56 216 102 216 344 C216 572 268 636 362 636 C431 636 454 597 470 521 L578 521 L578 657 C530 688 462 707 364 707 C172 707 41 592 41 338 C41 113 152 -12 356 -12 L356 -12 Z " />
<glyph glyph-name="ccaron" unicode="&#x10d;" horiz-adv-x="491" d="M285 684 L134 762 L109 725 L285 551 L461 725 L436 762 L285 684 Z M456 481 C421 504 371 521 292 521 C153 521 35 426 35 246 C35 71 145 -12 279 -12 C355 -12 423 15 469 69 L442 107 C400 82 371 71 324 71 C249 71 189 119 189 269 C189 422 245 459 292 459 C333 459 341 433 345 371 L456 371 L456 481 Z " />
<glyph glyph-name="Dcaron" unicode="&#x10e;" horiz-adv-x="691" d="M327 864 L176 941 L151 904 L327 731 L503 904 L478 941 L327 864 Z M29 0 L315 0 C540 0 650 121 650 344 C650 596 523 695 319 695 L29 695 L29 647 C81 646 97 632 97 575 L97 117 C97 60 81 46 29 46 L29 0 Z M255 67 L255 624 L307 624 C428 624 481 567 481 337 C481 113 429 67 304 67 L255 67 Z " />
<glyph glyph-name="dcaron" unicode="&#x10f;" horiz-adv-x="611" d="M391 68 C394 26 411 -5 418 -13 L433 -13 L595 23 L595 64 C542 68 531 76 531 149 L531 734 L505 734 L319 707 L319 663 C368 661 383 651 383 578 L383 472 C358 503 314 521 264 521 C133 521 35 439 35 251 C35 68 119 -12 236 -12 C304 -12 363 21 391 68 L391 68 Z M197 262 C197 402 237 437 297 437 C329 437 360 427 383 400 L383 122 C355 94 324 80 291 80 C231 80 197 121 197 262 L197 262 Z M700 724 L586 737 L573 556 L633 547 L700 724 Z " />
<glyph glyph-name="Dcroat" unicode="&#x110;" horiz-adv-x="691" d="M28 321 L97 321 L97 117 C97 60 81 46 29 46 L29 0 L315 0 C540 0 650 121 650 344 C650 596 523 695 319 695 L29 695 L29 647 C81 646 97 632 97 575 L97 392 L28 392 L28 321 Z M481 337 C481 113 429 67 304 67 L255 67 L255 321 L371 321 L371 392 L255 392 L255 624 L307 624 C428 624 481 567 481 337 L481 337 Z " />
<glyph glyph-name="dcroat" unicode="&#x111;" horiz-adv-x="611" d="M219 611 L219 566 L383 566 L383 472 C358 503 314 521 264 521 C133 521 35 439 35 251 C35 68 119 -12 236 -12 C304 -12 363 21 391 68 C394 25 411 -3 418 -13 L433 -13 L595 23 L595 64 C542 68 531 76 531 149 L531 566 L593 566 L593 611 L531 611 L531 734 L505 734 L319 707 L319 663 C371 663 382 657 383 611 L219 611 Z M197 262 C197 402 237 437 297 437 C329 437 360 427 383 400 L383 122 C355 94 324 80 291 80 C231 80 197 121 197 262 L197 262 Z " />
<glyph glyph-name="Emacron" unicode="&#x112;" horiz-adv-x="593" d="M29 0 L553 0 L553 183 L477 183 C469 90 444 67 378 67 L254 67 L254 318 L317 318 C379 318 394 301 398 247 L464 247 L464 457 L398 457 C394 400 378 386 316 386 L254 386 L254 624 L363 624 C433 624 445 602 467 526 L541 526 L530 695 L29 695 L29 647 C81 646 97 632 97 575 L97 117 C97 60 81 46 29 46 L29 0 Z M457 773 L457 851 L151 851 L151 773 L457 773 Z " />
<glyph glyph-name="emacron" unicode="&#x113;" horiz-adv-x="529" d="M333 74 C237 74 199 120 195 233 L499 233 L499 276 C499 429 435 522 278 522 C133 522 35 425 35 256 C35 86 126 -12 281 -12 C370 -12 436 15 490 68 L466 109 C423 86 375 74 333 74 L333 74 Z M279 460 C331 460 351 422 351 301 L196 301 C203 423 228 460 279 460 L279 460 Z M423 601 L423 679 L121 679 L121 601 L423 601 Z " />
<glyph glyph-name="Ebreve" unicode="&#x114;" horiz-adv-x="593" d="M29 0 L553 0 L553 183 L477 183 C469 90 444 67 378 67 L254 67 L254 318 L317 318 C379 318 394 301 398 247 L464 247 L464 457 L398 457 C394 400 378 386 316 386 L254 386 L254 624 L363 624 C433 624 445 602 467 526 L541 526 L530 695 L29 695 L29 647 C81 646 97 632 97 575 L97 117 C97 60 81 46 29 46 L29 0 Z M302 743 C399 743 452 829 472 905 L435 928 C400 880 362 846 302 846 C241 846 203 880 169 928 L132 905 C152 829 204 743 302 743 L302 743 Z " />
<glyph glyph-name="ebreve" unicode="&#x115;" horiz-adv-x="529" d="M333 74 C237 74 199 120 195 233 L499 233 L499 276 C499 429 435 522 278 522 C133 522 35 425 35 256 C35 86 126 -12 281 -12 C370 -12 436 15 490 68 L466 109 C423 86 375 74 333 74 L333 74 Z M279 460 C331 460 351 422 351 301 L196 301 C203 423 228 460 279 460 L279 460 Z M270 565 C366 565 416 651 435 727 L398 749 C365 701 328 668 269 668 C211 668 173 701 141 749 L104 727 C124 651 173 565 270 565 L270 565 Z " />
<glyph glyph-name="Edotaccent" unicode="&#x116;" horiz-adv-x="593" d="M388 828 C388 875 351 913 304 913 C256 913 217 875 217 828 C217 781 255 744 302 744 C350 744 388 781 388 828 L388 828 Z M29 0 L553 0 L553 183 L477 183 C469 90 444 67 378 67 L254 67 L254 318 L317 318 C379 318 394 301 398 247 L464 247 L464 457 L398 457 C394 400 378 386 316 386 L254 386 L254 624 L363 624 C433 624 445 602 467 526 L541 526 L530 695 L29 695 L29 647 C81 646 97 632 97 575 L97 117 C97 60 81 46 29 46 L29 0 Z " />
<glyph glyph-name="edotaccent" unicode="&#x117;" horiz-adv-x="529" d="M333 74 C237 74 199 120 195 233 L499 233 L499 276 C499 429 435 522 278 522 C133 522 35 425 35 256 C35 86 126 -12 281 -12 C370 -12 436 15 490 68 L466 109 C423 86 375 74 333 74 L333 74 Z M279 460 C331 460 351 422 351 301 L196 301 C203 423 228 460 279 460 L279 460 Z M361 652 C361 699 324 737 277 737 C229 737 190 699 190 652 C190 606 228 568 275 568 C323 568 361 606 361 652 L361 652 Z " />
<glyph glyph-name="Eogonek" unicode="&#x118;" horiz-adv-x="593" d="M428 -205 C475 -205 517 -192 548 -160 L532 -131 C511 -142 496 -146 478 -146 C454 -146 433 -132 433 -97 C433 -48 468 -6 530 -2 L553 0 L553 183 L477 183 C469 90 444 67 378 67 L254 67 L254 318 L317 318 C379 318 394 301 398 247 L464 247 L464 457 L398 457 C394 400 378 386 316 386 L254 386 L254 624 L363 624 C433 624 445 602 467 526 L541 526 L530 695 L29 695 L29 647 C81 646 97 632 97 575 L97 117 C97 60 81 46 29 46 L29 0 L415 0 C347 -32 311 -64 311 -115 C311 -179 365 -205 428 -205 L428 -205 Z " />
<glyph glyph-name="eogonek" unicode="&#x119;" horiz-adv-x="529" d="M441 -131 C421 -142 406 -146 388 -146 C364 -146 342 -132 342 -97 C342 -62 366 -26 416 10 C442 28 473 51 490 68 L466 109 C423 86 375 74 333 74 C237 74 199 120 195 233 L499 233 L499 276 C499 429 435 522 278 522 C133 522 35 425 35 256 C35 86 126 -12 281 -12 C288 -12 302 -11 312 -10 C257 -38 221 -70 221 -115 C221 -179 275 -205 338 -205 C385 -205 426 -192 457 -160 L441 -131 Z M279 460 C331 460 351 422 351 301 L196 301 C203 423 228 460 279 460 L279 460 Z " />
<glyph glyph-name="Ecaron" unicode="&#x11a;" horiz-adv-x="593" d="M303 864 L152 941 L127 904 L303 731 L479 904 L454 941 L303 864 Z M29 0 L553 0 L553 183 L477 183 C469 90 444 67 378 67 L254 67 L254 318 L317 318 C379 318 394 301 398 247 L464 247 L464 457 L398 457 C394 400 378 386 316 386 L254 386 L254 624 L363 624 C433 624 445 602 467 526 L541 526 L530 695 L29 695 L29 647 C81 646 97 632 97 575 L97 117 C97 60 81 46 29 46 L29 0 Z " />
<glyph glyph-name="ecaron" unicode="&#x11b;" horiz-adv-x="529" d="M277 684 L126 762 L101 725 L277 551 L453 725 L428 762 L277 684 Z M333 74 C237 74 199 120 195 233 L499 233 L499 276 C499 429 435 522 278 522 C133 522 35 425 35 256 C35 86 126 -12 281 -12 C370 -12 436 15 490 68 L466 109 C423 86 375 74 333 74 L333 74 Z M279 460 C331 460 351 422 351 301 L196 301 C203 423 228 460 279 460 L279 460 Z " />
<glyph glyph-name="Gcircumflex" unicode="&#x11c;" horiz-adv-x="695" d="M531 731 L556 768 L380 941 L204 768 L229 731 L380 808 L531 731 Z M453 77 C434 63 407 55 365 55 C268 55 216 118 216 342 C216 556 264 636 366 636 C443 636 466 596 481 520 L591 520 L591 656 C542 687 469 707 370 707 C175 707 41 591 41 338 C41 112 160 -12 360 -12 C447 -12 549 7 609 53 L609 230 C609 287 625 302 674 302 L674 350 L372 350 L372 302 C438 302 453 287 453 230 L453 77 Z " />
<glyph glyph-name="gcircumflex" unicode="&#x11d;" horiz-adv-x="548" d="M415 556 L440 593 L264 767 L88 593 L113 556 L264 634 L415 556 Z M257 -198 C405 -198 513 -145 513 -18 C513 90 446 124 318 130 L222 134 C202 135 194 144 194 157 C194 173 208 184 229 194 L241 194 C424 196 464 277 464 345 C464 387 444 416 418 434 C442 424 461 420 484 420 C514 420 540 431 566 449 L515 544 C487 520 448 496 413 496 C389 496 380 499 356 505 C326 513 293 522 252 522 C122 522 37 461 37 354 C37 277 86 224 168 207 C100 189 57 151 57 101 C57 57 79 20 132 14 C153 11 208 8 242 7 C347 5 379 -10 379 -60 C379 -109 348 -137 262 -137 C188 -137 159 -117 159 -69 C159 -50 163 -36 171 -21 L72 -22 C44 -33 20 -58 20 -92 C20 -162 115 -198 257 -198 L257 -198 Z M251 253 C209 253 185 283 185 356 C185 432 208 460 251 460 C298 460 319 433 319 353 C319 282 297 253 251 253 L251 253 Z " />
<glyph glyph-name="Gbreve" unicode="&#x11e;" horiz-adv-x="695" d="M381 743 C478 743 531 829 551 905 L514 928 C479 880 441 846 381 846 C320 846 282 880 248 928 L211 905 C231 829 283 743 381 743 L381 743 Z M453 77 C434 63 407 55 365 55 C268 55 216 118 216 342 C216 556 264 636 366 636 C443 636 466 596 481 520 L591 520 L591 656 C542 687 469 707 370 707 C175 707 41 591 41 338 C41 112 160 -12 360 -12 C447 -12 549 7 609 53 L609 230 C609 287 625 302 674 302 L674 350 L372 350 L372 302 C438 302 453 287 453 230 L453 77 Z " />
<glyph glyph-name="gbreve" unicode="&#x11f;" horiz-adv-x="548" d="M257 -198 C405 -198 513 -145 513 -18 C513 90 446 124 318 130 L222 134 C202 135 194 144 194 157 C194 173 208 184 229 194 L241 194 C424 196 464 277 464 345 C464 387 444 416 418 434 C442 424 461 420 484 420 C514 420 540 431 566 449 L515 544 C487 520 448 496 413 496 C389 496 380 499 356 505 C326 513 293 522 252 522 C122 522 37 461 37 354 C37 277 86 224 168 207 C100 189 57 151 57 101 C57 57 79 20 132 14 C153 11 208 8 242 7 C347 5 379 -10 379 -60 C379 -109 348 -137 262 -137 C188 -137 159 -117 159 -69 C159 -50 163 -36 171 -21 L72 -22 C44 -33 20 -58 20 -92 C20 -162 115 -198 257 -198 L257 -198 Z M251 253 C209 253 185 283 185 356 C185 432 208 460 251 460 C298 460 319 433 319 353 C319 282 297 253 251 253 L251 253 Z M264 565 C360 565 410 651 429 727 L392 749 C359 701 322 668 263 668 C205 668 167 701 135 749 L98 727 C118 651 167 565 264 565 L264 565 Z " />
<glyph glyph-name="Gdotaccent" unicode="&#x120;" horiz-adv-x="695" d="M466 828 C466 875 429 913 382 913 C334 913 295 875 295 828 C295 781 333 744 380 744 C428 744 466 781 466 828 L466 828 Z M453 77 C434 63 407 55 365 55 C268 55 216 118 216 342 C216 556 264 636 366 636 C443 636 466 596 481 520 L591 520 L591 656 C542 687 469 707 370 707 C175 707 41 591 41 338 C41 112 160 -12 360 -12 C447 -12 549 7 609 53 L609 230 C609 287 625 302 674 302 L674 350 L372 350 L372 302 C438 302 453 287 453 230 L453 77 Z " />
<glyph glyph-name="gdotaccent" unicode="&#x121;" horiz-adv-x="548" d="M257 -198 C405 -198 513 -145 513 -18 C513 90 446 124 318 130 L222 134 C202 135 194 144 194 157 C194 173 208 184 229 194 L241 194 C424 196 464 277 464 345 C464 387 444 416 418 434 C442 424 461 420 484 420 C514 420 540 431 566 449 L515 544 C487 520 448 496 413 496 C389 496 380 499 356 505 C326 513 293 522 252 522 C122 522 37 461 37 354 C37 277 86 224 168 207 C100 189 57 151 57 101 C57 57 79 20 132 14 C153 11 208 8 242 7 C347 5 379 -10 379 -60 C379 -109 348 -137 262 -137 C188 -137 159 -117 159 -69 C159 -50 163 -36 171 -21 L72 -22 C44 -33 20 -58 20 -92 C20 -162 115 -198 257 -198 L257 -198 Z M251 253 C209 253 185 283 185 356 C185 432 208 460 251 460 C298 460 319 433 319 353 C319 282 297 253 251 253 L251 253 Z M350 652 C350 699 313 737 266 737 C218 737 179 699 179 652 C179 606 217 568 264 568 C312 568 350 606 350 652 L350 652 Z " />
<glyph glyph-name="Gcommaaccent" unicode="&#x122;" horiz-adv-x="695" d="M453 77 C434 63 407 55 365 55 C268 55 216 118 216 342 C216 556 264 636 366 636 C443 636 466 596 481 520 L591 520 L591 656 C542 687 469 707 370 707 C175 707 41 591 41 338 C41 112 160 -12 360 -12 C447 -12 549 7 609 53 L609 230 C609 287 625 302 674 302 L674 350 L372 350 L372 302 C438 302 453 287 453 230 L453 77 Z M469 -142 C469 -84 436 -44 379 -44 C332 -44 301 -74 301 -111 C301 -145 317 -161 338 -169 C358 -178 364 -184 364 -197 C364 -221 346 -234 292 -251 L317 -286 C401 -269 469 -222 469 -142 L469 -142 Z " />
<glyph glyph-name="gcommaaccent" unicode="&#x123;" horiz-adv-x="548" d="M257 -198 C405 -198 513 -145 513 -18 C513 90 446 124 318 130 L222 134 C202 135 194 144 194 157 C194 173 208 184 229 194 L241 194 C424 196 464 277 464 345 C464 387 444 416 418 434 C442 424 461 420 484 420 C514 420 540 431 566 449 L515 544 C487 520 448 496 413 496 C389 496 380 499 356 505 C326 513 293 522 252 522 C122 522 37 461 37 354 C37 277 86 224 168 207 C100 189 57 151 57 101 C57 57 79 20 132 14 C153 11 208 8 242 7 C347 5 379 -10 379 -60 C379 -109 348 -137 262 -137 C188 -137 159 -117 159 -69 C159 -50 163 -36 171 -21 L72 -22 C44 -33 20 -58 20 -92 C20 -162 115 -198 257 -198 L257 -198 Z M251 253 C209 253 185 283 185 356 C185 432 208 460 251 460 C298 460 319 433 319 353 C319 282 297 253 251 253 L251 253 Z M174 668 C174 610 207 570 264 570 C311 570 342 599 342 636 C342 671 325 687 305 695 C285 703 279 709 279 722 C279 747 297 760 351 777 L326 812 C242 795 174 748 174 668 L174 668 Z " />
<glyph glyph-name="Hcircumflex" unicode="&#x124;" horiz-adv-x="746" d="M492 117 C492 60 476 46 423 46 L423 0 L717 0 L717 46 C665 46 649 60 649 117 L649 575 C649 632 665 646 717 647 L717 695 L423 695 L423 647 C476 646 492 632 492 575 L492 394 L254 394 L254 575 C254 632 270 646 323 647 L323 695 L29 695 L29 647 C81 646 97 632 97 575 L97 117 C97 60 81 46 29 46 L29 0 L323 0 L323 46 C270 46 254 60 254 117 L254 319 L492 319 L492 117 Z M523 731 L548 768 L372 941 L196 768 L221 731 L372 808 L523 731 Z " />
<glyph glyph-name="hcircumflex" unicode="&#x125;" horiz-adv-x="620" d="M230 635 C230 687 221 719 212 734 L197 734 L17 707 L17 663 C67 661 81 651 81 578 L81 115 C81 58 71 46 21 45 L21 0 L291 0 L291 45 C239 46 230 59 230 113 L230 378 C256 398 286 416 331 416 C372 416 397 395 397 335 L397 113 C397 59 388 46 336 45 L336 0 L605 0 L605 45 C556 46 545 58 545 115 L545 370 C545 473 483 521 401 521 C323 521 274 486 230 437 L230 635 Z M461 759 L486 796 L310 969 L134 796 L159 759 L310 836 L461 759 Z " />
<glyph glyph-name="Hbar" unicode="&#x126;" horiz-adv-x="746" d="M32 486 L97 486 L97 117 C97 60 81 46 29 46 L29 0 L323 0 L323 46 C270 46 254 60 254 117 L254 319 L492 319 L492 117 C492 60 476 46 423 46 L423 0 L717 0 L717 46 C665 46 649 60 649 117 L649 486 L714 486 L714 549 L649 549 L649 575 C649 632 665 646 717 647 L717 695 L423 695 L423 647 C476 646 492 632 492 575 L492 549 L254 549 L254 575 C254 632 270 646 323 647 L323 695 L29 695 L29 647 C81 646 97 632 97 575 L97 549 L32 549 L32 486 Z M254 394 L254 486 L492 486 L492 394 L254 394 Z " />
<glyph glyph-name="hbar" unicode="&#x127;" horiz-adv-x="620" d="M230 635 C230 695 216 726 212 734 L197 734 L17 707 L17 663 C68 663 81 658 81 611 L17 611 L17 566 L81 566 L81 115 C81 58 71 46 21 45 L21 0 L291 0 L291 45 C239 46 230 59 230 113 L230 378 C256 398 286 416 331 416 C372 416 397 395 397 335 L397 113 C397 59 388 46 336 45 L336 0 L605 0 L605 45 C556 46 545 58 545 115 L545 370 C545 473 483 521 401 521 C323 521 274 486 230 437 L230 566 L392 566 L392 611 L230 611 L230 635 Z " />
<glyph glyph-name="Itilde" unicode="&#x128;" horiz-adv-x="352" d="M97 117 C97 60 81 46 29 46 L29 0 L323 0 L323 46 C270 46 254 60 254 117 L254 575 C254 632 270 646 323 647 L323 695 L29 695 L29 647 C81 646 97 632 97 575 L97 117 Z M245 857 C196 857 167 895 107 895 C47 895 6 832 -5 760 L30 745 C49 779 69 794 103 794 C146 794 180 758 241 758 C299 758 340 816 357 887 L320 903 C302 868 276 857 245 857 L245 857 Z " />
<glyph glyph-name="itilde" unicode="&#x129;" horiz-adv-x="315" d="M297 0 L297 45 C245 46 236 58 236 115 L236 517 L214 517 L27 482 L27 438 C77 436 87 426 87 353 L87 115 C87 58 76 46 26 45 L26 0 L297 0 Z M224 686 C177 686 146 720 90 720 C32 720 -9 655 -20 583 L15 568 C33 602 54 616 85 616 C127 616 163 584 220 584 C276 584 317 644 334 715 L297 731 C279 697 254 686 224 686 L224 686 Z " />
<glyph glyph-name="Imacron" unicode="&#x12a;" horiz-adv-x="352" d="M97 117 C97 60 81 46 29 46 L29 0 L323 0 L323 46 C270 46 254 60 254 117 L254 575 C254 632 270 646 323 647 L323 695 L29 695 L29 647 C81 646 97 632 97 575 L97 117 Z M330 773 L330 851 L24 851 L24 773 L330 773 Z " />
<glyph glyph-name="imacron" unicode="&#x12b;" horiz-adv-x="315" d="M297 0 L297 45 C245 46 236 58 236 115 L236 517 L214 517 L27 482 L27 438 C77 436 87 426 87 353 L87 115 C87 58 76 46 26 45 L26 0 L297 0 Z M274 601 L274 679 L20 679 L20 601 L274 601 Z " />
<glyph glyph-name="Ibreve" unicode="&#x12c;" horiz-adv-x="352" d="M97 117 C97 60 81 46 29 46 L29 0 L323 0 L323 46 C270 46 254 60 254 117 L254 575 C254 632 270 646 323 647 L323 695 L29 695 L29 647 C81 646 97 632 97 575 L97 117 Z M176 743 C273 743 326 829 346 905 L309 928 C274 880 236 846 176 846 C115 846 77 880 43 928 L6 905 C26 829 78 743 176 743 L176 743 Z " />
<glyph glyph-name="ibreve" unicode="&#x12d;" horiz-adv-x="315" d="M297 0 L297 45 C245 46 236 58 236 115 L236 517 L214 517 L27 482 L27 438 C77 436 87 426 87 353 L87 115 C87 58 76 46 26 45 L26 0 L297 0 Z M158 565 C254 565 304 651 323 727 L286 749 C253 701 216 668 157 668 C99 668 61 701 29 749 L-8 727 C12 651 61 565 158 565 L158 565 Z " />
<glyph glyph-name="Iogonek" unicode="&#x12e;" horiz-adv-x="352" d="M304 -131 C283 -142 268 -146 250 -146 C226 -146 205 -132 205 -97 C205 -49 244 0 300 0 L323 0 L323 46 C270 46 254 60 254 117 L254 575 C254 632 270 646 323 647 L323 695 L29 695 L29 647 C81 646 97 632 97 575 L97 117 C97 60 81 46 29 46 L29 0 L183 0 C115 -32 83 -64 83 -115 C83 -179 137 -205 200 -205 C247 -205 289 -192 320 -160 L304 -131 Z " />
<glyph glyph-name="iogonek" unicode="&#x12f;" horiz-adv-x="315" d="M288 -131 C268 -142 252 -146 234 -146 C210 -146 189 -132 189 -97 C189 -56 225 -5 297 0 L297 45 C245 46 236 58 236 115 L236 517 L214 517 L27 482 L27 438 C77 436 87 426 87 353 L87 115 C87 58 76 46 26 45 L26 0 L168 0 C100 -32 68 -64 68 -115 C68 -179 122 -205 185 -205 C231 -205 273 -192 304 -160 L288 -131 Z M244 650 C244 698 206 737 157 737 C107 737 67 698 67 650 C67 601 107 562 155 562 C205 562 244 601 244 650 L244 650 Z " />
<glyph glyph-name="Idotaccent" unicode="&#x130;" horiz-adv-x="352" d="M97 117 C97 60 81 46 29 46 L29 0 L323 0 L323 46 C270 46 254 60 254 117 L254 575 C254 632 270 646 323 647 L323 695 L29 695 L29 647 C81 646 97 632 97 575 L97 117 Z M260 828 C260 875 223 913 176 913 C128 913 89 875 89 828 C89 781 127 744 174 744 C222 744 260 781 260 828 L260 828 Z " />
<glyph glyph-name="dotlessi" unicode="&#x131;" horiz-adv-x="315" d="M297 0 L297 45 C245 46 236 58 236 115 L236 517 L214 517 L27 482 L27 438 C77 436 87 426 87 353 L87 115 C87 58 76 46 26 45 L26 0 L297 0 Z " />
<glyph glyph-name="IJ" unicode="&#x132;" horiz-adv-x="706" d="M97 117 C97 60 81 46 29 46 L29 0 L323 0 L323 46 C270 46 254 60 254 117 L254 575 C254 632 270 646 323 647 L323 695 L29 695 L29 647 C81 646 97 632 97 575 L97 117 Z M450 100 C450 -11 436 -51 330 -102 L356 -147 C519 -116 607 -55 607 107 L607 575 C607 632 623 646 677 647 L677 695 L380 695 L380 647 C433 646 450 632 450 575 L450 100 Z " />
<glyph glyph-name="ij" unicode="&#x133;" horiz-adv-x="612" d="M297 0 L297 45 C245 46 236 58 236 115 L236 517 L214 517 L27 482 L27 438 C77 436 87 426 87 353 L87 115 C87 58 76 46 26 45 L26 0 L297 0 Z M244 650 C244 698 206 737 157 737 C107 737 67 698 67 650 C67 601 107 562 155 562 C205 562 244 601 244 650 L244 650 Z M391 16 C391 -87 372 -134 311 -162 L340 -206 C432 -184 539 -133 539 16 L539 517 L517 517 L330 482 L330 438 C380 436 391 426 391 353 L391 16 Z M548 650 C548 698 510 737 461 737 C411 737 370 698 370 650 C370 601 410 562 458 562 C508 562 548 601 548 650 L548 650 Z " />
<glyph glyph-name="Jcircumflex" unicode="&#x134;" horiz-adv-x="354" d="M326 731 L351 768 L175 941 L-1 768 L24 731 L175 808 L326 731 Z M99 100 C99 -11 85 -51 -21 -102 L5 -147 C168 -116 256 -55 256 107 L256 575 C256 632 272 646 326 647 L326 695 L29 695 L29 647 C82 646 99 632 99 575 L99 100 Z " />
<glyph glyph-name="jcircumflex" unicode="&#x135;" horiz-adv-x="306" d="M86 16 C86 -87 67 -134 6 -162 L35 -206 C127 -184 234 -133 234 16 L234 517 L212 517 L25 482 L25 438 C75 436 86 426 86 353 L86 16 Z M308 556 L333 593 L157 767 L-19 593 L6 556 L157 634 L308 556 Z " />
<glyph glyph-name="Kcommaaccent" unicode="&#x136;" horiz-adv-x="685" d="M97 117 C97 60 81 46 29 46 L29 0 L323 0 L323 46 C270 46 254 60 254 117 L254 575 C254 632 270 646 323 647 L323 695 L29 695 L29 647 C81 646 97 632 97 575 L97 117 Z M546 577 C587 626 611 643 654 648 L654 695 L430 695 L430 648 C459 648 473 637 473 621 C473 613 469 604 460 592 L270 346 L466 0 L672 0 L672 46 C629 49 611 56 588 95 L407 406 L546 577 Z M432 -142 C432 -84 399 -44 342 -44 C295 -44 264 -74 264 -111 C264 -145 280 -161 301 -169 C321 -178 327 -184 327 -197 C327 -221 309 -234 255 -251 L280 -286 C364 -269 432 -222 432 -142 L432 -142 Z " />
<glyph glyph-name="kcommaaccent" unicode="&#x137;" horiz-adv-x="588" d="M21 0 L291 0 L291 45 C239 46 230 59 230 113 L230 635 C230 695 216 725 212 734 L197 734 L17 707 L17 663 C67 661 81 651 81 578 L81 115 C81 58 71 46 21 45 L21 0 Z M401 0 L587 0 L587 45 C554 49 533 56 505 100 L372 305 L461 399 C499 439 525 458 565 463 L565 509 L336 509 L336 463 C384 462 399 436 367 401 L238 260 L401 0 Z M391 -142 C391 -84 358 -44 301 -44 C254 -44 223 -74 223 -111 C223 -145 239 -161 260 -169 C280 -178 286 -184 286 -197 C286 -221 268 -234 214 -251 L239 -286 C323 -269 391 -222 391 -142 L391 -142 Z " />
<glyph glyph-name="kgreenlandic" unicode="&#x138;" horiz-adv-x="595" d="M468 399 C506 439 532 458 572 463 L572 509 L343 509 L343 463 C374 462 391 451 391 434 C391 425 385 413 374 401 L245 260 L408 0 L594 0 L594 45 C561 49 540 56 512 100 L379 305 L468 399 Z M297 0 L297 45 C245 46 236 58 236 115 L236 517 L214 517 L27 482 L27 438 C77 436 87 426 87 353 L87 115 C87 58 76 46 26 45 L26 0 L297 0 Z " />
<glyph glyph-name="Lacute" unicode="&#x139;" horiz-adv-x="562" d="M88 727 L334 799 L269 929 L64 765 L88 727 Z M254 575 C254 632 270 646 324 647 L324 695 L29 695 L29 647 C81 646 97 632 97 575 L97 117 C97 60 81 46 29 46 L29 0 L528 0 L542 192 L465 192 C446 96 413 67 348 67 L254 67 L254 575 Z " />
<glyph glyph-name="lacute" unicode="&#x13a;" horiz-adv-x="312" d="M48 739 L294 811 L229 941 L24 777 L48 739 Z M231 635 C231 695 218 724 213 734 L198 734 L17 707 L17 663 C68 661 83 651 83 578 L83 115 C83 58 72 46 21 45 L21 0 L293 0 L293 45 C241 46 231 59 231 116 L231 635 Z " />
<glyph glyph-name="Lcommaaccent" unicode="&#x13b;" horiz-adv-x="562" d="M254 575 C254 632 270 646 324 647 L324 695 L29 695 L29 647 C81 646 97 632 97 575 L97 117 C97 60 81 46 29 46 L29 0 L528 0 L542 192 L465 192 C446 96 413 67 348 67 L254 67 L254 575 Z M375 -142 C375 -84 342 -44 285 -44 C238 -44 207 -74 207 -111 C207 -145 223 -161 244 -169 C264 -178 270 -184 270 -197 C270 -221 252 -234 198 -251 L223 -286 C307 -269 375 -222 375 -142 L375 -142 Z " />
<glyph glyph-name="lcommaaccent" unicode="&#x13c;" horiz-adv-x="312" d="M231 635 C231 695 218 724 213 734 L198 734 L17 707 L17 663 C68 661 83 651 83 578 L83 115 C83 58 72 46 21 45 L21 0 L293 0 L293 45 C241 46 231 59 231 116 L231 635 Z M244 -142 C244 -84 211 -44 154 -44 C107 -44 76 -74 76 -111 C76 -145 92 -161 113 -169 C133 -178 139 -184 139 -197 C139 -221 121 -234 67 -251 L92 -286 C176 -269 244 -222 244 -142 L244 -142 Z " />
<glyph glyph-name="Lcaron" unicode="&#x13d;" horiz-adv-x="562" d="M254 575 C254 632 270 646 324 647 L324 695 L29 695 L29 647 C81 646 97 632 97 575 L97 117 C97 60 81 46 29 46 L29 0 L528 0 L542 192 L465 192 C446 96 413 67 348 67 L254 67 L254 575 Z M514 724 L400 737 L387 556 L447 547 L514 724 Z " />
<glyph glyph-name="lcaron" unicode="&#x13e;" horiz-adv-x="312" d="M231 635 C231 695 218 724 213 734 L198 734 L17 707 L17 663 C68 661 83 651 83 578 L83 115 C83 58 72 46 21 45 L21 0 L293 0 L293 45 C241 46 231 59 231 116 L231 635 Z M399 724 L285 737 L272 556 L332 547 L399 724 Z " />
<glyph glyph-name="Ldot" unicode="&#x13f;" horiz-adv-x="562" d="M254 575 C254 632 270 646 324 647 L324 695 L29 695 L29 647 C81 646 97 632 97 575 L97 117 C97 60 81 46 29 46 L29 0 L528 0 L542 192 L465 192 C446 96 413 67 348 67 L254 67 L254 575 Z M555 380 C555 430 514 471 464 471 C414 471 373 430 373 380 C373 328 414 287 464 287 C514 287 555 328 555 380 L555 380 Z " />
<glyph glyph-name="ldot" unicode="&#x140;" horiz-adv-x="436" d="M231 635 C231 695 218 724 213 734 L198 734 L17 707 L17 663 C68 661 83 651 83 578 L83 115 C83 58 72 46 21 45 L21 0 L293 0 L293 45 C241 46 231 59 231 116 L231 635 Z M456 356 C456 402 418 441 371 441 C324 441 285 402 285 356 C285 308 324 269 371 269 C418 269 456 308 456 356 L456 356 Z " />
<glyph glyph-name="Lslash" unicode="&#x141;" horiz-adv-x="562" d="M254 575 C254 632 270 646 324 647 L324 695 L29 695 L29 647 C81 646 97 632 97 575 L97 321 L29 296 L29 238 L97 263 L97 117 C97 60 81 46 29 46 L29 0 L528 0 L542 192 L465 192 C446 96 413 67 348 67 L254 67 L254 318 L444 387 L444 446 L254 377 L254 575 Z " />
<glyph glyph-name="lslash" unicode="&#x142;" horiz-adv-x="324" d="M17 345 L17 288 L90 320 L90 115 C90 58 79 46 28 45 L28 0 L300 0 L300 45 C248 46 238 59 238 116 L238 385 L315 419 L315 476 L238 442 L238 635 C238 696 225 726 220 734 L205 734 L24 707 L24 663 C75 661 90 651 90 578 L90 377 L17 345 Z " />
<glyph glyph-name="Nacute" unicode="&#x143;" horiz-adv-x="704" d="M249 727 L495 799 L430 929 L225 765 L249 727 Z M534 381 C534 323 540 255 543 232 L538 232 C527 261 503 313 472 362 L260 695 L29 695 L29 647 C81 646 97 632 97 575 L97 117 C97 60 81 46 29 46 L29 0 L252 0 L252 46 C199 46 183 60 183 117 L183 376 C183 440 177 506 174 529 L178 529 C188 507 214 453 261 380 L506 0 L618 0 L618 575 C618 632 633 646 685 647 L685 695 L465 695 L465 647 C518 646 534 632 534 575 L534 381 Z " />
<glyph glyph-name="nacute" unicode="&#x144;" horiz-adv-x="625" d="M211 558 L451 654 L373 779 L185 593 L211 558 Z M551 370 C551 473 488 521 406 521 C328 521 275 481 232 432 C229 472 210 511 203 522 L188 522 L27 482 L27 438 C77 436 87 426 87 353 L87 115 C87 58 76 46 26 45 L26 0 L297 0 L297 45 C245 46 236 59 236 113 L236 378 C262 398 292 416 336 416 C378 416 402 395 402 335 L402 113 C402 59 393 46 342 45 L342 0 L610 0 L610 45 C562 46 551 58 551 115 L551 370 Z " />
<glyph glyph-name="Ncommaaccent" unicode="&#x145;" horiz-adv-x="704" d="M534 381 C534 323 540 255 543 232 L538 232 C527 261 503 313 472 362 L260 695 L29 695 L29 647 C81 646 97 632 97 575 L97 117 C97 60 81 46 29 46 L29 0 L252 0 L252 46 C199 46 183 60 183 117 L183 376 C183 440 177 506 174 529 L178 529 C188 507 214 453 261 380 L506 0 L618 0 L618 575 C618 632 633 646 685 647 L685 695 L465 695 L465 647 C518 646 534 632 534 575 L534 381 Z M445 -142 C445 -84 412 -44 355 -44 C308 -44 277 -74 277 -111 C277 -145 293 -161 314 -169 C334 -178 340 -184 340 -197 C340 -221 322 -234 268 -251 L293 -286 C377 -269 445 -222 445 -142 L445 -142 Z " />
<glyph glyph-name="ncommaaccent" unicode="&#x146;" horiz-adv-x="625" d="M551 370 C551 473 488 521 406 521 C328 521 275 481 232 432 C229 472 210 511 203 522 L188 522 L27 482 L27 438 C77 436 87 426 87 353 L87 115 C87 58 76 46 26 45 L26 0 L297 0 L297 45 C245 46 236 59 236 113 L236 378 C262 398 292 416 336 416 C378 416 402 395 402 335 L402 113 C402 59 393 46 342 45 L342 0 L610 0 L610 45 C562 46 551 58 551 115 L551 370 Z M406 -142 C406 -84 373 -44 316 -44 C269 -44 238 -74 238 -111 C238 -145 254 -161 275 -169 C295 -178 301 -184 301 -197 C301 -221 283 -234 229 -251 L254 -286 C338 -269 406 -222 406 -142 L406 -142 Z " />
<glyph glyph-name="Ncaron" unicode="&#x147;" horiz-adv-x="704" d="M356 864 L205 941 L180 904 L356 731 L532 904 L507 941 L356 864 Z M534 381 C534 323 540 255 543 232 L538 232 C527 261 503 313 472 362 L260 695 L29 695 L29 647 C81 646 97 632 97 575 L97 117 C97 60 81 46 29 46 L29 0 L252 0 L252 46 C199 46 183 60 183 117 L183 376 C183 440 177 506 174 529 L178 529 C188 507 214 453 261 380 L506 0 L618 0 L618 575 C618 632 633 646 685 647 L685 695 L465 695 L465 647 C518 646 534 632 534 575 L534 381 Z " />
<glyph glyph-name="ncaron" unicode="&#x148;" horiz-adv-x="625" d="M317 684 L166 762 L141 725 L317 551 L493 725 L468 762 L317 684 Z M551 370 C551 473 488 521 406 521 C328 521 275 481 232 432 C229 472 210 511 203 522 L188 522 L27 482 L27 438 C77 436 87 426 87 353 L87 115 C87 58 76 46 26 45 L26 0 L297 0 L297 45 C245 46 236 59 236 113 L236 378 C262 398 292 416 336 416 C378 416 402 395 402 335 L402 113 C402 59 393 46 342 45 L342 0 L610 0 L610 45 C562 46 551 58 551 115 L551 370 Z " />
<glyph glyph-name="napostrophe" unicode="&#x149;" horiz-adv-x="625" d="M44 612 C44 670 11 710 -46 710 C-93 710 -124 681 -124 644 C-124 609 -107 593 -87 585 C-67 577 -61 571 -61 558 C-61 533 -79 520 -133 503 L-108 468 C-24 485 44 532 44 612 L44 612 Z M551 370 C551 473 488 521 406 521 C328 521 275 481 232 432 C229 472 210 511 203 522 L188 522 L27 482 L27 438 C77 436 87 426 87 353 L87 115 C87 58 76 46 26 45 L26 0 L297 0 L297 45 C245 46 236 59 236 113 L236 378 C262 398 292 416 336 416 C378 416 402 395 402 335 L402 113 C402 59 393 46 342 45 L342 0 L610 0 L610 45 C562 46 551 58 551 115 L551 370 Z " />
<glyph glyph-name="Eng" unicode="&#x14a;" horiz-adv-x="704" d="M495 19 C493 -58 455 -106 374 -143 L401 -185 C554 -153 618 -86 618 71 L618 575 C618 632 633 646 685 647 L685 695 L465 695 L465 647 C518 646 534 632 534 575 L534 381 C534 322 540 251 543 232 L538 232 C529 255 503 313 472 362 L260 695 L29 695 L29 647 C81 646 97 632 97 575 L97 117 C97 60 81 46 29 46 L29 0 L252 0 L252 46 C199 46 183 60 183 117 L183 376 C183 435 177 508 174 529 L178 529 C186 510 217 448 261 380 L495 19 Z " />
<glyph glyph-name="eng" unicode="&#x14b;" horiz-adv-x="606" d="M402 16 C402 -87 383 -134 322 -162 L351 -206 C443 -184 551 -133 551 16 L551 370 C551 473 488 521 406 521 C328 521 275 481 232 432 C228 475 209 512 203 522 L188 522 L27 482 L27 438 C77 436 87 426 87 353 L87 115 C87 58 76 46 26 45 L26 0 L297 0 L297 45 C245 46 236 59 236 113 L236 378 C262 398 292 416 336 416 C378 416 402 395 402 335 L402 16 Z " />
<glyph glyph-name="Omacron" unicode="&#x14c;" horiz-adv-x="706" d="M506 773 L506 851 L200 851 L200 773 L506 773 Z M354 -12 C550 -12 665 115 665 338 C665 581 545 707 353 707 C171 707 41 593 41 340 C41 118 154 -12 354 -12 L354 -12 Z M353 636 C449 636 491 561 491 343 C491 108 438 53 354 53 C261 53 215 121 215 349 C215 566 259 636 353 636 L353 636 Z " />
<glyph glyph-name="omacron" unicode="&#x14d;" horiz-adv-x="578" d="M440 601 L440 679 L138 679 L138 601 L440 601 Z M543 262 C543 437 439 522 294 522 C135 522 35 415 35 253 C35 85 129 -13 286 -13 C425 -13 543 72 543 262 L543 262 Z M380 266 C380 112 350 49 291 49 C219 49 198 111 198 251 C198 409 226 458 289 458 C349 458 380 411 380 266 L380 266 Z " />
<glyph glyph-name="Obreve" unicode="&#x14e;" horiz-adv-x="706" d="M353 743 C450 743 503 829 523 905 L486 928 C451 880 413 846 353 846 C292 846 254 880 220 928 L183 905 C203 829 255 743 353 743 L353 743 Z M354 -12 C550 -12 665 115 665 338 C665 581 545 707 353 707 C171 707 41 593 41 340 C41 118 154 -12 354 -12 L354 -12 Z M353 636 C449 636 491 561 491 343 C491 108 438 53 354 53 C261 53 215 121 215 349 C215 566 259 636 353 636 L353 636 Z " />
<glyph glyph-name="obreve" unicode="&#x14f;" horiz-adv-x="578" d="M543 262 C543 437 439 522 294 522 C135 522 35 415 35 253 C35 85 129 -13 286 -13 C425 -13 543 72 543 262 L543 262 Z M380 266 C380 112 350 49 291 49 C219 49 198 111 198 251 C198 409 226 458 289 458 C349 458 380 411 380 266 L380 266 Z M292 565 C388 565 438 651 457 727 L420 749 C387 701 350 668 291 668 C233 668 195 701 163 749 L126 727 C146 651 195 565 292 565 L292 565 Z " />
<glyph glyph-name="Ohungarumlaut" unicode="&#x150;" horiz-adv-x="706" d="M415 928 L296 974 L238 756 L287 736 L415 928 Z M594 896 L483 963 L400 753 L444 727 L594 896 Z M354 -12 C550 -12 665 115 665 338 C665 581 545 707 353 707 C171 707 41 593 41 340 C41 118 154 -12 354 -12 L354 -12 Z M353 636 C449 636 491 561 491 343 C491 108 438 53 354 53 C261 53 215 121 215 349 C215 566 259 636 353 636 L353 636 Z " />
<glyph glyph-name="ohungarumlaut" unicode="&#x151;" horiz-adv-x="578" d="M358 763 L239 808 L176 581 L225 561 L358 763 Z M538 730 L426 797 L338 578 L381 552 L538 730 Z M543 262 C543 437 439 522 294 522 C135 522 35 415 35 253 C35 85 129 -13 286 -13 C425 -13 543 72 543 262 L543 262 Z M380 266 C380 112 350 49 291 49 C219 49 198 111 198 251 C198 409 226 458 289 458 C349 458 380 411 380 266 L380 266 Z " />
<glyph glyph-name="OE" unicode="&#x152;" horiz-adv-x="980" d="M420 67 C295 67 210 113 210 337 C210 567 295 624 416 624 L480 624 L480 67 L420 67 Z M404 695 C200 695 41 596 41 344 C41 121 183 0 408 0 L940 0 L940 183 L864 183 C856 90 831 67 765 67 L641 67 L641 318 L704 318 C766 318 781 301 785 247 L851 247 L851 457 L785 457 C781 400 765 386 703 386 L641 386 L641 624 L750 624 C821 624 832 602 854 526 L928 526 L917 695 L404 695 Z " />
<glyph glyph-name="oe" unicode="&#x153;" horiz-adv-x="877" d="M680 74 C584 74 545 120 542 233 L846 233 L846 276 C846 429 782 522 625 522 C560 522 500 497 464 452 C427 495 362 522 294 522 C135 522 35 415 35 253 C35 85 129 -13 286 -13 C353 -13 418 12 458 58 C490 15 556 -12 628 -12 C717 -12 783 15 837 68 L813 109 C770 86 722 74 680 74 L680 74 Z M380 266 C380 112 350 49 291 49 C219 49 198 111 198 251 C198 409 226 458 289 458 C349 458 380 411 380 266 L380 266 Z M626 460 C678 460 698 422 698 301 L543 301 C550 423 575 460 626 460 L626 460 Z " />
<glyph glyph-name="Racute" unicode="&#x154;" horiz-adv-x="662" d="M225 727 L471 799 L406 929 L201 765 L225 727 Z M399 313 C507 319 592 372 592 495 C592 640 490 695 346 695 L29 695 L29 647 C81 646 97 632 97 575 L97 117 C97 60 81 46 29 46 L29 0 L322 0 L322 46 C271 46 254 61 254 117 L254 292 C305 287 326 270 361 207 C400 134 414 103 458 0 L660 0 L660 46 C612 48 603 66 584 104 C553 167 534 201 508 238 C486 268 448 296 399 309 L399 313 Z M425 494 C425 389 389 362 314 362 L254 362 L254 624 L316 624 C392 624 425 590 425 494 L425 494 Z " />
<glyph glyph-name="racute" unicode="&#x155;" horiz-adv-x="412" d="M129 558 L369 654 L291 779 L103 593 L129 558 Z M234 394 C232 460 210 509 203 522 L188 522 L27 482 L27 438 C77 436 87 426 87 353 L87 115 C87 58 76 46 26 45 L26 0 L315 0 L315 45 C247 46 236 58 236 115 L236 271 C236 349 256 373 332 373 C356 373 369 370 387 365 L415 516 C407 519 393 522 378 522 C323 522 259 480 234 394 L234 394 Z " />
<glyph glyph-name="Rcommaaccent" unicode="&#x156;" horiz-adv-x="662" d="M399 313 C507 319 592 372 592 495 C592 640 490 695 346 695 L29 695 L29 647 C81 646 97 632 97 575 L97 117 C97 60 81 46 29 46 L29 0 L322 0 L322 46 C271 46 254 61 254 117 L254 292 C305 287 326 270 361 207 C400 134 414 103 458 0 L660 0 L660 46 C612 48 603 66 584 104 C553 167 534 201 508 238 C486 268 448 296 399 309 L399 313 Z M425 494 C425 389 389 362 314 362 L254 362 L254 624 L316 624 C392 624 425 590 425 494 L425 494 Z M428 -142 C428 -84 395 -44 338 -44 C291 -44 260 -74 260 -111 C260 -145 276 -161 297 -169 C317 -178 323 -184 323 -197 C323 -221 305 -234 251 -251 L276 -286 C360 -269 428 -222 428 -142 L428 -142 Z " />
<glyph glyph-name="rcommaaccent" unicode="&#x157;" horiz-adv-x="412" d="M234 394 C232 460 210 509 203 522 L188 522 L27 482 L27 438 C77 436 87 426 87 353 L87 115 C87 58 76 46 26 45 L26 0 L315 0 L315 45 C247 46 236 58 236 115 L236 271 C236 349 256 373 332 373 C356 373 369 370 387 365 L415 516 C407 519 393 522 378 522 C323 522 259 480 234 394 L234 394 Z M247 -142 C247 -84 214 -44 157 -44 C110 -44 79 -74 79 -111 C79 -145 95 -161 116 -169 C136 -178 142 -184 142 -197 C142 -221 124 -234 70 -251 L95 -286 C179 -269 247 -222 247 -142 L247 -142 Z " />
<glyph glyph-name="Rcaron" unicode="&#x158;" horiz-adv-x="662" d="M310 864 L159 941 L134 904 L310 731 L486 904 L461 941 L310 864 Z M399 313 C507 319 592 372 592 495 C592 640 490 695 346 695 L29 695 L29 647 C81 646 97 632 97 575 L97 117 C97 60 81 46 29 46 L29 0 L322 0 L322 46 C271 46 254 61 254 117 L254 292 C305 287 326 270 361 207 C400 134 414 103 458 0 L660 0 L660 46 C612 48 603 66 584 104 C553 167 534 201 508 238 C486 268 448 296 399 309 L399 313 Z M425 494 C425 389 389 362 314 362 L254 362 L254 624 L316 624 C392 624 425 590 425 494 L425 494 Z " />
<glyph glyph-name="rcaron" unicode="&#x159;" horiz-adv-x="412" d="M238 684 L87 762 L62 725 L238 551 L414 725 L389 762 L238 684 Z M234 394 C232 460 210 509 203 522 L188 522 L27 482 L27 438 C77 436 87 426 87 353 L87 115 C87 58 76 46 26 45 L26 0 L315 0 L315 45 C247 46 236 58 236 115 L236 271 C236 349 256 373 332 373 C356 373 369 370 387 365 L415 516 C407 519 393 522 378 522 C323 522 259 480 234 394 L234 394 Z " />
<glyph glyph-name="Sacute" unicode="&#x15a;" horiz-adv-x="551" d="M251 -13 C421 -13 516 67 516 211 C516 335 442 397 329 426 L261 443 C189 461 165 493 165 547 C165 606 197 643 263 643 C344 643 370 595 379 520 L481 520 L481 658 C448 677 383 707 275 707 C129 707 34 633 34 491 C34 372 95 319 200 291 L271 272 C351 250 378 219 378 157 C378 81 335 46 260 46 C183 46 144 84 134 176 L29 176 L29 43 C74 17 136 -13 251 -13 L251 -13 Z M174 727 L420 799 L355 929 L150 765 L174 727 Z " />
<glyph glyph-name="sacute" unicode="&#x15b;" horiz-adv-x="467" d="M133 558 L373 654 L295 779 L107 593 L133 558 Z M218 -13 C358 -13 438 49 438 157 C438 248 382 301 283 323 L210 340 C169 349 151 365 151 398 C151 437 177 457 223 457 C274 457 308 437 316 380 L408 380 L408 486 C381 498 325 522 235 522 C125 522 34 466 34 353 C34 266 83 215 166 197 L243 181 C290 171 313 153 313 112 C313 68 279 49 230 49 C175 49 138 68 131 138 L32 138 L32 30 C60 15 112 -13 218 -13 L218 -13 Z " />
<glyph glyph-name="Scircumflex" unicode="&#x15c;" horiz-adv-x="551" d="M433 731 L458 768 L282 941 L106 768 L131 731 L282 808 L433 731 Z M251 -13 C421 -13 516 67 516 211 C516 335 442 397 329 426 L261 443 C189 461 165 493 165 547 C165 606 197 643 263 643 C344 643 370 595 379 520 L481 520 L481 658 C448 677 383 707 275 707 C129 707 34 633 34 491 C34 372 95 319 200 291 L271 272 C351 250 378 219 378 157 C378 81 335 46 260 46 C183 46 144 84 134 176 L29 176 L29 43 C74 17 136 -13 251 -13 L251 -13 Z " />
<glyph glyph-name="scircumflex" unicode="&#x15d;" horiz-adv-x="467" d="M391 556 L416 593 L240 767 L64 593 L89 556 L240 634 L391 556 Z M218 -13 C358 -13 438 49 438 157 C438 248 382 301 283 323 L210 340 C169 349 151 365 151 398 C151 437 177 457 223 457 C274 457 308 437 316 380 L408 380 L408 486 C381 498 325 522 235 522 C125 522 34 466 34 353 C34 266 83 215 166 197 L243 181 C290 171 313 153 313 112 C313 68 279 49 230 49 C175 49 138 68 131 138 L32 138 L32 30 C60 15 112 -13 218 -13 L218 -13 Z " />
<glyph glyph-name="Scedilla" unicode="&#x15e;" horiz-adv-x="551" d="M376 -119 C376 -73 345 -45 280 -41 L288 -11 C434 0 516 78 516 211 C516 335 442 397 329 426 L261 443 C189 461 165 493 165 547 C165 606 197 643 263 643 C344 643 370 595 379 520 L481 520 L481 658 C448 677 383 707 275 707 C129 707 34 633 34 491 C34 372 95 319 200 291 L271 272 C351 250 378 219 378 157 C378 81 335 46 260 46 C183 46 144 84 134 176 L29 176 L29 43 C72 18 131 -11 237 -13 L220 -77 L219 -98 C253 -99 278 -107 278 -130 C278 -152 265 -158 243 -158 C221 -158 198 -154 176 -140 L160 -179 C179 -192 212 -204 258 -204 C336 -204 376 -179 376 -119 L376 -119 Z " />
<glyph glyph-name="scedilla" unicode="&#x15f;" horiz-adv-x="467" d="M330 -119 C330 -73 298 -45 234 -41 L242 -12 C367 -5 438 55 438 157 C438 248 382 301 283 323 L210 340 C169 349 151 365 151 398 C151 437 177 457 223 457 C274 457 308 437 316 380 L408 380 L408 486 C381 498 325 522 235 522 C125 522 34 466 34 353 C34 266 83 215 166 197 L243 181 C290 171 313 153 313 112 C313 68 279 49 230 49 C175 49 138 68 131 138 L32 138 L32 30 C57 16 103 -8 192 -12 L173 -77 L172 -98 C206 -99 232 -107 232 -130 C232 -152 218 -158 196 -158 C174 -158 152 -154 130 -140 L113 -179 C132 -192 165 -204 212 -204 C289 -204 330 -179 330 -119 L330 -119 Z " />
<glyph glyph-name="Scaron" unicode="&#x160;" horiz-adv-x="551" d="M282 864 L131 941 L106 904 L282 731 L458 904 L433 941 L282 864 Z M251 -13 C421 -13 516 67 516 211 C516 335 442 397 329 426 L261 443 C189 461 165 493 165 547 C165 606 197 643 263 643 C344 643 370 595 379 520 L481 520 L481 658 C448 677 383 707 275 707 C129 707 34 633 34 491 C34 372 95 319 200 291 L271 272 C351 250 378 219 378 157 C378 81 335 46 260 46 C183 46 144 84 134 176 L29 176 L29 43 C74 17 136 -13 251 -13 L251 -13 Z " />
<glyph glyph-name="scaron" unicode="&#x161;" horiz-adv-x="467" d="M240 684 L89 762 L64 725 L240 551 L416 725 L391 762 L240 684 Z M218 -13 C358 -13 438 49 438 157 C438 248 382 301 283 323 L210 340 C169 349 151 365 151 398 C151 437 177 457 223 457 C274 457 308 437 316 380 L408 380 L408 486 C381 498 325 522 235 522 C125 522 34 466 34 353 C34 266 83 215 166 197 L243 181 C290 171 313 153 313 112 C313 68 279 49 230 49 C175 49 138 68 131 138 L32 138 L32 30 C60 15 112 -13 218 -13 L218 -13 Z " />
<glyph glyph-name="Tcommaaccent" unicode="&#x162;" horiz-adv-x="609" d="M27 695 L16 509 L92 509 C112 595 118 624 183 624 L226 624 L226 117 C226 59 207 46 147 46 L147 0 L281 0 L259 -77 L258 -98 C292 -99 317 -107 317 -130 C317 -152 304 -158 282 -158 C260 -158 237 -154 215 -140 L199 -179 C218 -192 251 -204 297 -204 C375 -204 415 -179 415 -119 C415 -73 384 -45 319 -41 L331 0 L462 0 L462 46 C402 46 383 59 383 117 L383 624 L426 624 C490 624 497 595 517 509 L592 509 L581 695 L27 695 Z " />
<glyph glyph-name="tcommaaccent" unicode="&#x163;" horiz-adv-x="358" d="M344 509 L223 509 C223 560 227 620 232 656 L128 643 C103 605 88 556 82 511 L15 484 L15 433 L75 433 L75 131 C75 38 111 -1 178 -10 L159 -77 L158 -98 C192 -99 217 -107 217 -130 C217 -152 204 -158 182 -158 C160 -158 137 -154 115 -140 L99 -179 C118 -192 151 -204 197 -204 C275 -204 315 -179 315 -119 C315 -73 284 -45 219 -41 L227 -13 C277 -11 317 0 353 23 L338 75 C315 66 299 63 281 63 C231 63 224 90 224 164 L224 433 L328 433 L344 509 Z " />
<glyph glyph-name="Tcaron" unicode="&#x164;" horiz-adv-x="609" d="M304 864 L153 941 L128 904 L304 731 L480 904 L455 941 L304 864 Z M27 695 L16 509 L92 509 C112 595 118 624 183 624 L226 624 L226 117 C226 59 207 46 147 46 L147 0 L462 0 L462 46 C402 46 383 59 383 117 L383 624 L426 624 C490 624 497 595 517 509 L592 509 L581 695 L27 695 Z " />
<glyph glyph-name="tcaron" unicode="&#x165;" horiz-adv-x="358" d="M344 509 L223 509 C223 560 227 620 232 656 L128 643 C103 605 88 556 82 511 L15 484 L15 433 L75 433 L75 131 C75 21 126 -13 217 -13 C272 -13 315 -1 353 23 L338 75 C315 66 299 63 281 63 C231 63 224 90 224 164 L224 433 L328 433 L344 509 Z M401 724 L287 737 L274 556 L334 547 L401 724 Z " />
<glyph glyph-name="Tbar" unicode="&#x166;" horiz-adv-x="609" d="M27 695 L16 509 L92 509 C112 595 118 624 183 624 L226 624 L226 390 L114 390 L114 316 L226 316 L226 117 C226 59 207 46 147 46 L147 0 L462 0 L462 46 C402 46 383 59 383 117 L383 316 L502 316 L502 390 L383 390 L383 624 L426 624 C490 624 497 595 517 509 L592 509 L581 695 L27 695 Z " />
<glyph glyph-name="tbar" unicode="&#x167;" horiz-adv-x="359" d="M344 509 L223 509 C223 560 227 620 232 656 L128 643 C103 605 88 556 82 511 L15 484 L15 433 L75 433 L75 346 L15 346 L15 277 L75 277 L75 131 C75 21 126 -13 217 -13 C272 -13 315 -1 354 23 L338 75 C315 66 299 63 281 63 C231 63 224 90 224 164 L224 277 L335 277 L335 346 L224 346 L224 433 L328 433 L344 509 Z " />
<glyph glyph-name="Utilde" unicode="&#x168;" horiz-adv-x="690" d="M518 227 C518 109 468 69 380 69 C288 69 247 109 247 224 L247 575 C247 632 263 646 317 647 L317 695 L23 695 L23 647 C75 646 90 632 90 575 L90 221 C90 57 170 -12 348 -12 C526 -12 601 74 601 225 L601 575 C601 632 616 646 667 647 L667 695 L448 695 L448 647 C503 646 518 632 518 575 L518 227 Z M444 857 C395 857 366 895 306 895 C246 895 205 832 194 760 L229 745 C248 779 268 794 302 794 C345 794 379 758 440 758 C498 758 539 816 556 887 L519 903 C501 868 475 857 444 857 L444 857 Z " />
<glyph glyph-name="utilde" unicode="&#x169;" horiz-adv-x="607" d="M527 517 L503 517 L319 482 L319 438 C368 436 379 426 379 353 L379 120 C349 95 323 83 289 83 C243 83 225 110 225 164 L225 517 L201 517 L17 482 L17 438 C65 436 76 426 76 353 L76 129 C76 30 133 -13 218 -13 C295 -13 348 20 387 68 C391 26 407 -1 414 -13 L429 -13 L589 23 L589 64 C538 68 527 76 527 149 L527 517 Z M370 686 C323 686 292 720 236 720 C178 720 137 655 126 583 L161 568 C179 602 200 616 231 616 C273 616 309 584 366 584 C422 584 463 644 480 715 L443 731 C425 697 400 686 370 686 L370 686 Z " />
<glyph glyph-name="Umacron" unicode="&#x16a;" horiz-adv-x="690" d="M518 227 C518 109 468 69 380 69 C288 69 247 109 247 224 L247 575 C247 632 263 646 317 647 L317 695 L23 695 L23 647 C75 646 90 632 90 575 L90 221 C90 57 170 -12 348 -12 C526 -12 601 74 601 225 L601 575 C601 632 616 646 667 647 L667 695 L448 695 L448 647 C503 646 518 632 518 575 L518 227 Z M528 773 L528 851 L222 851 L222 773 L528 773 Z " />
<glyph glyph-name="umacron" unicode="&#x16b;" horiz-adv-x="607" d="M527 517 L503 517 L319 482 L319 438 C368 436 379 426 379 353 L379 120 C349 95 323 83 289 83 C243 83 225 110 225 164 L225 517 L201 517 L17 482 L17 438 C65 436 76 426 76 353 L76 129 C76 30 133 -13 218 -13 C295 -13 348 20 387 68 C391 26 407 -1 414 -13 L429 -13 L589 23 L589 64 C538 68 527 76 527 149 L527 517 Z M453 601 L453 679 L151 679 L151 601 L453 601 Z " />
<glyph glyph-name="Ubreve" unicode="&#x16c;" horiz-adv-x="690" d="M518 227 C518 109 468 69 380 69 C288 69 247 109 247 224 L247 575 C247 632 263 646 317 647 L317 695 L23 695 L23 647 C75 646 90 632 90 575 L90 221 C90 57 170 -12 348 -12 C526 -12 601 74 601 225 L601 575 C601 632 616 646 667 647 L667 695 L448 695 L448 647 C503 646 518 632 518 575 L518 227 Z M375 743 C472 743 525 829 545 905 L508 928 C473 880 435 846 375 846 C314 846 276 880 242 928 L205 905 C225 829 277 743 375 743 L375 743 Z " />
<glyph glyph-name="ubreve" unicode="&#x16d;" horiz-adv-x="607" d="M527 517 L503 517 L319 482 L319 438 C368 436 379 426 379 353 L379 120 C349 95 323 83 289 83 C243 83 225 110 225 164 L225 517 L201 517 L17 482 L17 438 C65 436 76 426 76 353 L76 129 C76 30 133 -13 218 -13 C295 -13 348 20 387 68 C391 26 407 -1 414 -13 L429 -13 L589 23 L589 64 C538 68 527 76 527 149 L527 517 Z M302 565 C398 565 448 651 467 727 L430 749 C397 701 360 668 301 668 C243 668 205 701 173 749 L136 727 C156 651 205 565 302 565 L302 565 Z " />
<glyph glyph-name="Uring" unicode="&#x16e;" horiz-adv-x="690" d="M518 227 C518 109 468 69 380 69 C288 69 247 109 247 224 L247 575 C247 632 263 646 317 647 L317 695 L23 695 L23 647 C75 646 90 632 90 575 L90 221 C90 57 170 -12 348 -12 C526 -12 601 74 601 225 L601 575 C601 632 616 646 667 647 L667 695 L448 695 L448 647 C503 646 518 632 518 575 L518 227 Z M375 722 C445 722 493 772 493 838 C493 904 445 954 375 954 C306 954 258 904 258 838 C258 772 306 722 375 722 L375 722 Z M375 900 C410 900 431 873 431 838 C431 805 410 779 375 779 C341 779 319 805 319 838 C319 873 341 900 375 900 L375 900 Z " />
<glyph glyph-name="uring" unicode="&#x16f;" horiz-adv-x="607" d="M302 562 C372 562 420 612 420 678 C420 745 372 794 302 794 C233 794 185 745 185 678 C185 612 233 562 302 562 L302 562 Z M302 740 C337 740 359 713 359 678 C359 645 337 619 302 619 C268 619 247 645 247 678 C247 713 268 740 302 740 L302 740 Z M527 517 L503 517 L319 482 L319 438 C368 436 379 426 379 353 L379 120 C349 95 323 83 289 83 C243 83 225 110 225 164 L225 517 L201 517 L17 482 L17 438 C65 436 76 426 76 353 L76 129 C76 30 133 -13 218 -13 C295 -13 348 20 387 68 C391 26 407 -1 414 -13 L429 -13 L589 23 L589 64 C538 68 527 76 527 149 L527 517 Z " />
<glyph glyph-name="Uhungarumlaut" unicode="&#x170;" horiz-adv-x="690" d="M437 928 L318 974 L260 756 L309 736 L437 928 Z M616 896 L505 963 L422 753 L466 727 L616 896 Z M518 227 C518 109 468 69 380 69 C288 69 247 109 247 224 L247 575 C247 632 263 646 317 647 L317 695 L23 695 L23 647 C75 646 90 632 90 575 L90 221 C90 57 170 -12 348 -12 C526 -12 601 74 601 225 L601 575 C601 632 616 646 667 647 L667 695 L448 695 L448 647 C503 646 518 632 518 575 L518 227 Z " />
<glyph glyph-name="uhungarumlaut" unicode="&#x171;" horiz-adv-x="607" d="M527 517 L503 517 L319 482 L319 438 C368 436 379 426 379 353 L379 120 C349 95 323 83 289 83 C243 83 225 110 225 164 L225 517 L201 517 L17 482 L17 438 C65 436 76 426 76 353 L76 129 C76 30 133 -13 218 -13 C295 -13 348 20 387 68 C391 26 407 -1 414 -13 L429 -13 L589 23 L589 64 C538 68 527 76 527 149 L527 517 Z M371 763 L252 808 L189 581 L238 561 L371 763 Z M551 730 L439 797 L351 578 L394 552 L551 730 Z " />
<glyph glyph-name="Uogonek" unicode="&#x172;" horiz-adv-x="690" d="M504 -131 C483 -142 468 -146 450 -146 C426 -146 405 -132 405 -97 C405 -46 439 -15 505 23 C570 60 601 125 601 225 L601 575 C601 632 616 646 667 647 L667 695 L448 695 L448 647 C503 646 518 632 518 575 L518 227 C518 109 468 69 380 69 C288 69 247 109 247 224 L247 575 C247 632 263 646 317 647 L317 695 L23 695 L23 647 C75 646 90 632 90 575 L90 221 C90 57 170 -12 348 -12 C354 -12 361 -12 370 -11 C313 -39 283 -68 283 -115 C283 -179 337 -205 400 -205 C447 -205 489 -192 520 -160 L504 -131 Z " />
<glyph glyph-name="uogonek" unicode="&#x173;" horiz-adv-x="607" d="M543 -131 C522 -142 507 -146 489 -146 C465 -146 443 -132 443 -97 C443 -49 478 -3 554 15 L589 23 L589 64 C538 68 527 76 527 149 L527 517 L503 517 L319 482 L319 438 C368 436 379 426 379 353 L379 120 C349 95 323 83 289 83 C243 83 225 110 225 164 L225 517 L201 517 L17 482 L17 438 C65 436 76 426 76 353 L76 129 C76 30 133 -13 218 -13 C295 -13 348 20 387 68 C390 29 405 1 412 -9 C355 -39 322 -68 322 -115 C322 -179 376 -205 439 -205 C486 -205 528 -192 559 -160 L543 -131 Z " />
<glyph glyph-name="Wcircumflex" unicode="&#x174;" horiz-adv-x="955" d="M652 731 L677 768 L501 941 L325 768 L350 731 L501 808 L652 731 Z M585 0 L732 0 L867 579 C879 631 897 643 938 648 L938 695 L720 695 L720 648 C759 647 781 638 781 607 C781 600 780 593 778 583 L720 301 C704 223 698 158 697 139 L691 139 C688 162 677 222 657 302 L557 695 L451 695 L357 300 C338 219 330 155 327 138 L322 138 C321 159 315 236 302 300 L243 590 C241 597 241 602 241 608 C241 634 259 647 299 648 L299 695 L17 695 L17 648 C56 643 71 631 83 579 L216 0 L364 0 L444 327 C460 393 468 456 471 476 L476 476 C478 455 487 383 501 328 L585 0 Z " />
<glyph glyph-name="wcircumflex" unicode="&#x175;" horiz-adv-x="814" d="M580 556 L605 593 L429 767 L253 593 L278 556 L429 634 L580 556 Z M379 233 C390 273 399 322 401 338 L406 338 C407 329 414 274 428 233 L508 -5 L631 -5 L743 398 C757 447 771 458 813 463 L813 509 L606 509 L606 463 C645 462 662 453 662 428 C662 419 661 412 659 405 L615 214 C609 188 602 145 600 134 L595 134 C593 146 588 185 577 219 L484 509 L376 509 L301 219 C291 182 287 142 286 134 L280 134 C279 144 273 184 264 219 L215 404 C213 413 212 420 212 427 C212 450 230 462 267 463 L267 509 L1 509 L1 463 C37 458 49 449 66 394 L187 -5 L312 -5 L379 233 Z " />
<glyph glyph-name="Ycircumflex" unicode="&#x176;" horiz-adv-x="655" d="M365 360 L261 583 C255 596 252 607 252 616 C252 636 267 648 300 648 L300 695 L15 695 L15 648 C51 643 66 633 91 583 L250 265 L250 117 C250 60 234 46 173 46 L173 0 L485 0 L485 46 C424 46 407 60 407 117 L407 267 L558 580 C584 633 599 643 639 648 L639 695 L426 695 L426 648 C461 648 477 639 477 618 C477 609 473 598 468 584 L370 360 L365 360 Z M496 731 L521 768 L345 941 L169 768 L194 731 L345 808 L496 731 Z " />
<glyph glyph-name="ycircumflex" unicode="&#x177;" horiz-adv-x="552" d="M113 -207 C232 -190 294 -115 337 3 L482 401 C500 449 512 458 552 463 L552 509 L343 509 L343 463 C389 461 404 456 404 434 C404 428 403 421 400 412 L332 194 C321 158 313 123 311 113 L306 113 C304 124 299 159 286 199 L217 412 C213 422 211 430 211 436 C211 453 225 461 271 463 L271 509 L0 509 L0 463 C37 458 47 446 64 399 L141 187 C175 96 187 55 200 3 L258 8 C223 -72 151 -95 63 -111 L113 -207 Z M451 556 L476 593 L300 767 L124 593 L149 556 L300 634 L451 556 Z " />
<glyph glyph-name="Ydieresis" unicode="&#x178;" horiz-adv-x="655" d="M365 360 L261 583 C255 596 252 607 252 616 C252 636 267 648 300 648 L300 695 L15 695 L15 648 C51 643 66 633 91 583 L250 265 L250 117 C250 60 234 46 173 46 L173 0 L485 0 L485 46 C424 46 407 60 407 117 L407 267 L558 580 C584 633 599 643 639 648 L639 695 L426 695 L426 648 C461 648 477 639 477 618 C477 609 473 598 468 584 L370 360 L365 360 Z M316 817 C316 863 281 898 235 898 C189 898 152 863 152 817 C152 773 188 737 234 737 C280 737 316 773 316 817 L316 817 Z M539 817 C539 863 504 898 458 898 C412 898 375 863 375 817 C375 773 411 737 457 737 C503 737 539 773 539 817 L539 817 Z " />
<glyph glyph-name="Zacute" unicode="&#x179;" horiz-adv-x="567" d="M195 727 L441 799 L376 929 L171 765 L195 727 Z M534 639 L534 695 L61 695 L52 516 L129 516 C149 594 171 629 238 629 L363 629 L26 56 L26 0 L522 0 L534 190 L459 190 C439 100 413 67 336 67 L200 67 L534 639 Z " />
<glyph glyph-name="zacute" unicode="&#x17a;" horiz-adv-x="499" d="M478 153 L419 153 C390 69 373 62 289 62 L209 62 L471 451 L471 509 L57 509 L57 355 L117 355 C128 430 143 446 211 446 L300 446 L41 60 L41 0 L458 0 L478 153 Z M167 558 L407 654 L329 779 L141 593 L167 558 Z " />
<glyph glyph-name="Zdotaccent" unicode="&#x17b;" horiz-adv-x="567" d="M534 639 L534 695 L61 695 L52 516 L129 516 C149 594 171 629 238 629 L363 629 L26 56 L26 0 L522 0 L534 190 L459 190 C439 100 413 67 336 67 L200 67 L534 639 Z M388 828 C388 875 351 913 304 913 C256 913 217 875 217 828 C217 781 255 744 302 744 C350 744 388 781 388 828 L388 828 Z " />
<glyph glyph-name="zdotaccent" unicode="&#x17c;" horiz-adv-x="499" d="M478 153 L419 153 C390 69 373 62 289 62 L209 62 L471 451 L471 509 L57 509 L57 355 L117 355 C128 430 143 446 211 446 L300 446 L41 60 L41 0 L458 0 L478 153 Z M352 652 C352 699 315 737 268 737 C220 737 181 699 181 652 C181 606 219 568 266 568 C314 568 352 606 352 652 L352 652 Z " />
<glyph glyph-name="Zcaron" unicode="&#x17d;" horiz-adv-x="567" d="M303 864 L152 941 L127 904 L303 731 L479 904 L454 941 L303 864 Z M534 639 L534 695 L61 695 L52 516 L129 516 C149 594 171 629 238 629 L363 629 L26 56 L26 0 L522 0 L534 190 L459 190 C439 100 413 67 336 67 L200 67 L534 639 Z " />
<glyph glyph-name="zcaron" unicode="&#x17e;" horiz-adv-x="499" d="M478 153 L419 153 C390 69 373 62 289 62 L209 62 L471 451 L471 509 L57 509 L57 355 L117 355 C128 430 143 446 211 446 L300 446 L41 60 L41 0 L458 0 L478 153 Z M268 684 L117 762 L92 725 L268 551 L444 725 L419 762 L268 684 Z " />
<glyph glyph-name="longs" unicode="&#x17f;" horiz-adv-x="350" d="M238 604 C238 651 252 674 284 674 C309 674 323 659 325 614 L411 614 L411 719 C380 733 319 741 278 741 C163 741 89 688 89 582 L89 509 L28 484 L28 433 L89 433 L89 115 C89 58 78 46 28 45 L28 0 L318 0 L318 45 C250 46 238 59 238 115 L238 604 Z " />
<glyph glyph-name="uni018F" unicode="&#x18f;" horiz-adv-x="671" d="M275 598 C397 598 447 528 451 376 L52 376 C42 341 39 305 39 269 C39 88 137 -12 325 -12 C509 -12 629 110 629 345 C629 574 515 707 326 707 C194 707 107 645 54 581 L88 533 C140 570 203 598 275 598 L275 598 Z M325 53 C250 53 210 126 210 243 C210 262 211 283 213 303 L452 303 C452 133 413 53 325 53 L325 53 Z " />
<glyph glyph-name="florin" unicode="&#x192;" horiz-adv-x="355" d="M34 368 L106 368 L78 -36 C73 -115 46 -142 -14 -155 L-7 -193 C138 -193 219 -144 228 -27 L258 368 L380 368 L380 433 L264 433 L273 558 C278 627 304 646 336 646 C369 646 374 624 376 574 L463 574 L471 678 C438 695 392 707 334 707 C216 707 132 653 121 536 L112 436 L39 423 L34 368 Z " />
<glyph glyph-name="uni01B5" unicode="&#x1b5;" horiz-adv-x="567" d="M534 638 L534 694 L61 694 L52 516 L129 516 C149 594 171 629 238 629 L367 629 L229 398 L78 398 L78 328 L187 328 L26 56 L26 0 L522 0 L534 190 L459 190 C439 100 413 67 336 67 L196 67 L351 328 L500 328 L500 398 L392 398 L534 638 Z " />
<glyph glyph-name="uni01B6" unicode="&#x1b6;" horiz-adv-x="499" d="M72 241 L164 241 L41 60 L41 0 L458 0 L478 153 L419 153 C390 69 373 62 289 62 L206 62 L328 241 L439 241 L439 285 L357 285 L471 451 L471 509 L57 509 L57 355 L117 355 C128 430 143 446 211 446 L303 446 L193 285 L72 285 L72 241 Z " />
<glyph glyph-name="Aringacute" unicode="&#x1fa;" horiz-adv-x="671" d="M435 101 C438 92 440 83 440 76 C440 56 424 48 379 46 L379 0 L663 0 L663 46 C622 51 612 67 596 113 L397 695 L271 695 L82 113 C65 60 51 51 8 46 L8 0 L229 0 L229 46 C185 48 165 51 165 76 C165 82 166 90 169 101 L194 187 L408 187 L435 101 Z M264 428 C282 489 290 523 295 543 L300 543 C304 523 312 486 330 430 L384 261 L215 261 L264 428 Z M335 716 C405 716 453 766 453 832 C453 899 405 948 335 948 C266 948 218 899 218 832 C218 766 266 716 335 716 L335 716 Z M335 894 C370 894 392 867 392 832 C392 799 370 773 335 773 C301 773 280 799 280 832 C280 867 301 894 335 894 L335 894 Z M223 948 L469 1020 L404 1150 L199 986 L223 948 Z " />
<glyph glyph-name="aringacute" unicode="&#x1fb;" horiz-adv-x="540" d="M464 150 C464 241 468 324 468 354 C468 471 388 522 273 522 C192 522 110 497 57 466 L57 364 L167 364 C174 417 190 455 247 455 C300 455 319 422 319 345 L319 299 C306 300 283 301 271 301 C114 301 25 252 25 134 C25 31 95 -14 184 -14 C263 -14 306 28 323 64 C331 22 364 -6 426 -6 C470 -6 507 5 528 18 L528 61 C475 63 464 75 464 150 L464 150 Z M317 243 L314 116 C296 93 264 79 238 79 C200 79 178 96 178 153 C178 214 214 243 282 243 L317 243 Z M268 552 C338 552 386 602 386 668 C386 735 338 784 268 784 C199 784 151 735 151 668 C151 602 199 552 268 552 L268 552 Z M268 730 C303 730 325 703 325 668 C325 635 303 609 268 609 C234 609 213 635 213 668 C213 703 234 730 268 730 L268 730 Z M162 791 L408 863 L343 993 L138 829 L162 791 Z " />
<glyph glyph-name="AEacute" unicode="&#x1fc;" horiz-adv-x="933" d="M509 727 L755 799 L690 929 L485 765 L509 727 Z M97 108 C73 60 50 51 8 46 L8 0 L234 0 L234 46 C194 48 174 54 174 72 C174 79 177 87 183 99 L248 225 L443 225 L443 117 C443 60 427 46 374 46 L374 0 L893 0 L893 183 L817 183 C809 90 784 67 718 67 L594 67 L594 318 L656 318 C718 318 734 301 738 247 L804 247 L804 457 L738 457 C734 400 717 386 655 386 L594 386 L594 624 L703 624 C773 624 784 602 806 526 L881 526 L869 695 L284 695 L284 647 C322 646 343 636 343 612 C343 602 339 590 332 576 L97 108 Z M446 624 L452 624 C448 591 443 515 443 430 L443 299 L286 299 L446 624 Z " />
<glyph glyph-name="aeacute" unicode="&#x1fd;" horiz-adv-x="812" d="M350 558 L590 654 L512 779 L324 593 L350 558 Z M415 471 C386 503 332 522 265 522 C192 522 110 497 57 466 L57 364 L167 364 C174 417 190 455 247 455 C299 455 320 422 320 347 L320 300 L271 300 C114 300 25 252 25 134 C25 31 95 -12 188 -12 C284 -12 343 29 370 69 C412 15 478 -12 564 -12 C653 -12 719 15 773 68 L748 109 C706 86 658 74 615 74 C520 74 482 123 478 236 L782 236 L782 276 C782 429 717 522 562 522 C505 522 453 502 415 471 L415 471 Z M561 460 C614 460 634 422 634 301 L479 301 C486 423 511 460 561 460 L561 460 Z M248 81 C204 81 178 103 178 153 C178 214 214 236 290 236 L319 236 C320 190 327 151 341 117 C318 95 285 81 248 81 L248 81 Z " />
<glyph glyph-name="Oslashacute" unicode="&#x1fe;" horiz-adv-x="706" d="M613 725 L565 752 L513 669 C468 694 413 707 353 707 C171 707 41 593 41 340 C41 216 76 120 142 61 L86 -31 L133 -58 L186 29 C232 2 288 -12 354 -12 C550 -12 665 115 665 338 C665 474 627 575 559 636 L613 725 Z M494 343 C494 108 438 53 354 53 C306 53 270 70 246 125 L477 504 C488 462 494 409 494 343 L494 343 Z M353 636 C398 636 432 619 455 574 L226 198 C217 238 212 289 212 349 C212 566 259 636 353 636 L353 636 Z M245 727 L491 799 L426 929 L221 765 L245 727 Z " />
<glyph glyph-name="oslashacute" unicode="&#x1ff;" horiz-adv-x="578" d="M500 540 L456 566 L414 498 C378 514 338 522 294 522 C135 522 35 415 35 253 C35 155 67 80 125 36 L79 -37 L123 -63 L168 10 C202 -4 242 -13 286 -13 C425 -13 543 72 543 262 C543 359 511 429 457 471 L500 540 Z M192 251 C192 409 224 458 289 458 C320 458 344 446 360 413 L200 155 C193 181 192 212 192 251 L192 251 Z M387 266 C387 112 353 49 291 49 C257 49 234 62 219 91 L378 347 C384 325 387 298 387 266 L387 266 Z M182 558 L422 654 L344 779 L156 593 L182 558 Z " />
<glyph glyph-name="Scommaaccent" unicode="&#x218;" horiz-adv-x="551" d="M251 -13 C421 -13 516 67 516 211 C516 335 442 397 329 426 L261 443 C189 461 165 493 165 547 C165 606 197 643 263 643 C344 643 370 595 379 520 L481 520 L481 658 C448 677 383 707 275 707 C129 707 34 633 34 491 C34 372 95 319 200 291 L271 272 C351 250 378 219 378 157 C378 81 335 46 260 46 C183 46 144 84 134 176 L29 176 L29 43 C74 17 136 -13 251 -13 L251 -13 Z M370 -142 C370 -84 337 -44 280 -44 C233 -44 202 -74 202 -111 C202 -145 218 -161 239 -169 C259 -178 265 -184 265 -197 C265 -221 247 -234 193 -251 L218 -286 C302 -269 370 -222 370 -142 L370 -142 Z " />
<glyph glyph-name="scommaaccent" unicode="&#x219;" horiz-adv-x="467" d="M218 -13 C358 -13 438 49 438 157 C438 248 382 301 283 323 L210 340 C169 349 151 365 151 398 C151 437 177 457 223 457 C274 457 308 437 316 380 L408 380 L408 486 C381 498 325 522 235 522 C125 522 34 466 34 353 C34 266 83 215 166 197 L243 181 C290 171 313 153 313 112 C313 68 279 49 230 49 C175 49 138 68 131 138 L32 138 L32 30 C60 15 112 -13 218 -13 L218 -13 Z M329 -142 C329 -84 296 -44 239 -44 C192 -44 161 -74 161 -111 C161 -145 177 -161 198 -169 C218 -178 224 -184 224 -197 C224 -221 206 -234 152 -251 L177 -286 C261 -269 329 -222 329 -142 L329 -142 Z " />
<glyph glyph-name="uni021A" unicode="&#x21a;" horiz-adv-x="609" d="M27 695 L16 509 L92 509 C112 595 118 624 183 624 L226 624 L226 117 C226 59 207 46 147 46 L147 0 L462 0 L462 46 C402 46 383 59 383 117 L383 624 L426 624 C490 624 497 595 517 509 L592 509 L581 695 L27 695 Z M393 -142 C393 -84 360 -44 303 -44 C256 -44 225 -74 225 -111 C225 -145 241 -161 262 -169 C282 -178 288 -184 288 -197 C288 -221 270 -234 216 -251 L241 -286 C325 -269 393 -222 393 -142 L393 -142 Z " />
<glyph glyph-name="uni021B" unicode="&#x21b;" horiz-adv-x="358" d="M344 509 L223 509 C223 560 227 620 232 656 L128 643 C103 605 88 556 82 511 L15 484 L15 433 L75 433 L75 131 C75 21 126 -13 217 -13 C272 -13 315 -1 353 23 L338 75 C315 66 299 63 281 63 C231 63 224 90 224 164 L224 433 L328 433 L344 509 Z M272 -142 C272 -84 239 -44 182 -44 C135 -44 104 -74 104 -111 C104 -145 120 -161 141 -169 C161 -178 167 -184 167 -197 C167 -221 149 -234 95 -251 L120 -286 C204 -269 272 -222 272 -142 L272 -142 Z " />
<glyph glyph-name="uni0237" unicode="&#x237;" horiz-adv-x="306" d="M86 16 C86 -87 67 -134 6 -162 L35 -206 C127 -184 234 -133 234 16 L234 517 L212 517 L25 482 L25 438 C75 436 86 426 86 353 L86 16 Z " />
<glyph glyph-name="uni0259" unicode="&#x259;" horiz-adv-x="529" d="M198 435 C293 435 331 388 334 277 L33 277 C31 272 31 231 31 225 C31 76 97 -13 252 -13 C397 -13 494 85 494 254 C494 424 404 522 251 522 C157 522 92 494 39 442 L64 401 C107 423 155 435 198 435 L198 435 Z M251 50 C200 50 179 86 178 199 L178 209 L333 209 C326 87 301 50 251 50 L251 50 Z " />
<glyph glyph-name="uni02BB" unicode="&#x2bb;" horiz-adv-x="282" d="M49 519 C49 451 91 401 150 401 C202 401 239 439 239 484 C239 525 212 543 190 553 C163 563 153 571 153 593 C153 626 187 650 256 671 L225 711 C109 687 49 618 49 519 L49 519 Z " />
<glyph glyph-name="afii57929" unicode="&#x2bc;" horiz-adv-x="282" d="M233 593 C233 661 190 710 132 710 C80 710 43 673 43 628 C43 587 69 569 93 558 C118 549 128 541 128 519 C128 485 95 461 26 441 L56 401 C173 425 233 494 233 593 L233 593 Z " />
<glyph glyph-name="circumflex" unicode="&#x2c6;" horiz-adv-x="512" d="M407 556 L432 593 L256 767 L80 593 L105 556 L256 634 L407 556 Z " />
<glyph glyph-name="caron" unicode="&#x2c7;" horiz-adv-x="512" d="M256 684 L105 762 L80 725 L256 551 L432 725 L407 762 L256 684 Z " />
<glyph glyph-name="breve" unicode="&#x2d8;" horiz-adv-x="491" d="M246 565 C342 565 392 651 411 727 L374 749 C341 701 304 668 245 668 C187 668 149 701 117 749 L80 727 C100 651 149 565 246 565 L246 565 Z " />
<glyph glyph-name="dotaccent" unicode="&#x2d9;" horiz-adv-x="331" d="M251 652 C251 699 214 737 167 737 C119 737 80 699 80 652 C80 606 118 568 165 568 C213 568 251 606 251 652 L251 652 Z " />
<glyph glyph-name="ring" unicode="&#x2da;" horiz-adv-x="395" d="M197 562 C267 562 315 612 315 678 C315 745 267 794 197 794 C128 794 80 745 80 678 C80 612 128 562 197 562 L197 562 Z M197 740 C232 740 254 713 254 678 C254 645 232 619 197 619 C163 619 142 645 142 678 C142 713 163 740 197 740 L197 740 Z " />
<glyph glyph-name="ogonek" unicode="&#x2db;" horiz-adv-x="288" d="M237 -131 C216 -142 201 -146 183 -146 C159 -146 138 -132 138 -97 C138 -62 161 -24 212 11 L190 30 C72 -15 16 -49 16 -115 C16 -179 70 -205 133 -205 C180 -205 222 -192 253 -160 L237 -131 Z " />
<glyph glyph-name="tilde" unicode="&#x2dc;" horiz-adv-x="514" d="M324 686 C277 686 246 720 190 720 C132 720 91 655 80 583 L115 568 C133 602 154 616 185 616 C227 616 263 584 320 584 C376 584 417 644 434 715 L397 731 C379 697 354 686 324 686 L324 686 Z " />
<glyph glyph-name="hungarumlaut" unicode="&#x2dd;" horiz-adv-x="522" d="M262 763 L143 808 L80 581 L129 561 L262 763 Z M442 730 L330 797 L242 578 L285 552 L442 730 Z " />
<glyph glyph-name="gravecomb" unicode="&#x300;" horiz-adv-x="1" d="M-177 593 L-365 779 L-443 654 L-203 558 L-177 593 Z " />
<glyph glyph-name="acutecomb" unicode="&#x301;" horiz-adv-x="1" d="M-395 558 L-155 654 L-233 779 L-421 593 L-395 558 Z " />
<glyph glyph-name="uni0302" unicode="&#x302;" horiz-adv-x="1" d="M-138 556 L-113 593 L-289 767 L-465 593 L-440 556 L-289 634 L-138 556 Z " />
<glyph glyph-name="tildecomb" unicode="&#x303;" horiz-adv-x="1" d="M-220 686 C-267 686 -298 720 -354 720 C-412 720 -453 655 -464 583 L-429 568 C-411 602 -390 616 -359 616 C-317 616 -281 584 -224 584 C-168 584 -127 644 -110 715 L-147 731 C-165 697 -190 686 -220 686 L-220 686 Z " />
<glyph glyph-name="uni0304" unicode="&#x304;" horiz-adv-x="1" d="M-79 610 L-79 688 L-381 688 L-381 610 L-79 610 Z " />
<glyph glyph-name="uni0306" unicode="&#x306;" horiz-adv-x="1" d="M-244 551 C-148 551 -98 637 -79 713 L-116 735 C-149 687 -186 654 -245 654 C-303 654 -341 687 -373 735 L-410 713 C-390 637 -341 551 -244 551 L-244 551 Z " />
<glyph glyph-name="uni0307" unicode="&#x307;" horiz-adv-x="1" d="M-70 650 C-70 698 -108 737 -157 737 C-207 737 -247 698 -247 650 C-247 601 -207 562 -159 562 C-109 562 -70 601 -70 650 L-70 650 Z " />
<glyph glyph-name="uni0308" unicode="&#x308;" horiz-adv-x="1" d="M-302 646 C-302 692 -337 728 -383 728 C-429 728 -466 692 -466 646 C-466 602 -429 566 -384 566 C-338 566 -302 602 -302 646 L-302 646 Z M-79 646 C-79 692 -114 728 -160 728 C-206 728 -243 692 -243 646 C-243 602 -206 566 -161 566 C-115 566 -79 602 -79 646 L-79 646 Z " />
<glyph glyph-name="uni030A" unicode="&#x30a;" horiz-adv-x="1" d="M-197 562 C-127 562 -79 612 -79 678 C-79 745 -127 794 -197 794 C-266 794 -314 745 -314 678 C-314 612 -266 562 -197 562 L-197 562 Z M-197 740 C-162 740 -140 713 -140 678 C-140 645 -162 619 -197 619 C-231 619 -252 645 -252 678 C-252 713 -231 740 -197 740 L-197 740 Z " />
<glyph glyph-name="uni030B" unicode="&#x30b;" horiz-adv-x="1" d="M-259 769 L-378 814 L-441 587 L-392 567 L-259 769 Z M-79 736 L-191 803 L-279 584 L-236 558 L-79 736 Z " />
<glyph glyph-name="uni030C" unicode="&#x30c;" horiz-adv-x="1" d="M-229 684 L-380 762 L-405 725 L-229 551 L-53 725 L-78 762 L-229 684 Z " />
<glyph glyph-name="uni0312" unicode="&#x312;" horiz-adv-x="1" d="M-255 668 C-255 610 -222 570 -165 570 C-118 570 -87 599 -87 636 C-87 671 -104 687 -124 695 C-144 703 -150 709 -150 722 C-150 747 -132 760 -78 777 L-103 812 C-187 795 -255 748 -255 668 L-255 668 Z " />
<glyph glyph-name="uni0313" unicode="&#x313;" horiz-adv-x="1" d="M-100 724 L-214 737 L-227 556 L-167 547 L-100 724 Z " />
<glyph glyph-name="dotbelowcomb" unicode="&#x323;" horiz-adv-x="1" d="M244 -133 C244 -85 206 -45 157 -45 C107 -45 67 -85 67 -133 C67 -181 107 -221 155 -221 C205 -221 244 -181 244 -133 L244 -133 Z " />
<glyph glyph-name="uni0326" unicode="&#x326;" horiz-adv-x="1" d="M255 -142 C255 -84 222 -44 165 -44 C118 -44 87 -74 87 -111 C87 -145 103 -161 124 -169 C144 -178 150 -184 150 -197 C150 -221 132 -234 78 -251 L103 -286 C187 -269 255 -222 255 -142 L255 -142 Z " />
<glyph glyph-name="uni0327" unicode="&#x327;" horiz-adv-x="1" d="M-31 -119 C-31 -73 -62 -45 -127 -41 L-112 11 L-160 17 L-187 -77 L-188 -98 C-154 -99 -129 -107 -129 -130 C-129 -152 -142 -158 -164 -158 C-186 -158 -209 -154 -231 -140 L-247 -179 C-228 -192 -195 -204 -149 -204 C-71 -204 -31 -179 -31 -119 L-31 -119 Z " />
<glyph glyph-name="uni0328" unicode="&#x328;" horiz-adv-x="1" d="M-50 -130 C-71 -141 -86 -145 -104 -145 C-128 -145 -149 -131 -149 -96 C-149 -61 -126 -23 -75 12 L-97 31 C-215 -14 -271 -48 -271 -114 C-271 -178 -217 -204 -154 -204 C-107 -204 -65 -191 -34 -159 L-50 -130 Z " />
<glyph glyph-name="uni0335" unicode="&#x335;" horiz-adv-x="1" d="M-79 215 L-79 293 L-381 293 L-381 215 L-79 215 Z " />
<glyph glyph-name="uni0336" unicode="&#x336;" horiz-adv-x="1" d="M-47 207 L-47 302 L-758 302 L-758 207 L-47 207 Z " />
<glyph glyph-name="uni037E" unicode="&#x37e;" horiz-adv-x="314" d="M252 45 C252 113 210 163 151 163 C98 163 62 125 62 80 C62 39 88 21 111 11 C136 0 148 -6 148 -30 C148 -63 113 -88 43 -108 L73 -149 C190 -125 252 -55 252 45 L252 45 Z M243 373 C243 424 201 466 150 466 C98 466 57 424 57 373 C57 321 98 279 150 279 C201 279 243 321 243 373 L243 373 Z " />
<glyph glyph-name="tonos" unicode="&#x384;" horiz-adv-x="392" d="M201 553 L300 737 L169 765 L115 557 L201 553 Z " />
<glyph glyph-name="dieresistonos" unicode="&#x385;" horiz-adv-x="490" d="M165 621 C165 662 133 695 91 695 C48 695 14 662 14 621 C14 579 47 546 89 546 C132 546 165 579 165 621 L165 621 Z M475 621 C475 662 443 695 400 695 C358 695 324 662 324 621 C324 579 358 546 400 546 C442 546 475 579 475 621 L475 621 Z M264 557 L339 740 L215 775 L185 561 L264 557 Z " />
<glyph glyph-name="Alphatonos" unicode="&#x386;" horiz-adv-x="671" d="M435 101 C438 92 440 83 440 76 C440 56 424 48 379 46 L379 0 L663 0 L663 46 C622 51 612 67 596 113 L397 695 L271 695 L82 113 C65 60 51 51 8 46 L8 0 L229 0 L229 46 C185 48 165 51 165 76 C165 82 166 90 169 101 L194 187 L408 187 L435 101 Z M264 428 C282 489 290 523 295 543 L300 543 C304 523 312 486 330 430 L384 261 L215 261 L264 428 Z M125 501 L221 684 L91 712 L39 505 L125 501 Z " />
<glyph glyph-name="anoteleia" unicode="&#x387;" horiz-adv-x="301" d="M243 282 C243 333 201 375 150 375 C99 375 57 333 57 282 C57 229 99 187 150 187 C201 187 243 229 243 282 L243 282 Z " />
<glyph glyph-name="Epsilontonos" unicode="&#x388;" horiz-adv-x="593" d="M29 0 L553 0 L553 183 L477 183 C469 90 444 67 378 67 L254 67 L254 318 L317 318 C379 318 394 301 398 247 L464 247 L464 457 L398 457 C394 400 378 386 316 386 L254 386 L254 624 L363 624 C433 624 445 602 467 526 L541 526 L530 695 L29 695 L29 647 C81 646 97 632 97 575 L97 117 C97 60 81 46 29 46 L29 0 Z M-92 501 L4 684 L-126 712 L-178 505 L-92 501 Z " />
<glyph glyph-name="Etatonos" unicode="&#x389;" horiz-adv-x="746" d="M492 117 C492 60 476 46 423 46 L423 0 L717 0 L717 46 C665 46 649 60 649 117 L649 575 C649 632 665 646 717 647 L717 695 L423 695 L423 647 C476 646 492 632 492 575 L492 394 L254 394 L254 575 C254 632 270 646 323 647 L323 695 L29 695 L29 647 C81 646 97 632 97 575 L97 117 C97 60 81 46 29 46 L29 0 L323 0 L323 46 C270 46 254 60 254 117 L254 319 L492 319 L492 117 Z M-93 501 L3 684 L-127 712 L-179 505 L-93 501 Z " />
<glyph glyph-name="Iotatonos" unicode="&#x38a;" horiz-adv-x="352" d="M97 117 C97 60 81 46 29 46 L29 0 L323 0 L323 46 C270 46 254 60 254 117 L254 575 C254 632 270 646 323 647 L323 695 L29 695 L29 647 C81 646 97 632 97 575 L97 117 Z M-94 501 L2 684 L-128 712 L-180 505 L-94 501 Z " />
<glyph glyph-name="Omicrontonos" unicode="&#x38c;" horiz-adv-x="706" d="M354 -12 C550 -12 665 115 665 338 C665 581 545 707 353 707 C171 707 41 593 41 340 C41 118 154 -12 354 -12 L354 -12 Z M353 636 C449 636 491 561 491 343 C491 108 438 53 354 53 C261 53 215 121 215 349 C215 566 259 636 353 636 L353 636 Z M17 501 L113 684 L-17 712 L-69 505 L17 501 Z " />
<glyph glyph-name="Upsilontonos" unicode="&#x38e;" horiz-adv-x="655" d="M365 360 L261 583 C255 596 252 607 252 616 C252 636 267 648 300 648 L300 695 L15 695 L15 648 C51 643 66 633 91 583 L250 265 L250 117 C250 60 234 46 173 46 L173 0 L485 0 L485 46 C424 46 407 60 407 117 L407 267 L558 580 C584 633 599 643 639 648 L639 695 L426 695 L426 648 C461 648 477 639 477 618 C477 609 473 598 468 584 L370 360 L365 360 Z M-105 501 L-9 684 L-139 712 L-191 505 L-105 501 Z " />
<glyph glyph-name="Omegatonos" unicode="&#x38f;" horiz-adv-x="727" d="M363 641 C469 641 506 573 506 389 C506 249 477 157 395 85 L395 0 L681 0 L694 166 L633 166 C617 92 585 88 519 88 L482 88 C574 142 678 248 678 395 C678 585 543 707 363 707 C183 707 49 585 49 395 C49 248 153 142 245 88 L208 88 C142 88 110 92 94 166 L32 166 L46 0 L331 0 L331 85 C250 157 220 249 220 389 C220 573 259 641 363 641 L363 641 Z M17 501 L113 684 L-17 712 L-69 505 L17 501 Z " />
<glyph glyph-name="iotadieresistonos" unicode="&#x390;" horiz-adv-x="299" d="M205 522 L178 522 L53 501 C56 459 56 404 56 330 L56 133 C56 64 80 -9 175 -9 C227 -9 262 1 291 19 L291 71 C278 68 265 67 253 67 C218 67 205 84 205 126 L205 522 Z M54 621 C54 662 22 695 -20 695 C-63 695 -97 662 -97 621 C-97 579 -64 546 -22 546 C21 546 54 579 54 621 L54 621 Z M364 621 C364 662 332 695 289 695 C247 695 213 662 213 621 C213 579 247 546 289 546 C331 546 364 579 364 621 L364 621 Z M153 557 L228 740 L104 775 L74 561 L153 557 Z " />
<glyph glyph-name="Alpha" unicode="&#x391;" horiz-adv-x="671" d="M435 101 C438 92 440 83 440 76 C440 56 424 48 379 46 L379 0 L663 0 L663 46 C622 51 612 67 596 113 L397 695 L271 695 L82 113 C65 60 51 51 8 46 L8 0 L229 0 L229 46 C185 48 165 51 165 76 C165 82 166 90 169 101 L194 187 L408 187 L435 101 Z M264 428 C282 489 290 523 295 543 L300 543 C304 523 312 486 330 430 L384 261 L215 261 L264 428 Z " />
<glyph glyph-name="Beta" unicode="&#x392;" horiz-adv-x="634" d="M29 0 L377 0 C537 0 614 63 614 181 C614 277 560 340 439 353 L439 357 C530 373 587 417 587 511 C587 636 492 695 350 695 L29 695 L29 647 C81 646 97 632 97 575 L97 117 C97 60 81 46 29 46 L29 0 Z M254 67 L254 318 L333 318 C417 318 449 283 449 193 C449 95 416 67 333 67 L254 67 Z M254 387 L254 624 L312 624 C390 624 421 593 421 504 C421 412 394 387 316 387 L254 387 Z " />
<glyph glyph-name="Gamma" unicode="&#x393;" horiz-adv-x="555" d="M254 624 L360 624 C435 624 449 599 470 510 L545 510 L532 695 L29 695 L29 647 C81 646 97 632 97 575 L97 117 C97 60 81 46 29 46 L29 0 L339 0 L339 46 C271 46 254 61 254 118 L254 624 Z " />
<glyph glyph-name="uni0394" unicode="&#x394;" horiz-adv-x="594" d="M581 0 L581 49 L350 695 L230 695 L11 49 L11 0 L581 0 Z M104 69 L221 429 C238 481 248 525 252 543 L257 543 C259 525 271 481 288 431 L409 69 L104 69 Z " />
<glyph glyph-name="Epsilon" unicode="&#x395;" horiz-adv-x="593" d="M29 0 L553 0 L553 183 L477 183 C469 90 444 67 378 67 L254 67 L254 318 L317 318 C379 318 394 301 398 247 L464 247 L464 457 L398 457 C394 400 378 386 316 386 L254 386 L254 624 L363 624 C433 624 445 602 467 526 L541 526 L530 695 L29 695 L29 647 C81 646 97 632 97 575 L97 117 C97 60 81 46 29 46 L29 0 Z " />
<glyph glyph-name="Zeta" unicode="&#x396;" horiz-adv-x="567" d="M534 639 L534 695 L61 695 L52 516 L129 516 C149 594 171 629 238 629 L363 629 L26 56 L26 0 L522 0 L534 190 L459 190 C439 100 413 67 336 67 L200 67 L534 639 Z " />
<glyph glyph-name="Eta" unicode="&#x397;" horiz-adv-x="746" d="M492 117 C492 60 476 46 423 46 L423 0 L717 0 L717 46 C665 46 649 60 649 117 L649 575 C649 632 665 646 717 647 L717 695 L423 695 L423 647 C476 646 492 632 492 575 L492 394 L254 394 L254 575 C254 632 270 646 323 647 L323 695 L29 695 L29 647 C81 646 97 632 97 575 L97 117 C97 60 81 46 29 46 L29 0 L323 0 L323 46 C270 46 254 60 254 117 L254 319 L492 319 L492 117 Z " />
<glyph glyph-name="Theta" unicode="&#x398;" horiz-adv-x="730" d="M366 -12 C563 -12 689 115 689 338 C689 581 558 707 365 707 C182 707 41 593 41 340 C41 118 164 -12 366 -12 L366 -12 Z M365 636 C466 636 518 561 518 343 C518 108 455 53 366 53 C268 53 211 121 211 349 C211 566 266 636 365 636 L365 636 Z M379 317 C427 317 433 302 437 263 L481 263 L481 447 L437 447 C433 405 426 393 378 393 L355 393 C307 393 300 405 296 447 L252 447 L252 263 L296 263 C300 302 306 317 354 317 L379 317 Z " />
<glyph glyph-name="Iota" unicode="&#x399;" horiz-adv-x="352" d="M97 117 C97 60 81 46 29 46 L29 0 L323 0 L323 46 C270 46 254 60 254 117 L254 575 C254 632 270 646 323 647 L323 695 L29 695 L29 647 C81 646 97 632 97 575 L97 117 Z " />
<glyph glyph-name="Kappa" unicode="&#x39a;" horiz-adv-x="685" d="M97 117 C97 60 81 46 29 46 L29 0 L323 0 L323 46 C270 46 254 60 254 117 L254 575 C254 632 270 646 323 647 L323 695 L29 695 L29 647 C81 646 97 632 97 575 L97 117 Z M546 577 C587 626 611 643 654 648 L654 695 L430 695 L430 648 C459 648 473 637 473 621 C473 613 469 604 460 592 L270 346 L466 0 L672 0 L672 46 C629 49 611 56 588 95 L407 406 L546 577 Z " />
<glyph glyph-name="Lambda" unicode="&#x39b;" horiz-adv-x="665" d="M429 101 C432 92 433 83 433 76 C433 56 419 48 374 46 L374 0 L657 0 L657 46 C616 51 606 67 590 113 L395 695 L268 695 L82 113 C65 60 51 51 8 46 L8 0 L229 0 L229 46 C184 48 165 51 165 76 C165 82 166 90 169 101 L262 428 C279 489 288 523 293 543 L298 543 C302 523 311 484 327 430 L429 101 Z " />
<glyph glyph-name="Mu" unicode="&#x39c;" horiz-adv-x="879" d="M824 695 L566 695 L471 346 C457 295 448 233 444 211 L440 211 C437 235 428 299 413 346 L306 695 L47 695 L47 648 C120 645 122 621 119 572 L88 124 C84 64 74 47 18 45 L18 0 L234 0 L234 45 C173 45 167 63 170 118 L188 427 C191 475 193 539 194 565 L199 565 C203 541 215 471 230 423 L361 0 L454 0 L578 449 C589 487 599 545 602 564 L607 564 L607 542 C607 516 608 467 610 440 L637 117 C642 63 635 47 570 45 L570 0 L861 0 L861 45 C805 47 797 66 792 122 L752 572 C747 624 754 644 824 648 L824 695 Z " />
<glyph glyph-name="Nu" unicode="&#x39d;" horiz-adv-x="704" d="M534 381 C534 323 540 255 543 232 L538 232 C527 261 503 313 472 362 L260 695 L29 695 L29 647 C81 646 97 632 97 575 L97 117 C97 60 81 46 29 46 L29 0 L252 0 L252 46 C199 46 183 60 183 117 L183 376 C183 440 177 506 174 529 L178 529 C188 507 214 453 261 380 L506 0 L618 0 L618 575 C618 632 633 646 685 647 L685 695 L465 695 L465 647 C518 646 534 632 534 575 L534 381 Z " />
<glyph glyph-name="Xi" unicode="&#x39e;" horiz-adv-x="611" d="M572 0 L579 196 L503 196 C494 123 469 107 406 107 L205 107 C142 107 118 121 108 196 L32 196 L39 0 L572 0 Z M390 592 C461 592 479 571 494 502 L568 502 L559 695 L53 695 L43 502 L118 502 C133 571 151 592 221 592 L390 592 Z M266 314 L345 314 C407 314 420 297 426 252 L493 252 L493 452 L426 452 C420 403 406 389 344 389 L267 389 C205 389 192 403 185 452 L119 452 L119 252 L185 252 C192 297 204 314 266 314 L266 314 Z " />
<glyph glyph-name="Omicron" unicode="&#x39f;" horiz-adv-x="706" d="M354 -12 C550 -12 665 115 665 338 C665 581 545 707 353 707 C171 707 41 593 41 340 C41 118 154 -12 354 -12 L354 -12 Z M353 636 C449 636 491 561 491 343 C491 108 438 53 354 53 C261 53 215 121 215 349 C215 566 259 636 353 636 L353 636 Z " />
<glyph glyph-name="Pi" unicode="&#x3a0;" horiz-adv-x="741" d="M487 117 C487 60 472 46 419 46 L419 0 L712 0 L712 46 C659 46 644 60 644 117 L644 575 C644 632 659 646 712 647 L712 695 L29 695 L29 647 C81 646 97 632 97 575 L97 117 C97 60 81 46 29 46 L29 0 L322 0 L322 46 C269 46 254 60 254 117 L254 623 L487 623 L487 117 Z " />
<glyph glyph-name="Rho" unicode="&#x3a1;" horiz-adv-x="605" d="M254 267 L349 267 C541 267 596 373 596 483 C596 628 505 695 347 695 L29 695 L29 647 C81 646 97 632 97 575 L97 117 C97 60 81 46 29 46 L29 0 L339 0 L339 46 C271 46 254 61 254 118 L254 267 Z M429 481 C429 373 400 341 321 341 L254 341 L254 624 L313 624 C400 624 429 586 429 481 L429 481 Z " />
<glyph glyph-name="Sigma" unicode="&#x3a3;" horiz-adv-x="573" d="M245 336 L17 62 L17 0 L530 0 L550 209 L475 209 C454 135 438 113 363 113 L171 113 L393 377 L210 629 L352 629 C425 629 440 603 462 526 L537 526 L524 695 L20 695 L20 637 L245 336 Z " />
<glyph glyph-name="Tau" unicode="&#x3a4;" horiz-adv-x="609" d="M27 695 L16 509 L92 509 C112 595 118 624 183 624 L226 624 L226 117 C226 59 207 46 147 46 L147 0 L462 0 L462 46 C402 46 383 59 383 117 L383 624 L426 624 C490 624 497 595 517 509 L592 509 L581 695 L27 695 Z " />
<glyph glyph-name="Upsilon" unicode="&#x3a5;" horiz-adv-x="655" d="M365 360 L261 583 C255 596 252 607 252 616 C252 636 267 648 300 648 L300 695 L15 695 L15 648 C51 643 66 633 91 583 L250 265 L250 117 C250 60 234 46 173 46 L173 0 L485 0 L485 46 C424 46 407 60 407 117 L407 267 L558 580 C584 633 599 643 639 648 L639 695 L426 695 L426 648 C461 648 477 639 477 618 C477 609 473 598 468 584 L370 360 L365 360 Z " />
<glyph glyph-name="Phi" unicode="&#x3a6;" horiz-adv-x="865" d="M578 695 L287 695 L287 647 C332 646 356 634 356 597 C140 597 28 520 28 348 C28 175 132 100 356 99 C356 59 334 46 287 46 L287 0 L578 0 L578 46 C531 46 509 59 509 99 C733 100 837 175 837 348 C837 520 725 597 509 597 C509 634 533 646 578 647 L578 695 Z M191 351 C191 487 236 530 356 533 L356 163 C238 165 191 210 191 351 L191 351 Z M674 351 C674 210 627 165 509 163 L509 533 C629 530 674 487 674 351 L674 351 Z " />
<glyph glyph-name="Chi" unicode="&#x3a7;" horiz-adv-x="689" d="M558 584 C587 628 601 643 640 648 L640 695 L425 695 L425 648 C458 648 476 636 476 616 C476 608 472 598 466 586 L377 440 L372 440 L284 588 C279 598 275 608 275 616 C275 635 292 648 328 648 L328 695 L35 695 L35 648 C69 643 80 632 109 586 L256 349 L111 115 C81 64 60 51 21 46 L21 0 L241 0 L241 46 C207 48 188 59 188 79 C188 86 191 96 197 105 L299 281 L304 281 L407 107 C414 96 417 87 417 79 C417 60 399 47 364 46 L364 0 L668 0 L668 46 C631 51 616 65 587 111 L420 378 L558 584 Z " />
<glyph glyph-name="Psi" unicode="&#x3a8;" horiz-adv-x="805" d="M744 491 C755 586 759 602 801 614 L785 705 C649 697 611 656 597 511 C584 382 552 340 479 329 L479 575 C479 632 490 646 543 647 L543 695 L261 695 L261 647 C314 646 325 632 325 575 L325 329 C251 340 220 382 208 511 C194 656 155 697 19 705 L3 614 C46 602 50 586 61 491 C72 402 100 351 138 317 C182 278 248 258 325 254 L325 117 C325 60 309 46 257 46 L257 0 L548 0 L548 46 C495 46 479 60 479 117 L479 254 C557 258 622 277 667 317 C705 350 733 402 744 491 L744 491 Z " />
<glyph glyph-name="uni03A9" unicode="&#x3a9;" horiz-adv-x="727" d="M363 641 C469 641 506 573 506 389 C506 249 477 157 395 85 L395 0 L681 0 L694 166 L633 166 C617 92 585 88 519 88 L482 88 C574 142 678 248 678 395 C678 585 543 707 363 707 C183 707 49 585 49 395 C49 248 153 142 245 88 L208 88 C142 88 110 92 94 166 L32 166 L46 0 L331 0 L331 85 C250 157 220 249 220 389 C220 573 259 641 363 641 L363 641 Z " />
<glyph glyph-name="Iotadieresis" unicode="&#x3aa;" horiz-adv-x="352" d="M97 117 C97 60 81 46 29 46 L29 0 L323 0 L323 46 C270 46 254 60 254 117 L254 575 C254 632 270 646 323 647 L323 695 L29 695 L29 647 C81 646 97 632 97 575 L97 117 Z M147 817 C147 863 112 898 66 898 C20 898 -17 863 -17 817 C-17 773 19 737 65 737 C111 737 147 773 147 817 L147 817 Z M370 817 C370 863 335 898 289 898 C243 898 206 863 206 817 C206 773 242 737 288 737 C334 737 370 773 370 817 L370 817 Z " />
<glyph glyph-name="Upsilondieresis" unicode="&#x3ab;" horiz-adv-x="655" d="M365 360 L261 583 C255 596 252 607 252 616 C252 636 267 648 300 648 L300 695 L15 695 L15 648 C51 643 66 633 91 583 L250 265 L250 117 C250 60 234 46 173 46 L173 0 L485 0 L485 46 C424 46 407 60 407 117 L407 267 L558 580 C584 633 599 643 639 648 L639 695 L426 695 L426 648 C461 648 477 639 477 618 C477 609 473 598 468 584 L370 360 L365 360 Z M299 817 C299 863 264 898 218 898 C172 898 135 863 135 817 C135 773 171 737 217 737 C263 737 299 773 299 817 L299 817 Z M522 817 C522 863 487 898 441 898 C395 898 358 863 358 817 C358 773 394 737 440 737 C486 737 522 773 522 817 L522 817 Z " />
<glyph glyph-name="alphatonos" unicode="&#x3ac;" horiz-adv-x="606" d="M486 -9 C529 -9 563 4 595 21 L595 71 C582 68 573 67 562 67 C531 67 516 84 516 129 L516 386 C516 430 516 474 528 514 L501 514 L397 504 C390 490 384 477 379 463 C354 498 311 521 254 521 C106 521 35 403 35 243 C35 78 120 -10 243 -10 C303 -10 355 18 382 65 C397 20 427 -9 486 -9 L486 -9 Z M368 190 C368 119 329 59 278 59 C222 59 195 104 195 255 C195 405 239 452 289 452 C333 452 368 417 368 310 L368 190 Z M302 553 L401 737 L270 765 L216 557 L302 553 Z " />
<glyph glyph-name="epsilontonos" unicode="&#x3ad;" horiz-adv-x="505" d="M308 553 L407 737 L276 765 L222 557 L308 553 Z M299 69 C243 69 189 87 189 150 C189 203 209 231 281 231 L334 231 L334 296 L278 296 C216 296 204 327 204 375 C204 433 229 459 279 459 C325 459 349 435 353 376 L461 376 L461 481 C410 508 340 521 273 521 C111 521 52 469 52 386 C52 329 81 288 169 273 L169 267 C76 259 28 214 28 138 C28 21 135 -15 254 -15 C365 -15 446 29 492 85 L462 124 C419 94 370 69 299 69 L299 69 Z " />
<glyph glyph-name="etatonos" unicode="&#x3ae;" horiz-adv-x="636" d="M383 553 L482 737 L351 765 L297 557 L383 553 Z M395 136 C395 67 420 -9 515 -9 C564 -9 599 2 628 19 L628 71 C616 68 603 67 591 67 C557 67 544 87 544 128 L544 382 C544 472 507 521 405 521 C340 521 274 485 228 436 C227 473 216 510 211 522 L185 522 L16 472 L16 423 C74 421 88 412 88 347 L88 195 C88 98 81 54 70 29 L70 0 L230 0 C234 54 236 120 236 247 L236 372 C265 404 306 429 343 429 C377 429 397 418 397 366 C397 287 395 205 395 136 L395 136 Z " />
<glyph glyph-name="iotatonos" unicode="&#x3af;" horiz-adv-x="299" d="M157 553 L256 737 L125 765 L71 557 L157 553 Z M205 522 L178 522 L53 501 C56 459 56 404 56 330 L56 133 C56 64 80 -9 175 -9 C227 -9 262 1 291 19 L291 71 C278 68 265 67 253 67 C218 67 205 84 205 126 L205 522 Z " />
<glyph glyph-name="upsilondieresistonos" unicode="&#x3b0;" horiz-adv-x="599" d="M356 475 C373 442 399 375 399 288 C399 180 371 49 282 49 C246 49 237 89 237 141 L237 384 C237 458 212 517 124 517 C80 517 36 502 4 485 L4 435 C73 433 88 412 88 356 L88 147 C88 40 142 -13 247 -13 C460 -13 561 122 561 312 C561 411 508 496 487 521 L356 501 L356 475 Z M199 621 C199 662 167 695 125 695 C82 695 48 662 48 621 C48 579 81 546 123 546 C166 546 199 579 199 621 L199 621 Z M509 621 C509 662 477 695 434 695 C392 695 358 662 358 621 C358 579 392 546 434 546 C476 546 509 579 509 621 L509 621 Z M298 557 L373 740 L249 775 L219 561 L298 557 Z " />
<glyph glyph-name="alpha" unicode="&#x3b1;" horiz-adv-x="606" d="M486 -9 C529 -9 563 4 595 21 L595 71 C582 68 573 67 562 67 C531 67 516 84 516 129 L516 386 C516 430 516 474 528 514 L501 514 L397 504 C390 490 384 477 379 463 C354 498 311 521 254 521 C106 521 35 403 35 243 C35 78 120 -10 243 -10 C303 -10 355 18 382 65 C397 20 427 -9 486 -9 L486 -9 Z M368 190 C368 119 329 59 278 59 C222 59 195 104 195 255 C195 405 239 452 289 452 C333 452 368 417 368 310 L368 190 Z " />
<glyph glyph-name="beta" unicode="&#x3b2;" horiz-adv-x="566" d="M309 -13 C476 -13 534 87 534 205 C534 313 480 383 369 397 L369 402 C458 423 497 489 497 563 C497 671 429 741 282 741 C142 741 57 676 57 532 L57 11 C57 -60 54 -121 44 -175 L49 -205 L204 -184 L204 -118 C204 -75 202 -1 200 19 C221 0 270 -13 309 -13 L309 -13 Z M287 48 C248 48 219 61 205 79 L205 527 C205 653 232 683 281 683 C326 683 346 643 346 560 C346 464 324 425 261 425 L239 425 L239 365 L256 365 C336 365 379 324 379 203 C379 88 345 48 287 48 L287 48 Z " />
<glyph glyph-name="gamma" unicode="&#x3b3;" horiz-adv-x="518" d="M361 465 C402 452 410 432 410 402 C410 330 344 125 307 55 L302 55 C305 71 306 87 306 104 C306 161 292 230 265 315 C224 444 188 517 101 517 C60 517 23 504 -9 487 L-9 438 C55 437 77 427 134 256 C202 51 212 4 212 -22 C212 -78 158 -109 36 -114 L77 -219 C228 -166 304 -77 358 17 C414 115 496 319 496 457 L489 519 L361 506 L361 465 Z " />
<glyph glyph-name="delta" unicode="&#x3b4;" horiz-adv-x="557" d="M89 597 C89 537 114 495 170 455 C76 402 32 320 32 224 C32 81 110 -13 277 -13 C441 -13 525 97 525 243 C525 376 444 442 347 494 C226 559 178 577 178 620 C178 644 202 664 253 664 C335 664 376 614 400 547 L459 569 C464 584 466 600 466 613 C466 690 406 743 279 743 C160 743 89 688 89 597 L89 597 Z M190 229 C190 309 197 367 238 414 C324 367 368 322 368 232 C368 129 351 49 279 49 C203 49 190 132 190 229 L190 229 Z " />
<glyph glyph-name="epsilon" unicode="&#x3b5;" horiz-adv-x="505" d="M299 69 C243 69 189 87 189 150 C189 203 209 231 281 231 L334 231 L334 296 L278 296 C216 296 204 327 204 375 C204 433 229 459 279 459 C325 459 349 435 353 376 L461 376 L461 481 C410 508 340 521 273 521 C111 521 52 469 52 386 C52 329 81 288 169 273 L169 267 C76 259 28 214 28 138 C28 21 135 -15 254 -15 C365 -15 446 29 492 85 L462 124 C419 94 370 69 299 69 L299 69 Z " />
<glyph glyph-name="zeta" unicode="&#x3b6;" horiz-adv-x="459" d="M195 571 C104 492 37 381 37 244 C37 100 95 34 245 -5 C297 -19 317 -32 317 -64 C317 -93 296 -125 268 -163 L349 -209 C420 -143 463 -84 463 -30 C463 51 420 76 327 107 C225 141 190 165 190 269 C190 393 229 493 289 553 C384 553 456 607 472 694 L472 719 L409 735 L281 645 C217 654 176 690 153 747 L102 726 C102 661 139 599 195 571 L195 571 Z " />
<glyph glyph-name="eta" unicode="&#x3b7;" horiz-adv-x="636" d="M395 136 C395 67 420 -9 515 -9 C564 -9 599 2 628 19 L628 71 C616 68 603 67 591 67 C557 67 544 87 544 128 L544 382 C544 472 507 521 405 521 C340 521 274 485 228 436 C227 473 216 510 211 522 L185 522 L16 472 L16 423 C74 421 88 412 88 347 L88 195 C88 98 81 54 70 29 L70 0 L230 0 C234 54 236 120 236 247 L236 372 C265 404 306 429 343 429 C377 429 397 418 397 366 C397 287 395 205 395 136 L395 136 Z " />
<glyph glyph-name="theta" unicode="&#x3b8;" horiz-adv-x="556" d="M524 373 C524 618 429 742 283 742 C124 742 32 594 32 364 C32 129 115 -13 276 -13 C415 -13 524 113 524 373 L524 373 Z M281 48 C212 48 188 141 186 335 L370 335 C368 137 347 48 281 48 L281 48 Z M278 679 C342 679 367 596 370 398 L186 398 C188 601 212 679 278 679 L278 679 Z " />
<glyph glyph-name="iota" unicode="&#x3b9;" horiz-adv-x="299" d="M205 522 L178 522 L53 501 C56 459 56 404 56 330 L56 133 C56 64 80 -9 175 -9 C227 -9 262 1 291 19 L291 71 C278 68 265 67 253 67 C218 67 205 84 205 126 L205 522 Z " />
<glyph glyph-name="kappa" unicode="&#x3ba;" horiz-adv-x="567" d="M398 361 C420 390 439 397 492 404 L545 410 L536 522 C412 519 390 482 347 417 C312 363 277 320 236 274 L236 399 C236 452 223 498 211 522 L185 522 L16 472 L16 423 C74 421 88 412 88 347 L88 195 C88 98 81 47 70 22 L70 0 L230 0 C233 42 235 95 236 178 C249 191 262 204 271 215 L310 128 C349 39 375 -9 542 -9 L554 91 C503 100 486 109 462 152 L368 322 L398 361 Z " />
<glyph glyph-name="lambda" unicode="&#x3bb;" horiz-adv-x="559" d="M236 442 L322 125 C343 49 376 -11 464 -11 C502 -11 529 -1 558 17 L558 69 C548 66 536 65 524 65 C495 65 487 80 475 121 L315 650 C291 729 232 741 182 741 C138 741 108 731 76 713 L76 661 C129 661 165 660 181 608 L209 516 L172 522 L63 146 C40 65 21 37 1 14 L79 -10 L109 -10 L231 442 L236 442 Z " />
<glyph glyph-name="uni03BC" unicode="&#x3bc;" horiz-adv-x="598" d="M48 -205 L204 -184 L204 -125 C204 -70 198 -34 186 -1 L190 2 C204 -8 226 -12 249 -12 C304 -12 346 23 370 62 C384 21 414 -12 478 -12 C526 -12 561 -1 590 16 L590 68 C578 65 565 64 554 64 C520 64 507 81 507 123 L507 521 L469 521 L358 502 L358 126 C330 96 293 80 262 80 C237 80 204 90 204 170 C204 205 205 514 205 521 L166 521 L52 502 C55 398 56 313 57 166 L57 11 C57 -60 54 -121 43 -175 L48 -205 Z " />
<glyph glyph-name="nu" unicode="&#x3bd;" horiz-adv-x="527" d="M331 -8 C400 101 505 307 505 457 L499 519 L370 506 L370 465 C411 452 419 432 419 402 C419 330 362 200 325 130 L321 130 L231 385 C205 458 181 517 101 517 C60 517 23 504 -9 487 L-9 438 C53 437 66 410 87 355 L227 -8 L331 -8 Z " />
<glyph glyph-name="xi" unicode="&#x3be;" horiz-adv-x="475" d="M171 581 C115 545 79 506 79 453 C79 400 114 356 217 349 L217 344 C126 330 27 268 27 167 C27 60 113 19 255 -6 C310 -16 328 -30 328 -61 C328 -91 307 -125 278 -163 L360 -209 C430 -143 473 -82 473 -27 C473 46 433 84 338 105 C224 129 182 139 182 203 C182 262 240 312 358 312 L392 312 L392 379 L355 379 C259 379 210 407 210 476 C210 507 221 534 258 563 C363 563 437 591 463 694 L463 719 L399 735 L260 650 C198 660 163 690 140 747 L89 726 C89 664 118 607 171 581 L171 581 Z " />
<glyph glyph-name="omicron" unicode="&#x3bf;" horiz-adv-x="578" d="M543 262 C543 437 439 522 294 522 C135 522 35 415 35 253 C35 85 129 -13 286 -13 C425 -13 543 72 543 262 L543 262 Z M380 266 C380 112 350 49 291 49 C219 49 198 111 198 251 C198 409 226 458 289 458 C349 458 380 411 380 266 L380 266 Z " />
<glyph glyph-name="pi" unicode="&#x3c0;" horiz-adv-x="613" d="M472 -9 C521 -9 557 2 587 19 L587 71 C574 68 561 67 549 67 C515 67 499 87 499 128 L499 386 C531 387 555 393 575 404 L590 522 L563 522 C530 512 503 510 456 510 L201 510 C83 510 32 458 7 366 L41 338 C67 365 97 383 139 386 C125 205 85 87 31 22 L33 0 L170 0 C204 100 209 248 211 386 L358 386 C355 335 353 278 353 236 L353 136 C353 67 376 -9 472 -9 L472 -9 Z " />
<glyph glyph-name="rho" unicode="&#x3c1;" horiz-adv-x="579" d="M197 -101 C197 -57 191 0 187 31 L191 32 C212 8 260 -13 308 -13 C470 -13 543 116 543 268 C543 436 446 522 295 522 C138 522 50 436 50 290 L50 11 C50 -60 47 -121 37 -175 L42 -205 L197 -184 L197 -101 Z M380 254 C380 98 344 50 285 50 C250 50 213 73 197 95 L197 296 C197 411 228 459 288 459 C353 459 380 411 380 254 L380 254 Z " />
<glyph glyph-name="sigma1" unicode="&#x3c2;" horiz-adv-x="474" d="M189 273 C189 423 244 459 291 459 C332 459 343 430 345 372 L457 372 L457 481 C422 504 370 521 291 521 C151 521 35 424 35 257 C35 112 102 31 244 -5 C297 -19 317 -30 317 -62 C317 -91 295 -125 267 -163 L349 -209 C419 -143 462 -84 462 -30 C462 48 416 74 324 106 C222 142 189 175 189 273 L189 273 Z " />
<glyph glyph-name="sigma" unicode="&#x3c3;" horiz-adv-x="579" d="M433 440 C450 432 488 416 520 416 C550 416 564 419 586 430 L586 458 L569 528 C534 513 493 509 457 509 C380 509 352 522 289 522 C134 522 35 415 35 253 C35 85 128 -13 282 -13 C420 -13 529 72 529 247 C529 314 500 389 433 435 L433 440 Z M368 266 C368 112 343 49 287 49 C216 49 198 111 198 251 C198 409 224 458 284 458 C340 458 368 425 368 266 L368 266 Z " />
<glyph glyph-name="tau" unicode="&#x3c4;" horiz-adv-x="552" d="M425 386 C461 386 502 393 522 404 L538 521 L510 521 C477 511 450 509 404 509 L201 509 C83 509 33 458 8 366 L43 338 C69 366 101 386 145 386 L225 386 C217 322 211 232 211 136 C211 67 229 -9 324 -9 C373 -9 410 2 439 19 L439 71 C426 68 413 67 401 67 C368 67 351 87 351 128 L351 386 L425 386 Z " />
<glyph glyph-name="upsilon" unicode="&#x3c5;" horiz-adv-x="599" d="M356 475 C373 442 399 375 399 288 C399 180 371 49 282 49 C246 49 237 89 237 141 L237 384 C237 458 212 517 124 517 C80 517 36 502 4 485 L4 435 C73 433 88 412 88 356 L88 147 C88 40 142 -13 247 -13 C460 -13 561 122 561 312 C561 411 508 496 487 521 L356 501 L356 475 Z " />
<glyph glyph-name="phi" unicode="&#x3c6;" horiz-adv-x="805" d="M770 269 C770 436 691 522 538 522 C384 522 320 435 320 304 L320 51 C226 56 188 126 188 249 C188 345 230 445 286 503 L171 518 C89 448 35 355 35 229 C35 72 148 -4 320 -10 C320 -72 316 -127 307 -175 L312 -205 L464 -184 L464 -10 C715 -8 770 135 770 269 L770 269 Z M464 305 C464 427 487 459 531 459 C581 459 609 426 609 269 C609 124 555 55 464 52 L464 305 Z " />
<glyph glyph-name="chi" unicode="&#x3c7;" horiz-adv-x="531" d="M424 -11 C461 -11 500 -1 529 17 L529 69 C518 67 510 65 499 65 C469 65 455 76 430 121 L341 277 L416 388 C457 449 482 471 508 492 L432 516 L402 516 L299 348 L295 348 L258 422 C222 493 201 516 131 516 C86 516 53 506 23 489 L23 438 C32 439 38 441 46 441 C81 440 99 434 122 391 L192 256 L95 119 C52 58 29 35 1 14 L74 -11 L105 -11 L236 186 L240 186 L283 98 C318 26 348 -11 424 -11 L424 -11 Z " />
<glyph glyph-name="psi" unicode="&#x3c8;" horiz-adv-x="803" d="M481 734 L452 734 L336 714 C339 672 339 626 339 547 L339 52 C264 58 230 108 230 208 L230 384 C230 458 211 517 124 517 C80 517 36 502 4 485 L4 435 C70 433 85 412 85 356 L85 214 C85 50 209 -7 339 -10 C338 -73 333 -127 325 -175 L329 -205 L481 -184 L481 -10 C676 -5 765 138 765 310 C765 403 713 495 688 521 L562 501 L562 475 C580 442 608 373 608 285 C608 146 572 61 481 52 L481 734 Z " />
<glyph glyph-name="omega" unicode="&#x3c9;" horiz-adv-x="798" d="M330 241 C330 114 310 52 262 52 C206 52 193 120 193 248 C193 340 237 445 292 503 L175 518 C93 448 38 354 38 228 C38 64 121 -13 237 -13 C301 -13 344 12 372 57 C392 18 432 -13 508 -13 C679 -13 760 103 760 295 C760 388 697 497 679 521 L552 500 L552 473 C571 441 603 370 603 275 C603 157 586 49 518 49 C489 49 472 72 472 141 L472 382 L444 382 L323 365 C327 315 330 268 330 241 L330 241 Z " />
<glyph glyph-name="iotadieresis" unicode="&#x3ca;" horiz-adv-x="299" d="M104 646 C104 692 69 728 23 728 C-23 728 -60 692 -60 646 C-60 602 -23 566 22 566 C68 566 104 602 104 646 L104 646 Z M327 646 C327 692 292 728 246 728 C200 728 163 692 163 646 C163 602 200 566 245 566 C291 566 327 602 327 646 L327 646 Z M205 522 L178 522 L53 501 C56 459 56 404 56 330 L56 133 C56 64 80 -9 175 -9 C227 -9 262 1 291 19 L291 71 C278 68 265 67 253 67 C218 67 205 84 205 126 L205 522 Z " />
<glyph glyph-name="upsilondieresis" unicode="&#x3cb;" horiz-adv-x="599" d="M261 646 C261 692 226 728 180 728 C134 728 97 692 97 646 C97 602 134 566 179 566 C225 566 261 602 261 646 L261 646 Z M484 646 C484 692 449 728 403 728 C357 728 320 692 320 646 C320 602 357 566 402 566 C448 566 484 602 484 646 L484 646 Z M356 475 C373 442 399 375 399 288 C399 180 371 49 282 49 C246 49 237 89 237 141 L237 384 C237 458 212 517 124 517 C80 517 36 502 4 485 L4 435 C73 433 88 412 88 356 L88 147 C88 40 142 -13 247 -13 C460 -13 561 122 561 312 C561 411 508 496 487 521 L356 501 L356 475 Z " />
<glyph glyph-name="omicrontonos" unicode="&#x3cc;" horiz-adv-x="578" d="M543 262 C543 437 439 522 294 522 C135 522 35 415 35 253 C35 85 129 -13 286 -13 C425 -13 543 72 543 262 L543 262 Z M380 266 C380 112 350 49 291 49 C219 49 198 111 198 251 C198 409 226 458 289 458 C349 458 380 411 380 266 L380 266 Z M333 553 L432 737 L301 765 L247 557 L333 553 Z " />
<glyph glyph-name="upsilontonos" unicode="&#x3cd;" horiz-adv-x="599" d="M324 553 L423 737 L292 765 L238 557 L324 553 Z M356 475 C373 442 399 375 399 288 C399 180 371 49 282 49 C246 49 237 89 237 141 L237 384 C237 458 212 517 124 517 C80 517 36 502 4 485 L4 435 C73 433 88 412 88 356 L88 147 C88 40 142 -13 247 -13 C460 -13 561 122 561 312 C561 411 508 496 487 521 L356 501 L356 475 Z " />
<glyph glyph-name="omegatonos" unicode="&#x3ce;" horiz-adv-x="798" d="M457 553 L556 737 L425 765 L371 557 L457 553 Z M330 241 C330 114 310 52 262 52 C206 52 193 120 193 248 C193 340 237 445 292 503 L175 518 C93 448 38 354 38 228 C38 64 121 -13 237 -13 C301 -13 344 12 372 57 C392 18 432 -13 508 -13 C679 -13 760 103 760 295 C760 388 697 497 679 521 L552 500 L552 473 C571 441 603 370 603 275 C603 157 586 49 518 49 C489 49 472 72 472 141 L472 382 L444 382 L323 365 C327 315 330 268 330 241 L330 241 Z " />
<glyph glyph-name="uni03D0" unicode="&#x3d0;" horiz-adv-x="587" d="M516 565 C516 671 442 741 294 741 C141 741 40 646 40 331 C40 96 140 -13 300 -13 C471 -13 556 73 556 208 C556 318 501 372 402 400 C486 441 516 496 516 565 L516 565 Z M404 206 C404 90 356 48 299 48 C229 48 193 118 193 339 C193 620 224 683 292 683 C347 683 367 640 367 561 C367 475 327 433 230 414 L239 352 C265 357 293 363 315 369 C381 333 404 294 404 206 L404 206 Z " />
<glyph glyph-name="theta1" unicode="&#x3d1;" horiz-adv-x="591" d="M26 309 C44 275 52 252 52 188 C52 60 126 -13 292 -13 C455 -13 551 88 551 345 C551 668 448 741 295 741 C137 741 67 659 67 554 C67 415 183 349 398 311 C393 104 353 48 291 48 C234 48 199 76 199 174 C199 276 169 307 125 339 L26 309 Z M218 552 C218 636 244 683 298 683 C359 683 396 649 398 381 C263 404 218 457 218 552 L218 552 Z " />
<glyph glyph-name="Upsilon1" unicode="&#x3d2;" horiz-adv-x="656" d="M412 226 C412 437 497 598 655 626 L644 704 C455 704 384 545 359 351 L355 351 C337 573 250 705 14 705 L3 601 C180 557 256 394 256 223 L256 110 C256 53 240 46 180 46 L180 0 L488 0 L488 46 C428 46 412 53 412 110 L412 226 Z " />
<glyph glyph-name="uni03D3" unicode="&#x3d3;" horiz-adv-x="656" d="M412 226 C412 437 497 598 655 626 L644 704 C455 704 384 545 359 351 L355 351 C337 573 250 705 14 705 L3 601 C180 557 256 394 256 223 L256 110 C256 53 240 46 180 46 L180 0 L488 0 L488 46 C428 46 412 53 412 110 L412 226 Z M-112 501 L-16 684 L-146 712 L-198 505 L-112 501 Z " />
<glyph glyph-name="uni03D4" unicode="&#x3d4;" horiz-adv-x="656" d="M412 226 C412 437 497 598 655 626 L644 704 C455 704 384 545 359 351 L355 351 C337 573 250 705 14 705 L3 601 C180 557 256 394 256 223 L256 110 C256 53 240 46 180 46 L180 0 L488 0 L488 46 C428 46 412 53 412 110 L412 226 Z M309 817 C309 863 274 898 228 898 C182 898 145 863 145 817 C145 773 181 737 227 737 C273 737 309 773 309 817 L309 817 Z M532 817 C532 863 497 898 451 898 C405 898 368 863 368 817 C368 773 404 737 450 737 C496 737 532 773 532 817 L532 817 Z " />
<glyph glyph-name="phi1" unicode="&#x3d5;" horiz-adv-x="817" d="M479 734 L451 734 L334 714 C337 672 338 626 338 547 L338 521 C140 514 35 436 35 266 C35 82 128 -2 338 -10 C337 -73 332 -126 323 -175 L328 -205 L479 -184 L479 -10 C689 -2 782 82 782 266 C782 436 677 514 479 521 L479 734 Z M620 252 C620 98 566 57 479 52 L479 457 C573 450 620 401 620 252 L620 252 Z M197 252 C197 401 244 450 338 457 L338 52 C250 57 197 98 197 252 L197 252 Z " />
<glyph glyph-name="uni0400" unicode="&#x400;" horiz-adv-x="593" d="M418 765 L212 929 L148 799 L394 727 L418 765 Z M29 0 L553 0 L553 183 L477 183 C469 90 444 67 378 67 L254 67 L254 318 L317 318 C379 318 394 301 398 247 L464 247 L464 457 L398 457 C394 400 378 386 316 386 L254 386 L254 624 L363 624 C433 624 445 602 467 526 L541 526 L530 695 L29 695 L29 647 C81 646 97 632 97 575 L97 117 C97 60 81 46 29 46 L29 0 Z " />
<glyph glyph-name="afii10023" unicode="&#x401;" horiz-adv-x="593" d="M29 0 L553 0 L553 183 L477 183 C469 90 444 67 378 67 L254 67 L254 318 L317 318 C379 318 394 301 398 247 L464 247 L464 457 L398 457 C394 400 378 386 316 386 L254 386 L254 624 L363 624 C433 624 445 602 467 526 L541 526 L530 695 L29 695 L29 647 C81 646 97 632 97 575 L97 117 C97 60 81 46 29 46 L29 0 Z M270 817 C270 863 235 898 189 898 C143 898 106 863 106 817 C106 773 142 737 188 737 C234 737 270 773 270 817 L270 817 Z M493 817 C493 863 458 898 412 898 C366 898 329 863 329 817 C329 773 365 737 411 737 C457 737 493 773 493 817 L493 817 Z " />
<glyph glyph-name="afii10051" unicode="&#x402;" horiz-adv-x="810" d="M617 260 L617 200 C617 84 606 55 507 5 L528 -46 C687 -9 774 53 774 216 L774 274 C774 390 710 463 569 463 C497 463 432 436 384 406 L384 624 L425 624 C482 624 495 606 516 520 L592 520 L581 695 L26 695 L17 509 L92 509 C110 594 118 624 184 624 L227 624 L227 117 C227 59 208 46 148 46 L148 0 L457 0 L457 46 C404 46 384 59 384 117 L384 335 C421 354 468 367 512 367 C579 367 617 340 617 260 L617 260 Z " />
<glyph glyph-name="afii10052" unicode="&#x403;" horiz-adv-x="555" d="M192 727 L438 799 L373 929 L168 765 L192 727 Z M254 624 L360 624 C435 624 449 599 470 510 L545 510 L532 695 L29 695 L29 647 C81 646 97 632 97 575 L97 117 C97 60 81 46 29 46 L29 0 L339 0 L339 46 C271 46 254 61 254 118 L254 624 Z " />
<glyph glyph-name="afii10053" unicode="&#x404;" horiz-adv-x="626" d="M363 56 C281 56 219 93 216 315 L448 315 L448 390 L217 390 C223 575 273 636 360 636 C429 636 460 597 477 521 L585 521 L585 657 C527 688 460 707 362 707 C170 707 41 592 41 338 C41 113 155 -12 359 -12 C469 -12 549 13 590 43 L590 175 L487 175 C474 93 442 56 363 56 L363 56 Z " />
<glyph glyph-name="afii10054" unicode="&#x405;" horiz-adv-x="551" d="M251 -13 C421 -13 516 67 516 211 C516 335 442 397 329 426 L261 443 C189 461 165 493 165 547 C165 606 197 643 263 643 C344 643 370 595 379 520 L481 520 L481 658 C448 677 383 707 275 707 C129 707 34 633 34 491 C34 372 95 319 200 291 L271 272 C351 250 378 219 378 157 C378 81 335 46 260 46 C183 46 144 84 134 176 L29 176 L29 43 C74 17 136 -13 251 -13 L251 -13 Z " />
<glyph glyph-name="afii10055" unicode="&#x406;" horiz-adv-x="352" d="M97 117 C97 60 81 46 29 46 L29 0 L323 0 L323 46 C270 46 254 60 254 117 L254 575 C254 632 270 646 323 647 L323 695 L29 695 L29 647 C81 646 97 632 97 575 L97 117 Z " />
<glyph glyph-name="afii10056" unicode="&#x407;" horiz-adv-x="352" d="M97 117 C97 60 81 46 29 46 L29 0 L323 0 L323 46 C270 46 254 60 254 117 L254 575 C254 632 270 646 323 647 L323 695 L29 695 L29 647 C81 646 97 632 97 575 L97 117 Z M147 817 C147 863 112 898 66 898 C20 898 -17 863 -17 817 C-17 773 19 737 65 737 C111 737 147 773 147 817 L147 817 Z M370 817 C370 863 335 898 289 898 C243 898 206 863 206 817 C206 773 242 737 288 737 C334 737 370 773 370 817 L370 817 Z " />
<glyph glyph-name="afii10057" unicode="&#x408;" horiz-adv-x="354" d="M99 100 C99 -11 85 -51 -21 -102 L5 -147 C168 -116 256 -55 256 107 L256 575 C256 632 272 646 326 647 L326 695 L29 695 L29 647 C82 646 99 632 99 575 L99 100 Z " />
<glyph glyph-name="afii10058" unicode="&#x409;" horiz-adv-x="957" d="M187 575 C187 336 168 212 120 150 C91 113 57 98 5 86 L17 -14 C143 -14 201 30 233 168 C260 284 268 441 269 623 L450 623 L450 117 C450 60 437 46 384 46 L384 0 L690 0 C882 0 940 102 940 210 C940 351 844 420 686 420 L607 420 L607 575 C607 634 624 646 676 647 L676 695 L119 695 L119 647 C172 646 187 632 187 575 L187 575 Z M773 206 C773 102 740 73 662 73 L607 73 L607 349 L654 349 C740 349 773 308 773 206 L773 206 Z " />
<glyph glyph-name="afii10059" unicode="&#x40a;" horiz-adv-x="972" d="M471 117 C471 60 460 46 407 46 L407 0 L712 0 C903 0 961 98 961 206 C961 344 865 406 707 406 L628 406 L628 575 C628 632 644 646 697 647 L697 695 L407 695 L407 647 C460 646 471 632 471 575 L471 407 L254 407 L254 575 C254 632 266 646 319 647 L319 695 L29 695 L29 647 C81 646 97 632 97 575 L97 117 C97 60 81 46 29 46 L29 0 L319 0 L319 46 C266 46 254 60 254 117 L254 333 L471 333 L471 117 Z M675 335 C761 335 794 301 794 202 C794 103 762 73 683 73 L628 73 L628 335 L675 335 Z " />
<glyph glyph-name="afii10060" unicode="&#x40b;" horiz-adv-x="853" d="M774 117 L774 274 C774 390 710 463 569 463 C497 463 432 436 384 406 L384 624 L425 624 C482 624 495 606 516 520 L592 520 L581 695 L26 695 L17 509 L92 509 C110 594 118 624 184 624 L227 624 L227 117 C227 59 208 46 148 46 L148 0 L457 0 L457 46 C404 46 384 59 384 117 L384 335 C421 354 468 367 512 367 C579 367 617 340 617 260 L617 117 C617 60 602 46 555 46 L555 0 L842 0 L842 46 C789 46 774 60 774 117 L774 117 Z " />
<glyph glyph-name="afii10061" unicode="&#x40c;" horiz-adv-x="690" d="M668 85 C599 94 587 127 572 198 C547 313 507 359 414 371 L414 376 C478 398 499 435 513 504 C524 558 552 579 601 585 L657 593 L644 705 C524 701 461 654 445 555 C424 419 361 404 283 404 L254 404 L254 575 C254 632 268 646 321 647 L321 695 L29 695 L29 647 C81 646 97 632 97 575 L97 117 C97 60 81 46 29 46 L29 0 L321 0 L321 46 C268 46 254 60 254 117 L254 333 L319 333 C370 333 382 311 416 169 C451 23 511 -14 654 -14 L668 85 Z M259 727 L505 799 L440 929 L235 765 L259 727 Z " />
<glyph glyph-name="uni040D" unicode="&#x40d;" horiz-adv-x="738" d="M494 492 C491 470 485 409 485 349 L485 117 C485 60 469 46 418 46 L418 0 L710 0 L710 46 C657 46 641 60 641 117 L641 575 C641 632 657 646 710 647 L710 695 L483 695 C483 648 482 625 466 596 L319 342 C282 278 260 234 249 203 L245 203 C247 225 254 286 254 346 L254 575 C254 632 269 646 321 647 L321 695 L29 695 L29 647 C81 646 97 632 97 575 L97 117 C97 60 81 46 29 46 L29 0 L255 0 C255 46 257 70 273 98 L419 354 C455 417 478 462 490 492 L494 492 Z M494 765 L288 929 L224 799 L470 727 L494 765 Z " />
<glyph glyph-name="afii10062" unicode="&#x40e;" horiz-adv-x="684" d="M357 731 C446 731 507 795 527 871 L489 893 C457 845 415 826 357 826 C298 826 256 845 224 893 L187 871 C206 795 268 731 357 731 L357 731 Z M323 184 C295 117 240 98 142 88 L155 -14 C307 -14 338 19 411 180 L593 582 C616 633 626 643 669 648 L669 695 L447 695 L447 648 C490 648 508 635 508 611 C508 603 507 596 504 589 L432 428 C412 382 388 327 387 311 L369 311 L250 588 C247 596 245 605 245 611 C245 634 262 648 303 648 L303 695 L15 695 L15 648 C53 643 61 631 84 584 L280 180 L323 184 Z " />
<glyph glyph-name="afii10145" unicode="&#x40f;" horiz-adv-x="741" d="M419 -180 C419 -48 433 0 473 0 L712 0 L712 46 C659 46 644 60 644 117 L644 575 C644 632 659 646 712 647 L712 695 L419 695 L419 647 C472 646 487 632 487 575 L487 72 L254 72 L254 575 C254 632 269 646 322 647 L322 695 L29 695 L29 647 C81 646 97 632 97 575 L97 117 C97 60 81 46 29 46 L29 0 L268 0 C308 0 321 -48 322 -180 L419 -180 Z " />
<glyph glyph-name="afii10017" unicode="&#x410;" horiz-adv-x="671" d="M435 101 C438 92 440 83 440 76 C440 56 424 48 379 46 L379 0 L663 0 L663 46 C622 51 612 67 596 113 L397 695 L271 695 L82 113 C65 60 51 51 8 46 L8 0 L229 0 L229 46 C185 48 165 51 165 76 C165 82 166 90 169 101 L194 187 L408 187 L435 101 Z M264 428 C282 489 290 523 295 543 L300 543 C304 523 312 486 330 430 L384 261 L215 261 L264 428 Z " />
<glyph glyph-name="afii10018" unicode="&#x411;" horiz-adv-x="619" d="M350 627 C425 627 442 603 461 516 L535 516 L522 695 L29 695 L29 647 C81 646 97 632 97 575 L97 117 C97 60 81 46 29 46 L29 0 L350 0 C542 0 600 102 600 210 C600 351 504 420 346 420 L254 420 L254 627 L350 627 Z M433 206 C433 102 401 73 322 73 L254 73 L254 349 L314 349 C400 349 433 308 433 206 L433 206 Z " />
<glyph glyph-name="afii10019" unicode="&#x412;" horiz-adv-x="634" d="M29 0 L377 0 C537 0 614 63 614 181 C614 277 560 340 439 353 L439 357 C530 373 587 417 587 511 C587 636 492 695 350 695 L29 695 L29 647 C81 646 97 632 97 575 L97 117 C97 60 81 46 29 46 L29 0 Z M254 67 L254 318 L333 318 C417 318 449 283 449 193 C449 95 416 67 333 67 L254 67 Z M254 387 L254 624 L312 624 C390 624 421 593 421 504 C421 412 394 387 316 387 L254 387 Z " />
<glyph glyph-name="afii10020" unicode="&#x413;" horiz-adv-x="555" d="M254 624 L360 624 C435 624 449 599 470 510 L545 510 L532 695 L29 695 L29 647 C81 646 97 632 97 575 L97 117 C97 60 81 46 29 46 L29 0 L339 0 L339 46 C271 46 254 61 254 118 L254 624 Z " />
<glyph glyph-name="afii10021" unicode="&#x414;" horiz-adv-x="715" d="M97 -180 C97 -65 118 0 162 0 L543 0 C583 0 585 -43 585 -180 L669 -180 L696 0 L696 72 L668 72 C621 72 608 85 608 121 L608 575 C608 632 623 646 676 647 L676 695 L106 695 L106 647 C159 646 175 632 175 575 C175 334 159 233 116 153 C96 116 74 89 47 72 L7 72 L7 -180 L97 -180 Z M174 79 C194 107 212 155 224 199 C249 289 256 442 257 623 L451 623 L451 72 L174 72 L174 79 Z " />
<glyph glyph-name="afii10022" unicode="&#x415;" horiz-adv-x="593" d="M29 0 L553 0 L553 183 L477 183 C469 90 444 67 378 67 L254 67 L254 318 L317 318 C379 318 394 301 398 247 L464 247 L464 457 L398 457 C394 400 378 386 316 386 L254 386 L254 624 L363 624 C433 624 445 602 467 526 L541 526 L530 695 L29 695 L29 647 C81 646 97 632 97 575 L97 117 C97 60 81 46 29 46 L29 0 Z " />
<glyph glyph-name="afii10024" unicode="&#x416;" horiz-adv-x="1008" d="M832 505 C844 559 871 579 919 585 L975 593 L963 705 C843 701 780 655 764 555 C743 419 678 404 601 404 L582 404 L582 575 C582 632 596 646 649 647 L649 695 L359 695 L359 647 C412 646 425 632 425 575 L425 404 L407 404 C330 404 265 419 244 555 C228 655 165 701 45 705 L32 593 L88 585 C137 579 165 559 176 505 C191 435 212 397 276 376 L276 371 C183 359 143 313 119 198 C104 127 91 94 22 85 L36 -14 C179 -14 239 23 274 169 C308 311 324 333 375 333 L425 333 L425 117 C425 60 412 46 359 46 L359 0 L649 0 L649 46 C596 46 582 60 582 117 L582 333 L637 333 C688 333 700 311 734 169 C769 23 829 -14 972 -14 L986 85 C917 94 904 127 889 198 C865 313 825 359 732 371 L732 376 C796 397 818 435 832 505 L832 505 Z " />
<glyph glyph-name="afii10025" unicode="&#x417;" horiz-adv-x="574" d="M242 328 C347 328 386 282 386 192 C386 116 352 56 267 56 C185 56 154 104 142 189 L38 189 L38 47 C79 17 173 -12 277 -12 C450 -12 554 63 554 197 C554 306 475 355 367 368 L367 372 C471 391 524 451 524 530 C524 633 443 707 263 707 C176 707 94 683 46 652 L46 521 L149 521 C162 596 190 636 260 636 C326 636 359 588 359 523 C359 450 325 402 249 402 L176 402 L176 328 L242 328 Z " />
<glyph glyph-name="afii10026" unicode="&#x418;" horiz-adv-x="738" d="M494 492 C491 470 485 409 485 349 L485 117 C485 60 469 46 418 46 L418 0 L710 0 L710 46 C657 46 641 60 641 117 L641 575 C641 632 657 646 710 647 L710 695 L483 695 C483 648 482 625 466 596 L319 342 C282 278 260 234 249 203 L245 203 C247 225 254 286 254 346 L254 575 C254 632 269 646 321 647 L321 695 L29 695 L29 647 C81 646 97 632 97 575 L97 117 C97 60 81 46 29 46 L29 0 L255 0 C255 46 257 70 273 98 L419 354 C455 417 478 462 490 492 L494 492 Z " />
<glyph glyph-name="afii10027" unicode="&#x419;" horiz-adv-x="738" d="M494 492 C491 470 485 409 485 349 L485 117 C485 60 469 46 418 46 L418 0 L710 0 L710 46 C657 46 641 60 641 117 L641 575 C641 632 657 646 710 647 L710 695 L483 695 C483 648 482 625 466 596 L319 342 C282 278 260 234 249 203 L245 203 C247 225 254 286 254 346 L254 575 C254 632 269 646 321 647 L321 695 L29 695 L29 647 C81 646 97 632 97 575 L97 117 C97 60 81 46 29 46 L29 0 L255 0 C255 46 257 70 273 98 L419 354 C455 417 478 462 490 492 L494 492 Z M369 731 C458 731 519 795 539 871 L501 893 C469 845 427 826 369 826 C310 826 268 845 236 893 L199 871 C218 795 280 731 369 731 L369 731 Z " />
<glyph glyph-name="afii10028" unicode="&#x41a;" horiz-adv-x="690" d="M668 85 C599 94 587 127 572 198 C547 313 507 359 414 371 L414 376 C478 398 499 435 513 504 C524 558 552 579 601 585 L657 593 L644 705 C524 701 461 654 445 555 C424 419 361 404 283 404 L254 404 L254 575 C254 632 268 646 321 647 L321 695 L29 695 L29 647 C81 646 97 632 97 575 L97 117 C97 60 81 46 29 46 L29 0 L321 0 L321 46 C268 46 254 60 254 117 L254 333 L319 333 C370 333 382 311 416 169 C451 23 511 -14 654 -14 L668 85 Z " />
<glyph glyph-name="afii10029" unicode="&#x41b;" horiz-adv-x="717" d="M187 575 C187 336 168 212 120 150 C91 113 57 98 5 86 L17 -14 C143 -14 201 30 233 168 C260 284 268 441 269 623 L463 623 L463 117 C463 60 449 46 396 46 L396 0 L689 0 L689 46 C636 46 620 60 620 117 L620 575 C620 632 636 646 689 647 L689 695 L119 695 L119 647 C172 646 187 632 187 575 L187 575 Z " />
<glyph glyph-name="afii10030" unicode="&#x41c;" horiz-adv-x="879" d="M824 695 L566 695 L471 346 C457 295 448 233 444 211 L440 211 C437 235 428 299 413 346 L306 695 L47 695 L47 648 C120 645 122 621 119 572 L88 124 C84 64 74 47 18 45 L18 0 L234 0 L234 45 C173 45 167 63 170 118 L188 427 C191 475 193 539 194 565 L199 565 C203 541 215 471 230 423 L361 0 L454 0 L578 449 C589 487 599 545 602 564 L607 564 L607 542 C607 516 608 467 610 440 L637 117 C642 63 635 47 570 45 L570 0 L861 0 L861 45 C805 47 797 66 792 122 L752 572 C747 624 754 644 824 648 L824 695 Z " />
<glyph glyph-name="afii10031" unicode="&#x41d;" horiz-adv-x="746" d="M492 117 C492 60 476 46 423 46 L423 0 L717 0 L717 46 C665 46 649 60 649 117 L649 575 C649 632 665 646 717 647 L717 695 L423 695 L423 647 C476 646 492 632 492 575 L492 394 L254 394 L254 575 C254 632 270 646 323 647 L323 695 L29 695 L29 647 C81 646 97 632 97 575 L97 117 C97 60 81 46 29 46 L29 0 L323 0 L323 46 C270 46 254 60 254 117 L254 319 L492 319 L492 117 Z " />
<glyph glyph-name="afii10032" unicode="&#x41e;" horiz-adv-x="706" d="M354 -12 C550 -12 665 115 665 338 C665 581 545 707 353 707 C171 707 41 593 41 340 C41 118 154 -12 354 -12 L354 -12 Z M353 636 C449 636 491 561 491 343 C491 108 438 53 354 53 C261 53 215 121 215 349 C215 566 259 636 353 636 L353 636 Z " />
<glyph glyph-name="afii10033" unicode="&#x41f;" horiz-adv-x="741" d="M487 117 C487 60 472 46 419 46 L419 0 L712 0 L712 46 C659 46 644 60 644 117 L644 575 C644 632 659 646 712 647 L712 695 L29 695 L29 647 C81 646 97 632 97 575 L97 117 C97 60 81 46 29 46 L29 0 L322 0 L322 46 C269 46 254 60 254 117 L254 623 L487 623 L487 117 Z " />
<glyph glyph-name="afii10034" unicode="&#x420;" horiz-adv-x="605" d="M254 267 L349 267 C541 267 596 373 596 483 C596 628 505 695 347 695 L29 695 L29 647 C81 646 97 632 97 575 L97 117 C97 60 81 46 29 46 L29 0 L339 0 L339 46 C271 46 254 61 254 118 L254 267 Z M429 481 C429 373 400 341 321 341 L254 341 L254 624 L313 624 C400 624 429 586 429 481 L429 481 Z " />
<glyph glyph-name="afii10035" unicode="&#x421;" horiz-adv-x="620" d="M356 -12 C456 -12 542 13 583 43 L583 175 L480 175 C467 93 441 56 362 56 C276 56 216 102 216 344 C216 572 268 636 362 636 C431 636 454 597 470 521 L578 521 L578 657 C530 688 462 707 364 707 C172 707 41 592 41 338 C41 113 152 -12 356 -12 L356 -12 Z " />
<glyph glyph-name="afii10036" unicode="&#x422;" horiz-adv-x="609" d="M27 695 L16 509 L92 509 C112 595 118 624 183 624 L226 624 L226 117 C226 59 207 46 147 46 L147 0 L462 0 L462 46 C402 46 383 59 383 117 L383 624 L426 624 C490 624 497 595 517 509 L592 509 L581 695 L27 695 Z " />
<glyph glyph-name="afii10037" unicode="&#x423;" horiz-adv-x="684" d="M323 184 C295 117 240 98 142 88 L155 -14 C307 -14 338 19 411 180 L593 582 C616 633 626 643 669 648 L669 695 L447 695 L447 648 C490 648 508 635 508 611 C508 603 507 596 504 589 L432 428 C412 382 388 327 387 311 L369 311 L250 588 C247 596 245 605 245 611 C245 634 262 648 303 648 L303 695 L15 695 L15 648 C53 643 61 631 84 584 L280 180 L323 184 Z " />
<glyph glyph-name="afii10038" unicode="&#x424;" horiz-adv-x="858" d="M575 729 L283 729 L283 682 C329 681 352 670 352 632 C151 632 25 554 25 365 C25 157 171 98 352 98 C352 55 330 46 283 46 L283 0 L575 0 L575 46 C528 46 506 55 506 98 C687 98 833 157 833 365 C833 554 707 632 506 632 C506 670 529 681 575 682 L575 729 Z M352 162 C228 162 188 233 188 368 C188 494 228 568 352 568 L352 162 Z M506 568 C630 568 670 494 670 368 C670 233 630 162 506 162 L506 568 Z " />
<glyph glyph-name="afii10039" unicode="&#x425;" horiz-adv-x="689" d="M558 584 C587 628 601 643 640 648 L640 695 L425 695 L425 648 C458 648 476 636 476 616 C476 608 472 598 466 586 L377 440 L372 440 L284 588 C279 598 275 608 275 616 C275 635 292 648 328 648 L328 695 L35 695 L35 648 C69 643 80 632 109 586 L256 349 L111 115 C81 64 60 51 21 46 L21 0 L241 0 L241 46 C207 48 188 59 188 79 C188 86 191 96 197 105 L299 281 L304 281 L407 107 C414 96 417 87 417 79 C417 60 399 47 364 46 L364 0 L668 0 L668 46 C631 51 616 65 587 111 L420 378 L558 584 Z " />
<glyph glyph-name="afii10040" unicode="&#x426;" horiz-adv-x="751" d="M705 -180 L732 0 L732 72 L707 72 C658 72 644 84 644 121 L644 575 C644 632 659 646 712 647 L712 695 L419 695 L419 647 C472 646 487 632 487 575 L487 72 L254 72 L254 575 C254 632 269 646 322 647 L322 695 L29 695 L29 647 C81 646 97 632 97 575 L97 117 C97 60 81 46 29 46 L29 0 L579 0 C619 0 621 -43 621 -180 L705 -180 Z " />
<glyph glyph-name="afii10041" unicode="&#x427;" horiz-adv-x="726" d="M79 575 L79 387 C79 271 143 198 291 198 C361 198 424 225 472 255 L472 117 C472 60 456 46 403 46 L403 0 L698 0 L698 46 C645 46 629 60 629 117 L629 575 C629 632 645 646 698 647 L698 695 L410 695 L410 647 C458 646 472 632 472 575 L472 327 C433 308 385 295 341 295 C278 295 236 322 236 402 L236 575 C236 632 251 646 298 647 L298 695 L11 695 L11 647 C64 646 79 632 79 575 L79 575 Z " />
<glyph glyph-name="afii10042" unicode="&#x428;" horiz-adv-x="1026" d="M29 0 L998 0 L998 46 C945 46 929 60 929 117 L929 575 C929 632 945 646 998 647 L998 695 L717 695 L717 647 C759 646 774 632 774 575 L774 70 L586 70 L586 575 C586 632 601 646 652 647 L652 695 L375 695 L375 647 C418 646 432 632 432 575 L432 70 L253 70 L253 575 C253 632 267 646 310 647 L310 695 L29 695 L29 647 C81 646 97 632 97 575 L97 117 C97 60 81 46 29 46 L29 0 Z " />
<glyph glyph-name="afii10043" unicode="&#x429;" horiz-adv-x="1036" d="M29 0 L864 0 C904 0 906 -43 906 -180 L990 -180 L1018 0 L1018 72 L994 72 C944 72 929 85 929 122 L929 575 C929 632 945 646 998 647 L998 695 L717 695 L717 647 C759 646 774 632 774 575 L774 70 L586 70 L586 575 C586 632 601 646 652 647 L652 695 L375 695 L375 647 C418 646 432 632 432 575 L432 70 L253 70 L253 575 C253 632 267 646 310 647 L310 695 L29 695 L29 647 C81 646 97 632 97 575 L97 117 C97 60 81 46 29 46 L29 0 Z " />
<glyph glyph-name="afii10044" unicode="&#x42a;" horiz-adv-x="756" d="M496 0 C687 0 746 102 746 210 C746 351 649 420 492 420 L400 420 L400 575 C400 634 417 646 468 647 L468 695 L25 695 L12 510 L87 510 C107 599 121 624 196 624 L243 624 L243 117 C243 60 227 46 174 46 L174 0 L496 0 Z M578 206 C578 102 546 73 467 73 L400 73 L400 349 L459 349 C546 349 578 308 578 206 L578 206 Z " />
<glyph glyph-name="afii10045" unicode="&#x42b;" horiz-adv-x="933" d="M337 0 C529 0 587 102 587 210 C587 351 491 420 333 420 L254 420 L254 575 C254 634 271 646 323 647 L323 695 L29 695 L29 647 C81 646 97 632 97 575 L97 117 C97 60 81 46 29 46 L29 0 L337 0 Z M420 206 C420 102 388 73 309 73 L254 73 L254 349 L301 349 C388 349 420 308 420 206 L420 206 Z M679 117 C679 60 663 46 610 46 L610 0 L904 0 L904 46 C851 46 835 60 835 117 L835 575 C835 632 851 646 904 647 L904 695 L610 695 L610 647 C663 646 679 632 679 575 L679 117 Z " />
<glyph glyph-name="afii10046" unicode="&#x42c;" horiz-adv-x="610" d="M350 0 C542 0 600 102 600 210 C600 351 504 420 346 420 L254 420 L254 575 C254 634 271 646 323 647 L323 695 L29 695 L29 647 C81 646 97 632 97 575 L97 117 C97 60 81 46 29 46 L29 0 L350 0 Z M433 206 C433 102 401 73 322 73 L254 73 L254 349 L314 349 C400 349 433 308 433 206 L433 206 Z " />
<glyph glyph-name="afii10047" unicode="&#x42d;" horiz-adv-x="626" d="M175 315 L411 315 C407 94 347 56 264 56 C185 56 153 93 140 175 L37 175 L37 43 C77 13 162 -12 271 -12 C476 -12 585 117 585 338 C585 595 462 707 271 707 C176 707 102 688 42 657 L42 521 L150 521 C166 597 200 636 269 636 C355 636 403 575 410 390 L175 390 L175 315 Z " />
</font>
</svg>
