<svg viewBox="0 0 224 72" fill="none" xmlns="http://www.w3.org/2000/svg">
<path d="M23.1033 9.28071e-07C25.5429 0.554576 27.0337 2.36479 28.5142 4.16455C29.8799 5.81781 29.9633 7.62802 29.0563 9.54288C27.6905 12.4204 25.3969 14.262 22.5299 15.4549C22.3109 15.549 22.0607 15.5595 21.6854 15.6327C21.8522 15.3502 21.946 15.1828 22.0503 15.0154C23.1762 13.1319 23.8122 11.1334 23.6558 8.91506C23.4682 6.21543 21.7375 4.29011 19.0686 3.87156C18.4847 3.77739 17.9009 3.75646 17.2441 3.81924C17.4943 4.12269 17.7549 4.42614 18.0677 4.81329C17.4317 4.77144 16.8896 4.71912 16.3475 4.69819C14.0226 4.62495 12.1772 5.59807 10.7489 7.38736C9.20594 9.30221 8.42402 11.5519 8.04869 13.969C8.01742 13.969 7.96529 13.9795 7.96529 13.9585C6.464 11.1124 6.0574 8.13028 6.89145 5.0121C7.41273 3.06586 8.75764 1.99856 10.9574 1.93578C12.0626 1.90439 13.1781 2.02995 14.2728 2.17645C15.2945 2.30201 16.1598 2.82519 16.9522 3.53672C17.3483 3.024 17.7028 2.53221 18.099 2.07181C18.9643 1.04637 20.0069 0.303447 21.3726 0.0941739C21.4352 0.0837103 21.4977 0.0313919 21.5499 8.41422e-07C22.0607 8.69917e-07 22.582 8.98994e-07 23.1033 9.28071e-07Z" fill="white"/>
<path d="M5.49429 28.3456C6.45345 27.1318 7.58984 26.2424 8.88262 25.5413C10.0816 24.8821 11.3326 24.4112 12.7088 24.2543C14.5437 24.045 16.118 24.4635 17.2231 26.075C17.244 26.0959 17.2752 26.1063 17.3899 26.1691C17.3169 25.332 17.2648 24.5473 17.1606 23.7625C17.1501 23.6683 16.8686 23.5846 16.7018 23.5427C15.5237 23.2811 14.3352 23.03 13.1467 22.7789C13.0841 22.7684 13.032 22.7161 12.959 22.6847C13.7514 22.2034 14.5333 21.7639 15.2839 21.2617C16.5037 20.4455 17.6401 19.5352 18.3282 18.1749C18.3803 18.0702 18.5159 17.9656 18.641 17.9342C22.2378 16.9506 25.2508 14.9102 28.1179 12.6291C28.3368 12.4617 28.5453 12.2734 28.8164 12.0536C29.1917 13.2674 29.4315 14.4393 29.2855 15.6636C28.8164 19.441 26.3768 22.0569 22.561 22.8731C21.2787 23.1451 19.9755 23.3544 18.5889 23.616C18.6723 24.5263 18.7661 25.4785 18.8599 26.5458C18.9642 26.3889 19.0163 26.347 19.0372 26.2842C19.6106 24.6414 20.8408 23.7625 22.488 23.5741C25.7095 23.2184 28.4932 24.3171 30.9224 26.3889C30.9641 26.4203 30.9745 26.4726 31.0266 26.5563C30.7138 26.776 30.4219 27.0167 30.0987 27.205C28.4515 28.1677 26.8355 29.1931 25.1257 30.0302C23.6974 30.7313 22.144 30.8359 20.6323 30.1872C20.1214 29.9674 19.6523 29.6221 19.1414 29.3187C19.2144 30.0825 19.3291 30.8673 19.3395 31.6626C19.3604 32.6148 19.5689 33.2949 20.6323 33.6193C21.4455 33.8704 21.9668 34.6133 22.3004 35.3981C23.051 37.1246 23.7183 38.872 23.9789 40.7555C24.2395 42.6076 23.1031 43.6539 21.2995 43.1621C21.018 43.0889 20.7365 42.9738 20.4759 42.8482C19.1831 42.2099 18.1406 41.2996 17.3378 40.0963C17.2544 39.9707 17.171 39.8347 17.0876 39.7196C16.5142 39.8661 15.972 40.0126 15.3882 40.1695C16.3161 41.8228 16.608 43.5598 16.4308 45.3909C16.2222 47.536 15.5342 49.5345 14.6063 51.4494C14.5333 51.6063 14.4499 51.7633 14.429 51.9412C15.8886 50.3193 16.6184 48.2998 17.4108 46.2594C18.3699 47.1174 18.9016 48.1952 19.0789 49.3671C19.3187 50.9262 19.4021 52.5062 19.5063 54.0862C19.5376 54.5048 19.6314 54.735 20.0276 54.9024C21.7582 55.6558 23.4785 56.451 25.2508 57.2463C24.4272 58.3554 23.4785 59.2762 22.3525 60.0087C20.5384 61.1911 18.5055 61.6515 16.3786 61.7561C15.8469 61.777 15.482 61.934 15.1171 62.3107C12.2292 65.3242 9.32049 68.3168 6.41175 71.3199C6.21366 71.5187 6.03642 71.728 5.79664 72C5.69238 71.7803 5.62983 71.6547 5.5777 71.5083C3.74279 66.4543 1.90788 61.4108 0.0625512 56.3568C-0.0625561 56.0011 -2.42083e-06 55.7918 0.250212 55.5407C1.80363 53.8979 3.31534 52.2132 4.88961 50.5914C5.37961 50.0786 5.59855 49.5345 5.69238 48.8544C6.20324 45.3804 6.65154 41.8856 7.66282 38.5058C7.68367 38.443 7.71495 38.3698 7.72537 38.307C8.17368 35.9108 9.66454 34.6029 11.9582 33.9541C13.7931 33.4309 15.6176 33.0333 17.515 32.9496C17.6193 32.9496 17.7131 32.9182 17.8695 32.8973C17.7861 31.7463 17.6923 30.6162 17.5984 29.371C16.5767 30.5325 15.3882 31.108 13.9912 31.1394C13.2197 31.1603 12.4273 31.0661 11.6767 30.8882C9.51858 30.4278 7.54814 29.3501 5.49429 28.3456Z" fill="white"/>
<path d="M9.88325 9.8154C10.6964 10.1921 11.4784 10.5688 12.2603 10.9245C15.5131 12.4313 18.5573 12.0442 21.4348 9.96189C21.758 9.73169 22.0812 9.50149 22.4461 9.22943C22.8735 11.1861 22.6129 12.9754 21.3723 14.4927C19.5374 16.7319 17.1707 17.9247 14.2307 17.7678C11.8745 17.6422 9.67474 15.4762 9.4558 13.1219C9.34112 11.9395 9.47665 10.8304 9.88325 9.8154Z" fill="white"/>
<path d="M5.90155 8.88486C6.14133 10.1928 6.34985 11.4799 6.62091 12.746C6.71474 13.1959 6.92325 13.6354 7.13177 14.0435C7.37156 14.5248 7.79901 14.8178 8.34114 14.8387C8.67476 14.8492 8.82071 15.027 8.9771 15.2677C10.8537 18.0929 13.5018 19.2439 16.838 18.8672C16.8901 18.8568 16.9423 18.8672 16.9944 18.8672C17.0048 18.8672 17.0257 18.8777 17.0882 18.9091C15.7954 20.4368 14.2837 21.5982 12.2716 21.8284C9.77987 22.111 7.51751 21.4308 5.58878 19.8089C4.20217 18.6475 3.57663 17.0989 3.52451 15.3096C3.4828 13.8656 3.63919 12.4634 4.24387 11.1345C4.64005 10.2556 5.1926 9.51268 5.90155 8.88486Z" fill="white"/>
<path d="M20.2043 51.5533C19.8812 49.9419 19.5788 48.4142 19.2556 46.7923C20.2773 46.5935 21.2782 46.3633 22.279 46.2273C24.0305 45.9762 25.782 45.7564 27.544 45.5785C27.9714 45.5367 28.4406 45.6518 28.868 45.7774C29.4623 45.9552 29.9106 46.3633 30.0878 46.9702C30.6612 48.8642 30.1921 50.3814 28.1695 50.7581C27.0644 50.9569 25.9384 51.0825 24.8229 51.208C23.4571 51.3545 22.0914 51.4592 20.7256 51.5743C20.5484 51.5847 20.3503 51.5533 20.2043 51.5533Z" fill="white"/>
<path d="M10.4146 8.57102C11.0401 7.49326 11.9575 6.79219 13.0314 6.28994C15.0122 5.35867 17.0557 5.02383 19.1929 5.67258C20.5482 6.09113 21.5595 6.93869 22.258 8.25711C19.7663 10.0987 17.2016 11.6683 13.8967 10.7579C12.7916 10.4545 11.9575 9.91037 10.4146 8.57102Z" fill="white"/>
<path d="M16.9418 41.5621C17.192 41.6458 17.4631 41.6981 17.6716 41.8341C18.3597 42.2736 19.0373 42.7235 19.6942 43.2153C20.3614 43.7176 21.0912 43.9583 21.9148 43.9896C23.6559 44.0524 24.8757 42.6922 24.6463 40.9656C24.5942 40.5994 24.5421 40.2436 24.4899 39.8251C25.8974 39.6681 27.2944 39.3752 28.7123 39.7205C29.7027 39.9611 30.2344 40.6413 30.297 41.6667C30.3178 41.9597 30.3074 42.2631 30.297 42.5561C30.2344 44.0106 29.6193 44.6803 28.2015 44.8791C25.3136 45.2871 22.4361 45.7057 19.5482 46.1033C19.371 46.1242 19.0686 46.0405 18.9956 45.915C18.2659 44.5338 17.5673 43.1316 16.8584 41.74C16.8792 41.6667 16.9105 41.6144 16.9418 41.5621Z" fill="white"/>
<path d="M26.9081 51.5657C27.3356 51.6075 27.7318 51.6389 28.1279 51.7017C29.0662 51.8691 29.8794 52.2353 30.1714 53.2399C30.4737 54.2862 30.3277 55.2907 29.5458 56.1069C28.7952 56.8917 27.8047 57.1533 26.7726 57.2684C26.6788 57.2788 26.5745 57.2265 26.4807 57.1847C24.5207 56.2952 22.5711 55.3849 20.6111 54.506C20.267 54.349 20.1419 54.1816 20.1732 53.8049C20.2149 53.4282 20.1419 53.0306 20.1836 52.6539C20.2045 52.5074 20.3817 52.2667 20.5173 52.2563C22.6545 52.0051 24.8022 51.7854 26.9081 51.5657Z" fill="white"/>
<path d="M24.3956 39.3008C23.7701 37.4383 23.28 35.5339 22.0707 33.8492C23.2488 33.7237 24.3747 33.5563 25.5007 33.504C26.3556 33.4621 27.2209 33.5458 28.0758 33.5981C28.2635 33.6086 28.4407 33.7132 28.618 33.776C30.7344 34.5399 30.578 36.7686 29.8899 38.087C29.6188 38.6207 29.0454 38.8195 28.4929 38.8823C27.1375 39.0497 25.7718 39.1648 24.3956 39.3008Z" fill="white"/>
<path d="M60.5164 13.4808V27.2369C60.5164 32.2354 59.2956 33.5573 54.7492 33.5573C52.2235 33.5573 49.8661 33.4747 49.0242 33.3507V42.7281C49.8661 42.9346 52.7707 43.2238 54.8334 43.2238C66.5361 43.2238 71.0404 40.1669 71.0404 27.2369V13.4808L60.5164 13.4808Z" fill="white"/>
<path d="M93.203 13.4808V29.7155C93.203 32.318 90.8877 33.7225 88.4882 33.7225C86.0045 33.7225 83.8155 32.318 83.8155 29.7155V13.4808H73.2915V29.4676C73.2915 38.8449 79.7322 43.2238 88.4461 43.2238C97.6651 43.2238 103.727 38.8863 103.727 29.4676V13.4808H93.203Z" fill="white"/>
<path d="M120.073 13.0677C111.148 13.0677 105.676 17.0334 105.676 22.7754C105.676 28.848 109.296 31.7397 120.367 32.5659C122.851 32.7311 124.535 32.8137 124.535 33.6812C124.535 34.7966 123.903 35.1271 120.325 35.1271C117.168 35.1271 115.947 34.4661 115.863 33.2268H105.339C105.676 39.5885 110.812 43.2238 120.325 43.2238C130.007 43.2238 135.269 40.1255 135.269 33.8052C135.269 27.65 132.575 24.5931 120.367 23.7669C117.463 23.5603 116.158 23.519 116.158 22.6102C116.158 21.5775 117.21 21.1644 120.073 21.1644C122.472 21.1644 124.198 21.7014 124.324 23.0233H134.891C134.638 16.8268 129.881 13.0677 120.073 13.0677Z" fill="white"/>
<path d="M136.752 28.1457C136.752 38.1014 144.118 43.2238 153.422 43.2238C163.483 43.2238 170.007 38.1014 170.007 28.1457C170.007 18.8923 163.272 13.0677 153.422 13.0677C144.118 13.0677 136.752 18.7684 136.752 28.1457ZM147.528 28.1457C147.528 24.717 149.886 22.445 153.422 22.445C157.042 22.445 159.273 24.7583 159.273 28.1457C159.273 31.7397 157.084 33.8465 153.422 33.8465C149.886 33.8465 147.528 31.6984 147.528 28.1457Z" fill="white"/>
<path d="M49.0242 59.1331H50.8108V50.4342H49.0242V59.1331Z" fill="white"/>
<path d="M52.6472 59.1331H54.3526V56.0015C54.3526 54.8582 54.9617 54.1871 56.004 54.1871C56.9244 54.1871 57.4387 54.6469 57.4387 55.579V59.1331H59.1441V55.4547C59.1441 53.9262 58.1019 52.8699 56.5318 52.8699C55.3272 52.8699 54.7858 53.3545 54.5692 53.7771H54.3256V52.9693H52.6472V59.1331Z" fill="white"/>
<path d="M67.1316 59.3071C68.3497 59.3071 68.9318 58.8597 69.2431 58.3875H69.4867V59.1331H71.1651V50.4342H69.4596V53.6776H69.216C68.9318 53.2427 68.3497 52.7953 67.1316 52.7953C65.5073 52.7953 64.0997 53.9386 64.0997 55.9518V56.1506C64.0997 58.1638 65.5209 59.3071 67.1316 59.3071ZM67.6459 57.9401C66.6037 57.9401 65.8051 57.3063 65.8051 56.1133V55.9891C65.8051 54.7961 66.5902 54.1623 67.6459 54.1623C68.7017 54.1623 69.4867 54.7961 69.4867 55.9891V56.1133C69.4867 57.3063 68.6881 57.9401 67.6459 57.9401Z" fill="white"/>
<path d="M76.1149 59.3071C77.9557 59.3071 78.7543 58.3502 79.1333 57.6916L77.7391 57.0205C77.509 57.4927 77.1165 57.9401 76.169 57.9401C75.2216 57.9401 74.5042 57.356 74.4636 56.511H79.3498V55.9766C79.3498 54.0877 78.064 52.7953 76.0878 52.7953C74.0846 52.7953 72.7311 54.038 72.7311 55.9766V56.1258C72.7311 58.0644 74.0981 59.3071 76.1149 59.3071ZM74.4771 55.3429C74.5989 54.6345 75.1539 54.1623 76.0743 54.1623C76.9541 54.1623 77.5361 54.6345 77.6173 55.3429H74.4771Z" fill="white"/>
<path d="M80.8678 59.1331H82.5732V56.0015C82.5732 54.8582 83.1823 54.1871 84.2246 54.1871C85.145 54.1871 85.6593 54.6469 85.6593 55.579V59.1331H87.3647V55.4547C87.3647 53.9262 86.3225 52.8699 84.7524 52.8699C83.5478 52.8699 83.0064 53.3545 82.7898 53.7771H82.5462V52.9693H80.8678V59.1331Z" fill="white"/>
<path d="M95.8665 59.3071C97.3283 59.3071 97.7615 58.723 97.9509 58.3005H98.1946V59.1331H99.8459V54.6842H95.8394V56.076H98.0863V56.2003C98.0863 57.1696 97.5178 57.8655 96.2184 57.8655C94.919 57.8655 94.1611 57.0702 94.1611 55.8524V53.7149C94.1611 52.4971 94.919 51.7266 96.1914 51.7266C97.4637 51.7266 98.0863 52.4474 98.0863 53.367V53.4664H99.8459V53.4167C99.8459 51.4781 98.5194 50.2602 96.1914 50.2602C93.8362 50.2602 92.3744 51.5029 92.3744 53.7398V55.8275C92.3744 58.0644 93.9174 59.3071 95.8665 59.3071Z" fill="white"/>
<path d="M104.666 59.3071C106.507 59.3071 107.305 58.3502 107.684 57.6916L106.29 57.0205C106.06 57.4927 105.668 57.9401 104.72 57.9401C103.773 57.9401 103.055 57.356 103.015 56.511H107.901V55.9766C107.901 54.0877 106.615 52.7953 104.639 52.7953C102.636 52.7953 101.282 54.038 101.282 55.9766V56.1258C101.282 58.0644 102.649 59.3071 104.666 59.3071ZM103.028 55.3429C103.15 54.6345 103.705 54.1623 104.625 54.1623C105.505 54.1623 106.087 54.6345 106.168 55.3429H103.028Z" fill="white"/>
<path d="M109.419 59.1331H111.124V55.492C111.124 54.6469 111.557 54.1747 112.342 54.1747C113.019 54.1747 113.425 54.5227 113.425 55.1937V59.1331H115.131V55.492C115.131 54.6469 115.564 54.1747 116.349 54.1747C117.026 54.1747 117.432 54.5227 117.432 55.1937V59.1331H119.137V55.0819C119.137 53.5907 118.136 52.8699 116.89 52.8699C115.862 52.8699 115.347 53.2676 115.05 53.7895H114.806C114.495 53.2427 113.953 52.8699 112.992 52.8699C112.099 52.8699 111.571 53.2303 111.341 53.6404H111.097V52.9693L109.419 52.9693V59.1331Z" fill="white"/>
<path d="M124.03 59.3071C125.871 59.3071 126.67 58.3502 127.049 57.6916L125.655 57.0205C125.425 57.4927 125.032 57.9401 124.085 57.9401C123.137 57.9401 122.42 57.356 122.379 56.511H127.265V55.9766C127.265 54.0877 125.98 52.7953 124.003 52.7953C122 52.7953 120.647 54.038 120.647 55.9766V56.1258C120.647 58.0644 122.014 59.3071 124.03 59.3071ZM122.393 55.3429C122.514 54.6345 123.069 54.1623 123.99 54.1623C124.87 54.1623 125.452 54.6345 125.533 55.3429H122.393Z" fill="white"/>
<path d="M129.636 52.2485C130.259 52.2485 130.732 51.8509 130.732 51.2544C130.732 50.6579 130.259 50.2602 129.636 50.2602C129.013 50.2602 128.54 50.6579 128.54 51.2544C128.54 51.8509 129.013 52.2485 129.636 52.2485ZM128.783 59.1331H130.489V52.9693H128.783V59.1331Z" fill="white"/>
<path d="M132.379 59.1331H134.084V56.0015C134.084 54.8582 134.693 54.1871 135.735 54.1871C136.656 54.1871 137.17 54.6469 137.17 55.579V59.1331H138.876V55.4547C138.876 53.9262 137.833 52.8699 136.263 52.8699C135.059 52.8699 134.517 53.3545 134.301 53.7771H134.057V52.9693H132.379V59.1331Z" fill="white"/>
<path d="M143.426 59.3071C144.645 59.3071 145.227 58.8597 145.538 58.3875H145.781V59.1331H147.46V50.4342H145.754V53.6776H145.511C145.227 53.2427 144.645 52.7953 143.426 52.7953C141.802 52.7953 140.394 53.9386 140.394 55.9518V56.1506C140.394 58.1638 141.816 59.3071 143.426 59.3071ZM143.941 57.9401C142.898 57.9401 142.1 57.3063 142.1 56.1133V55.9891C142.1 54.7961 142.885 54.1623 143.941 54.1623C144.996 54.1623 145.781 54.7961 145.781 55.9891V56.1133C145.781 57.3063 144.983 57.9401 143.941 57.9401Z" fill="white"/>
<path d="M152.41 59.3071C154.25 59.3071 155.049 58.3502 155.428 57.6916L154.034 57.0205C153.804 57.4927 153.411 57.9401 152.464 57.9401C151.516 57.9401 150.799 57.356 150.758 56.511H155.645V55.9766C155.645 54.0877 154.359 52.7953 152.383 52.7953C150.379 52.7953 149.026 54.038 149.026 55.9766V56.1258C149.026 58.0644 150.393 59.3071 152.41 59.3071ZM150.772 55.3429C150.894 54.6345 151.449 54.1623 152.369 54.1623C153.249 54.1623 153.831 54.6345 153.912 55.3429H150.772Z" fill="white"/>
<path d="M157.163 59.1331H158.868V55.6287C158.868 54.7588 159.491 54.3363 160.357 54.3363H161.196V52.9444H160.384C159.761 52.9444 159.274 53.1681 159.085 53.6652H158.841V52.9693H157.163V59.1331Z" fill="white"/>
<path d="M164.455 59.3071C165.863 59.3071 166.282 58.6111 166.404 58.3005H166.661V58.3129C166.661 58.81 167.148 59.1331 167.812 59.1331H168.949V57.8407H168.407C168.164 57.8407 168.028 57.7164 168.028 57.4679V55.1689C168.028 53.6279 166.918 52.7953 165.159 52.7953C163.413 52.7953 162.533 53.6031 162.208 54.5351L163.778 55.0198C163.9 54.4605 164.279 54.0629 165.132 54.0629C165.998 54.0629 166.377 54.4854 166.377 55.057V55.405H164.536C163.02 55.405 161.937 56.0636 161.937 57.3312C161.937 58.5987 163.02 59.3071 164.455 59.3071ZM164.753 58.0395C164.022 58.0395 163.643 57.7288 163.643 57.2815C163.643 56.8341 164.022 56.5731 164.658 56.5731H166.377V56.6974C166.377 57.5176 165.7 58.0395 164.753 58.0395Z" fill="white"/>
<path d="M172.278 59.1331H174.173V57.8407H172.874C172.63 57.8407 172.495 57.7164 172.495 57.4679V54.2617H174.336V52.9693H172.495V51.0555H170.789V52.9693H169.111V54.2617H170.789V57.7413C170.789 58.5863 171.385 59.1331 172.278 59.1331Z" fill="white"/>
<path d="M179.857 59.1331H182.686L183.553 54.0256H183.796L184.663 59.1331H187.491L188.439 52.9693H186.747L186.151 58.0768H185.908L185.041 52.9693H182.307L181.441 58.0768H181.197L180.602 52.9693H178.91L179.857 59.1331Z" fill="white"/>
<path d="M194.18 52.2982C194.803 52.2982 195.277 51.913 195.277 51.3041C195.277 50.6952 194.803 50.3099 194.18 50.3099C193.558 50.3099 193.084 50.6952 193.084 51.3041C193.084 51.913 193.558 52.2982 194.18 52.2982ZM191.392 52.2982C192.015 52.2982 192.488 51.913 192.488 51.3041C192.488 50.6952 192.015 50.3099 191.392 50.3099C190.769 50.3099 190.296 50.6952 190.296 51.3041C190.296 51.913 190.769 52.2982 191.392 52.2982ZM192.015 59.3071C193.422 59.3071 193.842 58.6111 193.964 58.3005H194.221V58.3129C194.221 58.81 194.708 59.1331 195.371 59.1331H196.508V57.8407H195.967C195.723 57.8407 195.588 57.7164 195.588 57.4679V55.1689C195.588 53.6279 194.478 52.7953 192.718 52.7953C190.972 52.7953 190.093 53.6031 189.768 54.5351L191.338 55.0198C191.46 54.4605 191.839 54.0629 192.691 54.0629C193.558 54.0629 193.937 54.4854 193.937 55.057V55.405H192.096C190.58 55.405 189.497 56.0636 189.497 57.3312C189.497 58.5987 190.58 59.3071 192.015 59.3071ZM192.312 58.0395C191.581 58.0395 191.202 57.7288 191.202 57.2815C191.202 56.8341 191.581 56.5731 192.218 56.5731H193.937V56.6974C193.937 57.5176 193.26 58.0395 192.312 58.0395Z" fill="white"/>
<path d="M197.755 59.1331H199.461V56.0015C199.461 54.8582 200.07 54.1871 201.112 54.1871C202.032 54.1871 202.547 54.6469 202.547 55.579V59.1331H204.252V55.4547C204.252 53.9262 203.21 52.8699 201.64 52.8699C200.449 52.8699 199.921 53.3297 199.704 53.7273H199.461V50.4342H197.755V59.1331Z" fill="white"/>
<path d="M206.096 59.1331H207.801V50.4342H206.096V59.1331Z" fill="white"/>
<path d="M212.75 59.3071C214.591 59.3071 215.39 58.3502 215.769 57.6916L214.374 57.0205C214.144 57.4927 213.752 57.9401 212.804 57.9401C211.857 57.9401 211.139 57.356 211.099 56.511L215.985 56.511V55.9766C215.985 54.0877 214.699 52.7953 212.723 52.7953C210.72 52.7953 209.366 54.038 209.366 55.9766V56.1258C209.366 58.0644 210.733 59.3071 212.75 59.3071ZM211.112 55.3429C211.234 54.6345 211.789 54.1623 212.71 54.1623C213.589 54.1623 214.171 54.6345 214.253 55.3429H211.112Z" fill="white"/>
<path d="M217.503 59.1331H219.209V56.0015C219.209 54.8582 219.818 54.1871 220.86 54.1871C221.78 54.1871 222.295 54.6469 222.295 55.579V59.1331H224V55.4547C224 53.9262 222.958 52.8699 221.388 52.8699C220.183 52.8699 219.642 53.3545 219.425 53.7771H219.181V52.9693H217.503V59.1331Z" fill="white"/>
</svg>
